<?xml version="1.0" encoding="UTF-8" standalone="no"?>
<!DOCTYPE svg PUBLIC "-//W3C//DTD SVG 1.1//EN"
 "http://www.w3.org/Graphics/SVG/1.1/DTD/svg11.dtd">
<!-- Generated by graphviz version 2.38.0 (20140413.2041)
 -->
<!-- Title: example3.txt_fields Pages: 1 -->
<svg width="589pt" height="911pt"
 viewBox="0.00 0.00 589.07 910.57" xmlns="http://www.w3.org/2000/svg" xmlns:xlink="http://www.w3.org/1999/xlink">
<g id="graph0" class="graph" transform="scale(1 1) rotate(0) translate(201.333 488.883)">
<title>example3.txt_fields</title>
<polygon fill="white" stroke="none" points="-201.333,421.683 -201.333,-488.883 387.733,-488.883 387.733,421.683 -201.333,421.683"/>
<!-- 2_0 -->
<g id="node1" class="node"><title>2_0</title>
<ellipse fill="none" stroke="black" cx="67.2" cy="-436.8" rx="62.8651" ry="48.1667"/>
<text text-anchor="middle" x="67.2" y="-455.6" font-family="Times New Roman,serif" font-size="14.00">2,0</text>
<text text-anchor="middle" x="67.2" y="-440.6" font-family="Times New Roman,serif" font-size="14.00">ic: 7</text>
<text text-anchor="middle" x="67.2" y="-425.6" font-family="Times New Roman,serif" font-size="14.00">free: 3,0;3,1</text>
<text text-anchor="middle" x="67.2" y="-410.6" font-family="Times New Roman,serif" font-size="14.00">swlolw: none</text>
</g>
<!-- 2_0&#45;&gt;2_0 -->
<g id="edge1" class="edge"><title>2_0&#45;&gt;2_0</title>
<path fill="none" stroke="black" d="M129.638,-443.128C140.545,-442.284 148.133,-440.175 148.133,-436.8 148.133,-434.638 145.019,-432.995 139.913,-431.872"/>
<polygon fill="black" stroke="black" points="140.019,-428.354 129.638,-430.472 139.074,-435.29 140.019,-428.354"/>
<text text-anchor="middle" x="165.133" y="-433.1" font-family="Times New Roman,serif" font-size="14.00">2 &#160;(4) </text>
</g>
<!-- 1_3 -->
<g id="node2" class="node"><title>1_3</title>
<ellipse fill="none" stroke="black" cx="-134.4" cy="168" rx="62.8651" ry="48.1667"/>
<text text-anchor="middle" x="-134.4" y="149.2" font-family="Times New Roman,serif" font-size="14.00">1,3</text>
<text text-anchor="middle" x="-134.4" y="164.2" font-family="Times New Roman,serif" font-size="14.00">ic: 3</text>
<text text-anchor="middle" x="-134.4" y="179.2" font-family="Times New Roman,serif" font-size="14.00">free: 1,2;1,1</text>
<text text-anchor="middle" x="-134.4" y="194.2" font-family="Times New Roman,serif" font-size="14.00">swlolw: none</text>
</g>
<!-- 2_0&#45;&gt;1_3 -->
<g id="edge4" class="edge"><title>2_0&#45;&gt;1_3</title>
<path fill="none" stroke="black" d="M55.4034,-389.395C22.6309,-279.009 -68.4853,-5.29971 -111.557,112.567"/>
<polygon fill="black" stroke="black" points="-108.337,113.953 -115.073,122.131 -114.907,111.538 -108.337,113.953"/>
<text text-anchor="middle" x="-45.0768" y="-142.214" font-family="Times New Roman,serif" font-size="14.00">4 &#160;(4) </text>
</g>
<!-- 2_3 -->
<g id="node3" class="node"><title>2_3</title>
<ellipse fill="none" stroke="black" cx="67.2" cy="168" rx="62.8651" ry="48.1667"/>
<text text-anchor="middle" x="67.2" y="149.2" font-family="Times New Roman,serif" font-size="14.00">2,3</text>
<text text-anchor="middle" x="67.2" y="164.2" font-family="Times New Roman,serif" font-size="14.00">ic: 6</text>
<text text-anchor="middle" x="67.2" y="179.2" font-family="Times New Roman,serif" font-size="14.00">free: 2,2;2,1</text>
<text text-anchor="middle" x="67.2" y="194.2" font-family="Times New Roman,serif" font-size="14.00">swlolw: none</text>
</g>
<!-- 2_0&#45;&gt;2_3 -->
<g id="edge3" class="edge"><title>2_0&#45;&gt;2_3</title>
<path fill="none" stroke="black" d="M71.0689,-388.583C74.8003,-278.59 74.9072,-9.47292 71.3897,109.64"/>
<polygon fill="black" stroke="black" points="74.8871,109.781 71.0729,119.665 67.8906,109.56 74.8871,109.781"/>
<text text-anchor="middle" x="54.2293" y="-143.271" font-family="Times New Roman,serif" font-size="14.00">3 &#160;(3) </text>
</g>
<!-- 3_2 -->
<g id="node4" class="node"><title>3_2</title>
<ellipse fill="none" stroke="black" cx="268.8" cy="-33.6" rx="62.8651" ry="48.1667"/>
<text text-anchor="middle" x="268.8" y="-52.4" font-family="Times New Roman,serif" font-size="14.00">3,2</text>
<text text-anchor="middle" x="268.8" y="-37.4" font-family="Times New Roman,serif" font-size="14.00">ic: 6</text>
<text text-anchor="middle" x="268.8" y="-22.4" font-family="Times New Roman,serif" font-size="14.00">free: 3,1;3,0</text>
<text text-anchor="middle" x="268.8" y="-7.4" font-family="Times New Roman,serif" font-size="14.00">swlolw: none</text>
</g>
<!-- 2_0&#45;&gt;3_2 -->
<g id="edge2" class="edge"><title>2_0&#45;&gt;3_2</title>
<path fill="none" stroke="black" d="M94.1357,-392.943C134.292,-319.182 208.748,-170.483 246.227,-89.3984"/>
<polygon fill="black" stroke="black" points="249.617,-90.403 250.61,-79.8548 243.256,-87.4818 249.617,-90.403"/>
<text text-anchor="middle" x="153.182" y="-244.971" font-family="Times New Roman,serif" font-size="14.00">3 &#160;(3) </text>
</g>
<!-- 1_4 -->
<g id="node5" class="node"><title>1_4</title>
<ellipse fill="none" stroke="black" cx="-134.4" cy="369.6" rx="62.8651" ry="48.1667"/>
<text text-anchor="middle" x="-134.4" y="350.8" font-family="Times New Roman,serif" font-size="14.00">1,4</text>
<text text-anchor="middle" x="-134.4" y="365.8" font-family="Times New Roman,serif" font-size="14.00">ic: 9</text>
<text text-anchor="middle" x="-134.4" y="380.8" font-family="Times New Roman,serif" font-size="14.00">free: 2,4;3,4</text>
<text text-anchor="middle" x="-134.4" y="395.8" font-family="Times New Roman,serif" font-size="14.00">swlolw: none</text>
</g>
<!-- 2_0&#45;&gt;1_4 -->
<g id="edge5" class="edge"><title>2_0&#45;&gt;1_4</title>
<path fill="none" stroke="black" d="M58.7647,-389.14C28.2532,-248.999 -74.2188,161.333 -116.358,312.679"/>
<polygon fill="black" stroke="black" points="-113.096,314.011 -119.165,322.695 -119.836,312.122 -113.096,314.011"/>
<text text-anchor="middle" x="-45.7966" y="-42.0304" font-family="Times New Roman,serif" font-size="14.00">7 &#160;(7) </text>
</g>
<!-- 1_3&#45;&gt;2_0 -->
<g id="edge10" class="edge"><title>1_3&#45;&gt;2_0</title>
<path fill="none" stroke="black" d="M-122.603,120.595C-89.8309,10.2086 1.28534,-263.5 44.357,-381.367"/>
<polygon fill="black" stroke="black" points="41.1375,-382.753 47.8733,-390.931 47.7075,-380.338 41.1375,-382.753"/>
<text text-anchor="middle" x="-56.1232" y="-119.186" font-family="Times New Roman,serif" font-size="14.00">4 &#160;(4) </text>
</g>
<!-- 1_3&#45;&gt;1_3 -->
<g id="edge8" class="edge"><title>1_3&#45;&gt;1_3</title>
<path fill="none" stroke="black" d="M-71.9618,161.672C-61.0549,162.516 -53.4675,164.625 -53.4675,168 -53.4675,170.162 -56.5814,171.805 -61.687,172.928"/>
<polygon fill="black" stroke="black" points="-61.5808,176.446 -71.9618,174.328 -62.526,169.51 -61.5808,176.446"/>
<text text-anchor="middle" x="-36.4675" y="171.7" font-family="Times New Roman,serif" font-size="14.00">2 &#160;(4) </text>
</g>
<!-- 1_3&#45;&gt;2_3 -->
<g id="edge6" class="edge"><title>1_3&#45;&gt;2_3</title>
<path fill="none" stroke="black" d="M-71.9931,161.705C-50.929,161.182 -27.235,161.11 -5.44854,161.49"/>
<polygon fill="black" stroke="black" points="-5.18312,157.994 4.74095,161.704 -5.33055,164.993 -5.18312,157.994"/>
<text text-anchor="middle" x="-21.7208" y="157.798" font-family="Times New Roman,serif" font-size="14.00">1 &#160;(3) </text>
</g>
<!-- 1_3&#45;&gt;3_2 -->
<g id="edge9" class="edge"><title>1_3&#45;&gt;3_2</title>
<path fill="none" stroke="black" d="M-85.0213,138.07C-12.545,98.9058 122.71,31.137 203.375,-6.55275"/>
<polygon fill="black" stroke="black" points="202.39,-9.95457 212.934,-10.996 205.341,-3.60685 202.39,-9.95457"/>
<text text-anchor="middle" x="42.1767" y="61.9584" font-family="Times New Roman,serif" font-size="14.00">3 &#160;(3) </text>
</g>
<!-- 1_3&#45;&gt;1_4 -->
<g id="edge7" class="edge"><title>1_3&#45;&gt;1_4</title>
<path fill="none" stroke="black" d="M-128.55,216.032C-127.472,244.702 -127.362,281.303 -128.222,311.582"/>
<polygon fill="black" stroke="black" points="-124.724,311.707 -128.551,321.587 -131.721,311.477 -124.724,311.707"/>
<text text-anchor="middle" x="-145.386" y="260.007" font-family="Times New Roman,serif" font-size="14.00">1 &#160;(3) </text>
</g>
<!-- 2_3&#45;&gt;2_0 -->
<g id="edge15" class="edge"><title>2_3&#45;&gt;2_0</title>
<path fill="none" stroke="black" d="M63.3311,119.783C59.5997,9.79 59.4928,-259.327 63.0103,-378.44"/>
<polygon fill="black" stroke="black" points="59.5129,-378.581 63.3271,-388.465 66.5094,-378.36 59.5129,-378.581"/>
<text text-anchor="middle" x="46.1707" y="-118.129" font-family="Times New Roman,serif" font-size="14.00">3 &#160;(3) </text>
</g>
<!-- 2_3&#45;&gt;1_3 -->
<g id="edge11" class="edge"><title>2_3&#45;&gt;1_3</title>
<path fill="none" stroke="black" d="M4.79313,174.295C-16.271,174.818 -39.965,174.89 -61.7515,174.51"/>
<polygon fill="black" stroke="black" points="-62.0169,178.006 -71.9409,174.296 -61.8695,171.007 -62.0169,178.006"/>
<text text-anchor="middle" x="-19.9792" y="185.602" font-family="Times New Roman,serif" font-size="14.00">1 &#160;(3) </text>
</g>
<!-- 2_3&#45;&gt;2_3 -->
<g id="edge14" class="edge"><title>2_3&#45;&gt;2_3</title>
<path fill="none" stroke="black" d="M129.638,161.672C140.545,162.516 148.133,164.625 148.133,168 148.133,170.162 145.019,171.805 139.913,172.928"/>
<polygon fill="black" stroke="black" points="140.019,176.446 129.638,174.328 139.074,169.51 140.019,176.446"/>
<text text-anchor="middle" x="165.133" y="171.7" font-family="Times New Roman,serif" font-size="14.00">2 &#160;(4) </text>
</g>
<!-- 2_3&#45;&gt;3_2 -->
<g id="edge12" class="edge"><title>2_3&#45;&gt;3_2</title>
<path fill="none" stroke="black" d="M100.837,126.743C132.827,92.3967 181.288,43.7415 217.974,9.0239"/>
<polygon fill="black" stroke="black" points="215.932,6.13981 225.614,1.83726 220.728,11.2384 215.932,6.13981"/>
<text text-anchor="middle" x="142.406" y="64.0836" font-family="Times New Roman,serif" font-size="14.00">2 &#160;(4) </text>
</g>
<!-- 2_3&#45;&gt;1_4 -->
<g id="edge13" class="edge"><title>2_3&#45;&gt;1_4</title>
<path fill="none" stroke="black" d="M33.5629,209.257C1.57329,243.603 -46.8879,292.258 -83.5744,326.976"/>
<polygon fill="black" stroke="black" points="-81.5321,329.86 -91.214,334.163 -86.3284,324.762 -81.5321,329.86"/>
<text text-anchor="middle" x="-42.0058" y="264.316" font-family="Times New Roman,serif" font-size="14.00">2 &#160;(4) </text>
</g>
<!-- 3_2&#45;&gt;2_0 -->
<g id="edge18" class="edge"><title>3_2&#45;&gt;2_0</title>
<path fill="none" stroke="black" d="M241.864,-77.4567C201.708,-151.218 127.252,-299.917 89.7725,-381.002"/>
<polygon fill="black" stroke="black" points="86.3825,-379.997 85.39,-390.545 92.7438,-382.918 86.3825,-379.997"/>
<text text-anchor="middle" x="148.818" y="-218.029" font-family="Times New Roman,serif" font-size="14.00">3 &#160;(3) </text>
</g>
<!-- 3_2&#45;&gt;1_3 -->
<g id="edge19" class="edge"><title>3_2&#45;&gt;1_3</title>
<path fill="none" stroke="black" d="M219.421,-3.66958C146.945,35.4942 11.6903,103.263 -68.9748,140.953"/>
<polygon fill="black" stroke="black" points="-67.99,144.355 -78.5335,145.396 -70.9407,138.007 -67.99,144.355"/>
<text text-anchor="middle" x="58.2233" y="79.8416" font-family="Times New Roman,serif" font-size="14.00">3 &#160;(3) </text>
</g>
<!-- 3_2&#45;&gt;2_3 -->
<g id="edge16" class="edge"><title>3_2&#45;&gt;2_3</title>
<path fill="none" stroke="black" d="M235.163,7.65674C203.173,42.0033 154.712,90.6585 118.026,125.376"/>
<polygon fill="black" stroke="black" points="120.068,128.26 110.386,132.563 115.272,123.162 120.068,128.26"/>
<text text-anchor="middle" x="193.594" y="62.7164" font-family="Times New Roman,serif" font-size="14.00">2 &#160;(4) </text>
</g>
<!-- 3_2&#45;&gt;3_2 -->
<g id="edge17" class="edge"><title>3_2&#45;&gt;3_2</title>
<path fill="none" stroke="black" d="M331.238,-39.9281C342.145,-39.0844 349.733,-36.975 349.733,-33.6 349.733,-31.4379 346.619,-29.7952 341.513,-28.6719"/>
<polygon fill="black" stroke="black" points="341.619,-25.1541 331.238,-27.2719 340.674,-32.09 341.619,-25.1541"/>
<text text-anchor="middle" x="366.733" y="-29.9" font-family="Times New Roman,serif" font-size="14.00">2 &#160;(4) </text>
</g>
<!-- 3_2&#45;&gt;1_4 -->
<g id="edge20" class="edge"><title>3_2&#45;&gt;1_4</title>
<path fill="none" stroke="black" d="M234.15,6.89017C162.572,83.2235 -1.61161,247.586 -84.5629,326.14"/>
<polygon fill="black" stroke="black" points="-82.6552,329.152 -92.331,333.468 -87.4587,324.06 -82.6552,329.152"/>
<text text-anchor="middle" x="57.7936" y="162.715" font-family="Times New Roman,serif" font-size="14.00">4 &#160;(4) </text>
</g>
<!-- 1_4&#45;&gt;2_0 -->
<g id="edge25" class="edge"><title>1_4&#45;&gt;2_0</title>
<path fill="none" stroke="black" d="M-125.965,321.94C-95.4532,181.799 7.0188,-228.533 49.1579,-379.879"/>
<polygon fill="black" stroke="black" points="45.8962,-381.211 51.9655,-389.895 52.6364,-379.322 45.8962,-381.211"/>
<text text-anchor="middle" x="-55.4034" y="-17.7696" font-family="Times New Roman,serif" font-size="14.00">7 &#160;(7) </text>
</g>
<!-- 1_4&#45;&gt;1_3 -->
<g id="edge21" class="edge"><title>1_4&#45;&gt;1_3</title>
<path fill="none" stroke="black" d="M-140.25,321.568C-141.328,292.898 -141.438,256.297 -140.578,226.018"/>
<polygon fill="black" stroke="black" points="-144.076,225.893 -140.249,216.013 -137.079,226.123 -144.076,225.893"/>
<text text-anchor="middle" x="-157.414" y="284.993" font-family="Times New Roman,serif" font-size="14.00">1 &#160;(3) </text>
</g>
<!-- 1_4&#45;&gt;2_3 -->
<g id="edge22" class="edge"><title>1_4&#45;&gt;2_3</title>
<path fill="none" stroke="black" d="M-100.763,328.343C-68.7733,293.997 -20.3121,245.341 16.3744,210.624"/>
<polygon fill="black" stroke="black" points="14.3321,207.74 24.014,203.437 19.1284,212.838 14.3321,207.74"/>
<text text-anchor="middle" x="-59.1942" y="280.684" font-family="Times New Roman,serif" font-size="14.00">2 &#160;(4) </text>
</g>
<!-- 1_4&#45;&gt;3_2 -->
<g id="edge24" class="edge"><title>1_4&#45;&gt;3_2</title>
<path fill="none" stroke="black" d="M-99.7502,329.11C-28.1717,252.776 136.012,88.4142 218.963,9.86006"/>
<polygon fill="black" stroke="black" points="217.055,6.84802 226.731,2.53174 221.859,11.9398 217.055,6.84802"/>
<text text-anchor="middle" x="42.6064" y="180.685" font-family="Times New Roman,serif" font-size="14.00">4 &#160;(4) </text>
</g>
<!-- 1_4&#45;&gt;1_4 -->
<g id="edge23" class="edge"><title>1_4&#45;&gt;1_4</title>
<path fill="none" stroke="black" d="M-71.9618,363.272C-61.0549,364.116 -53.4675,366.225 -53.4675,369.6 -53.4675,371.762 -56.5814,373.405 -61.687,374.528"/>
<polygon fill="black" stroke="black" points="-61.5808,378.046 -71.9618,375.928 -62.526,371.11 -61.5808,378.046"/>
<text text-anchor="middle" x="-36.4675" y="373.3" font-family="Times New Roman,serif" font-size="14.00">2 &#160;(4) </text>
</g>
<!-- 1_1 -->
<g id="node6" class="node"><title>1_1</title>
<ellipse fill="green" stroke="black" cx="-134.4" cy="-235.2" rx="62.8651" ry="48.1667"/>
<text text-anchor="middle" x="-134.4" y="-254" font-family="Times New Roman,serif" font-size="14.00">1,1</text>
<text text-anchor="middle" x="-134.4" y="-239" font-family="Times New Roman,serif" font-size="14.00">ic: 2</text>
<text text-anchor="middle" x="-134.4" y="-224" font-family="Times New Roman,serif" font-size="14.00">free: 1,0;0,0</text>
<text text-anchor="middle" x="-134.4" y="-209" font-family="Times New Roman,serif" font-size="14.00">swlolw: none</text>
</g>
<!-- 1_1&#45;&gt;2_0 -->
<g id="edge26" class="edge"><title>1_1&#45;&gt;2_0</title>
<path fill="none" stroke="black" d="M-96.0061,-273.594C-62.5159,-307.084 -13.8735,-355.726 21.5914,-391.191"/>
<polygon fill="black" stroke="black" points="19.403,-393.953 28.949,-398.549 24.3528,-389.003 19.403,-393.953"/>
<text text-anchor="middle" x="-54.2073" y="-336.193" font-family="Times New Roman,serif" font-size="14.00">2 &#160;(4) </text>
</g>
<!-- 1_1&#45;&gt;1_3 -->
<g id="edge27" class="edge"><title>1_1&#45;&gt;1_3</title>
<path fill="none" stroke="black" d="M-134.4,-186.965C-134.4,-112.748 -134.4,29.2387 -134.4,109.311"/>
<polygon fill="black" stroke="black" points="-130.9,109.71 -134.4,119.71 -137.9,109.71 -130.9,109.71"/>
<text text-anchor="middle" x="-151.4" y="-42.6273" font-family="Times New Roman,serif" font-size="14.00">2 &#160;(4) </text>
</g>
<!-- 1_1&#45;&gt;2_3 -->
<g id="edge29" class="edge"><title>1_1&#45;&gt;2_3</title>
<path fill="none" stroke="black" d="M-111.861,-190.121C-74.5129,-115.426 0.0554525,33.7109 40.1713,113.943"/>
<polygon fill="black" stroke="black" points="43.3101,112.394 44.6518,122.904 37.0491,115.525 43.3101,112.394"/>
<text text-anchor="middle" x="-18.8447" y="-26.8895" font-family="Times New Roman,serif" font-size="14.00">3 &#160;(3) </text>
</g>
<!-- 1_1&#45;&gt;3_2 -->
<g id="edge28" class="edge"><title>1_1&#45;&gt;3_2</title>
<path fill="none" stroke="black" d="M-81.6886,-208.844C-7.43415,-171.717 127.708,-104.146 206.725,-64.6373"/>
<polygon fill="black" stroke="black" points="208.697,-67.5648 216.076,-59.9621 205.566,-61.3038 208.697,-67.5648"/>
<text text-anchor="middle" x="79.5184" y="-125.541" font-family="Times New Roman,serif" font-size="14.00">3 &#160;(3) </text>
</g>
<!-- 1_1&#45;&gt;1_4 -->
<g id="edge30" class="edge"><title>1_1&#45;&gt;1_4</title>
<path fill="none" stroke="black" d="M-134.4,-186.983C-134.4,-76.99 -134.4,192.127 -134.4,311.24"/>
<polygon fill="black" stroke="black" points="-130.9,311.265 -134.4,321.265 -137.9,311.265 -130.9,311.265"/>
<text text-anchor="middle" x="-151.4" y="58.3286" font-family="Times New Roman,serif" font-size="14.00">5 &#160;(5) </text>
</g>
</g>
</svg>
