<?xml version="1.0" encoding="UTF-8" standalone="no"?>
<!DOCTYPE svg PUBLIC "-//W3C//DTD SVG 1.1//EN"
 "http://www.w3.org/Graphics/SVG/1.1/DTD/svg11.dtd">
<!-- Generated by graphviz version 2.38.0 (20140413.2041)
 -->
<!-- Title: example4.txt_fields Pages: 1 -->
<svg width="988pt" height="709pt"
 viewBox="0.00 0.00 988.02 708.97" xmlns="http://www.w3.org/2000/svg" xmlns:xlink="http://www.w3.org/1999/xlink">
<g id="graph0" class="graph" transform="scale(1 1) rotate(0) translate(465.89 253.683)">
<title>example4.txt_fields</title>
<polygon fill="white" stroke="none" points="-465.89,455.283 -465.89,-253.683 522.132,-253.683 522.132,455.283 -465.89,455.283"/>
<!-- 2_0 -->
<g id="node1" class="node"><title>2_0</title>
<ellipse fill="none" stroke="black" cx="0" cy="-201.6" rx="58.8803" ry="48.1667"/>
<text text-anchor="middle" x="0" y="-220.4" font-family="Times New Roman,serif" font-size="14.00">2,0</text>
<text text-anchor="middle" x="0" y="-205.4" font-family="Times New Roman,serif" font-size="14.00">ic: 8</text>
<text text-anchor="middle" x="0" y="-190.4" font-family="Times New Roman,serif" font-size="14.00">free: 3,0;3,1</text>
<text text-anchor="middle" x="0" y="-175.4" font-family="Times New Roman,serif" font-size="14.00">swlolw: {2}</text>
</g>
<!-- 2_0&#45;&gt;2_0 -->
<g id="edge5" class="edge"><title>2_0&#45;&gt;2_0</title>
<path fill="none" stroke="black" d="M58.187,-208.004C69.0438,-207.215 76.6899,-205.08 76.6899,-201.6 76.6899,-199.37 73.5519,-197.693 68.4421,-196.568"/>
<polygon fill="black" stroke="black" points="68.5628,-193.053 58.187,-195.196 67.6347,-199.991 68.5628,-193.053"/>
<text text-anchor="middle" x="93.6899" y="-197.9" font-family="Times New Roman,serif" font-size="14.00">2 &#160;(4) </text>
</g>
<!-- 1_1 -->
<g id="node2" class="node"><title>1_1</title>
<ellipse fill="none" stroke="black" cx="-201.6" cy="-0" rx="62.8651" ry="48.1667"/>
<text text-anchor="middle" x="-201.6" y="-18.8" font-family="Times New Roman,serif" font-size="14.00">1,1</text>
<text text-anchor="middle" x="-201.6" y="-3.8" font-family="Times New Roman,serif" font-size="14.00">ic: 8</text>
<text text-anchor="middle" x="-201.6" y="11.2" font-family="Times New Roman,serif" font-size="14.00">free: 2,1;3,1</text>
<text text-anchor="middle" x="-201.6" y="26.2" font-family="Times New Roman,serif" font-size="14.00">swlolw: none</text>
</g>
<!-- 2_0&#45;&gt;1_1 -->
<g id="edge3" class="edge"><title>2_0&#45;&gt;1_1</title>
<path fill="none" stroke="black" d="M-32.7322,-161.316C-64.6799,-126.949 -113.656,-77.7546 -150.679,-42.7138"/>
<polygon fill="black" stroke="black" points="-148.706,-39.7647 -158.388,-35.4617 -153.503,-44.8631 -148.706,-39.7647"/>
<text text-anchor="middle" x="-108.706" y="-105.815" font-family="Times New Roman,serif" font-size="14.00">2 &#160;(4) </text>
</g>
<!-- 2_2 -->
<g id="node3" class="node"><title>2_2</title>
<ellipse fill="none" stroke="black" cx="0" cy="201.6" rx="62.8651" ry="48.1667"/>
<text text-anchor="middle" x="0" y="182.8" font-family="Times New Roman,serif" font-size="14.00">2,2</text>
<text text-anchor="middle" x="0" y="197.8" font-family="Times New Roman,serif" font-size="14.00">ic: 6</text>
<text text-anchor="middle" x="0" y="212.8" font-family="Times New Roman,serif" font-size="14.00">free: 2,1;3,1</text>
<text text-anchor="middle" x="0" y="227.8" font-family="Times New Roman,serif" font-size="14.00">swlolw: none</text>
</g>
<!-- 2_0&#45;&gt;2_2 -->
<g id="edge4" class="edge"><title>2_0&#45;&gt;2_2</title>
<path fill="none" stroke="black" d="M4.56953,-153.365C7.35499,-79.048 7.47172,63.2215 4.91972,143.234"/>
<polygon fill="black" stroke="black" points="8.40404,143.75 4.55985,153.623 1.40823,143.508 8.40404,143.75"/>
<text text-anchor="middle" x="-12.2554" y="-8.86555" font-family="Times New Roman,serif" font-size="14.00">2 &#160;(4) </text>
</g>
<!-- 4_0 -->
<g id="node4" class="node"><title>4_0</title>
<ellipse fill="none" stroke="black" cx="403.2" cy="-201.6" rx="62.8651" ry="48.1667"/>
<text text-anchor="middle" x="403.2" y="-220.4" font-family="Times New Roman,serif" font-size="14.00">4,0</text>
<text text-anchor="middle" x="403.2" y="-205.4" font-family="Times New Roman,serif" font-size="14.00">ic: 9</text>
<text text-anchor="middle" x="403.2" y="-190.4" font-family="Times New Roman,serif" font-size="14.00">free: 3,0;3,1</text>
<text text-anchor="middle" x="403.2" y="-175.4" font-family="Times New Roman,serif" font-size="14.00">swlolw: none</text>
</g>
<!-- 2_0&#45;&gt;4_0 -->
<g id="edge2" class="edge"><title>2_0&#45;&gt;4_0</title>
<path fill="none" stroke="black" d="M58.6287,-206.528C130.534,-208.812 252.433,-208.949 330.304,-206.937"/>
<polygon fill="black" stroke="black" points="330.619,-210.43 340.518,-206.653 330.425,-203.432 330.619,-210.43"/>
<text text-anchor="middle" x="177.466" y="-210.533" font-family="Times New Roman,serif" font-size="14.00">2 &#160;(4) </text>
</g>
<!-- 0_0 -->
<g id="node5" class="node"><title>0_0</title>
<ellipse fill="none" stroke="black" cx="-403.2" cy="-201.6" rx="58.8803" ry="48.1667"/>
<text text-anchor="middle" x="-403.2" y="-220.4" font-family="Times New Roman,serif" font-size="14.00">0,0</text>
<text text-anchor="middle" x="-403.2" y="-205.4" font-family="Times New Roman,serif" font-size="14.00">ic: 6</text>
<text text-anchor="middle" x="-403.2" y="-190.4" font-family="Times New Roman,serif" font-size="14.00">free: 0,1;0,2</text>
<text text-anchor="middle" x="-403.2" y="-175.4" font-family="Times New Roman,serif" font-size="14.00">swlolw: {2}</text>
</g>
<!-- 2_0&#45;&gt;0_0 -->
<g id="edge1" class="edge"><title>2_0&#45;&gt;0_0</title>
<path fill="none" stroke="black" d="M-58.6287,-196.672C-131.788,-194.348 -256.701,-194.247 -334.338,-196.37"/>
<polygon fill="black" stroke="black" points="-334.608,-192.877 -344.5,-196.67 -334.402,-199.874 -334.608,-192.877"/>
<text text-anchor="middle" x="-215.983" y="-185.321" font-family="Times New Roman,serif" font-size="14.00">2 &#160;(&#45;1) </text>
</g>
<!-- 2_3 -->
<g id="node6" class="node"><title>2_3</title>
<ellipse fill="none" stroke="black" cx="0" cy="403.2" rx="62.8651" ry="48.1667"/>
<text text-anchor="middle" x="0" y="384.4" font-family="Times New Roman,serif" font-size="14.00">2,3</text>
<text text-anchor="middle" x="0" y="399.4" font-family="Times New Roman,serif" font-size="14.00">ic: 1</text>
<text text-anchor="middle" x="0" y="414.4" font-family="Times New Roman,serif" font-size="14.00">free: 3,3;3,2</text>
<text text-anchor="middle" x="0" y="429.4" font-family="Times New Roman,serif" font-size="14.00">swlolw: none</text>
</g>
<!-- 2_0&#45;&gt;2_3 -->
<g id="edge6" class="edge"><title>2_0&#45;&gt;2_3</title>
<path fill="none" stroke="black" d="M3.86891,-153.383C7.60028,-43.39 7.70721,225.727 4.18971,344.84"/>
<polygon fill="black" stroke="black" points="7.68711,344.981 3.87291,354.865 0.690601,344.76 7.68711,344.981"/>
<text text-anchor="middle" x="-12.9707" y="91.9286" font-family="Times New Roman,serif" font-size="14.00">5 &#160;(5) </text>
</g>
<!-- 1_1&#45;&gt;2_0 -->
<g id="edge8" class="edge"><title>1_1&#45;&gt;2_0</title>
<path fill="none" stroke="black" d="M-167.963,-41.2567C-135.563,-76.0437 -86.2668,-125.508 -49.4205,-160.304"/>
<polygon fill="black" stroke="black" points="-51.4443,-163.205 -41.7574,-167.496 -46.6539,-158.101 -51.4443,-163.205"/>
<text text-anchor="middle" x="-125.692" y="-89.5806" font-family="Times New Roman,serif" font-size="14.00">2 &#160;(4) </text>
</g>
<!-- 1_1&#45;&gt;1_1 -->
<g id="edge10" class="edge"><title>1_1&#45;&gt;1_1</title>
<path fill="none" stroke="black" d="M-139.162,-6.32813C-128.255,-5.48438 -120.667,-3.375 -120.667,-0 -120.667,2.16211 -123.781,3.80481 -128.887,4.92809"/>
<polygon fill="black" stroke="black" points="-128.781,8.44588 -139.162,6.32813 -129.726,1.50997 -128.781,8.44588"/>
<text text-anchor="middle" x="-103.667" y="3.7" font-family="Times New Roman,serif" font-size="14.00">2 &#160;(4) </text>
</g>
<!-- 1_1&#45;&gt;2_2 -->
<g id="edge9" class="edge"><title>1_1&#45;&gt;2_2</title>
<path fill="none" stroke="black" d="M-158.375,35.4735C-123.43,68.1392 -74.6594,116.802 -40.4705,153.054"/>
<polygon fill="black" stroke="black" points="-37.6911,150.901 -33.4065,160.591 -42.7986,155.688 -37.6911,150.901"/>
<text text-anchor="middle" x="-116.423" y="90.4636" font-family="Times New Roman,serif" font-size="14.00">2 &#160;(4) </text>
</g>
<!-- 1_1&#45;&gt;4_0 -->
<g id="edge12" class="edge"><title>1_1&#45;&gt;4_0</title>
<path fill="none" stroke="black" d="M-146.013,-22.8994C-35.3869,-63.3177 212.083,-145.921 333.425,-183.051"/>
<polygon fill="black" stroke="black" points="332.768,-186.509 343.354,-186.073 334.806,-179.813 332.768,-186.509"/>
<text text-anchor="middle" x="76.706" y="-106.775" font-family="Times New Roman,serif" font-size="14.00">4 &#160;(4) </text>
</g>
<!-- 1_1&#45;&gt;0_0 -->
<g id="edge7" class="edge"><title>1_1&#45;&gt;0_0</title>
<path fill="none" stroke="black" d="M-244.825,-35.4735C-279.991,-68.3459 -329.158,-117.418 -363.377,-153.741"/>
<polygon fill="black" stroke="black" points="-366.163,-151.595 -370.441,-161.287 -361.052,-156.379 -366.163,-151.595"/>
<text text-anchor="middle" x="-321.101" y="-98.407" font-family="Times New Roman,serif" font-size="14.00">2 &#160;(4) </text>
</g>
<!-- 1_1&#45;&gt;2_3 -->
<g id="edge11" class="edge"><title>1_1&#45;&gt;2_3</title>
<path fill="none" stroke="black" d="M-174.664,43.8567C-134.508,117.618 -60.052,266.317 -22.5725,347.402"/>
<polygon fill="black" stroke="black" points="-19.1825,346.397 -18.19,356.945 -25.5438,349.318 -19.1825,346.397"/>
<text text-anchor="middle" x="-115.618" y="191.829" font-family="Times New Roman,serif" font-size="14.00">3 &#160;(3) </text>
</g>
<!-- 2_2&#45;&gt;2_0 -->
<g id="edge14" class="edge"><title>2_2&#45;&gt;2_0</title>
<path fill="none" stroke="black" d="M-4.56953,153.365C-7.35499,79.048 -7.47172,-63.2215 -4.91972,-143.234"/>
<polygon fill="black" stroke="black" points="-8.40404,-143.75 -4.55985,-153.623 -1.40823,-143.508 -8.40404,-143.75"/>
<text text-anchor="middle" x="-21.7446" y="16.2655" font-family="Times New Roman,serif" font-size="14.00">2 &#160;(4) </text>
</g>
<!-- 2_2&#45;&gt;1_1 -->
<g id="edge15" class="edge"><title>2_2&#45;&gt;1_1</title>
<path fill="none" stroke="black" d="M-43.2247,166.127C-78.1698,133.461 -126.941,84.7982 -161.129,48.5463"/>
<polygon fill="black" stroke="black" points="-163.909,50.6989 -168.193,41.0091 -158.801,45.9121 -163.909,50.6989"/>
<text text-anchor="middle" x="-119.177" y="118.536" font-family="Times New Roman,serif" font-size="14.00">2 &#160;(4) </text>
</g>
<!-- 2_2&#45;&gt;2_2 -->
<g id="edge16" class="edge"><title>2_2&#45;&gt;2_2</title>
<path fill="none" stroke="black" d="M62.4382,195.272C73.3451,196.116 80.9325,198.225 80.9325,201.6 80.9325,203.762 77.8186,205.405 72.713,206.528"/>
<polygon fill="black" stroke="black" points="72.8192,210.046 62.4382,207.928 71.874,203.11 72.8192,210.046"/>
<text text-anchor="middle" x="97.9325" y="205.3" font-family="Times New Roman,serif" font-size="14.00">2 &#160;(4) </text>
</g>
<!-- 2_2&#45;&gt;4_0 -->
<g id="edge18" class="edge"><title>2_2&#45;&gt;4_0</title>
<path fill="none" stroke="black" d="M34.6498,161.11C106.228,84.7765 270.412,-79.5858 353.363,-158.14"/>
<polygon fill="black" stroke="black" points="351.455,-161.152 361.131,-165.468 356.259,-156.06 351.455,-161.152"/>
<text text-anchor="middle" x="177.006" y="-2.31506" font-family="Times New Roman,serif" font-size="14.00">4 &#160;(4) </text>
</g>
<!-- 2_2&#45;&gt;0_0 -->
<g id="edge17" class="edge"><title>2_2&#45;&gt;0_0</title>
<path fill="none" stroke="black" d="M-41.9932,165.539C-119.784,92.463 -285.187,-72.8387 -362.214,-154.378"/>
<polygon fill="black" stroke="black" points="-365.083,-152.32 -369.386,-162.002 -359.985,-157.117 -365.083,-152.32"/>
<text text-anchor="middle" x="-219.103" y="1.78062" font-family="Times New Roman,serif" font-size="14.00">4 &#160;(4) </text>
</g>
<!-- 2_2&#45;&gt;2_3 -->
<g id="edge13" class="edge"><title>2_2&#45;&gt;2_3</title>
<path fill="none" stroke="black" d="M5.84958,249.632C6.92842,278.302 7.0378,314.903 6.17771,345.182"/>
<polygon fill="black" stroke="black" points="9.67557,345.307 5.84886,355.187 2.67935,345.077 9.67557,345.307"/>
<text text-anchor="middle" x="-10.9864" y="293.607" font-family="Times New Roman,serif" font-size="14.00">1 &#160;(3) </text>
</g>
<!-- 4_0&#45;&gt;2_0 -->
<g id="edge19" class="edge"><title>4_0&#45;&gt;2_0</title>
<path fill="none" stroke="black" d="M340.2,-196.537C266.586,-194.347 145.185,-194.289 69.0601,-196.365"/>
<polygon fill="black" stroke="black" points="68.5214,-192.879 58.6287,-196.672 68.7274,-199.876 68.5214,-192.879"/>
<text text-anchor="middle" x="187.63" y="-185.251" font-family="Times New Roman,serif" font-size="14.00">2 &#160;(4) </text>
</g>
<!-- 4_0&#45;&gt;1_1 -->
<g id="edge21" class="edge"><title>4_0&#45;&gt;1_1</title>
<path fill="none" stroke="black" d="M347.613,-178.701C236.987,-138.282 -10.4827,-55.6795 -131.825,-18.5491"/>
<polygon fill="black" stroke="black" points="-131.168,-15.0907 -141.754,-15.5274 -133.206,-21.7874 -131.168,-15.0907"/>
<text text-anchor="middle" x="124.894" y="-102.425" font-family="Times New Roman,serif" font-size="14.00">4 &#160;(4) </text>
</g>
<!-- 4_0&#45;&gt;2_2 -->
<g id="edge22" class="edge"><title>4_0&#45;&gt;2_2</title>
<path fill="none" stroke="black" d="M368.55,-161.11C296.972,-84.7765 132.788,79.5858 49.8371,158.14"/>
<polygon fill="black" stroke="black" points="51.7448,161.152 42.069,165.468 46.9413,156.06 51.7448,161.152"/>
<text text-anchor="middle" x="226.194" y="9.71506" font-family="Times New Roman,serif" font-size="14.00">4 &#160;(4) </text>
</g>
<!-- 4_0&#45;&gt;4_0 -->
<g id="edge20" class="edge"><title>4_0&#45;&gt;4_0</title>
<path fill="none" stroke="black" d="M465.638,-207.928C476.545,-207.084 484.132,-204.975 484.132,-201.6 484.132,-199.438 481.019,-197.795 475.913,-196.672"/>
<polygon fill="black" stroke="black" points="476.019,-193.154 465.638,-195.272 475.074,-200.09 476.019,-193.154"/>
<text text-anchor="middle" x="501.132" y="-197.9" font-family="Times New Roman,serif" font-size="14.00">2 &#160;(4) </text>
</g>
<!-- 4_0&#45;&gt;2_3 -->
<g id="edge23" class="edge"><title>4_0&#45;&gt;2_3</title>
<path fill="none" stroke="black" d="M377.899,-157.037C309.263,-46.879 119.787,237.535 38.1425,353.199"/>
<polygon fill="black" stroke="black" points="40.856,355.423 32.2192,361.56 35.1441,351.377 40.856,355.423"/>
<text text-anchor="middle" x="191.021" y="94.2808" font-family="Times New Roman,serif" font-size="14.00">5 &#160;(5) </text>
</g>
<!-- 0_0&#45;&gt;2_0 -->
<g id="edge24" class="edge"><title>0_0&#45;&gt;2_0</title>
<path fill="none" stroke="black" d="M-344.571,-206.528C-271.412,-208.852 -146.499,-208.953 -68.8619,-206.83"/>
<polygon fill="black" stroke="black" points="-68.5921,-210.323 -58.6995,-206.53 -68.7983,-203.326 -68.5921,-210.323"/>
<text text-anchor="middle" x="-226.217" y="-210.479" font-family="Times New Roman,serif" font-size="14.00">2 &#160;(&#45;1) </text>
</g>
<!-- 0_0&#45;&gt;1_1 -->
<g id="edge25" class="edge"><title>0_0&#45;&gt;1_1</title>
<path fill="none" stroke="black" d="M-361.454,-167.507C-326.404,-134.832 -276.708,-85.2765 -242.033,-48.5062"/>
<polygon fill="black" stroke="black" points="-239.156,-50.5547 -234.872,-40.8645 -244.264,-45.7683 -239.156,-50.5547"/>
<text text-anchor="middle" x="-284.743" y="-111.807" font-family="Times New Roman,serif" font-size="14.00">2 &#160;(4) </text>
</g>
<!-- 0_0&#45;&gt;2_2 -->
<g id="edge27" class="edge"><title>0_0&#45;&gt;2_2</title>
<path fill="none" stroke="black" d="M-362.336,-166.6C-285.319,-94.3469 -119.642,71.1885 -41.8649,153.449"/>
<polygon fill="black" stroke="black" points="-38.9263,151.464 -34.6184,161.143 -44.0223,156.263 -38.9263,151.464"/>
<text text-anchor="middle" x="-185.101" y="4.62445" font-family="Times New Roman,serif" font-size="14.00">4 &#160;(4) </text>
</g>
<!-- 0_0&#45;&gt;0_0 -->
<g id="edge26" class="edge"><title>0_0&#45;&gt;0_0</title>
<path fill="none" stroke="black" d="M-345.013,-208.004C-334.156,-207.215 -326.51,-205.08 -326.51,-201.6 -326.51,-199.37 -329.648,-197.693 -334.758,-196.568"/>
<polygon fill="black" stroke="black" points="-334.637,-193.053 -345.013,-195.196 -335.565,-199.991 -334.637,-193.053"/>
<text text-anchor="middle" x="-309.51" y="-197.9" font-family="Times New Roman,serif" font-size="14.00">2 &#160;(4) </text>
</g>
<!-- 0_0&#45;&gt;2_3 -->
<g id="edge28" class="edge"><title>0_0&#45;&gt;2_3</title>
<path fill="none" stroke="black" d="M-371.46,-160.633C-295.647,-54.1148 -105.235,231.341 -30.5943,350.177"/>
<polygon fill="black" stroke="black" points="-27.5486,348.446 -25.2118,358.78 -33.4829,352.159 -27.5486,348.446"/>
<text text-anchor="middle" x="-218.027" y="90.9719" font-family="Times New Roman,serif" font-size="14.00">5 &#160;(5) </text>
</g>
<!-- 2_3&#45;&gt;2_0 -->
<g id="edge33" class="edge"><title>2_3&#45;&gt;2_0</title>
<path fill="none" stroke="black" d="M-3.86891,354.983C-7.60028,244.99 -7.70721,-24.1271 -4.18971,-143.24"/>
<polygon fill="black" stroke="black" points="-7.68711,-143.381 -3.87291,-153.265 -0.690601,-143.16 -7.68711,-143.381"/>
<text text-anchor="middle" x="-21.0293" y="117.071" font-family="Times New Roman,serif" font-size="14.00">5 &#160;(5) </text>
</g>
<!-- 2_3&#45;&gt;1_1 -->
<g id="edge31" class="edge"><title>2_3&#45;&gt;1_1</title>
<path fill="none" stroke="black" d="M-26.9357,359.343C-67.0923,285.582 -141.548,136.883 -179.027,55.7984"/>
<polygon fill="black" stroke="black" points="-182.417,56.803 -183.41,46.2548 -176.056,53.8818 -182.417,56.803"/>
<text text-anchor="middle" x="-119.982" y="218.771" font-family="Times New Roman,serif" font-size="14.00">3 &#160;(3) </text>
</g>
<!-- 2_3&#45;&gt;2_2 -->
<g id="edge29" class="edge"><title>2_3&#45;&gt;2_2</title>
<path fill="none" stroke="black" d="M-5.84958,355.168C-6.92842,326.498 -7.0378,289.897 -6.17771,259.618"/>
<polygon fill="black" stroke="black" points="-9.67557,259.493 -5.84886,249.613 -2.67935,259.723 -9.67557,259.493"/>
<text text-anchor="middle" x="-23.0136" y="318.593" font-family="Times New Roman,serif" font-size="14.00">1 &#160;(3) </text>
</g>
<!-- 2_3&#45;&gt;4_0 -->
<g id="edge34" class="edge"><title>2_3&#45;&gt;4_0</title>
<path fill="none" stroke="black" d="M25.3008,358.637C93.9373,248.479 283.413,-35.9346 365.057,-151.599"/>
<polygon fill="black" stroke="black" points="362.344,-153.823 370.981,-159.96 368.056,-149.777 362.344,-153.823"/>
<text text-anchor="middle" x="178.179" y="114.719" font-family="Times New Roman,serif" font-size="14.00">5 &#160;(5) </text>
</g>
<!-- 2_3&#45;&gt;0_0 -->
<g id="edge32" class="edge"><title>2_3&#45;&gt;0_0</title>
<path fill="none" stroke="black" d="M-32.0782,361.758C-108.233,254.705 -298.657,-30.788 -372.946,-149.12"/>
<polygon fill="black" stroke="black" points="-375.967,-147.349 -378.302,-157.684 -370.032,-151.061 -375.967,-147.349"/>
<text text-anchor="middle" x="-219.512" y="117.519" font-family="Times New Roman,serif" font-size="14.00">5 &#160;(5) </text>
</g>
<!-- 2_3&#45;&gt;2_3 -->
<g id="edge30" class="edge"><title>2_3&#45;&gt;2_3</title>
<path fill="none" stroke="black" d="M62.4382,396.872C73.3451,397.716 80.9325,399.825 80.9325,403.2 80.9325,405.362 77.8186,407.005 72.713,408.128"/>
<polygon fill="black" stroke="black" points="72.8192,411.646 62.4382,409.528 71.874,404.71 72.8192,411.646"/>
<text text-anchor="middle" x="97.9325" y="406.9" font-family="Times New Roman,serif" font-size="14.00">2 &#160;(4) </text>
</g>
<!-- 3_1 -->
<g id="node7" class="node"><title>3_1</title>
<ellipse fill="green" stroke="black" cx="201.6" cy="-0" rx="62.8651" ry="48.1667"/>
<text text-anchor="middle" x="201.6" y="-18.8" font-family="Times New Roman,serif" font-size="14.00">3,1</text>
<text text-anchor="middle" x="201.6" y="-3.8" font-family="Times New Roman,serif" font-size="14.00">ic: 4</text>
<text text-anchor="middle" x="201.6" y="11.2" font-family="Times New Roman,serif" font-size="14.00">free: 3,0;3,1</text>
<text text-anchor="middle" x="201.6" y="26.2" font-family="Times New Roman,serif" font-size="14.00">swlolw: none</text>
</g>
<!-- 3_1&#45;&gt;2_0 -->
<g id="edge35" class="edge"><title>3_1&#45;&gt;2_0</title>
<path fill="none" stroke="black" d="M163.206,-38.3939C129.396,-72.2041 80.1427,-121.457 44.5957,-157.004"/>
<polygon fill="black" stroke="black" points="41.8252,-154.825 37.2289,-164.371 46.7749,-159.775 41.8252,-154.825"/>
<text text-anchor="middle" x="86.9009" y="-86.4991" font-family="Times New Roman,serif" font-size="14.00">2 &#160;(4) </text>
</g>
<!-- 3_1&#45;&gt;1_1 -->
<g id="edge37" class="edge"><title>3_1&#45;&gt;1_1</title>
<path fill="none" stroke="black" d="M138.6,-0C66.3191,-0 -52.0335,-0 -128.36,-0"/>
<polygon fill="black" stroke="black" points="-128.378,3.4999 -138.378,-0 -128.378,-3.5001 -128.378,3.4999"/>
<text text-anchor="middle" x="22.1201" y="-3.8" font-family="Times New Roman,serif" font-size="14.00">2 &#160;(4) </text>
</g>
<!-- 3_1&#45;&gt;2_2 -->
<g id="edge38" class="edge"><title>3_1&#45;&gt;2_2</title>
<path fill="none" stroke="black" d="M163.206,38.3939C129.716,71.8841 81.0735,120.526 45.6086,155.991"/>
<polygon fill="black" stroke="black" points="47.797,158.753 38.251,163.349 42.8472,153.803 47.797,158.753"/>
<text text-anchor="middle" x="87.4073" y="93.3927" font-family="Times New Roman,serif" font-size="14.00">2 &#160;(4) </text>
</g>
<!-- 3_1&#45;&gt;4_0 -->
<g id="edge36" class="edge"><title>3_1&#45;&gt;4_0</title>
<path fill="none" stroke="black" d="M239.994,-38.3939C273.484,-71.8841 322.126,-120.526 357.591,-155.991"/>
<polygon fill="black" stroke="black" points="355.403,-158.753 364.949,-163.349 360.353,-153.803 355.403,-158.753"/>
<text text-anchor="middle" x="281.793" y="-100.993" font-family="Times New Roman,serif" font-size="14.00">2 &#160;(4) </text>
</g>
<!-- 3_1&#45;&gt;2_3 -->
<g id="edge39" class="edge"><title>3_1&#45;&gt;2_3</title>
<path fill="none" stroke="black" d="M179.061,45.0785C141.713,119.774 67.1445,268.911 27.0287,349.143"/>
<polygon fill="black" stroke="black" points="30.1509,350.725 22.5482,358.104 23.8899,347.594 30.1509,350.725"/>
<text text-anchor="middle" x="120.045" y="193.311" font-family="Times New Roman,serif" font-size="14.00">3 &#160;(3) </text>
</g>
</g>
</svg>
