<?xml version="1.0" encoding="utf-8" ?>
<svg xmlns="http://www.w3.org/2000/svg" xmlns:ev="http://www.w3.org/2001/xml-events" xmlns:xlink="http://www.w3.org/1999/xlink" baseProfile="full" height="403.0" version="1.1" width="503.0">
  <defs/>
  <g transform="translate(1.5,1.5)">
    <g>
      <rect fill="none" height="400" stroke="#aaaaaa" stroke-width="3.0" width="500" x="0" y="0"/>
      <line stroke="#aaaaaa" stroke-width="3.0" x1="100" x2="100" y1="0" y2="400"/>
      <line stroke="#aaaaaa" stroke-width="3.0" x1="200" x2="200" y1="0" y2="400"/>
      <line stroke="#aaaaaa" stroke-width="3.0" x1="300" x2="300" y1="0" y2="400"/>
      <line stroke="#aaaaaa" stroke-width="3.0" x1="400" x2="400" y1="0" y2="400"/>
      <line stroke="#aaaaaa" stroke-width="3.0" x1="0" x2="500" y1="100" y2="100"/>
      <line stroke="#aaaaaa" stroke-width="3.0" x1="0" x2="500" y1="200" y2="200"/>
      <line stroke="#aaaaaa" stroke-width="3.0" x1="0" x2="500" y1="300" y2="300"/>
    </g>
    <circle cx="350.0" cy="150.0" fill="green" r="44.0"/>
    <text alignment-baseline="central" font-size="40" text-anchor="middle" x="350.0" y="150.0">4</text>
    <text alignment-baseline="central" fill="#777777" font-size="20" text-anchor="middle" x="330.0" y="116.66666666666666">3,1</text>
    <text alignment-baseline="central" font-size="40" text-anchor="middle" x="250.0" y="50.0">8</text>
    <text alignment-baseline="central" fill="#777777" font-size="20" text-anchor="middle" x="230.0" y="16.666666666666664">2,0</text>
    <text alignment-baseline="central" font-size="40" text-anchor="middle" x="150.0" y="150.0">8</text>
    <text alignment-baseline="central" fill="#777777" font-size="20" text-anchor="middle" x="130.0" y="116.66666666666666">1,1</text>
    <text alignment-baseline="central" font-size="40" text-anchor="middle" x="250.0" y="250.0">6</text>
    <text alignment-baseline="central" fill="#777777" font-size="20" text-anchor="middle" x="230.0" y="216.66666666666666">2,2</text>
    <text alignment-baseline="central" font-size="40" text-anchor="middle" x="450.0" y="50.0">9</text>
    <text alignment-baseline="central" fill="#777777" font-size="20" text-anchor="middle" x="430.0" y="16.666666666666664">4,0</text>
    <text alignment-baseline="central" font-size="40" text-anchor="middle" x="50.0" y="50.0">6</text>
    <text alignment-baseline="central" fill="#777777" font-size="20" text-anchor="middle" x="30.0" y="16.666666666666664">0,0</text>
    <text alignment-baseline="central" font-size="40" text-anchor="middle" x="250.0" y="350.0">1</text>
    <text alignment-baseline="central" fill="#777777" font-size="20" text-anchor="middle" x="230.0" y="316.6666666666667">2,3</text>
    <polyline fill="none" points="328.38215331213786,173.32719696373297 348.6152389760516,68.47426856865027 226.16670900001387,37.230681300402765 162.3270120140803,62.53705435574682 51.973643011479,38.11481700962064 151.18135551162084,74.56322631973273 155.37299076105555,150.95491365332612 255.39290807492637,138.10743738119223 264.82859812171034,249.54026392004909 243.50731883235056,342.7901201337177 266.95728765443005,249.08713339687728 238.99054235674527,167.57674748381913 365.22890272460666,160.70106275609453 465.5076782310782,152.8903284835551 429.0507697891179,57.32232973380721 371.55185271831914,74.11520155778646 259.4331264348421,56.21678195784381 150.50866007143807,62.633200038225255 27.81387968713365,42.68335984512967 160.41036269008305,30.342402459985095 270.9181215029073,69.09600050510244 338.10300040013936,67.85085586126938 431.59434958137103,55.543709721400546 339.0570666939743,51.733345465509316 266.54049443555317,64.01924710199133 351.60791927399384,52.0227473511772 449.6896579300299,46.57833531634097 428.3939129621287,134.33984956102026 450.8205980638261,246.81283895493448 434.79317125983044,351.41348108071224 326.2701651625676,370.34797951994074 241.2446934147992,346.1963459146239 145.9983179231135,373.87048049240514 158.62821052608356,253.3844895429238 160.30037967057396,357.50190115626697 155.07613428711613,271.4243744883703 130.3467477158069,145.08167636613095 251.29534719902819,147.27362671513714 360.4752364874262,159.73552057927418 446.9793911794454,170.67193076413082 429.2500041659678,38.27443127416852 352.70603350649924,51.90420319075507 359.8626789551075,154.43206896706133" stroke="orange" stroke-width="3"/>
    <polyline fill="none" points="363.8915779678492,135.55356707154579 256.3003032751854,138.95711345643699 255.90466044693488,59.26296357344543 242.33495532667712,148.949452313268 356.27602878901706,142.71624873917386 252.3980517480333,153.45983332171645 129.83326799195973,157.86157549132793 262.5645895807213,141.7858857447323 256.0096104210198,236.12348241512774 349.3449132457966,243.10196996695163 347.7157590483589,131.0717065357457 339.3632081282561,67.49348555554877 231.60879026112661,42.071835598659405 374.00318886647915,73.51228926719931 431.1466592460816,33.34010020936059 464.3454984351818,135.76989723163192 440.1780174819477,263.9164350102387 373.44138507701496,254.29272536096 231.36043121560573,263.32958690623127 368.08237531397594,242.65989163755296 344.2098311728087,170.50613483223327 370.9973084297872,69.20272800363627 243.29526739026085,62.061028414551174 147.44956547512498,43.26659146499031 53.379894637834624,50.43700445887393 58.49158535350577,149.98733778135747 47.4257485845274,227.50017430942023 155.34356597612316,225.95809771174137 268.80098510838775,237.0235626223868 236.60973032415512,343.3329425027598 230.81709049640017,262.9811008035453" stroke="seagreen" stroke-width="3"/>
  </g>
</svg>
