<?xml version="1.0" encoding="UTF-8" standalone="no"?>
<!DOCTYPE svg PUBLIC "-//W3C//DTD SVG 1.1//EN"
 "http://www.w3.org/Graphics/SVG/1.1/DTD/svg11.dtd">
<!-- Generated by graphviz version 2.38.0 (20140413.2041)
 -->
<!-- Title: example1.txt_fields Pages: 1 -->
<svg width="1395pt" height="911pt"
 viewBox="0.00 0.00 1395.46 910.57" xmlns="http://www.w3.org/2000/svg" xmlns:xlink="http://www.w3.org/1999/xlink">
<g id="graph0" class="graph" transform="scale(1 1) rotate(0) translate(611.252 354.483)">
<title>example1.txt_fields</title>
<polygon fill="white" stroke="none" points="-611.252,556.083 -611.252,-354.483 784.212,-354.483 784.212,556.083 -611.252,556.083"/>
<!-- 2_3 -->
<g id="node1" class="node"><title>2_3</title>
<ellipse fill="none" stroke="black" cx="-141.12" cy="100.8" rx="62.8651" ry="48.1667"/>
<text text-anchor="middle" x="-141.12" y="82" font-family="Times New Roman,serif" font-size="14.00">2,3</text>
<text text-anchor="middle" x="-141.12" y="97" font-family="Times New Roman,serif" font-size="14.00">ic: 5</text>
<text text-anchor="middle" x="-141.12" y="112" font-family="Times New Roman,serif" font-size="14.00">free: 2,2;3,2</text>
<text text-anchor="middle" x="-141.12" y="127" font-family="Times New Roman,serif" font-size="14.00">swlolw: none</text>
</g>
<!-- 2_3&#45;&gt;2_3 -->
<g id="edge3" class="edge"><title>2_3&#45;&gt;2_3</title>
<path fill="none" stroke="black" d="M-78.6818,94.4719C-67.7749,95.3156 -60.1875,97.425 -60.1875,100.8 -60.1875,102.962 -63.3014,104.605 -68.4071,105.728"/>
<polygon fill="black" stroke="black" points="-68.3008,109.246 -78.6818,107.128 -69.246,102.31 -68.3008,109.246"/>
<text text-anchor="middle" x="-43.1875" y="104.5" font-family="Times New Roman,serif" font-size="14.00">2 &#160;(4) </text>
</g>
<!-- 6_2 -->
<g id="node2" class="node"><title>6_2</title>
<ellipse fill="none" stroke="black" cx="665.28" cy="-100.8" rx="62.8651" ry="48.1667"/>
<text text-anchor="middle" x="665.28" y="-119.6" font-family="Times New Roman,serif" font-size="14.00">6,2</text>
<text text-anchor="middle" x="665.28" y="-104.6" font-family="Times New Roman,serif" font-size="14.00">ic: 4</text>
<text text-anchor="middle" x="665.28" y="-89.6" font-family="Times New Roman,serif" font-size="14.00">free: 6,1;6,0</text>
<text text-anchor="middle" x="665.28" y="-74.6" font-family="Times New Roman,serif" font-size="14.00">swlolw: none</text>
</g>
<!-- 2_3&#45;&gt;6_2 -->
<g id="edge8" class="edge"><title>2_3&#45;&gt;6_2</title>
<path fill="none" stroke="black" d="M-82.7301,82.3492C61.8875,42.1552 436.343,-51.5558 593.831,-87.0827"/>
<polygon fill="black" stroke="black" points="593.363,-90.5645 603.886,-89.3374 594.894,-83.7341 593.363,-90.5645"/>
<text text-anchor="middle" x="238.55" y="-6.16674" font-family="Times New Roman,serif" font-size="14.00">5 &#160;(5) </text>
</g>
<!-- 6_4 -->
<g id="node3" class="node"><title>6_4</title>
<ellipse fill="none" stroke="black" cx="665.28" cy="302.4" rx="62.8651" ry="48.1667"/>
<text text-anchor="middle" x="665.28" y="283.6" font-family="Times New Roman,serif" font-size="14.00">6,4</text>
<text text-anchor="middle" x="665.28" y="298.6" font-family="Times New Roman,serif" font-size="14.00">ic: 8</text>
<text text-anchor="middle" x="665.28" y="313.6" font-family="Times New Roman,serif" font-size="14.00">free: 6,3;5,3</text>
<text text-anchor="middle" x="665.28" y="328.6" font-family="Times New Roman,serif" font-size="14.00">swlolw: none</text>
</g>
<!-- 2_3&#45;&gt;6_4 -->
<g id="edge9" class="edge"><title>2_3&#45;&gt;6_4</title>
<path fill="none" stroke="black" d="M-79.9257,112.218C67.7163,145.104 442.647,238.76 597.145,281.255"/>
<polygon fill="black" stroke="black" points="598.292,277.941 606.998,283.979 596.427,284.688 598.292,277.941"/>
<text text-anchor="middle" x="241.61" y="192.937" font-family="Times New Roman,serif" font-size="14.00">5 &#160;(5) </text>
</g>
<!-- 2_1 -->
<g id="node4" class="node"><title>2_1</title>
<ellipse fill="none" stroke="black" cx="-141.12" cy="-302.4" rx="62.8651" ry="48.1667"/>
<text text-anchor="middle" x="-141.12" y="-321.2" font-family="Times New Roman,serif" font-size="14.00">2,1</text>
<text text-anchor="middle" x="-141.12" y="-306.2" font-family="Times New Roman,serif" font-size="14.00">ic: 6</text>
<text text-anchor="middle" x="-141.12" y="-291.2" font-family="Times New Roman,serif" font-size="14.00">free: 2,0;3,0</text>
<text text-anchor="middle" x="-141.12" y="-276.2" font-family="Times New Roman,serif" font-size="14.00">swlolw: none</text>
</g>
<!-- 2_3&#45;&gt;2_1 -->
<g id="edge1" class="edge"><title>2_3&#45;&gt;2_1</title>
<path fill="none" stroke="black" d="M-145.69,52.5651C-148.475,-21.752 -148.592,-164.022 -146.04,-244.034"/>
<polygon fill="black" stroke="black" points="-149.524,-244.55 -145.68,-254.423 -142.528,-244.308 -149.524,-244.55"/>
<text text-anchor="middle" x="-162.865" y="-99.5344" font-family="Times New Roman,serif" font-size="14.00">2 &#160;(4) </text>
</g>
<!-- 4_5 -->
<g id="node5" class="node"><title>4_5</title>
<ellipse fill="none" stroke="black" cx="262.08" cy="504" rx="62.8651" ry="48.1667"/>
<text text-anchor="middle" x="262.08" y="485.2" font-family="Times New Roman,serif" font-size="14.00">4,5</text>
<text text-anchor="middle" x="262.08" y="500.2" font-family="Times New Roman,serif" font-size="14.00">ic: 9</text>
<text text-anchor="middle" x="262.08" y="515.2" font-family="Times New Roman,serif" font-size="14.00">free: 4,4;4,3</text>
<text text-anchor="middle" x="262.08" y="530.2" font-family="Times New Roman,serif" font-size="14.00">swlolw: none</text>
</g>
<!-- 2_3&#45;&gt;4_5 -->
<g id="edge7" class="edge"><title>2_3&#45;&gt;4_5</title>
<path fill="none" stroke="black" d="M-99.1268,136.861C-21.6319,209.659 142.809,373.981 220.21,455.843"/>
<polygon fill="black" stroke="black" points="223.115,453.823 227.423,463.502 218.019,458.622 223.115,453.823"/>
<text text-anchor="middle" x="43.5416" y="292.552" font-family="Times New Roman,serif" font-size="14.00">4 &#160;(4) </text>
</g>
<!-- 3_1 -->
<g id="node6" class="node"><title>3_1</title>
<ellipse fill="none" stroke="black" cx="60.48" cy="-302.4" rx="62.8651" ry="48.1667"/>
<text text-anchor="middle" x="60.48" y="-321.2" font-family="Times New Roman,serif" font-size="14.00">3,1</text>
<text text-anchor="middle" x="60.48" y="-306.2" font-family="Times New Roman,serif" font-size="14.00">ic: 3</text>
<text text-anchor="middle" x="60.48" y="-291.2" font-family="Times New Roman,serif" font-size="14.00">free: 3,0;4,0</text>
<text text-anchor="middle" x="60.48" y="-276.2" font-family="Times New Roman,serif" font-size="14.00">swlolw: none</text>
</g>
<!-- 2_3&#45;&gt;3_1 -->
<g id="edge5" class="edge"><title>2_3&#45;&gt;3_1</title>
<path fill="none" stroke="black" d="M-122.919,54.5218C-88.4526,-21.0715 -13.8804,-170.499 28.8793,-249.925"/>
<polygon fill="black" stroke="black" points="25.8386,-251.66 33.6773,-258.787 31.9945,-248.327 25.8386,-251.66"/>
<text text-anchor="middle" x="-64.02" y="-101.501" font-family="Times New Roman,serif" font-size="14.00">3 &#160;(3) </text>
</g>
<!-- 1_1 -->
<g id="node7" class="node"><title>1_1</title>
<ellipse fill="none" stroke="black" cx="-342.72" cy="-302.4" rx="62.8651" ry="48.1667"/>
<text text-anchor="middle" x="-342.72" y="-321.2" font-family="Times New Roman,serif" font-size="14.00">1,1</text>
<text text-anchor="middle" x="-342.72" y="-306.2" font-family="Times New Roman,serif" font-size="14.00">ic: 4</text>
<text text-anchor="middle" x="-342.72" y="-291.2" font-family="Times New Roman,serif" font-size="14.00">free: 1,0;2,0</text>
<text text-anchor="middle" x="-342.72" y="-276.2" font-family="Times New Roman,serif" font-size="14.00">swlolw: none</text>
</g>
<!-- 2_3&#45;&gt;1_1 -->
<g id="edge4" class="edge"><title>2_3&#45;&gt;1_1</title>
<path fill="none" stroke="black" d="M-168.056,56.9433C-208.212,-16.8182 -282.668,-165.517 -320.147,-246.602"/>
<polygon fill="black" stroke="black" points="-323.538,-245.597 -324.53,-256.145 -317.176,-248.518 -323.538,-245.597"/>
<text text-anchor="middle" x="-261.102" y="-83.6291" font-family="Times New Roman,serif" font-size="14.00">3 &#160;(3) </text>
</g>
<!-- 0_2 -->
<g id="node8" class="node"><title>0_2</title>
<ellipse fill="none" stroke="black" cx="-544.32" cy="-100.8" rx="62.8651" ry="48.1667"/>
<text text-anchor="middle" x="-544.32" y="-119.6" font-family="Times New Roman,serif" font-size="14.00">0,2</text>
<text text-anchor="middle" x="-544.32" y="-104.6" font-family="Times New Roman,serif" font-size="14.00">ic: 1</text>
<text text-anchor="middle" x="-544.32" y="-89.6" font-family="Times New Roman,serif" font-size="14.00">free: 0,1;0,0</text>
<text text-anchor="middle" x="-544.32" y="-74.6" font-family="Times New Roman,serif" font-size="14.00">swlolw: none</text>
</g>
<!-- 2_3&#45;&gt;0_2 -->
<g id="edge6" class="edge"><title>2_3&#45;&gt;0_2</title>
<path fill="none" stroke="black" d="M-196.791,78.2865C-272.766,43.1742 -408.274,-24.4915 -485.737,-65.9225"/>
<polygon fill="black" stroke="black" points="-487.737,-63.0238 -494.888,-70.841 -484.423,-69.1896 -487.737,-63.0238"/>
<text text-anchor="middle" x="-358.264" y="17.382" font-family="Times New Roman,serif" font-size="14.00">3 &#160;(3) </text>
</g>
<!-- 0_3 -->
<g id="node9" class="node"><title>0_3</title>
<ellipse fill="none" stroke="black" cx="-544.32" cy="100.8" rx="62.8651" ry="48.1667"/>
<text text-anchor="middle" x="-544.32" y="82" font-family="Times New Roman,serif" font-size="14.00">0,3</text>
<text text-anchor="middle" x="-544.32" y="97" font-family="Times New Roman,serif" font-size="14.00">ic: 5</text>
<text text-anchor="middle" x="-544.32" y="112" font-family="Times New Roman,serif" font-size="14.00">free: 1,3;1,2</text>
<text text-anchor="middle" x="-544.32" y="127" font-family="Times New Roman,serif" font-size="14.00">swlolw: none</text>
</g>
<!-- 2_3&#45;&gt;0_3 -->
<g id="edge2" class="edge"><title>2_3&#45;&gt;0_3</title>
<path fill="none" stroke="black" d="M-204.12,105.862C-276.507,108.017 -395.101,108.108 -471.415,106.137"/>
<polygon fill="black" stroke="black" points="-471.532,109.635 -481.431,105.859 -471.337,102.638 -471.532,109.635"/>
<text text-anchor="middle" x="-354.768" y="117.2" font-family="Times New Roman,serif" font-size="14.00">2 &#160;(4) </text>
</g>
<!-- 6_2&#45;&gt;2_3 -->
<g id="edge14" class="edge"><title>6_2&#45;&gt;2_3</title>
<path fill="none" stroke="black" d="M606.89,-82.3492C462.272,-42.1552 87.8172,51.5558 -69.6711,87.0827"/>
<polygon fill="black" stroke="black" points="-69.2026,90.5645 -79.7261,89.3374 -70.7343,83.7341 -69.2026,90.5645"/>
<text text-anchor="middle" x="285.61" y="-1.43326" font-family="Times New Roman,serif" font-size="14.00">5 &#160;(5) </text>
</g>
<!-- 6_2&#45;&gt;6_2 -->
<g id="edge11" class="edge"><title>6_2&#45;&gt;6_2</title>
<path fill="none" stroke="black" d="M727.718,-107.128C738.625,-106.284 746.212,-104.175 746.212,-100.8 746.212,-98.6379 743.099,-96.9952 737.993,-95.8719"/>
<polygon fill="black" stroke="black" points="738.099,-92.3541 727.718,-94.4719 737.154,-99.29 738.099,-92.3541"/>
<text text-anchor="middle" x="763.212" y="-97.1" font-family="Times New Roman,serif" font-size="14.00">2 &#160;(4) </text>
</g>
<!-- 6_2&#45;&gt;6_4 -->
<g id="edge10" class="edge"><title>6_2&#45;&gt;6_4</title>
<path fill="none" stroke="black" d="M669.85,-52.5651C672.635,21.752 672.752,164.022 670.2,244.034"/>
<polygon fill="black" stroke="black" points="673.684,244.55 669.84,254.423 666.688,244.308 673.684,244.55"/>
<text text-anchor="middle" x="653.025" y="91.9344" font-family="Times New Roman,serif" font-size="14.00">2 &#160;(4) </text>
</g>
<!-- 6_2&#45;&gt;2_1 -->
<g id="edge13" class="edge"><title>6_2&#45;&gt;2_1</title>
<path fill="none" stroke="black" d="M604.086,-112.218C456.444,-145.104 81.5127,-238.76 -72.985,-281.255"/>
<polygon fill="black" stroke="black" points="-74.1322,-277.941 -82.838,-283.979 -72.2669,-284.688 -74.1322,-277.941"/>
<text text-anchor="middle" x="248.55" y="-185.537" font-family="Times New Roman,serif" font-size="14.00">5 &#160;(5) </text>
</g>
<!-- 6_2&#45;&gt;4_5 -->
<g id="edge15" class="edge"><title>6_2&#45;&gt;4_5</title>
<path fill="none" stroke="black" d="M639.979,-56.2373C571.343,53.921 381.867,338.335 300.223,453.999"/>
<polygon fill="black" stroke="black" points="302.936,456.223 294.299,462.36 297.224,452.177 302.936,456.223"/>
<text text-anchor="middle" x="453.101" y="195.081" font-family="Times New Roman,serif" font-size="14.00">5 &#160;(5) </text>
</g>
<!-- 6_2&#45;&gt;3_1 -->
<g id="edge12" class="edge"><title>6_2&#45;&gt;3_1</title>
<path fill="none" stroke="black" d="M605.413,-116.334C491.33,-150.851 243.685,-233.32 125.619,-276.029"/>
<polygon fill="black" stroke="black" points="124.177,-272.829 115.974,-279.534 126.568,-279.408 124.177,-272.829"/>
<text text-anchor="middle" x="348.516" y="-184.981" font-family="Times New Roman,serif" font-size="14.00">4 &#160;(4) </text>
</g>
<!-- 6_2&#45;&gt;1_1 -->
<g id="edge16" class="edge"><title>6_2&#45;&gt;1_1</title>
<path fill="none" stroke="black" d="M603.066,-109.725C424.989,-140.925 -85.8906,-243.03 -272.983,-284.722"/>
<polygon fill="black" stroke="black" points="-273.985,-281.36 -282.977,-286.961 -272.454,-288.19 -273.985,-281.36"/>
<text text-anchor="middle" x="148.041" y="-186.023" font-family="Times New Roman,serif" font-size="14.00">6 &#160;(6) </text>
</g>
<!-- 6_2&#45;&gt;0_2 -->
<g id="edge17" class="edge"><title>6_2&#45;&gt;0_2</title>
<path fill="none" stroke="black" d="M602.372,-97.5846C397.226,-92.9471 -251.736,-92.873 -471.069,-97.3622"/>
<polygon fill="black" stroke="black" points="-471.263,-93.8655 -481.185,-97.5795 -471.112,-100.864 -471.263,-93.8655"/>
<text text-anchor="middle" x="82.6516" y="-101.273" font-family="Times New Roman,serif" font-size="14.00">6 &#160;(6) </text>
</g>
<!-- 6_2&#45;&gt;0_3 -->
<g id="edge18" class="edge"><title>6_2&#45;&gt;0_3</title>
<path fill="none" stroke="black" d="M604.573,-87.4612C401.705,-48.9014 -252.244,60.1698 -471.725,92.1606"/>
<polygon fill="black" stroke="black" points="-471.446,95.6566 -481.844,93.6251 -472.449,88.7288 -471.446,95.6566"/>
<text text-anchor="middle" x="49.4241" y="13.5497" font-family="Times New Roman,serif" font-size="14.00">7 &#160;(7) </text>
</g>
<!-- 6_4&#45;&gt;2_3 -->
<g id="edge22" class="edge"><title>6_4&#45;&gt;2_3</title>
<path fill="none" stroke="black" d="M604.086,290.982C456.444,258.096 81.5127,164.44 -72.985,121.945"/>
<polygon fill="black" stroke="black" points="-74.1322,125.259 -82.838,119.221 -72.2669,118.512 -74.1322,125.259"/>
<text text-anchor="middle" x="248.55" y="217.663" font-family="Times New Roman,serif" font-size="14.00">5 &#160;(5) </text>
</g>
<!-- 6_4&#45;&gt;6_2 -->
<g id="edge19" class="edge"><title>6_4&#45;&gt;6_2</title>
<path fill="none" stroke="black" d="M660.71,254.165C657.925,179.848 657.808,37.5785 660.36,-42.4341"/>
<polygon fill="black" stroke="black" points="656.876,-42.9502 660.72,-52.823 663.872,-42.7078 656.876,-42.9502"/>
<text text-anchor="middle" x="643.535" y="117.066" font-family="Times New Roman,serif" font-size="14.00">2 &#160;(4) </text>
</g>
<!-- 6_4&#45;&gt;6_4 -->
<g id="edge20" class="edge"><title>6_4&#45;&gt;6_4</title>
<path fill="none" stroke="black" d="M727.718,296.072C738.625,296.916 746.212,299.025 746.212,302.4 746.212,304.562 743.099,306.205 737.993,307.328"/>
<polygon fill="black" stroke="black" points="738.099,310.846 727.718,308.728 737.154,303.91 738.099,310.846"/>
<text text-anchor="middle" x="763.212" y="306.1" font-family="Times New Roman,serif" font-size="14.00">2 &#160;(4) </text>
</g>
<!-- 6_4&#45;&gt;2_1 -->
<g id="edge24" class="edge"><title>6_4&#45;&gt;2_1</title>
<path fill="none" stroke="black" d="M617.611,270.821C475.294,169.684 54.5395,-145.798 -90.9651,-260.357"/>
<polygon fill="black" stroke="black" points="-93.2386,-257.693 -98.9187,-266.637 -88.9011,-263.187 -93.2386,-257.693"/>
<text text-anchor="middle" x="246.323" y="16.4319" font-family="Times New Roman,serif" font-size="14.00">7 &#160;(7) </text>
</g>
<!-- 6_4&#45;&gt;4_5 -->
<g id="edge21" class="edge"><title>6_4&#45;&gt;4_5</title>
<path fill="none" stroke="black" d="M615.901,332.33C543.425,371.494 408.17,439.263 327.505,476.953"/>
<polygon fill="black" stroke="black" points="328.49,480.355 317.946,481.396 325.539,474.007 328.49,480.355"/>
<text text-anchor="middle" x="454.703" y="415.842" font-family="Times New Roman,serif" font-size="14.00">3 &#160;(3) </text>
</g>
<!-- 6_4&#45;&gt;3_1 -->
<g id="edge23" class="edge"><title>6_4&#45;&gt;3_1</title>
<path fill="none" stroke="black" d="M623.559,265.688C513.007,161.086 213.672,-138.151 102.632,-254.944"/>
<polygon fill="black" stroke="black" points="99.9333,-252.704 95.5943,-262.37 105.014,-257.519 99.9333,-252.704"/>
<text text-anchor="middle" x="346.096" y="16.5715" font-family="Times New Roman,serif" font-size="14.00">6 &#160;(6) </text>
</g>
<!-- 6_4&#45;&gt;1_1 -->
<g id="edge26" class="edge"><title>6_4&#45;&gt;1_1</title>
<path fill="none" stroke="black" d="M613.323,274.909C441.219,177.156 -109.251,-153.052 -286.895,-264.998"/>
<polygon fill="black" stroke="black" points="-288.985,-262.178 -295.57,-270.479 -285.246,-268.096 -288.985,-262.178"/>
<text text-anchor="middle" x="146.214" y="16.1554" font-family="Times New Roman,serif" font-size="14.00">8 &#160;(8) </text>
</g>
<!-- 6_4&#45;&gt;0_2 -->
<g id="edge27" class="edge"><title>6_4&#45;&gt;0_2</title>
<path fill="none" stroke="black" d="M605.955,285.903C402.496,223.133 -266.104,0.332041 -478.762,-75.4714"/>
<polygon fill="black" stroke="black" points="-480.003,-72.1982 -488.24,-78.8613 -477.646,-78.7894 -480.003,-72.1982"/>
<text text-anchor="middle" x="46.5968" y="101.416" font-family="Times New Roman,serif" font-size="14.00">8 &#160;(8) </text>
</g>
<!-- 6_4&#45;&gt;0_3 -->
<g id="edge25" class="edge"><title>6_4&#45;&gt;0_3</title>
<path fill="none" stroke="black" d="M602.688,295.208C397.049,265.671 -256.975,156.734 -473.756,116.001"/>
<polygon fill="black" stroke="black" points="-474.569,119.41 -483.745,114.114 -473.269,112.531 -474.569,119.41"/>
<text text-anchor="middle" x="47.4663" y="216.805" font-family="Times New Roman,serif" font-size="14.00">7 &#160;(7) </text>
</g>
<!-- 2_1&#45;&gt;2_3 -->
<g id="edge30" class="edge"><title>2_1&#45;&gt;2_3</title>
<path fill="none" stroke="black" d="M-136.55,-254.165C-133.765,-179.848 -133.648,-37.5785 -136.2,42.4341"/>
<polygon fill="black" stroke="black" points="-132.716,42.9502 -136.56,52.823 -139.712,42.7078 -132.716,42.9502"/>
<text text-anchor="middle" x="-119.375" y="-109.666" font-family="Times New Roman,serif" font-size="14.00">2 &#160;(4) </text>
</g>
<!-- 2_1&#45;&gt;6_2 -->
<g id="edge34" class="edge"><title>2_1&#45;&gt;6_2</title>
<path fill="none" stroke="black" d="M-79.9257,-290.982C67.7163,-258.096 442.647,-164.44 597.145,-121.945"/>
<polygon fill="black" stroke="black" points="598.292,-125.259 606.998,-119.221 596.427,-118.512 598.292,-125.259"/>
<text text-anchor="middle" x="241.61" y="-210.263" font-family="Times New Roman,serif" font-size="14.00">5 &#160;(5) </text>
</g>
<!-- 2_1&#45;&gt;6_4 -->
<g id="edge36" class="edge"><title>2_1&#45;&gt;6_4</title>
<path fill="none" stroke="black" d="M-93.4509,-270.821C48.8659,-169.684 469.62,145.798 615.125,260.357"/>
<polygon fill="black" stroke="black" points="617.399,257.693 623.079,266.637 613.061,263.187 617.399,257.693"/>
<text text-anchor="middle" x="277.837" y="-9.03189" font-family="Times New Roman,serif" font-size="14.00">7 &#160;(7) </text>
</g>
<!-- 2_1&#45;&gt;2_1 -->
<g id="edge31" class="edge"><title>2_1&#45;&gt;2_1</title>
<path fill="none" stroke="black" d="M-78.6818,-308.728C-67.7749,-307.884 -60.1875,-305.775 -60.1875,-302.4 -60.1875,-300.238 -63.3014,-298.595 -68.4071,-297.472"/>
<polygon fill="black" stroke="black" points="-68.3008,-293.954 -78.6818,-296.072 -69.246,-300.89 -68.3008,-293.954"/>
<text text-anchor="middle" x="-43.1875" y="-298.7" font-family="Times New Roman,serif" font-size="14.00">2 &#160;(4) </text>
</g>
<!-- 2_1&#45;&gt;4_5 -->
<g id="edge35" class="edge"><title>2_1&#45;&gt;4_5</title>
<path fill="none" stroke="black" d="M-115.301,-258.227C-41.6695,-120.956 167.856,297.918 238.563,448.972"/>
<polygon fill="black" stroke="black" points="241.766,447.561 242.819,458.103 235.422,450.518 241.766,447.561"/>
<text text-anchor="middle" x="44.6308" y="91.5728" font-family="Times New Roman,serif" font-size="14.00">6 &#160;(6) </text>
</g>
<!-- 2_1&#45;&gt;3_1 -->
<g id="edge29" class="edge"><title>2_1&#45;&gt;3_1</title>
<path fill="none" stroke="black" d="M-78.7131,-308.695C-57.649,-309.218 -33.955,-309.29 -12.1685,-308.91"/>
<polygon fill="black" stroke="black" points="-11.9031,-312.406 -1.97905,-308.696 -12.0506,-305.407 -11.9031,-312.406"/>
<text text-anchor="middle" x="-28.4408" y="-312.602" font-family="Times New Roman,serif" font-size="14.00">1 &#160;(3) </text>
</g>
<!-- 2_1&#45;&gt;1_1 -->
<g id="edge28" class="edge"><title>2_1&#45;&gt;1_1</title>
<path fill="none" stroke="black" d="M-203.527,-296.105C-224.591,-295.582 -248.285,-295.51 -270.071,-295.89"/>
<polygon fill="black" stroke="black" points="-270.337,-292.394 -280.261,-296.104 -270.189,-299.393 -270.337,-292.394"/>
<text text-anchor="middle" x="-228.299" y="-284.798" font-family="Times New Roman,serif" font-size="14.00">1 &#160;(3) </text>
</g>
<!-- 2_1&#45;&gt;0_2 -->
<g id="edge32" class="edge"><title>2_1&#45;&gt;0_2</title>
<path fill="none" stroke="black" d="M-190.499,-272.47C-262.975,-233.306 -398.23,-165.537 -478.895,-127.847"/>
<polygon fill="black" stroke="black" points="-477.91,-124.445 -488.454,-123.404 -480.861,-130.793 -477.91,-124.445"/>
<text text-anchor="middle" x="-351.697" y="-188.958" font-family="Times New Roman,serif" font-size="14.00">3 &#160;(3) </text>
</g>
<!-- 2_1&#45;&gt;0_3 -->
<g id="edge33" class="edge"><title>2_1&#45;&gt;0_3</title>
<path fill="none" stroke="black" d="M-175.77,-261.91C-247.348,-185.576 -411.532,-21.2142 -494.483,57.3399"/>
<polygon fill="black" stroke="black" points="-492.575,60.352 -502.251,64.6683 -497.379,55.2602 -492.575,60.352"/>
<text text-anchor="middle" x="-352.126" y="-106.085" font-family="Times New Roman,serif" font-size="14.00">4 &#160;(4) </text>
</g>
<!-- 4_5&#45;&gt;2_3 -->
<g id="edge39" class="edge"><title>4_5&#45;&gt;2_3</title>
<path fill="none" stroke="black" d="M220.087,467.939C142.592,395.141 -21.8487,230.819 -99.2501,148.957"/>
<polygon fill="black" stroke="black" points="-102.155,150.977 -106.463,141.298 -97.0591,146.178 -102.155,150.977"/>
<text text-anchor="middle" x="43.4184" y="319.648" font-family="Times New Roman,serif" font-size="14.00">4 &#160;(4) </text>
</g>
<!-- 4_5&#45;&gt;6_2 -->
<g id="edge41" class="edge"><title>4_5&#45;&gt;6_2</title>
<path fill="none" stroke="black" d="M287.381,459.437C356.017,349.279 545.493,64.8654 627.137,-50.7989"/>
<polygon fill="black" stroke="black" points="624.424,-53.0234 633.061,-59.16 630.136,-48.9769 624.424,-53.0234"/>
<text text-anchor="middle" x="440.259" y="215.519" font-family="Times New Roman,serif" font-size="14.00">5 &#160;(5) </text>
</g>
<!-- 4_5&#45;&gt;6_4 -->
<g id="edge38" class="edge"><title>4_5&#45;&gt;6_4</title>
<path fill="none" stroke="black" d="M311.459,474.07C383.935,434.906 519.19,367.137 599.855,329.447"/>
<polygon fill="black" stroke="black" points="598.87,326.045 609.414,325.004 601.821,332.393 598.87,326.045"/>
<text text-anchor="middle" x="438.657" y="397.958" font-family="Times New Roman,serif" font-size="14.00">3 &#160;(3) </text>
</g>
<!-- 4_5&#45;&gt;2_1 -->
<g id="edge42" class="edge"><title>4_5&#45;&gt;2_1</title>
<path fill="none" stroke="black" d="M236.261,459.827C162.63,322.556 -46.8955,-96.3179 -117.603,-247.372"/>
<polygon fill="black" stroke="black" points="-120.806,-245.961 -121.859,-256.503 -114.462,-248.918 -120.806,-245.961"/>
<text text-anchor="middle" x="42.3292" y="117.427" font-family="Times New Roman,serif" font-size="14.00">6 &#160;(6) </text>
</g>
<!-- 4_5&#45;&gt;4_5 -->
<g id="edge37" class="edge"><title>4_5&#45;&gt;4_5</title>
<path fill="none" stroke="black" d="M324.518,497.672C335.425,498.516 343.013,500.625 343.013,504 343.013,506.162 339.899,507.805 334.793,508.928"/>
<polygon fill="black" stroke="black" points="334.899,512.446 324.518,510.328 333.954,505.51 334.899,512.446"/>
<text text-anchor="middle" x="360.013" y="507.7" font-family="Times New Roman,serif" font-size="14.00">2 &#160;(4) </text>
</g>
<!-- 4_5&#45;&gt;3_1 -->
<g id="edge40" class="edge"><title>4_5&#45;&gt;3_1</title>
<path fill="none" stroke="black" d="M246.845,457.095C207.569,318.003 104.989,-91.9408 71.1852,-244.414"/>
<polygon fill="black" stroke="black" points="67.6945,-243.991 68.9655,-254.51 74.5312,-245.494 67.6945,-243.991"/>
<text text-anchor="middle" x="142.015" y="102.54" font-family="Times New Roman,serif" font-size="14.00">5 &#160;(5) </text>
</g>
<!-- 4_5&#45;&gt;1_1 -->
<g id="edge44" class="edge"><title>4_5&#45;&gt;1_1</title>
<path fill="none" stroke="black" d="M227.615,463.438C121.093,329.091 -201.626,-101.074 -308.209,-250.611"/>
<polygon fill="black" stroke="black" points="-311.379,-249.03 -314.318,-259.209 -305.673,-253.085 -311.379,-249.03"/>
<text text-anchor="middle" x="-23.2969" y="117.613" font-family="Times New Roman,serif" font-size="14.00">7 &#160;(7) </text>
</g>
<!-- 4_5&#45;&gt;0_2 -->
<g id="edge45" class="edge"><title>4_5&#45;&gt;0_2</title>
<path fill="none" stroke="black" d="M214.411,472.421C72.0941,371.284 -348.66,55.8024 -494.165,-58.7573"/>
<polygon fill="black" stroke="black" points="-496.439,-56.0929 -502.119,-65.0365 -492.101,-61.5871 -496.439,-56.0929"/>
<text text-anchor="middle" x="-156.877" y="218.032" font-family="Times New Roman,serif" font-size="14.00">7 &#160;(7) </text>
</g>
<!-- 4_5&#45;&gt;0_3 -->
<g id="edge43" class="edge"><title>4_5&#45;&gt;0_3</title>
<path fill="none" stroke="black" d="M206.945,480.433C61.0616,412.14 -334.081,214.647 -484.814,134.789"/>
<polygon fill="black" stroke="black" points="-486.769,137.714 -493.956,129.93 -483.483,131.533 -486.769,137.714"/>
<text text-anchor="middle" x="-155.934" y="318.811" font-family="Times New Roman,serif" font-size="14.00">6 &#160;(6) </text>
</g>
<!-- 3_1&#45;&gt;2_3 -->
<g id="edge48" class="edge"><title>3_1&#45;&gt;2_3</title>
<path fill="none" stroke="black" d="M42.2794,-256.122C7.81264,-180.529 -66.7596,-31.1011 -109.519,48.3245"/>
<polygon fill="black" stroke="black" points="-106.479,50.0596 -114.317,57.1875 -112.634,46.7271 -106.479,50.0596"/>
<text text-anchor="middle" x="-16.62" y="-107.699" font-family="Times New Roman,serif" font-size="14.00">3 &#160;(3) </text>
</g>
<!-- 3_1&#45;&gt;6_2 -->
<g id="edge50" class="edge"><title>3_1&#45;&gt;6_2</title>
<path fill="none" stroke="black" d="M120.347,-286.866C234.43,-252.349 482.075,-169.879 600.141,-127.171"/>
<polygon fill="black" stroke="black" points="601.583,-130.371 609.786,-123.666 599.192,-123.792 601.583,-130.371"/>
<text text-anchor="middle" x="343.244" y="-210.819" font-family="Times New Roman,serif" font-size="14.00">4 &#160;(4) </text>
</g>
<!-- 3_1&#45;&gt;6_4 -->
<g id="edge54" class="edge"><title>3_1&#45;&gt;6_4</title>
<path fill="none" stroke="black" d="M102.201,-265.688C212.753,-161.086 512.088,138.151 623.128,254.944"/>
<polygon fill="black" stroke="black" points="625.827,252.704 630.166,262.37 620.746,257.519 625.827,252.704"/>
<text text-anchor="middle" x="345.664" y="-9.17154" font-family="Times New Roman,serif" font-size="14.00">6 &#160;(6) </text>
</g>
<!-- 3_1&#45;&gt;2_1 -->
<g id="edge46" class="edge"><title>3_1&#45;&gt;2_1</title>
<path fill="none" stroke="black" d="M-1.92688,-296.105C-22.991,-295.582 -46.685,-295.51 -68.4715,-295.89"/>
<polygon fill="black" stroke="black" points="-68.7369,-292.394 -78.661,-296.104 -68.5895,-299.393 -68.7369,-292.394"/>
<text text-anchor="middle" x="-26.6992" y="-284.798" font-family="Times New Roman,serif" font-size="14.00">1 &#160;(3) </text>
</g>
<!-- 3_1&#45;&gt;4_5 -->
<g id="edge52" class="edge"><title>3_1&#45;&gt;4_5</title>
<path fill="none" stroke="black" d="M75.7147,-255.495C114.991,-116.403 217.571,293.541 251.375,446.014"/>
<polygon fill="black" stroke="black" points="254.865,445.591 253.594,456.11 248.029,447.094 254.865,445.591"/>
<text text-anchor="middle" x="180.545" y="91.4595" font-family="Times New Roman,serif" font-size="14.00">5 &#160;(5) </text>
</g>
<!-- 3_1&#45;&gt;3_1 -->
<g id="edge47" class="edge"><title>3_1&#45;&gt;3_1</title>
<path fill="none" stroke="black" d="M122.918,-308.728C133.825,-307.884 141.413,-305.775 141.413,-302.4 141.413,-300.238 138.299,-298.595 133.193,-297.472"/>
<polygon fill="black" stroke="black" points="133.299,-293.954 122.918,-296.072 132.354,-300.89 133.299,-293.954"/>
<text text-anchor="middle" x="158.413" y="-298.7" font-family="Times New Roman,serif" font-size="14.00">2 &#160;(4) </text>
</g>
<!-- 3_1&#45;&gt;1_1 -->
<g id="edge49" class="edge"><title>3_1&#45;&gt;1_1</title>
<path fill="none" stroke="black" d="M-2.52,-297.337C-74.9069,-295.183 -193.501,-295.092 -269.815,-297.063"/>
<polygon fill="black" stroke="black" points="-269.932,-293.565 -279.831,-297.341 -269.737,-300.562 -269.932,-293.565"/>
<text text-anchor="middle" x="-153.168" y="-301" font-family="Times New Roman,serif" font-size="14.00">4 &#160;(4) </text>
</g>
<!-- 3_1&#45;&gt;0_2 -->
<g id="edge51" class="edge"><title>3_1&#45;&gt;0_2</title>
<path fill="none" stroke="black" d="M4.89301,-279.501C-105.733,-239.082 -353.203,-156.479 -474.545,-119.349"/>
<polygon fill="black" stroke="black" points="-473.888,-115.891 -484.474,-116.327 -475.926,-122.587 -473.888,-115.891"/>
<text text-anchor="middle" x="-251.826" y="-188.225" font-family="Times New Roman,serif" font-size="14.00">4 &#160;(4) </text>
</g>
<!-- 3_1&#45;&gt;0_3 -->
<g id="edge53" class="edge"><title>3_1&#45;&gt;0_3</title>
<path fill="none" stroke="black" d="M16.1391,-268.262C-91.0396,-192.236 -364.098,-10.0609 -485.093,66.2996"/>
<polygon fill="black" stroke="black" points="-483.558,69.4687 -493.886,71.8303 -487.285,63.5433 -483.558,69.4687"/>
<text text-anchor="middle" x="-217.477" y="-104.781" font-family="Times New Roman,serif" font-size="14.00">5 &#160;(5) </text>
</g>
<!-- 1_1&#45;&gt;2_3 -->
<g id="edge58" class="edge"><title>1_1&#45;&gt;2_3</title>
<path fill="none" stroke="black" d="M-315.784,-258.543C-275.628,-184.782 -201.172,-36.0832 -163.693,45.0016"/>
<polygon fill="black" stroke="black" points="-160.303,43.997 -159.31,54.5452 -166.664,46.9182 -160.303,43.997"/>
<text text-anchor="middle" x="-256.738" y="-110.571" font-family="Times New Roman,serif" font-size="14.00">3 &#160;(3) </text>
</g>
<!-- 1_1&#45;&gt;6_2 -->
<g id="edge61" class="edge"><title>1_1&#45;&gt;6_2</title>
<path fill="none" stroke="black" d="M-280.506,-293.475C-102.429,-262.275 408.451,-160.17 595.543,-118.478"/>
<polygon fill="black" stroke="black" points="596.545,-121.84 605.537,-116.239 595.014,-115.01 596.545,-121.84"/>
<text text-anchor="middle" x="140.519" y="-209.777" font-family="Times New Roman,serif" font-size="14.00">6 &#160;(6) </text>
</g>
<!-- 1_1&#45;&gt;6_4 -->
<g id="edge63" class="edge"><title>1_1&#45;&gt;6_4</title>
<path fill="none" stroke="black" d="M-290.764,-274.909C-118.659,-177.156 431.811,153.052 609.455,264.998"/>
<polygon fill="black" stroke="black" points="611.545,262.178 618.129,270.479 607.806,268.096 611.545,262.178"/>
<text text-anchor="middle" x="142.346" y="-8.75544" font-family="Times New Roman,serif" font-size="14.00">8 &#160;(8) </text>
</g>
<!-- 1_1&#45;&gt;2_1 -->
<g id="edge55" class="edge"><title>1_1&#45;&gt;2_1</title>
<path fill="none" stroke="black" d="M-280.313,-308.695C-259.249,-309.218 -235.555,-309.29 -213.769,-308.91"/>
<polygon fill="black" stroke="black" points="-213.503,-312.406 -203.579,-308.696 -213.651,-305.407 -213.503,-312.406"/>
<text text-anchor="middle" x="-230.041" y="-312.602" font-family="Times New Roman,serif" font-size="14.00">1 &#160;(3) </text>
</g>
<!-- 1_1&#45;&gt;4_5 -->
<g id="edge62" class="edge"><title>1_1&#45;&gt;4_5</title>
<path fill="none" stroke="black" d="M-308.255,-261.838C-201.733,-127.491 120.986,302.674 227.569,452.211"/>
<polygon fill="black" stroke="black" points="230.739,450.63 233.678,460.809 225.033,454.685 230.739,450.63"/>
<text text-anchor="middle" x="-23.3431" y="91.3868" font-family="Times New Roman,serif" font-size="14.00">7 &#160;(7) </text>
</g>
<!-- 1_1&#45;&gt;3_1 -->
<g id="edge60" class="edge"><title>1_1&#45;&gt;3_1</title>
<path fill="none" stroke="black" d="M-279.72,-307.462C-207.333,-309.617 -88.7393,-309.708 -12.4247,-307.737"/>
<polygon fill="black" stroke="black" points="-12.3083,-311.235 -2.4093,-307.459 -12.5026,-304.238 -12.3083,-311.235"/>
<text text-anchor="middle" x="-163.072" y="-311.4" font-family="Times New Roman,serif" font-size="14.00">4 &#160;(4) </text>
</g>
<!-- 1_1&#45;&gt;1_1 -->
<g id="edge57" class="edge"><title>1_1&#45;&gt;1_1</title>
<path fill="none" stroke="black" d="M-280.282,-308.728C-269.375,-307.884 -261.788,-305.775 -261.788,-302.4 -261.788,-300.238 -264.901,-298.595 -270.007,-297.472"/>
<polygon fill="black" stroke="black" points="-269.901,-293.954 -280.282,-296.072 -270.846,-300.89 -269.901,-293.954"/>
<text text-anchor="middle" x="-244.788" y="-298.7" font-family="Times New Roman,serif" font-size="14.00">2 &#160;(4) </text>
</g>
<!-- 1_1&#45;&gt;0_2 -->
<g id="edge56" class="edge"><title>1_1&#45;&gt;0_2</title>
<path fill="none" stroke="black" d="M-376.357,-261.143C-408.347,-226.797 -456.808,-178.141 -493.494,-143.424"/>
<polygon fill="black" stroke="black" points="-491.452,-140.54 -501.134,-136.237 -496.248,-145.638 -491.452,-140.54"/>
<text text-anchor="middle" x="-451.926" y="-206.084" font-family="Times New Roman,serif" font-size="14.00">2 &#160;(4) </text>
</g>
<!-- 1_1&#45;&gt;0_3 -->
<g id="edge59" class="edge"><title>1_1&#45;&gt;0_3</title>
<path fill="none" stroke="black" d="M-360.921,-256.122C-395.387,-180.529 -469.96,-31.1011 -512.719,48.3245"/>
<polygon fill="black" stroke="black" points="-509.679,50.0596 -517.517,57.1875 -515.834,46.7271 -509.679,50.0596"/>
<text text-anchor="middle" x="-419.82" y="-107.699" font-family="Times New Roman,serif" font-size="14.00">3 &#160;(3) </text>
</g>
<!-- 0_2&#45;&gt;2_3 -->
<g id="edge68" class="edge"><title>0_2&#45;&gt;2_3</title>
<path fill="none" stroke="black" d="M-488.649,-78.2865C-412.674,-43.1742 -277.166,24.4915 -199.703,65.9225"/>
<polygon fill="black" stroke="black" points="-197.703,63.0238 -190.552,70.841 -201.017,69.1896 -197.703,63.0238"/>
<text text-anchor="middle" x="-361.176" y="-9.98203" font-family="Times New Roman,serif" font-size="14.00">3 &#160;(3) </text>
</g>
<!-- 0_2&#45;&gt;6_2 -->
<g id="edge70" class="edge"><title>0_2&#45;&gt;6_2</title>
<path fill="none" stroke="black" d="M-481.412,-104.015C-276.266,-108.653 372.696,-108.727 592.029,-104.238"/>
<polygon fill="black" stroke="black" points="592.223,-107.734 602.145,-104.021 592.072,-100.736 592.223,-107.734"/>
<text text-anchor="middle" x="38.3084" y="-107.927" font-family="Times New Roman,serif" font-size="14.00">6 &#160;(6) </text>
</g>
<!-- 0_2&#45;&gt;6_4 -->
<g id="edge72" class="edge"><title>0_2&#45;&gt;6_4</title>
<path fill="none" stroke="black" d="M-484.995,-84.3029C-281.536,-21.5326 387.064,201.268 599.721,277.071"/>
<polygon fill="black" stroke="black" points="600.963,273.798 609.2,280.461 598.606,280.389 600.963,273.798"/>
<text text-anchor="middle" x="40.3632" y="92.5843" font-family="Times New Roman,serif" font-size="14.00">8 &#160;(8) </text>
</g>
<!-- 0_2&#45;&gt;2_1 -->
<g id="edge67" class="edge"><title>0_2&#45;&gt;2_1</title>
<path fill="none" stroke="black" d="M-494.941,-130.73C-422.465,-169.894 -287.21,-237.663 -206.545,-275.353"/>
<polygon fill="black" stroke="black" points="-207.53,-278.755 -196.986,-279.796 -204.579,-272.407 -207.53,-278.755"/>
<text text-anchor="middle" x="-367.743" y="-206.842" font-family="Times New Roman,serif" font-size="14.00">3 &#160;(3) </text>
</g>
<!-- 0_2&#45;&gt;4_5 -->
<g id="edge71" class="edge"><title>0_2&#45;&gt;4_5</title>
<path fill="none" stroke="black" d="M-496.651,-69.2211C-354.334,31.9162 66.4205,347.398 211.925,461.957"/>
<polygon fill="black" stroke="black" points="214.199,459.293 219.879,468.237 209.861,464.787 214.199,459.293"/>
<text text-anchor="middle" x="-159.363" y="192.568" font-family="Times New Roman,serif" font-size="14.00">7 &#160;(7) </text>
</g>
<!-- 0_2&#45;&gt;3_1 -->
<g id="edge69" class="edge"><title>0_2&#45;&gt;3_1</title>
<path fill="none" stroke="black" d="M-488.733,-123.699C-378.107,-164.118 -130.637,-246.721 -9.29507,-283.851"/>
<polygon fill="black" stroke="black" points="-9.95209,-287.309 0.633734,-286.873 -7.91397,-280.613 -9.95209,-287.309"/>
<text text-anchor="middle" x="-266.014" y="-207.575" font-family="Times New Roman,serif" font-size="14.00">4 &#160;(4) </text>
</g>
<!-- 0_2&#45;&gt;1_1 -->
<g id="edge65" class="edge"><title>0_2&#45;&gt;1_1</title>
<path fill="none" stroke="black" d="M-510.683,-142.057C-478.693,-176.403 -430.232,-225.058 -393.546,-259.776"/>
<polygon fill="black" stroke="black" points="-395.588,-262.66 -385.906,-266.963 -390.792,-257.562 -395.588,-262.66"/>
<text text-anchor="middle" x="-469.114" y="-189.716" font-family="Times New Roman,serif" font-size="14.00">2 &#160;(4) </text>
</g>
<!-- 0_2&#45;&gt;0_2 -->
<g id="edge66" class="edge"><title>0_2&#45;&gt;0_2</title>
<path fill="none" stroke="black" d="M-481.882,-107.128C-470.975,-106.284 -463.387,-104.175 -463.387,-100.8 -463.387,-98.6379 -466.501,-96.9952 -471.607,-95.8719"/>
<polygon fill="black" stroke="black" points="-471.501,-92.3541 -481.882,-94.4719 -472.446,-99.29 -471.501,-92.3541"/>
<text text-anchor="middle" x="-446.387" y="-97.1" font-family="Times New Roman,serif" font-size="14.00">2 &#160;(4) </text>
</g>
<!-- 0_2&#45;&gt;0_3 -->
<g id="edge64" class="edge"><title>0_2&#45;&gt;0_3</title>
<path fill="none" stroke="black" d="M-538.47,-52.7679C-537.392,-24.098 -537.282,12.5034 -538.142,42.7816"/>
<polygon fill="black" stroke="black" points="-534.644,42.9073 -538.471,52.7869 -541.641,42.6773 -534.644,42.9073"/>
<text text-anchor="middle" x="-555.306" y="-8.79313" font-family="Times New Roman,serif" font-size="14.00">1 &#160;(3) </text>
</g>
<!-- 0_3&#45;&gt;2_3 -->
<g id="edge74" class="edge"><title>0_3&#45;&gt;2_3</title>
<path fill="none" stroke="black" d="M-481.32,95.7375C-408.933,93.5831 -290.339,93.4916 -214.025,95.4628"/>
<polygon fill="black" stroke="black" points="-213.908,91.9646 -204.009,95.7408 -214.103,98.9619 -213.908,91.9646"/>
<text text-anchor="middle" x="-364.672" y="91.8002" font-family="Times New Roman,serif" font-size="14.00">2 &#160;(4) </text>
</g>
<!-- 0_3&#45;&gt;6_2 -->
<g id="edge80" class="edge"><title>0_3&#45;&gt;6_2</title>
<path fill="none" stroke="black" d="M-483.613,87.4612C-280.745,48.9014 373.204,-60.1698 592.685,-92.1606"/>
<polygon fill="black" stroke="black" points="592.406,-95.6566 602.804,-93.6251 593.409,-88.7288 592.406,-95.6566"/>
<text text-anchor="middle" x="37.5359" y="-6.1497" font-family="Times New Roman,serif" font-size="14.00">7 &#160;(7) </text>
</g>
<!-- 0_3&#45;&gt;6_4 -->
<g id="edge81" class="edge"><title>0_3&#45;&gt;6_4</title>
<path fill="none" stroke="black" d="M-481.728,107.992C-276.089,137.529 377.934,246.466 594.716,287.199"/>
<polygon fill="black" stroke="black" points="595.528,283.79 604.705,289.086 594.229,290.669 595.528,283.79"/>
<text text-anchor="middle" x="39.4937" y="193.795" font-family="Times New Roman,serif" font-size="14.00">7 &#160;(7) </text>
</g>
<!-- 0_3&#45;&gt;2_1 -->
<g id="edge77" class="edge"><title>0_3&#45;&gt;2_1</title>
<path fill="none" stroke="black" d="M-509.67,60.3098C-438.092,-16.0235 -273.908,-180.386 -190.957,-258.94"/>
<polygon fill="black" stroke="black" points="-192.865,-261.952 -183.189,-266.268 -188.061,-256.86 -192.865,-261.952"/>
<text text-anchor="middle" x="-367.314" y="-88.1151" font-family="Times New Roman,serif" font-size="14.00">4 &#160;(4) </text>
</g>
<!-- 0_3&#45;&gt;4_5 -->
<g id="edge79" class="edge"><title>0_3&#45;&gt;4_5</title>
<path fill="none" stroke="black" d="M-489.185,124.367C-343.302,192.66 51.8409,390.153 202.574,470.011"/>
<polygon fill="black" stroke="black" points="204.529,467.086 211.716,474.87 201.243,473.267 204.529,467.086"/>
<text text-anchor="middle" x="-160.306" y="293.389" font-family="Times New Roman,serif" font-size="14.00">6 &#160;(6) </text>
</g>
<!-- 0_3&#45;&gt;3_1 -->
<g id="edge78" class="edge"><title>0_3&#45;&gt;3_1</title>
<path fill="none" stroke="black" d="M-499.979,66.6624C-392.8,-9.36421 -119.742,-191.539 1.25334,-267.9"/>
<polygon fill="black" stroke="black" points="-0.281932,-271.069 10.0464,-273.43 3.44504,-265.143 -0.281932,-271.069"/>
<text text-anchor="middle" x="-232.363" y="-89.4186" font-family="Times New Roman,serif" font-size="14.00">5 &#160;(5) </text>
</g>
<!-- 0_3&#45;&gt;1_1 -->
<g id="edge76" class="edge"><title>0_3&#45;&gt;1_1</title>
<path fill="none" stroke="black" d="M-526.119,54.5218C-491.653,-21.0715 -417.08,-170.499 -374.321,-249.925"/>
<polygon fill="black" stroke="black" points="-377.361,-251.66 -369.523,-258.787 -371.206,-248.327 -377.361,-251.66"/>
<text text-anchor="middle" x="-433.22" y="-86.5014" font-family="Times New Roman,serif" font-size="14.00">3 &#160;(3) </text>
</g>
<!-- 0_3&#45;&gt;0_2 -->
<g id="edge73" class="edge"><title>0_3&#45;&gt;0_2</title>
<path fill="none" stroke="black" d="M-550.17,52.7679C-551.248,24.098 -551.358,-12.5034 -550.498,-42.7816"/>
<polygon fill="black" stroke="black" points="-553.996,-42.9073 -550.169,-52.7869 -546.999,-42.6773 -553.996,-42.9073"/>
<text text-anchor="middle" x="-567.334" y="16.1931" font-family="Times New Roman,serif" font-size="14.00">1 &#160;(3) </text>
</g>
<!-- 0_3&#45;&gt;0_3 -->
<g id="edge75" class="edge"><title>0_3&#45;&gt;0_3</title>
<path fill="none" stroke="black" d="M-481.882,94.4719C-470.975,95.3156 -463.387,97.425 -463.387,100.8 -463.387,102.962 -466.501,104.605 -471.607,105.728"/>
<polygon fill="black" stroke="black" points="-471.501,109.246 -481.882,107.128 -472.446,102.31 -471.501,109.246"/>
<text text-anchor="middle" x="-446.387" y="104.5" font-family="Times New Roman,serif" font-size="14.00">2 &#160;(4) </text>
</g>
<!-- 3_3 -->
<g id="node10" class="node"><title>3_3</title>
<ellipse fill="green" stroke="black" cx="60.48" cy="100.8" rx="62.8651" ry="48.1667"/>
<text text-anchor="middle" x="60.48" y="82" font-family="Times New Roman,serif" font-size="14.00">3,3</text>
<text text-anchor="middle" x="60.48" y="97" font-family="Times New Roman,serif" font-size="14.00">ic: 3</text>
<text text-anchor="middle" x="60.48" y="112" font-family="Times New Roman,serif" font-size="14.00">free: 3,2;4,2</text>
<text text-anchor="middle" x="60.48" y="127" font-family="Times New Roman,serif" font-size="14.00">swlolw: none</text>
</g>
<!-- 3_3&#45;&gt;2_3 -->
<g id="edge82" class="edge"><title>3_3&#45;&gt;2_3</title>
<path fill="none" stroke="black" d="M-2.47824,100.8C-23.2232,100.8 -46.4698,100.8 -67.9116,100.8"/>
<polygon fill="black" stroke="black" points="-67.946,104.3 -77.9461,100.8 -67.9461,97.2999 -67.946,104.3"/>
<text text-anchor="middle" x="-52.1949" y="97" font-family="Times New Roman,serif" font-size="14.00">1 &#160;(3) </text>
</g>
<!-- 3_3&#45;&gt;6_2 -->
<g id="edge88" class="edge"><title>3_3&#45;&gt;6_2</title>
<path fill="none" stroke="black" d="M118.197,81.5611C230.486,44.1312 477.807,-38.309 597.605,-78.2416"/>
<polygon fill="black" stroke="black" points="596.806,-81.6647 607.4,-81.5067 599.02,-75.0239 596.806,-81.6647"/>
<text text-anchor="middle" x="374.901" y="-2.14027" font-family="Times New Roman,serif" font-size="14.00">4 &#160;(4) </text>
</g>
<!-- 3_3&#45;&gt;6_4 -->
<g id="edge89" class="edge"><title>3_3&#45;&gt;6_4</title>
<path fill="none" stroke="black" d="M118.197,120.039C230.486,157.469 477.807,239.909 597.605,279.842"/>
<polygon fill="black" stroke="black" points="599.02,276.624 607.4,283.107 596.806,283.265 599.02,276.624"/>
<text text-anchor="middle" x="340.901" y="196.14" font-family="Times New Roman,serif" font-size="14.00">4 &#160;(4) </text>
</g>
<!-- 3_3&#45;&gt;2_1 -->
<g id="edge84" class="edge"><title>3_3&#45;&gt;2_1</title>
<path fill="none" stroke="black" d="M37.9407,55.7215C0.592858,-18.9743 -73.9755,-168.111 -114.091,-248.343"/>
<polygon fill="black" stroke="black" points="-117.23,-246.794 -118.572,-257.304 -110.969,-249.925 -117.23,-246.794"/>
<text text-anchor="middle" x="-55.0753" y="-85.1105" font-family="Times New Roman,serif" font-size="14.00">3 &#160;(3) </text>
</g>
<!-- 3_3&#45;&gt;4_5 -->
<g id="edge85" class="edge"><title>3_3&#45;&gt;4_5</title>
<path fill="none" stroke="black" d="M83.0193,145.879C120.367,220.574 194.935,369.711 235.051,449.943"/>
<polygon fill="black" stroke="black" points="238.19,448.394 239.532,458.904 231.929,451.525 238.19,448.394"/>
<text text-anchor="middle" x="142.035" y="294.111" font-family="Times New Roman,serif" font-size="14.00">3 &#160;(3) </text>
</g>
<!-- 3_3&#45;&gt;3_1 -->
<g id="edge83" class="edge"><title>3_3&#45;&gt;3_1</title>
<path fill="none" stroke="black" d="M60.48,52.5651C60.48,-21.652 60.48,-163.639 60.48,-243.711"/>
<polygon fill="black" stroke="black" points="56.9801,-244.11 60.48,-254.11 63.9801,-244.11 56.9801,-244.11"/>
<text text-anchor="middle" x="43.48" y="-84.3727" font-family="Times New Roman,serif" font-size="14.00">2 &#160;(4) </text>
</g>
<!-- 3_3&#45;&gt;1_1 -->
<g id="edge86" class="edge"><title>3_3&#45;&gt;1_1</title>
<path fill="none" stroke="black" d="M22.1844,62.5044C-52.3691,-12.049 -216.7,-176.38 -296.893,-256.573"/>
<polygon fill="black" stroke="black" points="-299.789,-254.52 -304.386,-264.066 -294.84,-259.469 -299.789,-254.52"/>
<text text-anchor="middle" x="-120.355" y="-85.8345" font-family="Times New Roman,serif" font-size="14.00">4 &#160;(4) </text>
</g>
<!-- 3_3&#45;&gt;0_2 -->
<g id="edge87" class="edge"><title>3_3&#45;&gt;0_2</title>
<path fill="none" stroke="black" d="M2.7632,81.5611C-109.526,44.1312 -356.847,-38.309 -476.645,-78.2416"/>
<polygon fill="black" stroke="black" points="-478.06,-75.0239 -486.44,-81.5067 -475.846,-81.6647 -478.06,-75.0239"/>
<text text-anchor="middle" x="-253.941" y="-2.14027" font-family="Times New Roman,serif" font-size="14.00">4 &#160;(4) </text>
</g>
<!-- 3_3&#45;&gt;0_3 -->
<g id="edge90" class="edge"><title>3_3&#45;&gt;0_3</title>
<path fill="none" stroke="black" d="M-2.53264,100.8C-115.274,100.8 -350.896,100.8 -470.811,100.8"/>
<polygon fill="black" stroke="black" points="-470.995,104.3 -480.995,100.8 -470.995,97.2999 -470.995,104.3"/>
<text text-anchor="middle" x="-253.672" y="97" font-family="Times New Roman,serif" font-size="14.00">5 &#160;(5) </text>
</g>
</g>
</svg>
