<?xml version="1.0" encoding="UTF-8" standalone="no"?>
<!DOCTYPE svg PUBLIC "-//W3C//DTD SVG 1.1//EN"
 "http://www.w3.org/Graphics/SVG/1.1/DTD/svg11.dtd">
<!-- Generated by graphviz version 2.38.0 (20140413.2041)
 -->
<!-- Title: example5.txt Pages: 1 -->
<svg width="1214pt" height="1124pt"
 viewBox="0.00 0.00 1214.00 1124.00" xmlns="http://www.w3.org/2000/svg" xmlns:xlink="http://www.w3.org/1999/xlink">
<g id="graph0" class="graph" transform="scale(1 1) rotate(0) translate(684.349 388.583)">
<title>example5.txt</title>
<polygon fill="white" stroke="none" points="-684.349,735.417 -684.349,-388.583 529.651,-388.583 529.651,735.417 -684.349,735.417"/>
<g id="clust1" class="cluster"><title>cluster4_5</title>
<polygon fill="none" stroke="black" points="126.051,731.417 126.051,623.417 324.051,623.417 324.051,731.417 126.051,731.417"/>
<text text-anchor="middle" x="225.051" y="638.617" font-family="Times New Roman,serif" font-size="14.00">4,5</text>
</g>
<g id="clust2" class="cluster"><title>cluster4_1</title>
<polygon fill="none" stroke="black" points="126.051,-74.9829 126.051,-182.983 252.051,-182.983 252.051,-74.9829 126.051,-74.9829"/>
<text text-anchor="middle" x="189.051" y="-167.783" font-family="Times New Roman,serif" font-size="14.00">4,1</text>
</g>
<g id="clust3" class="cluster"><title>cluster2_2</title>
<polygon fill="none" stroke="black" points="-277.149,126.617 -277.149,18.6171 -151.149,18.6171 -151.149,126.617 -277.149,126.617"/>
<text text-anchor="middle" x="-214.149" y="33.8171" font-family="Times New Roman,serif" font-size="14.00">2,2</text>
</g>
<g id="clust4" class="cluster"><title>cluster2_1</title>
<polygon fill="none" stroke="black" points="-277.149,-74.9829 -277.149,-182.983 -151.149,-182.983 -151.149,-74.9829 -277.149,-74.9829"/>
<text text-anchor="middle" x="-214.149" y="-167.783" font-family="Times New Roman,serif" font-size="14.00">2,1</text>
</g>
<g id="clust5" class="cluster"><title>cluster1_0</title>
<polygon fill="none" stroke="black" points="-478.749,-276.583 -478.749,-384.583 -352.749,-384.583 -352.749,-276.583 -478.749,-276.583"/>
<text text-anchor="middle" x="-415.749" y="-369.383" font-family="Times New Roman,serif" font-size="14.00">1,0</text>
</g>
<g id="clust6" class="cluster"><title>cluster2_0</title>
<polygon fill="none" stroke="black" points="-277.149,-276.583 -277.149,-384.583 -151.149,-384.583 -151.149,-276.583 -277.149,-276.583"/>
<text text-anchor="middle" x="-214.149" y="-369.383" font-family="Times New Roman,serif" font-size="14.00">2,0</text>
</g>
<g id="clust7" class="cluster"><title>cluster3_0</title>
<polygon fill="none" stroke="black" points="-75.5486,-276.583 -75.5486,-384.583 50.4514,-384.583 50.4514,-276.583 -75.5486,-276.583"/>
<text text-anchor="middle" x="-12.5486" y="-369.383" font-family="Times New Roman,serif" font-size="14.00">3,0</text>
</g>
<g id="clust10" class="cluster"><title>cluster0_3</title>
<polygon fill="none" stroke="black" points="-680.349,256.217 -680.349,220.217 -554.349,220.217 -554.349,256.217 -680.349,256.217"/>
<text text-anchor="middle" x="-617.349" y="235.417" font-family="Times New Roman,serif" font-size="14.00">0,3</text>
</g>
<g id="clust8" class="cluster"><title>cluster4_0</title>
<polygon fill="none" stroke="black" points="126.051,-276.583 126.051,-384.583 252.051,-384.583 252.051,-276.583 126.051,-276.583"/>
<text text-anchor="middle" x="189.051" y="-369.383" font-family="Times New Roman,serif" font-size="14.00">4,0</text>
</g>
<g id="clust9" class="cluster"><title>cluster5_3</title>
<polygon fill="none" stroke="black" points="327.651,328.217 327.651,220.217 525.651,220.217 525.651,328.217 327.651,328.217"/>
<text text-anchor="middle" x="426.651" y="235.417" font-family="Times New Roman,serif" font-size="14.00">5,3</text>
</g>
<!-- battery4_5_0 -->
<g id="node1" class="node"><title>battery4_5_0</title>
<ellipse fill="none" stroke="black" cx="153.051" cy="641.417" rx="27" ry="18"/>
<text text-anchor="middle" x="153.051" y="645.117" font-family="Times New Roman,serif" font-size="14.00">0,&#45;1</text>
</g>
<!-- battery4_5_1 -->
<g id="node2" class="node"><title>battery4_5_1</title>
<ellipse fill="none" stroke="black" cx="225.051" cy="641.417" rx="27" ry="18"/>
<text text-anchor="middle" x="225.051" y="645.117" font-family="Times New Roman,serif" font-size="14.00">1,22</text>
</g>
<!-- battery4_5_2 -->
<g id="node3" class="node"><title>battery4_5_2</title>
<ellipse fill="none" stroke="black" cx="297.051" cy="641.417" rx="27" ry="18"/>
<text text-anchor="middle" x="297.051" y="645.117" font-family="Times New Roman,serif" font-size="14.00">2,2</text>
</g>
<!-- battery4_5_2&#45;&gt;battery4_5_0 -->
<g id="edge13" class="edge"><title>battery4_5_2&#45;&gt;battery4_5_0</title>
<path fill="none" stroke="#000000" stroke-opacity="0.333333" d="M269.966,641.417C247.582,641.417 215.554,641.417 190.679,641.417"/>
<polygon fill="none" stroke="#000000" stroke-opacity="0.333333" points="190.505,644.917 180.505,641.417 190.505,637.917 190.505,644.917"/>
</g>
<!-- battery4_5_4 -->
<g id="node4" class="node"><title>battery4_5_4</title>
<ellipse fill="none" stroke="black" cx="153.051" cy="713.417" rx="27" ry="18"/>
<text text-anchor="middle" x="153.051" y="717.117" font-family="Times New Roman,serif" font-size="14.00">4,1</text>
</g>
<!-- battery4_5_4&#45;&gt;battery4_5_0 -->
<g id="edge12" class="edge"><title>battery4_5_4&#45;&gt;battery4_5_0</title>
<path fill="none" stroke="#000000" stroke-opacity="0.333333" d="M153.051,695.248C153.051,687.548 153.051,678.391 153.051,669.834"/>
<polygon fill="none" stroke="#000000" stroke-opacity="0.333333" points="149.552,669.83 153.051,659.83 156.552,669.83 149.552,669.83"/>
</g>
<!-- battery4_5_4&#45;&gt;battery4_5_2 -->
<g id="edge11" class="edge"><title>battery4_5_4&#45;&gt;battery4_5_2</title>
<path fill="none" stroke="#000000" stroke-opacity="0.333333" d="M174.922,702.482C199.274,690.306 238.813,670.536 266.28,656.803"/>
<polygon fill="none" stroke="#000000" stroke-opacity="0.333333" points="264.937,653.561 275.447,652.219 268.068,659.822 264.937,653.561"/>
</g>
<!-- battery4_1_0 -->
<g id="node6" class="node"><title>battery4_1_0</title>
<ellipse fill="none" stroke="black" cx="153.051" cy="-164.983" rx="27" ry="18"/>
<text text-anchor="middle" x="153.051" y="-161.283" font-family="Times New Roman,serif" font-size="14.00">0,&#45;1</text>
</g>
<!-- battery4_5_4&#45;&gt;battery4_1_0 -->
<g id="edge9" class="edge"><title>battery4_5_4&#45;&gt;battery4_1_0</title>
<path fill="none" stroke="#000000" stroke-opacity="0.333333" d="M153.051,695.07C153.051,583.769 153.051,-0.712068 153.051,-136.695"/>
<polygon fill="none" stroke="#000000" stroke-opacity="0.333333" points="149.552,-136.737 153.051,-146.737 156.552,-136.737 149.552,-136.737"/>
</g>
<!-- battery5_3_1 -->
<g id="node30" class="node"><title>battery5_3_1</title>
<ellipse fill="none" stroke="black" cx="426.651" cy="238.217" rx="27" ry="18"/>
<text text-anchor="middle" x="426.651" y="241.917" font-family="Times New Roman,serif" font-size="14.00">1,3</text>
</g>
<!-- battery4_5_4&#45;&gt;battery5_3_1 -->
<g id="edge10" class="edge"><title>battery4_5_4&#45;&gt;battery5_3_1</title>
<path fill="none" stroke="#000000" stroke-opacity="0.333333" d="M162.789,696.505C203.711,625.429 361.928,350.632 411.625,264.316"/>
<polygon fill="none" stroke="#000000" stroke-opacity="0.333333" points="408.722,262.344 416.745,255.424 414.788,265.836 408.722,262.344"/>
</g>
<!-- battery4_5_6 -->
<g id="node5" class="node"><title>battery4_5_6</title>
<ellipse fill="yellow" stroke="black" cx="225.051" cy="713.417" rx="27" ry="18"/>
<text text-anchor="middle" x="225.051" y="717.117" font-family="Times New Roman,serif" font-size="14.00">6,0</text>
</g>
<!-- battery4_5_6&#45;&gt;battery4_5_0 -->
<g id="edge8" class="edge"><title>battery4_5_6&#45;&gt;battery4_5_0</title>
<path fill="none" stroke="#000000" stroke-opacity="0.333333" d="M209.782,698.148C199.854,688.22 186.736,675.102 175.615,663.981"/>
<polygon fill="none" stroke="#000000" stroke-opacity="0.333333" points="172.895,666.21 168.299,656.664 177.845,661.261 172.895,666.21"/>
</g>
<!-- battery4_5_6&#45;&gt;battery4_5_4 -->
<g id="edge7" class="edge"><title>battery4_5_6&#45;&gt;battery4_5_4</title>
<path fill="none" stroke="#000000" stroke-opacity="0.333333" d="M197.831,713.417C195.412,713.417 192.937,713.417 190.452,713.417"/>
<polygon fill="none" stroke="#000000" stroke-opacity="0.333333" points="190.31,716.917 180.31,713.417 190.31,709.917 190.31,716.917"/>
</g>
<!-- battery4_5_6&#45;&gt;battery4_1_0 -->
<g id="edge6" class="edge"><title>battery4_5_6&#45;&gt;battery4_1_0</title>
<path fill="none" stroke="#000000" stroke-opacity="0.333333" d="M223.548,695.07C214.425,583.769 166.516,-0.712068 155.37,-136.695"/>
<polygon fill="none" stroke="#000000" stroke-opacity="0.333333" points="151.876,-136.485 154.547,-146.737 158.852,-137.057 151.876,-136.485"/>
</g>
<!-- battery4_1_2 -->
<g id="node8" class="node"><title>battery4_1_2</title>
<ellipse fill="none" stroke="black" cx="153.051" cy="-92.9829" rx="27" ry="18"/>
<text text-anchor="middle" x="153.051" y="-89.2829" font-family="Times New Roman,serif" font-size="14.00">2,5</text>
</g>
<!-- battery4_5_6&#45;&gt;battery4_1_2 -->
<g id="edge2" class="edge"><title>battery4_5_6&#45;&gt;battery4_1_2</title>
<path fill="none" stroke="#000000" stroke-opacity="0.333333" d="M223.447,695.444C214.132,591.121 167.034,63.6261 155.57,-64.7763"/>
<polygon fill="none" stroke="#000000" stroke-opacity="0.333333" points="152.063,-64.6944 154.66,-74.9661 159.036,-65.317 152.063,-64.6944"/>
</g>
<!-- battery2_2_1 -->
<g id="node11" class="node"><title>battery2_2_1</title>
<ellipse fill="none" stroke="black" cx="-178.149" cy="36.6171" rx="27" ry="18"/>
<text text-anchor="middle" x="-178.149" y="40.3171" font-family="Times New Roman,serif" font-size="14.00">1,7</text>
</g>
<!-- battery4_5_6&#45;&gt;battery2_2_1 -->
<g id="edge3" class="edge"><title>battery4_5_6&#45;&gt;battery2_2_1</title>
<path fill="none" stroke="#000000" stroke-opacity="0.333333" d="M215.085,696.687C160.999,605.9 -97.2475,172.415 -162.927,62.1677"/>
<polygon fill="none" stroke="#000000" stroke-opacity="0.333333" points="-166.058,63.7506 -168.169,53.3682 -160.044,60.1679 -166.058,63.7506"/>
</g>
<!-- battery2_1_0 -->
<g id="node13" class="node"><title>battery2_1_0</title>
<ellipse fill="none" stroke="black" cx="-250.149" cy="-164.983" rx="27" ry="18"/>
<text text-anchor="middle" x="-250.149" y="-161.283" font-family="Times New Roman,serif" font-size="14.00">0,&#45;1</text>
</g>
<!-- battery4_5_6&#45;&gt;battery2_1_0 -->
<g id="edge5" class="edge"><title>battery4_5_6&#45;&gt;battery2_1_0</title>
<path fill="none" stroke="#000000" stroke-opacity="0.333333" d="M215.772,696.265C156.932,587.5 -164.086,-5.89663 -235.895,-138.635"/>
<polygon fill="none" stroke="#000000" stroke-opacity="0.333333" points="-239.13,-137.26 -240.81,-147.72 -232.973,-140.59 -239.13,-137.26"/>
</g>
<!-- battery3_0_0 -->
<g id="node22" class="node"><title>battery3_0_0</title>
<ellipse fill="none" stroke="black" cx="-48.5486" cy="-366.583" rx="27" ry="18"/>
<text text-anchor="middle" x="-48.5486" y="-362.883" font-family="Times New Roman,serif" font-size="14.00">0,&#45;1</text>
</g>
<!-- battery4_5_6&#45;&gt;battery3_0_0 -->
<g id="edge4" class="edge"><title>battery4_5_6&#45;&gt;battery3_0_0</title>
<path fill="none" stroke="#000000" stroke-opacity="0.333333" d="M220.531,695.573C188.643,569.7 -2.28865,-183.978 -41.5091,-338.795"/>
<polygon fill="none" stroke="#000000" stroke-opacity="0.333333" points="-44.9055,-337.951 -43.9686,-348.504 -38.1199,-339.67 -44.9055,-337.951"/>
</g>
<!-- battery5_3_3 -->
<g id="node32" class="node"><title>battery5_3_3</title>
<ellipse fill="none" stroke="black" cx="354.651" cy="310.217" rx="27" ry="18"/>
<text text-anchor="middle" x="354.651" y="313.917" font-family="Times New Roman,serif" font-size="14.00">3,4</text>
</g>
<!-- battery4_5_6&#45;&gt;battery5_3_3 -->
<g id="edge1" class="edge"><title>battery4_5_6&#45;&gt;battery5_3_3</title>
<path fill="none" stroke="#000000" stroke-opacity="0.333333" d="M230.787,695.572C251.28,631.817 320.972,414.998 345.788,337.793"/>
<polygon fill="none" stroke="#000000" stroke-opacity="0.333333" points="342.589,336.306 348.982,327.856 349.254,338.448 342.589,336.306"/>
</g>
<!-- battery4_1_1 -->
<g id="node7" class="node"><title>battery4_1_1</title>
<ellipse fill="none" stroke="black" cx="225.051" cy="-164.983" rx="27" ry="18"/>
<text text-anchor="middle" x="225.051" y="-161.283" font-family="Times New Roman,serif" font-size="14.00">1,11</text>
</g>
<!-- battery4_0_0 -->
<g id="node25" class="node"><title>battery4_0_0</title>
<ellipse fill="none" stroke="black" cx="153.051" cy="-366.583" rx="27" ry="18"/>
<text text-anchor="middle" x="153.051" y="-362.883" font-family="Times New Roman,serif" font-size="14.00">0,&#45;1</text>
</g>
<!-- battery4_1_1&#45;&gt;battery4_0_0 -->
<g id="edge25" class="edge"><title>battery4_1_1&#45;&gt;battery4_0_0</title>
<path fill="none" stroke="#000000" stroke-opacity="0.333333" d="M218.788,-182.521C206.208,-217.744 177.795,-297.301 162.777,-339.351"/>
<polygon fill="none" stroke="#000000" stroke-opacity="0.333333" points="159.419,-338.347 159.352,-348.942 166.011,-340.702 159.419,-338.347"/>
</g>
<!-- battery4_1_2&#45;&gt;battery4_1_0 -->
<g id="edge17" class="edge"><title>battery4_1_2&#45;&gt;battery4_1_0</title>
<path fill="none" stroke="#000000" stroke-opacity="0.333333" d="M153.051,-111.151C153.051,-118.852 153.051,-128.009 153.051,-136.566"/>
<polygon fill="none" stroke="#000000" stroke-opacity="0.333333" points="149.552,-136.57 153.051,-146.57 156.552,-136.57 149.552,-136.57"/>
</g>
<!-- battery4_1_2&#45;&gt;battery2_1_0 -->
<g id="edge16" class="edge"><title>battery4_1_2&#45;&gt;battery2_1_0</title>
<path fill="none" stroke="#000000" stroke-opacity="0.333333" d="M126.907,-97.6515C57.0979,-110.117 -133.805,-144.207 -213.958,-158.52"/>
<polygon fill="none" stroke="#000000" stroke-opacity="0.333333" points="-214.834,-155.121 -224.063,-160.325 -213.604,-162.012 -214.834,-155.121"/>
</g>
<!-- battery4_1_2&#45;&gt;battery3_0_0 -->
<g id="edge15" class="edge"><title>battery4_1_2&#45;&gt;battery3_0_0</title>
<path fill="none" stroke="#000000" stroke-opacity="0.333333" d="M141.044,-109.278C107.009,-155.47 9.75652,-287.455 -30.6292,-342.264"/>
<polygon fill="none" stroke="#000000" stroke-opacity="0.333333" points="-33.4899,-340.246 -36.6042,-350.373 -27.8545,-344.398 -33.4899,-340.246"/>
</g>
<!-- battery4_0_1 -->
<g id="node26" class="node"><title>battery4_0_1</title>
<ellipse fill="none" stroke="black" cx="225.051" cy="-366.583" rx="27" ry="18"/>
<text text-anchor="middle" x="225.051" y="-362.883" font-family="Times New Roman,serif" font-size="14.00">1,6</text>
</g>
<!-- battery4_1_2&#45;&gt;battery4_0_1 -->
<g id="edge14" class="edge"><title>battery4_1_2&#45;&gt;battery4_0_1</title>
<path fill="none" stroke="#000000" stroke-opacity="0.333333" d="M157.776,-110.935C170.032,-157.508 202.918,-282.478 217.69,-338.609"/>
<polygon fill="none" stroke="#000000" stroke-opacity="0.333333" points="214.38,-339.785 220.31,-348.565 221.15,-338.004 214.38,-339.785"/>
</g>
<!-- battery4_1_3 -->
<g id="node9" class="node"><title>battery4_1_3</title>
<ellipse fill="yellow" stroke="black" cx="225.051" cy="-92.9829" rx="27" ry="18"/>
<text text-anchor="middle" x="225.051" y="-89.2829" font-family="Times New Roman,serif" font-size="14.00">3,8</text>
</g>
<!-- battery4_1_3&#45;&gt;battery4_1_1 -->
<g id="edge24" class="edge"><title>battery4_1_3&#45;&gt;battery4_1_1</title>
<path fill="none" stroke="#000000" stroke-opacity="0.333333" d="M225.051,-111.151C225.051,-118.852 225.051,-128.009 225.051,-136.566"/>
<polygon fill="none" stroke="#000000" stroke-opacity="0.333333" points="221.552,-136.57 225.051,-146.57 228.552,-136.57 221.552,-136.57"/>
</g>
<!-- battery2_2_0 -->
<g id="node10" class="node"><title>battery2_2_0</title>
<ellipse fill="none" stroke="black" cx="-250.149" cy="36.6171" rx="27" ry="18"/>
<text text-anchor="middle" x="-250.149" y="40.3171" font-family="Times New Roman,serif" font-size="14.00">0,&#45;1</text>
</g>
<!-- battery4_1_3&#45;&gt;battery2_2_0 -->
<g id="edge22" class="edge"><title>battery4_1_3&#45;&gt;battery2_2_0</title>
<path fill="none" stroke="#000000" stroke-opacity="0.333333" d="M199.838,-86.1065C120.577,-64.4899 -123.695,2.12973 -215.124,27.0651"/>
<polygon fill="none" stroke="#000000" stroke-opacity="0.333333" points="-214.427,30.5028 -224.996,29.7574 -216.269,23.7494 -214.427,30.5028"/>
</g>
<!-- battery2_1_1 -->
<g id="node14" class="node"><title>battery2_1_1</title>
<ellipse fill="none" stroke="black" cx="-178.149" cy="-164.983" rx="27" ry="18"/>
<text text-anchor="middle" x="-178.149" y="-161.283" font-family="Times New Roman,serif" font-size="14.00">1,12</text>
</g>
<!-- battery4_1_3&#45;&gt;battery2_1_1 -->
<g id="edge20" class="edge"><title>battery4_1_3&#45;&gt;battery2_1_1</title>
<path fill="none" stroke="#000000" stroke-opacity="0.333333" d="M198.907,-97.6515C129.098,-110.117 -61.8053,-144.207 -141.958,-158.52"/>
<polygon fill="none" stroke="#000000" stroke-opacity="0.333333" points="-142.834,-155.121 -152.063,-160.325 -141.604,-162.012 -142.834,-155.121"/>
</g>
<!-- battery3_0_1 -->
<g id="node23" class="node"><title>battery3_0_1</title>
<ellipse fill="yellow" stroke="black" cx="23.4514" cy="-366.583" rx="27" ry="18"/>
<text text-anchor="middle" x="23.4514" y="-362.883" font-family="Times New Roman,serif" font-size="14.00">1,10</text>
</g>
<!-- battery4_1_3&#45;&gt;battery3_0_1 -->
<g id="edge19" class="edge"><title>battery4_1_3&#45;&gt;battery3_0_1</title>
<path fill="none" stroke="#000000" stroke-opacity="0.333333" d="M213.044,-109.278C179.009,-155.47 81.7565,-287.455 41.3708,-342.264"/>
<polygon fill="none" stroke="#000000" stroke-opacity="0.333333" points="38.5101,-340.246 35.3958,-350.373 44.1455,-344.398 38.5101,-340.246"/>
</g>
<!-- battery4_1_3&#45;&gt;battery4_0_0 -->
<g id="edge23" class="edge"><title>battery4_1_3&#45;&gt;battery4_0_0</title>
<path fill="none" stroke="#000000" stroke-opacity="0.333333" d="M220.327,-110.935C208.071,-157.508 175.184,-282.478 160.413,-338.609"/>
<polygon fill="none" stroke="#000000" stroke-opacity="0.333333" points="156.953,-338.004 157.793,-348.565 163.723,-339.785 156.953,-338.004"/>
</g>
<!-- battery4_0_2 -->
<g id="node27" class="node"><title>battery4_0_2</title>
<ellipse fill="none" stroke="black" cx="153.051" cy="-294.583" rx="27" ry="18"/>
<text text-anchor="middle" x="153.051" y="-290.883" font-family="Times New Roman,serif" font-size="14.00">2,9</text>
</g>
<!-- battery4_1_3&#45;&gt;battery4_0_2 -->
<g id="edge18" class="edge"><title>battery4_1_3&#45;&gt;battery4_0_2</title>
<path fill="none" stroke="#000000" stroke-opacity="0.333333" d="M218.788,-110.521C206.208,-145.744 177.795,-225.301 162.777,-267.351"/>
<polygon fill="none" stroke="#000000" stroke-opacity="0.333333" points="159.419,-266.347 159.352,-276.942 166.011,-268.702 159.419,-266.347"/>
</g>
<!-- battery5_3_0 -->
<g id="node29" class="node"><title>battery5_3_0</title>
<ellipse fill="none" stroke="black" cx="354.651" cy="238.217" rx="27" ry="18"/>
<text text-anchor="middle" x="354.651" y="241.917" font-family="Times New Roman,serif" font-size="14.00">0,&#45;1</text>
</g>
<!-- battery4_1_3&#45;&gt;battery5_3_0 -->
<g id="edge21" class="edge"><title>battery4_1_3&#45;&gt;battery5_3_0</title>
<path fill="none" stroke="#000000" stroke-opacity="0.333333" d="M232.019,-75.1761C253.429,-20.4617 318.356,145.462 344.035,211.086"/>
<polygon fill="none" stroke="#000000" stroke-opacity="0.333333" points="347.422,210.136 347.806,220.724 340.903,212.687 347.422,210.136"/>
</g>
<!-- battery2_2_1&#45;&gt;battery2_1_0 -->
<g id="edge26" class="edge"><title>battery2_2_1&#45;&gt;battery2_1_0</title>
<path fill="none" stroke="#000000" stroke-opacity="0.333333" d="M-184.412,19.0791C-196.992,-16.1438 -225.405,-95.7006 -240.423,-137.751"/>
<polygon fill="none" stroke="#000000" stroke-opacity="0.333333" points="-243.781,-136.747 -243.848,-147.342 -237.189,-139.102 -243.781,-136.747"/>
</g>
<!-- battery2_2_3 -->
<g id="node12" class="node"><title>battery2_2_3</title>
<ellipse fill="yellow" stroke="black" cx="-250.149" cy="108.617" rx="27" ry="18"/>
<text text-anchor="middle" x="-250.149" y="112.317" font-family="Times New Roman,serif" font-size="14.00">3,13</text>
</g>
<!-- battery2_2_3&#45;&gt;battery4_1_0 -->
<g id="edge30" class="edge"><title>battery2_2_3&#45;&gt;battery4_1_0</title>
<path fill="none" stroke="#000000" stroke-opacity="0.333333" d="M-230.973,95.6049C-165.704,51.3156 48.0296,-93.718 125.061,-145.989"/>
<polygon fill="none" stroke="#000000" stroke-opacity="0.333333" points="123.518,-149.172 133.758,-151.891 127.449,-143.38 123.518,-149.172"/>
</g>
<!-- battery2_2_3&#45;&gt;battery2_2_1 -->
<g id="edge32" class="edge"><title>battery2_2_3&#45;&gt;battery2_2_1</title>
<path fill="none" stroke="#000000" stroke-opacity="0.333333" d="M-234.879,93.3478C-224.952,83.4201 -211.833,70.3018 -200.712,59.1808"/>
<polygon fill="none" stroke="#000000" stroke-opacity="0.333333" points="-202.942,56.4607 -193.396,51.8645 -197.992,61.4105 -202.942,56.4607"/>
</g>
<!-- battery2_2_3&#45;&gt;battery2_1_0 -->
<g id="edge31" class="edge"><title>battery2_2_3&#45;&gt;battery2_1_0</title>
<path fill="none" stroke="#000000" stroke-opacity="0.333333" d="M-250.149,90.2406C-250.149,43.5134 -250.149,-80.1124 -250.149,-136.375"/>
<polygon fill="none" stroke="#000000" stroke-opacity="0.333333" points="-253.648,-136.686 -250.149,-146.686 -246.648,-136.686 -253.648,-136.686"/>
</g>
<!-- battery2_1_2 -->
<g id="node15" class="node"><title>battery2_1_2</title>
<ellipse fill="yellow" stroke="black" cx="-250.149" cy="-92.9829" rx="27" ry="18"/>
<text text-anchor="middle" x="-250.149" y="-89.2829" font-family="Times New Roman,serif" font-size="14.00">2,14</text>
</g>
<!-- battery2_2_3&#45;&gt;battery2_1_2 -->
<g id="edge27" class="edge"><title>battery2_2_3&#45;&gt;battery2_1_2</title>
<path fill="none" stroke="#000000" stroke-opacity="0.333333" d="M-250.149,90.3709C-250.149,55.0622 -250.149,-22.8222 -250.149,-64.8224"/>
<polygon fill="none" stroke="#000000" stroke-opacity="0.333333" points="-253.648,-64.9231 -250.149,-74.9231 -246.648,-64.9232 -253.648,-64.9231"/>
</g>
<!-- battery1_0_0 -->
<g id="node16" class="node"><title>battery1_0_0</title>
<ellipse fill="none" stroke="black" cx="-451.749" cy="-366.583" rx="27" ry="18"/>
<text text-anchor="middle" x="-451.749" y="-362.883" font-family="Times New Roman,serif" font-size="14.00">0,&#45;1</text>
</g>
<!-- battery2_2_3&#45;&gt;battery1_0_0 -->
<g id="edge28" class="edge"><title>battery2_2_3&#45;&gt;battery1_0_0</title>
<path fill="none" stroke="#000000" stroke-opacity="0.333333" d="M-257.563,91.1409C-288.005,19.3848 -403.522,-252.905 -440.376,-339.776"/>
<polygon fill="none" stroke="#000000" stroke-opacity="0.333333" points="-443.69,-338.626 -444.374,-349.199 -437.246,-341.36 -443.69,-338.626"/>
</g>
<!-- battery2_2_3&#45;&gt;battery3_0_0 -->
<g id="edge29" class="edge"><title>battery2_2_3&#45;&gt;battery3_0_0</title>
<path fill="none" stroke="#000000" stroke-opacity="0.333333" d="M-242.734,91.1409C-212.292,19.3848 -96.7756,-252.905 -59.921,-339.776"/>
<polygon fill="none" stroke="#000000" stroke-opacity="0.333333" points="-63.0511,-341.36 -55.9235,-349.199 -56.607,-338.626 -63.0511,-341.36"/>
</g>
<!-- battery2_1_1&#45;&gt;battery2_2_0 -->
<g id="edge34" class="edge"><title>battery2_1_1&#45;&gt;battery2_2_0</title>
<path fill="none" stroke="#000000" stroke-opacity="0.333333" d="M-184.412,-147.445C-196.992,-112.222 -225.405,-32.6651 -240.423,9.38543"/>
<polygon fill="none" stroke="#000000" stroke-opacity="0.333333" points="-237.189,10.7359 -243.848,18.9761 -243.781,8.3815 -237.189,10.7359"/>
</g>
<!-- battery2_0_0 -->
<g id="node19" class="node"><title>battery2_0_0</title>
<ellipse fill="none" stroke="black" cx="-250.149" cy="-366.583" rx="27" ry="18"/>
<text text-anchor="middle" x="-250.149" y="-362.883" font-family="Times New Roman,serif" font-size="14.00">0,&#45;1</text>
</g>
<!-- battery2_1_1&#45;&gt;battery2_0_0 -->
<g id="edge33" class="edge"><title>battery2_1_1&#45;&gt;battery2_0_0</title>
<path fill="none" stroke="#000000" stroke-opacity="0.333333" d="M-184.412,-182.521C-196.992,-217.744 -225.405,-297.301 -240.423,-339.351"/>
<polygon fill="none" stroke="#000000" stroke-opacity="0.333333" points="-243.781,-338.347 -243.848,-348.942 -237.189,-340.702 -243.781,-338.347"/>
</g>
<!-- battery2_1_2&#45;&gt;battery4_1_0 -->
<g id="edge39" class="edge"><title>battery2_1_2&#45;&gt;battery4_1_0</title>
<path fill="none" stroke="#000000" stroke-opacity="0.333333" d="M-224.004,-97.6515C-154.195,-110.117 36.7081,-144.207 116.861,-158.52"/>
<polygon fill="none" stroke="#000000" stroke-opacity="0.333333" points="116.507,-162.012 126.966,-160.325 117.737,-155.121 116.507,-162.012"/>
</g>
<!-- battery2_1_2&#45;&gt;battery2_2_1 -->
<g id="edge36" class="edge"><title>battery2_1_2&#45;&gt;battery2_2_1</title>
<path fill="none" stroke="#000000" stroke-opacity="0.333333" d="M-240.736,-76.0399C-228.446,-53.9188 -206.817,-14.986 -192.483,10.8143"/>
<polygon fill="none" stroke="#000000" stroke-opacity="0.333333" points="-189.361,9.2287 -187.564,19.67 -195.48,12.6282 -189.361,9.2287"/>
</g>
<!-- battery2_1_2&#45;&gt;battery2_1_0 -->
<g id="edge40" class="edge"><title>battery2_1_2&#45;&gt;battery2_1_0</title>
<path fill="none" stroke="#000000" stroke-opacity="0.333333" d="M-250.149,-111.151C-250.149,-118.852 -250.149,-128.009 -250.149,-136.566"/>
<polygon fill="none" stroke="#000000" stroke-opacity="0.333333" points="-253.648,-136.57 -250.149,-146.57 -246.648,-136.57 -253.648,-136.57"/>
</g>
<!-- battery2_1_2&#45;&gt;battery1_0_0 -->
<g id="edge37" class="edge"><title>battery2_1_2&#45;&gt;battery1_0_0</title>
<path fill="none" stroke="#000000" stroke-opacity="0.333333" d="M-262.156,-109.278C-296.191,-155.47 -393.443,-287.455 -433.829,-342.264"/>
<polygon fill="none" stroke="#000000" stroke-opacity="0.333333" points="-436.69,-340.246 -439.804,-350.373 -431.055,-344.398 -436.69,-340.246"/>
</g>
<!-- battery2_0_1 -->
<g id="node20" class="node"><title>battery2_0_1</title>
<ellipse fill="yellow" stroke="black" cx="-178.149" cy="-366.583" rx="27" ry="18"/>
<text text-anchor="middle" x="-178.149" y="-362.883" font-family="Times New Roman,serif" font-size="14.00">1,15</text>
</g>
<!-- battery2_1_2&#45;&gt;battery2_0_1 -->
<g id="edge35" class="edge"><title>battery2_1_2&#45;&gt;battery2_0_1</title>
<path fill="none" stroke="#000000" stroke-opacity="0.333333" d="M-245.424,-110.935C-233.168,-157.508 -200.282,-282.478 -185.51,-338.609"/>
<polygon fill="none" stroke="#000000" stroke-opacity="0.333333" points="-188.82,-339.785 -182.89,-348.565 -182.05,-338.004 -188.82,-339.785"/>
</g>
<!-- battery2_1_2&#45;&gt;battery3_0_0 -->
<g id="edge38" class="edge"><title>battery2_1_2&#45;&gt;battery3_0_0</title>
<path fill="none" stroke="#000000" stroke-opacity="0.333333" d="M-238.141,-109.278C-204.106,-155.47 -106.854,-287.455 -66.4679,-342.264"/>
<polygon fill="none" stroke="#000000" stroke-opacity="0.333333" points="-69.2426,-344.398 -60.4929,-350.373 -63.6072,-340.246 -69.2426,-344.398"/>
</g>
<!-- battery1_0_1 -->
<g id="node17" class="node"><title>battery1_0_1</title>
<ellipse fill="yellow" stroke="black" cx="-379.749" cy="-366.583" rx="27" ry="18"/>
<text text-anchor="middle" x="-379.749" y="-362.883" font-family="Times New Roman,serif" font-size="14.00">1,16</text>
</g>
<!-- battery1_0_1&#45;&gt;battery2_0_0 -->
<g id="edge41" class="edge"><title>battery1_0_1&#45;&gt;battery2_0_0</title>
<path fill="none" stroke="#000000" stroke-opacity="0.333333" d="M-352.58,-366.583C-333.658,-366.583 -308.185,-366.583 -287.375,-366.583"/>
<polygon fill="none" stroke="#000000" stroke-opacity="0.333333" points="-287.281,-370.083 -277.281,-366.583 -287.281,-363.083 -287.281,-370.083"/>
</g>
<!-- battery1_0_2 -->
<g id="node18" class="node"><title>battery1_0_2</title>
<ellipse fill="none" stroke="black" cx="-451.749" cy="-294.583" rx="27" ry="18"/>
<text text-anchor="middle" x="-451.749" y="-290.883" font-family="Times New Roman,serif" font-size="14.00">2,24</text>
</g>
<!-- battery1_0_2&#45;&gt;battery2_1_0 -->
<g id="edge43" class="edge"><title>battery1_0_2&#45;&gt;battery2_1_0</title>
<path fill="none" stroke="#000000" stroke-opacity="0.333333" d="M-432.051,-281.92C-396.052,-258.778 -319.54,-209.592 -278.144,-182.98"/>
<polygon fill="none" stroke="#000000" stroke-opacity="0.333333" points="-276.148,-185.858 -269.629,-177.506 -279.933,-179.97 -276.148,-185.858"/>
</g>
<!-- battery1_0_2&#45;&gt;battery1_0_0 -->
<g id="edge44" class="edge"><title>battery1_0_2&#45;&gt;battery1_0_0</title>
<path fill="none" stroke="#000000" stroke-opacity="0.333333" d="M-451.749,-312.752C-451.749,-320.452 -451.749,-329.609 -451.749,-338.166"/>
<polygon fill="none" stroke="#000000" stroke-opacity="0.333333" points="-455.248,-338.17 -451.749,-348.17 -448.248,-338.17 -455.248,-338.17"/>
</g>
<!-- battery1_0_2&#45;&gt;battery2_0_1 -->
<g id="edge42" class="edge"><title>battery1_0_2&#45;&gt;battery2_0_1</title>
<path fill="none" stroke="#000000" stroke-opacity="0.333333" d="M-426.499,-301.227C-377.431,-314.14 -269.119,-342.643 -213.152,-357.371"/>
<polygon fill="none" stroke="#000000" stroke-opacity="0.333333" points="-213.898,-360.794 -203.337,-359.954 -212.117,-354.025 -213.898,-360.794"/>
</g>
<!-- battery2_0_1&#45;&gt;battery2_1_0 -->
<g id="edge47" class="edge"><title>battery2_0_1&#45;&gt;battery2_1_0</title>
<path fill="none" stroke="#000000" stroke-opacity="0.333333" d="M-184.412,-349.045C-196.992,-313.822 -225.405,-234.265 -240.423,-192.215"/>
<polygon fill="none" stroke="#000000" stroke-opacity="0.333333" points="-237.189,-190.864 -243.848,-182.624 -243.781,-193.219 -237.189,-190.864"/>
</g>
<!-- battery2_0_1&#45;&gt;battery1_0_0 -->
<g id="edge45" class="edge"><title>battery2_0_1&#45;&gt;battery1_0_0</title>
<path fill="none" stroke="#000000" stroke-opacity="0.333333" d="M-205.383,-366.583C-254.651,-366.583 -358.637,-366.583 -414.459,-366.583"/>
<polygon fill="none" stroke="#000000" stroke-opacity="0.333333" points="-414.625,-363.083 -424.625,-366.583 -414.625,-370.083 -414.625,-363.083"/>
</g>
<!-- battery2_0_1&#45;&gt;battery3_0_0 -->
<g id="edge46" class="edge"><title>battery2_0_1&#45;&gt;battery3_0_0</title>
<path fill="none" stroke="#000000" stroke-opacity="0.333333" d="M-150.98,-366.583C-132.058,-366.583 -106.585,-366.583 -85.7751,-366.583"/>
<polygon fill="none" stroke="#000000" stroke-opacity="0.333333" points="-85.6812,-370.083 -75.6812,-366.583 -85.6812,-363.083 -85.6812,-370.083"/>
</g>
<!-- battery2_0_2 -->
<g id="node21" class="node"><title>battery2_0_2</title>
<ellipse fill="none" stroke="black" cx="-250.149" cy="-294.583" rx="27" ry="18"/>
<text text-anchor="middle" x="-250.149" y="-290.883" font-family="Times New Roman,serif" font-size="14.00">2,19</text>
</g>
<!-- battery2_0_2&#45;&gt;battery2_1_1 -->
<g id="edge50" class="edge"><title>battery2_0_2&#45;&gt;battery2_1_1</title>
<path fill="none" stroke="#000000" stroke-opacity="0.333333" d="M-240.736,-277.64C-228.446,-255.519 -206.817,-216.586 -192.483,-190.786"/>
<polygon fill="none" stroke="#000000" stroke-opacity="0.333333" points="-189.361,-192.371 -187.564,-181.93 -195.48,-188.972 -189.361,-192.371"/>
</g>
<!-- battery2_0_2&#45;&gt;battery1_0_1 -->
<g id="edge48" class="edge"><title>battery2_0_2&#45;&gt;battery1_0_1</title>
<path fill="none" stroke="#000000" stroke-opacity="0.333333" d="M-270.971,-306.151C-292.416,-318.065 -326.028,-336.738 -350.215,-350.175"/>
<polygon fill="none" stroke="#000000" stroke-opacity="0.333333" points="-351.936,-347.127 -358.978,-355.044 -348.536,-353.247 -351.936,-347.127"/>
</g>
<!-- battery2_0_2&#45;&gt;battery3_0_1 -->
<g id="edge49" class="edge"><title>battery2_0_2&#45;&gt;battery3_0_1</title>
<path fill="none" stroke="#000000" stroke-opacity="0.333333" d="M-224.899,-301.227C-175.831,-314.14 -67.5189,-342.643 -11.5518,-357.371"/>
<polygon fill="none" stroke="#000000" stroke-opacity="0.333333" points="-12.2983,-360.794 -1.73676,-359.954 -10.5168,-354.025 -12.2983,-360.794"/>
</g>
<!-- battery3_0_1&#45;&gt;battery2_0_0 -->
<g id="edge51" class="edge"><title>battery3_0_1&#45;&gt;battery2_0_0</title>
<path fill="none" stroke="#000000" stroke-opacity="0.333333" d="M-3.78265,-366.583C-53.0509,-366.583 -157.037,-366.583 -212.859,-366.583"/>
<polygon fill="none" stroke="#000000" stroke-opacity="0.333333" points="-213.025,-363.083 -223.025,-366.583 -213.025,-370.083 -213.025,-363.083"/>
</g>
<!-- battery3_0_1&#45;&gt;battery4_0_0 -->
<g id="edge52" class="edge"><title>battery3_0_1&#45;&gt;battery4_0_0</title>
<path fill="none" stroke="#000000" stroke-opacity="0.333333" d="M50.6198,-366.583C69.5418,-366.583 95.0152,-366.583 115.825,-366.583"/>
<polygon fill="none" stroke="#000000" stroke-opacity="0.333333" points="115.919,-370.083 125.919,-366.583 115.919,-363.083 115.919,-370.083"/>
</g>
<!-- battery3_0_3 -->
<g id="node24" class="node"><title>battery3_0_3</title>
<ellipse fill="none" stroke="black" cx="-48.5486" cy="-294.583" rx="27" ry="18"/>
<text text-anchor="middle" x="-48.5486" y="-290.883" font-family="Times New Roman,serif" font-size="14.00">3,18</text>
</g>
<!-- battery3_0_3&#45;&gt;battery4_1_1 -->
<g id="edge55" class="edge"><title>battery3_0_3&#45;&gt;battery4_1_1</title>
<path fill="none" stroke="#000000" stroke-opacity="0.333333" d="M-26.1587,-283.977C22.4612,-260.947 137.806,-206.309 193.663,-179.851"/>
<polygon fill="none" stroke="#000000" stroke-opacity="0.333333" points="195.197,-182.997 202.736,-175.553 192.2,-176.671 195.197,-182.997"/>
</g>
<!-- battery3_0_3&#45;&gt;battery2_2_0 -->
<g id="edge57" class="edge"><title>battery3_0_3&#45;&gt;battery2_2_0</title>
<path fill="none" stroke="#000000" stroke-opacity="0.333333" d="M-58.8231,-277.703C-91.7849,-223.552 -195.019,-53.9534 -234.542,10.9773"/>
<polygon fill="none" stroke="#000000" stroke-opacity="0.333333" points="-231.705,13.0494 -239.895,19.7715 -237.685,9.4097 -231.705,13.0494"/>
</g>
<!-- battery3_0_3&#45;&gt;battery2_1_1 -->
<g id="edge56" class="edge"><title>battery3_0_3&#45;&gt;battery2_1_1</title>
<path fill="none" stroke="#000000" stroke-opacity="0.333333" d="M-63.669,-279.462C-86.3979,-256.734 -129.506,-213.625 -155.849,-187.282"/>
<polygon fill="none" stroke="#000000" stroke-opacity="0.333333" points="-153.578,-184.603 -163.124,-180.007 -158.528,-189.553 -153.578,-184.603"/>
</g>
<!-- battery3_0_3&#45;&gt;battery2_0_2 -->
<g id="edge53" class="edge"><title>battery3_0_3&#45;&gt;battery2_0_2</title>
<path fill="none" stroke="#000000" stroke-opacity="0.333333" d="M-75.7372,-294.583C-111.156,-294.583 -173.237,-294.583 -212.984,-294.583"/>
<polygon fill="none" stroke="#000000" stroke-opacity="0.333333" points="-213.069,-291.083 -223.069,-294.583 -213.07,-298.083 -213.069,-291.083"/>
</g>
<!-- battery3_0_3&#45;&gt;battery3_0_1 -->
<g id="edge58" class="edge"><title>battery3_0_3&#45;&gt;battery3_0_1</title>
<path fill="none" stroke="#000000" stroke-opacity="0.333333" d="M-33.2792,-309.852C-23.3516,-319.78 -10.2333,-332.898 0.887766,-344.019"/>
<polygon fill="none" stroke="#000000" stroke-opacity="0.333333" points="-1.34189,-346.739 8.20409,-351.336 3.60788,-341.79 -1.34189,-346.739"/>
</g>
<!-- battery3_0_3&#45;&gt;battery4_0_2 -->
<g id="edge54" class="edge"><title>battery3_0_3&#45;&gt;battery4_0_2</title>
<path fill="none" stroke="#000000" stroke-opacity="0.333333" d="M-21.3599,-294.583C14.0592,-294.583 76.1399,-294.583 115.887,-294.583"/>
<polygon fill="none" stroke="#000000" stroke-opacity="0.333333" points="115.972,-298.083 125.972,-294.583 115.972,-291.083 115.972,-298.083"/>
</g>
<!-- battery4_0_1&#45;&gt;battery4_1_0 -->
<g id="edge60" class="edge"><title>battery4_0_1&#45;&gt;battery4_1_0</title>
<path fill="none" stroke="#000000" stroke-opacity="0.333333" d="M218.788,-349.045C206.208,-313.822 177.795,-234.265 162.777,-192.215"/>
<polygon fill="none" stroke="#000000" stroke-opacity="0.333333" points="166.011,-190.864 159.352,-182.624 159.419,-193.219 166.011,-190.864"/>
</g>
<!-- battery4_0_1&#45;&gt;battery3_0_0 -->
<g id="edge59" class="edge"><title>battery4_0_1&#45;&gt;battery3_0_0</title>
<path fill="none" stroke="#000000" stroke-opacity="0.333333" d="M197.817,-366.583C148.549,-366.583 44.5629,-366.583 -11.2593,-366.583"/>
<polygon fill="none" stroke="#000000" stroke-opacity="0.333333" points="-11.4246,-363.083 -21.4246,-366.583 -11.4247,-370.083 -11.4246,-363.083"/>
</g>
<!-- battery4_0_2&#45;&gt;battery4_1_1 -->
<g id="edge62" class="edge"><title>battery4_0_2&#45;&gt;battery4_1_1</title>
<path fill="none" stroke="#000000" stroke-opacity="0.333333" d="M162.464,-277.64C174.754,-255.519 196.383,-216.586 210.717,-190.786"/>
<polygon fill="none" stroke="#000000" stroke-opacity="0.333333" points="213.839,-192.371 215.636,-181.93 207.72,-188.972 213.839,-192.371"/>
</g>
<!-- battery4_0_2&#45;&gt;battery3_0_1 -->
<g id="edge61" class="edge"><title>battery4_0_2&#45;&gt;battery3_0_1</title>
<path fill="none" stroke="#000000" stroke-opacity="0.333333" d="M132.229,-306.151C110.784,-318.065 77.1717,-336.738 52.9853,-350.175"/>
<polygon fill="none" stroke="#000000" stroke-opacity="0.333333" points="51.2641,-347.127 44.2222,-355.044 54.6636,-353.247 51.2641,-347.127"/>
</g>
<!-- battery4_0_2&#45;&gt;battery4_0_0 -->
<g id="edge63" class="edge"><title>battery4_0_2&#45;&gt;battery4_0_0</title>
<path fill="none" stroke="#000000" stroke-opacity="0.333333" d="M153.051,-312.752C153.051,-320.452 153.051,-329.609 153.051,-338.166"/>
<polygon fill="none" stroke="#000000" stroke-opacity="0.333333" points="149.552,-338.17 153.051,-348.17 156.552,-338.17 149.552,-338.17"/>
</g>
<!-- battery4_0_4 -->
<g id="node28" class="node"><title>battery4_0_4</title>
<ellipse fill="yellow" stroke="black" cx="225.051" cy="-294.583" rx="27" ry="18"/>
<text text-anchor="middle" x="225.051" y="-290.883" font-family="Times New Roman,serif" font-size="14.00">4,17</text>
</g>
<!-- battery4_0_4&#45;&gt;battery4_1_3 -->
<g id="edge65" class="edge"><title>battery4_0_4&#45;&gt;battery4_1_3</title>
<path fill="none" stroke="#000000" stroke-opacity="0.333333" d="M225.051,-276.337C225.051,-241.028 225.051,-163.143 225.051,-121.143"/>
<polygon fill="none" stroke="#000000" stroke-opacity="0.333333" points="228.552,-121.043 225.051,-111.043 221.552,-121.043 228.552,-121.043"/>
</g>
<!-- battery4_0_4&#45;&gt;battery3_0_3 -->
<g id="edge64" class="edge"><title>battery4_0_4&#45;&gt;battery3_0_3</title>
<path fill="none" stroke="#000000" stroke-opacity="0.333333" d="M197.817,-294.583C148.549,-294.583 44.5629,-294.583 -11.2593,-294.583"/>
<polygon fill="none" stroke="#000000" stroke-opacity="0.333333" points="-11.4246,-291.083 -21.4246,-294.583 -11.4247,-298.083 -11.4246,-291.083"/>
</g>
<!-- battery4_0_4&#45;&gt;battery4_0_0 -->
<g id="edge68" class="edge"><title>battery4_0_4&#45;&gt;battery4_0_0</title>
<path fill="none" stroke="#000000" stroke-opacity="0.333333" d="M209.782,-309.852C199.854,-319.78 186.736,-332.898 175.615,-344.019"/>
<polygon fill="none" stroke="#000000" stroke-opacity="0.333333" points="172.895,-341.79 168.299,-351.336 177.845,-346.739 172.895,-341.79"/>
</g>
<!-- battery4_0_4&#45;&gt;battery4_0_2 -->
<g id="edge67" class="edge"><title>battery4_0_4&#45;&gt;battery4_0_2</title>
<path fill="none" stroke="#000000" stroke-opacity="0.333333" d="M197.831,-294.583C195.412,-294.583 192.937,-294.583 190.452,-294.583"/>
<polygon fill="none" stroke="#000000" stroke-opacity="0.333333" points="190.31,-291.083 180.31,-294.583 190.31,-298.083 190.31,-291.083"/>
</g>
<!-- battery4_0_4&#45;&gt;battery5_3_0 -->
<g id="edge66" class="edge"><title>battery4_0_4&#45;&gt;battery5_3_0</title>
<path fill="none" stroke="#000000" stroke-opacity="0.333333" d="M229.438,-276.55C248.552,-197.969 324.652,114.886 347.882,210.389"/>
<polygon fill="none" stroke="#000000" stroke-opacity="0.333333" points="351.303,209.645 350.266,220.189 344.502,211.3 351.303,209.645"/>
</g>
<!-- battery5_3_2 -->
<g id="node31" class="node"><title>battery5_3_2</title>
<ellipse fill="none" stroke="black" cx="498.651" cy="238.217" rx="27" ry="18"/>
<text text-anchor="middle" x="498.651" y="241.917" font-family="Times New Roman,serif" font-size="14.00">2,21</text>
</g>
<!-- battery5_3_2&#45;&gt;battery5_3_0 -->
<g id="edge78" class="edge"><title>battery5_3_2&#45;&gt;battery5_3_0</title>
<path fill="none" stroke="#000000" stroke-opacity="0.333333" d="M471.566,238.217C449.182,238.217 417.154,238.217 392.279,238.217"/>
<polygon fill="none" stroke="#000000" stroke-opacity="0.333333" points="392.105,241.717 382.105,238.217 392.105,234.717 392.105,241.717"/>
</g>
<!-- battery5_3_3&#45;&gt;battery4_5_0 -->
<g id="edge70" class="edge"><title>battery5_3_3&#45;&gt;battery4_5_0</title>
<path fill="none" stroke="#000000" stroke-opacity="0.333333" d="M344.377,327.097C311.415,381.248 208.181,550.847 168.658,615.777"/>
<polygon fill="none" stroke="#000000" stroke-opacity="0.333333" points="171.494,617.849 163.305,624.572 165.515,614.21 171.494,617.849"/>
</g>
<!-- battery5_3_3&#45;&gt;battery4_1_0 -->
<g id="edge69" class="edge"><title>battery5_3_3&#45;&gt;battery4_1_0</title>
<path fill="none" stroke="#000000" stroke-opacity="0.333333" d="M347.237,292.741C316.795,220.985 201.278,-51.3049 164.424,-138.176"/>
<polygon fill="none" stroke="#000000" stroke-opacity="0.333333" points="161.11,-137.026 160.426,-147.599 167.554,-139.76 161.11,-137.026"/>
</g>
<!-- battery5_3_3&#45;&gt;battery5_3_1 -->
<g id="edge71" class="edge"><title>battery5_3_3&#45;&gt;battery5_3_1</title>
<path fill="none" stroke="#000000" stroke-opacity="0.333333" d="M369.921,294.948C379.848,285.02 392.967,271.902 404.088,260.781"/>
<polygon fill="none" stroke="#000000" stroke-opacity="0.333333" points="401.858,258.061 411.404,253.464 406.808,263.01 401.858,258.061"/>
</g>
<!-- battery5_3_4 -->
<g id="node33" class="node"><title>battery5_3_4</title>
<ellipse fill="yellow" stroke="black" cx="426.651" cy="310.217" rx="27" ry="18"/>
<text text-anchor="middle" x="426.651" y="313.917" font-family="Times New Roman,serif" font-size="14.00">4,20</text>
</g>
<!-- battery5_3_4&#45;&gt;battery4_5_1 -->
<g id="edge75" class="edge"><title>battery5_3_4&#45;&gt;battery4_5_1</title>
<path fill="none" stroke="#000000" stroke-opacity="0.333333" d="M416.377,327.097C383.415,381.248 280.181,550.847 240.658,615.777"/>
<polygon fill="none" stroke="#000000" stroke-opacity="0.333333" points="243.494,617.849 235.305,624.572 237.515,614.21 243.494,617.849"/>
</g>
<!-- battery5_3_4&#45;&gt;battery4_1_1 -->
<g id="edge72" class="edge"><title>battery5_3_4&#45;&gt;battery4_1_1</title>
<path fill="none" stroke="#000000" stroke-opacity="0.333333" d="M419.237,292.741C388.795,220.985 273.278,-51.3049 236.424,-138.176"/>
<polygon fill="none" stroke="#000000" stroke-opacity="0.333333" points="233.11,-137.026 232.426,-147.599 239.554,-139.76 233.11,-137.026"/>
</g>
<!-- battery5_3_4&#45;&gt;battery2_2_0 -->
<g id="edge74" class="edge"><title>battery5_3_4&#45;&gt;battery2_2_0</title>
<path fill="none" stroke="#000000" stroke-opacity="0.333333" d="M403.354,300.799C302.171,259.895 -99.3562,97.5758 -217.368,49.8689"/>
<polygon fill="none" stroke="#000000" stroke-opacity="0.333333" points="-218.99,52.9883 -226.95,45.9955 -216.367,46.4985 -218.99,52.9883"/>
</g>
<!-- battery5_3_4&#45;&gt;battery4_0_0 -->
<g id="edge73" class="edge"><title>battery5_3_4&#45;&gt;battery4_0_0</title>
<path fill="none" stroke="#000000" stroke-opacity="0.333333" d="M419.613,292.807C382.506,201.014 209.564,-226.79 164.051,-339.374"/>
<polygon fill="none" stroke="#000000" stroke-opacity="0.333333" points="160.672,-338.394 160.169,-348.977 167.161,-341.018 160.672,-338.394"/>
</g>
<!-- battery5_3_4&#45;&gt;battery5_3_0 -->
<g id="edge77" class="edge"><title>battery5_3_4&#45;&gt;battery5_3_0</title>
<path fill="none" stroke="#000000" stroke-opacity="0.333333" d="M411.382,294.948C401.454,285.02 388.336,271.902 377.215,260.781"/>
<polygon fill="none" stroke="#000000" stroke-opacity="0.333333" points="374.495,263.01 369.899,253.464 379.445,258.061 374.495,263.01"/>
</g>
<!-- battery5_3_4&#45;&gt;battery5_3_2 -->
<g id="edge76" class="edge"><title>battery5_3_4&#45;&gt;battery5_3_2</title>
<path fill="none" stroke="#000000" stroke-opacity="0.333333" d="M441.921,294.948C451.848,285.02 464.967,271.902 476.088,260.781"/>
<polygon fill="none" stroke="#000000" stroke-opacity="0.333333" points="473.858,258.061 483.404,253.464 478.808,263.01 473.858,258.061"/>
</g>
<!-- battery0_3_0 -->
<g id="node34" class="node"><title>battery0_3_0</title>
<ellipse fill="none" stroke="black" cx="-653.349" cy="238.217" rx="27" ry="18"/>
<text text-anchor="middle" x="-653.349" y="241.917" font-family="Times New Roman,serif" font-size="14.00">0,&#45;1</text>
</g>
<!-- battery0_3_6 -->
<g id="node35" class="node"><title>battery0_3_6</title>
<ellipse fill="green" stroke="black" cx="-581.349" cy="238.217" rx="27" ry="18"/>
<text text-anchor="middle" x="-581.349" y="241.917" font-family="Times New Roman,serif" font-size="14.00">6,23</text>
</g>
<!-- battery0_3_6&#45;&gt;battery4_5_0 -->
<g id="edge84" class="edge"><title>battery0_3_6&#45;&gt;battery4_5_0</title>
<path fill="none" stroke="#000000" stroke-opacity="0.333333" d="M-560.161,249.849C-455.986,307.044 1.76987,558.361 123.327,625.098"/>
<polygon fill="none" stroke="#000000" stroke-opacity="0.333333" points="125.049,622.05 132.13,629.931 121.68,628.186 125.049,622.05"/>
</g>
<!-- battery0_3_6&#45;&gt;battery4_1_0 -->
<g id="edge83" class="edge"><title>battery0_3_6&#45;&gt;battery4_1_0</title>
<path fill="none" stroke="#000000" stroke-opacity="0.333333" d="M-560.161,226.585C-455.986,169.39 1.76987,-81.9263 123.327,-148.663"/>
<polygon fill="none" stroke="#000000" stroke-opacity="0.333333" points="121.68,-151.752 132.13,-153.497 125.049,-145.616 121.68,-151.752"/>
</g>
<!-- battery0_3_6&#45;&gt;battery2_2_3 -->
<g id="edge79" class="edge"><title>battery0_3_6&#45;&gt;battery2_2_3</title>
<path fill="none" stroke="#000000" stroke-opacity="0.333333" d="M-558.059,229.104C-500.357,206.525 -350.601,147.925 -283.511,121.672"/>
<polygon fill="none" stroke="#000000" stroke-opacity="0.333333" points="-284.443,118.278 -273.855,117.894 -281.892,124.797 -284.443,118.278"/>
</g>
<!-- battery0_3_6&#45;&gt;battery2_1_0 -->
<g id="edge86" class="edge"><title>battery0_3_6&#45;&gt;battery2_1_0</title>
<path fill="none" stroke="#000000" stroke-opacity="0.333333" d="M-568.365,222.411C-517.465,160.445 -331.308,-66.1801 -269.928,-140.904"/>
<polygon fill="none" stroke="#000000" stroke-opacity="0.333333" points="-272.454,-143.342 -263.402,-148.848 -267.045,-138.899 -272.454,-143.342"/>
</g>
<!-- battery0_3_6&#45;&gt;battery2_1_2 -->
<g id="edge81" class="edge"><title>battery0_3_6&#45;&gt;battery2_1_2</title>
<path fill="none" stroke="#000000" stroke-opacity="0.333333" d="M-566.257,223.126C-513.237,170.106 -335.319,-7.81196 -272.414,-70.7175"/>
<polygon fill="none" stroke="#000000" stroke-opacity="0.333333" points="-274.875,-73.2064 -265.329,-77.8026 -269.925,-68.2566 -274.875,-73.2064"/>
</g>
<!-- battery0_3_6&#45;&gt;battery1_0_0 -->
<g id="edge85" class="edge"><title>battery0_3_6&#45;&gt;battery1_0_0</title>
<path fill="none" stroke="#000000" stroke-opacity="0.333333" d="M-577.47,220.117C-559.024,134.038 -480.146,-234.061 -457.718,-338.724"/>
<polygon fill="none" stroke="#000000" stroke-opacity="0.333333" points="-461.13,-339.508 -455.612,-348.553 -454.285,-338.042 -461.13,-339.508"/>
</g>
<!-- battery0_3_6&#45;&gt;battery1_0_2 -->
<g id="edge80" class="edge"><title>battery0_3_6&#45;&gt;battery1_0_2</title>
<path fill="none" stroke="#000000" stroke-opacity="0.333333" d="M-576.962,220.185C-557.848,141.603 -481.748,-171.252 -458.518,-266.755"/>
<polygon fill="none" stroke="#000000" stroke-opacity="0.333333" points="-461.898,-267.665 -456.134,-276.555 -455.097,-266.011 -461.898,-267.665"/>
</g>
<!-- battery0_3_6&#45;&gt;battery3_0_0 -->
<g id="edge82" class="edge"><title>battery0_3_6&#45;&gt;battery3_0_0</title>
<path fill="none" stroke="#000000" stroke-opacity="0.333333" d="M-567.643,222.659C-495.162,140.384 -156.561,-243.974 -69.1715,-343.173"/>
<polygon fill="none" stroke="#000000" stroke-opacity="0.333333" points="-71.645,-345.66 -62.4084,-350.85 -66.3924,-341.033 -71.645,-345.66"/>
</g>
<!-- battery0_3_6&#45;&gt;battery5_3_1 -->
<g id="edge87" class="edge"><title>battery0_3_6&#45;&gt;battery5_3_1</title>
<path fill="none" stroke="#000000" stroke-opacity="0.333333" d="M-554.126,238.217C-413.866,238.217 226.941,238.217 389.219,238.217"/>
<polygon fill="none" stroke="#000000" stroke-opacity="0.333333" points="389.635,234.717 399.635,238.217 389.635,241.717 389.635,234.717"/>
</g>
</g>
</svg>
