<?xml version="1.0" encoding="UTF-8" standalone="no"?>
<!DOCTYPE svg PUBLIC "-//W3C//DTD SVG 1.1//EN"
 "http://www.w3.org/Graphics/SVG/1.1/DTD/svg11.dtd">
<!-- Generated by graphviz version 2.38.0 (20140413.2041)
 -->
<!-- Title: example0.txt_fields Pages: 1 -->
<svg width="1545pt" height="1717pt"
 viewBox="0.00 0.00 1545.07 1716.97" xmlns="http://www.w3.org/2000/svg" xmlns:xlink="http://www.w3.org/1999/xlink">
<g id="graph0" class="graph" transform="scale(1 1) rotate(0) translate(570.933 677.043)">
<title>example0.txt_fields</title>
<polygon fill="white" stroke="none" points="-570.933,1039.92 -570.933,-677.043 974.133,-677.043 974.133,1039.92 -570.933,1039.92"/>
<!-- 3_6 -->
<g id="node1" class="node"><title>3_6</title>
<ellipse fill="none" stroke="black" cx="100.8" cy="584.64" rx="62.8651" ry="48.1667"/>
<text text-anchor="middle" x="100.8" y="565.84" font-family="Times New Roman,serif" font-size="14.00">3,6</text>
<text text-anchor="middle" x="100.8" y="580.84" font-family="Times New Roman,serif" font-size="14.00">ic: 5</text>
<text text-anchor="middle" x="100.8" y="595.84" font-family="Times New Roman,serif" font-size="14.00">free: 3,5;3,4</text>
<text text-anchor="middle" x="100.8" y="610.84" font-family="Times New Roman,serif" font-size="14.00">swlolw: none</text>
</g>
<!-- 3_6&#45;&gt;3_6 -->
<g id="edge1" class="edge"><title>3_6&#45;&gt;3_6</title>
<path fill="none" stroke="black" d="M163.238,578.312C174.145,579.156 181.733,581.265 181.733,584.64 181.733,586.802 178.619,588.445 173.513,589.568"/>
<polygon fill="black" stroke="black" points="173.619,593.086 163.238,590.968 172.674,586.15 173.619,593.086"/>
<text text-anchor="middle" x="198.733" y="588.34" font-family="Times New Roman,serif" font-size="14.00">2 &#160;(4) </text>
</g>
<!-- 5_3 -->
<g id="node2" class="node"><title>5_3</title>
<ellipse fill="none" stroke="black" cx="504" cy="-20.16" rx="62.8651" ry="48.1667"/>
<text text-anchor="middle" x="504" y="-38.96" font-family="Times New Roman,serif" font-size="14.00">5,3</text>
<text text-anchor="middle" x="504" y="-23.96" font-family="Times New Roman,serif" font-size="14.00">ic: 6</text>
<text text-anchor="middle" x="504" y="-8.96" font-family="Times New Roman,serif" font-size="14.00">free: 5,2;5,1</text>
<text text-anchor="middle" x="504" y="6.04" font-family="Times New Roman,serif" font-size="14.00">swlolw: none</text>
</g>
<!-- 3_6&#45;&gt;5_3 -->
<g id="edge4" class="edge"><title>3_6&#45;&gt;5_3</title>
<path fill="none" stroke="black" d="M126.101,540.077C194.737,429.919 384.213,145.505 465.857,29.8411"/>
<polygon fill="black" stroke="black" points="463.144,27.6166 471.781,21.48 468.856,31.6631 463.144,27.6166"/>
<text text-anchor="middle" x="278.979" y="281.159" font-family="Times New Roman,serif" font-size="14.00">5 &#160;(5) </text>
</g>
<!-- 0_4 -->
<g id="node3" class="node"><title>0_4</title>
<ellipse fill="none" stroke="black" cx="-504" cy="181.44" rx="62.8651" ry="48.1667"/>
<text text-anchor="middle" x="-504" y="162.64" font-family="Times New Roman,serif" font-size="14.00">0,4</text>
<text text-anchor="middle" x="-504" y="177.64" font-family="Times New Roman,serif" font-size="14.00">ic: 3</text>
<text text-anchor="middle" x="-504" y="192.64" font-family="Times New Roman,serif" font-size="14.00">free: 0,3;0,2</text>
<text text-anchor="middle" x="-504" y="207.64" font-family="Times New Roman,serif" font-size="14.00">swlolw: none</text>
</g>
<!-- 3_6&#45;&gt;0_4 -->
<g id="edge5" class="edge"><title>3_6&#45;&gt;0_4</title>
<path fill="none" stroke="black" d="M50.4371,555.715C-62.6327,484.86 -335.652,302.937 -451.085,221.637"/>
<polygon fill="black" stroke="black" points="-453.304,224.355 -459.45,215.726 -449.264,218.638 -453.304,224.355"/>
<text text-anchor="middle" x="-183.324" y="399.876" font-family="Times New Roman,serif" font-size="14.00">5 &#160;(5) </text>
</g>
<!-- 0_1 -->
<g id="node4" class="node"><title>0_1</title>
<ellipse fill="none" stroke="black" cx="-504" cy="-423.36" rx="58.8803" ry="48.1667"/>
<text text-anchor="middle" x="-504" y="-442.16" font-family="Times New Roman,serif" font-size="14.00">0,1</text>
<text text-anchor="middle" x="-504" y="-427.16" font-family="Times New Roman,serif" font-size="14.00">ic: 2</text>
<text text-anchor="middle" x="-504" y="-412.16" font-family="Times New Roman,serif" font-size="14.00">free: 0,2;1,2</text>
<text text-anchor="middle" x="-504" y="-397.16" font-family="Times New Roman,serif" font-size="14.00">swlolw: {2}</text>
</g>
<!-- 3_6&#45;&gt;0_1 -->
<g id="edge9" class="edge"><title>3_6&#45;&gt;0_1</title>
<path fill="none" stroke="black" d="M71.6705,541.888C-31.0065,380.386 -374.654,-192.224 -475.823,-370.196"/>
<polygon fill="black" stroke="black" points="-478.993,-368.691 -480.878,-379.117 -472.903,-372.142 -478.993,-368.691"/>
<text text-anchor="middle" x="-219.076" y="82.046" font-family="Times New Roman,serif" font-size="14.00">8 &#160;(8) </text>
</g>
<!-- 1_1 -->
<g id="node5" class="node"><title>1_1</title>
<ellipse fill="none" stroke="black" cx="-302.4" cy="-423.36" rx="58.8803" ry="48.1667"/>
<text text-anchor="middle" x="-302.4" y="-442.16" font-family="Times New Roman,serif" font-size="14.00">1,1</text>
<text text-anchor="middle" x="-302.4" y="-427.16" font-family="Times New Roman,serif" font-size="14.00">ic: 6</text>
<text text-anchor="middle" x="-302.4" y="-412.16" font-family="Times New Roman,serif" font-size="14.00">free: 1,2;2,2</text>
<text text-anchor="middle" x="-302.4" y="-397.16" font-family="Times New Roman,serif" font-size="14.00">swlolw: {1}</text>
</g>
<!-- 3_6&#45;&gt;1_1 -->
<g id="edge7" class="edge"><title>3_6&#45;&gt;1_1</title>
<path fill="none" stroke="black" d="M79.3284,539.177C8.44014,375.023 -216.372,-186.798 -283.453,-367.15"/>
<polygon fill="black" stroke="black" points="-286.804,-366.12 -286.994,-376.713 -280.239,-368.55 -286.804,-366.12"/>
<text text-anchor="middle" x="-119.062" y="82.2133" font-family="Times New Roman,serif" font-size="14.00">7 &#160;(7) </text>
</g>
<!-- 1_5 -->
<g id="node6" class="node"><title>1_5</title>
<ellipse fill="none" stroke="black" cx="-302.4" cy="383.04" rx="62.8651" ry="48.1667"/>
<text text-anchor="middle" x="-302.4" y="364.24" font-family="Times New Roman,serif" font-size="14.00">1,5</text>
<text text-anchor="middle" x="-302.4" y="379.24" font-family="Times New Roman,serif" font-size="14.00">ic: 7</text>
<text text-anchor="middle" x="-302.4" y="394.24" font-family="Times New Roman,serif" font-size="14.00">free: 1,4;1,3</text>
<text text-anchor="middle" x="-302.4" y="409.24" font-family="Times New Roman,serif" font-size="14.00">swlolw: none</text>
</g>
<!-- 3_6&#45;&gt;1_5 -->
<g id="edge2" class="edge"><title>3_6&#45;&gt;1_5</title>
<path fill="none" stroke="black" d="M45.1294,562.127C-30.8464,527.014 -166.354,459.348 -243.817,417.918"/>
<polygon fill="black" stroke="black" points="-245.817,420.816 -252.968,412.999 -242.503,414.65 -245.817,420.816"/>
<text text-anchor="middle" x="-116.344" y="501.222" font-family="Times New Roman,serif" font-size="14.00">3 &#160;(3) </text>
</g>
<!-- 1_0 -->
<g id="node7" class="node"><title>1_0</title>
<ellipse fill="none" stroke="black" cx="-302.4" cy="-624.96" rx="68.6788" ry="48.1667"/>
<text text-anchor="middle" x="-302.4" y="-643.76" font-family="Times New Roman,serif" font-size="14.00">1,0</text>
<text text-anchor="middle" x="-302.4" y="-628.76" font-family="Times New Roman,serif" font-size="14.00">ic: 1</text>
<text text-anchor="middle" x="-302.4" y="-613.76" font-family="Times New Roman,serif" font-size="14.00">free: 2,0;3,0</text>
<text text-anchor="middle" x="-302.4" y="-598.76" font-family="Times New Roman,serif" font-size="14.00">swlolw: {1, 2}</text>
</g>
<!-- 3_6&#45;&gt;1_0 -->
<g id="edge8" class="edge"><title>3_6&#45;&gt;1_0</title>
<path fill="none" stroke="black" d="M82.4392,538.486C14.2061,350.092 -222.711,-360.414 -286.571,-567.804"/>
<polygon fill="black" stroke="black" points="-289.985,-566.997 -289.568,-577.584 -283.292,-569.048 -289.985,-566.997"/>
<text text-anchor="middle" x="-119.066" y="-18.4587" font-family="Times New Roman,serif" font-size="14.00">8 &#160;(8) </text>
</g>
<!-- 2_1 -->
<g id="node8" class="node"><title>2_1</title>
<ellipse fill="none" stroke="black" cx="-100.8" cy="-423.36" rx="62.8651" ry="48.1667"/>
<text text-anchor="middle" x="-100.8" y="-442.16" font-family="Times New Roman,serif" font-size="14.00">2,1</text>
<text text-anchor="middle" x="-100.8" y="-427.16" font-family="Times New Roman,serif" font-size="14.00">ic: 10</text>
<text text-anchor="middle" x="-100.8" y="-412.16" font-family="Times New Roman,serif" font-size="14.00">free: 2,0;3,0</text>
<text text-anchor="middle" x="-100.8" y="-397.16" font-family="Times New Roman,serif" font-size="14.00">swlolw: none</text>
</g>
<!-- 3_6&#45;&gt;2_1 -->
<g id="edge6" class="edge"><title>3_6&#45;&gt;2_1</title>
<path fill="none" stroke="black" d="M88.1818,537.306C50.092,371.305 -61.081,-184.134 -92.6394,-365.522"/>
<polygon fill="black" stroke="black" points="-96.0931,-364.954 -94.3429,-375.403 -89.1948,-366.143 -96.0931,-364.954"/>
<text text-anchor="middle" x="-19.2288" y="97.0923" font-family="Times New Roman,serif" font-size="14.00">6 &#160;(6) </text>
</g>
<!-- 5_8 -->
<g id="node9" class="node"><title>5_8</title>
<ellipse fill="none" stroke="black" cx="504" cy="987.84" rx="62.8651" ry="48.1667"/>
<text text-anchor="middle" x="504" y="969.04" font-family="Times New Roman,serif" font-size="14.00">5,8</text>
<text text-anchor="middle" x="504" y="984.04" font-family="Times New Roman,serif" font-size="14.00">ic: 3</text>
<text text-anchor="middle" x="504" y="999.04" font-family="Times New Roman,serif" font-size="14.00">free: 5,7;5,6</text>
<text text-anchor="middle" x="504" y="1014.04" font-family="Times New Roman,serif" font-size="14.00">swlolw: none</text>
</g>
<!-- 3_6&#45;&gt;5_8 -->
<g id="edge3" class="edge"><title>3_6&#45;&gt;5_8</title>
<path fill="none" stroke="black" d="M142.793,620.701C220.288,693.499 384.729,857.821 462.13,939.683"/>
<polygon fill="black" stroke="black" points="465.035,937.663 469.343,947.342 459.939,942.462 465.035,937.663"/>
<text text-anchor="middle" x="285.462" y="776.392" font-family="Times New Roman,serif" font-size="14.00">4 &#160;(4) </text>
</g>
<!-- 5_3&#45;&gt;3_6 -->
<g id="edge12" class="edge"><title>5_3&#45;&gt;3_6</title>
<path fill="none" stroke="black" d="M478.699,24.4027C410.063,134.561 220.587,418.975 138.943,534.639"/>
<polygon fill="black" stroke="black" points="141.656,536.863 133.019,543 135.944,532.817 141.656,536.863"/>
<text text-anchor="middle" x="325.821" y="275.721" font-family="Times New Roman,serif" font-size="14.00">5 &#160;(5) </text>
</g>
<!-- 5_3&#45;&gt;5_3 -->
<g id="edge10" class="edge"><title>5_3&#45;&gt;5_3</title>
<path fill="none" stroke="black" d="M566.438,-26.4881C577.345,-25.6444 584.933,-23.535 584.933,-20.16 584.933,-17.9979 581.819,-16.3552 576.713,-15.2319"/>
<polygon fill="black" stroke="black" points="576.819,-11.7141 566.438,-13.8319 575.874,-18.65 576.819,-11.7141"/>
<text text-anchor="middle" x="601.933" y="-16.46" font-family="Times New Roman,serif" font-size="14.00">2 &#160;(4) </text>
</g>
<!-- 5_3&#45;&gt;0_4 -->
<g id="edge15" class="edge"><title>5_3&#45;&gt;0_4</title>
<path fill="none" stroke="black" d="M444.261,-4.72227C269.128,34.7428 -242.572,137.168 -432.208,170.826"/>
<polygon fill="black" stroke="black" points="-431.619,174.276 -442.075,172.566 -432.834,167.382 -431.619,174.276"/>
<text text-anchor="middle" x="23.0263" y="79.2519" font-family="Times New Roman,serif" font-size="14.00">6 &#160;(6) </text>
</g>
<!-- 5_3&#45;&gt;0_1 -->
<g id="edge18" class="edge"><title>5_3&#45;&gt;0_1</title>
<path fill="none" stroke="black" d="M446.413,-39.6196C269.787,-105.392 -263.159,-318.522 -443.56,-395.464"/>
<polygon fill="black" stroke="black" points="-445.085,-392.309 -452.901,-399.461 -442.33,-398.744 -445.085,-392.309"/>
<text text-anchor="middle" x="-15.5736" y="-206.342" font-family="Times New Roman,serif" font-size="14.00">7 &#160;(7) </text>
</g>
<!-- 5_3&#45;&gt;1_1 -->
<g id="edge14" class="edge"><title>5_3&#45;&gt;1_1</title>
<path fill="none" stroke="black" d="M448.865,-43.7274C302.196,-112.388 -96.4221,-311.643 -245.307,-390.65"/>
<polygon fill="black" stroke="black" points="-247.144,-387.663 -254.326,-395.452 -243.854,-393.842 -247.144,-387.663"/>
<text text-anchor="middle" x="84.7792" y="-205.989" font-family="Times New Roman,serif" font-size="14.00">6 &#160;(6) </text>
</g>
<!-- 5_3&#45;&gt;1_5 -->
<g id="edge16" class="edge"><title>5_3&#45;&gt;1_5</title>
<path fill="none" stroke="black" d="M453.6,8.98908C313.289,83.8263 -81.6736,281.42 -237.771,355.012"/>
<polygon fill="black" stroke="black" points="-236.718,358.384 -247.257,359.469 -239.694,352.048 -236.718,358.384"/>
<text text-anchor="middle" x="124.915" y="178.2" font-family="Times New Roman,serif" font-size="14.00">6 &#160;(6) </text>
</g>
<!-- 5_3&#45;&gt;1_0 -->
<g id="edge17" class="edge"><title>5_3&#45;&gt;1_0</title>
<path fill="none" stroke="black" d="M456.331,-51.7389C314.681,-152.402 -102.805,-465.407 -250.182,-581.294"/>
<polygon fill="black" stroke="black" points="-252.562,-578.713 -258.248,-587.653 -248.228,-584.21 -252.562,-578.713"/>
<text text-anchor="middle" x="86.0743" y="-305.317" font-family="Times New Roman,serif" font-size="14.00">7 &#160;(7) </text>
</g>
<!-- 5_3&#45;&gt;2_1 -->
<g id="edge11" class="edge"><title>5_3&#45;&gt;2_1</title>
<path fill="none" stroke="black" d="M453.637,-49.0854C340.567,-119.94 67.5483,-301.863 -47.8852,-383.163"/>
<polygon fill="black" stroke="black" points="-50.1035,-380.445 -56.2504,-389.074 -46.0638,-386.162 -50.1035,-380.445"/>
<text text-anchor="middle" x="185.876" y="-204.924" font-family="Times New Roman,serif" font-size="14.00">5 &#160;(5) </text>
</g>
<!-- 5_3&#45;&gt;5_8 -->
<g id="edge13" class="edge"><title>5_3&#45;&gt;5_8</title>
<path fill="none" stroke="black" d="M507.1,28.1183C511.875,195.118 511.965,747.959 507.37,929.51"/>
<polygon fill="black" stroke="black" points="510.865,929.756 507.097,939.658 503.867,929.568 510.865,929.756"/>
<text text-anchor="middle" x="490.235" y="475.014" font-family="Times New Roman,serif" font-size="14.00">5 &#160;(5) </text>
</g>
<!-- 0_4&#45;&gt;3_6 -->
<g id="edge24" class="edge"><title>0_4&#45;&gt;3_6</title>
<path fill="none" stroke="black" d="M-453.637,210.365C-340.567,281.22 -67.5483,463.143 47.8852,544.443"/>
<polygon fill="black" stroke="black" points="50.1035,541.725 56.2504,550.354 46.0638,547.442 50.1035,541.725"/>
<text text-anchor="middle" x="-185.876" y="373.604" font-family="Times New Roman,serif" font-size="14.00">5 &#160;(5) </text>
</g>
<!-- 0_4&#45;&gt;5_3 -->
<g id="edge25" class="edge"><title>0_4&#45;&gt;5_3</title>
<path fill="none" stroke="black" d="M-444.261,166.002C-269.128,126.537 242.572,24.1124 432.208,-9.54603"/>
<polygon fill="black" stroke="black" points="431.619,-12.996 442.075,-11.2859 432.834,-6.10234 431.619,-12.996"/>
<text text-anchor="middle" x="-23.0263" y="74.4281" font-family="Times New Roman,serif" font-size="14.00">6 &#160;(6) </text>
</g>
<!-- 0_4&#45;&gt;0_4 -->
<g id="edge20" class="edge"><title>0_4&#45;&gt;0_4</title>
<path fill="none" stroke="black" d="M-441.562,175.112C-430.655,175.956 -423.067,178.065 -423.067,181.44 -423.067,183.602 -426.181,185.245 -431.287,186.368"/>
<polygon fill="black" stroke="black" points="-431.181,189.886 -441.562,187.768 -432.126,182.95 -431.181,189.886"/>
<text text-anchor="middle" x="-406.067" y="185.14" font-family="Times New Roman,serif" font-size="14.00">2 &#160;(4) </text>
</g>
<!-- 0_4&#45;&gt;0_1 -->
<g id="edge21" class="edge"><title>0_4&#45;&gt;0_1</title>
<path fill="none" stroke="black" d="M-507.869,133.223C-511.6,23.23 -511.707,-245.887 -508.19,-365"/>
<polygon fill="black" stroke="black" points="-511.687,-365.141 -507.873,-375.025 -504.691,-364.92 -511.687,-365.141"/>
<text text-anchor="middle" x="-525.029" y="-119.689" font-family="Times New Roman,serif" font-size="14.00">3 &#160;(3) </text>
</g>
<!-- 0_4&#45;&gt;1_1 -->
<g id="edge22" class="edge"><title>0_4&#45;&gt;1_1</title>
<path fill="none" stroke="black" d="M-492.203,134.035C-459.391,23.5128 -368.09,-250.734 -325.084,-368.362"/>
<polygon fill="black" stroke="black" points="-328.311,-369.727 -321.574,-377.904 -321.742,-367.31 -328.311,-369.727"/>
<text text-anchor="middle" x="-425.644" y="-120.963" font-family="Times New Roman,serif" font-size="14.00">4 &#160;(4) </text>
</g>
<!-- 0_4&#45;&gt;1_5 -->
<g id="edge19" class="edge"><title>0_4&#45;&gt;1_5</title>
<path fill="none" stroke="black" d="M-460.775,216.913C-425.83,249.579 -377.059,298.242 -342.871,334.494"/>
<polygon fill="black" stroke="black" points="-340.091,332.341 -335.807,342.031 -345.199,337.128 -340.091,332.341"/>
<text text-anchor="middle" x="-418.823" y="271.904" font-family="Times New Roman,serif" font-size="14.00">2 &#160;(4) </text>
</g>
<!-- 0_4&#45;&gt;1_0 -->
<g id="edge26" class="edge"><title>0_4&#45;&gt;1_0</title>
<path fill="none" stroke="black" d="M-495.565,133.78C-465.053,-6.36141 -362.581,-416.693 -320.442,-568.039"/>
<polygon fill="black" stroke="black" points="-323.704,-569.371 -317.635,-578.055 -316.964,-567.482 -323.704,-569.371"/>
<text text-anchor="middle" x="-425.003" y="-220.93" font-family="Times New Roman,serif" font-size="14.00">9 &#160;(9) </text>
</g>
<!-- 0_4&#45;&gt;2_1 -->
<g id="edge23" class="edge"><title>0_4&#45;&gt;2_1</title>
<path fill="none" stroke="black" d="M-478.699,136.877C-410.063,26.719 -220.587,-257.695 -138.943,-373.359"/>
<polygon fill="black" stroke="black" points="-141.656,-375.583 -133.019,-381.72 -135.944,-371.537 -141.656,-375.583"/>
<text text-anchor="middle" x="-325.821" y="-122.041" font-family="Times New Roman,serif" font-size="14.00">5 &#160;(5) </text>
</g>
<!-- 0_4&#45;&gt;5_8 -->
<g id="edge27" class="edge"><title>0_4&#45;&gt;5_8</title>
<path fill="none" stroke="black" d="M-457.85,214.54C-290.552,342.03 283.038,800.819 454.946,944.528"/>
<polygon fill="black" stroke="black" points="457.409,942.025 462.826,951.131 452.913,947.39 457.409,942.025"/>
<text text-anchor="middle" x="-18.4519" y="575.734" font-family="Times New Roman,serif" font-size="14.00">9 &#160;(9) </text>
</g>
<!-- 0_1&#45;&gt;3_6 -->
<g id="edge35" class="edge"><title>0_1&#45;&gt;3_6</title>
<path fill="none" stroke="black" d="M-475.278,-381.248C-373.192,-220.762 -29.2655,352.294 72.3642,531.021"/>
<polygon fill="black" stroke="black" points="75.4153,529.306 77.3018,539.732 69.3256,532.758 75.4153,529.306"/>
<text text-anchor="middle" x="-184.457" y="71.0864" font-family="Times New Roman,serif" font-size="14.00">8 &#160;(8) </text>
</g>
<!-- 0_1&#45;&gt;5_3 -->
<g id="edge34" class="edge"><title>0_1&#45;&gt;5_3</title>
<path fill="none" stroke="black" d="M-449.67,-405.112C-277.346,-341.124 256.396,-127.731 440.674,-49.2862"/>
<polygon fill="black" stroke="black" points="442.144,-52.4645 449.965,-45.3183 439.394,-46.0269 442.144,-52.4645"/>
<text text-anchor="middle" x="-21.4981" y="-230.999" font-family="Times New Roman,serif" font-size="14.00">7 &#160;(7) </text>
</g>
<!-- 0_1&#45;&gt;0_4 -->
<g id="edge31" class="edge"><title>0_1&#45;&gt;0_4</title>
<path fill="none" stroke="black" d="M-500.131,-375.143C-496.4,-265.15 -496.293,3.96708 -499.81,123.08"/>
<polygon fill="black" stroke="black" points="-496.313,123.221 -500.127,133.105 -503.309,123 -496.313,123.221"/>
<text text-anchor="middle" x="-482.971" y="-129.831" font-family="Times New Roman,serif" font-size="14.00">3 &#160;(3) </text>
</g>
<!-- 0_1&#45;&gt;0_1 -->
<g id="edge30" class="edge"><title>0_1&#45;&gt;0_1</title>
<path fill="none" stroke="black" d="M-445.813,-429.764C-434.956,-428.975 -427.31,-426.84 -427.31,-423.36 -427.31,-421.13 -430.448,-419.453 -435.558,-418.328"/>
<polygon fill="black" stroke="black" points="-435.437,-414.813 -445.813,-416.956 -436.365,-421.751 -435.437,-414.813"/>
<text text-anchor="middle" x="-410.31" y="-419.66" font-family="Times New Roman,serif" font-size="14.00">2 &#160;(4) </text>
</g>
<!-- 0_1&#45;&gt;1_1 -->
<g id="edge28" class="edge"><title>0_1&#45;&gt;1_1</title>
<path fill="none" stroke="black" d="M-445.689,-429.546C-422.387,-430.202 -395.378,-430.286 -371.132,-429.797"/>
<polygon fill="black" stroke="black" points="-370.842,-433.291 -360.929,-429.552 -371.01,-426.293 -370.842,-433.291"/>
<text text-anchor="middle" x="-391.411" y="-433.471" font-family="Times New Roman,serif" font-size="14.00">1 &#160;(3) </text>
</g>
<!-- 0_1&#45;&gt;1_5 -->
<g id="edge33" class="edge"><title>0_1&#45;&gt;1_5</title>
<path fill="none" stroke="black" d="M-488.849,-376.75C-449.617,-237.88 -346.84,172.846 -313.059,325.262"/>
<polygon fill="black" stroke="black" points="-309.57,324.834 -310.841,335.352 -316.406,326.337 -309.57,324.834"/>
<text text-anchor="middle" x="-417.954" y="-29.5441" font-family="Times New Roman,serif" font-size="14.00">5 &#160;(5) </text>
</g>
<!-- 0_1&#45;&gt;1_0 -->
<g id="edge29" class="edge"><title>0_1&#45;&gt;1_0</title>
<path fill="none" stroke="black" d="M-471.268,-463.644C-439.728,-497.571 -391.593,-545.95 -354.746,-580.896"/>
<polygon fill="black" stroke="black" points="-356.741,-583.825 -347.064,-588.139 -351.939,-578.732 -356.741,-583.825"/>
<text text-anchor="middle" x="-430.007" y="-526.07" font-family="Times New Roman,serif" font-size="14.00">2 &#160;(8) </text>
</g>
<!-- 0_1&#45;&gt;2_1 -->
<g id="edge32" class="edge"><title>0_1&#45;&gt;2_1</title>
<path fill="none" stroke="black" d="M-445.371,-428.288C-373.466,-430.572 -251.567,-430.709 -173.696,-428.697"/>
<polygon fill="black" stroke="black" points="-173.381,-432.19 -163.482,-428.413 -173.575,-425.192 -173.381,-432.19"/>
<text text-anchor="middle" x="-326.534" y="-432.293" font-family="Times New Roman,serif" font-size="14.00">4 &#160;(4) </text>
</g>
<!-- 0_1&#45;&gt;5_8 -->
<g id="edge36" class="edge"><title>0_1&#45;&gt;5_8</title>
<path fill="none" stroke="black" d="M-472.076,-382.959C-321.461,-181.736 316.52,711.316 470.495,936.277"/>
<polygon fill="black" stroke="black" points="473.443,934.388 476.192,944.62 467.663,938.336 473.443,934.388"/>
<text text-anchor="middle" x="-24.7905" y="272.859" font-family="Times New Roman,serif" font-size="14.00">12 &#160;(12) </text>
</g>
<!-- 1_1&#45;&gt;3_6 -->
<g id="edge44" class="edge"><title>1_1&#45;&gt;3_6</title>
<path fill="none" stroke="black" d="M-281.071,-378.227C-210.349,-214.514 14.6777,347.835 81.8311,528.371"/>
<polygon fill="black" stroke="black" points="85.1853,527.35 85.3754,537.944 78.6208,529.781 85.1853,527.35"/>
<text text-anchor="middle" x="-82.6198" y="71.2723" font-family="Times New Roman,serif" font-size="14.00">7 &#160;(7) </text>
</g>
<!-- 1_1&#45;&gt;5_3 -->
<g id="edge43" class="edge"><title>1_1&#45;&gt;5_3</title>
<path fill="none" stroke="black" d="M-250.087,-401.112C-106.56,-334.087 292.696,-134.569 444.447,-54.174"/>
<polygon fill="black" stroke="black" points="446.461,-57.0672 453.649,-49.2832 443.176,-50.886 446.461,-57.0672"/>
<text text-anchor="middle" x="80.18" y="-231.443" font-family="Times New Roman,serif" font-size="14.00">6 &#160;(6) </text>
</g>
<!-- 1_1&#45;&gt;0_4 -->
<g id="edge42" class="edge"><title>1_1&#45;&gt;0_4</title>
<path fill="none" stroke="black" d="M-314.122,-376.207C-346.825,-266.005 -438.021,7.95561 -481.135,125.946"/>
<polygon fill="black" stroke="black" points="-477.919,127.342 -484.654,135.52 -484.489,124.927 -477.919,127.342"/>
<text text-anchor="middle" x="-380.628" y="-128.93" font-family="Times New Roman,serif" font-size="14.00">4 &#160;(4) </text>
</g>
<!-- 1_1&#45;&gt;0_1 -->
<g id="edge38" class="edge"><title>1_1&#45;&gt;0_1</title>
<path fill="none" stroke="black" d="M-360.711,-417.174C-384.013,-416.518 -411.022,-416.434 -435.268,-416.923"/>
<polygon fill="black" stroke="black" points="-435.558,-413.429 -445.471,-417.168 -435.39,-420.427 -435.558,-413.429"/>
<text text-anchor="middle" x="-380.989" y="-405.849" font-family="Times New Roman,serif" font-size="14.00">1 &#160;(3) </text>
</g>
<!-- 1_1&#45;&gt;1_1 -->
<g id="edge40" class="edge"><title>1_1&#45;&gt;1_1</title>
<path fill="none" stroke="black" d="M-244.213,-429.764C-233.356,-428.975 -225.71,-426.84 -225.71,-423.36 -225.71,-421.13 -228.848,-419.453 -233.958,-418.328"/>
<polygon fill="black" stroke="black" points="-233.837,-414.813 -244.213,-416.956 -234.765,-421.751 -233.837,-414.813"/>
<text text-anchor="middle" x="-208.71" y="-419.66" font-family="Times New Roman,serif" font-size="14.00">2 &#160;(4) </text>
</g>
<!-- 1_1&#45;&gt;1_5 -->
<g id="edge41" class="edge"><title>1_1&#45;&gt;1_5</title>
<path fill="none" stroke="black" d="M-298.987,-375.331C-294.638,-235.209 -294.54,172.775 -298.694,324.932"/>
<polygon fill="black" stroke="black" points="-295.198,325.115 -298.987,335.009 -302.195,324.911 -295.198,325.115"/>
<text text-anchor="middle" x="-315.841" y="-28.9996" font-family="Times New Roman,serif" font-size="14.00">4 &#160;(4) </text>
</g>
<!-- 1_1&#45;&gt;1_0 -->
<g id="edge37" class="edge"><title>1_1&#45;&gt;1_0</title>
<path fill="none" stroke="black" d="M-308.25,-471.392C-309.328,-500.062 -309.438,-536.663 -308.578,-566.942"/>
<polygon fill="black" stroke="black" points="-312.076,-567.067 -308.249,-576.947 -305.079,-566.837 -312.076,-567.067"/>
<text text-anchor="middle" x="-325.414" y="-522.967" font-family="Times New Roman,serif" font-size="14.00">1 &#160;(7) </text>
</g>
<!-- 1_1&#45;&gt;2_1 -->
<g id="edge39" class="edge"><title>1_1&#45;&gt;2_1</title>
<path fill="none" stroke="black" d="M-244.089,-429.546C-222.006,-430.168 -196.592,-430.276 -173.357,-429.869"/>
<polygon fill="black" stroke="black" points="-173.126,-433.365 -163.203,-429.654 -173.274,-426.366 -173.126,-433.365"/>
<text text-anchor="middle" x="-225.723" y="-433.507" font-family="Times New Roman,serif" font-size="14.00">1 &#160;(3) </text>
</g>
<!-- 1_1&#45;&gt;5_8 -->
<g id="edge45" class="edge"><title>1_1&#45;&gt;5_8</title>
<path fill="none" stroke="black" d="M-274.938,-380.456C-151.343,-175.283 351.816,705.098 476.166,933.533"/>
<polygon fill="black" stroke="black" points="479.422,932.194 481.117,942.653 473.27,935.534 479.422,932.194"/>
<text text-anchor="middle" x="76.6142" y="272.738" font-family="Times New Roman,serif" font-size="14.00">11 &#160;(11) </text>
</g>
<!-- 1_5&#45;&gt;3_6 -->
<g id="edge48" class="edge"><title>1_5&#45;&gt;3_6</title>
<path fill="none" stroke="black" d="M-246.729,405.553C-170.754,440.666 -35.2458,508.332 42.2174,549.762"/>
<polygon fill="black" stroke="black" points="44.2172,546.864 51.3685,554.681 40.9032,553.03 44.2172,546.864"/>
<text text-anchor="middle" x="-119.256" y="473.858" font-family="Times New Roman,serif" font-size="14.00">3 &#160;(3) </text>
</g>
<!-- 1_5&#45;&gt;5_3 -->
<g id="edge52" class="edge"><title>1_5&#45;&gt;5_3</title>
<path fill="none" stroke="black" d="M-252,353.891C-111.689,279.054 283.274,81.4601 439.371,7.86842"/>
<polygon fill="black" stroke="black" points="438.318,4.49618 448.857,3.41135 441.294,10.8317 438.318,4.49618"/>
<text text-anchor="middle" x="76.6852" y="177.08" font-family="Times New Roman,serif" font-size="14.00">6 &#160;(6) </text>
</g>
<!-- 1_5&#45;&gt;0_4 -->
<g id="edge46" class="edge"><title>1_5&#45;&gt;0_4</title>
<path fill="none" stroke="black" d="M-345.625,347.567C-380.57,314.901 -429.341,266.238 -463.529,229.986"/>
<polygon fill="black" stroke="black" points="-466.309,232.139 -470.593,222.449 -461.201,227.352 -466.309,232.139"/>
<text text-anchor="middle" x="-421.577" y="299.976" font-family="Times New Roman,serif" font-size="14.00">2 &#160;(4) </text>
</g>
<!-- 1_5&#45;&gt;0_1 -->
<g id="edge50" class="edge"><title>1_5&#45;&gt;0_1</title>
<path fill="none" stroke="black" d="M-317.635,336.135C-356.934,196.961 -459.612,-213.385 -493.355,-365.643"/>
<polygon fill="black" stroke="black" points="-496.842,-365.205 -495.57,-375.723 -490.005,-366.708 -496.842,-365.205"/>
<text text-anchor="middle" x="-422.495" y="-3.55432" font-family="Times New Roman,serif" font-size="14.00">5 &#160;(5) </text>
</g>
<!-- 1_5&#45;&gt;1_1 -->
<g id="edge49" class="edge"><title>1_5&#45;&gt;1_1</title>
<path fill="none" stroke="black" d="M-305.813,335.011C-310.162,194.889 -310.26,-213.095 -306.106,-365.252"/>
<polygon fill="black" stroke="black" points="-309.602,-365.435 -305.813,-375.329 -302.605,-365.231 -309.602,-365.435"/>
<text text-anchor="middle" x="-322.959" y="-3.92042" font-family="Times New Roman,serif" font-size="14.00">4 &#160;(4) </text>
</g>
<!-- 1_5&#45;&gt;1_5 -->
<g id="edge47" class="edge"><title>1_5&#45;&gt;1_5</title>
<path fill="none" stroke="black" d="M-239.962,376.712C-229.055,377.556 -221.467,379.665 -221.467,383.04 -221.467,385.202 -224.581,386.845 -229.687,387.968"/>
<polygon fill="black" stroke="black" points="-229.581,391.486 -239.962,389.368 -230.526,384.55 -229.581,391.486"/>
<text text-anchor="middle" x="-204.467" y="386.74" font-family="Times New Roman,serif" font-size="14.00">2 &#160;(4) </text>
</g>
<!-- 1_5&#45;&gt;1_0 -->
<g id="edge54" class="edge"><title>1_5&#45;&gt;1_0</title>
<path fill="none" stroke="black" d="M-305.5,334.762C-310.275,167.762 -310.365,-385.079 -305.77,-566.63"/>
<polygon fill="black" stroke="black" points="-309.265,-566.876 -305.497,-576.778 -302.267,-566.688 -309.265,-566.876"/>
<text text-anchor="middle" x="-322.635" y="-104.734" font-family="Times New Roman,serif" font-size="14.00">9 &#160;(9) </text>
</g>
<!-- 1_5&#45;&gt;2_1 -->
<g id="edge51" class="edge"><title>1_5&#45;&gt;2_1</title>
<path fill="none" stroke="black" d="M-293.965,335.38C-263.453,195.239 -160.981,-215.093 -118.842,-366.439"/>
<polygon fill="black" stroke="black" points="-122.104,-367.771 -116.035,-376.455 -115.364,-365.882 -122.104,-367.771"/>
<text text-anchor="middle" x="-223.403" y="-19.3296" font-family="Times New Roman,serif" font-size="14.00">5 &#160;(5) </text>
</g>
<!-- 1_5&#45;&gt;5_8 -->
<g id="edge53" class="edge"><title>1_5&#45;&gt;5_8</title>
<path fill="none" stroke="black" d="M-254.731,414.619C-112.414,515.756 308.341,831.238 453.845,945.797"/>
<polygon fill="black" stroke="black" points="456.119,943.133 461.799,952.077 451.781,948.627 456.119,943.133"/>
<text text-anchor="middle" x="82.5571" y="676.408" font-family="Times New Roman,serif" font-size="14.00">7 &#160;(7) </text>
</g>
<!-- 1_0&#45;&gt;3_6 -->
<g id="edge60" class="edge"><title>1_0&#45;&gt;3_6</title>
<path fill="none" stroke="black" d="M-283.906,-578.438C-215.492,-389.47 21.1985,320.365 84.9897,527.543"/>
<polygon fill="black" stroke="black" points="88.4001,526.727 87.9833,537.313 81.7072,528.778 88.4001,526.727"/>
<text text-anchor="middle" x="-82.4581" y="-29.2474" font-family="Times New Roman,serif" font-size="14.00">8 &#160;(8) </text>
</g>
<!-- 1_0&#45;&gt;5_3 -->
<g id="edge59" class="edge"><title>1_0&#45;&gt;5_3</title>
<path fill="none" stroke="black" d="M-252.323,-591.669C-107.75,-488.746 309.024,-176.22 453.778,-62.2553"/>
<polygon fill="black" stroke="black" points="456.012,-64.9507 461.693,-56.0073 451.675,-59.4564 456.012,-64.9507"/>
<text text-anchor="middle" x="83.7275" y="-330.762" font-family="Times New Roman,serif" font-size="14.00">7 &#160;(7) </text>
</g>
<!-- 1_0&#45;&gt;0_4 -->
<g id="edge61" class="edge"><title>1_0&#45;&gt;0_4</title>
<path fill="none" stroke="black" d="M-310.9,-577.002C-341.496,-436.559 -443.876,-26.6089 -485.975,124.581"/>
<polygon fill="black" stroke="black" points="-482.711,125.902 -488.78,134.586 -489.451,124.013 -482.711,125.902"/>
<text text-anchor="middle" x="-381.438" y="-230.011" font-family="Times New Roman,serif" font-size="14.00">9 &#160;(9) </text>
</g>
<!-- 1_0&#45;&gt;0_1 -->
<g id="edge56" class="edge"><title>1_0&#45;&gt;0_1</title>
<path fill="none" stroke="black" d="M-336.493,-583.214C-368.86,-548.495 -417.79,-499.405 -454.45,-464.778"/>
<polygon fill="black" stroke="black" points="-452.39,-461.912 -462.076,-457.619 -457.181,-467.015 -452.39,-461.912"/>
<text text-anchor="middle" x="-378.471" y="-527.796" font-family="Times New Roman,serif" font-size="14.00">2 &#160;(8) </text>
</g>
<!-- 1_0&#45;&gt;1_1 -->
<g id="edge55" class="edge"><title>1_0&#45;&gt;1_1</title>
<path fill="none" stroke="black" d="M-296.55,-576.928C-295.472,-548.258 -295.362,-511.657 -296.222,-481.378"/>
<polygon fill="black" stroke="black" points="-292.724,-481.253 -296.551,-471.373 -299.721,-481.483 -292.724,-481.253"/>
<text text-anchor="middle" x="-279.386" y="-532.953" font-family="Times New Roman,serif" font-size="14.00">1 &#160;(7) </text>
</g>
<!-- 1_0&#45;&gt;1_5 -->
<g id="edge62" class="edge"><title>1_0&#45;&gt;1_5</title>
<path fill="none" stroke="black" d="M-299.3,-576.682C-294.525,-409.682 -294.435,143.159 -299.03,324.71"/>
<polygon fill="black" stroke="black" points="-295.535,324.956 -299.303,334.858 -302.533,324.768 -295.535,324.956"/>
<text text-anchor="middle" x="-282.165" y="-129.786" font-family="Times New Roman,serif" font-size="14.00">9 &#160;(9) </text>
</g>
<!-- 1_0&#45;&gt;1_0 -->
<g id="edge58" class="edge"><title>1_0&#45;&gt;1_0</title>
<path fill="none" stroke="black" d="M-234.158,-631.176C-223.266,-630.266 -215.811,-628.194 -215.811,-624.96 -215.811,-622.888 -218.87,-621.293 -223.933,-620.175"/>
<polygon fill="black" stroke="black" points="-223.769,-616.664 -234.158,-618.744 -224.74,-623.596 -223.769,-616.664"/>
<text text-anchor="middle" x="-198.811" y="-621.26" font-family="Times New Roman,serif" font-size="14.00">2 &#160;(4) </text>
</g>
<!-- 1_0&#45;&gt;2_1 -->
<g id="edge57" class="edge"><title>1_0&#45;&gt;2_1</title>
<path fill="none" stroke="black" d="M-257.68,-588.087C-222.859,-555.451 -175,-507.67 -141.298,-471.935"/>
<polygon fill="black" stroke="black" points="-138.616,-474.192 -134.331,-464.502 -143.723,-469.405 -138.616,-474.192"/>
<text text-anchor="middle" x="-216.489" y="-533.811" font-family="Times New Roman,serif" font-size="14.00">2 &#160;(4) </text>
</g>
<!-- 1_0&#45;&gt;5_8 -->
<g id="edge63" class="edge"><title>1_0&#45;&gt;5_8</title>
<path fill="none" stroke="black" d="M-277.157,-579.959C-156.45,-351.217 359.909,681.363 479.337,932.613"/>
<polygon fill="black" stroke="black" points="482.625,931.379 483.745,941.914 476.299,934.377 482.625,931.379"/>
<text text-anchor="middle" x="77.0901" y="187.527" font-family="Times New Roman,serif" font-size="14.00">12 &#160;(12) </text>
</g>
<!-- 2_1&#45;&gt;3_6 -->
<g id="edge71" class="edge"><title>2_1&#45;&gt;3_6</title>
<path fill="none" stroke="black" d="M-88.1818,-376.026C-50.092,-210.025 61.081,345.414 92.6394,526.802"/>
<polygon fill="black" stroke="black" points="96.0931,526.234 94.3429,536.683 89.1948,527.423 96.0931,526.234"/>
<text text-anchor="middle" x="19.2288" y="71.5877" font-family="Times New Roman,serif" font-size="14.00">6 &#160;(6) </text>
</g>
<!-- 2_1&#45;&gt;5_3 -->
<g id="edge68" class="edge"><title>2_1&#45;&gt;5_3</title>
<path fill="none" stroke="black" d="M-50.4371,-394.435C62.6327,-323.58 335.652,-141.657 451.085,-60.3569"/>
<polygon fill="black" stroke="black" points="453.304,-63.0751 459.45,-54.4457 449.264,-57.3584 453.304,-63.0751"/>
<text text-anchor="middle" x="183.324" y="-231.196" font-family="Times New Roman,serif" font-size="14.00">5 &#160;(5) </text>
</g>
<!-- 2_1&#45;&gt;0_4 -->
<g id="edge69" class="edge"><title>2_1&#45;&gt;0_4</title>
<path fill="none" stroke="black" d="M-126.101,-378.797C-194.737,-268.639 -384.213,15.7746 -465.857,131.439"/>
<polygon fill="black" stroke="black" points="-463.144,133.663 -471.781,139.8 -468.856,129.617 -463.144,133.663"/>
<text text-anchor="middle" x="-278.979" y="-112.479" font-family="Times New Roman,serif" font-size="14.00">5 &#160;(5) </text>
</g>
<!-- 2_1&#45;&gt;0_1 -->
<g id="edge67" class="edge"><title>2_1&#45;&gt;0_1</title>
<path fill="none" stroke="black" d="M-163.8,-418.298C-237.414,-416.107 -358.815,-416.049 -434.94,-418.125"/>
<polygon fill="black" stroke="black" points="-435.479,-414.639 -445.371,-418.432 -435.273,-421.636 -435.479,-414.639"/>
<text text-anchor="middle" x="-316.37" y="-407.011" font-family="Times New Roman,serif" font-size="14.00">4 &#160;(4) </text>
</g>
<!-- 2_1&#45;&gt;1_1 -->
<g id="edge64" class="edge"><title>2_1&#45;&gt;1_1</title>
<path fill="none" stroke="black" d="M-163.207,-417.065C-185.67,-416.507 -211.125,-416.462 -234.067,-416.931"/>
<polygon fill="black" stroke="black" points="-234.157,-413.432 -244.069,-417.173 -233.988,-420.43 -234.157,-413.432"/>
<text text-anchor="middle" x="-181.637" y="-405.798" font-family="Times New Roman,serif" font-size="14.00">1 &#160;(3) </text>
</g>
<!-- 2_1&#45;&gt;1_5 -->
<g id="edge70" class="edge"><title>2_1&#45;&gt;1_5</title>
<path fill="none" stroke="black" d="M-109.235,-375.7C-139.747,-235.559 -242.219,174.773 -284.358,326.119"/>
<polygon fill="black" stroke="black" points="-281.096,327.451 -287.165,336.135 -287.836,325.562 -281.096,327.451"/>
<text text-anchor="middle" x="-179.797" y="-28.5904" font-family="Times New Roman,serif" font-size="14.00">5 &#160;(5) </text>
</g>
<!-- 2_1&#45;&gt;1_0 -->
<g id="edge65" class="edge"><title>2_1&#45;&gt;1_0</title>
<path fill="none" stroke="black" d="M-144.025,-458.833C-178.638,-491.189 -226.816,-539.239 -260.952,-575.378"/>
<polygon fill="black" stroke="black" points="-263.72,-573.213 -268.013,-582.899 -258.617,-578.004 -263.72,-573.213"/>
<text text-anchor="middle" x="-219.488" y="-505.906" font-family="Times New Roman,serif" font-size="14.00">2 &#160;(4) </text>
</g>
<!-- 2_1&#45;&gt;2_1 -->
<g id="edge66" class="edge"><title>2_1&#45;&gt;2_1</title>
<path fill="none" stroke="black" d="M-38.3618,-429.688C-27.4549,-428.844 -19.8675,-426.735 -19.8675,-423.36 -19.8675,-421.198 -22.9814,-419.555 -28.087,-418.432"/>
<polygon fill="black" stroke="black" points="-27.9808,-414.914 -38.3618,-417.032 -28.926,-421.85 -27.9808,-414.914"/>
<text text-anchor="middle" x="-2.86749" y="-419.66" font-family="Times New Roman,serif" font-size="14.00">2 &#160;(4) </text>
</g>
<!-- 2_1&#45;&gt;5_8 -->
<g id="edge72" class="edge"><title>2_1&#45;&gt;5_8</title>
<path fill="none" stroke="black" d="M-78.6226,-378.237C16.7496,-169.534 390.193,701.655 483.078,931.856"/>
<polygon fill="black" stroke="black" points="486.422,930.791 486.906,941.375 479.928,933.402 486.422,930.791"/>
<text text-anchor="middle" x="178.228" y="273.009" font-family="Times New Roman,serif" font-size="14.00">10 &#160;(10) </text>
</g>
<!-- 5_8&#45;&gt;3_6 -->
<g id="edge74" class="edge"><title>5_8&#45;&gt;3_6</title>
<path fill="none" stroke="black" d="M462.007,951.779C384.512,878.981 220.071,714.659 142.67,632.797"/>
<polygon fill="black" stroke="black" points="139.765,634.817 135.457,625.138 144.861,630.018 139.765,634.817"/>
<text text-anchor="middle" x="285.338" y="803.488" font-family="Times New Roman,serif" font-size="14.00">4 &#160;(4) </text>
</g>
<!-- 5_8&#45;&gt;5_3 -->
<g id="edge75" class="edge"><title>5_8&#45;&gt;5_3</title>
<path fill="none" stroke="black" d="M500.9,939.562C496.125,772.562 496.035,219.721 500.63,38.1696"/>
<polygon fill="black" stroke="black" points="497.135,37.924 500.903,28.0217 504.133,38.1122 497.135,37.924"/>
<text text-anchor="middle" x="483.765" y="500.066" font-family="Times New Roman,serif" font-size="14.00">5 &#160;(5) </text>
</g>
<!-- 5_8&#45;&gt;0_4 -->
<g id="edge77" class="edge"><title>5_8&#45;&gt;0_4</title>
<path fill="none" stroke="black" d="M457.85,954.74C290.552,827.25 -283.038,368.461 -454.946,224.752"/>
<polygon fill="black" stroke="black" points="-457.409,227.255 -462.826,218.149 -452.913,221.89 -457.409,227.255"/>
<text text-anchor="middle" x="-15.5481" y="600.946" font-family="Times New Roman,serif" font-size="14.00">9 &#160;(9) </text>
</g>
<!-- 5_8&#45;&gt;0_1 -->
<g id="edge81" class="edge"><title>5_8&#45;&gt;0_1</title>
<path fill="none" stroke="black" d="M471.226,946.304C318.959,742.721 -317.809,-148.659 -470.857,-372.326"/>
<polygon fill="black" stroke="black" points="-473.771,-370.387 -476.519,-380.62 -467.99,-374.334 -473.771,-370.387"/>
<text text-anchor="middle" x="-23.8153" y="298.189" font-family="Times New Roman,serif" font-size="14.00">12 &#160;(12) </text>
</g>
<!-- 5_8&#45;&gt;1_1 -->
<g id="edge79" class="edge"><title>5_8&#45;&gt;1_1</title>
<path fill="none" stroke="black" d="M476.304,944.549C352.164,738.413 -151.49,-142.854 -275.008,-369.864"/>
<polygon fill="black" stroke="black" points="-278.231,-368.465 -279.923,-378.924 -272.078,-371.803 -278.231,-368.465"/>
<text text-anchor="middle" x="76.6483" y="298.542" font-family="Times New Roman,serif" font-size="14.00">11 &#160;(11) </text>
</g>
<!-- 5_8&#45;&gt;1_5 -->
<g id="edge76" class="edge"><title>5_8&#45;&gt;1_5</title>
<path fill="none" stroke="black" d="M456.331,956.261C314.014,855.124 -106.74,539.642 -252.245,425.083"/>
<polygon fill="black" stroke="black" points="-254.519,427.747 -260.199,418.803 -250.181,422.253 -254.519,427.747"/>
<text text-anchor="middle" x="85.043" y="701.872" font-family="Times New Roman,serif" font-size="14.00">7 &#160;(7) </text>
</g>
<!-- 5_8&#45;&gt;1_0 -->
<g id="edge80" class="edge"><title>5_8&#45;&gt;1_0</title>
<path fill="none" stroke="black" d="M478.98,943.262C358.699,715.393 -158.157,-318.171 -277.71,-569.676"/>
<polygon fill="black" stroke="black" points="-281.002,-568.451 -282.123,-578.987 -274.677,-571.449 -281.002,-568.451"/>
<text text-anchor="middle" x="124.635" y="197.993" font-family="Times New Roman,serif" font-size="14.00">12 &#160;(12) </text>
</g>
<!-- 5_8&#45;&gt;2_1 -->
<g id="edge78" class="edge"><title>5_8&#45;&gt;2_1</title>
<path fill="none" stroke="black" d="M481.823,942.717C386.45,734.014 13.0066,-137.175 -79.8784,-367.376"/>
<polygon fill="black" stroke="black" points="-83.2225,-366.311 -83.7055,-376.895 -76.7277,-368.922 -83.2225,-366.311"/>
<text text-anchor="middle" x="176.972" y="298.871" font-family="Times New Roman,serif" font-size="14.00">10 &#160;(10) </text>
</g>
<!-- 5_8&#45;&gt;5_8 -->
<g id="edge73" class="edge"><title>5_8&#45;&gt;5_8</title>
<path fill="none" stroke="black" d="M566.438,981.512C577.345,982.356 584.933,984.465 584.933,987.84 584.933,990.002 581.819,991.645 576.713,992.768"/>
<polygon fill="black" stroke="black" points="576.819,996.286 566.438,994.168 575.874,989.35 576.819,996.286"/>
<text text-anchor="middle" x="601.933" y="991.54" font-family="Times New Roman,serif" font-size="14.00">2 &#160;(4) </text>
</g>
<!-- 7_2 -->
<g id="node10" class="node"><title>7_2</title>
<ellipse fill="green" stroke="black" cx="907.2" cy="-221.76" rx="62.8651" ry="48.1667"/>
<text text-anchor="middle" x="907.2" y="-240.56" font-family="Times New Roman,serif" font-size="14.00">7,2</text>
<text text-anchor="middle" x="907.2" y="-225.56" font-family="Times New Roman,serif" font-size="14.00">ic: 8</text>
<text text-anchor="middle" x="907.2" y="-210.56" font-family="Times New Roman,serif" font-size="14.00">free: 7,1;7,0</text>
<text text-anchor="middle" x="907.2" y="-195.56" font-family="Times New Roman,serif" font-size="14.00">swlolw: none</text>
</g>
<!-- 7_2&#45;&gt;3_6 -->
<g id="edge87" class="edge"><title>7_2&#45;&gt;3_6</title>
<path fill="none" stroke="black" d="M868.848,-183.408C735.393,-49.9529 291.581,393.859 146.864,538.576"/>
<polygon fill="black" stroke="black" points="148.933,541.457 139.387,546.053 143.983,536.507 148.933,541.457"/>
<text text-anchor="middle" x="490.856" y="173.784" font-family="Times New Roman,serif" font-size="14.00">8 &#160;(8) </text>
</g>
<!-- 7_2&#45;&gt;5_3 -->
<g id="edge82" class="edge"><title>7_2&#45;&gt;5_3</title>
<path fill="none" stroke="black" d="M854.489,-195.404C780.234,-158.277 645.092,-90.7062 566.075,-51.1973"/>
<polygon fill="black" stroke="black" points="567.234,-47.8638 556.724,-46.5221 564.103,-54.1248 567.234,-47.8638"/>
<text text-anchor="middle" x="693.282" y="-127.101" font-family="Times New Roman,serif" font-size="14.00">3 &#160;(3) </text>
</g>
<!-- 7_2&#45;&gt;0_4 -->
<g id="edge89" class="edge"><title>7_2&#45;&gt;0_4</title>
<path fill="none" stroke="black" d="M847.912,-204.821C620.883,-139.955 -192.582,92.4635 -435.213,161.787"/>
<polygon fill="black" stroke="black" points="-434.394,165.193 -444.971,164.575 -436.317,158.462 -434.394,165.193"/>
<text text-anchor="middle" x="189.349" y="-25.317" font-family="Times New Roman,serif" font-size="14.00">9 &#160;(9) </text>
</g>
<!-- 7_2&#45;&gt;0_1 -->
<g id="edge86" class="edge"><title>7_2&#45;&gt;0_1</title>
<path fill="none" stroke="black" d="M845.199,-230.617C614.189,-263.619 -195.551,-379.296 -436.113,-413.662"/>
<polygon fill="black" stroke="black" points="-436.719,-410.213 -446.123,-415.092 -435.729,-417.142 -436.719,-410.213"/>
<text text-anchor="middle" x="187.543" y="-325.94" font-family="Times New Roman,serif" font-size="14.00">8 &#160;(8) </text>
</g>
<!-- 7_2&#45;&gt;1_1 -->
<g id="edge84" class="edge"><title>7_2&#45;&gt;1_1</title>
<path fill="none" stroke="black" d="M845.553,-232.035C640.097,-266.277 -20.3984,-376.36 -234.626,-412.064"/>
<polygon fill="black" stroke="black" points="-235.5,-408.662 -244.788,-413.758 -234.349,-415.566 -235.5,-408.662"/>
<text text-anchor="middle" x="288.463" y="-325.849" font-family="Times New Roman,serif" font-size="14.00">7 &#160;(7) </text>
</g>
<!-- 7_2&#45;&gt;1_5 -->
<g id="edge90" class="edge"><title>7_2&#45;&gt;1_5</title>
<path fill="none" stroke="black" d="M854.447,-195.384C658.088,-97.2041 -29.9741,246.827 -240.635,352.158"/>
<polygon fill="black" stroke="black" points="-239.201,355.354 -249.711,356.695 -242.332,349.093 -239.201,355.354"/>
<text text-anchor="middle" x="289.906" y="74.587" font-family="Times New Roman,serif" font-size="14.00">9 &#160;(9) </text>
</g>
<!-- 7_2&#45;&gt;1_0 -->
<g id="edge85" class="edge"><title>7_2&#45;&gt;1_0</title>
<path fill="none" stroke="black" d="M849.266,-241.071C649.361,-307.706 -11.2773,-527.919 -230.786,-601.089"/>
<polygon fill="black" stroke="black" points="-231.901,-597.771 -240.281,-604.254 -229.687,-604.412 -231.901,-597.771"/>
<text text-anchor="middle" x="292.24" y="-424.88" font-family="Times New Roman,serif" font-size="14.00">8 &#160;(8) </text>
</g>
<!-- 7_2&#45;&gt;2_1 -->
<g id="edge83" class="edge"><title>7_2&#45;&gt;2_1</title>
<path fill="none" stroke="black" d="M846.039,-233.992C669.393,-269.321 159.051,-371.39 -29.6004,-409.12"/>
<polygon fill="black" stroke="black" points="-30.5631,-405.743 -39.6825,-411.136 -29.1902,-412.607 -30.5631,-405.743"/>
<text text-anchor="middle" x="391.219" y="-325.356" font-family="Times New Roman,serif" font-size="14.00">6 &#160;(6) </text>
</g>
<!-- 7_2&#45;&gt;5_8 -->
<g id="edge88" class="edge"><title>7_2&#45;&gt;5_8</title>
<path fill="none" stroke="black" d="M891.641,-175.083C828.526,14.2628 591.69,724.77 522.866,931.243"/>
<polygon fill="black" stroke="black" points="526.104,932.597 519.621,940.977 519.463,930.383 526.104,932.597"/>
<text text-anchor="middle" x="690.253" y="374.28" font-family="Times New Roman,serif" font-size="14.00">8 &#160;(8) </text>
</g>
</g>
</svg>
