<?xml version="1.0" encoding="UTF-8" standalone="no"?>
<!DOCTYPE svg PUBLIC "-//W3C//DTD SVG 1.1//EN"
 "http://www.w3.org/Graphics/SVG/1.1/DTD/svg11.dtd">
<!-- Generated by graphviz version 2.38.0 (20140413.2041)
 -->
<!-- Title: example2.txt_fields Pages: 1 -->
<svg width="1747pt" height="1717pt"
 viewBox="0.00 0.00 1746.66 1716.97" xmlns="http://www.w3.org/2000/svg" xmlns:xlink="http://www.w3.org/1999/xlink">
<g id="graph0" class="graph" transform="scale(1 1) rotate(0) translate(953.972 1019.76)">
<title>example2.txt_fields</title>
<polygon fill="white" stroke="none" points="-953.972,697.203 -953.972,-1019.76 792.692,-1019.76 792.692,697.203 -953.972,697.203"/>
<!-- 0_3 -->
<g id="node1" class="node"><title>0_3</title>
<ellipse fill="none" stroke="black" cx="-887.04" cy="-362.88" rx="62.8651" ry="48.1667"/>
<text text-anchor="middle" x="-887.04" y="-381.68" font-family="Times New Roman,serif" font-size="14.00">0,3</text>
<text text-anchor="middle" x="-887.04" y="-366.68" font-family="Times New Roman,serif" font-size="14.00">ic: 8</text>
<text text-anchor="middle" x="-887.04" y="-351.68" font-family="Times New Roman,serif" font-size="14.00">free: 0,2;0,1</text>
<text text-anchor="middle" x="-887.04" y="-336.68" font-family="Times New Roman,serif" font-size="14.00">swlolw: none</text>
</g>
<!-- 0_3&#45;&gt;0_3 -->
<g id="edge1" class="edge"><title>0_3&#45;&gt;0_3</title>
<path fill="none" stroke="black" d="M-824.602,-369.208C-813.695,-368.364 -806.107,-366.255 -806.107,-362.88 -806.107,-360.718 -809.221,-359.075 -814.327,-357.952"/>
<polygon fill="black" stroke="black" points="-814.221,-354.434 -824.602,-356.552 -815.166,-361.37 -814.221,-354.434"/>
<text text-anchor="middle" x="-789.107" y="-359.18" font-family="Times New Roman,serif" font-size="14.00">2 &#160;(4) </text>
</g>
<!-- 3_7 -->
<g id="node2" class="node"><title>3_7</title>
<ellipse fill="none" stroke="black" cx="-282.24" cy="443.52" rx="62.8651" ry="48.1667"/>
<text text-anchor="middle" x="-282.24" y="424.72" font-family="Times New Roman,serif" font-size="14.00">3,7</text>
<text text-anchor="middle" x="-282.24" y="439.72" font-family="Times New Roman,serif" font-size="14.00">ic: 4</text>
<text text-anchor="middle" x="-282.24" y="454.72" font-family="Times New Roman,serif" font-size="14.00">free: 3,6;3,5</text>
<text text-anchor="middle" x="-282.24" y="469.72" font-family="Times New Roman,serif" font-size="14.00">swlolw: none</text>
</g>
<!-- 0_3&#45;&gt;3_7 -->
<g id="edge4" class="edge"><title>0_3&#45;&gt;3_7</title>
<path fill="none" stroke="black" d="M-852.575,-322.318C-746.053,-187.971 -423.334,242.194 -316.751,391.731"/>
<polygon fill="black" stroke="black" points="-313.581,390.15 -310.642,400.329 -319.287,394.205 -313.581,390.15"/>
<text text-anchor="middle" x="-601.663" y="30.9068" font-family="Times New Roman,serif" font-size="14.00">7 &#160;(7) </text>
</g>
<!-- 2_8 -->
<g id="node3" class="node"><title>2_8</title>
<ellipse fill="none" stroke="black" cx="-483.84" cy="645.12" rx="62.8651" ry="48.1667"/>
<text text-anchor="middle" x="-483.84" y="626.32" font-family="Times New Roman,serif" font-size="14.00">2,8</text>
<text text-anchor="middle" x="-483.84" y="641.32" font-family="Times New Roman,serif" font-size="14.00">ic: 9</text>
<text text-anchor="middle" x="-483.84" y="656.32" font-family="Times New Roman,serif" font-size="14.00">free: 2,7;2,6</text>
<text text-anchor="middle" x="-483.84" y="671.32" font-family="Times New Roman,serif" font-size="14.00">swlolw: none</text>
</g>
<!-- 0_3&#45;&gt;2_8 -->
<g id="edge5" class="edge"><title>0_3&#45;&gt;2_8</title>
<path fill="none" stroke="black" d="M-865.568,-317.417C-794.68,-153.263 -569.868,408.558 -502.787,588.91"/>
<polygon fill="black" stroke="black" points="-499.436,587.88 -499.246,598.473 -506.001,590.31 -499.436,587.88"/>
<text text-anchor="middle" x="-701.178" y="131.947" font-family="Times New Roman,serif" font-size="14.00">7 &#160;(7) </text>
</g>
<!-- 3_0 -->
<g id="node4" class="node"><title>3_0</title>
<ellipse fill="none" stroke="black" cx="-282.24" cy="-967.68" rx="62.8651" ry="48.1667"/>
<text text-anchor="middle" x="-282.24" y="-986.48" font-family="Times New Roman,serif" font-size="14.00">3,0</text>
<text text-anchor="middle" x="-282.24" y="-971.48" font-family="Times New Roman,serif" font-size="14.00">ic: 7</text>
<text text-anchor="middle" x="-282.24" y="-956.48" font-family="Times New Roman,serif" font-size="14.00">free: 4,0;5,0</text>
<text text-anchor="middle" x="-282.24" y="-941.48" font-family="Times New Roman,serif" font-size="14.00">swlolw: none</text>
</g>
<!-- 0_3&#45;&gt;3_0 -->
<g id="edge2" class="edge"><title>0_3&#45;&gt;3_0</title>
<path fill="none" stroke="black" d="M-851.672,-403.178C-748.772,-512.079 -449.652,-811.349 -331.261,-924.039"/>
<polygon fill="black" stroke="black" points="-333.391,-926.843 -323.728,-931.188 -328.572,-921.765 -333.391,-926.843"/>
<text text-anchor="middle" x="-608.467" y="-667.409" font-family="Times New Roman,serif" font-size="14.00">6 &#160;(6) </text>
</g>
<!-- 4_7 -->
<g id="node5" class="node"><title>4_7</title>
<ellipse fill="none" stroke="black" cx="-80.64" cy="443.52" rx="62.8651" ry="48.1667"/>
<text text-anchor="middle" x="-80.64" y="424.72" font-family="Times New Roman,serif" font-size="14.00">4,7</text>
<text text-anchor="middle" x="-80.64" y="439.72" font-family="Times New Roman,serif" font-size="14.00">ic: 6</text>
<text text-anchor="middle" x="-80.64" y="454.72" font-family="Times New Roman,serif" font-size="14.00">free: 4,6;4,5</text>
<text text-anchor="middle" x="-80.64" y="469.72" font-family="Times New Roman,serif" font-size="14.00">swlolw: none</text>
</g>
<!-- 0_3&#45;&gt;4_7 -->
<g id="edge7" class="edge"><title>0_3&#45;&gt;4_7</title>
<path fill="none" stroke="black" d="M-845.947,-326.185C-708.272,-195.267 -264.374,248.526 -123.752,395.696"/>
<polygon fill="black" stroke="black" points="-120.864,393.653 -116.498,403.307 -125.931,398.483 -120.864,393.653"/>
<text text-anchor="middle" x="-501.849" y="30.9557" font-family="Times New Roman,serif" font-size="14.00">8 &#160;(8) </text>
</g>
<!-- 6_4 -->
<g id="node6" class="node"><title>6_4</title>
<ellipse fill="none" stroke="black" cx="322.56" cy="-161.28" rx="62.8651" ry="48.1667"/>
<text text-anchor="middle" x="322.56" y="-180.08" font-family="Times New Roman,serif" font-size="14.00">6,4</text>
<text text-anchor="middle" x="322.56" y="-165.08" font-family="Times New Roman,serif" font-size="14.00">ic: 2</text>
<text text-anchor="middle" x="322.56" y="-150.08" font-family="Times New Roman,serif" font-size="14.00">free: 5,4;5,3</text>
<text text-anchor="middle" x="322.56" y="-135.08" font-family="Times New Roman,serif" font-size="14.00">swlolw: none</text>
</g>
<!-- 0_3&#45;&gt;6_4 -->
<g id="edge6" class="edge"><title>0_3&#45;&gt;6_4</title>
<path fill="none" stroke="black" d="M-824.448,-355.688C-618.809,-326.151 35.2145,-217.214 251.996,-176.481"/>
<polygon fill="black" stroke="black" points="252.809,-179.89 261.985,-174.594 251.509,-173.011 252.809,-179.89"/>
<text text-anchor="middle" x="-303.226" y="-269.885" font-family="Times New Roman,serif" font-size="14.00">7 &#160;(7) </text>
</g>
<!-- 7_4 -->
<g id="node7" class="node"><title>7_4</title>
<ellipse fill="none" stroke="black" cx="524.16" cy="-161.28" rx="62.8651" ry="48.1667"/>
<text text-anchor="middle" x="524.16" y="-180.08" font-family="Times New Roman,serif" font-size="14.00">7,4</text>
<text text-anchor="middle" x="524.16" y="-165.08" font-family="Times New Roman,serif" font-size="14.00">ic: 2</text>
<text text-anchor="middle" x="524.16" y="-150.08" font-family="Times New Roman,serif" font-size="14.00">free: 7,3;7,2</text>
<text text-anchor="middle" x="524.16" y="-135.08" font-family="Times New Roman,serif" font-size="14.00">swlolw: none</text>
</g>
<!-- 0_3&#45;&gt;7_4 -->
<g id="edge9" class="edge"><title>0_3&#45;&gt;7_4</title>
<path fill="none" stroke="black" d="M-824.158,-356.92C-593.131,-328.91 207.999,-214.529 452.65,-174.716"/>
<polygon fill="black" stroke="black" points="453.541,-178.116 462.844,-173.047 452.41,-171.208 453.541,-178.116"/>
<text text-anchor="middle" x="-209.754" y="-269.618" font-family="Times New Roman,serif" font-size="14.00">10 &#160;(10) </text>
</g>
<!-- 6_3 -->
<g id="node8" class="node"><title>6_3</title>
<ellipse fill="none" stroke="black" cx="322.56" cy="-362.88" rx="62.8651" ry="48.1667"/>
<text text-anchor="middle" x="322.56" y="-381.68" font-family="Times New Roman,serif" font-size="14.00">6,3</text>
<text text-anchor="middle" x="322.56" y="-366.68" font-family="Times New Roman,serif" font-size="14.00">ic: 5</text>
<text text-anchor="middle" x="322.56" y="-351.68" font-family="Times New Roman,serif" font-size="14.00">free: 6,2;6,1</text>
<text text-anchor="middle" x="322.56" y="-336.68" font-family="Times New Roman,serif" font-size="14.00">swlolw: none</text>
</g>
<!-- 0_3&#45;&gt;6_3 -->
<g id="edge3" class="edge"><title>0_3&#45;&gt;6_3</title>
<path fill="none" stroke="black" d="M-824.132,-366.095C-618.986,-370.733 29.9764,-370.807 249.309,-366.318"/>
<polygon fill="black" stroke="black" points="249.503,-369.814 259.425,-366.101 249.352,-362.816 249.503,-369.814"/>
<text text-anchor="middle" x="-304.412" y="-370.007" font-family="Times New Roman,serif" font-size="14.00">6 &#160;(6) </text>
</g>
<!-- 5_7 -->
<g id="node9" class="node"><title>5_7</title>
<ellipse fill="none" stroke="black" cx="120.96" cy="443.52" rx="62.8651" ry="48.1667"/>
<text text-anchor="middle" x="120.96" y="424.72" font-family="Times New Roman,serif" font-size="14.00">5,7</text>
<text text-anchor="middle" x="120.96" y="439.72" font-family="Times New Roman,serif" font-size="14.00">ic: 7</text>
<text text-anchor="middle" x="120.96" y="454.72" font-family="Times New Roman,serif" font-size="14.00">free: 5,6;5,5</text>
<text text-anchor="middle" x="120.96" y="469.72" font-family="Times New Roman,serif" font-size="14.00">swlolw: none</text>
</g>
<!-- 0_3&#45;&gt;5_7 -->
<g id="edge8" class="edge"><title>0_3&#45;&gt;5_7</title>
<path fill="none" stroke="black" d="M-840.89,-329.78C-673.592,-202.29 -100.002,256.499 71.9065,400.208"/>
<polygon fill="black" stroke="black" points="74.369,397.705 79.7858,406.811 69.873,403.07 74.369,397.705"/>
<text text-anchor="middle" x="-401.492" y="31.414" font-family="Times New Roman,serif" font-size="14.00">9 &#160;(9) </text>
</g>
<!-- 3_7&#45;&gt;0_3 -->
<g id="edge16" class="edge"><title>3_7&#45;&gt;0_3</title>
<path fill="none" stroke="black" d="M-316.705,402.958C-423.227,268.611 -745.946,-161.554 -852.529,-311.091"/>
<polygon fill="black" stroke="black" points="-855.699,-309.51 -858.638,-319.689 -849.993,-313.565 -855.699,-309.51"/>
<text text-anchor="middle" x="-601.617" y="57.1332" font-family="Times New Roman,serif" font-size="14.00">7 &#160;(7) </text>
</g>
<!-- 3_7&#45;&gt;3_7 -->
<g id="edge12" class="edge"><title>3_7&#45;&gt;3_7</title>
<path fill="none" stroke="black" d="M-219.802,437.192C-208.895,438.036 -201.308,440.145 -201.308,443.52 -201.308,445.682 -204.421,447.325 -209.527,448.448"/>
<polygon fill="black" stroke="black" points="-209.421,451.966 -219.802,449.848 -210.366,445.03 -209.421,451.966"/>
<text text-anchor="middle" x="-184.308" y="447.22" font-family="Times New Roman,serif" font-size="14.00">2 &#160;(4) </text>
</g>
<!-- 3_7&#45;&gt;2_8 -->
<g id="edge11" class="edge"><title>3_7&#45;&gt;2_8</title>
<path fill="none" stroke="black" d="M-315.877,484.777C-347.867,519.123 -396.328,567.778 -433.014,602.496"/>
<polygon fill="black" stroke="black" points="-430.972,605.38 -440.654,609.683 -435.768,600.282 -430.972,605.38"/>
<text text-anchor="middle" x="-391.446" y="539.836" font-family="Times New Roman,serif" font-size="14.00">2 &#160;(4) </text>
</g>
<!-- 3_7&#45;&gt;3_0 -->
<g id="edge15" class="edge"><title>3_7&#45;&gt;3_0</title>
<path fill="none" stroke="black" d="M-284.901,395.352C-290.271,182.096 -290.352,-676.754 -285.142,-909.343"/>
<polygon fill="black" stroke="black" points="-288.635,-909.705 -284.898,-919.619 -281.637,-909.539 -288.635,-909.705"/>
<text text-anchor="middle" x="-302.022" y="-245.796" font-family="Times New Roman,serif" font-size="14.00">7 &#160;(7) </text>
</g>
<!-- 3_7&#45;&gt;4_7 -->
<g id="edge10" class="edge"><title>3_7&#45;&gt;4_7</title>
<path fill="none" stroke="black" d="M-219.833,437.225C-198.769,436.702 -175.075,436.63 -153.289,437.01"/>
<polygon fill="black" stroke="black" points="-153.023,433.514 -143.099,437.224 -153.171,440.513 -153.023,433.514"/>
<text text-anchor="middle" x="-169.561" y="433.318" font-family="Times New Roman,serif" font-size="14.00">1 &#160;(3) </text>
</g>
<!-- 3_7&#45;&gt;6_4 -->
<g id="edge14" class="edge"><title>3_7&#45;&gt;6_4</title>
<path fill="none" stroke="black" d="M-246.872,403.222C-143.972,294.321 155.148,-4.94856 273.539,-117.639"/>
<polygon fill="black" stroke="black" points="271.409,-120.443 281.072,-124.788 276.228,-115.365 271.409,-120.443"/>
<text text-anchor="middle" x="-3.66659" y="138.991" font-family="Times New Roman,serif" font-size="14.00">6 &#160;(6) </text>
</g>
<!-- 3_7&#45;&gt;7_4 -->
<g id="edge18" class="edge"><title>3_7&#45;&gt;7_4</title>
<path fill="none" stroke="black" d="M-239.999,407.725C-105.055,300.879 315.506,-14.6654 468.132,-123.743"/>
<polygon fill="black" stroke="black" points="466.322,-126.752 476.497,-129.706 470.385,-121.051 466.322,-126.752"/>
<text text-anchor="middle" x="97.0664" y="138.191" font-family="Times New Roman,serif" font-size="14.00">7 &#160;(7) </text>
</g>
<!-- 3_7&#45;&gt;6_3 -->
<g id="edge17" class="edge"><title>3_7&#45;&gt;6_3</title>
<path fill="none" stroke="black" d="M-253.966,400.51C-156.215,262.429 167.15,-168.893 281.843,-314.408"/>
<polygon fill="black" stroke="black" points="279.174,-316.676 288.121,-322.35 284.666,-312.335 279.174,-316.676"/>
<text text-anchor="middle" x="-3.06146" y="39.2511" font-family="Times New Roman,serif" font-size="14.00">7 &#160;(7) </text>
</g>
<!-- 3_7&#45;&gt;5_7 -->
<g id="edge13" class="edge"><title>3_7&#45;&gt;5_7</title>
<path fill="none" stroke="black" d="M-219.24,438.457C-146.853,436.303 -28.2593,436.212 48.0553,438.183"/>
<polygon fill="black" stroke="black" points="48.1717,434.685 58.0707,438.461 47.9774,441.682 48.1717,434.685"/>
<text text-anchor="middle" x="-102.592" y="434.52" font-family="Times New Roman,serif" font-size="14.00">4 &#160;(4) </text>
</g>
<!-- 2_8&#45;&gt;0_3 -->
<g id="edge23" class="edge"><title>2_8&#45;&gt;0_3</title>
<path fill="none" stroke="black" d="M-505.312,599.657C-576.2,435.503 -801.012,-126.318 -868.093,-306.67"/>
<polygon fill="black" stroke="black" points="-871.444,-305.64 -871.634,-316.233 -864.879,-308.07 -871.444,-305.64"/>
<text text-anchor="middle" x="-703.702" y="157.693" font-family="Times New Roman,serif" font-size="14.00">7 &#160;(7) </text>
</g>
<!-- 2_8&#45;&gt;3_7 -->
<g id="edge19" class="edge"><title>2_8&#45;&gt;3_7</title>
<path fill="none" stroke="black" d="M-450.203,603.863C-418.213,569.517 -369.752,520.861 -333.066,486.144"/>
<polygon fill="black" stroke="black" points="-335.108,483.26 -325.426,478.957 -330.312,488.358 -335.108,483.26"/>
<text text-anchor="middle" x="-408.634" y="556.204" font-family="Times New Roman,serif" font-size="14.00">2 &#160;(4) </text>
</g>
<!-- 2_8&#45;&gt;2_8 -->
<g id="edge20" class="edge"><title>2_8&#45;&gt;2_8</title>
<path fill="none" stroke="black" d="M-421.402,638.792C-410.495,639.636 -402.907,641.745 -402.907,645.12 -402.907,647.282 -406.021,648.925 -411.127,650.048"/>
<polygon fill="black" stroke="black" points="-411.021,653.566 -421.402,651.448 -411.966,646.63 -411.021,653.566"/>
<text text-anchor="middle" x="-385.907" y="648.82" font-family="Times New Roman,serif" font-size="14.00">2 &#160;(4) </text>
</g>
<!-- 2_8&#45;&gt;3_0 -->
<g id="edge25" class="edge"><title>2_8&#45;&gt;3_0</title>
<path fill="none" stroke="black" d="M-480.337,596.98C-456.721,362.956 -329.562,-654.949 -292.239,-909.71"/>
<polygon fill="black" stroke="black" points="-295.663,-910.479 -290.739,-919.86 -288.739,-909.456 -295.663,-910.479"/>
<text text-anchor="middle" x="-403.288" y="-160.165" font-family="Times New Roman,serif" font-size="14.00">9 &#160;(9) </text>
</g>
<!-- 2_8&#45;&gt;4_7 -->
<g id="edge21" class="edge"><title>2_8&#45;&gt;4_7</title>
<path fill="none" stroke="black" d="M-434.461,615.19C-361.985,576.026 -226.73,508.257 -146.065,470.567"/>
<polygon fill="black" stroke="black" points="-147.05,467.165 -136.506,466.124 -144.099,473.513 -147.05,467.165"/>
<text text-anchor="middle" x="-307.263" y="539.078" font-family="Times New Roman,serif" font-size="14.00">3 &#160;(3) </text>
</g>
<!-- 2_8&#45;&gt;6_4 -->
<g id="edge24" class="edge"><title>2_8&#45;&gt;6_4</title>
<path fill="none" stroke="black" d="M-448.199,605.136C-318.855,468.992 125.603,24.3999 273.955,-117.422"/>
<polygon fill="black" stroke="black" points="271.56,-119.974 281.213,-124.343 276.391,-114.909 271.56,-119.974"/>
<text text-anchor="middle" x="-104.122" y="240.057" font-family="Times New Roman,serif" font-size="14.00">8 &#160;(8) </text>
</g>
<!-- 2_8&#45;&gt;7_4 -->
<g id="edge27" class="edge"><title>2_8&#45;&gt;7_4</title>
<path fill="none" stroke="black" d="M-442.689,608.43C-283.613,474.781 290.854,15.0974 470.264,-122.262"/>
<polygon fill="black" stroke="black" points="468.182,-125.076 478.253,-128.365 472.431,-119.513 468.182,-125.076"/>
<text text-anchor="middle" x="-3.21243" y="239.284" font-family="Times New Roman,serif" font-size="14.00">9 &#160;(9) </text>
</g>
<!-- 2_8&#45;&gt;6_3 -->
<g id="edge26" class="edge"><title>2_8&#45;&gt;6_3</title>
<path fill="none" stroke="black" d="M-453.717,602.882C-330.223,440.369 136.958,-143.754 280.436,-315.248"/>
<polygon fill="black" stroke="black" points="277.913,-317.686 287.021,-323.099 283.277,-313.188 277.913,-317.686"/>
<text text-anchor="middle" x="-103.64" y="140.017" font-family="Times New Roman,serif" font-size="14.00">9 &#160;(9) </text>
</g>
<!-- 2_8&#45;&gt;5_7 -->
<g id="edge22" class="edge"><title>2_8&#45;&gt;5_7</title>
<path fill="none" stroke="black" d="M-428.253,622.221C-317.627,581.802 -70.1573,499.199 51.1849,462.069"/>
<polygon fill="black" stroke="black" points="50.5279,458.611 61.1137,459.047 52.566,465.307 50.5279,458.611"/>
<text text-anchor="middle" x="-205.534" y="538.345" font-family="Times New Roman,serif" font-size="14.00">4 &#160;(4) </text>
</g>
<!-- 3_0&#45;&gt;0_3 -->
<g id="edge29" class="edge"><title>3_0&#45;&gt;0_3</title>
<path fill="none" stroke="black" d="M-317.608,-927.382C-420.508,-818.481 -719.628,-519.211 -838.019,-406.521"/>
<polygon fill="black" stroke="black" points="-835.889,-403.717 -845.552,-399.372 -840.708,-408.795 -835.889,-403.717"/>
<text text-anchor="middle" x="-560.813" y="-670.751" font-family="Times New Roman,serif" font-size="14.00">6 &#160;(6) </text>
</g>
<!-- 3_0&#45;&gt;3_7 -->
<g id="edge31" class="edge"><title>3_0&#45;&gt;3_7</title>
<path fill="none" stroke="black" d="M-279.579,-919.512C-274.209,-706.256 -274.128,152.594 -279.338,385.183"/>
<polygon fill="black" stroke="black" points="-275.845,385.545 -279.582,395.459 -282.843,385.379 -275.845,385.545"/>
<text text-anchor="middle" x="-262.458" y="-270.964" font-family="Times New Roman,serif" font-size="14.00">7 &#160;(7) </text>
</g>
<!-- 3_0&#45;&gt;2_8 -->
<g id="edge36" class="edge"><title>3_0&#45;&gt;2_8</title>
<path fill="none" stroke="black" d="M-285.743,-919.54C-309.359,-685.516 -436.518,332.389 -473.841,587.15"/>
<polygon fill="black" stroke="black" points="-470.417,587.919 -475.341,597.3 -477.341,586.896 -470.417,587.919"/>
<text text-anchor="middle" x="-362.792" y="-169.995" font-family="Times New Roman,serif" font-size="14.00">9 &#160;(9) </text>
</g>
<!-- 3_0&#45;&gt;3_0 -->
<g id="edge28" class="edge"><title>3_0&#45;&gt;3_0</title>
<path fill="none" stroke="black" d="M-219.802,-974.008C-208.895,-973.164 -201.308,-971.055 -201.308,-967.68 -201.308,-965.518 -204.421,-963.875 -209.527,-962.752"/>
<polygon fill="black" stroke="black" points="-209.421,-959.234 -219.802,-961.352 -210.366,-966.17 -209.421,-959.234"/>
<text text-anchor="middle" x="-184.308" y="-963.98" font-family="Times New Roman,serif" font-size="14.00">2 &#160;(4) </text>
</g>
<!-- 3_0&#45;&gt;4_7 -->
<g id="edge34" class="edge"><title>3_0&#45;&gt;4_7</title>
<path fill="none" stroke="black" d="M-272.725,-919.888C-236.905,-707.168 -113.912,153.258 -86.0124,385.508"/>
<polygon fill="black" stroke="black" points="-82.536,385.103 -84.8317,395.446 -89.4871,385.929 -82.536,385.103"/>
<text text-anchor="middle" x="-162.368" y="-270.99" font-family="Times New Roman,serif" font-size="14.00">8 &#160;(8) </text>
</g>
<!-- 3_0&#45;&gt;6_4 -->
<g id="edge32" class="edge"><title>3_0&#45;&gt;6_4</title>
<path fill="none" stroke="black" d="M-247.775,-927.118C-141.253,-792.771 181.466,-362.606 288.049,-213.069"/>
<polygon fill="black" stroke="black" points="291.219,-214.65 294.158,-204.471 285.513,-210.595 291.219,-214.65"/>
<text text-anchor="middle" x="3.13691" y="-573.893" font-family="Times New Roman,serif" font-size="14.00">7 &#160;(7) </text>
</g>
<!-- 3_0&#45;&gt;7_4 -->
<g id="edge33" class="edge"><title>3_0&#45;&gt;7_4</title>
<path fill="none" stroke="black" d="M-241.147,-930.984C-103.472,-800.067 340.426,-356.274 481.048,-209.104"/>
<polygon fill="black" stroke="black" points="483.936,-211.147 488.302,-201.493 478.869,-206.317 483.936,-211.147"/>
<text text-anchor="middle" x="102.951" y="-573.844" font-family="Times New Roman,serif" font-size="14.00">8 &#160;(8) </text>
</g>
<!-- 3_0&#45;&gt;6_3 -->
<g id="edge30" class="edge"><title>3_0&#45;&gt;6_3</title>
<path fill="none" stroke="black" d="M-240.519,-930.968C-129.967,-826.366 169.368,-527.129 280.408,-410.336"/>
<polygon fill="black" stroke="black" points="283.107,-412.576 287.446,-402.91 278.026,-407.761 283.107,-412.576"/>
<text text-anchor="middle" x="2.94436" y="-674.452" font-family="Times New Roman,serif" font-size="14.00">6 &#160;(6) </text>
</g>
<!-- 3_0&#45;&gt;5_7 -->
<g id="edge35" class="edge"><title>3_0&#45;&gt;5_7</title>
<path fill="none" stroke="black" d="M-266.171,-921.049C-200.283,-710.114 46.8165,154.465 107.55,386.168"/>
<polygon fill="black" stroke="black" points="110.998,385.518 110.134,396.078 104.224,387.284 110.998,385.518"/>
<text text-anchor="middle" x="-96.3102" y="-271.24" font-family="Times New Roman,serif" font-size="14.00">9 &#160;(9) </text>
</g>
<!-- 4_7&#45;&gt;0_3 -->
<g id="edge45" class="edge"><title>4_7&#45;&gt;0_3</title>
<path fill="none" stroke="black" d="M-121.733,406.825C-259.408,275.907 -703.306,-167.886 -843.928,-315.056"/>
<polygon fill="black" stroke="black" points="-846.816,-313.013 -851.182,-322.667 -841.749,-317.843 -846.816,-313.013"/>
<text text-anchor="middle" x="-499.831" y="57.0843" font-family="Times New Roman,serif" font-size="14.00">8 &#160;(8) </text>
</g>
<!-- 4_7&#45;&gt;3_7 -->
<g id="edge37" class="edge"><title>4_7&#45;&gt;3_7</title>
<path fill="none" stroke="black" d="M-143.047,449.815C-164.111,450.338 -187.805,450.41 -209.591,450.03"/>
<polygon fill="black" stroke="black" points="-209.857,453.526 -219.781,449.816 -209.709,446.527 -209.857,453.526"/>
<text text-anchor="middle" x="-167.819" y="461.122" font-family="Times New Roman,serif" font-size="14.00">1 &#160;(3) </text>
</g>
<!-- 4_7&#45;&gt;2_8 -->
<g id="edge40" class="edge"><title>4_7&#45;&gt;2_8</title>
<path fill="none" stroke="black" d="M-130.019,473.45C-202.495,512.614 -337.75,580.383 -418.415,618.073"/>
<polygon fill="black" stroke="black" points="-417.43,621.475 -427.974,622.516 -420.381,615.127 -417.43,621.475"/>
<text text-anchor="middle" x="-291.217" y="556.962" font-family="Times New Roman,serif" font-size="14.00">3 &#160;(3) </text>
</g>
<!-- 4_7&#45;&gt;3_0 -->
<g id="edge44" class="edge"><title>4_7&#45;&gt;3_0</title>
<path fill="none" stroke="black" d="M-90.1554,395.728C-125.975,183.008 -248.968,-677.418 -276.868,-909.668"/>
<polygon fill="black" stroke="black" points="-280.344,-909.263 -278.048,-919.606 -273.393,-910.089 -280.344,-909.263"/>
<text text-anchor="middle" x="-200.512" y="-245.77" font-family="Times New Roman,serif" font-size="14.00">8 &#160;(8) </text>
</g>
<!-- 4_7&#45;&gt;4_7 -->
<g id="edge39" class="edge"><title>4_7&#45;&gt;4_7</title>
<path fill="none" stroke="black" d="M-18.2018,437.192C-7.29492,438.036 0.292503,440.145 0.292503,443.52 0.292503,445.682 -2.82138,447.325 -7.92705,448.448"/>
<polygon fill="black" stroke="black" points="-7.82083,451.966 -18.2018,449.848 -8.76597,445.03 -7.82083,451.966"/>
<text text-anchor="middle" x="17.2925" y="447.22" font-family="Times New Roman,serif" font-size="14.00">2 &#160;(4) </text>
</g>
<!-- 4_7&#45;&gt;6_4 -->
<g id="edge41" class="edge"><title>4_7&#45;&gt;6_4</title>
<path fill="none" stroke="black" d="M-55.3392,398.957C13.2973,288.799 202.773,4.38536 284.417,-111.279"/>
<polygon fill="black" stroke="black" points="281.704,-113.503 290.341,-119.64 287.416,-109.457 281.704,-113.503"/>
<text text-anchor="middle" x="97.5391" y="155.039" font-family="Times New Roman,serif" font-size="14.00">5 &#160;(5) </text>
</g>
<!-- 4_7&#45;&gt;7_4 -->
<g id="edge43" class="edge"><title>4_7&#45;&gt;7_4</title>
<path fill="none" stroke="black" d="M-45.2725,403.222C57.6283,294.321 356.748,-4.94856 475.139,-117.639"/>
<polygon fill="black" stroke="black" points="473.009,-120.443 482.672,-124.788 477.828,-115.365 473.009,-120.443"/>
<text text-anchor="middle" x="197.933" y="138.991" font-family="Times New Roman,serif" font-size="14.00">6 &#160;(6) </text>
</g>
<!-- 4_7&#45;&gt;6_3 -->
<g id="edge42" class="edge"><title>4_7&#45;&gt;6_3</title>
<path fill="none" stroke="black" d="M-61.3402,397.54C3.44905,257.921 212.564,-160.548 291.832,-309.517"/>
<polygon fill="black" stroke="black" points="288.839,-311.343 296.638,-318.514 295.014,-308.045 288.839,-311.343"/>
<text text-anchor="middle" x="98.246" y="40.2114" font-family="Times New Roman,serif" font-size="14.00">6 &#160;(6) </text>
</g>
<!-- 4_7&#45;&gt;5_7 -->
<g id="edge38" class="edge"><title>4_7&#45;&gt;5_7</title>
<path fill="none" stroke="black" d="M-18.2331,437.225C2.83103,436.702 26.525,436.63 48.3115,437.01"/>
<polygon fill="black" stroke="black" points="48.5769,433.514 58.5009,437.224 48.4294,440.513 48.5769,433.514"/>
<text text-anchor="middle" x="32.0392" y="433.318" font-family="Times New Roman,serif" font-size="14.00">1 &#160;(3) </text>
</g>
<!-- 6_4&#45;&gt;0_3 -->
<g id="edge53" class="edge"><title>6_4&#45;&gt;0_3</title>
<path fill="none" stroke="black" d="M259.968,-168.472C54.3292,-198.009 -599.694,-306.946 -816.476,-347.679"/>
<polygon fill="black" stroke="black" points="-817.288,-344.27 -826.465,-349.566 -815.989,-351.149 -817.288,-344.27"/>
<text text-anchor="middle" x="-261.254" y="-246.875" font-family="Times New Roman,serif" font-size="14.00">7 &#160;(7) </text>
</g>
<!-- 6_4&#45;&gt;3_7 -->
<g id="edge51" class="edge"><title>6_4&#45;&gt;3_7</title>
<path fill="none" stroke="black" d="M287.192,-120.982C184.292,-12.0808 -114.828,287.189 -233.219,399.879"/>
<polygon fill="black" stroke="black" points="-231.089,402.683 -240.752,407.028 -235.908,397.605 -231.089,402.683"/>
<text text-anchor="middle" x="43.9866" y="135.649" font-family="Times New Roman,serif" font-size="14.00">6 &#160;(6) </text>
</g>
<!-- 6_4&#45;&gt;2_8 -->
<g id="edge54" class="edge"><title>6_4&#45;&gt;2_8</title>
<path fill="none" stroke="black" d="M286.919,-121.296C157.575,14.848 -286.883,459.44 -435.235,601.262"/>
<polygon fill="black" stroke="black" points="-432.84,603.814 -442.493,608.183 -437.671,598.749 -432.84,603.814"/>
<text text-anchor="middle" x="-57.1583" y="236.183" font-family="Times New Roman,serif" font-size="14.00">8 &#160;(8) </text>
</g>
<!-- 6_4&#45;&gt;3_0 -->
<g id="edge52" class="edge"><title>6_4&#45;&gt;3_0</title>
<path fill="none" stroke="black" d="M288.095,-201.842C181.573,-336.189 -141.146,-766.354 -247.729,-915.891"/>
<polygon fill="black" stroke="black" points="-250.899,-914.31 -253.838,-924.489 -245.193,-918.365 -250.899,-914.31"/>
<text text-anchor="middle" x="3.18308" y="-547.667" font-family="Times New Roman,serif" font-size="14.00">7 &#160;(7) </text>
</g>
<!-- 6_4&#45;&gt;4_7 -->
<g id="edge50" class="edge"><title>6_4&#45;&gt;4_7</title>
<path fill="none" stroke="black" d="M297.259,-116.717C228.623,-6.55899 39.1472,277.855 -42.4975,393.519"/>
<polygon fill="black" stroke="black" points="-39.784,395.743 -48.4208,401.88 -45.4959,391.697 -39.784,395.743"/>
<text text-anchor="middle" x="144.381" y="134.601" font-family="Times New Roman,serif" font-size="14.00">5 &#160;(5) </text>
</g>
<!-- 6_4&#45;&gt;6_4 -->
<g id="edge48" class="edge"><title>6_4&#45;&gt;6_4</title>
<path fill="none" stroke="black" d="M384.998,-167.608C395.905,-166.764 403.493,-164.655 403.493,-161.28 403.493,-159.118 400.379,-157.475 395.273,-156.352"/>
<polygon fill="black" stroke="black" points="395.379,-152.834 384.998,-154.952 394.434,-159.77 395.379,-152.834"/>
<text text-anchor="middle" x="420.493" y="-157.58" font-family="Times New Roman,serif" font-size="14.00">2 &#160;(4) </text>
</g>
<!-- 6_4&#45;&gt;7_4 -->
<g id="edge47" class="edge"><title>6_4&#45;&gt;7_4</title>
<path fill="none" stroke="black" d="M384.967,-167.575C406.031,-168.098 429.725,-168.17 451.511,-167.79"/>
<polygon fill="black" stroke="black" points="451.777,-171.286 461.701,-167.576 451.629,-164.287 451.777,-171.286"/>
<text text-anchor="middle" x="435.239" y="-171.482" font-family="Times New Roman,serif" font-size="14.00">1 &#160;(3) </text>
</g>
<!-- 6_4&#45;&gt;6_3 -->
<g id="edge46" class="edge"><title>6_4&#45;&gt;6_3</title>
<path fill="none" stroke="black" d="M316.71,-209.312C315.632,-237.982 315.522,-274.583 316.382,-304.862"/>
<polygon fill="black" stroke="black" points="312.884,-304.987 316.711,-314.867 319.881,-304.757 312.884,-304.987"/>
<text text-anchor="middle" x="299.546" y="-260.887" font-family="Times New Roman,serif" font-size="14.00">1 &#160;(3) </text>
</g>
<!-- 6_4&#45;&gt;5_7 -->
<g id="edge49" class="edge"><title>6_4&#45;&gt;5_7</title>
<path fill="none" stroke="black" d="M310.763,-113.875C277.991,-3.48862 186.875,270.22 143.803,388.087"/>
<polygon fill="black" stroke="black" points="147.023,389.473 140.287,397.651 140.453,387.058 147.023,389.473"/>
<text text-anchor="middle" x="244.283" y="133.306" font-family="Times New Roman,serif" font-size="14.00">4 &#160;(4) </text>
</g>
<!-- 7_4&#45;&gt;0_3 -->
<g id="edge63" class="edge"><title>7_4&#45;&gt;0_3</title>
<path fill="none" stroke="black" d="M461.278,-167.24C230.251,-195.25 -570.879,-309.631 -815.53,-349.444"/>
<polygon fill="black" stroke="black" points="-816.421,-346.044 -825.724,-351.113 -815.29,-352.952 -816.421,-346.044"/>
<text text-anchor="middle" x="-153.126" y="-247.142" font-family="Times New Roman,serif" font-size="14.00">10 &#160;(10) </text>
</g>
<!-- 7_4&#45;&gt;3_7 -->
<g id="edge60" class="edge"><title>7_4&#45;&gt;3_7</title>
<path fill="none" stroke="black" d="M481.919,-125.485C346.975,-18.6387 -73.5861,296.905 -226.212,405.983"/>
<polygon fill="black" stroke="black" points="-224.402,408.992 -234.577,411.946 -228.465,403.291 -224.402,408.992"/>
<text text-anchor="middle" x="144.854" y="151.449" font-family="Times New Roman,serif" font-size="14.00">7 &#160;(7) </text>
</g>
<!-- 7_4&#45;&gt;2_8 -->
<g id="edge62" class="edge"><title>7_4&#45;&gt;2_8</title>
<path fill="none" stroke="black" d="M483.009,-124.59C323.933,9.05904 -250.534,468.743 -429.944,606.102"/>
<polygon fill="black" stroke="black" points="-427.862,608.916 -437.933,612.205 -432.111,603.353 -427.862,608.916"/>
<text text-anchor="middle" x="43.5325" y="236.956" font-family="Times New Roman,serif" font-size="14.00">9 &#160;(9) </text>
</g>
<!-- 7_4&#45;&gt;3_0 -->
<g id="edge61" class="edge"><title>7_4&#45;&gt;3_0</title>
<path fill="none" stroke="black" d="M483.067,-197.975C345.392,-328.893 -98.5062,-772.686 -239.128,-919.856"/>
<polygon fill="black" stroke="black" points="-242.016,-917.813 -246.382,-927.467 -236.949,-922.643 -242.016,-917.813"/>
<text text-anchor="middle" x="104.969" y="-547.716" font-family="Times New Roman,serif" font-size="14.00">8 &#160;(8) </text>
</g>
<!-- 7_4&#45;&gt;4_7 -->
<g id="edge59" class="edge"><title>7_4&#45;&gt;4_7</title>
<path fill="none" stroke="black" d="M488.792,-120.982C385.892,-12.0808 86.7719,287.189 -31.6193,399.879"/>
<polygon fill="black" stroke="black" points="-29.4893,402.683 -39.1522,407.028 -34.308,397.605 -29.4893,402.683"/>
<text text-anchor="middle" x="245.587" y="150.649" font-family="Times New Roman,serif" font-size="14.00">6 &#160;(6) </text>
</g>
<!-- 7_4&#45;&gt;6_4 -->
<g id="edge55" class="edge"><title>7_4&#45;&gt;6_4</title>
<path fill="none" stroke="black" d="M461.753,-154.985C440.689,-154.462 416.995,-154.39 395.209,-154.77"/>
<polygon fill="black" stroke="black" points="394.943,-151.274 385.019,-154.984 395.091,-158.273 394.943,-151.274"/>
<text text-anchor="middle" x="436.981" y="-143.678" font-family="Times New Roman,serif" font-size="14.00">1 &#160;(3) </text>
</g>
<!-- 7_4&#45;&gt;7_4 -->
<g id="edge57" class="edge"><title>7_4&#45;&gt;7_4</title>
<path fill="none" stroke="black" d="M586.598,-167.608C597.505,-166.764 605.093,-164.655 605.093,-161.28 605.093,-159.118 601.979,-157.475 596.873,-156.352"/>
<polygon fill="black" stroke="black" points="596.979,-152.834 586.598,-154.952 596.034,-159.77 596.979,-152.834"/>
<text text-anchor="middle" x="622.093" y="-157.58" font-family="Times New Roman,serif" font-size="14.00">2 &#160;(4) </text>
</g>
<!-- 7_4&#45;&gt;6_3 -->
<g id="edge56" class="edge"><title>7_4&#45;&gt;6_3</title>
<path fill="none" stroke="black" d="M480.935,-196.753C445.99,-229.419 397.219,-278.082 363.031,-314.334"/>
<polygon fill="black" stroke="black" points="360.251,-312.181 355.967,-321.871 365.359,-316.968 360.251,-312.181"/>
<text text-anchor="middle" x="404.983" y="-259.344" font-family="Times New Roman,serif" font-size="14.00">2 &#160;(4) </text>
</g>
<!-- 7_4&#45;&gt;5_7 -->
<g id="edge58" class="edge"><title>7_4&#45;&gt;5_7</title>
<path fill="none" stroke="black" d="M498.859,-116.717C430.223,-6.55899 240.747,277.855 159.103,393.519"/>
<polygon fill="black" stroke="black" points="161.816,395.743 153.179,401.88 156.104,391.697 161.816,395.743"/>
<text text-anchor="middle" x="311.981" y="134.601" font-family="Times New Roman,serif" font-size="14.00">5 &#160;(5) </text>
</g>
<!-- 6_3&#45;&gt;0_3 -->
<g id="edge69" class="edge"><title>6_3&#45;&gt;0_3</title>
<path fill="none" stroke="black" d="M259.652,-359.665C54.5058,-355.027 -594.456,-354.953 -813.789,-359.442"/>
<polygon fill="black" stroke="black" points="-813.983,-355.946 -823.905,-359.659 -813.832,-362.944 -813.983,-355.946"/>
<text text-anchor="middle" x="-294.068" y="-348.353" font-family="Times New Roman,serif" font-size="14.00">6 &#160;(6) </text>
</g>
<!-- 6_3&#45;&gt;3_7 -->
<g id="edge71" class="edge"><title>6_3&#45;&gt;3_7</title>
<path fill="none" stroke="black" d="M294.286,-319.87C196.535,-181.789 -126.83,249.533 -241.523,395.048"/>
<polygon fill="black" stroke="black" points="-238.854,397.316 -247.801,402.99 -244.346,392.975 -238.854,397.316"/>
<text text-anchor="middle" x="43.3815" y="33.7889" font-family="Times New Roman,serif" font-size="14.00">7 &#160;(7) </text>
</g>
<!-- 6_3&#45;&gt;2_8 -->
<g id="edge72" class="edge"><title>6_3&#45;&gt;2_8</title>
<path fill="none" stroke="black" d="M292.437,-320.642C168.943,-158.129 -298.238,425.994 -441.716,597.488"/>
<polygon fill="black" stroke="black" points="-439.193,599.926 -448.301,605.339 -444.557,595.428 -439.193,599.926"/>
<text text-anchor="middle" x="-57.6399" y="134.623" font-family="Times New Roman,serif" font-size="14.00">9 &#160;(9) </text>
</g>
<!-- 6_3&#45;&gt;3_0 -->
<g id="edge68" class="edge"><title>6_3&#45;&gt;3_0</title>
<path fill="none" stroke="black" d="M280.839,-399.592C170.287,-504.194 -129.048,-803.431 -240.088,-920.224"/>
<polygon fill="black" stroke="black" points="-242.787,-917.984 -247.126,-927.65 -237.706,-922.799 -242.787,-917.984"/>
<text text-anchor="middle" x="3.37563" y="-648.708" font-family="Times New Roman,serif" font-size="14.00">6 &#160;(6) </text>
</g>
<!-- 6_3&#45;&gt;4_7 -->
<g id="edge70" class="edge"><title>6_3&#45;&gt;4_7</title>
<path fill="none" stroke="black" d="M303.26,-316.9C238.471,-177.281 29.3556,241.187 -49.9122,390.157"/>
<polygon fill="black" stroke="black" points="-46.9193,391.983 -54.7178,399.154 -53.0938,388.685 -46.9193,391.983"/>
<text text-anchor="middle" x="143.674" y="32.8286" font-family="Times New Roman,serif" font-size="14.00">6 &#160;(6) </text>
</g>
<!-- 6_3&#45;&gt;6_4 -->
<g id="edge64" class="edge"><title>6_3&#45;&gt;6_4</title>
<path fill="none" stroke="black" d="M328.41,-314.848C329.488,-286.178 329.598,-249.577 328.738,-219.298"/>
<polygon fill="black" stroke="black" points="332.236,-219.173 328.409,-209.293 325.239,-219.403 332.236,-219.173"/>
<text text-anchor="middle" x="345.574" y="-270.873" font-family="Times New Roman,serif" font-size="14.00">1 &#160;(3) </text>
</g>
<!-- 6_3&#45;&gt;7_4 -->
<g id="edge65" class="edge"><title>6_3&#45;&gt;7_4</title>
<path fill="none" stroke="black" d="M365.785,-327.407C400.73,-294.741 449.501,-246.078 483.689,-209.826"/>
<polygon fill="black" stroke="black" points="486.469,-211.979 490.753,-202.289 481.361,-207.192 486.469,-211.979"/>
<text text-anchor="middle" x="441.737" y="-272.416" font-family="Times New Roman,serif" font-size="14.00">2 &#160;(4) </text>
</g>
<!-- 6_3&#45;&gt;6_3 -->
<g id="edge66" class="edge"><title>6_3&#45;&gt;6_3</title>
<path fill="none" stroke="black" d="M384.998,-369.208C395.905,-368.364 403.493,-366.255 403.493,-362.88 403.493,-360.718 400.379,-359.075 395.273,-357.952"/>
<polygon fill="black" stroke="black" points="395.379,-354.434 384.998,-356.552 394.434,-361.37 395.379,-354.434"/>
<text text-anchor="middle" x="420.493" y="-359.18" font-family="Times New Roman,serif" font-size="14.00">2 &#160;(4) </text>
</g>
<!-- 6_3&#45;&gt;5_7 -->
<g id="edge67" class="edge"><title>6_3&#45;&gt;5_7</title>
<path fill="none" stroke="black" d="M314.125,-315.22C283.613,-175.079 181.141,235.253 139.002,386.599"/>
<polygon fill="black" stroke="black" points="142.264,387.931 136.195,396.615 135.524,386.042 142.264,387.931"/>
<text text-anchor="middle" x="209.563" y="31.8896" font-family="Times New Roman,serif" font-size="14.00">5 &#160;(5) </text>
</g>
<!-- 5_7&#45;&gt;0_3 -->
<g id="edge81" class="edge"><title>5_7&#45;&gt;0_3</title>
<path fill="none" stroke="black" d="M74.8103,410.42C-92.4876,282.93 -666.078,-175.859 -837.986,-319.568"/>
<polygon fill="black" stroke="black" points="-840.449,-317.065 -845.866,-326.171 -835.953,-322.43 -840.449,-317.065"/>
<text text-anchor="middle" x="-398.588" y="56.626" font-family="Times New Roman,serif" font-size="14.00">9 &#160;(9) </text>
</g>
<!-- 5_7&#45;&gt;3_7 -->
<g id="edge76" class="edge"><title>5_7&#45;&gt;3_7</title>
<path fill="none" stroke="black" d="M57.96,448.582C-14.4269,450.737 -133.021,450.828 -209.335,448.857"/>
<polygon fill="black" stroke="black" points="-209.452,452.355 -219.351,448.579 -209.257,445.358 -209.452,452.355"/>
<text text-anchor="middle" x="-92.6876" y="459.92" font-family="Times New Roman,serif" font-size="14.00">4 &#160;(4) </text>
</g>
<!-- 5_7&#45;&gt;2_8 -->
<g id="edge77" class="edge"><title>5_7&#45;&gt;2_8</title>
<path fill="none" stroke="black" d="M65.373,466.419C-45.2531,506.838 -292.723,589.441 -414.065,626.571"/>
<polygon fill="black" stroke="black" points="-413.408,630.029 -423.994,629.593 -415.446,623.333 -413.408,630.029"/>
<text text-anchor="middle" x="-191.346" y="557.695" font-family="Times New Roman,serif" font-size="14.00">4 &#160;(4) </text>
</g>
<!-- 5_7&#45;&gt;3_0 -->
<g id="edge80" class="edge"><title>5_7&#45;&gt;3_0</title>
<path fill="none" stroke="black" d="M104.891,396.889C39.0029,185.954 -208.097,-678.625 -268.83,-910.328"/>
<polygon fill="black" stroke="black" points="-272.278,-909.678 -271.414,-920.237 -265.504,-911.444 -272.278,-909.678"/>
<text text-anchor="middle" x="-98.9698" y="-245.519" font-family="Times New Roman,serif" font-size="14.00">9 &#160;(9) </text>
</g>
<!-- 5_7&#45;&gt;4_7 -->
<g id="edge73" class="edge"><title>5_7&#45;&gt;4_7</title>
<path fill="none" stroke="black" d="M58.5531,449.815C37.489,450.338 13.795,450.41 -7.99146,450.03"/>
<polygon fill="black" stroke="black" points="-8.25688,453.526 -18.1809,449.816 -8.10945,446.527 -8.25688,453.526"/>
<text text-anchor="middle" x="42.2808" y="461.122" font-family="Times New Roman,serif" font-size="14.00">1 &#160;(3) </text>
</g>
<!-- 5_7&#45;&gt;6_4 -->
<g id="edge75" class="edge"><title>5_7&#45;&gt;6_4</title>
<path fill="none" stroke="black" d="M132.757,396.115C165.529,285.729 256.645,12.0197 299.717,-105.847"/>
<polygon fill="black" stroke="black" points="296.497,-107.233 303.233,-115.411 303.067,-104.818 296.497,-107.233"/>
<text text-anchor="middle" x="199.237" y="156.334" font-family="Times New Roman,serif" font-size="14.00">4 &#160;(4) </text>
</g>
<!-- 5_7&#45;&gt;7_4 -->
<g id="edge79" class="edge"><title>5_7&#45;&gt;7_4</title>
<path fill="none" stroke="black" d="M146.261,398.957C214.897,288.799 404.373,4.38536 486.017,-111.279"/>
<polygon fill="black" stroke="black" points="483.304,-113.503 491.941,-119.64 489.016,-109.457 483.304,-113.503"/>
<text text-anchor="middle" x="299.139" y="155.039" font-family="Times New Roman,serif" font-size="14.00">5 &#160;(5) </text>
</g>
<!-- 5_7&#45;&gt;6_3 -->
<g id="edge78" class="edge"><title>5_7&#45;&gt;6_3</title>
<path fill="none" stroke="black" d="M129.395,395.86C159.907,255.719 262.379,-154.613 304.518,-305.959"/>
<polygon fill="black" stroke="black" points="301.256,-307.291 307.325,-315.975 307.996,-305.402 301.256,-307.291"/>
<text text-anchor="middle" x="199.957" y="56.1504" font-family="Times New Roman,serif" font-size="14.00">5 &#160;(5) </text>
</g>
<!-- 5_7&#45;&gt;5_7 -->
<g id="edge74" class="edge"><title>5_7&#45;&gt;5_7</title>
<path fill="none" stroke="black" d="M183.398,437.192C194.305,438.036 201.892,440.145 201.892,443.52 201.892,445.682 198.779,447.325 193.673,448.448"/>
<polygon fill="black" stroke="black" points="193.779,451.966 183.398,449.848 192.834,445.03 193.779,451.966"/>
<text text-anchor="middle" x="218.892" y="447.22" font-family="Times New Roman,serif" font-size="14.00">2 &#160;(4) </text>
</g>
<!-- 8_5 -->
<g id="node10" class="node"><title>8_5</title>
<ellipse fill="green" stroke="black" cx="725.76" cy="40.32" rx="62.8651" ry="48.1667"/>
<text text-anchor="middle" x="725.76" y="21.52" font-family="Times New Roman,serif" font-size="14.00">8,5</text>
<text text-anchor="middle" x="725.76" y="36.52" font-family="Times New Roman,serif" font-size="14.00">ic: 10</text>
<text text-anchor="middle" x="725.76" y="51.52" font-family="Times New Roman,serif" font-size="14.00">free: 8,4;8,3</text>
<text text-anchor="middle" x="725.76" y="66.52" font-family="Times New Roman,serif" font-size="14.00">swlolw: none</text>
</g>
<!-- 8_5&#45;&gt;0_3 -->
<g id="edge90" class="edge"><title>8_5&#45;&gt;0_3</title>
<path fill="none" stroke="black" d="M665.48,25.25C414.377,-37.5258 -547.931,-278.103 -816.859,-345.335"/>
<polygon fill="black" stroke="black" points="-818.034,-342.021 -826.886,-347.842 -816.336,-348.812 -818.034,-342.021"/>
<text text-anchor="middle" x="-99.6897" y="-163.842" font-family="Times New Roman,serif" font-size="14.00">10 &#160;(10) </text>
</g>
<!-- 8_5&#45;&gt;3_7 -->
<g id="edge87" class="edge"><title>8_5&#45;&gt;3_7</title>
<path fill="none" stroke="black" d="M669.768,62.7167C496.354,132.083 -31.3012,343.144 -216.858,417.367"/>
<polygon fill="black" stroke="black" points="-215.638,420.649 -226.222,421.113 -218.238,414.149 -215.638,420.649"/>
<text text-anchor="middle" x="209.455" y="236.242" font-family="Times New Roman,serif" font-size="14.00">7 &#160;(7) </text>
</g>
<!-- 8_5&#45;&gt;2_8 -->
<g id="edge88" class="edge"><title>8_5&#45;&gt;2_8</title>
<path fill="none" stroke="black" d="M673.007,66.6964C476.648,164.876 -211.414,508.907 -422.075,614.238"/>
<polygon fill="black" stroke="black" points="-420.641,617.434 -431.151,618.775 -423.772,611.173 -420.641,617.434"/>
<text text-anchor="middle" x="108.466" y="336.667" font-family="Times New Roman,serif" font-size="14.00">9 &#160;(9) </text>
</g>
<!-- 8_5&#45;&gt;3_0 -->
<g id="edge89" class="edge"><title>8_5&#45;&gt;3_0</title>
<path fill="none" stroke="black" d="M687.476,2.03608C530.146,-155.294 -66.3442,-751.784 -236.61,-922.05"/>
<polygon fill="black" stroke="black" points="-239.322,-919.812 -243.918,-929.358 -234.372,-924.762 -239.322,-919.812"/>
<text text-anchor="middle" x="201.433" y="-463.807" font-family="Times New Roman,serif" font-size="14.00">10 &#160;(10) </text>
</g>
<!-- 8_5&#45;&gt;4_7 -->
<g id="edge86" class="edge"><title>8_5&#45;&gt;4_7</title>
<path fill="none" stroke="black" d="M672.85,66.7751C529.646,138.377 134.96,335.72 -18.4818,412.441"/>
<polygon fill="black" stroke="black" points="-17.2884,415.757 -27.798,417.099 -20.4189,409.496 -17.2884,415.757"/>
<text text-anchor="middle" x="310.184" y="235.808" font-family="Times New Roman,serif" font-size="14.00">6 &#160;(6) </text>
</g>
<!-- 8_5&#45;&gt;6_4 -->
<g id="edge83" class="edge"><title>8_5&#45;&gt;6_4</title>
<path fill="none" stroke="black" d="M673.049,13.9643C598.794,-23.1629 463.652,-90.7338 384.635,-130.243"/>
<polygon fill="black" stroke="black" points="382.663,-127.315 375.284,-134.918 385.794,-133.576 382.663,-127.315"/>
<text text-anchor="middle" x="511.842" y="-61.9392" font-family="Times New Roman,serif" font-size="14.00">3 &#160;(3) </text>
</g>
<!-- 8_5&#45;&gt;7_4 -->
<g id="edge82" class="edge"><title>8_5&#45;&gt;7_4</title>
<path fill="none" stroke="black" d="M687.366,1.92606C653.876,-31.5641 605.234,-80.2065 569.769,-115.671"/>
<polygon fill="black" stroke="black" points="567.007,-113.483 562.411,-123.029 571.957,-118.433 567.007,-113.483"/>
<text text-anchor="middle" x="611.567" y="-60.6727" font-family="Times New Roman,serif" font-size="14.00">2 &#160;(4) </text>
</g>
<!-- 8_5&#45;&gt;6_3 -->
<g id="edge84" class="edge"><title>8_5&#45;&gt;6_3</title>
<path fill="none" stroke="black" d="M687.464,2.02442C612.911,-72.529 448.58,-236.86 368.387,-317.053"/>
<polygon fill="black" stroke="black" points="365.491,-315 360.894,-324.546 370.44,-319.949 365.491,-315"/>
<text text-anchor="middle" x="510.925" y="-161.315" font-family="Times New Roman,serif" font-size="14.00">4 &#160;(4) </text>
</g>
<!-- 8_5&#45;&gt;5_7 -->
<g id="edge85" class="edge"><title>8_5&#45;&gt;5_7</title>
<path fill="none" stroke="black" d="M678.302,71.9584C568.14,145.4 295.481,327.173 177.2,406.027"/>
<polygon fill="black" stroke="black" points="178.877,409.115 168.615,411.75 174.994,403.291 178.877,409.115"/>
<text text-anchor="middle" x="410.751" y="235.193" font-family="Times New Roman,serif" font-size="14.00">5 &#160;(5) </text>
</g>
</g>
</svg>
