<?xml version="1.0" encoding="UTF-8" standalone="no"?>
<!DOCTYPE svg PUBLIC "-//W3C//DTD SVG 1.1//EN"
 "http://www.w3.org/Graphics/SVG/1.1/DTD/svg11.dtd">
<!-- Generated by graphviz version 2.38.0 (20140413.2041)
 -->
<!-- Title: example9.txt_fields Pages: 1 -->
<svg width="992pt" height="507pt"
 viewBox="0.00 0.00 992.26 507.37" xmlns="http://www.w3.org/2000/svg" xmlns:xlink="http://www.w3.org/1999/xlink">
<g id="graph0" class="graph" transform="scale(1 1) rotate(0) translate(389.493 253.683)">
<title>example9.txt_fields</title>
<polygon fill="white" stroke="none" points="-389.493,253.683 -389.493,-253.683 602.772,-253.683 602.772,253.683 -389.493,253.683"/>
<!-- 2_1 -->
<g id="node1" class="node"><title>2_1</title>
<ellipse fill="none" stroke="black" cx="-120.96" cy="-0" rx="62.8651" ry="48.1667"/>
<text text-anchor="middle" x="-120.96" y="-18.8" font-family="Times New Roman,serif" font-size="14.00">2,1</text>
<text text-anchor="middle" x="-120.96" y="-3.8" font-family="Times New Roman,serif" font-size="14.00">ic: 6</text>
<text text-anchor="middle" x="-120.96" y="11.2" font-family="Times New Roman,serif" font-size="14.00">free: 2,0;3,0</text>
<text text-anchor="middle" x="-120.96" y="26.2" font-family="Times New Roman,serif" font-size="14.00">swlolw: none</text>
</g>
<!-- 2_1&#45;&gt;2_1 -->
<g id="edge3" class="edge"><title>2_1&#45;&gt;2_1</title>
<path fill="none" stroke="black" d="M-58.5218,-6.32813C-47.6149,-5.48438 -40.0275,-3.375 -40.0275,-0 -40.0275,2.16211 -43.1414,3.80481 -48.247,4.92809"/>
<polygon fill="black" stroke="black" points="-48.1408,8.44588 -58.5218,6.32813 -49.086,1.50997 -48.1408,8.44588"/>
<text text-anchor="middle" x="-23.0275" y="3.7" font-family="Times New Roman,serif" font-size="14.00">2 &#160;(4) </text>
</g>
<!-- 5_0 -->
<g id="node2" class="node"><title>5_0</title>
<ellipse fill="none" stroke="black" cx="483.84" cy="-201.6" rx="62.8651" ry="48.1667"/>
<text text-anchor="middle" x="483.84" y="-220.4" font-family="Times New Roman,serif" font-size="14.00">5,0</text>
<text text-anchor="middle" x="483.84" y="-205.4" font-family="Times New Roman,serif" font-size="14.00">ic: 7</text>
<text text-anchor="middle" x="483.84" y="-190.4" font-family="Times New Roman,serif" font-size="14.00">free: 4,0;3,0</text>
<text text-anchor="middle" x="483.84" y="-175.4" font-family="Times New Roman,serif" font-size="14.00">swlolw: none</text>
</g>
<!-- 2_1&#45;&gt;5_0 -->
<g id="edge4" class="edge"><title>2_1&#45;&gt;5_0</title>
<path fill="none" stroke="black" d="M-65.373,-22.8994C45.2531,-63.3177 292.723,-145.921 414.065,-183.051"/>
<polygon fill="black" stroke="black" points="413.408,-186.509 423.994,-186.073 415.446,-179.813 413.408,-186.509"/>
<text text-anchor="middle" x="157.346" y="-106.775" font-family="Times New Roman,serif" font-size="14.00">4 &#160;(4) </text>
</g>
<!-- 2_2 -->
<g id="node3" class="node"><title>2_2</title>
<ellipse fill="none" stroke="black" cx="-120.96" cy="201.6" rx="62.8651" ry="48.1667"/>
<text text-anchor="middle" x="-120.96" y="182.8" font-family="Times New Roman,serif" font-size="14.00">2,2</text>
<text text-anchor="middle" x="-120.96" y="197.8" font-family="Times New Roman,serif" font-size="14.00">ic: 4</text>
<text text-anchor="middle" x="-120.96" y="212.8" font-family="Times New Roman,serif" font-size="14.00">free: 3,2;3,1</text>
<text text-anchor="middle" x="-120.96" y="227.8" font-family="Times New Roman,serif" font-size="14.00">swlolw: none</text>
</g>
<!-- 2_1&#45;&gt;2_2 -->
<g id="edge2" class="edge"><title>2_1&#45;&gt;2_2</title>
<path fill="none" stroke="black" d="M-115.11,48.0321C-114.032,76.702 -113.922,113.303 -114.782,143.582"/>
<polygon fill="black" stroke="black" points="-111.284,143.707 -115.111,153.587 -118.281,143.477 -111.284,143.707"/>
<text text-anchor="middle" x="-131.946" y="92.0069" font-family="Times New Roman,serif" font-size="14.00">1 &#160;(3) </text>
</g>
<!-- 1_1 -->
<g id="node4" class="node"><title>1_1</title>
<ellipse fill="none" stroke="black" cx="-322.56" cy="-0" rx="62.8651" ry="48.1667"/>
<text text-anchor="middle" x="-322.56" y="-18.8" font-family="Times New Roman,serif" font-size="14.00">1,1</text>
<text text-anchor="middle" x="-322.56" y="-3.8" font-family="Times New Roman,serif" font-size="14.00">ic: 1</text>
<text text-anchor="middle" x="-322.56" y="11.2" font-family="Times New Roman,serif" font-size="14.00">free: 1,0;2,0</text>
<text text-anchor="middle" x="-322.56" y="26.2" font-family="Times New Roman,serif" font-size="14.00">swlolw: none</text>
</g>
<!-- 2_1&#45;&gt;1_1 -->
<g id="edge1" class="edge"><title>2_1&#45;&gt;1_1</title>
<path fill="none" stroke="black" d="M-183.367,6.29452C-204.431,6.81842 -228.125,6.89037 -249.911,6.51037"/>
<polygon fill="black" stroke="black" points="-250.177,10.0057 -260.101,6.29582 -250.029,3.0072 -250.177,10.0057"/>
<text text-anchor="middle" x="-208.139" y="17.6024" font-family="Times New Roman,serif" font-size="14.00">1 &#160;(3) </text>
</g>
<!-- 5_0&#45;&gt;2_1 -->
<g id="edge6" class="edge"><title>5_0&#45;&gt;2_1</title>
<path fill="none" stroke="black" d="M428.253,-178.701C317.627,-138.282 70.1573,-55.6795 -51.1849,-18.5491"/>
<polygon fill="black" stroke="black" points="-50.5279,-15.0907 -61.1137,-15.5274 -52.566,-21.7874 -50.5279,-15.0907"/>
<text text-anchor="middle" x="171.534" y="-87.4249" font-family="Times New Roman,serif" font-size="14.00">4 &#160;(4) </text>
</g>
<!-- 5_0&#45;&gt;5_0 -->
<g id="edge5" class="edge"><title>5_0&#45;&gt;5_0</title>
<path fill="none" stroke="black" d="M546.278,-207.928C557.185,-207.084 564.772,-204.975 564.772,-201.6 564.772,-199.438 561.659,-197.795 556.553,-196.672"/>
<polygon fill="black" stroke="black" points="556.659,-193.154 546.278,-195.272 555.714,-200.09 556.659,-193.154"/>
<text text-anchor="middle" x="581.772" y="-197.9" font-family="Times New Roman,serif" font-size="14.00">2 &#160;(4) </text>
</g>
<!-- 5_0&#45;&gt;2_2 -->
<g id="edge8" class="edge"><title>5_0&#45;&gt;2_2</title>
<path fill="none" stroke="black" d="M439.499,-167.462C332.32,-91.4358 59.2617,90.7391 -61.7333,167.1"/>
<polygon fill="black" stroke="black" points="-60.1981,170.269 -70.5264,172.63 -63.925,164.343 -60.1981,170.269"/>
<text text-anchor="middle" x="171.883" y="-3.98137" font-family="Times New Roman,serif" font-size="14.00">5 &#160;(5) </text>
</g>
<!-- 5_0&#45;&gt;1_1 -->
<g id="edge7" class="edge"><title>5_0&#45;&gt;1_1</title>
<path fill="none" stroke="black" d="M425.45,-183.149C280.832,-142.955 -93.6228,-49.2441 -251.111,-13.7173"/>
<polygon fill="black" stroke="black" points="-250.643,-10.2355 -261.166,-11.4626 -252.174,-17.0659 -250.643,-10.2355"/>
<text text-anchor="middle" x="70.1695" y="-87.2333" font-family="Times New Roman,serif" font-size="14.00">5 &#160;(5) </text>
</g>
<!-- 2_2&#45;&gt;2_1 -->
<g id="edge9" class="edge"><title>2_2&#45;&gt;2_1</title>
<path fill="none" stroke="black" d="M-126.81,153.568C-127.888,124.898 -127.998,88.2965 -127.138,58.0184"/>
<polygon fill="black" stroke="black" points="-130.636,57.8927 -126.809,48.0131 -123.639,58.1227 -130.636,57.8927"/>
<text text-anchor="middle" x="-143.974" y="116.993" font-family="Times New Roman,serif" font-size="14.00">1 &#160;(3) </text>
</g>
<!-- 2_2&#45;&gt;5_0 -->
<g id="edge12" class="edge"><title>2_2&#45;&gt;5_0</title>
<path fill="none" stroke="black" d="M-76.6191,167.462C30.5596,91.4358 303.618,-90.7391 424.613,-167.1"/>
<polygon fill="black" stroke="black" points="423.078,-170.269 433.406,-172.63 426.805,-164.343 423.078,-170.269"/>
<text text-anchor="middle" x="190.997" y="11.3814" font-family="Times New Roman,serif" font-size="14.00">5 &#160;(5) </text>
</g>
<!-- 2_2&#45;&gt;2_2 -->
<g id="edge11" class="edge"><title>2_2&#45;&gt;2_2</title>
<path fill="none" stroke="black" d="M-58.5218,195.272C-47.6149,196.116 -40.0275,198.225 -40.0275,201.6 -40.0275,203.762 -43.1414,205.405 -48.247,206.528"/>
<polygon fill="black" stroke="black" points="-48.1408,210.046 -58.5218,207.928 -49.086,203.11 -48.1408,210.046"/>
<text text-anchor="middle" x="-23.0275" y="205.3" font-family="Times New Roman,serif" font-size="14.00">2 &#160;(4) </text>
</g>
<!-- 2_2&#45;&gt;1_1 -->
<g id="edge10" class="edge"><title>2_2&#45;&gt;1_1</title>
<path fill="none" stroke="black" d="M-164.185,166.127C-199.13,133.461 -247.901,84.7982 -282.089,48.5463"/>
<polygon fill="black" stroke="black" points="-284.869,50.6989 -289.153,41.0091 -279.761,45.9121 -284.869,50.6989"/>
<text text-anchor="middle" x="-240.137" y="103.536" font-family="Times New Roman,serif" font-size="14.00">2 &#160;(4) </text>
</g>
<!-- 1_1&#45;&gt;2_1 -->
<g id="edge13" class="edge"><title>1_1&#45;&gt;2_1</title>
<path fill="none" stroke="black" d="M-260.153,-6.29452C-239.089,-6.81842 -215.395,-6.89037 -193.609,-6.51037"/>
<polygon fill="black" stroke="black" points="-193.343,-10.0057 -183.419,-6.29582 -193.491,-3.0072 -193.343,-10.0057"/>
<text text-anchor="middle" x="-209.881" y="-10.2024" font-family="Times New Roman,serif" font-size="14.00">1 &#160;(3) </text>
</g>
<!-- 1_1&#45;&gt;5_0 -->
<g id="edge16" class="edge"><title>1_1&#45;&gt;5_0</title>
<path fill="none" stroke="black" d="M-264.17,-18.4508C-119.552,-58.6448 254.903,-152.356 412.391,-187.883"/>
<polygon fill="black" stroke="black" points="411.923,-191.364 422.446,-190.137 413.454,-184.534 411.923,-191.364"/>
<text text-anchor="middle" x="57.1105" y="-106.967" font-family="Times New Roman,serif" font-size="14.00">5 &#160;(5) </text>
</g>
<!-- 1_1&#45;&gt;2_2 -->
<g id="edge14" class="edge"><title>1_1&#45;&gt;2_2</title>
<path fill="none" stroke="black" d="M-279.335,35.4735C-244.39,68.1392 -195.619,116.802 -161.431,153.054"/>
<polygon fill="black" stroke="black" points="-158.651,150.901 -154.367,160.591 -163.759,155.688 -158.651,150.901"/>
<text text-anchor="middle" x="-203.383" y="90.4636" font-family="Times New Roman,serif" font-size="14.00">2 &#160;(4) </text>
</g>
<!-- 1_1&#45;&gt;1_1 -->
<g id="edge15" class="edge"><title>1_1&#45;&gt;1_1</title>
<path fill="none" stroke="black" d="M-260.122,-6.32813C-249.215,-5.48438 -241.627,-3.375 -241.627,-0 -241.627,2.16211 -244.741,3.80481 -249.847,4.92809"/>
<polygon fill="black" stroke="black" points="-249.741,8.44588 -260.122,6.32813 -250.686,1.50997 -249.741,8.44588"/>
<text text-anchor="middle" x="-224.627" y="3.7" font-family="Times New Roman,serif" font-size="14.00">2 &#160;(4) </text>
</g>
<!-- 3_1 -->
<g id="node5" class="node"><title>3_1</title>
<ellipse fill="green" stroke="black" cx="80.64" cy="-0" rx="62.8651" ry="48.1667"/>
<text text-anchor="middle" x="80.64" y="-18.8" font-family="Times New Roman,serif" font-size="14.00">3,1</text>
<text text-anchor="middle" x="80.64" y="-3.8" font-family="Times New Roman,serif" font-size="14.00">ic: 4</text>
<text text-anchor="middle" x="80.64" y="11.2" font-family="Times New Roman,serif" font-size="14.00">free: 3,0;4,0</text>
<text text-anchor="middle" x="80.64" y="26.2" font-family="Times New Roman,serif" font-size="14.00">swlolw: none</text>
</g>
<!-- 3_1&#45;&gt;2_1 -->
<g id="edge17" class="edge"><title>3_1&#45;&gt;2_1</title>
<path fill="none" stroke="black" d="M17.6818,-0C-3.06323,-0 -26.3097,-0 -47.7516,-0"/>
<polygon fill="black" stroke="black" points="-47.786,3.4999 -57.7861,-0 -47.7861,-3.5001 -47.786,3.4999"/>
<text text-anchor="middle" x="-6.53494" y="11.2" font-family="Times New Roman,serif" font-size="14.00">1 &#160;(3) </text>
</g>
<!-- 3_1&#45;&gt;5_0 -->
<g id="edge19" class="edge"><title>3_1&#45;&gt;5_0</title>
<path fill="none" stroke="black" d="M133.351,-26.3557C207.606,-63.4829 342.748,-131.054 421.765,-170.563"/>
<polygon fill="black" stroke="black" points="420.606,-173.896 431.116,-175.238 423.737,-167.635 420.606,-173.896"/>
<text text-anchor="middle" x="260.558" y="-102.259" font-family="Times New Roman,serif" font-size="14.00">3 &#160;(3) </text>
</g>
<!-- 3_1&#45;&gt;2_2 -->
<g id="edge18" class="edge"><title>3_1&#45;&gt;2_2</title>
<path fill="none" stroke="black" d="M42.2461,38.3939C8.75591,71.8841 -39.8865,120.526 -75.3514,155.991"/>
<polygon fill="black" stroke="black" points="-73.163,158.753 -82.709,163.349 -78.1128,153.803 -73.163,158.753"/>
<text text-anchor="middle" x="-33.5527" y="93.3927" font-family="Times New Roman,serif" font-size="14.00">2 &#160;(4) </text>
</g>
<!-- 3_1&#45;&gt;1_1 -->
<g id="edge20" class="edge"><title>3_1&#45;&gt;1_1</title>
<path fill="none" stroke="black" d="M17.64,-0C-54.6409,-0 -172.994,-0 -249.32,-0"/>
<polygon fill="black" stroke="black" points="-249.338,3.4999 -259.338,-0 -249.338,-3.5001 -249.338,3.4999"/>
<text text-anchor="middle" x="-132.84" y="-3.8" font-family="Times New Roman,serif" font-size="14.00">4 &#160;(4) </text>
</g>
</g>
</svg>
