<?xml version="1.0" encoding="utf-8" ?>
<svg xmlns="http://www.w3.org/2000/svg" xmlns:ev="http://www.w3.org/2001/xml-events" xmlns:xlink="http://www.w3.org/1999/xlink" baseProfile="full" height="903.0" version="1.1" width="903.0">
  <defs/>
  <g transform="translate(1.5,1.5)">
    <g>
      <rect fill="none" height="900" stroke="#aaaaaa" stroke-width="3.0" width="900" x="0" y="0"/>
      <line stroke="#aaaaaa" stroke-width="3.0" x1="100" x2="100" y1="0" y2="900"/>
      <line stroke="#aaaaaa" stroke-width="3.0" x1="200" x2="200" y1="0" y2="900"/>
      <line stroke="#aaaaaa" stroke-width="3.0" x1="300" x2="300" y1="0" y2="900"/>
      <line stroke="#aaaaaa" stroke-width="3.0" x1="400" x2="400" y1="0" y2="900"/>
      <line stroke="#aaaaaa" stroke-width="3.0" x1="500" x2="500" y1="0" y2="900"/>
      <line stroke="#aaaaaa" stroke-width="3.0" x1="600" x2="600" y1="0" y2="900"/>
      <line stroke="#aaaaaa" stroke-width="3.0" x1="700" x2="700" y1="0" y2="900"/>
      <line stroke="#aaaaaa" stroke-width="3.0" x1="800" x2="800" y1="0" y2="900"/>
      <line stroke="#aaaaaa" stroke-width="3.0" x1="0" x2="900" y1="100" y2="100"/>
      <line stroke="#aaaaaa" stroke-width="3.0" x1="0" x2="900" y1="200" y2="200"/>
      <line stroke="#aaaaaa" stroke-width="3.0" x1="0" x2="900" y1="300" y2="300"/>
      <line stroke="#aaaaaa" stroke-width="3.0" x1="0" x2="900" y1="400" y2="400"/>
      <line stroke="#aaaaaa" stroke-width="3.0" x1="0" x2="900" y1="500" y2="500"/>
      <line stroke="#aaaaaa" stroke-width="3.0" x1="0" x2="900" y1="600" y2="600"/>
      <line stroke="#aaaaaa" stroke-width="3.0" x1="0" x2="900" y1="700" y2="700"/>
      <line stroke="#aaaaaa" stroke-width="3.0" x1="0" x2="900" y1="800" y2="800"/>
    </g>
    <circle cx="850.0" cy="550.0" fill="green" r="44.0"/>
    <text alignment-baseline="central" font-size="40" text-anchor="middle" x="850.0" y="550.0">10</text>
    <text alignment-baseline="central" fill="#777777" font-size="20" text-anchor="middle" x="830.0" y="516.6666666666666">8,5</text>
    <text alignment-baseline="central" font-size="40" text-anchor="middle" x="50.0" y="350.0">8</text>
    <text alignment-baseline="central" fill="#777777" font-size="20" text-anchor="middle" x="30.0" y="316.6666666666667">0,3</text>
    <text alignment-baseline="central" font-size="40" text-anchor="middle" x="350.0" y="750.0">4</text>
    <text alignment-baseline="central" fill="#777777" font-size="20" text-anchor="middle" x="330.0" y="716.6666666666666">3,7</text>
    <text alignment-baseline="central" font-size="40" text-anchor="middle" x="250.0" y="850.0">9</text>
    <text alignment-baseline="central" fill="#777777" font-size="20" text-anchor="middle" x="230.0" y="816.6666666666666">2,8</text>
    <text alignment-baseline="central" font-size="40" text-anchor="middle" x="350.0" y="50.0">7</text>
    <text alignment-baseline="central" fill="#777777" font-size="20" text-anchor="middle" x="330.0" y="16.666666666666664">3,0</text>
    <text alignment-baseline="central" font-size="40" text-anchor="middle" x="450.0" y="750.0">6</text>
    <text alignment-baseline="central" fill="#777777" font-size="20" text-anchor="middle" x="430.0" y="716.6666666666666">4,7</text>
    <text alignment-baseline="central" font-size="40" text-anchor="middle" x="650.0" y="450.0">2</text>
    <text alignment-baseline="central" fill="#777777" font-size="20" text-anchor="middle" x="630.0" y="416.6666666666667">6,4</text>
    <text alignment-baseline="central" font-size="40" text-anchor="middle" x="750.0" y="450.0">2</text>
    <text alignment-baseline="central" fill="#777777" font-size="20" text-anchor="middle" x="730.0" y="416.6666666666667">7,4</text>
    <text alignment-baseline="central" font-size="40" text-anchor="middle" x="650.0" y="350.0">5</text>
    <text alignment-baseline="central" fill="#777777" font-size="20" text-anchor="middle" x="630.0" y="316.6666666666667">6,3</text>
    <text alignment-baseline="central" font-size="40" text-anchor="middle" x="550.0" y="750.0">7</text>
    <text alignment-baseline="central" fill="#777777" font-size="20" text-anchor="middle" x="530.0" y="716.6666666666666">5,7</text>
    <polyline fill="none" points="848.3131459147735,555.4099929659382 858.8784075594775,473.2809042552403 762.1092101275327,433.85560227694026 626.3557432172053,440.5173048806917 636.7477357795946,337.79992244007 530.4931604282369,359.59427578010605 555.7151633278704,462.798880033701 574.8040503802391,549.4789869089403 566.7116175233192,633.2002480152698 534.7496671844164,732.9849990826976 446.12493189183937,757.2738897174729 345.51654112573783,765.159875231301 264.74708783715334,767.2769915864081 261.91636116281813,851.4714483484978 247.81375826773967,743.6943997151426 263.23625417185985,672.0280307095366 261.2244695057016,566.45133366621 239.17928667754268,469.1897115851407 241.14652793989688,353.547924238729 164.2548888104453,352.8352709946981 73.57729416801757,326.48503733578025 74.84545052224753,240.66658501399473 33.59131195365635,128.2454394620595 35.395391773398856,41.761899219225185 134.27307652775673,66.69050641042136 272.2432528825879,67.29733602826961 155.4603471703079,56.41730782342964 262.26404077195264,27.863205794405836 342.7231122185126,74.2704624425769 327.224239286788,155.84302757585144 367.812099090757,272.4454012034812 363.4340502877574,341.03933920906746 331.1050153302762,450.25856549766104 367.08277085907935,536.8903607655036 334.42192482558403,648.0422334420667 358.9050097219646,772.5505723975874 229.74850220519735,736.5986597392297 263.9636910121253,833.1942462868981 261.699847200814,764.712157579491 272.5730436274407,844.6875665512399 331.33848213619564,849.8742353563994 435.6455263668521,837.7891755101217 441.3352635025417,747.5505767905303 443.2612726804041,626.6448402993631 443.7674572431694,563.8175679091011 456.13975140914357,442.62379205949077 552.9185034501324,432.36381133270817 651.1654853124382,447.0518569709262 740.1525606841831,452.53977625424824 665.9943260740984,457.6281847994932 650.9194290121679,361.72597456010067 639.7842847703603,440.58323408133316 573.8194260547136,433.1585674950365 472.9679899969581,472.5455947825132 333.44449584511585,444.57681042406136 236.22396467564812,468.40089204171454 154.1083618065266,459.92280008195183 29.929242536591822,456.275691766596 44.0178887006,325.2364023991454 46.617290126152,240.5761976852575 26.24184998841349,134.83115548136342" stroke="orange" stroke-width="3"/>
    <polyline fill="none" points="837.1419590382258,550.5858099926621 754.7620531481506,537.8280375264846 667.5250546395786,559.761422247802 561.0458268254054,539.1877178749393 473.50958232675146,562.4676826738611 358.5805871034724,545.7516637953553 247.0811985964956,553.5630427934076 148.4130294225897,530.9144451292007 125.20781550780282,450.281759876147 141.14882037238166,342.7939009806952 41.62777997454833,332.4101315734088 149.09075676712948,373.0988963376607 157.04406606821186,468.3562667260592 226.96810135543868,456.8498597009128 374.728606347366,457.3506427884701 333.20592728674455,551.7894318090138 346.2914177657798,650.8326629148204 344.4445686836753,761.8738751702629 273.4213603967869,734.8822109752532 171.88067959615867,759.7264385309606 266.4954488093093,726.3257981904876 232.80310713018872,835.2085416755026 269.37642482427634,762.9727950570843 258.14379589986015,634.181217734132 232.36976616187172,574.9793601043025 259.8181068148232,451.46136925289863 245.56749395831076,331.2223541249907 271.9600566267547,233.7245999810225 268.1088035319279,136.41635615730868 238.59066529487097,66.83993491211795 350.3171997432903,51.088641794263964 369.8833841964398,147.02013993167637 335.58681221097936,253.3486769103912 362.17427872022336,363.0416623112555 371.98268215234043,458.4774821036801 341.5225776761801,559.3536741069149 347.0487685732037,628.1204537832732 364.606531886795,736.2821714521926 452.0645514079785,766.3453843563198 460.5804989534256,636.3739744382626 543.6314209527621,650.6572444928684 667.4261560452356,634.1941444673912 667.464604924958,569.6036682704759 662.4795267231545,441.121834966529 750.237249901367,463.7334452054485 632.7075424063858,427.08197344700267 655.5439495638277,369.9114837017339 671.3940132743234,432.7646570851934 772.5816839328713,433.701847873005 631.4058248736357,437.2586448792147 555.5064315884448,435.10587133132367 555.4151410006757,567.893683991047 527.2513347125437,636.7882705967385 534.9835587146437,768.2929514872401" stroke="seagreen" stroke-width="3"/>
  </g>
</svg>
