<?xml version="1.0" encoding="utf-8" ?>
<svg xmlns="http://www.w3.org/2000/svg" xmlns:ev="http://www.w3.org/2001/xml-events" xmlns:xlink="http://www.w3.org/1999/xlink" baseProfile="full" height="403.0" version="1.1" width="903.0">
  <defs/>
  <g transform="translate(1.5,1.5)">
    <g>
      <rect fill="none" height="400" stroke="#aaaaaa" stroke-width="3.0" width="900" x="0" y="0"/>
      <line stroke="#aaaaaa" stroke-width="3.0" x1="100" x2="100" y1="0" y2="400"/>
      <line stroke="#aaaaaa" stroke-width="3.0" x1="200" x2="200" y1="0" y2="400"/>
      <line stroke="#aaaaaa" stroke-width="3.0" x1="300" x2="300" y1="0" y2="400"/>
      <line stroke="#aaaaaa" stroke-width="3.0" x1="400" x2="400" y1="0" y2="400"/>
      <line stroke="#aaaaaa" stroke-width="3.0" x1="500" x2="500" y1="0" y2="400"/>
      <line stroke="#aaaaaa" stroke-width="3.0" x1="600" x2="600" y1="0" y2="400"/>
      <line stroke="#aaaaaa" stroke-width="3.0" x1="700" x2="700" y1="0" y2="400"/>
      <line stroke="#aaaaaa" stroke-width="3.0" x1="800" x2="800" y1="0" y2="400"/>
      <line stroke="#aaaaaa" stroke-width="3.0" x1="0" x2="900" y1="100" y2="100"/>
      <line stroke="#aaaaaa" stroke-width="3.0" x1="0" x2="900" y1="200" y2="200"/>
      <line stroke="#aaaaaa" stroke-width="3.0" x1="0" x2="900" y1="300" y2="300"/>
    </g>
    <circle cx="750.0" cy="50.0" fill="green" r="44.0"/>
    <text alignment-baseline="central" font-size="40" text-anchor="middle" x="750.0" y="50.0">1</text>
    <text alignment-baseline="central" fill="#777777" font-size="20" text-anchor="middle" x="730.0" y="16.666666666666664">7,0</text>
    <text alignment-baseline="central" font-size="40" text-anchor="middle" x="850.0" y="50.0">9</text>
    <text alignment-baseline="central" fill="#777777" font-size="20" text-anchor="middle" x="830.0" y="16.666666666666664">8,0</text>
    <text alignment-baseline="central" font-size="40" text-anchor="middle" x="250.0" y="150.0">5</text>
    <text alignment-baseline="central" fill="#777777" font-size="20" text-anchor="middle" x="230.0" y="116.66666666666666">2,1</text>
    <text alignment-baseline="central" font-size="40" text-anchor="middle" x="150.0" y="150.0">2</text>
    <text alignment-baseline="central" fill="#777777" font-size="20" text-anchor="middle" x="130.0" y="116.66666666666666">1,1</text>
    <text alignment-baseline="central" font-size="40" text-anchor="middle" x="250.0" y="250.0">9</text>
    <text alignment-baseline="central" fill="#777777" font-size="20" text-anchor="middle" x="230.0" y="216.66666666666666">2,2</text>
    <text alignment-baseline="central" font-size="40" text-anchor="middle" x="150.0" y="50.0">5</text>
    <text alignment-baseline="central" fill="#777777" font-size="20" text-anchor="middle" x="130.0" y="16.666666666666664">1,0</text>
    <polyline fill="none" points="760.0637025430218,46.34538288683112 874.7683771053112,74.94633417301814 732.7595105074835,51.744256538330916 644.2207274920027,58.261840937433675 539.7033889483183,30.599878856638718 434.3250388661806,34.21131636261258 337.1786936978166,68.70766488948121 260.28190646680633,73.73482784064657 137.93374520678057,71.9197236498126 126.83490684338503,148.63633086574384 248.35197313094216,158.41634889051795 274.156827382812,230.46628410505159 236.9899673846043,173.1124618958413 171.54352399584792,143.5086359680439 153.30857030698294,32.247817653031504 271.5935986746889,44.2989386339011 271.1681033295584,139.6838181070058 252.5896375952454,258.89313143795704 355.22628834950007,249.1431539161975 245.71596562732702,271.84849967519756 366.3878949084075,235.6495301242179 237.5536943989601,264.0716062952402 360.7997581865909,230.99008315680382 261.44470059132254,229.58706182511466 334.67689906893855,246.53728151497722 342.88963770271056,173.38843216446116 325.54967002216904,66.1690152933601 272.4515967020228,28.413869639407658 139.13106548084818,69.51827553245047 256.28205429343257,47.024130371865425 348.38849201963495,35.64773358824164 254.0190819313491,31.531605818517967" stroke="orange" stroke-width="3"/>
    <polyline fill="none" points="738.4249674238482,52.26783276960688 862.6631774727357,64.94013897241314 743.8059248695575,50.98492919368384 636.7951560841518,60.18987239087751 559.6777610692402,73.99960752500175 438.41510773670916,44.02852488347342 445.83850069205675,152.36173307068492 373.245312249713,168.3039658045415 244.06277914582603,131.1785928180912 151.08441066116316,133.67524255676287 264.1526582150765,145.80178751126152 225.41974583066371,226.00911466618592 127.73087374142094,242.905586780897 74.26650446402607,247.7537664598396 25.485645059550457,127.81305218002856 54.3447143381384,30.40656433618765 158.99873470696855,70.01530647238366 159.68508398682854,138.60309462955692 142.47104869060828,241.07276953554583 154.4179055150454,342.1432419895804 167.21915635207276,244.85140394179018 239.9088133941753,269.5182917532502 240.3925392701184,127.965756704205 159.48143205539913,170.09682203322632" stroke="seagreen" stroke-width="3"/>
  </g>
</svg>
