<?xml version="1.0" encoding="utf-8" ?>
<svg xmlns="http://www.w3.org/2000/svg" xmlns:ev="http://www.w3.org/2001/xml-events" xmlns:xlink="http://www.w3.org/1999/xlink" baseProfile="full" height="603.0" version="1.1" width="703.0">
  <defs/>
  <g transform="translate(1.5,1.5)">
    <g>
      <rect fill="none" height="600" stroke="#aaaaaa" stroke-width="3.0" width="700" x="0" y="0"/>
      <line stroke="#aaaaaa" stroke-width="3.0" x1="100" x2="100" y1="0" y2="600"/>
      <line stroke="#aaaaaa" stroke-width="3.0" x1="200" x2="200" y1="0" y2="600"/>
      <line stroke="#aaaaaa" stroke-width="3.0" x1="300" x2="300" y1="0" y2="600"/>
      <line stroke="#aaaaaa" stroke-width="3.0" x1="400" x2="400" y1="0" y2="600"/>
      <line stroke="#aaaaaa" stroke-width="3.0" x1="500" x2="500" y1="0" y2="600"/>
      <line stroke="#aaaaaa" stroke-width="3.0" x1="600" x2="600" y1="0" y2="600"/>
      <line stroke="#aaaaaa" stroke-width="3.0" x1="0" x2="700" y1="100" y2="100"/>
      <line stroke="#aaaaaa" stroke-width="3.0" x1="0" x2="700" y1="200" y2="200"/>
      <line stroke="#aaaaaa" stroke-width="3.0" x1="0" x2="700" y1="300" y2="300"/>
      <line stroke="#aaaaaa" stroke-width="3.0" x1="0" x2="700" y1="400" y2="400"/>
      <line stroke="#aaaaaa" stroke-width="3.0" x1="0" x2="700" y1="500" y2="500"/>
    </g>
    <circle cx="350.0" cy="350.0" fill="green" r="44.0"/>
    <text alignment-baseline="central" font-size="40" text-anchor="middle" x="350.0" y="350.0">3</text>
    <text alignment-baseline="central" fill="#777777" font-size="20" text-anchor="middle" x="330.0" y="316.6666666666667">3,3</text>
    <text alignment-baseline="central" font-size="40" text-anchor="middle" x="250.0" y="350.0">5</text>
    <text alignment-baseline="central" fill="#777777" font-size="20" text-anchor="middle" x="230.0" y="316.6666666666667">2,3</text>
    <text alignment-baseline="central" font-size="40" text-anchor="middle" x="650.0" y="250.0">4</text>
    <text alignment-baseline="central" fill="#777777" font-size="20" text-anchor="middle" x="630.0" y="216.66666666666666">6,2</text>
    <text alignment-baseline="central" font-size="40" text-anchor="middle" x="650.0" y="450.0">8</text>
    <text alignment-baseline="central" fill="#777777" font-size="20" text-anchor="middle" x="630.0" y="416.6666666666667">6,4</text>
    <text alignment-baseline="central" font-size="40" text-anchor="middle" x="250.0" y="150.0">6</text>
    <text alignment-baseline="central" fill="#777777" font-size="20" text-anchor="middle" x="230.0" y="116.66666666666666">2,1</text>
    <text alignment-baseline="central" font-size="40" text-anchor="middle" x="450.0" y="550.0">9</text>
    <text alignment-baseline="central" fill="#777777" font-size="20" text-anchor="middle" x="430.0" y="516.6666666666666">4,5</text>
    <text alignment-baseline="central" font-size="40" text-anchor="middle" x="350.0" y="150.0">3</text>
    <text alignment-baseline="central" fill="#777777" font-size="20" text-anchor="middle" x="330.0" y="116.66666666666666">3,1</text>
    <text alignment-baseline="central" font-size="40" text-anchor="middle" x="150.0" y="150.0">4</text>
    <text alignment-baseline="central" fill="#777777" font-size="20" text-anchor="middle" x="130.0" y="116.66666666666666">1,1</text>
    <text alignment-baseline="central" font-size="40" text-anchor="middle" x="50.0" y="250.0">1</text>
    <text alignment-baseline="central" fill="#777777" font-size="20" text-anchor="middle" x="30.0" y="216.66666666666666">0,2</text>
    <text alignment-baseline="central" font-size="40" text-anchor="middle" x="50.0" y="350.0">5</text>
    <text alignment-baseline="central" fill="#777777" font-size="20" text-anchor="middle" x="30.0" y="316.6666666666667">0,3</text>
    <polyline fill="none" points="373.9725063834993,368.8144686004159 225.74175528745022,358.99305183841443 264.4327137779924,273.4573723761643 268.27899805009514,128.36046890559965 363.1353426016323,139.45378341516937 235.19443397664992,161.55185748061524 168.72179872610482,174.83302704947286 34.18469792279883,145.2105241443233 43.902921758239884,263.0031190890218 28.534180156458582,362.68556731422296 28.489748891577044,272.7839957307175 51.461273319058705,174.948478526004 155.21832784146187,152.00912453663435 247.3036746969679,163.11767503909414 367.36170974959765,159.37109231221294 472.12341297864214,147.3494737382416 474.53453711589844,268.9569088692813 448.9785121818556,333.4563952511537 464.8534210811214,447.3854540968584 466.74542503863483,565.1853206913751 437.38526381684414,468.1001953021424 450.8576230116457,355.7451895168193 452.94303512011606,226.78770019678515 553.9284217303169,230.48557260659817 646.079487272604,245.0536434662128 658.2247017921812,154.9793552832866 669.7363897945303,240.11380323262335 636.1391390326576,137.4117176102098 670.1095395245258,237.84238492380894 665.2736564346864,130.7859055148379 646.3357338528122,252.41745229875312 669.0976533459481,355.8460617363863 646.1879918284532,446.5863806578143 628.5385197041519,363.6259040388851 538.8094100511445,353.4403536144104 465.61578084279654,337.2245607212999 349.69879439415496,366.254571145716 237.96272510836138,341.39287556843476 258.71029970525694,260.36634563187863 268.55577036605246,343.0093708903331 245.4422265207915,234.89852599600698 149.04036371213127,267.35103019583596 37.4180782593166,266.03157339395955 160.4749239309167,243.77260162781573 229.31169210071175,231.47476982106133 249.7352168421873,146.7796152529776 373.3851292036574,130.13008734637432 246.04914388233408,139.13018418401214 225.99770649247554,46.308149125139835" stroke="orange" stroke-width="3"/>
    <polyline fill="none" points="363.536349022222,337.5164014322884 443.98761612088,353.73052550659514 369.9215687737368,338.95240305853105 264.93753006276563,345.1144878178683 331.92765769717437,374.25998689619144 434.596945319709,325.5395791891283 547.7898096656027,333.89346919594055 664.7571622073016,341.01930160256285 645.1730353140769,263.57413412260263 653.2198969287365,367.6022684541224 553.0315222102719,335.11616722477055 557.0114542149915,433.74019500996934 647.0720298172514,466.64891482845815 555.3569245077707,461.71336106239045 441.1113958593803,462.36202540463444 330.8169206119475,459.5173252067846 366.44489948264277,347.0335079521063 355.10864009652624,253.19703392991568 265.6166850228375,252.355299595671 267.16593700035304,150.0937890798106 272.8382207539967,261.3974156581087 362.00404469194643,251.000656322527 328.2755367793184,351.32062342842903 341.7879805047412,471.86464963843866 343.33043436167634,541.4616130734057 431.62706278242985,544.4450471218569 426.40535262011315,451.4917392720466 443.8608323579853,352.954834871807 432.6955952585604,229.53930961544916 368.0537901423764,261.8128688159349 272.2484913985245,264.508903663124 235.55471659581065,129.1856198588476 360.5741126891116,170.92260676950877 359.85595249049925,46.76559745720664 274.78067544999004,36.88492213118534 236.0526839609849,137.08996664854112 158.5106400846546,172.76953125362235 143.08970070678626,250.61387759770292 150.44848228762422,335.23342223445434 164.31414980615736,228.28255296949925 37.87958305685918,240.2084178713194 62.801988594757816,368.0897658938827" stroke="seagreen" stroke-width="3"/>
  </g>
</svg>
