<?xml version="1.0" encoding="UTF-8" standalone="no"?>
<!DOCTYPE svg PUBLIC "-//W3C//DTD SVG 1.1//EN"
 "http://www.w3.org/Graphics/SVG/1.1/DTD/svg11.dtd">
<!-- Generated by graphviz version 2.38.0 (20140413.2041)
 -->
<!-- Title: example9.txt Pages: 1 -->
<svg width="1012pt" height="519pt"
 viewBox="0.00 0.00 1012.40 519.20" xmlns="http://www.w3.org/2000/svg" xmlns:xlink="http://www.w3.org/1999/xlink">
<g id="graph0" class="graph" transform="scale(1 1) rotate(0) translate(419.8 255.28)">
<title>example9.txt</title>
<polygon fill="white" stroke="none" points="-419.8,263.92 -419.8,-255.28 592.6,-255.28 592.6,263.92 -419.8,263.92"/>
<g id="clust2" class="cluster"><title>cluster5_0</title>
<polygon fill="none" stroke="black" points="390.6,-143.28 390.6,-251.28 588.6,-251.28 588.6,-143.28 390.6,-143.28"/>
<text text-anchor="middle" x="489.6" y="-236.08" font-family="Times New Roman,serif" font-size="14.00">5,0</text>
</g>
<g id="clust3" class="cluster"><title>cluster2_2</title>
<polygon fill="none" stroke="black" points="-214.2,259.92 -214.2,151.92 -16.2,151.92 -16.2,259.92 -214.2,259.92"/>
<text text-anchor="middle" x="-115.2" y="167.12" font-family="Times New Roman,serif" font-size="14.00">2,2</text>
</g>
<g id="clust5" class="cluster"><title>cluster3_1</title>
<polygon fill="none" stroke="black" points="-12.6,-13.68 -12.6,-49.68 113.4,-49.68 113.4,-13.68 -12.6,-13.68"/>
<text text-anchor="middle" x="50.4" y="-34.48" font-family="Times New Roman,serif" font-size="14.00">3,1</text>
</g>
<g id="clust4" class="cluster"><title>cluster1_1</title>
<polygon fill="none" stroke="black" points="-415.8,58.32 -415.8,-49.68 -217.8,-49.68 -217.8,58.32 -415.8,58.32"/>
<text text-anchor="middle" x="-316.8" y="-34.48" font-family="Times New Roman,serif" font-size="14.00">1,1</text>
</g>
<g id="clust1" class="cluster"><title>cluster2_1</title>
<polygon fill="none" stroke="black" points="-214.2,58.32 -214.2,-49.68 -16.2,-49.68 -16.2,58.32 -214.2,58.32"/>
<text text-anchor="middle" x="-115.2" y="-34.48" font-family="Times New Roman,serif" font-size="14.00">2,1</text>
</g>
<!-- battery2_1_0 -->
<g id="node1" class="node"><title>battery2_1_0</title>
<ellipse fill="none" stroke="black" cx="-187.2" cy="-31.68" rx="27" ry="18"/>
<text text-anchor="middle" x="-187.2" y="-27.98" font-family="Times New Roman,serif" font-size="14.00">0,&#45;1</text>
</g>
<!-- battery2_1_1 -->
<g id="node2" class="node"><title>battery2_1_1</title>
<ellipse fill="none" stroke="black" cx="-115.2" cy="-31.68" rx="27" ry="18"/>
<text text-anchor="middle" x="-115.2" y="-27.98" font-family="Times New Roman,serif" font-size="14.00">1,14</text>
</g>
<!-- battery2_2_0 -->
<g id="node13" class="node"><title>battery2_2_0</title>
<ellipse fill="none" stroke="black" cx="-187.2" cy="169.92" rx="27" ry="18"/>
<text text-anchor="middle" x="-187.2" y="173.62" font-family="Times New Roman,serif" font-size="14.00">0,&#45;1</text>
</g>
<!-- battery2_1_1&#45;&gt;battery2_2_0 -->
<g id="edge16" class="edge"><title>battery2_1_1&#45;&gt;battery2_2_0</title>
<path fill="none" stroke="#000000" stroke-opacity="0.333333" d="M-121.464,-14.142C-134.043,21.081 -162.456,100.638 -177.474,142.688"/>
<polygon fill="none" stroke="#000000" stroke-opacity="0.333333" points="-174.24,144.039 -180.9,152.279 -180.832,141.684 -174.24,144.039"/>
</g>
<!-- battery1_1_0 -->
<g id="node19" class="node"><title>battery1_1_0</title>
<ellipse fill="none" stroke="black" cx="-388.8" cy="-31.68" rx="27" ry="18"/>
<text text-anchor="middle" x="-388.8" y="-27.98" font-family="Times New Roman,serif" font-size="14.00">0,&#45;1</text>
</g>
<!-- battery2_1_1&#45;&gt;battery1_1_0 -->
<g id="edge15" class="edge"><title>battery2_1_1&#45;&gt;battery1_1_0</title>
<path fill="none" stroke="#000000" stroke-opacity="0.333333" d="M-142.434,-31.68C-191.702,-31.68 -295.689,-31.68 -351.511,-31.68"/>
<polygon fill="none" stroke="#000000" stroke-opacity="0.333333" points="-351.676,-28.1801 -361.676,-31.68 -351.676,-35.1801 -351.676,-28.1801"/>
</g>
<!-- battery2_1_2 -->
<g id="node3" class="node"><title>battery2_1_2</title>
<ellipse fill="none" stroke="black" cx="-43.2" cy="-31.68" rx="27" ry="18"/>
<text text-anchor="middle" x="-43.2" y="-27.98" font-family="Times New Roman,serif" font-size="14.00">2,4</text>
</g>
<!-- battery2_1_2&#45;&gt;battery2_1_0 -->
<g id="edge14" class="edge"><title>battery2_1_2&#45;&gt;battery2_1_0</title>
<path fill="none" stroke="#000000" stroke-opacity="0.333333" d="M-70.2853,-31.68C-92.6695,-31.68 -124.697,-31.68 -149.573,-31.68"/>
<polygon fill="none" stroke="#000000" stroke-opacity="0.333333" points="-149.747,-28.1801 -159.747,-31.68 -149.747,-35.1801 -149.747,-28.1801"/>
</g>
<!-- battery2_2_1 -->
<g id="node14" class="node"><title>battery2_2_1</title>
<ellipse fill="none" stroke="black" cx="-115.2" cy="169.92" rx="27" ry="18"/>
<text text-anchor="middle" x="-115.2" y="173.62" font-family="Times New Roman,serif" font-size="14.00">1,6</text>
</g>
<!-- battery2_1_2&#45;&gt;battery2_2_1 -->
<g id="edge13" class="edge"><title>battery2_1_2&#45;&gt;battery2_2_1</title>
<path fill="none" stroke="#000000" stroke-opacity="0.333333" d="M-49.4636,-14.142C-62.0432,21.081 -90.4563,100.638 -105.474,142.688"/>
<polygon fill="none" stroke="#000000" stroke-opacity="0.333333" points="-102.24,144.039 -108.9,152.279 -108.832,141.684 -102.24,144.039"/>
</g>
<!-- battery1_1_1 -->
<g id="node20" class="node"><title>battery1_1_1</title>
<ellipse fill="yellow" stroke="black" cx="-316.8" cy="-31.68" rx="27" ry="18"/>
<text text-anchor="middle" x="-316.8" y="-27.98" font-family="Times New Roman,serif" font-size="14.00">1,5</text>
</g>
<!-- battery2_1_2&#45;&gt;battery1_1_1 -->
<g id="edge12" class="edge"><title>battery2_1_2&#45;&gt;battery1_1_1</title>
<path fill="none" stroke="#000000" stroke-opacity="0.333333" d="M-70.4341,-31.68C-119.702,-31.68 -223.689,-31.68 -279.511,-31.68"/>
<polygon fill="none" stroke="#000000" stroke-opacity="0.333333" points="-279.676,-28.1801 -289.676,-31.68 -279.676,-35.1801 -279.676,-28.1801"/>
</g>
<!-- battery2_1_3 -->
<g id="node4" class="node"><title>battery2_1_3</title>
<ellipse fill="none" stroke="black" cx="-187.2" cy="40.32" rx="27" ry="18"/>
<text text-anchor="middle" x="-187.2" y="44.02" font-family="Times New Roman,serif" font-size="14.00">3,15</text>
</g>
<!-- battery2_1_3&#45;&gt;battery2_1_1 -->
<g id="edge21" class="edge"><title>battery2_1_3&#45;&gt;battery2_1_1</title>
<path fill="none" stroke="#000000" stroke-opacity="0.333333" d="M-171.931,25.0507C-162.003,15.123 -148.885,2.00469 -137.764,-9.11634"/>
<polygon fill="none" stroke="#000000" stroke-opacity="0.333333" points="-139.993,-11.8364 -130.447,-16.4327 -135.044,-6.88668 -139.993,-11.8364"/>
</g>
<!-- battery2_1_3&#45;&gt;battery2_2_0 -->
<g id="edge20" class="edge"><title>battery2_1_3&#45;&gt;battery2_2_0</title>
<path fill="none" stroke="#000000" stroke-opacity="0.333333" d="M-187.2,58.3403C-187.2,79.884 -187.2,116.199 -187.2,141.528"/>
<polygon fill="none" stroke="#000000" stroke-opacity="0.333333" points="-183.7,141.635 -187.2,151.635 -190.7,141.635 -183.7,141.635"/>
</g>
<!-- battery2_2_2 -->
<g id="node15" class="node"><title>battery2_2_2</title>
<ellipse fill="none" stroke="black" cx="-43.2" cy="169.92" rx="27" ry="18"/>
<text text-anchor="middle" x="-43.2" y="173.62" font-family="Times New Roman,serif" font-size="14.00">2,17</text>
</g>
<!-- battery2_1_3&#45;&gt;battery2_2_2 -->
<g id="edge18" class="edge"><title>battery2_1_3&#45;&gt;battery2_2_2</title>
<path fill="none" stroke="#000000" stroke-opacity="0.333333" d="M-170.961,54.9348C-145.682,77.6865 -96.7719,121.705 -67.3471,148.188"/>
<polygon fill="none" stroke="#000000" stroke-opacity="0.333333" points="-64.6919,145.868 -59.6003,155.16 -69.3747,151.072 -64.6919,145.868"/>
</g>
<!-- battery2_1_3&#45;&gt;battery1_1_0 -->
<g id="edge19" class="edge"><title>battery2_1_3&#45;&gt;battery1_1_0</title>
<path fill="none" stroke="#000000" stroke-opacity="0.333333" d="M-211.118,31.7779C-246.962,18.9764 -314.74,-5.22988 -355.433,-19.7632"/>
<polygon fill="none" stroke="#000000" stroke-opacity="0.333333" points="-356.673,-16.4895 -364.913,-23.149 -354.319,-23.0817 -356.673,-16.4895"/>
</g>
<!-- battery1_1_2 -->
<g id="node21" class="node"><title>battery1_1_2</title>
<ellipse fill="none" stroke="black" cx="-244.8" cy="-31.68" rx="27" ry="18"/>
<text text-anchor="middle" x="-244.8" y="-27.98" font-family="Times New Roman,serif" font-size="14.00">2,16</text>
</g>
<!-- battery2_1_3&#45;&gt;battery1_1_2 -->
<g id="edge17" class="edge"><title>battery2_1_3&#45;&gt;battery1_1_2</title>
<path fill="none" stroke="#000000" stroke-opacity="0.333333" d="M-199.983,24.3409C-207.515,14.9261 -217.19,2.83259 -225.622,-7.707"/>
<polygon fill="none" stroke="#000000" stroke-opacity="0.333333" points="-228.538,-5.75038 -232.052,-15.7455 -223.072,-10.1233 -228.538,-5.75038"/>
</g>
<!-- battery2_1_4 -->
<g id="node5" class="node"><title>battery2_1_4</title>
<ellipse fill="none" stroke="black" cx="-115.2" cy="40.32" rx="27" ry="18"/>
<text text-anchor="middle" x="-115.2" y="44.02" font-family="Times New Roman,serif" font-size="14.00">4,2</text>
</g>
<!-- battery2_1_4&#45;&gt;battery2_1_0 -->
<g id="edge11" class="edge"><title>battery2_1_4&#45;&gt;battery2_1_0</title>
<path fill="none" stroke="#000000" stroke-opacity="0.333333" d="M-130.469,25.0507C-140.397,15.123 -153.515,2.00469 -164.636,-9.11634"/>
<polygon fill="none" stroke="#000000" stroke-opacity="0.333333" points="-167.356,-6.88668 -171.953,-16.4327 -162.407,-11.8364 -167.356,-6.88668"/>
</g>
<!-- battery2_1_4&#45;&gt;battery2_1_2 -->
<g id="edge10" class="edge"><title>battery2_1_4&#45;&gt;battery2_1_2</title>
<path fill="none" stroke="#000000" stroke-opacity="0.333333" d="M-99.9307,25.0507C-90.003,15.123 -76.8847,2.00469 -65.7637,-9.11634"/>
<polygon fill="none" stroke="#000000" stroke-opacity="0.333333" points="-67.9933,-11.8364 -58.4473,-16.4327 -63.0436,-6.88668 -67.9933,-11.8364"/>
</g>
<!-- battery5_0_0 -->
<g id="node7" class="node"><title>battery5_0_0</title>
<ellipse fill="none" stroke="black" cx="417.6" cy="-233.28" rx="27" ry="18"/>
<text text-anchor="middle" x="417.6" y="-229.58" font-family="Times New Roman,serif" font-size="14.00">0,&#45;1</text>
</g>
<!-- battery2_1_4&#45;&gt;battery5_0_0 -->
<g id="edge9" class="edge"><title>battery2_1_4&#45;&gt;battery5_0_0</title>
<path fill="none" stroke="#000000" stroke-opacity="0.333333" d="M-93.6537,29.2557C-10.4705,-13.46 289.923,-167.716 387.066,-217.6"/>
<polygon fill="none" stroke="#000000" stroke-opacity="0.333333" points="385.584,-220.774 396.078,-222.228 388.782,-214.547 385.584,-220.774"/>
</g>
<!-- battery2_2_3 -->
<g id="node16" class="node"><title>battery2_2_3</title>
<ellipse fill="none" stroke="black" cx="-187.2" cy="241.92" rx="27" ry="18"/>
<text text-anchor="middle" x="-187.2" y="245.62" font-family="Times New Roman,serif" font-size="14.00">3,7</text>
</g>
<!-- battery2_1_4&#45;&gt;battery2_2_3 -->
<g id="edge8" class="edge"><title>battery2_1_4&#45;&gt;battery2_2_3</title>
<path fill="none" stroke="#000000" stroke-opacity="0.333333" d="M-121.464,57.858C-134.043,93.081 -162.456,172.638 -177.474,214.688"/>
<polygon fill="none" stroke="#000000" stroke-opacity="0.333333" points="-174.24,216.039 -180.9,224.279 -180.832,213.684 -174.24,216.039"/>
</g>
<!-- battery1_1_3 -->
<g id="node22" class="node"><title>battery1_1_3</title>
<ellipse fill="none" stroke="black" cx="-388.8" cy="40.32" rx="27" ry="18"/>
<text text-anchor="middle" x="-388.8" y="44.02" font-family="Times New Roman,serif" font-size="14.00">3,3</text>
</g>
<!-- battery2_1_4&#45;&gt;battery1_1_3 -->
<g id="edge7" class="edge"><title>battery2_1_4&#45;&gt;battery1_1_3</title>
<path fill="none" stroke="#000000" stroke-opacity="0.333333" d="M-142.434,40.32C-191.702,40.32 -295.689,40.32 -351.511,40.32"/>
<polygon fill="none" stroke="#000000" stroke-opacity="0.333333" points="-351.676,43.8199 -361.676,40.32 -351.676,36.8199 -351.676,43.8199"/>
</g>
<!-- battery2_1_6 -->
<g id="node6" class="node"><title>battery2_1_6</title>
<ellipse fill="yellow" stroke="black" cx="-43.2" cy="40.32" rx="27" ry="18"/>
<text text-anchor="middle" x="-43.2" y="44.02" font-family="Times New Roman,serif" font-size="14.00">6,0</text>
</g>
<!-- battery2_1_6&#45;&gt;battery2_1_0 -->
<g id="edge6" class="edge"><title>battery2_1_6&#45;&gt;battery2_1_0</title>
<path fill="none" stroke="#000000" stroke-opacity="0.333333" d="M-65.0705,29.3847C-89.4222,17.2089 -128.962,-2.56101 -156.428,-16.2942"/>
<polygon fill="none" stroke="#000000" stroke-opacity="0.333333" points="-158.216,-13.2751 -165.595,-20.8778 -155.086,-19.5361 -158.216,-13.2751"/>
</g>
<!-- battery2_1_6&#45;&gt;battery2_1_4 -->
<g id="edge5" class="edge"><title>battery2_1_6&#45;&gt;battery2_1_4</title>
<path fill="none" stroke="#000000" stroke-opacity="0.333333" d="M-70.4201,40.32C-72.8393,40.32 -75.3149,40.32 -77.7994,40.32"/>
<polygon fill="none" stroke="#000000" stroke-opacity="0.333333" points="-77.9414,43.8199 -87.9414,40.32 -77.9414,36.8199 -77.9414,43.8199"/>
</g>
<!-- battery2_1_6&#45;&gt;battery5_0_0 -->
<g id="edge4" class="edge"><title>battery2_1_6&#45;&gt;battery5_0_0</title>
<path fill="none" stroke="#000000" stroke-opacity="0.333333" d="M-22.8054,28.2107C50.7181,-15.4438 302.361,-164.857 388.446,-215.97"/>
<polygon fill="none" stroke="#000000" stroke-opacity="0.333333" points="386.795,-219.06 397.18,-221.156 390.369,-213.041 386.795,-219.06"/>
</g>
<!-- battery5_0_2 -->
<g id="node9" class="node"><title>battery5_0_2</title>
<ellipse fill="none" stroke="black" cx="561.6" cy="-233.28" rx="27" ry="18"/>
<text text-anchor="middle" x="561.6" y="-229.58" font-family="Times New Roman,serif" font-size="14.00">2,9</text>
</g>
<!-- battery2_1_6&#45;&gt;battery5_0_2 -->
<g id="edge3" class="edge"><title>battery2_1_6&#45;&gt;battery5_0_2</title>
<path fill="none" stroke="#000000" stroke-opacity="0.333333" d="M-20.5949,30.0939C71.9442,-11.769 422.062,-170.156 529.833,-218.909"/>
<polygon fill="none" stroke="#000000" stroke-opacity="0.333333" points="528.649,-222.215 539.203,-223.148 531.534,-215.837 528.649,-222.215"/>
</g>
<!-- battery2_2_5 -->
<g id="node18" class="node"><title>battery2_2_5</title>
<ellipse fill="none" stroke="black" cx="-43.2" cy="241.92" rx="27" ry="18"/>
<text text-anchor="middle" x="-43.2" y="245.62" font-family="Times New Roman,serif" font-size="14.00">5,8</text>
</g>
<!-- battery2_1_6&#45;&gt;battery2_2_5 -->
<g id="edge2" class="edge"><title>battery2_1_6&#45;&gt;battery2_2_5</title>
<path fill="none" stroke="#000000" stroke-opacity="0.333333" d="M-43.2,58.5662C-43.2,93.875 -43.2,171.759 -43.2,213.76"/>
<polygon fill="none" stroke="#000000" stroke-opacity="0.333333" points="-39.6999,213.86 -43.2,223.86 -46.6999,213.86 -39.6999,213.86"/>
</g>
<!-- battery1_1_5 -->
<g id="node23" class="node"><title>battery1_1_5</title>
<ellipse fill="none" stroke="black" cx="-316.8" cy="40.32" rx="27" ry="18"/>
<text text-anchor="middle" x="-316.8" y="44.02" font-family="Times New Roman,serif" font-size="14.00">5,1</text>
</g>
<!-- battery2_1_6&#45;&gt;battery1_1_5 -->
<g id="edge1" class="edge"><title>battery2_1_6&#45;&gt;battery1_1_5</title>
<path fill="none" stroke="#000000" stroke-opacity="0.333333" d="M-70.4341,40.32C-119.702,40.32 -223.689,40.32 -279.511,40.32"/>
<polygon fill="none" stroke="#000000" stroke-opacity="0.333333" points="-279.676,43.8199 -289.676,40.32 -279.676,36.8199 -279.676,43.8199"/>
</g>
<!-- battery5_0_1 -->
<g id="node8" class="node"><title>battery5_0_1</title>
<ellipse fill="none" stroke="black" cx="489.6" cy="-233.28" rx="27" ry="18"/>
<text text-anchor="middle" x="489.6" y="-229.58" font-family="Times New Roman,serif" font-size="14.00">1,13</text>
</g>
<!-- battery5_0_2&#45;&gt;battery5_0_0 -->
<g id="edge22" class="edge"><title>battery5_0_2&#45;&gt;battery5_0_0</title>
<path fill="none" stroke="#000000" stroke-opacity="0.333333" d="M534.515,-233.28C512.13,-233.28 480.103,-233.28 455.228,-233.28"/>
<polygon fill="none" stroke="#000000" stroke-opacity="0.333333" points="455.053,-229.78 445.053,-233.28 455.053,-236.78 455.053,-229.78"/>
</g>
<!-- battery5_0_3 -->
<g id="node10" class="node"><title>battery5_0_3</title>
<ellipse fill="none" stroke="black" cx="417.6" cy="-161.28" rx="27" ry="18"/>
<text text-anchor="middle" x="417.6" y="-157.58" font-family="Times New Roman,serif" font-size="14.00">3,12</text>
</g>
<!-- battery5_0_3&#45;&gt;battery5_0_1 -->
<g id="edge33" class="edge"><title>battery5_0_3&#45;&gt;battery5_0_1</title>
<path fill="none" stroke="#000000" stroke-opacity="0.333333" d="M432.869,-176.549C442.797,-186.477 455.915,-199.595 467.036,-210.716"/>
<polygon fill="none" stroke="#000000" stroke-opacity="0.333333" points="464.807,-213.436 474.353,-218.033 469.756,-208.487 464.807,-213.436"/>
</g>
<!-- battery5_0_5 -->
<g id="node11" class="node"><title>battery5_0_5</title>
<ellipse fill="none" stroke="black" cx="489.6" cy="-161.28" rx="27" ry="18"/>
<text text-anchor="middle" x="489.6" y="-157.58" font-family="Times New Roman,serif" font-size="14.00">5,11</text>
</g>
<!-- battery5_0_5&#45;&gt;battery2_1_1 -->
<g id="edge29" class="edge"><title>battery5_0_5&#45;&gt;battery2_1_1</title>
<path fill="none" stroke="#000000" stroke-opacity="0.333333" d="M463.613,-155.711C367.457,-135.106 31.6933,-63.1571 -79.2866,-39.3757"/>
<polygon fill="none" stroke="#000000" stroke-opacity="0.333333" points="-78.7979,-35.9011 -89.3093,-37.228 -80.2647,-42.7457 -78.7979,-35.9011"/>
</g>
<!-- battery5_0_5&#45;&gt;battery5_0_3 -->
<g id="edge32" class="edge"><title>battery5_0_5&#45;&gt;battery5_0_3</title>
<path fill="none" stroke="#000000" stroke-opacity="0.333333" d="M462.38,-161.28C459.961,-161.28 457.485,-161.28 455.001,-161.28"/>
<polygon fill="none" stroke="#000000" stroke-opacity="0.333333" points="454.859,-157.78 444.859,-161.28 454.859,-164.78 454.859,-157.78"/>
</g>
<!-- battery5_0_5&#45;&gt;battery2_2_0 -->
<g id="edge31" class="edge"><title>battery5_0_5&#45;&gt;battery2_2_0</title>
<path fill="none" stroke="#000000" stroke-opacity="0.333333" d="M467.466,-150.449C367.752,-101.652 -39.912,97.8429 -156.137,154.719"/>
<polygon fill="none" stroke="#000000" stroke-opacity="0.333333" points="-154.715,157.919 -165.235,159.171 -157.792,151.632 -154.715,157.919"/>
</g>
<!-- battery5_0_5&#45;&gt;battery1_1_0 -->
<g id="edge30" class="edge"><title>battery5_0_5&#45;&gt;battery1_1_0</title>
<path fill="none" stroke="#000000" stroke-opacity="0.333333" d="M462.832,-157.331C335.903,-138.603 -205.258,-58.76 -351.979,-37.1126"/>
<polygon fill="none" stroke="#000000" stroke-opacity="0.333333" points="-351.837,-33.5958 -362.241,-35.5986 -352.859,-40.5208 -351.837,-33.5958"/>
</g>
<!-- battery5_0_7 -->
<g id="node12" class="node"><title>battery5_0_7</title>
<ellipse fill="yellow" stroke="black" cx="561.6" cy="-161.28" rx="27" ry="18"/>
<text text-anchor="middle" x="561.6" y="-157.58" font-family="Times New Roman,serif" font-size="14.00">7,10</text>
</g>
<!-- battery5_0_7&#45;&gt;battery2_1_3 -->
<g id="edge23" class="edge"><title>battery5_0_7&#45;&gt;battery2_1_3</title>
<path fill="none" stroke="#000000" stroke-opacity="0.333333" d="M536.257,-154.457C424.7,-124.422 -22.8129,-3.93806 -152.075,30.8632"/>
<polygon fill="none" stroke="#000000" stroke-opacity="0.333333" points="-151.297,34.2784 -161.863,33.4986 -153.117,27.5191 -151.297,34.2784"/>
</g>
<!-- battery5_0_7&#45;&gt;battery5_0_5 -->
<g id="edge28" class="edge"><title>battery5_0_7&#45;&gt;battery5_0_5</title>
<path fill="none" stroke="#000000" stroke-opacity="0.333333" d="M534.38,-161.28C531.961,-161.28 529.485,-161.28 527.001,-161.28"/>
<polygon fill="none" stroke="#000000" stroke-opacity="0.333333" points="526.859,-157.78 516.859,-161.28 526.859,-164.78 526.859,-157.78"/>
</g>
<!-- battery5_0_7&#45;&gt;battery2_2_0 -->
<g id="edge27" class="edge"><title>battery5_0_7&#45;&gt;battery2_2_0</title>
<path fill="none" stroke="#000000" stroke-opacity="0.333333" d="M538.781,-151.187C430.796,-103.425 -28.8923,99.8993 -155.057,155.703"/>
<polygon fill="none" stroke="#000000" stroke-opacity="0.333333" points="-153.998,159.062 -164.559,159.906 -156.83,152.66 -153.998,159.062"/>
</g>
<!-- battery5_0_7&#45;&gt;battery2_2_2 -->
<g id="edge25" class="edge"><title>battery5_0_7&#45;&gt;battery2_2_2</title>
<path fill="none" stroke="#000000" stroke-opacity="0.333333" d="M540.429,-149.687C449.61,-99.9524 92.7928,95.4477 -13.2951,153.544"/>
<polygon fill="none" stroke="#000000" stroke-opacity="0.333333" points="-11.7492,156.687 -22.2013,158.421 -15.1115,150.548 -11.7492,156.687"/>
</g>
<!-- battery5_0_7&#45;&gt;battery1_1_0 -->
<g id="edge26" class="edge"><title>battery5_0_7&#45;&gt;battery1_1_0</title>
<path fill="none" stroke="#000000" stroke-opacity="0.333333" d="M534.939,-157.644C401.086,-139.392 -197.316,-57.7914 -352.136,-36.6797"/>
<polygon fill="none" stroke="#000000" stroke-opacity="0.333333" points="-351.713,-33.205 -362.094,-35.3217 -352.659,-40.1408 -351.713,-33.205"/>
</g>
<!-- battery5_0_7&#45;&gt;battery1_1_2 -->
<g id="edge24" class="edge"><title>battery5_0_7&#45;&gt;battery1_1_2</title>
<path fill="none" stroke="#000000" stroke-opacity="0.333333" d="M535.228,-157.042C416.313,-137.93 -70.1773,-59.7444 -208.16,-37.5685"/>
<polygon fill="none" stroke="#000000" stroke-opacity="0.333333" points="-207.793,-34.0826 -218.222,-35.9514 -208.904,-40.994 -207.793,-34.0826"/>
</g>
<!-- battery2_2_1&#45;&gt;battery2_1_0 -->
<g id="edge34" class="edge"><title>battery2_2_1&#45;&gt;battery2_1_0</title>
<path fill="none" stroke="#000000" stroke-opacity="0.333333" d="M-121.464,152.382C-134.043,117.159 -162.456,37.6023 -177.474,-4.44829"/>
<polygon fill="none" stroke="#000000" stroke-opacity="0.333333" points="-180.832,-3.44436 -180.9,-14.039 -174.24,-5.79876 -180.832,-3.44436"/>
</g>
<!-- battery2_2_2&#45;&gt;battery2_1_1 -->
<g id="edge44" class="edge"><title>battery2_2_2&#45;&gt;battery2_1_1</title>
<path fill="none" stroke="#000000" stroke-opacity="0.333333" d="M-49.4636,152.382C-62.0432,117.159 -90.4563,37.6023 -105.474,-4.44829"/>
<polygon fill="none" stroke="#000000" stroke-opacity="0.333333" points="-108.832,-3.44436 -108.9,-14.039 -102.24,-5.79876 -108.832,-3.44436"/>
</g>
<!-- battery2_2_2&#45;&gt;battery2_2_0 -->
<g id="edge46" class="edge"><title>battery2_2_2&#45;&gt;battery2_2_0</title>
<path fill="none" stroke="#000000" stroke-opacity="0.333333" d="M-70.2853,169.92C-92.6695,169.92 -124.697,169.92 -149.573,169.92"/>
<polygon fill="none" stroke="#000000" stroke-opacity="0.333333" points="-149.747,173.42 -159.747,169.92 -149.747,166.42 -149.747,173.42"/>
</g>
<!-- battery2_2_2&#45;&gt;battery1_1_0 -->
<g id="edge45" class="edge"><title>battery2_2_2&#45;&gt;battery1_1_0</title>
<path fill="none" stroke="#000000" stroke-opacity="0.333333" d="M-63.5286,158.062C-121.983,123.963 -290.708,25.5403 -359.289,-14.4653"/>
<polygon fill="none" stroke="#000000" stroke-opacity="0.333333" points="-361.405,-11.6478 -368.28,-19.7098 -357.878,-17.6942 -361.405,-11.6478"/>
</g>
<!-- battery2_2_3&#45;&gt;battery2_1_0 -->
<g id="edge37" class="edge"><title>battery2_2_3&#45;&gt;battery2_1_0</title>
<path fill="none" stroke="#000000" stroke-opacity="0.333333" d="M-187.2,223.543C-187.2,176.816 -187.2,53.1904 -187.2,-3.07193"/>
<polygon fill="none" stroke="#000000" stroke-opacity="0.333333" points="-190.7,-3.38344 -187.2,-13.3835 -183.7,-3.38351 -190.7,-3.38344"/>
</g>
<!-- battery2_2_3&#45;&gt;battery2_1_2 -->
<g id="edge35" class="edge"><title>battery2_2_3&#45;&gt;battery2_1_2</title>
<path fill="none" stroke="#000000" stroke-opacity="0.333333" d="M-178.192,224.805C-153.746,178.357 -86.0393,49.7146 -56.865,-5.71646"/>
<polygon fill="none" stroke="#000000" stroke-opacity="0.333333" points="-59.9592,-7.3525 -52.2044,-14.5716 -53.7647,-4.09224 -59.9592,-7.3525"/>
</g>
<!-- battery2_2_3&#45;&gt;battery2_2_1 -->
<g id="edge38" class="edge"><title>battery2_2_3&#45;&gt;battery2_2_1</title>
<path fill="none" stroke="#000000" stroke-opacity="0.333333" d="M-171.931,226.651C-162.003,216.723 -148.885,203.605 -137.764,192.484"/>
<polygon fill="none" stroke="#000000" stroke-opacity="0.333333" points="-139.993,189.764 -130.447,185.167 -135.044,194.713 -139.993,189.764"/>
</g>
<!-- battery2_2_3&#45;&gt;battery1_1_1 -->
<g id="edge36" class="edge"><title>battery2_2_3&#45;&gt;battery1_1_1</title>
<path fill="none" stroke="#000000" stroke-opacity="0.333333" d="M-195.504,224.389C-217.587,177.77 -277.865,50.5157 -304.203,-5.08731"/>
<polygon fill="none" stroke="#000000" stroke-opacity="0.333333" points="-307.447,-3.75918 -308.565,-14.2949 -301.121,-6.75582 -307.447,-3.75918"/>
</g>
<!-- battery2_2_4 -->
<g id="node17" class="node"><title>battery2_2_4</title>
<ellipse fill="yellow" stroke="black" cx="-115.2" cy="241.92" rx="27" ry="18"/>
<text text-anchor="middle" x="-115.2" y="245.62" font-family="Times New Roman,serif" font-size="14.00">4,18</text>
</g>
<!-- battery2_2_4&#45;&gt;battery2_1_3 -->
<g id="edge47" class="edge"><title>battery2_2_4&#45;&gt;battery2_1_3</title>
<path fill="none" stroke="#000000" stroke-opacity="0.333333" d="M-121.464,224.382C-134.043,189.159 -162.456,109.602 -177.474,67.5517"/>
<polygon fill="none" stroke="#000000" stroke-opacity="0.333333" points="-180.832,68.5556 -180.9,57.961 -174.24,66.2012 -180.832,68.5556"/>
</g>
<!-- battery2_2_4&#45;&gt;battery2_2_0 -->
<g id="edge51" class="edge"><title>battery2_2_4&#45;&gt;battery2_2_0</title>
<path fill="none" stroke="#000000" stroke-opacity="0.333333" d="M-130.469,226.651C-140.397,216.723 -153.515,203.605 -164.636,192.484"/>
<polygon fill="none" stroke="#000000" stroke-opacity="0.333333" points="-167.356,194.713 -171.953,185.167 -162.407,189.764 -167.356,194.713"/>
</g>
<!-- battery2_2_4&#45;&gt;battery2_2_2 -->
<g id="edge50" class="edge"><title>battery2_2_4&#45;&gt;battery2_2_2</title>
<path fill="none" stroke="#000000" stroke-opacity="0.333333" d="M-99.9307,226.651C-90.003,216.723 -76.8847,203.605 -65.7637,192.484"/>
<polygon fill="none" stroke="#000000" stroke-opacity="0.333333" points="-67.9933,189.764 -58.4473,185.167 -63.0436,194.713 -67.9933,189.764"/>
</g>
<!-- battery2_2_4&#45;&gt;battery1_1_0 -->
<g id="edge49" class="edge"><title>battery2_2_4&#45;&gt;battery1_1_0</title>
<path fill="none" stroke="#000000" stroke-opacity="0.333333" d="M-130.3,226.82C-175.892,181.228 -312.337,44.7834 -366.39,-9.27033"/>
<polygon fill="none" stroke="#000000" stroke-opacity="0.333333" points="-369.151,-7.08104 -373.747,-16.627 -364.201,-12.0308 -369.151,-7.08104"/>
</g>
<!-- battery2_2_4&#45;&gt;battery1_1_2 -->
<g id="edge48" class="edge"><title>battery2_2_4&#45;&gt;battery1_1_2</title>
<path fill="none" stroke="#000000" stroke-opacity="0.333333" d="M-123.504,224.389C-145.587,177.77 -205.865,50.5157 -232.203,-5.08731"/>
<polygon fill="none" stroke="#000000" stroke-opacity="0.333333" points="-235.447,-3.75918 -236.565,-14.2949 -229.121,-6.75582 -235.447,-3.75918"/>
</g>
<!-- battery2_2_5&#45;&gt;battery2_1_0 -->
<g id="edge42" class="edge"><title>battery2_2_5&#45;&gt;battery2_1_0</title>
<path fill="none" stroke="#000000" stroke-opacity="0.333333" d="M-52.2078,224.805C-76.654,178.357 -144.361,49.7146 -173.535,-5.71646"/>
<polygon fill="none" stroke="#000000" stroke-opacity="0.333333" points="-176.635,-4.09224 -178.196,-14.5716 -170.441,-7.3525 -176.635,-4.09224"/>
</g>
<!-- battery2_2_5&#45;&gt;battery2_1_4 -->
<g id="edge39" class="edge"><title>battery2_2_5&#45;&gt;battery2_1_4</title>
<path fill="none" stroke="#000000" stroke-opacity="0.333333" d="M-49.4636,224.382C-62.0432,189.159 -90.4563,109.602 -105.474,67.5517"/>
<polygon fill="none" stroke="#000000" stroke-opacity="0.333333" points="-108.832,68.5556 -108.9,57.961 -102.24,66.2012 -108.832,68.5556"/>
</g>
<!-- battery2_2_5&#45;&gt;battery5_0_0 -->
<g id="edge41" class="edge"><title>battery2_2_5&#45;&gt;battery5_0_0</title>
<path fill="none" stroke="#000000" stroke-opacity="0.333333" d="M-28.3903,226.647C38.7653,157.393 314.884,-127.354 395.442,-210.43"/>
<polygon fill="none" stroke="#000000" stroke-opacity="0.333333" points="393.14,-213.083 402.614,-217.826 398.165,-208.21 393.14,-213.083"/>
</g>
<!-- battery2_2_5&#45;&gt;battery2_2_3 -->
<g id="edge43" class="edge"><title>battery2_2_5&#45;&gt;battery2_2_3</title>
<path fill="none" stroke="#000000" stroke-opacity="0.333333" d="M-70.2853,241.92C-92.6695,241.92 -124.697,241.92 -149.573,241.92"/>
<polygon fill="none" stroke="#000000" stroke-opacity="0.333333" points="-149.747,245.42 -159.747,241.92 -149.747,238.42 -149.747,245.42"/>
</g>
<!-- battery2_2_5&#45;&gt;battery1_1_3 -->
<g id="edge40" class="edge"><title>battery2_2_5&#45;&gt;battery1_1_3</title>
<path fill="none" stroke="#000000" stroke-opacity="0.333333" d="M-63.5286,230.062C-121.983,195.963 -290.708,97.5403 -359.289,57.5347"/>
<polygon fill="none" stroke="#000000" stroke-opacity="0.333333" points="-361.405,60.3522 -368.28,52.2902 -357.878,54.3058 -361.405,60.3522"/>
</g>
<!-- battery1_1_1&#45;&gt;battery2_1_0 -->
<g id="edge61" class="edge"><title>battery1_1_1&#45;&gt;battery2_1_0</title>
<path fill="none" stroke="#000000" stroke-opacity="0.333333" d="M-289.632,-31.68C-270.71,-31.68 -245.236,-31.68 -224.427,-31.68"/>
<polygon fill="none" stroke="#000000" stroke-opacity="0.333333" points="-224.333,-35.1801 -214.333,-31.68 -224.333,-28.1801 -224.333,-35.1801"/>
</g>
<!-- battery1_1_2&#45;&gt;battery2_1_1 -->
<g id="edge62" class="edge"><title>battery1_1_2&#45;&gt;battery2_1_1</title>
<path fill="none" stroke="#000000" stroke-opacity="0.333333" d="M-217.632,-31.68C-198.71,-31.68 -173.236,-31.68 -152.427,-31.68"/>
<polygon fill="none" stroke="#000000" stroke-opacity="0.333333" points="-152.333,-35.1801 -142.333,-31.68 -152.333,-28.1801 -152.333,-35.1801"/>
</g>
<!-- battery1_1_2&#45;&gt;battery2_2_0 -->
<g id="edge63" class="edge"><title>battery1_1_2&#45;&gt;battery2_2_0</title>
<path fill="none" stroke="#000000" stroke-opacity="0.333333" d="M-239.688,-13.7893C-229.612,21.4789 -207.122,100.194 -195.113,142.223"/>
<polygon fill="none" stroke="#000000" stroke-opacity="0.333333" points="-191.682,141.493 -192.3,152.069 -198.413,143.416 -191.682,141.493"/>
</g>
<!-- battery1_1_2&#45;&gt;battery1_1_0 -->
<g id="edge64" class="edge"><title>battery1_1_2&#45;&gt;battery1_1_0</title>
<path fill="none" stroke="#000000" stroke-opacity="0.333333" d="M-271.885,-31.68C-294.27,-31.68 -326.297,-31.68 -351.173,-31.68"/>
<polygon fill="none" stroke="#000000" stroke-opacity="0.333333" points="-351.347,-28.1801 -361.347,-31.68 -351.347,-35.1801 -351.347,-28.1801"/>
</g>
<!-- battery1_1_3&#45;&gt;battery2_1_0 -->
<g id="edge59" class="edge"><title>battery1_1_3&#45;&gt;battery2_1_0</title>
<path fill="none" stroke="#000000" stroke-opacity="0.333333" d="M-364.882,31.7779C-329.038,18.9764 -261.26,-5.22988 -220.567,-19.7632"/>
<polygon fill="none" stroke="#000000" stroke-opacity="0.333333" points="-221.681,-23.0817 -211.087,-23.149 -219.327,-16.4895 -221.681,-23.0817"/>
</g>
<!-- battery1_1_3&#45;&gt;battery2_1_2 -->
<g id="edge57" class="edge"><title>battery1_1_3&#45;&gt;battery2_1_2</title>
<path fill="none" stroke="#000000" stroke-opacity="0.333333" d="M-362.824,34.9083C-301.754,22.1855 -148.96,-9.64662 -79.0876,-24.2034"/>
<polygon fill="none" stroke="#000000" stroke-opacity="0.333333" points="-79.5098,-27.6905 -69.0062,-26.3037 -78.0821,-20.8377 -79.5098,-27.6905"/>
</g>
<!-- battery1_1_3&#45;&gt;battery2_2_1 -->
<g id="edge58" class="edge"><title>battery1_1_3&#45;&gt;battery2_2_1</title>
<path fill="none" stroke="#000000" stroke-opacity="0.333333" d="M-366.41,50.9257C-317.79,73.9562 -202.445,128.593 -146.588,155.052"/>
<polygon fill="none" stroke="#000000" stroke-opacity="0.333333" points="-145.055,151.905 -137.515,159.349 -148.051,158.232 -145.055,151.905"/>
</g>
<!-- battery1_1_3&#45;&gt;battery1_1_1 -->
<g id="edge60" class="edge"><title>battery1_1_3&#45;&gt;battery1_1_1</title>
<path fill="none" stroke="#000000" stroke-opacity="0.333333" d="M-373.531,25.0507C-363.603,15.123 -350.485,2.00469 -339.364,-9.11634"/>
<polygon fill="none" stroke="#000000" stroke-opacity="0.333333" points="-341.593,-11.8364 -332.047,-16.4327 -336.644,-6.88668 -341.593,-11.8364"/>
</g>
<!-- battery1_1_5&#45;&gt;battery2_1_0 -->
<g id="edge55" class="edge"><title>battery1_1_5&#45;&gt;battery2_1_0</title>
<path fill="none" stroke="#000000" stroke-opacity="0.333333" d="M-295.978,28.752C-274.532,16.838 -240.92,-1.83543 -216.734,-15.2723"/>
<polygon fill="none" stroke="#000000" stroke-opacity="0.333333" points="-218.412,-18.3437 -207.971,-20.1407 -215.013,-12.2246 -218.412,-18.3437"/>
</g>
<!-- battery1_1_5&#45;&gt;battery2_1_4 -->
<g id="edge52" class="edge"><title>battery1_1_5&#45;&gt;battery2_1_4</title>
<path fill="none" stroke="#000000" stroke-opacity="0.333333" d="M-289.611,40.32C-254.192,40.32 -192.111,40.32 -152.365,40.32"/>
<polygon fill="none" stroke="#000000" stroke-opacity="0.333333" points="-152.279,36.8199 -142.279,40.32 -152.279,43.8199 -152.279,36.8199"/>
</g>
<!-- battery1_1_5&#45;&gt;battery5_0_0 -->
<g id="edge54" class="edge"><title>battery1_1_5&#45;&gt;battery5_0_0</title>
<path fill="none" stroke="#000000" stroke-opacity="0.333333" d="M-293.197,31.5267C-185.628,-8.54787 258.341,-173.948 384.203,-220.838"/>
<polygon fill="none" stroke="#000000" stroke-opacity="0.333333" points="383.123,-224.171 393.716,-224.382 385.567,-217.611 383.123,-224.171"/>
</g>
<!-- battery1_1_5&#45;&gt;battery2_2_3 -->
<g id="edge53" class="edge"><title>battery1_1_5&#45;&gt;battery2_2_3</title>
<path fill="none" stroke="#000000" stroke-opacity="0.333333" d="M-305.973,57.1616C-283.189,92.6038 -230.186,175.054 -203.364,216.776"/>
<polygon fill="none" stroke="#000000" stroke-opacity="0.333333" points="-200.368,214.964 -197.905,225.268 -206.256,218.749 -200.368,214.964"/>
</g>
<!-- battery1_1_5&#45;&gt;battery1_1_3 -->
<g id="edge56" class="edge"><title>battery1_1_5&#45;&gt;battery1_1_3</title>
<path fill="none" stroke="#000000" stroke-opacity="0.333333" d="M-344.02,40.32C-346.439,40.32 -348.915,40.32 -351.399,40.32"/>
<polygon fill="none" stroke="#000000" stroke-opacity="0.333333" points="-351.541,43.8199 -361.541,40.32 -351.541,36.8199 -351.541,43.8199"/>
</g>
<!-- battery3_1_0 -->
<g id="node24" class="node"><title>battery3_1_0</title>
<ellipse fill="none" stroke="black" cx="14.4" cy="-31.68" rx="27" ry="18"/>
<text text-anchor="middle" x="14.4" y="-27.98" font-family="Times New Roman,serif" font-size="14.00">0,&#45;1</text>
</g>
<!-- battery3_1_4 -->
<g id="node25" class="node"><title>battery3_1_4</title>
<ellipse fill="green" stroke="black" cx="86.4" cy="-31.68" rx="27" ry="18"/>
<text text-anchor="middle" x="86.4" y="-27.98" font-family="Times New Roman,serif" font-size="14.00">4,19</text>
</g>
<!-- battery3_1_4&#45;&gt;battery2_1_3 -->
<g id="edge65" class="edge"><title>battery3_1_4&#45;&gt;battery2_1_3</title>
<path fill="none" stroke="#000000" stroke-opacity="0.333333" d="M61.1508,-25.0355C12.0829,-12.1229 -96.2297,16.3805 -152.197,31.1086"/>
<polygon fill="none" stroke="#000000" stroke-opacity="0.333333" points="-151.45,34.5313 -162.012,33.6915 -153.232,27.7618 -151.45,34.5313"/>
</g>
<!-- battery3_1_4&#45;&gt;battery5_0_1 -->
<g id="edge69" class="edge"><title>battery3_1_4&#45;&gt;battery5_0_1</title>
<path fill="none" stroke="#000000" stroke-opacity="0.333333" d="M108.078,-42.5189C175.215,-76.0875 379.894,-178.427 458.449,-217.704"/>
<polygon fill="none" stroke="#000000" stroke-opacity="0.333333" points="457.306,-221.046 467.815,-222.388 460.436,-214.785 457.306,-221.046"/>
</g>
<!-- battery3_1_4&#45;&gt;battery2_2_0 -->
<g id="edge68" class="edge"><title>battery3_1_4&#45;&gt;battery2_2_0</title>
<path fill="none" stroke="#000000" stroke-opacity="0.333333" d="M68.0235,-18.1394C20.7121,16.7216 -105.432,109.67 -160.67,150.372"/>
<polygon fill="none" stroke="#000000" stroke-opacity="0.333333" points="-158.777,153.324 -168.903,156.438 -162.929,147.689 -158.777,153.324"/>
</g>
<!-- battery3_1_4&#45;&gt;battery2_2_2 -->
<g id="edge66" class="edge"><title>battery3_1_4&#45;&gt;battery2_2_2</title>
<path fill="none" stroke="#000000" stroke-opacity="0.333333" d="M75.5733,-14.8384C52.789,20.6038 -0.214413,103.054 -27.0362,144.776"/>
<polygon fill="none" stroke="#000000" stroke-opacity="0.333333" points="-24.1435,146.749 -32.4952,153.268 -30.0318,142.964 -24.1435,146.749"/>
</g>
<!-- battery3_1_4&#45;&gt;battery1_1_0 -->
<g id="edge67" class="edge"><title>battery3_1_4&#45;&gt;battery1_1_0</title>
<path fill="none" stroke="#000000" stroke-opacity="0.333333" d="M59.1444,-31.68C-21.4796,-31.68 -258.937,-31.68 -351.375,-31.68"/>
<polygon fill="none" stroke="#000000" stroke-opacity="0.333333" points="-351.655,-28.1801 -361.655,-31.68 -351.655,-35.1801 -351.655,-28.1801"/>
</g>
</g>
</svg>
