<?xml version="1.0" encoding="UTF-8" standalone="no"?>
<!DOCTYPE svg PUBLIC "-//W3C//DTD SVG 1.1//EN"
 "http://www.w3.org/Graphics/SVG/1.1/DTD/svg11.dtd">
<!-- Generated by graphviz version 2.38.0 (20140413.2041)
 -->
<!-- Title: example6.txt_fields Pages: 1 -->
<svg width="1349pt" height="911pt"
 viewBox="0.00 0.00 1349.12 910.57" xmlns="http://www.w3.org/2000/svg" xmlns:xlink="http://www.w3.org/1999/xlink">
<g id="graph0" class="graph" transform="scale(1 1) rotate(0) translate(395.149 414.963)">
<title>example6.txt_fields</title>
<polygon fill="white" stroke="none" points="-395.149,495.603 -395.149,-414.963 953.972,-414.963 953.972,495.603 -395.149,495.603"/>
<!-- 0_1 -->
<g id="node1" class="node"><title>0_1</title>
<ellipse fill="none" stroke="black" cx="-322.56" cy="-161.28" rx="62.8651" ry="48.1667"/>
<text text-anchor="middle" x="-322.56" y="-180.08" font-family="Times New Roman,serif" font-size="14.00">0,1</text>
<text text-anchor="middle" x="-322.56" y="-165.08" font-family="Times New Roman,serif" font-size="14.00">ic: 2</text>
<text text-anchor="middle" x="-322.56" y="-150.08" font-family="Times New Roman,serif" font-size="14.00">free: 1,1;1,2</text>
<text text-anchor="middle" x="-322.56" y="-135.08" font-family="Times New Roman,serif" font-size="14.00">swlolw: none</text>
</g>
<!-- 0_1&#45;&gt;0_1 -->
<g id="edge4" class="edge"><title>0_1&#45;&gt;0_1</title>
<path fill="none" stroke="black" d="M-260.122,-167.608C-249.215,-166.764 -241.627,-164.655 -241.627,-161.28 -241.627,-159.118 -244.741,-157.475 -249.847,-156.352"/>
<polygon fill="black" stroke="black" points="-249.741,-152.834 -260.122,-154.952 -250.686,-159.77 -249.741,-152.834"/>
<text text-anchor="middle" x="-224.627" y="-157.58" font-family="Times New Roman,serif" font-size="14.00">2 &#160;(4) </text>
</g>
<!-- 1_0 -->
<g id="node2" class="node"><title>1_0</title>
<ellipse fill="none" stroke="black" cx="-120.96" cy="-362.88" rx="58.8803" ry="48.1667"/>
<text text-anchor="middle" x="-120.96" y="-381.68" font-family="Times New Roman,serif" font-size="14.00">1,0</text>
<text text-anchor="middle" x="-120.96" y="-366.68" font-family="Times New Roman,serif" font-size="14.00">ic: 5</text>
<text text-anchor="middle" x="-120.96" y="-351.68" font-family="Times New Roman,serif" font-size="14.00">free: 1,1;1,2</text>
<text text-anchor="middle" x="-120.96" y="-336.68" font-family="Times New Roman,serif" font-size="14.00">swlolw: {1}</text>
</g>
<!-- 0_1&#45;&gt;1_0 -->
<g id="edge2" class="edge"><title>0_1&#45;&gt;1_0</title>
<path fill="none" stroke="black" d="M-288.923,-202.537C-256.523,-237.324 -207.227,-286.788 -170.38,-321.584"/>
<polygon fill="black" stroke="black" points="-172.404,-324.485 -162.717,-328.776 -167.614,-319.381 -172.404,-324.485"/>
<text text-anchor="middle" x="-246.652" y="-265.861" font-family="Times New Roman,serif" font-size="14.00">2 &#160;(4) </text>
</g>
<!-- 1_3 -->
<g id="node3" class="node"><title>1_3</title>
<ellipse fill="none" stroke="black" cx="-120.96" cy="241.92" rx="58.8803" ry="48.1667"/>
<text text-anchor="middle" x="-120.96" y="223.12" font-family="Times New Roman,serif" font-size="14.00">1,3</text>
<text text-anchor="middle" x="-120.96" y="238.12" font-family="Times New Roman,serif" font-size="14.00">ic: 1</text>
<text text-anchor="middle" x="-120.96" y="253.12" font-family="Times New Roman,serif" font-size="14.00">free: 1,2;1,1</text>
<text text-anchor="middle" x="-120.96" y="268.12" font-family="Times New Roman,serif" font-size="14.00">swlolw: {2}</text>
</g>
<!-- 0_1&#45;&gt;1_3 -->
<g id="edge5" class="edge"><title>0_1&#45;&gt;1_3</title>
<path fill="none" stroke="black" d="M-295.624,-117.423C-255.415,-43.5644 -180.815,105.43 -143.384,186.443"/>
<polygon fill="black" stroke="black" points="-139.999,185.427 -139.008,195.976 -146.361,188.347 -139.999,185.427"/>
<text text-anchor="middle" x="-202.504" y="30.7096" font-family="Times New Roman,serif" font-size="14.00">3 &#160;(3) </text>
</g>
<!-- 1_4 -->
<g id="node4" class="node"><title>1_4</title>
<ellipse fill="none" stroke="black" cx="-120.96" cy="443.52" rx="58.8803" ry="48.1667"/>
<text text-anchor="middle" x="-120.96" y="424.72" font-family="Times New Roman,serif" font-size="14.00">1,4</text>
<text text-anchor="middle" x="-120.96" y="439.72" font-family="Times New Roman,serif" font-size="14.00">ic: 5</text>
<text text-anchor="middle" x="-120.96" y="454.72" font-family="Times New Roman,serif" font-size="14.00">free: 2,4;2,3</text>
<text text-anchor="middle" x="-120.96" y="469.72" font-family="Times New Roman,serif" font-size="14.00">swlolw: {1}</text>
</g>
<!-- 0_1&#45;&gt;1_4 -->
<g id="edge7" class="edge"><title>0_1&#45;&gt;1_4</title>
<path fill="none" stroke="black" d="M-303.095,-115.038C-262.712,-5.86187 -171.464,267.603 -135.586,386.66"/>
<polygon fill="black" stroke="black" points="-132.207,385.744 -132.694,396.327 -138.913,387.75 -132.207,385.744"/>
<text text-anchor="middle" x="-202.34" y="132.011" font-family="Times New Roman,serif" font-size="14.00">6 &#160;(6) </text>
</g>
<!-- 0_2 -->
<g id="node6" class="node"><title>0_2</title>
<ellipse fill="none" stroke="black" cx="-322.56" cy="40.32" rx="58.8803" ry="48.1667"/>
<text text-anchor="middle" x="-322.56" y="21.52" font-family="Times New Roman,serif" font-size="14.00">0,2</text>
<text text-anchor="middle" x="-322.56" y="36.52" font-family="Times New Roman,serif" font-size="14.00">ic: 3</text>
<text text-anchor="middle" x="-322.56" y="51.52" font-family="Times New Roman,serif" font-size="14.00">free: 1,2;1,1</text>
<text text-anchor="middle" x="-322.56" y="66.52" font-family="Times New Roman,serif" font-size="14.00">swlolw: {2}</text>
</g>
<!-- 0_1&#45;&gt;0_2 -->
<g id="edge1" class="edge"><title>0_1&#45;&gt;0_2</title>
<path fill="none" stroke="black" d="M-316.71,-113.248C-315.632,-84.578 -315.522,-47.9766 -316.382,-17.6984"/>
<polygon fill="black" stroke="black" points="-312.884,-17.5727 -316.711,-7.6931 -319.881,-17.8027 -312.884,-17.5727"/>
<text text-anchor="middle" x="-333.546" y="-69.2731" font-family="Times New Roman,serif" font-size="14.00">1 &#160;(3) </text>
</g>
<!-- 2_1 -->
<g id="node7" class="node"><title>2_1</title>
<ellipse fill="none" stroke="black" cx="80.64" cy="-161.28" rx="58.8803" ry="48.1667"/>
<text text-anchor="middle" x="80.64" y="-180.08" font-family="Times New Roman,serif" font-size="14.00">2,1</text>
<text text-anchor="middle" x="80.64" y="-165.08" font-family="Times New Roman,serif" font-size="14.00">ic: 1</text>
<text text-anchor="middle" x="80.64" y="-150.08" font-family="Times New Roman,serif" font-size="14.00">free: 1,1;1,2</text>
<text text-anchor="middle" x="80.64" y="-135.08" font-family="Times New Roman,serif" font-size="14.00">swlolw: {1}</text>
</g>
<!-- 0_1&#45;&gt;2_1 -->
<g id="edge3" class="edge"><title>0_1&#45;&gt;2_1</title>
<path fill="none" stroke="black" d="M-259.56,-166.343C-185.946,-168.533 -64.5448,-168.591 11.5799,-166.515"/>
<polygon fill="black" stroke="black" points="12.1186,-170.001 22.0113,-166.208 11.9126,-163.004 12.1186,-170.001"/>
<text text-anchor="middle" x="-140.99" y="-170.229" font-family="Times New Roman,serif" font-size="14.00">2 &#160;(4) </text>
</g>
<!-- 2_0 -->
<g id="node8" class="node"><title>2_0</title>
<ellipse fill="none" stroke="black" cx="80.64" cy="-362.88" rx="58.8803" ry="48.1667"/>
<text text-anchor="middle" x="80.64" y="-381.68" font-family="Times New Roman,serif" font-size="14.00">2,0</text>
<text text-anchor="middle" x="80.64" y="-366.68" font-family="Times New Roman,serif" font-size="14.00">ic: 2</text>
<text text-anchor="middle" x="80.64" y="-351.68" font-family="Times New Roman,serif" font-size="14.00">free: 3,0;4,0</text>
<text text-anchor="middle" x="80.64" y="-336.68" font-family="Times New Roman,serif" font-size="14.00">swlolw: {1}</text>
</g>
<!-- 0_1&#45;&gt;2_0 -->
<g id="edge8" class="edge"><title>0_1&#45;&gt;2_0</title>
<path fill="none" stroke="black" d="M-273.181,-191.21C-199.802,-230.862 -62.0685,-299.837 18.2057,-337.228"/>
<polygon fill="black" stroke="black" points="17.1573,-340.6 27.7022,-341.627 20.0997,-334.248 17.1573,-340.6"/>
<text text-anchor="middle" x="-144.488" y="-268.019" font-family="Times New Roman,serif" font-size="14.00">9 &#160;(9) </text>
</g>
<!-- 3_1 -->
<g id="node9" class="node"><title>3_1</title>
<ellipse fill="none" stroke="black" cx="282.24" cy="-161.28" rx="62.8651" ry="48.1667"/>
<text text-anchor="middle" x="282.24" y="-180.08" font-family="Times New Roman,serif" font-size="14.00">3,1</text>
<text text-anchor="middle" x="282.24" y="-165.08" font-family="Times New Roman,serif" font-size="14.00">ic: 7</text>
<text text-anchor="middle" x="282.24" y="-150.08" font-family="Times New Roman,serif" font-size="14.00">free: 3,0;4,0</text>
<text text-anchor="middle" x="282.24" y="-135.08" font-family="Times New Roman,serif" font-size="14.00">swlolw: none</text>
</g>
<!-- 0_1&#45;&gt;3_1 -->
<g id="edge6" class="edge"><title>0_1&#45;&gt;3_1</title>
<path fill="none" stroke="black" d="M-259.831,-165.595C-147.081,-168.748 89.2228,-168.839 209.118,-165.869"/>
<polygon fill="black" stroke="black" points="209.394,-169.363 219.298,-165.601 209.21,-162.365 209.394,-169.363"/>
<text text-anchor="middle" x="-42.3566" y="-169.532" font-family="Times New Roman,serif" font-size="14.00">5 &#160;(5) </text>
</g>
<!-- 1_0&#45;&gt;0_1 -->
<g id="edge10" class="edge"><title>1_0&#45;&gt;0_1</title>
<path fill="none" stroke="black" d="M-153.692,-322.596C-185.64,-288.229 -234.616,-239.035 -271.639,-203.994"/>
<polygon fill="black" stroke="black" points="-269.666,-201.045 -279.348,-196.742 -274.463,-206.143 -269.666,-201.045"/>
<text text-anchor="middle" x="-195.666" y="-267.095" font-family="Times New Roman,serif" font-size="14.00">2 &#160;(4) </text>
</g>
<!-- 1_0&#45;&gt;1_0 -->
<g id="edge12" class="edge"><title>1_0&#45;&gt;1_0</title>
<path fill="none" stroke="black" d="M-62.773,-369.284C-51.9162,-368.495 -44.2701,-366.36 -44.2701,-362.88 -44.2701,-360.65 -47.4081,-358.973 -52.5179,-357.848"/>
<polygon fill="black" stroke="black" points="-52.3972,-354.333 -62.773,-356.476 -53.3253,-361.271 -52.3972,-354.333"/>
<text text-anchor="middle" x="-27.2701" y="-359.18" font-family="Times New Roman,serif" font-size="14.00">2 &#160;(4) </text>
</g>
<!-- 1_0&#45;&gt;1_3 -->
<g id="edge13" class="edge"><title>1_0&#45;&gt;1_3</title>
<path fill="none" stroke="black" d="M-117.091,-314.663C-113.36,-204.67 -113.253,64.4471 -116.77,183.56"/>
<polygon fill="black" stroke="black" points="-113.273,183.701 -117.087,193.585 -120.269,183.48 -113.273,183.701"/>
<text text-anchor="middle" x="-133.931" y="-69.3514" font-family="Times New Roman,serif" font-size="14.00">3 &#160;(3) </text>
</g>
<!-- 1_0&#45;&gt;1_4 -->
<g id="edge16" class="edge"><title>1_0&#45;&gt;1_4</title>
<path fill="none" stroke="black" d="M-117.547,-314.851C-113.198,-174.729 -113.1,233.255 -117.254,385.412"/>
<polygon fill="black" stroke="black" points="-113.758,385.595 -117.547,395.489 -120.755,385.391 -113.758,385.595"/>
<text text-anchor="middle" x="-134.401" y="31.4804" font-family="Times New Roman,serif" font-size="14.00">6 &#160;(6) </text>
</g>
<!-- 1_0&#45;&gt;0_2 -->
<g id="edge14" class="edge"><title>1_0&#45;&gt;0_2</title>
<path fill="none" stroke="black" d="M-138.982,-316.995C-173.442,-241.365 -248.447,-91.0752 -291.235,-11.6439"/>
<polygon fill="black" stroke="black" points="-288.194,-9.9099 -296.034,-2.78426 -294.348,-13.2441 -288.194,-9.9099"/>
<text text-anchor="middle" x="-198.108" y="-168.119" font-family="Times New Roman,serif" font-size="14.00">3 &#160;(3) </text>
</g>
<!-- 1_0&#45;&gt;2_1 -->
<g id="edge11" class="edge"><title>1_0&#45;&gt;2_1</title>
<path fill="none" stroke="black" d="M-79.2141,-328.787C-43.9438,-295.907 6.15732,-245.933 40.8597,-209.094"/>
<polygon fill="black" stroke="black" points="43.7423,-211.136 48.0202,-201.443 38.6315,-206.353 43.7423,-211.136"/>
<text text-anchor="middle" x="-36.1772" y="-272.74" font-family="Times New Roman,serif" font-size="14.00">2 &#160;(4) </text>
</g>
<!-- 1_0&#45;&gt;2_0 -->
<g id="edge9" class="edge"><title>1_0&#45;&gt;2_0</title>
<path fill="none" stroke="black" d="M-62.6489,-369.066C-39.3474,-369.722 -12.3382,-369.806 11.9079,-369.317"/>
<polygon fill="black" stroke="black" points="12.1978,-372.811 22.111,-369.072 12.03,-365.813 12.1978,-372.811"/>
<text text-anchor="middle" x="-8.37051" y="-372.991" font-family="Times New Roman,serif" font-size="14.00">1 &#160;(9) </text>
</g>
<!-- 1_0&#45;&gt;3_1 -->
<g id="edge15" class="edge"><title>1_0&#45;&gt;3_1</title>
<path fill="none" stroke="black" d="M-68.2193,-341.718C7.15938,-307.015 145.198,-238.122 223.666,-196.153"/>
<polygon fill="black" stroke="black" points="225.78,-198.99 232.931,-191.173 222.466,-192.824 225.78,-198.99"/>
<text text-anchor="middle" x="60.7232" y="-272.736" font-family="Times New Roman,serif" font-size="14.00">5 &#160;(5) </text>
</g>
<!-- 1_3&#45;&gt;0_1 -->
<g id="edge22" class="edge"><title>1_3&#45;&gt;0_1</title>
<path fill="none" stroke="black" d="M-147.478,198.831C-187.546,125.314 -262.425,-24.2088 -300.023,-105.559"/>
<polygon fill="black" stroke="black" points="-303.427,-104.583 -304.419,-115.132 -297.065,-107.504 -303.427,-104.583"/>
<text text-anchor="middle" x="-206.75" y="57.8361" font-family="Times New Roman,serif" font-size="14.00">3 &#160;(3) </text>
</g>
<!-- 1_3&#45;&gt;1_0 -->
<g id="edge21" class="edge"><title>1_3&#45;&gt;1_0</title>
<path fill="none" stroke="black" d="M-124.829,193.703C-128.56,83.71 -128.667,-185.407 -125.15,-304.52"/>
<polygon fill="black" stroke="black" points="-128.647,-304.661 -124.833,-314.545 -121.651,-304.44 -128.647,-304.661"/>
<text text-anchor="middle" x="-141.989" y="-44.2086" font-family="Times New Roman,serif" font-size="14.00">3 &#160;(3) </text>
</g>
<!-- 1_3&#45;&gt;1_3 -->
<g id="edge20" class="edge"><title>1_3&#45;&gt;1_3</title>
<path fill="none" stroke="black" d="M-62.773,235.516C-51.9162,236.305 -44.2701,238.44 -44.2701,241.92 -44.2701,244.15 -47.4081,245.827 -52.5179,246.952"/>
<polygon fill="black" stroke="black" points="-52.3972,250.467 -62.773,248.324 -53.3253,243.529 -52.3972,250.467"/>
<text text-anchor="middle" x="-27.2701" y="245.62" font-family="Times New Roman,serif" font-size="14.00">2 &#160;(4) </text>
</g>
<!-- 1_3&#45;&gt;1_4 -->
<g id="edge17" class="edge"><title>1_3&#45;&gt;1_4</title>
<path fill="none" stroke="black" d="M-115.11,289.952C-114.032,318.622 -113.922,355.223 -114.782,385.502"/>
<polygon fill="black" stroke="black" points="-111.284,385.627 -115.111,395.507 -118.281,385.397 -111.284,385.627"/>
<text text-anchor="middle" x="-131.946" y="333.927" font-family="Times New Roman,serif" font-size="14.00">1 &#160;(3) </text>
</g>
<!-- 0_4 -->
<g id="node5" class="node"><title>0_4</title>
<ellipse fill="none" stroke="black" cx="-322.56" cy="443.52" rx="68.6788" ry="48.1667"/>
<text text-anchor="middle" x="-322.56" y="424.72" font-family="Times New Roman,serif" font-size="14.00">0,4</text>
<text text-anchor="middle" x="-322.56" y="439.72" font-family="Times New Roman,serif" font-size="14.00">ic: 2</text>
<text text-anchor="middle" x="-322.56" y="454.72" font-family="Times New Roman,serif" font-size="14.00">free: 0,3</text>
<text text-anchor="middle" x="-322.56" y="469.72" font-family="Times New Roman,serif" font-size="14.00">swlolw: {1, 2}</text>
</g>
<!-- 1_3&#45;&gt;0_4 -->
<g id="edge19" class="edge"><title>1_3&#45;&gt;0_4</title>
<path fill="none" stroke="black" d="M-153.692,282.204C-185.232,316.131 -233.367,364.51 -270.214,399.456"/>
<polygon fill="black" stroke="black" points="-268.219,402.385 -277.896,406.699 -273.021,397.292 -268.219,402.385"/>
<text text-anchor="middle" x="-231.453" y="337.03" font-family="Times New Roman,serif" font-size="14.00">2 &#160;(&#45;1) </text>
</g>
<!-- 1_3&#45;&gt;0_2 -->
<g id="edge18" class="edge"><title>1_3&#45;&gt;0_2</title>
<path fill="none" stroke="black" d="M-162.706,207.827C-197.976,174.947 -248.077,124.973 -282.78,88.1339"/>
<polygon fill="black" stroke="black" points="-285.662,90.176 -289.94,80.4832 -280.552,85.3927 -285.662,90.176"/>
<text text-anchor="middle" x="-239.743" y="159.18" font-family="Times New Roman,serif" font-size="14.00">2 &#160;(4) </text>
</g>
<!-- 1_3&#45;&gt;2_1 -->
<g id="edge23" class="edge"><title>1_3&#45;&gt;2_1</title>
<path fill="none" stroke="black" d="M-102.938,196.035C-68.4776,120.405 6.52662,-29.8848 49.3148,-109.316"/>
<polygon fill="black" stroke="black" points="46.2735,-111.05 54.1142,-118.176 52.4285,-107.716 46.2735,-111.05"/>
<text text-anchor="middle" x="-43.8118" y="39.5592" font-family="Times New Roman,serif" font-size="14.00">3 &#160;(3) </text>
</g>
<!-- 1_3&#45;&gt;2_0 -->
<g id="edge25" class="edge"><title>1_3&#45;&gt;2_0</title>
<path fill="none" stroke="black" d="M-109.238,194.767C-76.4951,84.429 14.8854,-190.07 57.9335,-307.821"/>
<polygon fill="black" stroke="black" points="54.7099,-309.196 61.4471,-317.373 61.2796,-306.779 54.7099,-309.196"/>
<text text-anchor="middle" x="-42.6523" y="-45.3271" font-family="Times New Roman,serif" font-size="14.00">8 &#160;(8) </text>
</g>
<!-- 1_3&#45;&gt;3_1 -->
<g id="edge24" class="edge"><title>1_3&#45;&gt;3_1</title>
<path fill="none" stroke="black" d="M-87.0067,202.173C-15.6278,125.982 149.99,-39.8193 233.013,-118.397"/>
<polygon fill="black" stroke="black" points="230.623,-120.954 240.299,-125.269 235.425,-115.862 230.623,-120.954"/>
<text text-anchor="middle" x="56.003" y="38.0878" font-family="Times New Roman,serif" font-size="14.00">4 &#160;(4) </text>
</g>
<!-- 1_4&#45;&gt;0_1 -->
<g id="edge33" class="edge"><title>1_4&#45;&gt;0_1</title>
<path fill="none" stroke="black" d="M-140.241,397.775C-180.516,288.973 -271.938,15.0062 -307.897,-104.297"/>
<polygon fill="black" stroke="black" points="-311.282,-103.401 -310.796,-113.984 -304.576,-105.407 -311.282,-103.401"/>
<text text-anchor="middle" x="-241.069" y="142.939" font-family="Times New Roman,serif" font-size="14.00">6 &#160;(6) </text>
</g>
<!-- 1_4&#45;&gt;1_0 -->
<g id="edge32" class="edge"><title>1_4&#45;&gt;1_0</title>
<path fill="none" stroke="black" d="M-124.373,395.491C-128.722,255.369 -128.82,-152.615 -124.666,-304.772"/>
<polygon fill="black" stroke="black" points="-128.162,-304.955 -124.373,-314.849 -121.165,-304.751 -128.162,-304.955"/>
<text text-anchor="middle" x="-141.519" y="56.5596" font-family="Times New Roman,serif" font-size="14.00">6 &#160;(6) </text>
</g>
<!-- 1_4&#45;&gt;1_3 -->
<g id="edge26" class="edge"><title>1_4&#45;&gt;1_3</title>
<path fill="none" stroke="black" d="M-126.81,395.488C-127.888,366.818 -127.998,330.217 -127.138,299.938"/>
<polygon fill="black" stroke="black" points="-130.636,299.813 -126.809,289.933 -123.639,300.043 -130.636,299.813"/>
<text text-anchor="middle" x="-143.974" y="358.913" font-family="Times New Roman,serif" font-size="14.00">1 &#160;(3) </text>
</g>
<!-- 1_4&#45;&gt;1_4 -->
<g id="edge28" class="edge"><title>1_4&#45;&gt;1_4</title>
<path fill="none" stroke="black" d="M-62.773,437.116C-51.9162,437.905 -44.2701,440.04 -44.2701,443.52 -44.2701,445.75 -47.4081,447.427 -52.5179,448.552"/>
<polygon fill="black" stroke="black" points="-52.3972,452.067 -62.773,449.924 -53.3253,445.129 -52.3972,452.067"/>
<text text-anchor="middle" x="-27.2701" y="447.22" font-family="Times New Roman,serif" font-size="14.00">2 &#160;(4) </text>
</g>
<!-- 1_4&#45;&gt;0_4 -->
<g id="edge27" class="edge"><title>1_4&#45;&gt;0_4</title>
<path fill="none" stroke="black" d="M-179.271,449.706C-199.55,450.277 -222.637,450.414 -244.267,450.118"/>
<polygon fill="black" stroke="black" points="-244.479,453.615 -254.417,449.945 -244.359,446.616 -244.479,453.615"/>
<text text-anchor="middle" x="-231.269" y="461.112" font-family="Times New Roman,serif" font-size="14.00">1 &#160;(&#45;1) </text>
</g>
<!-- 1_4&#45;&gt;0_2 -->
<g id="edge31" class="edge"><title>1_4&#45;&gt;0_2</title>
<path fill="none" stroke="black" d="M-147.478,400.431C-187.599,326.817 -262.622,176.997 -300.172,95.7199"/>
<polygon fill="black" stroke="black" points="-303.57,96.7061 -304.56,86.1576 -297.208,93.7862 -303.57,96.7061"/>
<text text-anchor="middle" x="-240.825" y="244.275" font-family="Times New Roman,serif" font-size="14.00">5 &#160;(5) </text>
</g>
<!-- 1_4&#45;&gt;2_1 -->
<g id="edge29" class="edge"><title>1_4&#45;&gt;2_1</title>
<path fill="none" stroke="black" d="M-109.238,396.367C-76.4951,286.029 14.8854,11.5302 57.9335,-106.221"/>
<polygon fill="black" stroke="black" points="54.7099,-107.596 61.4471,-115.773 61.2796,-105.179 54.7099,-107.596"/>
<text text-anchor="middle" x="-42.6523" y="141.273" font-family="Times New Roman,serif" font-size="14.00">4 &#160;(4) </text>
</g>
<!-- 1_4&#45;&gt;2_0 -->
<g id="edge34" class="edge"><title>1_4&#45;&gt;2_0</title>
<path fill="none" stroke="black" d="M-112.525,395.86C-81.9952,255.636 20.5799,-155.097 62.6725,-306.227"/>
<polygon fill="black" stroke="black" points="59.4066,-307.544 65.4766,-316.227 66.1466,-305.654 59.4066,-307.544"/>
<text text-anchor="middle" x="-41.9261" y="56.0165" font-family="Times New Roman,serif" font-size="14.00">9 &#160;(9) </text>
</g>
<!-- 1_4&#45;&gt;3_1 -->
<g id="edge30" class="edge"><title>1_4&#45;&gt;3_1</title>
<path fill="none" stroke="black" d="M-95.9645,399.447C-27.6081,289.68 162.21,4.73999 244.019,-111.167"/>
<polygon fill="black" stroke="black" points="241.318,-113.409 249.954,-119.546 247.03,-109.363 241.318,-113.409"/>
<text text-anchor="middle" x="57.0272" y="140.34" font-family="Times New Roman,serif" font-size="14.00">5 &#160;(5) </text>
</g>
<!-- 0_4&#45;&gt;1_3 -->
<g id="edge37" class="edge"><title>0_4&#45;&gt;1_3</title>
<path fill="none" stroke="black" d="M-288.467,401.774C-256.1,367.055 -207.17,317.965 -170.51,283.338"/>
<polygon fill="black" stroke="black" points="-172.57,280.472 -162.884,276.179 -167.779,285.575 -172.57,280.472"/>
<text text-anchor="middle" x="-248.989" y="353.756" font-family="Times New Roman,serif" font-size="14.00">2 &#160;(&#45;1) </text>
</g>
<!-- 0_4&#45;&gt;1_4 -->
<g id="edge35" class="edge"><title>0_4&#45;&gt;1_4</title>
<path fill="none" stroke="black" d="M-254.307,437.093C-233.398,436.664 -210.395,436.662 -189.469,437.088"/>
<polygon fill="black" stroke="black" points="-189.294,433.591 -179.381,437.331 -189.463,440.589 -189.294,433.591"/>
<text text-anchor="middle" x="-202.388" y="433.29" font-family="Times New Roman,serif" font-size="14.00">1 &#160;(&#45;1) </text>
</g>
<!-- 0_4&#45;&gt;0_4 -->
<g id="edge38" class="edge"><title>0_4&#45;&gt;0_4</title>
<path fill="none" stroke="black" d="M-254.318,437.304C-243.426,438.214 -235.971,440.286 -235.971,443.52 -235.971,445.592 -239.03,447.187 -244.093,448.305"/>
<polygon fill="black" stroke="black" points="-243.929,451.816 -254.318,449.736 -244.9,444.884 -243.929,451.816"/>
<text text-anchor="middle" x="-216.471" y="447.22" font-family="Times New Roman,serif" font-size="14.00">2 &#160;(&#45;1) </text>
</g>
<!-- 0_4&#45;&gt;0_2 -->
<g id="edge36" class="edge"><title>0_4&#45;&gt;0_2</title>
<path fill="none" stroke="black" d="M-327.13,395.285C-329.915,320.968 -330.032,178.698 -327.48,98.6859"/>
<polygon fill="black" stroke="black" points="-330.964,98.1698 -327.12,88.297 -323.968,98.4122 -330.964,98.1698"/>
<text text-anchor="middle" x="-346.805" y="243.186" font-family="Times New Roman,serif" font-size="14.00">2 &#160;(&#45;1) </text>
</g>
<!-- 0_2&#45;&gt;0_1 -->
<g id="edge39" class="edge"><title>0_2&#45;&gt;0_1</title>
<path fill="none" stroke="black" d="M-328.41,-7.71209C-329.488,-36.382 -329.598,-72.9834 -328.738,-103.262"/>
<polygon fill="black" stroke="black" points="-332.236,-103.387 -328.409,-113.267 -325.239,-103.157 -332.236,-103.387"/>
<text text-anchor="middle" x="-345.574" y="-44.2869" font-family="Times New Roman,serif" font-size="14.00">1 &#160;(3) </text>
</g>
<!-- 0_2&#45;&gt;1_0 -->
<g id="edge43" class="edge"><title>0_2&#45;&gt;1_0</title>
<path fill="none" stroke="black" d="M-304.538,-5.56545C-270.078,-81.1948 -195.073,-231.485 -152.285,-310.916"/>
<polygon fill="black" stroke="black" points="-155.326,-312.65 -147.486,-319.776 -149.172,-309.316 -155.326,-312.65"/>
<text text-anchor="middle" x="-211.412" y="-147.041" font-family="Times New Roman,serif" font-size="14.00">3 &#160;(3) </text>
</g>
<!-- 0_2&#45;&gt;1_3 -->
<g id="edge40" class="edge"><title>0_2&#45;&gt;1_3</title>
<path fill="none" stroke="black" d="M-280.814,74.4129C-245.544,107.293 -195.443,157.267 -160.74,194.106"/>
<polygon fill="black" stroke="black" points="-157.858,192.064 -153.58,201.757 -162.968,196.847 -157.858,192.064"/>
<text text-anchor="middle" x="-203.777" y="145.46" font-family="Times New Roman,serif" font-size="14.00">2 &#160;(4) </text>
</g>
<!-- 0_2&#45;&gt;1_4 -->
<g id="edge46" class="edge"><title>0_2&#45;&gt;1_4</title>
<path fill="none" stroke="black" d="M-296.042,83.4093C-255.921,157.023 -180.898,306.843 -143.348,388.12"/>
<polygon fill="black" stroke="black" points="-139.95,387.134 -138.96,397.682 -146.312,390.054 -139.95,387.134"/>
<text text-anchor="middle" x="-202.695" y="231.965" font-family="Times New Roman,serif" font-size="14.00">5 &#160;(5) </text>
</g>
<!-- 0_2&#45;&gt;0_4 -->
<g id="edge41" class="edge"><title>0_2&#45;&gt;0_4</title>
<path fill="none" stroke="black" d="M-317.99,88.5549C-315.205,162.872 -315.088,305.142 -317.64,385.154"/>
<polygon fill="black" stroke="black" points="-314.156,385.67 -318,395.543 -321.152,385.428 -314.156,385.67"/>
<text text-anchor="middle" x="-298.315" y="233.054" font-family="Times New Roman,serif" font-size="14.00">2 &#160;(&#45;1) </text>
</g>
<!-- 0_2&#45;&gt;0_2 -->
<g id="edge42" class="edge"><title>0_2&#45;&gt;0_2</title>
<path fill="none" stroke="black" d="M-264.373,33.9165C-253.516,34.705 -245.87,36.8395 -245.87,40.32 -245.87,42.5497 -249.008,44.227 -254.118,45.3519"/>
<polygon fill="black" stroke="black" points="-253.997,48.8668 -264.373,46.7235 -254.925,41.9286 -253.997,48.8668"/>
<text text-anchor="middle" x="-228.87" y="44.02" font-family="Times New Roman,serif" font-size="14.00">2 &#160;(4) </text>
</g>
<!-- 0_2&#45;&gt;2_1 -->
<g id="edge44" class="edge"><title>0_2&#45;&gt;2_1</title>
<path fill="none" stroke="black" d="M-275.183,11.4728C-202.193,-28.0703 -62.272,-98.1609 18.6687,-135.844"/>
<polygon fill="black" stroke="black" points="17.2119,-139.026 27.7569,-140.052 20.1535,-132.674 17.2119,-139.026"/>
<text text-anchor="middle" x="-111.257" y="-50.9854" font-family="Times New Roman,serif" font-size="14.00">3 &#160;(3) </text>
</g>
<!-- 0_2&#45;&gt;2_0 -->
<g id="edge47" class="edge"><title>0_2&#45;&gt;2_0</title>
<path fill="none" stroke="black" d="M-288.607,0.572958C-217.007,-75.8536 -50.5848,-242.446 32.1806,-320.724"/>
<polygon fill="black" stroke="black" points="30.2442,-323.708 39.923,-328.017 35.0441,-318.613 30.2442,-323.708"/>
<text text-anchor="middle" x="-145.213" y="-148.875" font-family="Times New Roman,serif" font-size="14.00">8 &#160;(8) </text>
</g>
<!-- 0_2&#45;&gt;3_1 -->
<g id="edge45" class="edge"><title>0_2&#45;&gt;3_1</title>
<path fill="none" stroke="black" d="M-270.168,18.5901C-161.066,-21.4262 90.4764,-105.418 212.857,-142.851"/>
<polygon fill="black" stroke="black" points="211.924,-146.225 222.51,-145.788 213.962,-139.528 211.924,-146.225"/>
<text text-anchor="middle" x="-45.6555" y="-65.9303" font-family="Times New Roman,serif" font-size="14.00">4 &#160;(4) </text>
</g>
<!-- 2_1&#45;&gt;0_1 -->
<g id="edge51" class="edge"><title>2_1&#45;&gt;0_1</title>
<path fill="none" stroke="black" d="M22.0113,-156.352C-49.8938,-154.068 -171.793,-153.931 -249.664,-155.943"/>
<polygon fill="black" stroke="black" points="-249.979,-152.45 -259.878,-156.227 -249.785,-159.448 -249.979,-152.45"/>
<text text-anchor="middle" x="-96.8264" y="-144.947" font-family="Times New Roman,serif" font-size="14.00">2 &#160;(4) </text>
</g>
<!-- 2_1&#45;&gt;1_0 -->
<g id="edge50" class="edge"><title>2_1&#45;&gt;1_0</title>
<path fill="none" stroke="black" d="M38.8941,-195.373C3.62377,-228.253 -46.4773,-278.227 -81.1797,-315.066"/>
<polygon fill="black" stroke="black" points="-84.0623,-313.024 -88.3402,-322.717 -78.9515,-317.807 -84.0623,-313.024"/>
<text text-anchor="middle" x="-38.1428" y="-244.02" font-family="Times New Roman,serif" font-size="14.00">2 &#160;(4) </text>
</g>
<!-- 2_1&#45;&gt;1_3 -->
<g id="edge53" class="edge"><title>2_1&#45;&gt;1_3</title>
<path fill="none" stroke="black" d="M62.6184,-115.395C28.1576,-39.7652 -46.8466,110.525 -89.6348,189.956"/>
<polygon fill="black" stroke="black" points="-86.5935,191.69 -94.4342,198.816 -92.7485,188.356 -86.5935,191.69"/>
<text text-anchor="middle" x="3.49179" y="33.4808" font-family="Times New Roman,serif" font-size="14.00">3 &#160;(3) </text>
</g>
<!-- 2_1&#45;&gt;1_4 -->
<g id="edge55" class="edge"><title>2_1&#45;&gt;1_4</title>
<path fill="none" stroke="black" d="M68.9181,-114.127C36.1751,-3.789 -55.2054,270.71 -98.2535,388.461"/>
<polygon fill="black" stroke="black" points="-95.0299,389.836 -101.767,398.013 -101.6,387.419 -95.0299,389.836"/>
<text text-anchor="middle" x="2.33232" y="133.367" font-family="Times New Roman,serif" font-size="14.00">4 &#160;(4) </text>
</g>
<!-- 2_1&#45;&gt;0_2 -->
<g id="edge54" class="edge"><title>2_1&#45;&gt;0_2</title>
<path fill="none" stroke="black" d="M33.2633,-132.433C-39.7271,-92.8897 -179.648,-22.7991 -260.589,14.8837"/>
<polygon fill="black" stroke="black" points="-259.132,18.0661 -269.677,19.0925 -262.074,11.7141 -259.132,18.0661"/>
<text text-anchor="middle" x="-96.6627" y="-62.5746" font-family="Times New Roman,serif" font-size="14.00">3 &#160;(3) </text>
</g>
<!-- 2_1&#45;&gt;2_1 -->
<g id="edge52" class="edge"><title>2_1&#45;&gt;2_1</title>
<path fill="none" stroke="black" d="M138.827,-167.684C149.684,-166.895 157.33,-164.76 157.33,-161.28 157.33,-159.05 154.192,-157.373 149.082,-156.248"/>
<polygon fill="black" stroke="black" points="149.203,-152.733 138.827,-154.876 148.275,-159.671 149.203,-152.733"/>
<text text-anchor="middle" x="174.33" y="-157.58" font-family="Times New Roman,serif" font-size="14.00">2 &#160;(4) </text>
</g>
<!-- 2_1&#45;&gt;2_0 -->
<g id="edge48" class="edge"><title>2_1&#45;&gt;2_0</title>
<path fill="none" stroke="black" d="M74.7904,-209.312C73.7116,-237.982 73.6022,-274.583 74.4623,-304.862"/>
<polygon fill="black" stroke="black" points="70.9644,-304.987 74.7911,-314.867 77.9607,-304.757 70.9644,-304.987"/>
<text text-anchor="middle" x="57.6264" y="-245.887" font-family="Times New Roman,serif" font-size="14.00">1 &#160;(7) </text>
</g>
<!-- 2_1&#45;&gt;3_1 -->
<g id="edge49" class="edge"><title>2_1&#45;&gt;3_1</title>
<path fill="none" stroke="black" d="M138.951,-167.466C161.034,-168.088 186.448,-168.195 209.683,-167.789"/>
<polygon fill="black" stroke="black" points="209.914,-171.285 219.837,-167.574 209.766,-164.286 209.914,-171.285"/>
<text text-anchor="middle" x="157.317" y="-171.427" font-family="Times New Roman,serif" font-size="14.00">1 &#160;(3) </text>
</g>
<!-- 2_0&#45;&gt;0_1 -->
<g id="edge62" class="edge"><title>2_0&#45;&gt;0_1</title>
<path fill="none" stroke="black" d="M33.2633,-334.033C-38.8309,-294.975 -176.222,-226.116 -257.581,-188.119"/>
<polygon fill="black" stroke="black" points="-256.187,-184.907 -266.731,-183.867 -259.137,-191.255 -256.187,-184.907"/>
<text text-anchor="middle" x="-129.159" y="-249.876" font-family="Times New Roman,serif" font-size="14.00">9 &#160;(9) </text>
</g>
<!-- 2_0&#45;&gt;1_0 -->
<g id="edge56" class="edge"><title>2_0&#45;&gt;1_0</title>
<path fill="none" stroke="black" d="M22.3289,-356.694C-0.97255,-356.038 -27.9818,-355.954 -52.2279,-356.443"/>
<polygon fill="black" stroke="black" points="-52.5178,-352.949 -62.431,-356.688 -52.35,-359.947 -52.5178,-352.949"/>
<text text-anchor="middle" x="2.05051" y="-345.369" font-family="Times New Roman,serif" font-size="14.00">1 &#160;(9) </text>
</g>
<!-- 2_0&#45;&gt;1_3 -->
<g id="edge61" class="edge"><title>2_0&#45;&gt;1_3</title>
<path fill="none" stroke="black" d="M68.9181,-315.727C36.1751,-205.389 -55.2054,69.1098 -98.2535,186.861"/>
<polygon fill="black" stroke="black" points="-95.0299,188.236 -101.767,196.413 -101.6,185.819 -95.0299,188.236"/>
<text text-anchor="middle" x="2.33232" y="-68.2329" font-family="Times New Roman,serif" font-size="14.00">8 &#160;(8) </text>
</g>
<!-- 2_0&#45;&gt;1_4 -->
<g id="edge63" class="edge"><title>2_0&#45;&gt;1_4</title>
<path fill="none" stroke="black" d="M72.2047,-315.22C41.6752,-174.996 -60.8999,235.737 -102.993,386.867"/>
<polygon fill="black" stroke="black" points="-99.7266,388.184 -105.797,396.867 -106.467,386.294 -99.7266,388.184"/>
<text text-anchor="middle" x="-6.89393" y="47.0235" font-family="Times New Roman,serif" font-size="14.00">9 &#160;(9) </text>
</g>
<!-- 2_0&#45;&gt;0_2 -->
<g id="edge60" class="edge"><title>2_0&#45;&gt;0_2</title>
<path fill="none" stroke="black" d="M46.6867,-323.133C-24.9129,-246.706 -191.335,-80.1143 -274.101,-1.83617"/>
<polygon fill="black" stroke="black" points="-272.164,1.14808 -281.843,5.45745 -276.964,-3.94716 -272.164,1.14808"/>
<text text-anchor="middle" x="-96.707" y="-166.285" font-family="Times New Roman,serif" font-size="14.00">8 &#160;(8) </text>
</g>
<!-- 2_0&#45;&gt;2_1 -->
<g id="edge57" class="edge"><title>2_0&#45;&gt;2_1</title>
<path fill="none" stroke="black" d="M86.4896,-314.848C87.5684,-286.178 87.6778,-249.577 86.8177,-219.298"/>
<polygon fill="black" stroke="black" points="90.3156,-219.173 86.4889,-209.293 83.3193,-219.403 90.3156,-219.173"/>
<text text-anchor="middle" x="103.654" y="-270.873" font-family="Times New Roman,serif" font-size="14.00">1 &#160;(7) </text>
</g>
<!-- 2_0&#45;&gt;2_0 -->
<g id="edge59" class="edge"><title>2_0&#45;&gt;2_0</title>
<path fill="none" stroke="black" d="M138.827,-369.284C149.684,-368.495 157.33,-366.36 157.33,-362.88 157.33,-360.65 154.192,-358.973 149.082,-357.848"/>
<polygon fill="black" stroke="black" points="149.203,-354.333 138.827,-356.476 148.275,-361.271 149.203,-354.333"/>
<text text-anchor="middle" x="174.33" y="-359.18" font-family="Times New Roman,serif" font-size="14.00">2 &#160;(4) </text>
</g>
<!-- 2_0&#45;&gt;3_1 -->
<g id="edge58" class="edge"><title>2_0&#45;&gt;3_1</title>
<path fill="none" stroke="black" d="M122.386,-328.787C157.436,-296.112 207.132,-246.557 241.807,-209.786"/>
<polygon fill="black" stroke="black" points="244.684,-211.835 248.968,-202.145 239.576,-207.048 244.684,-211.835"/>
<text text-anchor="middle" x="165.097" y="-273.087" font-family="Times New Roman,serif" font-size="14.00">2 &#160;(4) </text>
</g>
<!-- 3_1&#45;&gt;0_1 -->
<g id="edge70" class="edge"><title>3_1&#45;&gt;0_1</title>
<path fill="none" stroke="black" d="M219.511,-156.965C106.761,-153.812 -129.543,-153.721 -249.438,-156.691"/>
<polygon fill="black" stroke="black" points="-249.714,-153.197 -259.618,-156.959 -249.53,-160.195 -249.714,-153.197"/>
<text text-anchor="middle" x="-31.9634" y="-145.628" font-family="Times New Roman,serif" font-size="14.00">5 &#160;(5) </text>
</g>
<!-- 3_1&#45;&gt;1_0 -->
<g id="edge69" class="edge"><title>3_1&#45;&gt;1_0</title>
<path fill="none" stroke="black" d="M226.569,-183.793C149.862,-219.244 12.4707,-287.878 -64.5988,-329.192"/>
<polygon fill="black" stroke="black" points="-66.5472,-326.266 -73.6903,-334.091 -63.2267,-332.428 -66.5472,-326.266"/>
<text text-anchor="middle" x="97.9853" y="-245.293" font-family="Times New Roman,serif" font-size="14.00">5 &#160;(5) </text>
</g>
<!-- 3_1&#45;&gt;1_3 -->
<g id="edge68" class="edge"><title>3_1&#45;&gt;1_3</title>
<path fill="none" stroke="black" d="M247.59,-120.79C175.645,-44.0655 10.1442,121.592 -72.391,199.66"/>
<polygon fill="black" stroke="black" points="-70.4348,202.626 -80.1133,206.936 -75.235,197.531 -70.4348,202.626"/>
<text text-anchor="middle" x="104.6" y="35.6352" font-family="Times New Roman,serif" font-size="14.00">4 &#160;(4) </text>
</g>
<!-- 3_1&#45;&gt;1_4 -->
<g id="edge71" class="edge"><title>3_1&#45;&gt;1_4</title>
<path fill="none" stroke="black" d="M256.939,-116.717C188.136,-6.29129 -2.09443,279.238 -83.4108,394.359"/>
<polygon fill="black" stroke="black" points="-80.6685,396.543 -89.3074,402.676 -86.3789,392.494 -80.6685,396.543"/>
<text text-anchor="middle" x="103.764" y="135.021" font-family="Times New Roman,serif" font-size="14.00">5 &#160;(5) </text>
</g>
<!-- 3_1&#45;&gt;0_2 -->
<g id="edge67" class="edge"><title>3_1&#45;&gt;0_2</title>
<path fill="none" stroke="black" d="M226.653,-138.381C114.894,-97.5482 -136.527,-13.6628 -256.474,22.8975"/>
<polygon fill="black" stroke="black" points="-255.687,26.3161 -266.272,25.8666 -257.717,19.6169 -255.687,26.3161"/>
<text text-anchor="middle" x="2.08962" y="-46.5416" font-family="Times New Roman,serif" font-size="14.00">4 &#160;(4) </text>
</g>
<!-- 3_1&#45;&gt;2_1 -->
<g id="edge64" class="edge"><title>3_1&#45;&gt;2_1</title>
<path fill="none" stroke="black" d="M219.833,-154.985C197.37,-154.427 171.915,-154.382 148.973,-154.851"/>
<polygon fill="black" stroke="black" points="148.883,-151.352 138.971,-155.093 149.052,-158.35 148.883,-151.352"/>
<text text-anchor="middle" x="201.403" y="-143.718" font-family="Times New Roman,serif" font-size="14.00">1 &#160;(3) </text>
</g>
<!-- 3_1&#45;&gt;2_0 -->
<g id="edge65" class="edge"><title>3_1&#45;&gt;2_0</title>
<path fill="none" stroke="black" d="M239.015,-196.753C203.849,-229.626 154.682,-278.698 120.463,-315.021"/>
<polygon fill="black" stroke="black" points="117.677,-312.875 113.399,-322.567 122.788,-317.659 117.677,-312.875"/>
<text text-anchor="middle" x="162.739" y="-244.687" font-family="Times New Roman,serif" font-size="14.00">2 &#160;(4) </text>
</g>
<!-- 3_1&#45;&gt;3_1 -->
<g id="edge66" class="edge"><title>3_1&#45;&gt;3_1</title>
<path fill="none" stroke="black" d="M344.678,-167.608C355.585,-166.764 363.173,-164.655 363.173,-161.28 363.173,-159.118 360.059,-157.475 354.953,-156.352"/>
<polygon fill="black" stroke="black" points="355.059,-152.834 344.678,-154.952 354.114,-159.77 355.059,-152.834"/>
<text text-anchor="middle" x="380.173" y="-157.58" font-family="Times New Roman,serif" font-size="14.00">2 &#160;(4) </text>
</g>
<!-- 6_2 -->
<g id="node10" class="node"><title>6_2</title>
<ellipse fill="green" stroke="black" cx="887.04" cy="40.32" rx="62.8651" ry="48.1667"/>
<text text-anchor="middle" x="887.04" y="21.52" font-family="Times New Roman,serif" font-size="14.00">6,2</text>
<text text-anchor="middle" x="887.04" y="36.52" font-family="Times New Roman,serif" font-size="14.00">ic: 7</text>
<text text-anchor="middle" x="887.04" y="51.52" font-family="Times New Roman,serif" font-size="14.00">free: 6,1;6,0</text>
<text text-anchor="middle" x="887.04" y="66.52" font-family="Times New Roman,serif" font-size="14.00">swlolw: none</text>
</g>
<!-- 6_2&#45;&gt;0_1 -->
<g id="edge78" class="edge"><title>6_2&#45;&gt;0_1</title>
<path fill="none" stroke="black" d="M825.393,30.0455C621.138,-3.99701 -32.8503,-112.995 -250.983,-149.35"/>
<polygon fill="black" stroke="black" points="-251.748,-145.93 -261.037,-151.026 -250.598,-152.834 -251.748,-145.93"/>
<text text-anchor="middle" x="270.205" y="-63.4525" font-family="Times New Roman,serif" font-size="14.00">7 &#160;(7) </text>
</g>
<!-- 6_2&#45;&gt;1_0 -->
<g id="edge77" class="edge"><title>6_2&#45;&gt;1_0</title>
<path fill="none" stroke="black" d="M831.048,17.9233C656.704,-51.8145 124.31,-264.772 -58.5327,-337.909"/>
<polygon fill="black" stroke="black" points="-60.0227,-334.735 -68.0076,-341.699 -57.4229,-341.235 -60.0227,-334.735"/>
<text text-anchor="middle" x="403.258" y="-148.793" font-family="Times New Roman,serif" font-size="14.00">7 &#160;(7) </text>
</g>
<!-- 6_2&#45;&gt;1_3 -->
<g id="edge76" class="edge"><title>6_2&#45;&gt;1_3</title>
<path fill="none" stroke="black" d="M825.879,52.5521C647.872,88.1536 131.005,191.527 -54.064,228.541"/>
<polygon fill="black" stroke="black" points="-53.4458,231.986 -63.938,230.516 -54.8187,225.122 -53.4458,231.986"/>
<text text-anchor="middle" x="368.908" y="136.746" font-family="Times New Roman,serif" font-size="14.00">6 &#160;(6) </text>
</g>
<!-- 6_2&#45;&gt;1_4 -->
<g id="edge79" class="edge"><title>6_2&#45;&gt;1_4</title>
<path fill="none" stroke="black" d="M831.048,62.7167C656.704,132.454 124.31,345.412 -58.5327,418.549"/>
<polygon fill="black" stroke="black" points="-57.4229,421.875 -68.0076,422.339 -60.0227,415.375 -57.4229,421.875"/>
<text text-anchor="middle" x="369.258" y="236.833" font-family="Times New Roman,serif" font-size="14.00">7 &#160;(7) </text>
</g>
<!-- 6_2&#45;&gt;0_2 -->
<g id="edge75" class="edge"><title>6_2&#45;&gt;0_2</title>
<path fill="none" stroke="black" d="M823.71,40.32C616.739,40.32 -38.7043,40.32 -253.593,40.32"/>
<polygon fill="black" stroke="black" points="-253.793,43.8199 -263.793,40.32 -253.793,36.8199 -253.793,43.8199"/>
<text text-anchor="middle" x="268.058" y="36.52" font-family="Times New Roman,serif" font-size="14.00">6 &#160;(6) </text>
</g>
<!-- 6_2&#45;&gt;2_1 -->
<g id="edge73" class="edge"><title>6_2&#45;&gt;2_1</title>
<path fill="none" stroke="black" d="M827.088,25.3319C679.667,-11.5233 300.344,-106.354 146.717,-144.761"/>
<polygon fill="black" stroke="black" points="145.782,-141.387 136.929,-147.208 147.48,-148.178 145.782,-141.387"/>
<text text-anchor="middle" x="469.902" y="-63.5144" font-family="Times New Roman,serif" font-size="14.00">5 &#160;(5) </text>
</g>
<!-- 6_2&#45;&gt;2_0 -->
<g id="edge74" class="edge"><title>6_2&#45;&gt;2_0</title>
<path fill="none" stroke="black" d="M834.13,13.8649C690.068,-58.1661 291.502,-257.449 140.066,-333.167"/>
<polygon fill="black" stroke="black" points="138.263,-330.155 130.884,-337.758 141.393,-336.416 138.263,-330.155"/>
<text text-anchor="middle" x="470.098" y="-163.451" font-family="Times New Roman,serif" font-size="14.00">6 &#160;(6) </text>
</g>
<!-- 6_2&#45;&gt;3_1 -->
<g id="edge72" class="edge"><title>6_2&#45;&gt;3_1</title>
<path fill="none" stroke="black" d="M829.323,21.0811C717.033,-16.3488 469.713,-98.789 349.915,-138.722"/>
<polygon fill="black" stroke="black" points="348.5,-135.504 340.12,-141.987 350.714,-142.145 348.5,-135.504"/>
<text text-anchor="middle" x="572.619" y="-62.6203" font-family="Times New Roman,serif" font-size="14.00">4 &#160;(4) </text>
</g>
</g>
</svg>
