<?xml version="1.0" encoding="utf-8" ?>
<svg xmlns="http://www.w3.org/2000/svg" xmlns:ev="http://www.w3.org/2001/xml-events" xmlns:xlink="http://www.w3.org/1999/xlink" baseProfile="full" height="503.0" version="1.1" width="403.0">
  <defs/>
  <g transform="translate(1.5,1.5)">
    <g>
      <rect fill="none" height="500" stroke="#aaaaaa" stroke-width="3.0" width="400" x="0" y="0"/>
      <line stroke="#aaaaaa" stroke-width="3.0" x1="100" x2="100" y1="0" y2="500"/>
      <line stroke="#aaaaaa" stroke-width="3.0" x1="200" x2="200" y1="0" y2="500"/>
      <line stroke="#aaaaaa" stroke-width="3.0" x1="300" x2="300" y1="0" y2="500"/>
      <line stroke="#aaaaaa" stroke-width="3.0" x1="0" x2="400" y1="100" y2="100"/>
      <line stroke="#aaaaaa" stroke-width="3.0" x1="0" x2="400" y1="200" y2="200"/>
      <line stroke="#aaaaaa" stroke-width="3.0" x1="0" x2="400" y1="300" y2="300"/>
      <line stroke="#aaaaaa" stroke-width="3.0" x1="0" x2="400" y1="400" y2="400"/>
    </g>
    <circle cx="150.0" cy="150.0" fill="green" r="44.0"/>
    <text alignment-baseline="central" font-size="40" text-anchor="middle" x="150.0" y="150.0">2</text>
    <text alignment-baseline="central" fill="#777777" font-size="20" text-anchor="middle" x="130.0" y="116.66666666666666">1,1</text>
    <text alignment-baseline="central" font-size="40" text-anchor="middle" x="250.0" y="50.0">7</text>
    <text alignment-baseline="central" fill="#777777" font-size="20" text-anchor="middle" x="230.0" y="16.666666666666664">2,0</text>
    <text alignment-baseline="central" font-size="40" text-anchor="middle" x="150.0" y="350.0">3</text>
    <text alignment-baseline="central" fill="#777777" font-size="20" text-anchor="middle" x="130.0" y="316.6666666666667">1,3</text>
    <text alignment-baseline="central" font-size="40" text-anchor="middle" x="250.0" y="350.0">6</text>
    <text alignment-baseline="central" fill="#777777" font-size="20" text-anchor="middle" x="230.0" y="316.6666666666667">2,3</text>
    <text alignment-baseline="central" font-size="40" text-anchor="middle" x="350.0" y="250.0">6</text>
    <text alignment-baseline="central" fill="#777777" font-size="20" text-anchor="middle" x="330.0" y="216.66666666666666">3,2</text>
    <text alignment-baseline="central" font-size="40" text-anchor="middle" x="150.0" y="450.0">9</text>
    <text alignment-baseline="central" fill="#777777" font-size="20" text-anchor="middle" x="130.0" y="416.6666666666667">1,4</text>
    <polyline fill="none" points="142.07876428987433,140.97482402855553 142.30544007970482,45.13794611746033 240.3293986286168,38.4685451550343 329.88227408583435,49.5208759203727 374.10778568560875,171.2757418950929 367.4245466258008,237.07281144800356 258.87408670222374,273.6076593367077 241.6512064317488,373.26978711743527 168.93796003523448,341.9766230248459 150.0922728467429,452.16975403737706 149.65498130280523,363.34100763671637 234.59181022529043,333.35570231897054 155.47978300857622,328.3037228947299 246.71956505206953,351.2767972221271 158.66251337488353,337.7646473977517 269.76447093743803,362.21620481083 165.75428067069993,370.93302951589123 253.3563979717248,334.47636328783125 167.83657904858944,345.1960210075328 251.0795616443046,328.110678864972 159.88248973576765,329.96149556412036 228.3226488968784,369.60462620854986 229.9144141607951,266.61691753329234 344.9839795085169,262.5418226608652 332.5288394802636,164.9438376874099 342.9260430783239,65.35576254992449 373.11830812479093,141.67104903089557 330.95885424656393,245.91601051452665 229.3916282197619,241.16892607653818 147.69669510469578,243.7658293923293 158.3042313566039,335.56606548301363 130.02559214138367,433.5504894489255 274.62519943982977,463.629251621854 336.58484988017403,464.8745001472407" stroke="orange" stroke-width="3"/>
    <polyline fill="none" points="134.736362042076,171.4717990119741 132.8302571682559,64.90223448770047 247.8221940672538,74.600645230689 138.77365734979733,74.9080370784042 155.8702807666234,155.14778836393782 174.2609995568004,242.40631242927464 131.77861693226413,330.5486355711968 126.83871299257368,234.40518218896023 256.4368029968773,259.82550638356446 262.8559240034538,330.12835523518044 254.2893463196769,248.07104471608756 268.85655297875996,128.03056260824658 269.52357291395356,253.41913513651497 354.0444501375496,239.64950524705398 263.44893600644554,247.30570604041105 135.69236229507058,266.565532393897 139.7287826739115,343.0050557103203 159.29727449513348,427.6109752386365 44.950693434444545,449.88035474405564 50.144312666893086,346.0265866381792 160.04775068303567,368.2922049187851" stroke="seagreen" stroke-width="3"/>
  </g>
</svg>
