<?xml version="1.0" encoding="UTF-8" standalone="no"?>
<!DOCTYPE svg PUBLIC "-//W3C//DTD SVG 1.1//EN"
 "http://www.w3.org/Graphics/SVG/1.1/DTD/svg11.dtd">
<!-- Generated by graphviz version 2.38.0 (20140413.2041)
 -->
<!-- Title: example7.txt_fields Pages: 1 -->
<svg width="1597pt" height="507pt"
 viewBox="0.00 0.00 1597.07 507.37" xmlns="http://www.w3.org/2000/svg" xmlns:xlink="http://www.w3.org/1999/xlink">
<g id="graph0" class="graph" transform="scale(1 1) rotate(0) translate(570.933 186.483)">
<title>example7.txt_fields</title>
<polygon fill="white" stroke="none" points="-570.933,320.883 -570.933,-186.483 1026.13,-186.483 1026.13,320.883 -570.933,320.883"/>
<!-- 8_0 -->
<g id="node1" class="node"><title>8_0</title>
<ellipse fill="none" stroke="black" cx="907.2" cy="-134.4" rx="62.8651" ry="48.1667"/>
<text text-anchor="middle" x="907.2" y="-153.2" font-family="Times New Roman,serif" font-size="14.00">8,0</text>
<text text-anchor="middle" x="907.2" y="-138.2" font-family="Times New Roman,serif" font-size="14.00">ic: 9</text>
<text text-anchor="middle" x="907.2" y="-123.2" font-family="Times New Roman,serif" font-size="14.00">free: 7,0;6,0</text>
<text text-anchor="middle" x="907.2" y="-108.2" font-family="Times New Roman,serif" font-size="14.00">swlolw: none</text>
</g>
<!-- 8_0&#45;&gt;8_0 -->
<g id="edge1" class="edge"><title>8_0&#45;&gt;8_0</title>
<path fill="none" stroke="black" d="M969.638,-140.728C980.545,-139.884 988.133,-137.775 988.133,-134.4 988.133,-132.238 985.019,-130.595 979.913,-129.472"/>
<polygon fill="black" stroke="black" points="980.019,-125.954 969.638,-128.072 979.074,-132.89 980.019,-125.954"/>
<text text-anchor="middle" x="1005.13" y="-130.7" font-family="Times New Roman,serif" font-size="14.00">2 &#160;(4) </text>
</g>
<!-- 2_1 -->
<g id="node2" class="node"><title>2_1</title>
<ellipse fill="none" stroke="black" cx="-302.4" cy="67.2" rx="58.8803" ry="48.1667"/>
<text text-anchor="middle" x="-302.4" y="48.4" font-family="Times New Roman,serif" font-size="14.00">2,1</text>
<text text-anchor="middle" x="-302.4" y="63.4" font-family="Times New Roman,serif" font-size="14.00">ic: 5</text>
<text text-anchor="middle" x="-302.4" y="78.4" font-family="Times New Roman,serif" font-size="14.00">free: 2,0;3,0</text>
<text text-anchor="middle" x="-302.4" y="93.4" font-family="Times New Roman,serif" font-size="14.00">swlolw: {1}</text>
</g>
<!-- 8_0&#45;&gt;2_1 -->
<g id="edge3" class="edge"><title>8_0&#45;&gt;2_1</title>
<path fill="none" stroke="black" d="M846.493,-121.061C642.314,-82.2521 -18.7984,27.983 -234.007,59.1713"/>
<polygon fill="black" stroke="black" points="-233.821,62.6806 -244.218,60.6394 -234.817,55.7518 -233.821,62.6806"/>
<text text-anchor="middle" x="289.243" y="-19.7449" font-family="Times New Roman,serif" font-size="14.00">7 &#160;(7) </text>
</g>
<!-- 1_1 -->
<g id="node3" class="node"><title>1_1</title>
<ellipse fill="none" stroke="black" cx="-504" cy="67.2" rx="58.8803" ry="48.1667"/>
<text text-anchor="middle" x="-504" y="48.4" font-family="Times New Roman,serif" font-size="14.00">1,1</text>
<text text-anchor="middle" x="-504" y="63.4" font-family="Times New Roman,serif" font-size="14.00">ic: 2</text>
<text text-anchor="middle" x="-504" y="78.4" font-family="Times New Roman,serif" font-size="14.00">free: 0,1;0,0</text>
<text text-anchor="middle" x="-504" y="93.4" font-family="Times New Roman,serif" font-size="14.00">swlolw: {1}</text>
</g>
<!-- 8_0&#45;&gt;1_1 -->
<g id="edge5" class="edge"><title>8_0&#45;&gt;1_1</title>
<path fill="none" stroke="black" d="M846.076,-122.665C616.406,-84.8133 -194.098,31.0182 -435.601,60.5678"/>
<polygon fill="black" stroke="black" points="-435.303,64.0573 -445.652,61.7872 -436.147,57.1082 -435.303,64.0573"/>
<text text-anchor="middle" x="181.237" y="-19.8485" font-family="Times New Roman,serif" font-size="14.00">12 &#160;(12) </text>
</g>
<!-- 2_2 -->
<g id="node4" class="node"><title>2_2</title>
<ellipse fill="none" stroke="black" cx="-302.4" cy="268.8" rx="62.8651" ry="48.1667"/>
<text text-anchor="middle" x="-302.4" y="250" font-family="Times New Roman,serif" font-size="14.00">2,2</text>
<text text-anchor="middle" x="-302.4" y="265" font-family="Times New Roman,serif" font-size="14.00">ic: 9</text>
<text text-anchor="middle" x="-302.4" y="280" font-family="Times New Roman,serif" font-size="14.00">free: 3,2;3,1</text>
<text text-anchor="middle" x="-302.4" y="295" font-family="Times New Roman,serif" font-size="14.00">swlolw: none</text>
</g>
<!-- 8_0&#45;&gt;2_2 -->
<g id="edge4" class="edge"><title>8_0&#45;&gt;2_2</title>
<path fill="none" stroke="black" d="M851.051,-112.437C652.525,-41.1918 -15.9546,181.721 -233.417,249.312"/>
<polygon fill="black" stroke="black" points="-232.533,252.702 -243.121,252.317 -234.604,246.015 -232.533,252.702"/>
<text text-anchor="middle" x="291.817" y="79.6376" font-family="Times New Roman,serif" font-size="14.00">8 &#160;(8) </text>
</g>
<!-- 1_0 -->
<g id="node5" class="node"><title>1_0</title>
<ellipse fill="none" stroke="black" cx="-504" cy="-134.4" rx="62.8651" ry="48.1667"/>
<text text-anchor="middle" x="-504" y="-153.2" font-family="Times New Roman,serif" font-size="14.00">1,0</text>
<text text-anchor="middle" x="-504" y="-138.2" font-family="Times New Roman,serif" font-size="14.00">ic: 5</text>
<text text-anchor="middle" x="-504" y="-123.2" font-family="Times New Roman,serif" font-size="14.00">free: 2,0;3,0</text>
<text text-anchor="middle" x="-504" y="-108.2" font-family="Times New Roman,serif" font-size="14.00">swlolw: none</text>
</g>
<!-- 8_0&#45;&gt;1_0 -->
<g id="edge2" class="edge"><title>8_0&#45;&gt;1_0</title>
<path fill="none" stroke="black" d="M844.283,-131.398C613.722,-126.471 -184.297,-126.402 -430.851,-131.189"/>
<polygon fill="black" stroke="black" points="-431.204,-127.696 -441.131,-131.399 -431.062,-134.694 -431.204,-127.696"/>
<text text-anchor="middle" x="189.716" y="-120.093" font-family="Times New Roman,serif" font-size="14.00">7 &#160;(7) </text>
</g>
<!-- 2_1&#45;&gt;8_0 -->
<g id="edge10" class="edge"><title>2_1&#45;&gt;8_0</title>
<path fill="none" stroke="black" d="M-245.38,54.5638C-46.8545,16.6402 613.921,-93.5976 834.678,-125.771"/>
<polygon fill="black" stroke="black" points="834.456,-129.275 844.854,-127.244 835.458,-122.348 834.456,-129.275"/>
<text text-anchor="middle" x="277.649" y="-39.4037" font-family="Times New Roman,serif" font-size="14.00">7 &#160;(7) </text>
</g>
<!-- 2_1&#45;&gt;2_1 -->
<g id="edge9" class="edge"><title>2_1&#45;&gt;2_1</title>
<path fill="none" stroke="black" d="M-244.213,60.7965C-233.356,61.585 -225.71,63.7195 -225.71,67.2 -225.71,69.4297 -228.848,71.107 -233.958,72.2319"/>
<polygon fill="black" stroke="black" points="-233.837,75.7468 -244.213,73.6035 -234.765,68.8086 -233.837,75.7468"/>
<text text-anchor="middle" x="-208.71" y="70.9" font-family="Times New Roman,serif" font-size="14.00">2 &#160;(4) </text>
</g>
<!-- 2_1&#45;&gt;1_1 -->
<g id="edge6" class="edge"><title>2_1&#45;&gt;1_1</title>
<path fill="none" stroke="black" d="M-360.711,73.386C-384.013,74.0422 -411.022,74.1258 -435.268,73.6368"/>
<polygon fill="black" stroke="black" points="-435.558,77.1309 -445.471,73.3921 -435.39,70.1329 -435.558,77.1309"/>
<text text-anchor="middle" x="-380.989" y="84.7114" font-family="Times New Roman,serif" font-size="14.00">1 &#160;(7) </text>
</g>
<!-- 2_1&#45;&gt;2_2 -->
<g id="edge7" class="edge"><title>2_1&#45;&gt;2_2</title>
<path fill="none" stroke="black" d="M-296.55,115.232C-295.472,143.902 -295.362,180.503 -296.222,210.782"/>
<polygon fill="black" stroke="black" points="-292.724,210.907 -296.551,220.787 -299.721,210.677 -292.724,210.907"/>
<text text-anchor="middle" x="-313.386" y="159.207" font-family="Times New Roman,serif" font-size="14.00">1 &#160;(3) </text>
</g>
<!-- 2_1&#45;&gt;1_0 -->
<g id="edge8" class="edge"><title>2_1&#45;&gt;1_0</title>
<path fill="none" stroke="black" d="M-344.146,33.1071C-379.196,0.432189 -428.892,-49.1235 -463.567,-85.8938"/>
<polygon fill="black" stroke="black" points="-466.444,-83.8453 -470.728,-93.5355 -461.336,-88.6317 -466.444,-83.8453"/>
<text text-anchor="middle" x="-420.857" y="-30.1934" font-family="Times New Roman,serif" font-size="14.00">2 &#160;(4) </text>
</g>
<!-- 1_1&#45;&gt;8_0 -->
<g id="edge15" class="edge"><title>1_1&#45;&gt;8_0</title>
<path fill="none" stroke="black" d="M-446.458,56.0567C-223.105,19.0588 586.274,-96.6685 834.388,-127.226"/>
<polygon fill="black" stroke="black" points="834.029,-130.708 844.379,-128.447 834.878,-123.76 834.029,-130.708"/>
<text text-anchor="middle" x="169.965" y="-39.3847" font-family="Times New Roman,serif" font-size="14.00">12 &#160;(12) </text>
</g>
<!-- 1_1&#45;&gt;2_1 -->
<g id="edge12" class="edge"><title>1_1&#45;&gt;2_1</title>
<path fill="none" stroke="black" d="M-445.689,61.014C-422.387,60.3578 -395.378,60.2742 -371.132,60.7632"/>
<polygon fill="black" stroke="black" points="-370.842,57.2691 -360.929,61.0079 -371.01,64.2671 -370.842,57.2691"/>
<text text-anchor="middle" x="-391.411" y="57.0886" font-family="Times New Roman,serif" font-size="14.00">1 &#160;(7) </text>
</g>
<!-- 1_1&#45;&gt;1_1 -->
<g id="edge14" class="edge"><title>1_1&#45;&gt;1_1</title>
<path fill="none" stroke="black" d="M-445.813,60.7965C-434.956,61.585 -427.31,63.7195 -427.31,67.2 -427.31,69.4297 -430.448,71.107 -435.558,72.2319"/>
<polygon fill="black" stroke="black" points="-435.437,75.7468 -445.813,73.6035 -436.365,68.8086 -435.437,75.7468"/>
<text text-anchor="middle" x="-410.31" y="70.9" font-family="Times New Roman,serif" font-size="14.00">2 &#160;(4) </text>
</g>
<!-- 1_1&#45;&gt;2_2 -->
<g id="edge13" class="edge"><title>1_1&#45;&gt;2_2</title>
<path fill="none" stroke="black" d="M-462.254,101.293C-427.204,133.968 -377.508,183.523 -342.833,220.294"/>
<polygon fill="black" stroke="black" points="-339.956,218.245 -335.672,227.935 -345.064,223.032 -339.956,218.245"/>
<text text-anchor="middle" x="-419.543" y="156.993" font-family="Times New Roman,serif" font-size="14.00">2 &#160;(4) </text>
</g>
<!-- 1_1&#45;&gt;1_0 -->
<g id="edge11" class="edge"><title>1_1&#45;&gt;1_0</title>
<path fill="none" stroke="black" d="M-509.85,19.1679C-510.928,-9.50204 -511.038,-46.1034 -510.178,-76.3816"/>
<polygon fill="black" stroke="black" points="-513.676,-76.5073 -509.849,-86.3869 -506.679,-76.2773 -513.676,-76.5073"/>
<text text-anchor="middle" x="-527.014" y="-32.4069" font-family="Times New Roman,serif" font-size="14.00">1 &#160;(3) </text>
</g>
<!-- 2_2&#45;&gt;8_0 -->
<g id="edge20" class="edge"><title>2_2&#45;&gt;8_0</title>
<path fill="none" stroke="black" d="M-246.251,246.837C-47.7254,175.592 620.755,-47.3211 838.217,-114.912"/>
<polygon fill="black" stroke="black" points="837.333,-118.302 847.921,-117.917 839.404,-111.615 837.333,-118.302"/>
<text text-anchor="middle" x="278.983" y="62.1624" font-family="Times New Roman,serif" font-size="14.00">8 &#160;(8) </text>
</g>
<!-- 2_2&#45;&gt;2_1 -->
<g id="edge16" class="edge"><title>2_2&#45;&gt;2_1</title>
<path fill="none" stroke="black" d="M-308.25,220.768C-309.328,192.098 -309.438,155.497 -308.578,125.218"/>
<polygon fill="black" stroke="black" points="-312.076,125.093 -308.249,115.213 -305.079,125.323 -312.076,125.093"/>
<text text-anchor="middle" x="-325.414" y="184.193" font-family="Times New Roman,serif" font-size="14.00">1 &#160;(3) </text>
</g>
<!-- 2_2&#45;&gt;1_1 -->
<g id="edge17" class="edge"><title>2_2&#45;&gt;1_1</title>
<path fill="none" stroke="black" d="M-345.625,233.327C-380.791,200.454 -429.958,151.382 -464.177,115.059"/>
<polygon fill="black" stroke="black" points="-466.963,117.205 -471.241,107.513 -461.852,112.421 -466.963,117.205"/>
<text text-anchor="middle" x="-421.901" y="185.393" font-family="Times New Roman,serif" font-size="14.00">2 &#160;(4) </text>
</g>
<!-- 2_2&#45;&gt;2_2 -->
<g id="edge18" class="edge"><title>2_2&#45;&gt;2_2</title>
<path fill="none" stroke="black" d="M-239.962,262.472C-229.055,263.316 -221.467,265.425 -221.467,268.8 -221.467,270.962 -224.581,272.605 -229.687,273.728"/>
<polygon fill="black" stroke="black" points="-229.581,277.246 -239.962,275.128 -230.526,270.31 -229.581,277.246"/>
<text text-anchor="middle" x="-204.467" y="272.5" font-family="Times New Roman,serif" font-size="14.00">2 &#160;(4) </text>
</g>
<!-- 2_2&#45;&gt;1_0 -->
<g id="edge19" class="edge"><title>2_2&#45;&gt;1_0</title>
<path fill="none" stroke="black" d="M-329.336,224.943C-369.492,151.182 -443.948,2.48325 -481.427,-78.6016"/>
<polygon fill="black" stroke="black" points="-484.817,-77.597 -485.81,-88.1452 -478.456,-80.5182 -484.817,-77.597"/>
<text text-anchor="middle" x="-422.382" y="84.3709" font-family="Times New Roman,serif" font-size="14.00">5 &#160;(5) </text>
</g>
<!-- 1_0&#45;&gt;8_0 -->
<g id="edge25" class="edge"><title>1_0&#45;&gt;8_0</title>
<path fill="none" stroke="black" d="M-441.083,-137.402C-210.522,-142.329 587.497,-142.398 834.051,-137.611"/>
<polygon fill="black" stroke="black" points="834.404,-141.104 844.331,-137.401 834.262,-134.106 834.404,-141.104"/>
<text text-anchor="middle" x="179.484" y="-141.307" font-family="Times New Roman,serif" font-size="14.00">7 &#160;(7) </text>
</g>
<!-- 1_0&#45;&gt;2_1 -->
<g id="edge22" class="edge"><title>1_0&#45;&gt;2_1</title>
<path fill="none" stroke="black" d="M-460.775,-98.9265C-425.609,-66.0541 -376.442,-16.9816 -342.223,19.3406"/>
<polygon fill="black" stroke="black" points="-339.437,17.195 -335.159,26.8874 -344.548,21.9787 -339.437,17.195"/>
<text text-anchor="middle" x="-384.499" y="-43.593" font-family="Times New Roman,serif" font-size="14.00">2 &#160;(4) </text>
</g>
<!-- 1_0&#45;&gt;1_1 -->
<g id="edge21" class="edge"><title>1_0&#45;&gt;1_1</title>
<path fill="none" stroke="black" d="M-498.15,-86.3679C-497.072,-57.698 -496.962,-21.0966 -497.822,9.18164"/>
<polygon fill="black" stroke="black" points="-494.324,9.3073 -498.151,19.1869 -501.321,9.07729 -494.324,9.3073"/>
<text text-anchor="middle" x="-480.986" y="-42.3931" font-family="Times New Roman,serif" font-size="14.00">1 &#160;(3) </text>
</g>
<!-- 1_0&#45;&gt;2_2 -->
<g id="edge24" class="edge"><title>1_0&#45;&gt;2_2</title>
<path fill="none" stroke="black" d="M-477.064,-90.5433C-436.908,-16.7818 -362.452,131.917 -324.973,213.002"/>
<polygon fill="black" stroke="black" points="-321.582,211.997 -320.59,222.545 -327.944,214.918 -321.582,211.997"/>
<text text-anchor="middle" x="-418.018" y="57.4291" font-family="Times New Roman,serif" font-size="14.00">5 &#160;(5) </text>
</g>
<!-- 1_0&#45;&gt;1_0 -->
<g id="edge23" class="edge"><title>1_0&#45;&gt;1_0</title>
<path fill="none" stroke="black" d="M-441.562,-140.728C-430.655,-139.884 -423.067,-137.775 -423.067,-134.4 -423.067,-132.238 -426.181,-130.595 -431.287,-129.472"/>
<polygon fill="black" stroke="black" points="-431.181,-125.954 -441.562,-128.072 -432.126,-132.89 -431.181,-125.954"/>
<text text-anchor="middle" x="-406.067" y="-130.7" font-family="Times New Roman,serif" font-size="14.00">2 &#160;(4) </text>
</g>
<!-- 7_0 -->
<g id="node6" class="node"><title>7_0</title>
<ellipse fill="green" stroke="black" cx="705.6" cy="-134.4" rx="62.8651" ry="48.1667"/>
<text text-anchor="middle" x="705.6" y="-153.2" font-family="Times New Roman,serif" font-size="14.00">7,0</text>
<text text-anchor="middle" x="705.6" y="-138.2" font-family="Times New Roman,serif" font-size="14.00">ic: 1</text>
<text text-anchor="middle" x="705.6" y="-123.2" font-family="Times New Roman,serif" font-size="14.00">free: 6,0;7,0</text>
<text text-anchor="middle" x="705.6" y="-108.2" font-family="Times New Roman,serif" font-size="14.00">swlolw: none</text>
</g>
<!-- 7_0&#45;&gt;8_0 -->
<g id="edge26" class="edge"><title>7_0&#45;&gt;8_0</title>
<path fill="none" stroke="black" d="M768.558,-134.4C789.303,-134.4 812.55,-134.4 833.992,-134.4"/>
<polygon fill="black" stroke="black" points="834.026,-137.9 844.026,-134.4 834.026,-130.9 834.026,-137.9"/>
<text text-anchor="middle" x="818.275" y="-138.2" font-family="Times New Roman,serif" font-size="14.00">1 &#160;(3) </text>
</g>
<!-- 7_0&#45;&gt;2_1 -->
<g id="edge28" class="edge"><title>7_0&#45;&gt;2_1</title>
<path fill="none" stroke="black" d="M644.439,-122.168C466.432,-86.5664 -50.4346,16.8069 -235.504,53.8208"/>
<polygon fill="black" stroke="black" points="-234.886,57.2664 -245.378,55.7956 -236.259,50.4023 -234.886,57.2664"/>
<text text-anchor="middle" x="221.468" y="-37.9735" font-family="Times New Roman,serif" font-size="14.00">6 &#160;(6) </text>
</g>
<!-- 7_0&#45;&gt;1_1 -->
<g id="edge30" class="edge"><title>7_0&#45;&gt;1_1</title>
<path fill="none" stroke="black" d="M643.953,-124.125C438.497,-89.8828 -221.998,20.1997 -436.226,55.9043"/>
<polygon fill="black" stroke="black" points="-435.949,59.4063 -446.388,57.598 -437.1,52.5016 -435.949,59.4063"/>
<text text-anchor="middle" x="79.8634" y="-37.9106" font-family="Times New Roman,serif" font-size="14.00">11 &#160;(11) </text>
</g>
<!-- 7_0&#45;&gt;2_2 -->
<g id="edge29" class="edge"><title>7_0&#45;&gt;2_2</title>
<path fill="none" stroke="black" d="M649.608,-112.003C476.194,-42.6375 -51.4612,168.424 -237.017,242.647"/>
<polygon fill="black" stroke="black" points="-235.798,245.929 -246.382,246.393 -238.397,239.429 -235.798,245.929"/>
<text text-anchor="middle" x="189.295" y="61.5219" font-family="Times New Roman,serif" font-size="14.00">7 &#160;(7) </text>
</g>
<!-- 7_0&#45;&gt;1_0 -->
<g id="edge27" class="edge"><title>7_0&#45;&gt;1_0</title>
<path fill="none" stroke="black" d="M642.27,-134.4C436.631,-134.4 -211.721,-134.4 -430.828,-134.4"/>
<polygon fill="black" stroke="black" points="-430.933,-130.9 -440.933,-134.4 -430.933,-137.9 -430.933,-130.9"/>
<text text-anchor="middle" x="88.7211" y="-138.2" font-family="Times New Roman,serif" font-size="14.00">6 &#160;(6) </text>
</g>
</g>
</svg>
