<?xml version="1.0" encoding="utf-8" ?>
<svg xmlns="http://www.w3.org/2000/svg" xmlns:ev="http://www.w3.org/2001/xml-events" xmlns:xlink="http://www.w3.org/1999/xlink" baseProfile="full" height="903.0" version="1.1" width="803.0">
  <defs/>
  <g transform="translate(1.5,1.5)">
    <g>
      <rect fill="none" height="900" stroke="#aaaaaa" stroke-width="3.0" width="800" x="0" y="0"/>
      <line stroke="#aaaaaa" stroke-width="3.0" x1="100" x2="100" y1="0" y2="900"/>
      <line stroke="#aaaaaa" stroke-width="3.0" x1="200" x2="200" y1="0" y2="900"/>
      <line stroke="#aaaaaa" stroke-width="3.0" x1="300" x2="300" y1="0" y2="900"/>
      <line stroke="#aaaaaa" stroke-width="3.0" x1="400" x2="400" y1="0" y2="900"/>
      <line stroke="#aaaaaa" stroke-width="3.0" x1="500" x2="500" y1="0" y2="900"/>
      <line stroke="#aaaaaa" stroke-width="3.0" x1="600" x2="600" y1="0" y2="900"/>
      <line stroke="#aaaaaa" stroke-width="3.0" x1="700" x2="700" y1="0" y2="900"/>
      <line stroke="#aaaaaa" stroke-width="3.0" x1="0" x2="800" y1="100" y2="100"/>
      <line stroke="#aaaaaa" stroke-width="3.0" x1="0" x2="800" y1="200" y2="200"/>
      <line stroke="#aaaaaa" stroke-width="3.0" x1="0" x2="800" y1="300" y2="300"/>
      <line stroke="#aaaaaa" stroke-width="3.0" x1="0" x2="800" y1="400" y2="400"/>
      <line stroke="#aaaaaa" stroke-width="3.0" x1="0" x2="800" y1="500" y2="500"/>
      <line stroke="#aaaaaa" stroke-width="3.0" x1="0" x2="800" y1="600" y2="600"/>
      <line stroke="#aaaaaa" stroke-width="3.0" x1="0" x2="800" y1="700" y2="700"/>
      <line stroke="#aaaaaa" stroke-width="3.0" x1="0" x2="800" y1="800" y2="800"/>
    </g>
    <circle cx="750.0" cy="250.0" fill="green" r="44.0"/>
    <text alignment-baseline="central" font-size="40" text-anchor="middle" x="750.0" y="250.0">8</text>
    <text alignment-baseline="central" fill="#777777" font-size="20" text-anchor="middle" x="730.0" y="216.66666666666666">7,2</text>
    <text alignment-baseline="central" font-size="40" text-anchor="middle" x="350.0" y="650.0">5</text>
    <text alignment-baseline="central" fill="#777777" font-size="20" text-anchor="middle" x="330.0" y="616.6666666666666">3,6</text>
    <text alignment-baseline="central" font-size="40" text-anchor="middle" x="550.0" y="350.0">6</text>
    <text alignment-baseline="central" fill="#777777" font-size="20" text-anchor="middle" x="530.0" y="316.6666666666667">5,3</text>
    <text alignment-baseline="central" font-size="40" text-anchor="middle" x="50.0" y="450.0">3</text>
    <text alignment-baseline="central" fill="#777777" font-size="20" text-anchor="middle" x="30.0" y="416.6666666666667">0,4</text>
    <text alignment-baseline="central" font-size="40" text-anchor="middle" x="50.0" y="150.0">2</text>
    <text alignment-baseline="central" fill="#777777" font-size="20" text-anchor="middle" x="30.0" y="116.66666666666666">0,1</text>
    <text alignment-baseline="central" font-size="40" text-anchor="middle" x="150.0" y="150.0">6</text>
    <text alignment-baseline="central" fill="#777777" font-size="20" text-anchor="middle" x="130.0" y="116.66666666666666">1,1</text>
    <text alignment-baseline="central" font-size="40" text-anchor="middle" x="150.0" y="550.0">7</text>
    <text alignment-baseline="central" fill="#777777" font-size="20" text-anchor="middle" x="130.0" y="516.6666666666666">1,5</text>
    <text alignment-baseline="central" font-size="40" text-anchor="middle" x="150.0" y="50.0">1</text>
    <text alignment-baseline="central" fill="#777777" font-size="20" text-anchor="middle" x="130.0" y="16.666666666666664">1,0</text>
    <text alignment-baseline="central" font-size="40" text-anchor="middle" x="250.0" y="150.0">10</text>
    <text alignment-baseline="central" fill="#777777" font-size="20" text-anchor="middle" x="230.0" y="116.66666666666666">2,1</text>
    <text alignment-baseline="central" font-size="40" text-anchor="middle" x="550.0" y="850.0">3</text>
    <text alignment-baseline="central" fill="#777777" font-size="20" text-anchor="middle" x="530.0" y="816.6666666666666">5,8</text>
    <polyline fill="none" points="772.4392810569201,254.82811752651145 653.5145580373512,272.73407540549846 544.7457709218181,264.66612093231544 534.6960325428826,335.2657716803352 445.7351684256646,339.8152738528531 335.0604026779143,374.447299791899 237.4298321954222,346.40678277613205 167.54362930191652,343.61999473717225 54.713079235255535,372.0625375111137 59.9440637443073,457.4597607756454 58.98488601514231,355.367877883582 74.56782002284606,235.96787513458986 52.347821355152306,156.6759344746728 166.75587428389449,133.6445301161576 244.72025008167248,139.05904639142688 227.62940929616116,31.52301141499499 166.47867394323833,54.28718831878696 132.6027414534325,128.97717656727974 147.21572420163443,57.87695639646111 226.44841005230796,50.447176178786066 339.70918302194826,55.06659134849757 363.1348593878827,143.37030862767526 355.9916321445784,261.54394536035494 340.60310857661005,338.07557269354095 366.8817463984799,455.48929943231104 327.1825254863415,535.0291116753882 338.6238502650325,636.9045616699975 350.7736924047573,558.8147699411368 242.1999397537149,529.096178689681 152.18089587966602,567.3358178513353 140.38016583564752,445.5547651198116 173.94150553828314,540.0545289263408 166.36776097778375,443.9371462392031 155.49534894299342,571.472242280993 152.76155587176598,464.13260012521386 243.91211793689928,456.24673120514774 231.42386415446543,353.48863234038134 271.6431481961479,271.0233296463579 262.4990955078774,140.7583714204614 326.4833141423657,125.97214717724364 468.76203189192574,130.66049107521653 538.881026073618,149.3503292129466 555.886092789564,239.74834584734907 544.2306750678279,343.13558641538197 571.3937601746338,451.64817342487 526.5827829502322,565.8825721656088 541.2248964127955,670.1452519311906 572.3604494219271,732.0938431738841 534.7174528396345,871.312012844588 562.4118260675929,759.2042087350378 559.7189684978957,667.1078151610409 562.3369876785729,750.5491819482062" stroke="orange" stroke-width="3"/>
    <polyline fill="none" points="736.9776571080866,240.63417203449933 636.8890061877173,232.06713299093502 551.9849476588762,255.54859140054816 450.9926697355899,258.27360239223543 438.3041162175028,355.1108744619696 455.5485331253273,466.88957990496186 426.80815081463874,557.0626250112853 345.8417345184056,550.8582008337959 360.09418052271906,652.5943235632337 346.581467882805,547.1797446536336 364.23359554843137,442.49001166917225 329.55443333743216,341.89856912453934 471.18299695539093,334.28873852467893 563.4165069315516,350.959170291002 526.9905324686173,458.24681109061805 454.5920780970586,446.17643974437345 362.3192316943596,425.9328964077274 251.63024973195365,468.50416517509836 127.46837142669938,445.4637504292437 30.643528311274444,429.4365179345457 56.957380613803764,362.7031758133573 28.041486379200528,256.97457664321877 58.66974284656462,128.42949440642118 158.46869544168052,152.43509381919995 140.75669797527138,228.6322720234338 145.08438509991828,358.88712140481005 155.49100831823839,450.50872777970727 128.4994576201264,568.0413135770868 172.04237949568488,447.6351320488004 171.36420787476467,331.1365732184097 163.11553265832524,242.79150708353058 133.90376782115268,166.999955340238 159.9857009663014,68.1248468938343 174.2425555181589,138.94067076356956 268.1122473023901,170.8063848194468 258.3493492350646,269.93748926454856 235.61350073886837,374.903174438447 246.64609680673937,425.4069848029117 232.26176649031459,549.4188183495801 234.95171564098473,669.72619205099 225.863363978723,748.2140382885816 352.25550813041485,751.1355439127911 354.3453281674687,850.6056398414526 443.4265852585155,832.723180434238 567.6651598343278,868.825373677351" stroke="seagreen" stroke-width="3"/>
  </g>
</svg>
