<?xml version="1.0" encoding="utf-8" ?>
<svg xmlns="http://www.w3.org/2000/svg" xmlns:ev="http://www.w3.org/2001/xml-events" xmlns:xlink="http://www.w3.org/1999/xlink" baseProfile="full" height="903.0" version="1.1" width="403.0">
  <defs/>
  <g transform="translate(1.5,1.5)">
    <g>
      <rect fill="none" height="900" stroke="#aaaaaa" stroke-width="3.0" width="400" x="0" y="0"/>
      <line stroke="#aaaaaa" stroke-width="3.0" x1="100" x2="100" y1="0" y2="900"/>
      <line stroke="#aaaaaa" stroke-width="3.0" x1="200" x2="200" y1="0" y2="900"/>
      <line stroke="#aaaaaa" stroke-width="3.0" x1="300" x2="300" y1="0" y2="900"/>
      <line stroke="#aaaaaa" stroke-width="3.0" x1="0" x2="400" y1="100" y2="100"/>
      <line stroke="#aaaaaa" stroke-width="3.0" x1="0" x2="400" y1="200" y2="200"/>
      <line stroke="#aaaaaa" stroke-width="3.0" x1="0" x2="400" y1="300" y2="300"/>
      <line stroke="#aaaaaa" stroke-width="3.0" x1="0" x2="400" y1="400" y2="400"/>
      <line stroke="#aaaaaa" stroke-width="3.0" x1="0" x2="400" y1="500" y2="500"/>
      <line stroke="#aaaaaa" stroke-width="3.0" x1="0" x2="400" y1="600" y2="600"/>
      <line stroke="#aaaaaa" stroke-width="3.0" x1="0" x2="400" y1="700" y2="700"/>
      <line stroke="#aaaaaa" stroke-width="3.0" x1="0" x2="400" y1="800" y2="800"/>
    </g>
    <circle cx="150.0" cy="650.0" fill="green" r="44.0"/>
    <text alignment-baseline="central" font-size="40" text-anchor="middle" x="150.0" y="650.0">3</text>
    <text alignment-baseline="central" fill="#777777" font-size="20" text-anchor="middle" x="130.0" y="616.6666666666666">1,6</text>
    <text alignment-baseline="central" font-size="40" text-anchor="middle" x="50.0" y="650.0">7</text>
    <text alignment-baseline="central" fill="#777777" font-size="20" text-anchor="middle" x="30.0" y="616.6666666666666">0,6</text>
    <text alignment-baseline="central" font-size="40" text-anchor="middle" x="150.0" y="450.0">5</text>
    <text alignment-baseline="central" fill="#777777" font-size="20" text-anchor="middle" x="130.0" y="416.6666666666667">1,4</text>
    <text alignment-baseline="central" font-size="40" text-anchor="middle" x="150.0" y="150.0">3</text>
    <text alignment-baseline="central" fill="#777777" font-size="20" text-anchor="middle" x="130.0" y="116.66666666666666">1,1</text>
    <text alignment-baseline="central" font-size="40" text-anchor="middle" x="250.0" y="150.0">11</text>
    <text alignment-baseline="central" fill="#777777" font-size="20" text-anchor="middle" x="230.0" y="116.66666666666666">2,1</text>
    <text alignment-baseline="central" font-size="40" text-anchor="middle" x="250.0" y="650.0">3</text>
    <text alignment-baseline="central" fill="#777777" font-size="20" text-anchor="middle" x="230.0" y="616.6666666666666">2,6</text>
    <text alignment-baseline="central" font-size="40" text-anchor="middle" x="50.0" y="550.0">4</text>
    <text alignment-baseline="central" fill="#777777" font-size="20" text-anchor="middle" x="30.0" y="516.6666666666666">0,5</text>
    <text alignment-baseline="central" font-size="40" text-anchor="middle" x="50.0" y="750.0">1</text>
    <text alignment-baseline="central" fill="#777777" font-size="20" text-anchor="middle" x="30.0" y="716.6666666666666">0,7</text>
    <text alignment-baseline="central" font-size="40" text-anchor="middle" x="50.0" y="850.0">7</text>
    <text alignment-baseline="central" fill="#777777" font-size="20" text-anchor="middle" x="30.0" y="816.6666666666666">0,8</text>
    <text alignment-baseline="central" font-size="40" text-anchor="middle" x="350.0" y="450.0">5</text>
    <text alignment-baseline="central" fill="#777777" font-size="20" text-anchor="middle" x="330.0" y="416.6666666666667">3,4</text>
    <polyline fill="none" points="144.7799295092837,661.599664117047 45.22236067763906,643.350198799251 55.33790017141328,562.0121719917271 47.57192131506088,426.47346311625205 154.64113187147086,469.9822468228705 273.8418412007438,442.6623695296814 355.2255993858742,435.00378336994993 230.08546448668693,462.5327959655617 264.1544141786087,572.7893413791141 244.27949423008852,659.7139107439135 267.91231159838185,733.2810032015649 137.91743389214776,751.3723888059862 31.959827551211063,767.0678358842083 28.145916492538,862.6969291516535 148.61785233859334,870.2602254654129 174.37066615654618,740.6692657457755 172.96257573419064,655.2212009839285 27.854075859307912,629.3767088031007 42.04901476185718,543.3055959848851 73.4931811621237,465.8848424555689 72.79425199641511,369.45176210084816 126.4453671048305,336.7052048453927 258.9866607603018,365.8201192013306 246.61469312537747,274.7002486208524 233.15938309234934,144.53592976329844 238.05912803959257,46.41002380322155 173.55729137826228,73.77278980748294 242.07069626589976,43.48280851410925 162.36317302955018,58.81384600748612 259.1674044335056,73.79105508636215 157.88834577184957,52.41821739371768 251.5798472461472,56.18389582398068 158.63479216900276,54.023831350351486 233.20183092464612,45.167466941359834 143.55450012634807,52.31646034540198 147.21385173665092,145.98405743374133 152.95968235156093,230.37051149973064 137.9590593245696,339.96234287771847 160.4078852949471,437.8641648699288 274.0313716661636,428.72519116000115 362.60030766990747,474.0310027566504 243.7287528046445,462.16326739640454 231.81665240950912,561.7033404492666 271.1163955015936,640.2952097782785 160.51222474636052,667.2750632121015 54.188579949638566,631.2523155696987 161.73119814595185,633.5785059973604 146.1558707246792,566.2485194563931 25.640130725901727,557.5533949077369 70.2337966279764,430.5305013449202" stroke="orange" stroke-width="3"/>
    <polyline fill="none" points="140.6377576724331,661.8242984477092 158.32860911316646,534.3482297196817 135.45590671860464,630.7182653262994 45.85751553694638,643.7955585977719 171.16901481262295,660.5846144639659 138.40702909415236,546.9697066974657 161.7256802471685,464.9814677716098 125.28737706997828,330.552876152693 129.40019659635112,227.3485164217955 126.0443941508677,160.4090437432946 168.0837763193966,26.528402315771523 263.0575421100489,69.02868885833783 227.29930863403843,131.60332106669316 255.31166063492333,235.4800994034428 258.69622838289564,367.18650281883913 261.46285942309385,446.7568814150161 258.6024586161754,555.852654818148 245.75559561025335,639.2148036764436 258.92572801503024,527.5909342961409 165.83086652941228,536.4179443524572 27.091933519432693,554.3780034078567 173.44600927429377,557.680726386469 174.1425190701052,634.160649282781 170.1875878742149,761.2249944959873 31.459510726508952,741.9708155500251 61.31475469073243,836.5462220848266 148.09980424171806,846.7636438823756 172.37103655697317,753.0965307454621 136.67065864397793,630.8814713963714 138.85670119482137,558.3719111138232 237.0226064981117,557.0936585049553 225.22533530290218,435.0843981800634 330.9506781715323,453.33530339453966" stroke="seagreen" stroke-width="3"/>
  </g>
</svg>
