<?xml version="1.0" encoding="UTF-8" standalone="no"?>
<!DOCTYPE svg PUBLIC "-//W3C//DTD SVG 1.1//EN"
 "http://www.w3.org/Graphics/SVG/1.1/DTD/svg11.dtd">
<!-- Generated by graphviz version 2.38.0 (20140413.2041)
 -->
<!-- Title: example5.txt_fields Pages: 1 -->
<svg width="1194pt" height="1112pt"
 viewBox="0.00 0.00 1193.87 1112.17" xmlns="http://www.w3.org/2000/svg" xmlns:xlink="http://www.w3.org/1999/xlink">
<g id="graph0" class="graph" transform="scale(1 1) rotate(0) translate(611.252 354.483)">
<title>example5.txt_fields</title>
<polygon fill="white" stroke="none" points="-611.252,757.683 -611.252,-354.483 582.613,-354.483 582.613,757.683 -611.252,757.683"/>
<!-- 4_5 -->
<g id="node1" class="node"><title>4_5</title>
<ellipse fill="none" stroke="black" cx="262.08" cy="705.6" rx="62.8651" ry="48.1667"/>
<text text-anchor="middle" x="262.08" y="686.8" font-family="Times New Roman,serif" font-size="14.00">4,5</text>
<text text-anchor="middle" x="262.08" y="701.8" font-family="Times New Roman,serif" font-size="14.00">ic: 6</text>
<text text-anchor="middle" x="262.08" y="716.8" font-family="Times New Roman,serif" font-size="14.00">free: 4,4;4,3</text>
<text text-anchor="middle" x="262.08" y="731.8" font-family="Times New Roman,serif" font-size="14.00">swlolw: none</text>
</g>
<!-- 4_5&#45;&gt;4_5 -->
<g id="edge1" class="edge"><title>4_5&#45;&gt;4_5</title>
<path fill="none" stroke="black" d="M324.518,699.272C335.425,700.116 343.013,702.225 343.013,705.6 343.013,707.762 339.899,709.405 334.793,710.528"/>
<polygon fill="black" stroke="black" points="334.899,714.046 324.518,711.928 333.954,707.11 334.899,714.046"/>
<text text-anchor="middle" x="360.013" y="709.3" font-family="Times New Roman,serif" font-size="14.00">2 &#160;(4) </text>
</g>
<!-- 4_1 -->
<g id="node2" class="node"><title>4_1</title>
<ellipse fill="none" stroke="black" cx="262.08" cy="-100.8" rx="62.8651" ry="48.1667"/>
<text text-anchor="middle" x="262.08" y="-119.6" font-family="Times New Roman,serif" font-size="14.00">4,1</text>
<text text-anchor="middle" x="262.08" y="-104.6" font-family="Times New Roman,serif" font-size="14.00">ic: 3</text>
<text text-anchor="middle" x="262.08" y="-89.6" font-family="Times New Roman,serif" font-size="14.00">free: 5,1;5,0</text>
<text text-anchor="middle" x="262.08" y="-74.6" font-family="Times New Roman,serif" font-size="14.00">swlolw: none</text>
</g>
<!-- 4_5&#45;&gt;4_1 -->
<g id="edge3" class="edge"><title>4_5&#45;&gt;4_1</title>
<path fill="none" stroke="black" d="M258.667,657.571C254.318,517.449 254.22,109.465 258.374,-42.6918"/>
<polygon fill="black" stroke="black" points="254.878,-42.8746 258.667,-52.7686 261.875,-42.6711 254.878,-42.8746"/>
<text text-anchor="middle" x="241.521" y="303.64" font-family="Times New Roman,serif" font-size="14.00">4 &#160;(4) </text>
</g>
<!-- 2_2 -->
<g id="node3" class="node"><title>2_2</title>
<ellipse fill="none" stroke="black" cx="-141.12" cy="100.8" rx="62.8651" ry="48.1667"/>
<text text-anchor="middle" x="-141.12" y="82" font-family="Times New Roman,serif" font-size="14.00">2,2</text>
<text text-anchor="middle" x="-141.12" y="97" font-family="Times New Roman,serif" font-size="14.00">ic: 3</text>
<text text-anchor="middle" x="-141.12" y="112" font-family="Times New Roman,serif" font-size="14.00">free: 3,2;3,1</text>
<text text-anchor="middle" x="-141.12" y="127" font-family="Times New Roman,serif" font-size="14.00">swlolw: none</text>
</g>
<!-- 4_5&#45;&gt;2_2 -->
<g id="edge4" class="edge"><title>4_5&#45;&gt;2_2</title>
<path fill="none" stroke="black" d="M230.002,664.158C153.939,557.235 -36.1163,272.302 -110.596,153.71"/>
<polygon fill="black" stroke="black" points="-113.631,155.459 -115.967,145.125 -107.696,151.747 -113.631,155.459"/>
<text text-anchor="middle" x="42.7027" y="405.134" font-family="Times New Roman,serif" font-size="14.00">5 &#160;(5) </text>
</g>
<!-- 2_1 -->
<g id="node4" class="node"><title>2_1</title>
<ellipse fill="none" stroke="black" cx="-141.12" cy="-100.8" rx="58.8803" ry="48.1667"/>
<text text-anchor="middle" x="-141.12" y="-119.6" font-family="Times New Roman,serif" font-size="14.00">2,1</text>
<text text-anchor="middle" x="-141.12" y="-104.6" font-family="Times New Roman,serif" font-size="14.00">ic: 2</text>
<text text-anchor="middle" x="-141.12" y="-89.6" font-family="Times New Roman,serif" font-size="14.00">free: 3,1;3,2</text>
<text text-anchor="middle" x="-141.12" y="-74.6" font-family="Times New Roman,serif" font-size="14.00">swlolw: {1}</text>
</g>
<!-- 4_5&#45;&gt;2_1 -->
<g id="edge6" class="edge"><title>4_5&#45;&gt;2_1</title>
<path fill="none" stroke="black" d="M236.261,661.427C162.586,524.076 -47.1411,104.791 -117.727,-46.0376"/>
<polygon fill="black" stroke="black" points="-120.923,-44.6108 -121.975,-55.1533 -114.578,-47.5677 -120.923,-44.6108"/>
<text text-anchor="middle" x="42.2671" y="303.895" font-family="Times New Roman,serif" font-size="14.00">6 &#160;(6) </text>
</g>
<!-- 1_0 -->
<g id="node5" class="node"><title>1_0</title>
<ellipse fill="none" stroke="black" cx="-342.72" cy="-302.4" rx="58.8803" ry="48.1667"/>
<text text-anchor="middle" x="-342.72" y="-321.2" font-family="Times New Roman,serif" font-size="14.00">1,0</text>
<text text-anchor="middle" x="-342.72" y="-306.2" font-family="Times New Roman,serif" font-size="14.00">ic: 1</text>
<text text-anchor="middle" x="-342.72" y="-291.2" font-family="Times New Roman,serif" font-size="14.00">free: 0,0;0,1</text>
<text text-anchor="middle" x="-342.72" y="-276.2" font-family="Times New Roman,serif" font-size="14.00">swlolw: {1}</text>
</g>
<!-- 4_5&#45;&gt;1_0 -->
<g id="edge8" class="edge"><title>4_5&#45;&gt;1_0</title>
<path fill="none" stroke="black" d="M232.951,662.848C130.274,501.346 -213.374,-71.2643 -314.543,-249.236"/>
<polygon fill="black" stroke="black" points="-317.713,-247.731 -319.598,-258.157 -311.623,-251.182 -317.713,-247.731"/>
<text text-anchor="middle" x="-57.7962" y="203.006" font-family="Times New Roman,serif" font-size="14.00">8 &#160;(8) </text>
</g>
<!-- 3_0 -->
<g id="node7" class="node"><title>3_0</title>
<ellipse fill="none" stroke="black" cx="60.48" cy="-302.4" rx="58.8803" ry="48.1667"/>
<text text-anchor="middle" x="60.48" y="-321.2" font-family="Times New Roman,serif" font-size="14.00">3,0</text>
<text text-anchor="middle" x="60.48" y="-306.2" font-family="Times New Roman,serif" font-size="14.00">ic: 1</text>
<text text-anchor="middle" x="60.48" y="-291.2" font-family="Times New Roman,serif" font-size="14.00">free: 3,1;3,2</text>
<text text-anchor="middle" x="60.48" y="-276.2" font-family="Times New Roman,serif" font-size="14.00">swlolw: {1}</text>
</g>
<!-- 4_5&#45;&gt;3_0 -->
<g id="edge5" class="edge"><title>4_5&#45;&gt;3_0</title>
<path fill="none" stroke="black" d="M249.462,658.266C211.372,492.265 100.199,-63.1739 68.6406,-244.562"/>
<polygon fill="black" stroke="black" points="65.1869,-243.994 66.9371,-254.443 72.0852,-245.183 65.1869,-243.994"/>
<text text-anchor="middle" x="142.051" y="218.052" font-family="Times New Roman,serif" font-size="14.00">6 &#160;(6) </text>
</g>
<!-- 4_0 -->
<g id="node8" class="node"><title>4_0</title>
<ellipse fill="none" stroke="black" cx="262.08" cy="-302.4" rx="58.8803" ry="48.1667"/>
<text text-anchor="middle" x="262.08" y="-321.2" font-family="Times New Roman,serif" font-size="14.00">4,0</text>
<text text-anchor="middle" x="262.08" y="-306.2" font-family="Times New Roman,serif" font-size="14.00">ic: 4</text>
<text text-anchor="middle" x="262.08" y="-291.2" font-family="Times New Roman,serif" font-size="14.00">free: 5,0;5,1</text>
<text text-anchor="middle" x="262.08" y="-276.2" font-family="Times New Roman,serif" font-size="14.00">swlolw: {1}</text>
</g>
<!-- 4_5&#45;&gt;4_0 -->
<g id="edge7" class="edge"><title>4_5&#45;&gt;4_0</title>
<path fill="none" stroke="black" d="M258.98,657.322C254.205,490.322 254.115,-62.5193 258.71,-244.07"/>
<polygon fill="black" stroke="black" points="255.215,-244.316 258.983,-254.218 262.213,-244.128 255.215,-244.316"/>
<text text-anchor="middle" x="241.845" y="202.826" font-family="Times New Roman,serif" font-size="14.00">7 &#160;(7) </text>
</g>
<!-- 5_3 -->
<g id="node9" class="node"><title>5_3</title>
<ellipse fill="none" stroke="black" cx="463.68" cy="302.4" rx="62.8651" ry="48.1667"/>
<text text-anchor="middle" x="463.68" y="283.6" font-family="Times New Roman,serif" font-size="14.00">5,3</text>
<text text-anchor="middle" x="463.68" y="298.6" font-family="Times New Roman,serif" font-size="14.00">ic: 4</text>
<text text-anchor="middle" x="463.68" y="313.6" font-family="Times New Roman,serif" font-size="14.00">free: 5,2;5,1</text>
<text text-anchor="middle" x="463.68" y="328.6" font-family="Times New Roman,serif" font-size="14.00">swlolw: none</text>
</g>
<!-- 4_5&#45;&gt;5_3 -->
<g id="edge2" class="edge"><title>4_5&#45;&gt;5_3</title>
<path fill="none" stroke="black" d="M280.281,659.322C314.747,583.729 389.32,434.301 432.079,354.875"/>
<polygon fill="black" stroke="black" points="429.039,353.14 436.877,346.013 435.194,356.473 429.039,353.14"/>
<text text-anchor="middle" x="339.18" y="503.299" font-family="Times New Roman,serif" font-size="14.00">3 &#160;(3) </text>
</g>
<!-- 4_1&#45;&gt;4_5 -->
<g id="edge15" class="edge"><title>4_1&#45;&gt;4_5</title>
<path fill="none" stroke="black" d="M265.493,-52.771C269.842,87.3506 269.94,495.335 265.786,647.492"/>
<polygon fill="black" stroke="black" points="269.282,647.675 265.493,657.569 262.285,647.471 269.282,647.675"/>
<text text-anchor="middle" x="282.639" y="293.56" font-family="Times New Roman,serif" font-size="14.00">4 &#160;(4) </text>
</g>
<!-- 4_1&#45;&gt;4_1 -->
<g id="edge12" class="edge"><title>4_1&#45;&gt;4_1</title>
<path fill="none" stroke="black" d="M324.518,-107.128C335.425,-106.284 343.013,-104.175 343.013,-100.8 343.013,-98.6379 339.899,-96.9952 334.793,-95.8719"/>
<polygon fill="black" stroke="black" points="334.899,-92.3541 324.518,-94.4719 333.954,-99.29 334.899,-92.3541"/>
<text text-anchor="middle" x="360.013" y="-97.1" font-family="Times New Roman,serif" font-size="14.00">2 &#160;(4) </text>
</g>
<!-- 4_1&#45;&gt;2_2 -->
<g id="edge14" class="edge"><title>4_1&#45;&gt;2_2</title>
<path fill="none" stroke="black" d="M212.701,-70.8696C140.225,-31.7058 4.97029,36.0629 -75.6948,73.7527"/>
<polygon fill="black" stroke="black" points="-74.71,77.1546 -85.2535,78.196 -77.6607,70.8068 -74.71,77.1546"/>
<text text-anchor="middle" x="85.5033" y="-2.35842" font-family="Times New Roman,serif" font-size="14.00">3 &#160;(3) </text>
</g>
<!-- 4_1&#45;&gt;2_1 -->
<g id="edge11" class="edge"><title>4_1&#45;&gt;2_1</title>
<path fill="none" stroke="black" d="M199.08,-95.7375C125.466,-93.5466 4.06476,-93.4891 -72.0599,-95.5648"/>
<polygon fill="black" stroke="black" points="-72.5986,-92.0791 -82.4913,-95.8719 -72.3926,-99.0761 -72.5986,-92.0791"/>
<text text-anchor="middle" x="46.51" y="-84.4512" font-family="Times New Roman,serif" font-size="14.00">2 &#160;(4) </text>
</g>
<!-- 4_1&#45;&gt;1_0 -->
<g id="edge16" class="edge"><title>4_1&#45;&gt;1_0</title>
<path fill="none" stroke="black" d="M202.213,-116.334C87.1112,-151.159 -163.947,-234.797 -280.713,-277.163"/>
<polygon fill="black" stroke="black" points="-282.04,-273.922 -290.236,-280.636 -279.642,-280.498 -282.04,-273.922"/>
<text text-anchor="middle" x="-56.2497" y="-185.548" font-family="Times New Roman,serif" font-size="14.00">8 &#160;(8) </text>
</g>
<!-- 4_1&#45;&gt;3_0 -->
<g id="edge10" class="edge"><title>4_1&#45;&gt;3_0</title>
<path fill="none" stroke="black" d="M218.855,-136.273C183.689,-169.146 134.522,-218.218 100.303,-254.541"/>
<polygon fill="black" stroke="black" points="97.5174,-252.395 93.2386,-262.087 102.628,-257.179 97.5174,-252.395"/>
<text text-anchor="middle" x="142.579" y="-199.207" font-family="Times New Roman,serif" font-size="14.00">2 &#160;(4) </text>
</g>
<!-- 4_1&#45;&gt;4_0 -->
<g id="edge9" class="edge"><title>4_1&#45;&gt;4_0</title>
<path fill="none" stroke="black" d="M256.23,-148.832C255.152,-177.502 255.042,-214.103 255.902,-244.382"/>
<polygon fill="black" stroke="black" points="252.404,-244.507 256.231,-254.387 259.401,-244.277 252.404,-244.507"/>
<text text-anchor="middle" x="239.066" y="-200.407" font-family="Times New Roman,serif" font-size="14.00">1 &#160;(3) </text>
</g>
<!-- 4_1&#45;&gt;5_3 -->
<g id="edge13" class="edge"><title>4_1&#45;&gt;5_3</title>
<path fill="none" stroke="black" d="M289.016,-56.9433C329.172,16.8182 403.628,165.517 441.107,246.602"/>
<polygon fill="black" stroke="black" points="444.497,245.597 445.49,256.145 438.136,248.518 444.497,245.597"/>
<text text-anchor="middle" x="348.062" y="91.0291" font-family="Times New Roman,serif" font-size="14.00">3 &#160;(3) </text>
</g>
<!-- 2_2&#45;&gt;4_5 -->
<g id="edge23" class="edge"><title>2_2&#45;&gt;4_5</title>
<path fill="none" stroke="black" d="M-109.042,142.242C-32.9787,249.165 157.076,534.098 231.556,652.69"/>
<polygon fill="black" stroke="black" points="234.591,650.941 236.927,661.275 228.656,654.653 234.591,650.941"/>
<text text-anchor="middle" x="78.2573" y="393.666" font-family="Times New Roman,serif" font-size="14.00">5 &#160;(5) </text>
</g>
<!-- 2_2&#45;&gt;4_1 -->
<g id="edge21" class="edge"><title>2_2&#45;&gt;4_1</title>
<path fill="none" stroke="black" d="M-91.7413,70.8696C-19.265,31.7058 115.99,-36.0629 196.655,-73.7527"/>
<polygon fill="black" stroke="black" points="195.67,-77.1546 206.214,-78.196 198.621,-70.8068 195.67,-77.1546"/>
<text text-anchor="middle" x="35.4567" y="-5.24158" font-family="Times New Roman,serif" font-size="14.00">3 &#160;(3) </text>
</g>
<!-- 2_2&#45;&gt;2_2 -->
<g id="edge18" class="edge"><title>2_2&#45;&gt;2_2</title>
<path fill="none" stroke="black" d="M-78.6818,94.4719C-67.7749,95.3156 -60.1875,97.425 -60.1875,100.8 -60.1875,102.962 -63.3014,104.605 -68.4071,105.728"/>
<polygon fill="black" stroke="black" points="-68.3008,109.246 -78.6818,107.128 -69.246,102.31 -68.3008,109.246"/>
<text text-anchor="middle" x="-43.1875" y="104.5" font-family="Times New Roman,serif" font-size="14.00">2 &#160;(4) </text>
</g>
<!-- 2_2&#45;&gt;2_1 -->
<g id="edge17" class="edge"><title>2_2&#45;&gt;2_1</title>
<path fill="none" stroke="black" d="M-146.97,52.7679C-148.048,24.098 -148.158,-12.5034 -147.298,-42.7816"/>
<polygon fill="black" stroke="black" points="-150.796,-42.9073 -146.969,-52.7869 -143.799,-42.6773 -150.796,-42.9073"/>
<text text-anchor="middle" x="-164.134" y="1.19313" font-family="Times New Roman,serif" font-size="14.00">1 &#160;(3) </text>
</g>
<!-- 2_2&#45;&gt;1_0 -->
<g id="edge19" class="edge"><title>2_2&#45;&gt;1_0</title>
<path fill="none" stroke="black" d="M-168.056,56.9433C-208.265,-16.9156 -282.865,-165.91 -320.296,-246.923"/>
<polygon fill="black" stroke="black" points="-323.681,-245.907 -324.672,-256.456 -317.319,-248.827 -323.681,-245.907"/>
<text text-anchor="middle" x="-261.176" y="-98.7896" font-family="Times New Roman,serif" font-size="14.00">3 &#160;(3) </text>
</g>
<!-- 2_2&#45;&gt;3_0 -->
<g id="edge20" class="edge"><title>2_2&#45;&gt;3_0</title>
<path fill="none" stroke="black" d="M-122.919,54.5218C-88.3612,-21.272 -13.4845,-171.292 29.2189,-250.555"/>
<polygon fill="black" stroke="black" points="26.1676,-252.271 34.0087,-259.396 32.3223,-248.936 26.1676,-252.271"/>
<text text-anchor="middle" x="-29.8502" y="-86.8166" font-family="Times New Roman,serif" font-size="14.00">3 &#160;(3) </text>
</g>
<!-- 2_2&#45;&gt;4_0 -->
<g id="edge24" class="edge"><title>2_2&#45;&gt;4_0</title>
<path fill="none" stroke="black" d="M-106.47,60.3098C-34.5251,-16.4145 130.976,-182.072 213.511,-260.14"/>
<polygon fill="black" stroke="black" points="211.555,-263.106 221.233,-267.416 216.355,-258.011 211.555,-263.106"/>
<text text-anchor="middle" x="36.5204" y="-103.715" font-family="Times New Roman,serif" font-size="14.00">6 &#160;(6) </text>
</g>
<!-- 2_2&#45;&gt;5_3 -->
<g id="edge22" class="edge"><title>2_2&#45;&gt;5_3</title>
<path fill="none" stroke="black" d="M-81.2531,116.334C32.8302,150.851 280.475,233.32 398.541,276.029"/>
<polygon fill="black" stroke="black" points="399.983,272.829 408.186,279.534 397.592,279.408 399.983,272.829"/>
<text text-anchor="middle" x="141.644" y="192.381" font-family="Times New Roman,serif" font-size="14.00">4 &#160;(4) </text>
</g>
<!-- 2_1&#45;&gt;4_5 -->
<g id="edge32" class="edge"><title>2_1&#45;&gt;4_5</title>
<path fill="none" stroke="black" d="M-115.609,-57.2011C-42.2746,79.4369 167.649,499.091 238.508,650.456"/>
<polygon fill="black" stroke="black" points="241.721,649.063 242.774,659.606 235.376,652.021 241.721,649.063"/>
<text text-anchor="middle" x="78.4496" y="292.828" font-family="Times New Roman,serif" font-size="14.00">6 &#160;(6) </text>
</g>
<!-- 2_1&#45;&gt;4_1 -->
<g id="edge29" class="edge"><title>2_1&#45;&gt;4_1</title>
<path fill="none" stroke="black" d="M-82.4913,-105.728C-10.5862,-108.012 111.313,-108.149 189.184,-106.137"/>
<polygon fill="black" stroke="black" points="189.499,-109.63 199.398,-105.853 189.305,-102.632 189.499,-109.63"/>
<text text-anchor="middle" x="70.3464" y="-109.733" font-family="Times New Roman,serif" font-size="14.00">2 &#160;(4) </text>
</g>
<!-- 2_1&#45;&gt;2_2 -->
<g id="edge26" class="edge"><title>2_1&#45;&gt;2_2</title>
<path fill="none" stroke="black" d="M-135.27,-52.7679C-134.192,-24.098 -134.082,12.5034 -134.942,42.7816"/>
<polygon fill="black" stroke="black" points="-131.444,42.9073 -135.271,52.7869 -138.441,42.6773 -131.444,42.9073"/>
<text text-anchor="middle" x="-118.106" y="-8.79313" font-family="Times New Roman,serif" font-size="14.00">1 &#160;(3) </text>
</g>
<!-- 2_1&#45;&gt;2_1 -->
<g id="edge30" class="edge"><title>2_1&#45;&gt;2_1</title>
<path fill="none" stroke="black" d="M-82.933,-107.204C-72.0762,-106.415 -64.4301,-104.28 -64.4301,-100.8 -64.4301,-98.5703 -67.5681,-96.893 -72.6779,-95.7681"/>
<polygon fill="black" stroke="black" points="-72.5572,-92.2532 -82.933,-94.3965 -73.4853,-99.1914 -72.5572,-92.2532"/>
<text text-anchor="middle" x="-47.4301" y="-97.1" font-family="Times New Roman,serif" font-size="14.00">2 &#160;(4) </text>
</g>
<!-- 2_1&#45;&gt;1_0 -->
<g id="edge27" class="edge"><title>2_1&#45;&gt;1_0</title>
<path fill="none" stroke="black" d="M-182.866,-134.893C-218.136,-167.773 -268.237,-217.747 -302.94,-254.586"/>
<polygon fill="black" stroke="black" points="-305.822,-252.544 -310.1,-262.237 -300.712,-257.327 -305.822,-252.544"/>
<text text-anchor="middle" x="-259.903" y="-198.539" font-family="Times New Roman,serif" font-size="14.00">2 &#160;(4) </text>
</g>
<!-- 2_0 -->
<g id="node6" class="node"><title>2_0</title>
<ellipse fill="none" stroke="black" cx="-141.12" cy="-302.4" rx="58.8803" ry="48.1667"/>
<text text-anchor="middle" x="-141.12" y="-321.2" font-family="Times New Roman,serif" font-size="14.00">2,0</text>
<text text-anchor="middle" x="-141.12" y="-306.2" font-family="Times New Roman,serif" font-size="14.00">ic: 1</text>
<text text-anchor="middle" x="-141.12" y="-291.2" font-family="Times New Roman,serif" font-size="14.00">free: none</text>
<text text-anchor="middle" x="-141.12" y="-276.2" font-family="Times New Roman,serif" font-size="14.00">swlolw: {1}</text>
</g>
<!-- 2_1&#45;&gt;2_0 -->
<g id="edge25" class="edge"><title>2_1&#45;&gt;2_0</title>
<path fill="none" stroke="black" d="M-146.97,-148.832C-148.048,-177.502 -148.158,-214.103 -147.298,-244.382"/>
<polygon fill="black" stroke="black" points="-150.796,-244.507 -146.969,-254.387 -143.799,-244.277 -150.796,-244.507"/>
<text text-anchor="middle" x="-166.634" y="-200.407" font-family="Times New Roman,serif" font-size="14.00">1 &#160;(&#45;1) </text>
</g>
<!-- 2_1&#45;&gt;3_0 -->
<g id="edge28" class="edge"><title>2_1&#45;&gt;3_0</title>
<path fill="none" stroke="black" d="M-108.388,-141.084C-76.0318,-175.89 -26.209,-225.905 10.9729,-261.023"/>
<polygon fill="black" stroke="black" points="9.01771,-263.988 18.7044,-268.279 13.8083,-258.884 9.01771,-263.988"/>
<text text-anchor="middle" x="-65.7074" y="-204.853" font-family="Times New Roman,serif" font-size="14.00">2 &#160;(4) </text>
</g>
<!-- 2_1&#45;&gt;4_0 -->
<g id="edge33" class="edge"><title>2_1&#45;&gt;4_0</title>
<path fill="none" stroke="black" d="M-93.7433,-129.647C-20.7529,-169.19 119.168,-239.281 200.109,-276.964"/>
<polygon fill="black" stroke="black" points="198.652,-280.146 209.197,-281.172 201.594,-273.794 198.652,-280.146"/>
<text text-anchor="middle" x="36.1827" y="-207.105" font-family="Times New Roman,serif" font-size="14.00">7 &#160;(7) </text>
</g>
<!-- 2_1&#45;&gt;5_3 -->
<g id="edge31" class="edge"><title>2_1&#45;&gt;5_3</title>
<path fill="none" stroke="black" d="M-92.8086,-73.1589C18.9601,-3.2527 294.551,180.356 410.717,262.169"/>
<polygon fill="black" stroke="black" points="412.987,259.487 419.134,268.117 408.947,265.204 412.987,259.487"/>
<text text-anchor="middle" x="141.954" y="90.7051" font-family="Times New Roman,serif" font-size="14.00">5 &#160;(5) </text>
</g>
<!-- 1_0&#45;&gt;4_5 -->
<g id="edge41" class="edge"><title>1_0&#45;&gt;4_5</title>
<path fill="none" stroke="black" d="M-313.998,-260.288C-211.912,-99.8016 132.015,473.254 233.644,651.981"/>
<polygon fill="black" stroke="black" points="236.695,650.266 238.582,660.692 230.606,653.718 236.695,650.266"/>
<text text-anchor="middle" x="-23.1767" y="192.046" font-family="Times New Roman,serif" font-size="14.00">8 &#160;(8) </text>
</g>
<!-- 1_0&#45;&gt;4_1 -->
<g id="edge40" class="edge"><title>1_0&#45;&gt;4_1</title>
<path fill="none" stroke="black" d="M-286.691,-288.025C-174.453,-254.24 77.3686,-170.42 196.825,-127.213"/>
<polygon fill="black" stroke="black" points="198.377,-130.373 206.579,-123.668 195.985,-123.795 198.377,-130.373"/>
<text text-anchor="middle" x="-27.9332" y="-211.419" font-family="Times New Roman,serif" font-size="14.00">8 &#160;(8) </text>
</g>
<!-- 1_0&#45;&gt;2_2 -->
<g id="edge37" class="edge"><title>1_0&#45;&gt;2_2</title>
<path fill="none" stroke="black" d="M-316.202,-259.311C-276.134,-185.794 -201.255,-36.2712 -163.657,45.0785"/>
<polygon fill="black" stroke="black" points="-160.253,44.1033 -159.261,54.6516 -166.615,47.0242 -160.253,44.1033"/>
<text text-anchor="middle" x="-222.93" y="-110.916" font-family="Times New Roman,serif" font-size="14.00">3 &#160;(3) </text>
</g>
<!-- 1_0&#45;&gt;2_1 -->
<g id="edge35" class="edge"><title>1_0&#45;&gt;2_1</title>
<path fill="none" stroke="black" d="M-300.974,-268.307C-265.704,-235.427 -215.603,-185.453 -180.9,-148.614"/>
<polygon fill="black" stroke="black" points="-178.018,-150.656 -173.74,-140.963 -183.128,-145.873 -178.018,-150.656"/>
<text text-anchor="middle" x="-223.937" y="-212.26" font-family="Times New Roman,serif" font-size="14.00">2 &#160;(4) </text>
</g>
<!-- 1_0&#45;&gt;1_0 -->
<g id="edge36" class="edge"><title>1_0&#45;&gt;1_0</title>
<path fill="none" stroke="black" d="M-284.533,-308.804C-273.676,-308.015 -266.03,-305.88 -266.03,-302.4 -266.03,-300.17 -269.168,-298.493 -274.278,-297.368"/>
<polygon fill="black" stroke="black" points="-274.157,-293.853 -284.533,-295.996 -275.085,-300.791 -274.157,-293.853"/>
<text text-anchor="middle" x="-249.03" y="-298.7" font-family="Times New Roman,serif" font-size="14.00">2 &#160;(4) </text>
</g>
<!-- 1_0&#45;&gt;2_0 -->
<g id="edge34" class="edge"><title>1_0&#45;&gt;2_0</title>
<path fill="none" stroke="black" d="M-284.409,-308.586C-261.107,-309.242 -234.098,-309.326 -209.852,-308.837"/>
<polygon fill="black" stroke="black" points="-209.562,-312.331 -199.649,-308.592 -209.73,-305.333 -209.562,-312.331"/>
<text text-anchor="middle" x="-227.631" y="-312.511" font-family="Times New Roman,serif" font-size="14.00">1 &#160;(&#45;1) </text>
</g>
<!-- 1_0&#45;&gt;3_0 -->
<g id="edge39" class="edge"><title>1_0&#45;&gt;3_0</title>
<path fill="none" stroke="black" d="M-284.091,-307.328C-210.932,-309.652 -86.0193,-309.753 -8.38192,-307.63"/>
<polygon fill="black" stroke="black" points="-8.11206,-311.123 1.78049,-307.33 -8.31828,-304.126 -8.11206,-311.123"/>
<text text-anchor="middle" x="-163.237" y="-311.279" font-family="Times New Roman,serif" font-size="14.00">8 &#160;(8) </text>
</g>
<!-- 1_0&#45;&gt;4_0 -->
<g id="edge42" class="edge"><title>1_0&#45;&gt;4_0</title>
<path fill="none" stroke="black" d="M-284.18,-306.595C-171.839,-309.905 73.4549,-309.999 193.35,-306.877"/>
<polygon fill="black" stroke="black" points="193.608,-310.371 203.507,-306.596 193.414,-303.374 193.608,-310.371"/>
<text text-anchor="middle" x="-33.4148" y="-295.536" font-family="Times New Roman,serif" font-size="14.00">11 &#160;(11) </text>
</g>
<!-- 1_0&#45;&gt;5_3 -->
<g id="edge38" class="edge"><title>1_0&#45;&gt;5_3</title>
<path fill="none" stroke="black" d="M-296.823,-272.079C-156.366,-172.403 266.771,144.838 413.193,260.096"/>
<polygon fill="black" stroke="black" points="415.516,257.471 421.197,266.414 411.179,262.965 415.516,257.471"/>
<text text-anchor="middle" x="49.6852" y="5.20836" font-family="Times New Roman,serif" font-size="14.00">7 &#160;(7) </text>
</g>
<!-- 2_0&#45;&gt;2_1 -->
<g id="edge45" class="edge"><title>2_0&#45;&gt;2_1</title>
<path fill="none" stroke="black" d="M-135.27,-254.368C-134.192,-225.698 -134.082,-189.097 -134.942,-158.818"/>
<polygon fill="black" stroke="black" points="-131.444,-158.693 -135.271,-148.813 -138.441,-158.923 -131.444,-158.693"/>
<text text-anchor="middle" x="-115.606" y="-210.393" font-family="Times New Roman,serif" font-size="14.00">1 &#160;(&#45;1) </text>
</g>
<!-- 2_0&#45;&gt;1_0 -->
<g id="edge43" class="edge"><title>2_0&#45;&gt;1_0</title>
<path fill="none" stroke="black" d="M-199.431,-296.214C-222.733,-295.558 -249.742,-295.474 -273.988,-295.963"/>
<polygon fill="black" stroke="black" points="-274.278,-292.469 -284.191,-296.208 -274.11,-299.467 -274.278,-292.469"/>
<text text-anchor="middle" x="-226.96" y="-284.889" font-family="Times New Roman,serif" font-size="14.00">1 &#160;(&#45;1) </text>
</g>
<!-- 2_0&#45;&gt;3_0 -->
<g id="edge44" class="edge"><title>2_0&#45;&gt;3_0</title>
<path fill="none" stroke="black" d="M-82.8089,-308.586C-59.5075,-309.242 -32.4982,-309.326 -8.25209,-308.837"/>
<polygon fill="black" stroke="black" points="-7.96216,-312.331 1.95104,-308.592 -8.13002,-305.333 -7.96216,-312.331"/>
<text text-anchor="middle" x="-26.0305" y="-312.511" font-family="Times New Roman,serif" font-size="14.00">1 &#160;(&#45;1) </text>
</g>
<!-- 3_0&#45;&gt;4_5 -->
<g id="edge53" class="edge"><title>3_0&#45;&gt;4_5</title>
<path fill="none" stroke="black" d="M73.0212,-255.402C111.034,-89.8338 222.315,466.127 253.909,647.7"/>
<polygon fill="black" stroke="black" points="257.364,647.143 255.614,657.592 250.466,648.332 257.364,647.143"/>
<text text-anchor="middle" x="180.465" y="192.349" font-family="Times New Roman,serif" font-size="14.00">6 &#160;(6) </text>
</g>
<!-- 3_0&#45;&gt;4_1 -->
<g id="edge48" class="edge"><title>3_0&#45;&gt;4_1</title>
<path fill="none" stroke="black" d="M102.226,-268.307C137.276,-235.632 186.972,-186.077 221.647,-149.306"/>
<polygon fill="black" stroke="black" points="224.524,-151.355 228.808,-141.665 219.416,-146.568 224.524,-151.355"/>
<text text-anchor="middle" x="178.937" y="-212.607" font-family="Times New Roman,serif" font-size="14.00">2 &#160;(4) </text>
</g>
<!-- 3_0&#45;&gt;2_2 -->
<g id="edge51" class="edge"><title>3_0&#45;&gt;2_2</title>
<path fill="none" stroke="black" d="M42.4584,-256.515C8.0888,-181.085 -66.6101,-31.3899 -109.455,48.2042"/>
<polygon fill="black" stroke="black" points="-106.424,49.9578 -114.262,57.0861 -112.58,46.6257 -106.424,49.9578"/>
<text text-anchor="middle" x="-16.4981" y="-107.955" font-family="Times New Roman,serif" font-size="14.00">3 &#160;(3) </text>
</g>
<!-- 3_0&#45;&gt;2_1 -->
<g id="edge49" class="edge"><title>3_0&#45;&gt;2_1</title>
<path fill="none" stroke="black" d="M27.7478,-262.116C-4.6082,-227.31 -54.431,-177.295 -91.6129,-142.177"/>
<polygon fill="black" stroke="black" points="-89.6577,-139.212 -99.3444,-134.921 -94.4483,-144.316 -89.6577,-139.212"/>
<text text-anchor="middle" x="-14.9326" y="-190.947" font-family="Times New Roman,serif" font-size="14.00">2 &#160;(4) </text>
</g>
<!-- 3_0&#45;&gt;1_0 -->
<g id="edge54" class="edge"><title>3_0&#45;&gt;1_0</title>
<path fill="none" stroke="black" d="M1.85125,-297.472C-71.308,-295.148 -196.221,-295.047 -273.858,-297.17"/>
<polygon fill="black" stroke="black" points="-274.128,-293.677 -284.021,-297.47 -273.922,-300.674 -274.128,-293.677"/>
<text text-anchor="middle" x="-153.003" y="-286.121" font-family="Times New Roman,serif" font-size="14.00">8 &#160;(8) </text>
</g>
<!-- 3_0&#45;&gt;2_0 -->
<g id="edge46" class="edge"><title>3_0&#45;&gt;2_0</title>
<path fill="none" stroke="black" d="M2.16892,-296.214C-21.1326,-295.558 -48.1418,-295.474 -72.3879,-295.963"/>
<polygon fill="black" stroke="black" points="-72.6778,-292.469 -82.591,-296.208 -72.51,-299.467 -72.6778,-292.469"/>
<text text-anchor="middle" x="-54.6095" y="-284.889" font-family="Times New Roman,serif" font-size="14.00">1 &#160;(&#45;1) </text>
</g>
<!-- 3_0&#45;&gt;3_0 -->
<g id="edge50" class="edge"><title>3_0&#45;&gt;3_0</title>
<path fill="none" stroke="black" d="M118.667,-308.804C129.524,-308.015 137.17,-305.88 137.17,-302.4 137.17,-300.17 134.032,-298.493 128.922,-297.368"/>
<polygon fill="black" stroke="black" points="129.043,-293.853 118.667,-295.996 128.115,-300.791 129.043,-293.853"/>
<text text-anchor="middle" x="154.17" y="-298.7" font-family="Times New Roman,serif" font-size="14.00">2 &#160;(4) </text>
</g>
<!-- 3_0&#45;&gt;4_0 -->
<g id="edge47" class="edge"><title>3_0&#45;&gt;4_0</title>
<path fill="none" stroke="black" d="M118.791,-308.586C142.093,-309.242 169.102,-309.326 193.348,-308.837"/>
<polygon fill="black" stroke="black" points="193.638,-312.331 203.551,-308.592 193.47,-305.333 193.638,-312.331"/>
<text text-anchor="middle" x="173.069" y="-312.511" font-family="Times New Roman,serif" font-size="14.00">1 &#160;(7) </text>
</g>
<!-- 3_0&#45;&gt;5_3 -->
<g id="edge52" class="edge"><title>3_0&#45;&gt;5_3</title>
<path fill="none" stroke="black" d="M92.2202,-261.433C168.033,-154.915 358.445,130.541 433.086,249.377"/>
<polygon fill="black" stroke="black" points="436.131,247.646 438.468,257.98 430.197,251.359 436.131,247.646"/>
<text text-anchor="middle" x="245.653" y="-9.82813" font-family="Times New Roman,serif" font-size="14.00">5 &#160;(5) </text>
</g>
<!-- 4_0&#45;&gt;4_5 -->
<g id="edge61" class="edge"><title>4_0&#45;&gt;4_5</title>
<path fill="none" stroke="black" d="M265.18,-254.122C269.955,-87.1224 270.045,465.719 265.45,647.27"/>
<polygon fill="black" stroke="black" points="268.945,647.516 265.177,657.418 261.947,647.328 268.945,647.516"/>
<text text-anchor="middle" x="282.315" y="192.774" font-family="Times New Roman,serif" font-size="14.00">7 &#160;(7) </text>
</g>
<!-- 4_0&#45;&gt;4_1 -->
<g id="edge56" class="edge"><title>4_0&#45;&gt;4_1</title>
<path fill="none" stroke="black" d="M267.93,-254.368C269.008,-225.698 269.118,-189.097 268.258,-158.818"/>
<polygon fill="black" stroke="black" points="271.756,-158.693 267.929,-148.813 264.759,-158.923 271.756,-158.693"/>
<text text-anchor="middle" x="285.094" y="-210.393" font-family="Times New Roman,serif" font-size="14.00">1 &#160;(3) </text>
</g>
<!-- 4_0&#45;&gt;2_2 -->
<g id="edge59" class="edge"><title>4_0&#45;&gt;2_2</title>
<path fill="none" stroke="black" d="M228.127,-262.653C156.748,-186.462 -8.86988,-20.6607 -91.8927,57.9173"/>
<polygon fill="black" stroke="black" points="-89.5027,60.4743 -99.1793,64.7888 -94.3053,55.3816 -89.5027,60.4743"/>
<text text-anchor="middle" x="85.117" y="-91.1678" font-family="Times New Roman,serif" font-size="14.00">6 &#160;(6) </text>
</g>
<!-- 4_0&#45;&gt;2_1 -->
<g id="edge60" class="edge"><title>4_0&#45;&gt;2_1</title>
<path fill="none" stroke="black" d="M214.703,-273.553C141.713,-234.01 1.79195,-163.919 -79.1487,-126.236"/>
<polygon fill="black" stroke="black" points="-77.6919,-123.054 -88.2369,-122.028 -80.6335,-129.406 -77.6919,-123.054"/>
<text text-anchor="middle" x="50.7773" y="-188.695" font-family="Times New Roman,serif" font-size="14.00">7 &#160;(7) </text>
</g>
<!-- 4_0&#45;&gt;1_0 -->
<g id="edge62" class="edge"><title>4_0&#45;&gt;1_0</title>
<path fill="none" stroke="black" d="M203.54,-298.205C91.1991,-294.895 -154.095,-294.801 -273.99,-297.923"/>
<polygon fill="black" stroke="black" points="-274.248,-294.429 -284.147,-298.204 -274.054,-301.426 -274.248,-294.429"/>
<text text-anchor="middle" x="-59.2252" y="-301.864" font-family="Times New Roman,serif" font-size="14.00">11 &#160;(11) </text>
</g>
<!-- 4_0&#45;&gt;3_0 -->
<g id="edge55" class="edge"><title>4_0&#45;&gt;3_0</title>
<path fill="none" stroke="black" d="M203.769,-296.214C180.467,-295.558 153.458,-295.474 129.212,-295.963"/>
<polygon fill="black" stroke="black" points="128.922,-292.469 119.009,-296.208 129.09,-299.467 128.922,-292.469"/>
<text text-anchor="middle" x="183.491" y="-284.889" font-family="Times New Roman,serif" font-size="14.00">1 &#160;(7) </text>
</g>
<!-- 4_0&#45;&gt;4_0 -->
<g id="edge57" class="edge"><title>4_0&#45;&gt;4_0</title>
<path fill="none" stroke="black" d="M320.267,-308.804C331.124,-308.015 338.77,-305.88 338.77,-302.4 338.77,-300.17 335.632,-298.493 330.522,-297.368"/>
<polygon fill="black" stroke="black" points="330.643,-293.853 320.267,-295.996 329.715,-300.791 330.643,-293.853"/>
<text text-anchor="middle" x="355.77" y="-298.7" font-family="Times New Roman,serif" font-size="14.00">2 &#160;(4) </text>
</g>
<!-- 4_0&#45;&gt;5_3 -->
<g id="edge58" class="edge"><title>4_0&#45;&gt;5_3</title>
<path fill="none" stroke="black" d="M281.361,-256.655C321.636,-147.853 413.058,126.114 449.017,245.417"/>
<polygon fill="black" stroke="black" points="452.402,244.521 451.916,255.104 445.696,246.527 452.402,244.521"/>
<text text-anchor="middle" x="348.189" y="-9.41942" font-family="Times New Roman,serif" font-size="14.00">4 &#160;(4) </text>
</g>
<!-- 5_3&#45;&gt;4_5 -->
<g id="edge65" class="edge"><title>5_3&#45;&gt;4_5</title>
<path fill="none" stroke="black" d="M445.479,348.678C411.013,424.271 336.44,573.699 293.681,653.125"/>
<polygon fill="black" stroke="black" points="296.721,654.86 288.883,661.987 290.566,651.527 296.721,654.86"/>
<text text-anchor="middle" x="386.58" y="497.101" font-family="Times New Roman,serif" font-size="14.00">3 &#160;(3) </text>
</g>
<!-- 5_3&#45;&gt;4_1 -->
<g id="edge64" class="edge"><title>5_3&#45;&gt;4_1</title>
<path fill="none" stroke="black" d="M436.744,258.543C396.588,184.782 322.132,36.0832 284.653,-45.0016"/>
<polygon fill="black" stroke="black" points="281.263,-43.997 280.27,-54.5452 287.624,-46.9182 281.263,-43.997"/>
<text text-anchor="middle" x="343.698" y="117.971" font-family="Times New Roman,serif" font-size="14.00">3 &#160;(3) </text>
</g>
<!-- 5_3&#45;&gt;2_2 -->
<g id="edge67" class="edge"><title>5_3&#45;&gt;2_2</title>
<path fill="none" stroke="black" d="M403.813,286.866C289.73,252.349 42.0854,169.879 -75.9813,127.171"/>
<polygon fill="black" stroke="black" points="-77.423,130.371 -85.6256,123.666 -75.0315,123.792 -77.423,130.371"/>
<text text-anchor="middle" x="180.916" y="218.219" font-family="Times New Roman,serif" font-size="14.00">4 &#160;(4) </text>
</g>
<!-- 5_3&#45;&gt;2_1 -->
<g id="edge69" class="edge"><title>5_3&#45;&gt;2_1</title>
<path fill="none" stroke="black" d="M413.317,273.475C299.691,202.271 24.5379,18.9042 -89.8976,-61.7958"/>
<polygon fill="black" stroke="black" points="-92.0407,-59.0246 -98.1818,-67.6581 -87.9972,-64.7386 -92.0407,-59.0246"/>
<text text-anchor="middle" x="144.71" y="117.039" font-family="Times New Roman,serif" font-size="14.00">5 &#160;(5) </text>
</g>
<!-- 5_3&#45;&gt;1_0 -->
<g id="edge70" class="edge"><title>5_3&#45;&gt;1_0</title>
<path fill="none" stroke="black" d="M416.011,270.821C273.194,169.329 -150.02,-148.017 -294.088,-261.557"/>
<polygon fill="black" stroke="black" points="-296.281,-258.829 -301.956,-267.775 -291.94,-264.321 -296.281,-258.829"/>
<text text-anchor="middle" x="77.9613" y="15.832" font-family="Times New Roman,serif" font-size="14.00">7 &#160;(7) </text>
</g>
<!-- 5_3&#45;&gt;3_0 -->
<g id="edge68" class="edge"><title>5_3&#45;&gt;3_0</title>
<path fill="none" stroke="black" d="M431.602,260.958C355.447,153.905 165.023,-131.588 90.7336,-249.92"/>
<polygon fill="black" stroke="black" points="87.7126,-248.149 85.3781,-258.484 93.6477,-251.861 87.7126,-248.149"/>
<text text-anchor="middle" x="244.168" y="16.7193" font-family="Times New Roman,serif" font-size="14.00">5 &#160;(5) </text>
</g>
<!-- 5_3&#45;&gt;4_0 -->
<g id="edge66" class="edge"><title>5_3&#45;&gt;4_0</title>
<path fill="none" stroke="black" d="M444.215,256.158C403.832,146.982 312.584,-126.483 276.706,-245.539"/>
<polygon fill="black" stroke="black" points="273.327,-244.624 273.814,-255.207 280.033,-246.63 273.327,-244.624"/>
<text text-anchor="middle" x="343.46" y="16.5091" font-family="Times New Roman,serif" font-size="14.00">4 &#160;(4) </text>
</g>
<!-- 5_3&#45;&gt;5_3 -->
<g id="edge63" class="edge"><title>5_3&#45;&gt;5_3</title>
<path fill="none" stroke="black" d="M526.118,296.072C537.025,296.916 544.613,299.025 544.613,302.4 544.613,304.562 541.499,306.205 536.393,307.328"/>
<polygon fill="black" stroke="black" points="536.499,310.846 526.118,308.728 535.554,303.91 536.499,310.846"/>
<text text-anchor="middle" x="561.613" y="306.1" font-family="Times New Roman,serif" font-size="14.00">2 &#160;(4) </text>
</g>
<!-- 0_3 -->
<g id="node10" class="node"><title>0_3</title>
<ellipse fill="green" stroke="black" cx="-544.32" cy="302.4" rx="62.8651" ry="48.1667"/>
<text text-anchor="middle" x="-544.32" y="283.6" font-family="Times New Roman,serif" font-size="14.00">0,3</text>
<text text-anchor="middle" x="-544.32" y="298.6" font-family="Times New Roman,serif" font-size="14.00">ic: 6</text>
<text text-anchor="middle" x="-544.32" y="313.6" font-family="Times New Roman,serif" font-size="14.00">free: 0,2;0,1</text>
<text text-anchor="middle" x="-544.32" y="328.6" font-family="Times New Roman,serif" font-size="14.00">swlolw: none</text>
</g>
<!-- 0_3&#45;&gt;4_5 -->
<g id="edge77" class="edge"><title>0_3&#45;&gt;4_5</title>
<path fill="none" stroke="black" d="M-491.41,328.855C-348.206,400.457 46.4796,597.8 199.922,674.521"/>
<polygon fill="black" stroke="black" points="201.859,671.576 209.238,679.179 198.728,677.837 201.859,671.576"/>
<text text-anchor="middle" x="-162.744" y="497.888" font-family="Times New Roman,serif" font-size="14.00">6 &#160;(6) </text>
</g>
<!-- 0_3&#45;&gt;4_1 -->
<g id="edge76" class="edge"><title>0_3&#45;&gt;4_1</title>
<path fill="none" stroke="black" d="M-491.41,275.945C-348.206,204.343 46.4796,7.00022 199.922,-69.7209"/>
<polygon fill="black" stroke="black" points="198.728,-73.0373 209.238,-74.379 201.859,-66.7763 198.728,-73.0373"/>
<text text-anchor="middle" x="-162.744" y="99.312" font-family="Times New Roman,serif" font-size="14.00">6 &#160;(6) </text>
</g>
<!-- 0_3&#45;&gt;2_2 -->
<g id="edge71" class="edge"><title>0_3&#45;&gt;2_2</title>
<path fill="none" stroke="black" d="M-491.609,276.044C-417.354,238.917 -282.212,171.346 -203.195,131.837"/>
<polygon fill="black" stroke="black" points="-204.354,128.504 -193.844,127.162 -201.223,134.765 -204.354,128.504"/>
<text text-anchor="middle" x="-364.402" y="200.141" font-family="Times New Roman,serif" font-size="14.00">3 &#160;(3) </text>
</g>
<!-- 0_3&#45;&gt;2_1 -->
<g id="edge73" class="edge"><title>0_3&#45;&gt;2_1</title>
<path fill="none" stroke="black" d="M-506.024,264.104C-431.185,189.265 -265.88,23.9597 -186.029,-55.8915"/>
<polygon fill="black" stroke="black" points="-188.12,-58.7502 -178.574,-63.3464 -183.17,-53.8004 -188.12,-58.7502"/>
<text text-anchor="middle" x="-363.026" y="100.306" font-family="Times New Roman,serif" font-size="14.00">4 &#160;(4) </text>
</g>
<!-- 0_3&#45;&gt;1_0 -->
<g id="edge72" class="edge"><title>0_3&#45;&gt;1_0</title>
<path fill="none" stroke="black" d="M-528.752,255.696C-492.19,146.011 -400.954,-127.699 -361.447,-246.219"/>
<polygon fill="black" stroke="black" points="-364.723,-247.46 -358.24,-255.84 -358.082,-245.246 -364.723,-247.46"/>
<text text-anchor="middle" x="-462.1" y="0.938687" font-family="Times New Roman,serif" font-size="14.00">4 &#160;(4) </text>
</g>
<!-- 0_3&#45;&gt;3_0 -->
<g id="edge75" class="edge"><title>0_3&#45;&gt;3_0</title>
<path fill="none" stroke="black" d="M-506.028,264.108C-399.186,157.266 -98.1941,-143.726 15.8895,-257.81"/>
<polygon fill="black" stroke="black" points="13.5837,-260.453 23.1297,-265.05 18.5335,-255.504 13.5837,-260.453"/>
<text text-anchor="middle" x="-262.069" y="-0.65066" font-family="Times New Roman,serif" font-size="14.00">6 &#160;(6) </text>
</g>
<!-- 0_3&#45;&gt;4_0 -->
<g id="edge78" class="edge"><title>0_3&#45;&gt;4_0</title>
<path fill="none" stroke="black" d="M-499.237,268.587C-360.072,164.214 62.2566,-152.532 210.208,-263.496"/>
<polygon fill="black" stroke="black" points="208.201,-266.366 218.301,-269.566 212.401,-260.766 208.201,-266.366"/>
<text text-anchor="middle" x="-127.514" y="13.7457" font-family="Times New Roman,serif" font-size="14.00">9 &#160;(9) </text>
</g>
<!-- 0_3&#45;&gt;5_3 -->
<g id="edge74" class="edge"><title>0_3&#45;&gt;5_3</title>
<path fill="none" stroke="black" d="M-481.265,302.4C-303.512,302.4 200.981,302.4 390.511,302.4"/>
<polygon fill="black" stroke="black" points="390.649,298.9 400.649,302.4 390.649,305.9 390.649,298.9"/>
<text text-anchor="middle" x="-62.3769" y="298.6" font-family="Times New Roman,serif" font-size="14.00">5 &#160;(5) </text>
</g>
</g>
</svg>
