<?xml version="1.0" encoding="UTF-8" standalone="no"?>
<!DOCTYPE svg PUBLIC "-//W3C//DTD SVG 1.1//EN"
 "http://www.w3.org/Graphics/SVG/1.1/DTD/svg11.dtd">
<!-- Generated by graphviz version 2.38.0 (20140413.2041)
 -->
<!-- Title: example8.txt_fields Pages: 1 -->
<svg width="791pt" height="1515pt"
 viewBox="0.00 0.00 790.66 1515.37" xmlns="http://www.w3.org/2000/svg" xmlns:xlink="http://www.w3.org/1999/xlink">
<g id="graph0" class="graph" transform="scale(1 1) rotate(0) translate(268.533 818.163)">
<title>example8.txt_fields</title>
<polygon fill="white" stroke="none" points="-268.533,697.203 -268.533,-818.163 522.132,-818.163 522.132,697.203 -268.533,697.203"/>
<!-- 0_6 -->
<g id="node1" class="node"><title>0_6</title>
<ellipse fill="none" stroke="black" cx="-201.6" cy="241.92" rx="62.8651" ry="48.1667"/>
<text text-anchor="middle" x="-201.6" y="223.12" font-family="Times New Roman,serif" font-size="14.00">0,6</text>
<text text-anchor="middle" x="-201.6" y="238.12" font-family="Times New Roman,serif" font-size="14.00">ic: 7</text>
<text text-anchor="middle" x="-201.6" y="253.12" font-family="Times New Roman,serif" font-size="14.00">free: 1,6;1,5</text>
<text text-anchor="middle" x="-201.6" y="268.12" font-family="Times New Roman,serif" font-size="14.00">swlolw: none</text>
</g>
<!-- 0_6&#45;&gt;0_6 -->
<g id="edge4" class="edge"><title>0_6&#45;&gt;0_6</title>
<path fill="none" stroke="black" d="M-139.162,235.592C-128.255,236.436 -120.667,238.545 -120.667,241.92 -120.667,244.082 -123.781,245.725 -128.887,246.848"/>
<polygon fill="black" stroke="black" points="-128.781,250.366 -139.162,248.248 -129.726,243.43 -128.781,250.366"/>
<text text-anchor="middle" x="-103.667" y="245.62" font-family="Times New Roman,serif" font-size="14.00">2 &#160;(4) </text>
</g>
<!-- 1_4 -->
<g id="node2" class="node"><title>1_4</title>
<ellipse fill="none" stroke="black" cx="0" cy="-161.28" rx="62.8651" ry="48.1667"/>
<text text-anchor="middle" x="0" y="-180.08" font-family="Times New Roman,serif" font-size="14.00">1,4</text>
<text text-anchor="middle" x="0" y="-165.08" font-family="Times New Roman,serif" font-size="14.00">ic: 5</text>
<text text-anchor="middle" x="0" y="-150.08" font-family="Times New Roman,serif" font-size="14.00">free: 1,3;1,2</text>
<text text-anchor="middle" x="0" y="-135.08" font-family="Times New Roman,serif" font-size="14.00">swlolw: none</text>
</g>
<!-- 0_6&#45;&gt;1_4 -->
<g id="edge5" class="edge"><title>0_6&#45;&gt;1_4</title>
<path fill="none" stroke="black" d="M-183.399,195.642C-148.933,120.049 -74.3604,-29.3789 -31.6007,-108.805"/>
<polygon fill="black" stroke="black" points="-34.6414,-110.54 -26.8027,-117.667 -28.4855,-107.207 -34.6414,-110.54"/>
<text text-anchor="middle" x="-90.5" y="54.6186" font-family="Times New Roman,serif" font-size="14.00">3 &#160;(3) </text>
</g>
<!-- 1_1 -->
<g id="node3" class="node"><title>1_1</title>
<ellipse fill="none" stroke="black" cx="0" cy="-766.08" rx="62.8651" ry="48.1667"/>
<text text-anchor="middle" x="0" y="-784.88" font-family="Times New Roman,serif" font-size="14.00">1,1</text>
<text text-anchor="middle" x="0" y="-769.88" font-family="Times New Roman,serif" font-size="14.00">ic: 3</text>
<text text-anchor="middle" x="0" y="-754.88" font-family="Times New Roman,serif" font-size="14.00">free: 1,0;2,0</text>
<text text-anchor="middle" x="0" y="-739.88" font-family="Times New Roman,serif" font-size="14.00">swlolw: none</text>
</g>
<!-- 0_6&#45;&gt;1_1 -->
<g id="edge9" class="edge"><title>0_6&#45;&gt;1_1</title>
<path fill="none" stroke="black" d="M-195.158,194.052C-166.678,27.1263 -55.5791,-528.847 -14.8104,-709.12"/>
<polygon fill="black" stroke="black" points="-18.208,-709.963 -12.5746,-718.936 -11.3828,-708.409 -18.208,-709.963"/>
<text text-anchor="middle" x="-121.984" y="-261.334" font-family="Times New Roman,serif" font-size="14.00">8 &#160;(8) </text>
</g>
<!-- 2_1 -->
<g id="node4" class="node"><title>2_1</title>
<ellipse fill="none" stroke="black" cx="201.6" cy="-766.08" rx="62.8651" ry="48.1667"/>
<text text-anchor="middle" x="201.6" y="-784.88" font-family="Times New Roman,serif" font-size="14.00">2,1</text>
<text text-anchor="middle" x="201.6" y="-769.88" font-family="Times New Roman,serif" font-size="14.00">ic: 11</text>
<text text-anchor="middle" x="201.6" y="-754.88" font-family="Times New Roman,serif" font-size="14.00">free: 2,0;3,0</text>
<text text-anchor="middle" x="201.6" y="-739.88" font-family="Times New Roman,serif" font-size="14.00">swlolw: none</text>
</g>
<!-- 0_6&#45;&gt;2_1 -->
<g id="edge8" class="edge"><title>0_6&#45;&gt;2_1</title>
<path fill="none" stroke="black" d="M-186.166,195.198C-124.917,28.951 99.9002,-533.346 176.201,-711.484"/>
<polygon fill="black" stroke="black" points="172.986,-712.868 180.152,-720.672 179.417,-710.103 172.986,-712.868"/>
<text text-anchor="middle" x="-21.9825" y="-261.943" font-family="Times New Roman,serif" font-size="14.00">7 &#160;(7) </text>
</g>
<!-- 2_6 -->
<g id="node5" class="node"><title>2_6</title>
<ellipse fill="none" stroke="black" cx="201.6" cy="241.92" rx="62.8651" ry="48.1667"/>
<text text-anchor="middle" x="201.6" y="223.12" font-family="Times New Roman,serif" font-size="14.00">2,6</text>
<text text-anchor="middle" x="201.6" y="238.12" font-family="Times New Roman,serif" font-size="14.00">ic: 3</text>
<text text-anchor="middle" x="201.6" y="253.12" font-family="Times New Roman,serif" font-size="14.00">free: 2,5;2,4</text>
<text text-anchor="middle" x="201.6" y="268.12" font-family="Times New Roman,serif" font-size="14.00">swlolw: none</text>
</g>
<!-- 0_6&#45;&gt;2_6 -->
<g id="edge3" class="edge"><title>0_6&#45;&gt;2_6</title>
<path fill="none" stroke="black" d="M-138.6,236.857C-66.2131,234.703 52.3807,234.612 128.695,236.583"/>
<polygon fill="black" stroke="black" points="128.812,233.085 138.711,236.861 128.617,240.082 128.812,233.085"/>
<text text-anchor="middle" x="12.0476" y="232.92" font-family="Times New Roman,serif" font-size="14.00">2 &#160;(4) </text>
</g>
<!-- 0_5 -->
<g id="node6" class="node"><title>0_5</title>
<ellipse fill="none" stroke="black" cx="-201.6" cy="40.32" rx="62.8651" ry="48.1667"/>
<text text-anchor="middle" x="-201.6" y="21.52" font-family="Times New Roman,serif" font-size="14.00">0,5</text>
<text text-anchor="middle" x="-201.6" y="36.52" font-family="Times New Roman,serif" font-size="14.00">ic: 4</text>
<text text-anchor="middle" x="-201.6" y="51.52" font-family="Times New Roman,serif" font-size="14.00">free: 0,4;0,3</text>
<text text-anchor="middle" x="-201.6" y="66.52" font-family="Times New Roman,serif" font-size="14.00">swlolw: none</text>
</g>
<!-- 0_6&#45;&gt;0_5 -->
<g id="edge1" class="edge"><title>0_6&#45;&gt;0_5</title>
<path fill="none" stroke="black" d="M-207.45,193.888C-208.528,165.218 -208.638,128.617 -207.778,98.3384"/>
<polygon fill="black" stroke="black" points="-211.276,98.2127 -207.449,88.3331 -204.279,98.4427 -211.276,98.2127"/>
<text text-anchor="middle" x="-224.614" y="142.313" font-family="Times New Roman,serif" font-size="14.00">1 &#160;(3) </text>
</g>
<!-- 0_7 -->
<g id="node7" class="node"><title>0_7</title>
<ellipse fill="none" stroke="black" cx="-201.6" cy="443.52" rx="62.8651" ry="48.1667"/>
<text text-anchor="middle" x="-201.6" y="424.72" font-family="Times New Roman,serif" font-size="14.00">0,7</text>
<text text-anchor="middle" x="-201.6" y="439.72" font-family="Times New Roman,serif" font-size="14.00">ic: 1</text>
<text text-anchor="middle" x="-201.6" y="454.72" font-family="Times New Roman,serif" font-size="14.00">free: 1,7;1,6</text>
<text text-anchor="middle" x="-201.6" y="469.72" font-family="Times New Roman,serif" font-size="14.00">swlolw: none</text>
</g>
<!-- 0_6&#45;&gt;0_7 -->
<g id="edge2" class="edge"><title>0_6&#45;&gt;0_7</title>
<path fill="none" stroke="black" d="M-195.75,289.952C-194.672,318.622 -194.562,355.223 -195.422,385.502"/>
<polygon fill="black" stroke="black" points="-191.924,385.627 -195.751,395.507 -198.921,385.397 -191.924,385.627"/>
<text text-anchor="middle" x="-178.586" y="333.927" font-family="Times New Roman,serif" font-size="14.00">1 &#160;(3) </text>
</g>
<!-- 0_8 -->
<g id="node8" class="node"><title>0_8</title>
<ellipse fill="none" stroke="black" cx="-201.6" cy="645.12" rx="62.8651" ry="48.1667"/>
<text text-anchor="middle" x="-201.6" y="626.32" font-family="Times New Roman,serif" font-size="14.00">0,8</text>
<text text-anchor="middle" x="-201.6" y="641.32" font-family="Times New Roman,serif" font-size="14.00">ic: 7</text>
<text text-anchor="middle" x="-201.6" y="656.32" font-family="Times New Roman,serif" font-size="14.00">free: 1,8;1,7</text>
<text text-anchor="middle" x="-201.6" y="671.32" font-family="Times New Roman,serif" font-size="14.00">swlolw: none</text>
</g>
<!-- 0_6&#45;&gt;0_8 -->
<g id="edge6" class="edge"><title>0_6&#45;&gt;0_8</title>
<path fill="none" stroke="black" d="M-197.03,290.155C-194.245,364.472 -194.128,506.742 -196.68,586.754"/>
<polygon fill="black" stroke="black" points="-193.196,587.27 -197.04,597.143 -200.192,587.028 -193.196,587.27"/>
<text text-anchor="middle" x="-213.855" y="434.654" font-family="Times New Roman,serif" font-size="14.00">4 &#160;(4) </text>
</g>
<!-- 3_4 -->
<g id="node9" class="node"><title>3_4</title>
<ellipse fill="none" stroke="black" cx="403.2" cy="-161.28" rx="62.8651" ry="48.1667"/>
<text text-anchor="middle" x="403.2" y="-180.08" font-family="Times New Roman,serif" font-size="14.00">3,4</text>
<text text-anchor="middle" x="403.2" y="-165.08" font-family="Times New Roman,serif" font-size="14.00">ic: 5</text>
<text text-anchor="middle" x="403.2" y="-150.08" font-family="Times New Roman,serif" font-size="14.00">free: 3,3;3,2</text>
<text text-anchor="middle" x="403.2" y="-135.08" font-family="Times New Roman,serif" font-size="14.00">swlolw: none</text>
</g>
<!-- 0_6&#45;&gt;3_4 -->
<g id="edge7" class="edge"><title>0_6&#45;&gt;3_4</title>
<path fill="none" stroke="black" d="M-157.259,207.782C-50.0804,131.756 222.978,-50.4191 343.973,-126.78"/>
<polygon fill="black" stroke="black" points="342.438,-129.949 352.766,-132.31 346.165,-124.023 342.438,-129.949"/>
<text text-anchor="middle" x="76.3571" y="36.7014" font-family="Times New Roman,serif" font-size="14.00">5 &#160;(5) </text>
</g>
<!-- 1_4&#45;&gt;0_6 -->
<g id="edge15" class="edge"><title>1_4&#45;&gt;0_6</title>
<path fill="none" stroke="black" d="M-18.2006,-115.002C-52.6674,-39.4085 -127.24,110.019 -169.999,189.445"/>
<polygon fill="black" stroke="black" points="-166.959,191.18 -174.797,198.307 -173.114,187.847 -166.959,191.18"/>
<text text-anchor="middle" x="-77.1" y="33.4214" font-family="Times New Roman,serif" font-size="14.00">3 &#160;(3) </text>
</g>
<!-- 1_4&#45;&gt;1_4 -->
<g id="edge12" class="edge"><title>1_4&#45;&gt;1_4</title>
<path fill="none" stroke="black" d="M62.4382,-167.608C73.3451,-166.764 80.9325,-164.655 80.9325,-161.28 80.9325,-159.118 77.8186,-157.475 72.713,-156.352"/>
<polygon fill="black" stroke="black" points="72.8192,-152.834 62.4382,-154.952 71.874,-159.77 72.8192,-152.834"/>
<text text-anchor="middle" x="97.9325" y="-157.58" font-family="Times New Roman,serif" font-size="14.00">2 &#160;(4) </text>
</g>
<!-- 1_4&#45;&gt;1_1 -->
<g id="edge13" class="edge"><title>1_4&#45;&gt;1_1</title>
<path fill="none" stroke="black" d="M-3.86891,-209.497C-7.60028,-319.49 -7.70721,-588.607 -4.18971,-707.72"/>
<polygon fill="black" stroke="black" points="-7.68711,-707.861 -3.87291,-717.745 -0.690601,-707.64 -7.68711,-707.861"/>
<text text-anchor="middle" x="-21.0293" y="-462.409" font-family="Times New Roman,serif" font-size="14.00">3 &#160;(3) </text>
</g>
<!-- 1_4&#45;&gt;2_1 -->
<g id="edge16" class="edge"><title>1_4&#45;&gt;2_1</title>
<path fill="none" stroke="black" d="M11.7966,-208.685C44.5691,-319.071 135.685,-592.78 178.757,-710.647"/>
<polygon fill="black" stroke="black" points="175.537,-712.033 182.273,-720.211 182.107,-709.618 175.537,-712.033"/>
<text text-anchor="middle" x="78.2768" y="-463.466" font-family="Times New Roman,serif" font-size="14.00">4 &#160;(4) </text>
</g>
<!-- 1_4&#45;&gt;2_6 -->
<g id="edge14" class="edge"><title>1_4&#45;&gt;2_6</title>
<path fill="none" stroke="black" d="M26.9357,-117.423C67.0923,-43.6618 141.548,105.037 179.027,186.122"/>
<polygon fill="black" stroke="black" points="182.417,185.117 183.41,195.665 176.056,188.038 182.417,185.117"/>
<text text-anchor="middle" x="119.982" y="30.5491" font-family="Times New Roman,serif" font-size="14.00">3 &#160;(3) </text>
</g>
<!-- 1_4&#45;&gt;0_5 -->
<g id="edge11" class="edge"><title>1_4&#45;&gt;0_5</title>
<path fill="none" stroke="black" d="M-33.6371,-120.023C-65.6267,-85.6767 -114.088,-37.0215 -150.774,-2.3039"/>
<polygon fill="black" stroke="black" points="-148.732,0.580187 -158.414,4.88274 -153.528,-4.51843 -148.732,0.580187"/>
<text text-anchor="middle" x="-75.2058" y="-64.9636" font-family="Times New Roman,serif" font-size="14.00">2 &#160;(4) </text>
</g>
<!-- 1_4&#45;&gt;0_7 -->
<g id="edge17" class="edge"><title>1_4&#45;&gt;0_7</title>
<path fill="none" stroke="black" d="M-11.7966,-113.875C-44.5691,-3.48862 -135.685,270.22 -178.757,388.087"/>
<polygon fill="black" stroke="black" points="-175.537,389.473 -182.273,397.651 -182.107,387.058 -175.537,389.473"/>
<text text-anchor="middle" x="-112.277" y="133.306" font-family="Times New Roman,serif" font-size="14.00">4 &#160;(4) </text>
</g>
<!-- 1_4&#45;&gt;0_8 -->
<g id="edge18" class="edge"><title>1_4&#45;&gt;0_8</title>
<path fill="none" stroke="black" d="M-8.43533,-113.62C-38.9468,26.5214 -141.419,436.853 -183.558,588.199"/>
<polygon fill="black" stroke="black" points="-180.296,589.531 -186.365,598.215 -187.036,587.642 -180.296,589.531"/>
<text text-anchor="middle" x="-78.9966" y="233.49" font-family="Times New Roman,serif" font-size="14.00">5 &#160;(5) </text>
</g>
<!-- 1_4&#45;&gt;3_4 -->
<g id="edge10" class="edge"><title>1_4&#45;&gt;3_4</title>
<path fill="none" stroke="black" d="M63,-166.343C135.387,-168.497 253.981,-168.588 330.295,-166.617"/>
<polygon fill="black" stroke="black" points="330.412,-170.115 340.311,-166.339 330.217,-163.118 330.412,-170.115"/>
<text text-anchor="middle" x="179.648" y="-170.28" font-family="Times New Roman,serif" font-size="14.00">2 &#160;(4) </text>
</g>
<!-- 1_1&#45;&gt;0_6 -->
<g id="edge25" class="edge"><title>1_1&#45;&gt;0_6</title>
<path fill="none" stroke="black" d="M-6.44197,-718.212C-34.9219,-551.286 -146.021,4.68697 -186.79,184.96"/>
<polygon fill="black" stroke="black" points="-183.392,185.803 -189.025,194.776 -190.217,184.249 -183.392,185.803"/>
<text text-anchor="middle" x="-79.6158" y="-270.426" font-family="Times New Roman,serif" font-size="14.00">8 &#160;(8) </text>
</g>
<!-- 1_1&#45;&gt;1_4 -->
<g id="edge21" class="edge"><title>1_1&#45;&gt;1_4</title>
<path fill="none" stroke="black" d="M3.86891,-717.863C7.60028,-607.87 7.70721,-338.753 4.18971,-219.64"/>
<polygon fill="black" stroke="black" points="7.68711,-219.499 3.87291,-209.615 0.690601,-219.72 7.68711,-219.499"/>
<text text-anchor="middle" x="21.0293" y="-472.551" font-family="Times New Roman,serif" font-size="14.00">3 &#160;(3) </text>
</g>
<!-- 1_1&#45;&gt;1_1 -->
<g id="edge20" class="edge"><title>1_1&#45;&gt;1_1</title>
<path fill="none" stroke="black" d="M62.4382,-772.408C73.3451,-771.564 80.9325,-769.455 80.9325,-766.08 80.9325,-763.918 77.8186,-762.275 72.713,-761.152"/>
<polygon fill="black" stroke="black" points="72.8192,-757.634 62.4382,-759.752 71.874,-764.57 72.8192,-757.634"/>
<text text-anchor="middle" x="97.9325" y="-762.38" font-family="Times New Roman,serif" font-size="14.00">2 &#160;(4) </text>
</g>
<!-- 1_1&#45;&gt;2_1 -->
<g id="edge19" class="edge"><title>1_1&#45;&gt;2_1</title>
<path fill="none" stroke="black" d="M62.4069,-772.375C83.471,-772.898 107.165,-772.97 128.951,-772.59"/>
<polygon fill="black" stroke="black" points="129.217,-776.086 139.141,-772.376 129.069,-769.087 129.217,-776.086"/>
<text text-anchor="middle" x="112.679" y="-776.282" font-family="Times New Roman,serif" font-size="14.00">1 &#160;(3) </text>
</g>
<!-- 1_1&#45;&gt;2_6 -->
<g id="edge24" class="edge"><title>1_1&#45;&gt;2_6</title>
<path fill="none" stroke="black" d="M12.6182,-718.746C50.708,-552.745 161.881,2.69387 193.439,184.082"/>
<polygon fill="black" stroke="black" points="196.893,183.514 195.143,193.963 189.995,184.703 196.893,183.514"/>
<text text-anchor="middle" x="86.0288" y="-271.132" font-family="Times New Roman,serif" font-size="14.00">6 &#160;(6) </text>
</g>
<!-- 1_1&#45;&gt;0_5 -->
<g id="edge22" class="edge"><title>1_1&#45;&gt;0_5</title>
<path fill="none" stroke="black" d="M-8.43533,-718.42C-38.9468,-578.279 -141.419,-167.947 -183.558,-16.6006"/>
<polygon fill="black" stroke="black" points="-180.296,-15.2689 -186.365,-6.58474 -187.036,-17.1583 -180.296,-15.2689"/>
<text text-anchor="middle" x="-112.997" y="-371.31" font-family="Times New Roman,serif" font-size="14.00">5 &#160;(5) </text>
</g>
<!-- 1_1&#45;&gt;0_7 -->
<g id="edge26" class="edge"><title>1_1&#45;&gt;0_7</title>
<path fill="none" stroke="black" d="M-5.16016,-717.822C-31.865,-526.449 -149.3,178.692 -188.849,385.902"/>
<polygon fill="black" stroke="black" points="-185.459,386.806 -190.785,395.965 -192.333,385.484 -185.459,386.806"/>
<text text-anchor="middle" x="-114.005" y="-169.76" font-family="Times New Roman,serif" font-size="14.00">9 &#160;(9) </text>
</g>
<!-- 1_1&#45;&gt;0_8 -->
<g id="edge27" class="edge"><title>1_1&#45;&gt;0_8</title>
<path fill="none" stroke="black" d="M-4.19905,-717.943C-29.2497,-504.527 -152.085,355.895 -190.44,587.477"/>
<polygon fill="black" stroke="black" points="-186.995,588.097 -192.094,597.385 -193.9,586.945 -186.995,588.097"/>
<text text-anchor="middle" x="-121.32" y="-69.033" font-family="Times New Roman,serif" font-size="14.00">10 &#160;(10) </text>
</g>
<!-- 1_1&#45;&gt;3_4 -->
<g id="edge23" class="edge"><title>1_1&#45;&gt;3_4</title>
<path fill="none" stroke="black" d="M32.0782,-724.638C108.141,-617.715 298.196,-332.782 372.676,-214.19"/>
<polygon fill="black" stroke="black" points="375.711,-215.939 378.047,-205.605 369.776,-212.227 375.711,-215.939"/>
<text text-anchor="middle" x="185.377" y="-473.214" font-family="Times New Roman,serif" font-size="14.00">5 &#160;(5) </text>
</g>
<!-- 2_1&#45;&gt;0_6 -->
<g id="edge34" class="edge"><title>2_1&#45;&gt;0_6</title>
<path fill="none" stroke="black" d="M186.166,-719.358C124.917,-553.111 -99.9002,9.18623 -176.201,187.324"/>
<polygon fill="black" stroke="black" points="-172.986,188.708 -180.152,196.512 -179.417,185.943 -172.986,188.708"/>
<text text-anchor="middle" x="21.9825" y="-269.817" font-family="Times New Roman,serif" font-size="14.00">7 &#160;(7) </text>
</g>
<!-- 2_1&#45;&gt;1_4 -->
<g id="edge31" class="edge"><title>2_1&#45;&gt;1_4</title>
<path fill="none" stroke="black" d="M189.803,-718.675C157.031,-608.289 65.9147,-334.58 22.843,-216.713"/>
<polygon fill="black" stroke="black" points="26.0625,-215.327 19.3267,-207.149 19.4925,-217.742 26.0625,-215.327"/>
<text text-anchor="middle" x="123.323" y="-471.494" font-family="Times New Roman,serif" font-size="14.00">4 &#160;(4) </text>
</g>
<!-- 2_1&#45;&gt;1_1 -->
<g id="edge28" class="edge"><title>2_1&#45;&gt;1_1</title>
<path fill="none" stroke="black" d="M139.193,-759.786C118.129,-759.262 94.435,-759.19 72.6485,-759.57"/>
<polygon fill="black" stroke="black" points="72.3831,-756.074 62.4591,-759.784 72.5305,-763.073 72.3831,-756.074"/>
<text text-anchor="middle" x="114.421" y="-748.478" font-family="Times New Roman,serif" font-size="14.00">1 &#160;(3) </text>
</g>
<!-- 2_1&#45;&gt;2_1 -->
<g id="edge29" class="edge"><title>2_1&#45;&gt;2_1</title>
<path fill="none" stroke="black" d="M264.038,-772.408C274.945,-771.564 282.533,-769.455 282.533,-766.08 282.533,-763.918 279.419,-762.275 274.313,-761.152"/>
<polygon fill="black" stroke="black" points="274.419,-757.634 264.038,-759.752 273.474,-764.57 274.419,-757.634"/>
<text text-anchor="middle" x="299.533" y="-762.38" font-family="Times New Roman,serif" font-size="14.00">2 &#160;(4) </text>
</g>
<!-- 2_1&#45;&gt;2_6 -->
<g id="edge32" class="edge"><title>2_1&#45;&gt;2_6</title>
<path fill="none" stroke="black" d="M204.7,-717.802C209.475,-550.802 209.565,2.03932 204.97,183.59"/>
<polygon fill="black" stroke="black" points="208.465,183.836 204.697,193.738 201.467,183.648 208.465,183.836"/>
<text text-anchor="middle" x="187.835" y="-270.906" font-family="Times New Roman,serif" font-size="14.00">5 &#160;(5) </text>
</g>
<!-- 2_1&#45;&gt;0_5 -->
<g id="edge33" class="edge"><title>2_1&#45;&gt;0_5</title>
<path fill="none" stroke="black" d="M182.3,-720.1C117.511,-580.481 -91.6044,-162.013 -170.872,-13.0432"/>
<polygon fill="black" stroke="black" points="-167.879,-11.2174 -175.678,-4.04561 -174.054,-14.5153 -167.879,-11.2174"/>
<text text-anchor="middle" x="-11.286" y="-370.371" font-family="Times New Roman,serif" font-size="14.00">6 &#160;(6) </text>
</g>
<!-- 2_1&#45;&gt;0_7 -->
<g id="edge35" class="edge"><title>2_1&#45;&gt;0_7</title>
<path fill="none" stroke="black" d="M188.824,-718.886C130.806,-528.477 -106.169,182.729 -179.802,387.833"/>
<polygon fill="black" stroke="black" points="-176.603,389.279 -183.287,397.499 -183.188,386.904 -176.603,389.279"/>
<text text-anchor="middle" x="-12.4895" y="-169.326" font-family="Times New Roman,serif" font-size="14.00">8 &#160;(8) </text>
</g>
<!-- 2_1&#45;&gt;0_8 -->
<g id="edge36" class="edge"><title>2_1&#45;&gt;0_8</title>
<path fill="none" stroke="black" d="M190.714,-718.404C135.493,-505.447 -111.206,358.306 -182.431,588.514"/>
<polygon fill="black" stroke="black" points="-179.179,589.846 -185.49,598.357 -185.864,587.769 -179.179,589.846"/>
<text text-anchor="middle" x="-12.8584" y="-68.7451" font-family="Times New Roman,serif" font-size="14.00">9 &#160;(9) </text>
</g>
<!-- 2_1&#45;&gt;3_4 -->
<g id="edge30" class="edge"><title>2_1&#45;&gt;3_4</title>
<path fill="none" stroke="black" d="M221.065,-719.838C261.399,-610.796 352.472,-337.867 388.442,-218.579"/>
<polygon fill="black" stroke="black" points="391.827,-219.474 391.342,-208.89 385.121,-217.466 391.827,-219.474"/>
<text text-anchor="middle" x="287.753" y="-473.009" font-family="Times New Roman,serif" font-size="14.00">4 &#160;(4) </text>
</g>
<!-- 2_6&#45;&gt;0_6 -->
<g id="edge37" class="edge"><title>2_6&#45;&gt;0_6</title>
<path fill="none" stroke="black" d="M138.6,246.982C66.2131,249.137 -52.3807,249.228 -128.695,247.257"/>
<polygon fill="black" stroke="black" points="-128.812,250.755 -138.711,246.979 -128.617,243.758 -128.812,250.755"/>
<text text-anchor="middle" x="-12.0476" y="258.32" font-family="Times New Roman,serif" font-size="14.00">2 &#160;(4) </text>
</g>
<!-- 2_6&#45;&gt;1_4 -->
<g id="edge39" class="edge"><title>2_6&#45;&gt;1_4</title>
<path fill="none" stroke="black" d="M174.664,198.063C134.508,124.302 60.052,-24.3968 22.5725,-105.482"/>
<polygon fill="black" stroke="black" points="19.1825,-104.477 18.19,-115.025 25.5438,-107.398 19.1825,-104.477"/>
<text text-anchor="middle" x="81.6184" y="57.4909" font-family="Times New Roman,serif" font-size="14.00">3 &#160;(3) </text>
</g>
<!-- 2_6&#45;&gt;1_1 -->
<g id="edge45" class="edge"><title>2_6&#45;&gt;1_1</title>
<path fill="none" stroke="black" d="M188.982,194.586C150.892,28.5853 39.719,-526.854 8.1606,-708.242"/>
<polygon fill="black" stroke="black" points="4.70694,-707.674 6.45712,-718.123 11.6052,-708.863 4.70694,-707.674"/>
<text text-anchor="middle" x="81.5712" y="-245.628" font-family="Times New Roman,serif" font-size="14.00">6 &#160;(6) </text>
</g>
<!-- 2_6&#45;&gt;2_1 -->
<g id="edge44" class="edge"><title>2_6&#45;&gt;2_1</title>
<path fill="none" stroke="black" d="M198.5,193.642C193.725,26.6424 193.635,-526.199 198.23,-707.75"/>
<polygon fill="black" stroke="black" points="194.735,-707.996 198.503,-717.898 201.733,-707.808 194.735,-707.996"/>
<text text-anchor="middle" x="181.365" y="-245.854" font-family="Times New Roman,serif" font-size="14.00">5 &#160;(5) </text>
</g>
<!-- 2_6&#45;&gt;2_6 -->
<g id="edge38" class="edge"><title>2_6&#45;&gt;2_6</title>
<path fill="none" stroke="black" d="M264.038,235.592C274.945,236.436 282.533,238.545 282.533,241.92 282.533,244.082 279.419,245.725 274.313,246.848"/>
<polygon fill="black" stroke="black" points="274.419,250.366 264.038,248.248 273.474,243.43 274.419,250.366"/>
<text text-anchor="middle" x="299.533" y="245.62" font-family="Times New Roman,serif" font-size="14.00">2 &#160;(4) </text>
</g>
<!-- 2_6&#45;&gt;0_5 -->
<g id="edge41" class="edge"><title>2_6&#45;&gt;0_5</title>
<path fill="none" stroke="black" d="M145.929,219.407C69.9536,184.294 -65.5542,116.628 -143.017,75.1975"/>
<polygon fill="black" stroke="black" points="-145.017,78.0962 -152.168,70.279 -141.703,71.9304 -145.017,78.0962"/>
<text text-anchor="middle" x="-15.544" y="158.502" font-family="Times New Roman,serif" font-size="14.00">3 &#160;(3) </text>
</g>
<!-- 2_6&#45;&gt;0_7 -->
<g id="edge42" class="edge"><title>2_6&#45;&gt;0_7</title>
<path fill="none" stroke="black" d="M152.221,271.85C79.745,311.014 -55.5097,378.783 -136.175,416.473"/>
<polygon fill="black" stroke="black" points="-135.19,419.875 -145.734,420.916 -138.141,413.527 -135.19,419.875"/>
<text text-anchor="middle" x="-8.97674" y="355.362" font-family="Times New Roman,serif" font-size="14.00">3 &#160;(3) </text>
</g>
<!-- 2_6&#45;&gt;0_8 -->
<g id="edge43" class="edge"><title>2_6&#45;&gt;0_8</title>
<path fill="none" stroke="black" d="M166.95,282.41C95.3717,358.744 -68.8116,523.106 -151.763,601.66"/>
<polygon fill="black" stroke="black" points="-149.855,604.672 -159.531,608.988 -154.659,599.58 -149.855,604.672"/>
<text text-anchor="middle" x="-9.40636" y="438.235" font-family="Times New Roman,serif" font-size="14.00">4 &#160;(4) </text>
</g>
<!-- 2_6&#45;&gt;3_4 -->
<g id="edge40" class="edge"><title>2_6&#45;&gt;3_4</title>
<path fill="none" stroke="black" d="M219.801,195.642C254.267,120.049 328.84,-29.3789 371.599,-108.805"/>
<polygon fill="black" stroke="black" points="368.559,-110.54 376.397,-117.667 374.714,-107.207 368.559,-110.54"/>
<text text-anchor="middle" x="278.7" y="39.6186" font-family="Times New Roman,serif" font-size="14.00">3 &#160;(3) </text>
</g>
<!-- 0_5&#45;&gt;0_6 -->
<g id="edge46" class="edge"><title>0_5&#45;&gt;0_6</title>
<path fill="none" stroke="black" d="M-195.75,88.3521C-194.672,117.022 -194.562,153.623 -195.422,183.902"/>
<polygon fill="black" stroke="black" points="-191.924,184.027 -195.751,193.907 -198.921,183.797 -191.924,184.027"/>
<text text-anchor="middle" x="-178.586" y="132.327" font-family="Times New Roman,serif" font-size="14.00">1 &#160;(3) </text>
</g>
<!-- 0_5&#45;&gt;1_4 -->
<g id="edge47" class="edge"><title>0_5&#45;&gt;1_4</title>
<path fill="none" stroke="black" d="M-167.963,-0.936743C-135.973,-35.2833 -87.5121,-83.9385 -50.8256,-118.656"/>
<polygon fill="black" stroke="black" points="-52.8679,-121.54 -43.186,-125.843 -48.0716,-116.442 -52.8679,-121.54"/>
<text text-anchor="middle" x="-126.394" y="-48.5964" font-family="Times New Roman,serif" font-size="14.00">2 &#160;(4) </text>
</g>
<!-- 0_5&#45;&gt;1_1 -->
<g id="edge52" class="edge"><title>0_5&#45;&gt;1_1</title>
<path fill="none" stroke="black" d="M-193.165,-7.33976C-162.653,-147.481 -60.1812,-557.813 -18.0421,-709.159"/>
<polygon fill="black" stroke="black" points="-21.3038,-710.491 -15.2345,-719.175 -14.5636,-708.602 -21.3038,-710.491"/>
<text text-anchor="middle" x="-122.603" y="-347.05" font-family="Times New Roman,serif" font-size="14.00">5 &#160;(5) </text>
</g>
<!-- 0_5&#45;&gt;2_1 -->
<g id="edge54" class="edge"><title>0_5&#45;&gt;2_1</title>
<path fill="none" stroke="black" d="M-182.3,-5.66035C-117.511,-145.279 91.6044,-563.748 170.872,-712.717"/>
<polygon fill="black" stroke="black" points="167.879,-714.543 175.678,-721.714 174.054,-711.245 167.879,-714.543"/>
<text text-anchor="middle" x="-22.714" y="-347.989" font-family="Times New Roman,serif" font-size="14.00">6 &#160;(6) </text>
</g>
<!-- 0_5&#45;&gt;2_6 -->
<g id="edge49" class="edge"><title>0_5&#45;&gt;2_6</title>
<path fill="none" stroke="black" d="M-145.929,62.8335C-69.9536,97.9458 65.5542,165.612 143.017,207.042"/>
<polygon fill="black" stroke="black" points="145.017,204.144 152.168,211.961 141.703,210.31 145.017,204.144"/>
<text text-anchor="middle" x="-18.456" y="131.138" font-family="Times New Roman,serif" font-size="14.00">3 &#160;(3) </text>
</g>
<!-- 0_5&#45;&gt;0_5 -->
<g id="edge48" class="edge"><title>0_5&#45;&gt;0_5</title>
<path fill="none" stroke="black" d="M-139.162,33.9919C-128.255,34.8356 -120.667,36.945 -120.667,40.32 -120.667,42.4821 -123.781,44.1248 -128.887,45.2481"/>
<polygon fill="black" stroke="black" points="-128.781,48.7659 -139.162,46.6481 -129.726,41.83 -128.781,48.7659"/>
<text text-anchor="middle" x="-103.667" y="44.02" font-family="Times New Roman,serif" font-size="14.00">2 &#160;(4) </text>
</g>
<!-- 0_5&#45;&gt;0_7 -->
<g id="edge51" class="edge"><title>0_5&#45;&gt;0_7</title>
<path fill="none" stroke="black" d="M-197.03,88.5549C-194.245,162.872 -194.128,305.142 -196.68,385.154"/>
<polygon fill="black" stroke="black" points="-193.196,385.67 -197.04,395.543 -200.192,385.428 -193.196,385.67"/>
<text text-anchor="middle" x="-213.855" y="233.054" font-family="Times New Roman,serif" font-size="14.00">4 &#160;(4) </text>
</g>
<!-- 0_5&#45;&gt;0_8 -->
<g id="edge53" class="edge"><title>0_5&#45;&gt;0_8</title>
<path fill="none" stroke="black" d="M-197.731,88.5368C-194,198.53 -193.893,467.647 -197.41,586.76"/>
<polygon fill="black" stroke="black" points="-193.913,586.901 -197.727,596.785 -200.909,586.68 -193.913,586.901"/>
<text text-anchor="middle" x="-214.571" y="333.849" font-family="Times New Roman,serif" font-size="14.00">5 &#160;(5) </text>
</g>
<!-- 0_5&#45;&gt;3_4 -->
<g id="edge50" class="edge"><title>0_5&#45;&gt;3_4</title>
<path fill="none" stroke="black" d="M-146.013,17.4206C-35.3869,-22.9977 212.083,-105.601 333.425,-142.731"/>
<polygon fill="black" stroke="black" points="332.768,-146.189 343.354,-145.753 334.806,-139.493 332.768,-146.189"/>
<text text-anchor="middle" x="76.706" y="-66.4551" font-family="Times New Roman,serif" font-size="14.00">4 &#160;(4) </text>
</g>
<!-- 0_7&#45;&gt;0_6 -->
<g id="edge55" class="edge"><title>0_7&#45;&gt;0_6</title>
<path fill="none" stroke="black" d="M-207.45,395.488C-208.528,366.818 -208.638,330.217 -207.778,299.938"/>
<polygon fill="black" stroke="black" points="-211.276,299.813 -207.449,289.933 -204.279,300.043 -211.276,299.813"/>
<text text-anchor="middle" x="-224.614" y="358.913" font-family="Times New Roman,serif" font-size="14.00">1 &#160;(3) </text>
</g>
<!-- 0_7&#45;&gt;1_4 -->
<g id="edge59" class="edge"><title>0_7&#45;&gt;1_4</title>
<path fill="none" stroke="black" d="M-189.803,396.115C-157.031,285.729 -65.9147,12.0197 -22.843,-105.847"/>
<polygon fill="black" stroke="black" points="-26.0625,-107.233 -19.3267,-115.411 -19.4925,-104.818 -26.0625,-107.233"/>
<text text-anchor="middle" x="-123.323" y="156.334" font-family="Times New Roman,serif" font-size="14.00">4 &#160;(4) </text>
</g>
<!-- 0_7&#45;&gt;1_1 -->
<g id="edge63" class="edge"><title>0_7&#45;&gt;1_1</title>
<path fill="none" stroke="black" d="M-196.44,395.262C-169.735,203.889 -52.2997,-501.252 -12.7505,-708.462"/>
<polygon fill="black" stroke="black" points="-16.1408,-709.366 -10.8149,-718.525 -9.26674,-708.044 -16.1408,-709.366"/>
<text text-anchor="middle" x="-121.595" y="-145.4" font-family="Times New Roman,serif" font-size="14.00">9 &#160;(9) </text>
</g>
<!-- 0_7&#45;&gt;2_1 -->
<g id="edge62" class="edge"><title>0_7&#45;&gt;2_1</title>
<path fill="none" stroke="black" d="M-188.824,396.326C-130.806,205.917 106.169,-505.289 179.802,-710.394"/>
<polygon fill="black" stroke="black" points="176.603,-711.839 183.287,-720.059 183.188,-709.464 176.603,-711.839"/>
<text text-anchor="middle" x="12.4895" y="-145.834" font-family="Times New Roman,serif" font-size="14.00">8 &#160;(8) </text>
</g>
<!-- 0_7&#45;&gt;2_6 -->
<g id="edge58" class="edge"><title>0_7&#45;&gt;2_6</title>
<path fill="none" stroke="black" d="M-152.221,413.59C-79.745,374.426 55.5097,306.657 136.175,268.967"/>
<polygon fill="black" stroke="black" points="135.19,265.565 145.734,264.524 138.141,271.913 135.19,265.565"/>
<text text-anchor="middle" x="-25.0233" y="337.478" font-family="Times New Roman,serif" font-size="14.00">3 &#160;(3) </text>
</g>
<!-- 0_7&#45;&gt;0_5 -->
<g id="edge60" class="edge"><title>0_7&#45;&gt;0_5</title>
<path fill="none" stroke="black" d="M-206.17,395.285C-208.955,320.968 -209.072,178.698 -206.52,98.6859"/>
<polygon fill="black" stroke="black" points="-210.004,98.1698 -206.16,88.297 -203.008,98.4122 -210.004,98.1698"/>
<text text-anchor="middle" x="-223.345" y="258.186" font-family="Times New Roman,serif" font-size="14.00">4 &#160;(4) </text>
</g>
<!-- 0_7&#45;&gt;0_7 -->
<g id="edge57" class="edge"><title>0_7&#45;&gt;0_7</title>
<path fill="none" stroke="black" d="M-139.162,437.192C-128.255,438.036 -120.667,440.145 -120.667,443.52 -120.667,445.682 -123.781,447.325 -128.887,448.448"/>
<polygon fill="black" stroke="black" points="-128.781,451.966 -139.162,449.848 -129.726,445.03 -128.781,451.966"/>
<text text-anchor="middle" x="-103.667" y="447.22" font-family="Times New Roman,serif" font-size="14.00">2 &#160;(4) </text>
</g>
<!-- 0_7&#45;&gt;0_8 -->
<g id="edge56" class="edge"><title>0_7&#45;&gt;0_8</title>
<path fill="none" stroke="black" d="M-195.75,491.552C-194.672,520.222 -194.562,556.823 -195.422,587.102"/>
<polygon fill="black" stroke="black" points="-191.924,587.227 -195.751,597.107 -198.921,586.997 -191.924,587.227"/>
<text text-anchor="middle" x="-212.586" y="535.527" font-family="Times New Roman,serif" font-size="14.00">1 &#160;(3) </text>
</g>
<!-- 0_7&#45;&gt;3_4 -->
<g id="edge61" class="edge"><title>0_7&#45;&gt;3_4</title>
<path fill="none" stroke="black" d="M-166.232,403.222C-63.3317,294.321 235.788,-4.94856 354.179,-117.639"/>
<polygon fill="black" stroke="black" points="352.049,-120.443 361.712,-124.788 356.868,-115.365 352.049,-120.443"/>
<text text-anchor="middle" x="76.9734" y="138.991" font-family="Times New Roman,serif" font-size="14.00">6 &#160;(6) </text>
</g>
<!-- 0_8&#45;&gt;0_6 -->
<g id="edge66" class="edge"><title>0_8&#45;&gt;0_6</title>
<path fill="none" stroke="black" d="M-206.17,596.885C-208.955,522.568 -209.072,380.298 -206.52,300.286"/>
<polygon fill="black" stroke="black" points="-210.004,299.77 -206.16,289.897 -203.008,300.012 -210.004,299.77"/>
<text text-anchor="middle" x="-223.345" y="459.786" font-family="Times New Roman,serif" font-size="14.00">4 &#160;(4) </text>
</g>
<!-- 0_8&#45;&gt;1_4 -->
<g id="edge68" class="edge"><title>0_8&#45;&gt;1_4</title>
<path fill="none" stroke="black" d="M-193.165,597.46C-162.653,457.319 -60.1812,46.9875 -18.0421,-104.359"/>
<polygon fill="black" stroke="black" points="-21.3038,-105.691 -15.2345,-114.375 -14.5636,-103.802 -21.3038,-105.691"/>
<text text-anchor="middle" x="-88.6034" y="257.75" font-family="Times New Roman,serif" font-size="14.00">5 &#160;(5) </text>
</g>
<!-- 0_8&#45;&gt;1_1 -->
<g id="edge72" class="edge"><title>0_8&#45;&gt;1_1</title>
<path fill="none" stroke="black" d="M-197.401,596.983C-172.35,383.567 -49.5154,-476.855 -11.1599,-708.437"/>
<polygon fill="black" stroke="black" points="-14.6049,-709.057 -9.50589,-718.345 -7.70046,-707.905 -14.6049,-709.057"/>
<text text-anchor="middle" x="-80.2804" y="-44.527" font-family="Times New Roman,serif" font-size="14.00">10 &#160;(10) </text>
</g>
<!-- 0_8&#45;&gt;2_1 -->
<g id="edge71" class="edge"><title>0_8&#45;&gt;2_1</title>
<path fill="none" stroke="black" d="M-190.714,597.444C-135.493,384.487 111.206,-479.266 182.431,-709.474"/>
<polygon fill="black" stroke="black" points="179.179,-710.806 185.49,-719.317 185.864,-708.729 179.179,-710.806"/>
<text text-anchor="middle" x="-21.1416" y="-44.815" font-family="Times New Roman,serif" font-size="14.00">9 &#160;(9) </text>
</g>
<!-- 0_8&#45;&gt;2_6 -->
<g id="edge67" class="edge"><title>0_8&#45;&gt;2_6</title>
<path fill="none" stroke="black" d="M-166.95,604.63C-95.3717,528.296 68.8116,363.934 151.763,285.38"/>
<polygon fill="black" stroke="black" points="149.855,282.368 159.531,278.052 154.659,287.46 149.855,282.368"/>
<text text-anchor="middle" x="-24.5936" y="456.205" font-family="Times New Roman,serif" font-size="14.00">4 &#160;(4) </text>
</g>
<!-- 0_8&#45;&gt;0_5 -->
<g id="edge69" class="edge"><title>0_8&#45;&gt;0_5</title>
<path fill="none" stroke="black" d="M-205.469,596.903C-209.2,486.91 -209.307,217.793 -205.79,98.6796"/>
<polygon fill="black" stroke="black" points="-209.287,98.5391 -205.473,88.6546 -202.291,98.7602 -209.287,98.5391"/>
<text text-anchor="middle" x="-188.629" y="358.991" font-family="Times New Roman,serif" font-size="14.00">5 &#160;(5) </text>
</g>
<!-- 0_8&#45;&gt;0_7 -->
<g id="edge64" class="edge"><title>0_8&#45;&gt;0_7</title>
<path fill="none" stroke="black" d="M-207.45,597.088C-208.528,568.418 -208.638,531.817 -207.778,501.538"/>
<polygon fill="black" stroke="black" points="-211.276,501.413 -207.449,491.533 -204.279,501.643 -211.276,501.413"/>
<text text-anchor="middle" x="-224.614" y="560.513" font-family="Times New Roman,serif" font-size="14.00">1 &#160;(3) </text>
</g>
<!-- 0_8&#45;&gt;0_8 -->
<g id="edge65" class="edge"><title>0_8&#45;&gt;0_8</title>
<path fill="none" stroke="black" d="M-139.162,638.792C-128.255,639.636 -120.667,641.745 -120.667,645.12 -120.667,647.282 -123.781,648.925 -128.887,650.048"/>
<polygon fill="black" stroke="black" points="-128.781,653.566 -139.162,651.448 -129.726,646.63 -128.781,653.566"/>
<text text-anchor="middle" x="-103.667" y="648.82" font-family="Times New Roman,serif" font-size="14.00">2 &#160;(4) </text>
</g>
<!-- 0_8&#45;&gt;3_4 -->
<g id="edge70" class="edge"><title>0_8&#45;&gt;3_4</title>
<path fill="none" stroke="black" d="M-173.326,602.11C-75.5747,464.029 247.79,32.707 362.483,-112.808"/>
<polygon fill="black" stroke="black" points="359.814,-115.076 368.761,-120.75 365.306,-110.735 359.814,-115.076"/>
<text text-anchor="middle" x="111.579" y="255.851" font-family="Times New Roman,serif" font-size="14.00">7 &#160;(7) </text>
</g>
<!-- 3_4&#45;&gt;0_6 -->
<g id="edge79" class="edge"><title>3_4&#45;&gt;0_6</title>
<path fill="none" stroke="black" d="M358.859,-127.142C251.68,-51.1158 -21.3783,131.059 -142.373,207.42"/>
<polygon fill="black" stroke="black" points="-140.838,210.589 -151.166,212.95 -144.565,204.663 -140.838,210.589"/>
<text text-anchor="middle" x="125.243" y="51.3386" font-family="Times New Roman,serif" font-size="14.00">5 &#160;(5) </text>
</g>
<!-- 3_4&#45;&gt;1_4 -->
<g id="edge73" class="edge"><title>3_4&#45;&gt;1_4</title>
<path fill="none" stroke="black" d="M340.2,-156.218C267.813,-154.063 149.219,-153.972 72.9047,-155.943"/>
<polygon fill="black" stroke="black" points="72.7883,-152.445 62.8893,-156.221 72.9826,-159.442 72.7883,-152.445"/>
<text text-anchor="middle" x="189.552" y="-144.88" font-family="Times New Roman,serif" font-size="14.00">2 &#160;(4) </text>
</g>
<!-- 3_4&#45;&gt;1_1 -->
<g id="edge78" class="edge"><title>3_4&#45;&gt;1_1</title>
<path fill="none" stroke="black" d="M371.122,-202.722C295.059,-309.645 105.004,-594.578 30.5236,-713.17"/>
<polygon fill="black" stroke="black" points="27.4891,-711.421 25.1527,-721.755 33.4235,-715.133 27.4891,-711.421"/>
<text text-anchor="middle" x="183.823" y="-446.746" font-family="Times New Roman,serif" font-size="14.00">5 &#160;(5) </text>
</g>
<!-- 3_4&#45;&gt;2_1 -->
<g id="edge76" class="edge"><title>3_4&#45;&gt;2_1</title>
<path fill="none" stroke="black" d="M383.735,-207.522C343.401,-316.564 252.328,-589.493 216.358,-708.781"/>
<polygon fill="black" stroke="black" points="212.973,-707.886 213.458,-718.47 219.679,-709.894 212.973,-707.886"/>
<text text-anchor="middle" x="283.047" y="-446.951" font-family="Times New Roman,serif" font-size="14.00">4 &#160;(4) </text>
</g>
<!-- 3_4&#45;&gt;2_6 -->
<g id="edge75" class="edge"><title>3_4&#45;&gt;2_6</title>
<path fill="none" stroke="black" d="M384.999,-115.002C350.533,-39.4085 275.96,110.019 233.201,189.445"/>
<polygon fill="black" stroke="black" points="236.241,191.18 228.403,198.307 230.086,187.847 236.241,191.18"/>
<text text-anchor="middle" x="326.1" y="33.4214" font-family="Times New Roman,serif" font-size="14.00">3 &#160;(3) </text>
</g>
<!-- 3_4&#45;&gt;0_5 -->
<g id="edge77" class="edge"><title>3_4&#45;&gt;0_5</title>
<path fill="none" stroke="black" d="M347.613,-138.381C236.987,-97.9623 -10.4827,-15.3595 -131.825,21.7709"/>
<polygon fill="black" stroke="black" points="-131.168,25.2293 -141.754,24.7926 -133.206,18.5326 -131.168,25.2293"/>
<text text-anchor="middle" x="90.894" y="-47.1049" font-family="Times New Roman,serif" font-size="14.00">4 &#160;(4) </text>
</g>
<!-- 3_4&#45;&gt;0_7 -->
<g id="edge80" class="edge"><title>3_4&#45;&gt;0_7</title>
<path fill="none" stroke="black" d="M367.832,-120.982C264.932,-12.0808 -34.1881,287.189 -152.579,399.879"/>
<polygon fill="black" stroke="black" points="-150.449,402.683 -160.112,407.028 -155.268,397.605 -150.449,402.683"/>
<text text-anchor="middle" x="124.627" y="135.649" font-family="Times New Roman,serif" font-size="14.00">6 &#160;(6) </text>
</g>
<!-- 3_4&#45;&gt;0_8 -->
<g id="edge81" class="edge"><title>3_4&#45;&gt;0_8</title>
<path fill="none" stroke="black" d="M374.926,-118.27C277.175,19.8108 -46.1904,451.133 -160.883,596.648"/>
<polygon fill="black" stroke="black" points="-158.214,598.916 -167.161,604.59 -163.706,594.575 -158.214,598.916"/>
<text text-anchor="middle" x="90.0215" y="235.389" font-family="Times New Roman,serif" font-size="14.00">7 &#160;(7) </text>
</g>
<!-- 3_4&#45;&gt;3_4 -->
<g id="edge74" class="edge"><title>3_4&#45;&gt;3_4</title>
<path fill="none" stroke="black" d="M465.638,-167.608C476.545,-166.764 484.132,-164.655 484.132,-161.28 484.132,-159.118 481.019,-157.475 475.913,-156.352"/>
<polygon fill="black" stroke="black" points="476.019,-152.834 465.638,-154.952 475.074,-159.77 476.019,-152.834"/>
<text text-anchor="middle" x="501.132" y="-157.58" font-family="Times New Roman,serif" font-size="14.00">2 &#160;(4) </text>
</g>
<!-- 1_6 -->
<g id="node10" class="node"><title>1_6</title>
<ellipse fill="green" stroke="black" cx="0" cy="241.92" rx="62.8651" ry="48.1667"/>
<text text-anchor="middle" x="0" y="223.12" font-family="Times New Roman,serif" font-size="14.00">1,6</text>
<text text-anchor="middle" x="0" y="238.12" font-family="Times New Roman,serif" font-size="14.00">ic: 3</text>
<text text-anchor="middle" x="0" y="253.12" font-family="Times New Roman,serif" font-size="14.00">free: 1,5;2,5</text>
<text text-anchor="middle" x="0" y="268.12" font-family="Times New Roman,serif" font-size="14.00">swlolw: none</text>
</g>
<!-- 1_6&#45;&gt;0_6 -->
<g id="edge82" class="edge"><title>1_6&#45;&gt;0_6</title>
<path fill="none" stroke="black" d="M-62.9582,241.92C-83.7032,241.92 -106.95,241.92 -128.392,241.92"/>
<polygon fill="black" stroke="black" points="-128.426,245.42 -138.426,241.92 -128.426,238.42 -128.426,245.42"/>
<text text-anchor="middle" x="-112.675" y="238.12" font-family="Times New Roman,serif" font-size="14.00">1 &#160;(3) </text>
</g>
<!-- 1_6&#45;&gt;1_4 -->
<g id="edge84" class="edge"><title>1_6&#45;&gt;1_4</title>
<path fill="none" stroke="black" d="M0,193.685C0,119.468 0,-22.5187 0,-102.591"/>
<polygon fill="black" stroke="black" points="-3.4999,-102.99 0,-112.99 3.5001,-102.99 -3.4999,-102.99"/>
<text text-anchor="middle" x="-17" y="41.7472" font-family="Times New Roman,serif" font-size="14.00">2 &#160;(4) </text>
</g>
<!-- 1_6&#45;&gt;1_1 -->
<g id="edge90" class="edge"><title>1_6&#45;&gt;1_1</title>
<path fill="none" stroke="black" d="M0,193.642C0,26.6424 0,-526.199 0,-707.75"/>
<polygon fill="black" stroke="black" points="-3.4999,-707.898 0,-717.898 3.5001,-707.898 -3.4999,-707.898"/>
<text text-anchor="middle" x="-17" y="-245.854" font-family="Times New Roman,serif" font-size="14.00">7 &#160;(7) </text>
</g>
<!-- 1_6&#45;&gt;2_1 -->
<g id="edge89" class="edge"><title>1_6&#45;&gt;2_1</title>
<path fill="none" stroke="black" d="M9.52047,194.318C42.8033,27.9033 153.89,-527.531 190.089,-708.524"/>
<polygon fill="black" stroke="black" points="186.667,-709.263 192.061,-718.383 193.531,-707.89 186.667,-709.263"/>
<text text-anchor="middle" x="116.805" y="-245.903" font-family="Times New Roman,serif" font-size="14.00">6 &#160;(6) </text>
</g>
<!-- 1_6&#45;&gt;2_6 -->
<g id="edge83" class="edge"><title>1_6&#45;&gt;2_6</title>
<path fill="none" stroke="black" d="M62.9582,241.92C83.7032,241.92 106.95,241.92 128.392,241.92"/>
<polygon fill="black" stroke="black" points="128.426,238.42 138.426,241.92 128.426,245.42 128.426,238.42"/>
<text text-anchor="middle" x="78.6749" y="253.12" font-family="Times New Roman,serif" font-size="14.00">1 &#160;(3) </text>
</g>
<!-- 1_6&#45;&gt;0_5 -->
<g id="edge85" class="edge"><title>1_6&#45;&gt;0_5</title>
<path fill="none" stroke="black" d="M-38.3939,203.526C-71.8841,170.036 -120.526,121.394 -155.991,85.9286"/>
<polygon fill="black" stroke="black" points="-158.753,88.117 -163.349,78.571 -153.803,83.1672 -158.753,88.117"/>
<text text-anchor="middle" x="-80.1927" y="155.927" font-family="Times New Roman,serif" font-size="14.00">2 &#160;(4) </text>
</g>
<!-- 1_6&#45;&gt;0_7 -->
<g id="edge86" class="edge"><title>1_6&#45;&gt;0_7</title>
<path fill="none" stroke="black" d="M-38.3939,280.314C-71.8841,313.804 -120.526,362.446 -155.991,397.911"/>
<polygon fill="black" stroke="black" points="-153.803,400.673 -163.349,405.269 -158.753,395.723 -153.803,400.673"/>
<text text-anchor="middle" x="-114.193" y="335.313" font-family="Times New Roman,serif" font-size="14.00">2 &#160;(4) </text>
</g>
<!-- 1_6&#45;&gt;0_8 -->
<g id="edge87" class="edge"><title>1_6&#45;&gt;0_8</title>
<path fill="none" stroke="black" d="M-22.5393,286.999C-59.8871,361.694 -134.455,510.831 -174.571,591.063"/>
<polygon fill="black" stroke="black" points="-171.449,592.645 -179.052,600.024 -177.71,589.514 -171.449,592.645"/>
<text text-anchor="middle" x="-81.5553" y="435.231" font-family="Times New Roman,serif" font-size="14.00">3 &#160;(3) </text>
</g>
<!-- 1_6&#45;&gt;3_4 -->
<g id="edge88" class="edge"><title>1_6&#45;&gt;3_4</title>
<path fill="none" stroke="black" d="M38.2956,203.624C112.849,129.071 277.18,-35.2597 357.373,-115.453"/>
<polygon fill="black" stroke="black" points="355.32,-118.349 364.866,-122.946 360.269,-113.4 355.32,-118.349"/>
<text text-anchor="middle" x="180.835" y="40.2855" font-family="Times New Roman,serif" font-size="14.00">4 &#160;(4) </text>
</g>
</g>
</svg>
