<?xml version="1.0" encoding="UTF-8" standalone="no"?>
<!DOCTYPE svg PUBLIC "-//W3C//DTD SVG 1.1//EN"
 "http://www.w3.org/Graphics/SVG/1.1/DTD/svg11.dtd">
<!-- Generated by graphviz version 2.38.0 (20140413.2041)
 -->
<!-- Title: sonderfall_abb13.txt_fields Pages: 1 -->
<svg width="739pt" height="709pt"
 viewBox="0.00 0.00 738.67 708.97" xmlns="http://www.w3.org/2000/svg" xmlns:xlink="http://www.w3.org/1999/xlink">
<g id="graph0" class="graph" transform="scale(1 1) rotate(0) translate(358.133 320.883)">
<title>sonderfall_abb13.txt_fields</title>
<polygon fill="white" stroke="none" points="-358.133,388.083 -358.133,-320.883 380.533,-320.883 380.533,388.083 -358.133,388.083"/>
<!-- 1_0 -->
<g id="node1" class="node"><title>1_0</title>
<ellipse fill="none" stroke="black" cx="-89.6" cy="-268.8" rx="62.8651" ry="48.1667"/>
<text text-anchor="middle" x="-89.6" y="-287.6" font-family="Times New Roman,serif" font-size="14.00">1,0</text>
<text text-anchor="middle" x="-89.6" y="-272.6" font-family="Times New Roman,serif" font-size="14.00">ic: 0</text>
<text text-anchor="middle" x="-89.6" y="-257.6" font-family="Times New Roman,serif" font-size="14.00">free: 0,0;0,1</text>
<text text-anchor="middle" x="-89.6" y="-242.6" font-family="Times New Roman,serif" font-size="14.00">swlolw: none</text>
</g>
<!-- 0_2 -->
<g id="node2" class="node"><title>0_2</title>
<ellipse fill="none" stroke="black" cx="-291.2" cy="134.4" rx="62.8651" ry="48.1667"/>
<text text-anchor="middle" x="-291.2" y="115.6" font-family="Times New Roman,serif" font-size="14.00">0,2</text>
<text text-anchor="middle" x="-291.2" y="130.6" font-family="Times New Roman,serif" font-size="14.00">ic: 0</text>
<text text-anchor="middle" x="-291.2" y="145.6" font-family="Times New Roman,serif" font-size="14.00">free: 0,1;0,0</text>
<text text-anchor="middle" x="-291.2" y="160.6" font-family="Times New Roman,serif" font-size="14.00">swlolw: none</text>
</g>
<!-- 2_2 -->
<g id="node3" class="node"><title>2_2</title>
<ellipse fill="none" stroke="black" cx="112" cy="134.4" rx="62.8651" ry="48.1667"/>
<text text-anchor="middle" x="112" y="115.6" font-family="Times New Roman,serif" font-size="14.00">2,2</text>
<text text-anchor="middle" x="112" y="130.6" font-family="Times New Roman,serif" font-size="14.00">ic: 0</text>
<text text-anchor="middle" x="112" y="145.6" font-family="Times New Roman,serif" font-size="14.00">free: 3,2;3,3</text>
<text text-anchor="middle" x="112" y="160.6" font-family="Times New Roman,serif" font-size="14.00">swlolw: none</text>
</g>
<!-- 1_3 -->
<g id="node4" class="node"><title>1_3</title>
<ellipse fill="none" stroke="black" cx="-89.6" cy="336" rx="62.8651" ry="48.1667"/>
<text text-anchor="middle" x="-89.6" y="317.2" font-family="Times New Roman,serif" font-size="14.00">1,3</text>
<text text-anchor="middle" x="-89.6" y="332.2" font-family="Times New Roman,serif" font-size="14.00">ic: 0</text>
<text text-anchor="middle" x="-89.6" y="347.2" font-family="Times New Roman,serif" font-size="14.00">free: 2,3;3,3</text>
<text text-anchor="middle" x="-89.6" y="362.2" font-family="Times New Roman,serif" font-size="14.00">swlolw: none</text>
</g>
<!-- 3_1 -->
<g id="node5" class="node"><title>3_1</title>
<ellipse fill="none" stroke="black" cx="313.6" cy="-67.2" rx="62.8651" ry="48.1667"/>
<text text-anchor="middle" x="313.6" y="-86" font-family="Times New Roman,serif" font-size="14.00">3,1</text>
<text text-anchor="middle" x="313.6" y="-71" font-family="Times New Roman,serif" font-size="14.00">ic: 0</text>
<text text-anchor="middle" x="313.6" y="-56" font-family="Times New Roman,serif" font-size="14.00">free: 3,2;3,3</text>
<text text-anchor="middle" x="313.6" y="-41" font-family="Times New Roman,serif" font-size="14.00">swlolw: none</text>
</g>
<!-- 2_0 -->
<g id="node6" class="node"><title>2_0</title>
<ellipse fill="none" stroke="black" cx="112" cy="-268.8" rx="62.8651" ry="48.1667"/>
<text text-anchor="middle" x="112" y="-287.6" font-family="Times New Roman,serif" font-size="14.00">2,0</text>
<text text-anchor="middle" x="112" y="-272.6" font-family="Times New Roman,serif" font-size="14.00">ic: 0</text>
<text text-anchor="middle" x="112" y="-257.6" font-family="Times New Roman,serif" font-size="14.00">free: 3,0</text>
<text text-anchor="middle" x="112" y="-242.6" font-family="Times New Roman,serif" font-size="14.00">swlolw: none</text>
</g>
<!-- 1_1 -->
<g id="node7" class="node"><title>1_1</title>
<ellipse fill="none" stroke="black" cx="-89.6" cy="-67.2" rx="58.8803" ry="48.1667"/>
<text text-anchor="middle" x="-89.6" y="-86" font-family="Times New Roman,serif" font-size="14.00">1,1</text>
<text text-anchor="middle" x="-89.6" y="-71" font-family="Times New Roman,serif" font-size="14.00">ic: 3</text>
<text text-anchor="middle" x="-89.6" y="-56" font-family="Times New Roman,serif" font-size="14.00">free: 0,1;0,0</text>
<text text-anchor="middle" x="-89.6" y="-41" font-family="Times New Roman,serif" font-size="14.00">swlolw: {1}</text>
</g>
<!-- 1_1&#45;&gt;1_1 -->
<g id="edge2" class="edge"><title>1_1&#45;&gt;1_1</title>
<path fill="none" stroke="black" d="M-31.413,-73.6035C-20.5562,-72.815 -12.9101,-70.6805 -12.9101,-67.2 -12.9101,-64.9703 -16.0481,-63.293 -21.1579,-62.1681"/>
<polygon fill="black" stroke="black" points="-21.0372,-58.6532 -31.413,-60.7965 -21.9653,-65.5914 -21.0372,-58.6532"/>
<text text-anchor="middle" x="4.08986" y="-63.5" font-family="Times New Roman,serif" font-size="14.00">2 &#160;(4) </text>
</g>
<!-- 2_1 -->
<g id="node8" class="node"><title>2_1</title>
<ellipse fill="none" stroke="black" cx="112" cy="-67.2" rx="58.8803" ry="48.1667"/>
<text text-anchor="middle" x="112" y="-86" font-family="Times New Roman,serif" font-size="14.00">2,1</text>
<text text-anchor="middle" x="112" y="-71" font-family="Times New Roman,serif" font-size="14.00">ic: 1</text>
<text text-anchor="middle" x="112" y="-56" font-family="Times New Roman,serif" font-size="14.00">free: none</text>
<text text-anchor="middle" x="112" y="-41" font-family="Times New Roman,serif" font-size="14.00">swlolw: {1}</text>
</g>
<!-- 1_1&#45;&gt;2_1 -->
<g id="edge1" class="edge"><title>1_1&#45;&gt;2_1</title>
<path fill="none" stroke="black" d="M-31.2889,-73.386C-7.98745,-74.0422 19.0218,-74.1258 43.2679,-73.6368"/>
<polygon fill="black" stroke="black" points="43.5578,-77.1309 53.471,-73.3921 43.39,-70.1329 43.5578,-77.1309"/>
<text text-anchor="middle" x="25.4895" y="-77.3114" font-family="Times New Roman,serif" font-size="14.00">1 &#160;(&#45;1) </text>
</g>
<!-- 2_1&#45;&gt;1_1 -->
<g id="edge3" class="edge"><title>2_1&#45;&gt;1_1</title>
<path fill="none" stroke="black" d="M53.6889,-61.014C30.3874,-60.3578 3.37816,-60.2742 -20.8679,-60.7632"/>
<polygon fill="black" stroke="black" points="-21.1578,-57.2691 -31.071,-61.0079 -20.99,-64.2671 -21.1578,-57.2691"/>
<text text-anchor="middle" x="26.1605" y="-49.6886" font-family="Times New Roman,serif" font-size="14.00">1 &#160;(&#45;1) </text>
</g>
<!-- 1_2 -->
<g id="node9" class="node"><title>1_2</title>
<ellipse fill="green" stroke="black" cx="-89.6" cy="134.4" rx="58.8803" ry="48.1667"/>
<text text-anchor="middle" x="-89.6" y="115.6" font-family="Times New Roman,serif" font-size="14.00">1,2</text>
<text text-anchor="middle" x="-89.6" y="130.6" font-family="Times New Roman,serif" font-size="14.00">ic: 5</text>
<text text-anchor="middle" x="-89.6" y="145.6" font-family="Times New Roman,serif" font-size="14.00">free: none</text>
<text text-anchor="middle" x="-89.6" y="160.6" font-family="Times New Roman,serif" font-size="14.00">swlolw: {1}</text>
</g>
<!-- 1_2&#45;&gt;1_1 -->
<g id="edge4" class="edge"><title>1_2&#45;&gt;1_1</title>
<path fill="none" stroke="black" d="M-89.6,86.1118C-89.6,57.6647 -89.6,21.4762 -89.6,-8.59722"/>
<polygon fill="black" stroke="black" points="-93.0999,-8.9568 -89.6,-18.9568 -86.0999,-8.95686 -93.0999,-8.9568"/>
<text text-anchor="middle" x="-109.1" y="34.9573" font-family="Times New Roman,serif" font-size="14.00">1 &#160;(&#45;1) </text>
</g>
</g>
</svg>
