<?xml version="1.0" encoding="UTF-8" standalone="no"?>
<!DOCTYPE svg PUBLIC "-//W3C//DTD SVG 1.1//EN"
 "http://www.w3.org/Graphics/SVG/1.1/DTD/svg11.dtd">
<!-- Generated by graphviz version 2.38.0 (20140413.2041)
 -->
<!-- Title: sonderfall_abb11.txt_fields Pages: 1 -->
<svg width="537pt" height="911pt"
 viewBox="0.00 0.00 537.07 910.57" xmlns="http://www.w3.org/2000/svg" xmlns:xlink="http://www.w3.org/1999/xlink">
<g id="graph0" class="graph" transform="scale(1 1) rotate(0) translate(268.533 334.323)">
<title>sonderfall_abb11.txt_fields</title>
<polygon fill="white" stroke="none" points="-268.533,576.243 -268.533,-334.323 268.533,-334.323 268.533,576.243 -268.533,576.243"/>
<!-- 1_0 -->
<g id="node1" class="node"><title>1_0</title>
<ellipse fill="none" stroke="black" cx="0" cy="-282.24" rx="58.8803" ry="48.1667"/>
<text text-anchor="middle" x="0" y="-301.04" font-family="Times New Roman,serif" font-size="14.00">1,0</text>
<text text-anchor="middle" x="0" y="-286.04" font-family="Times New Roman,serif" font-size="14.00">ic: 1</text>
<text text-anchor="middle" x="0" y="-271.04" font-family="Times New Roman,serif" font-size="14.00">free: 2,0;3,0</text>
<text text-anchor="middle" x="0" y="-256.04" font-family="Times New Roman,serif" font-size="14.00">swlolw: {1}</text>
</g>
<!-- 1_0&#45;&gt;1_0 -->
<g id="edge2" class="edge"><title>1_0&#45;&gt;1_0</title>
<path fill="none" stroke="black" d="M58.187,-288.644C69.0438,-287.855 76.6899,-285.72 76.6899,-282.24 76.6899,-280.01 73.5519,-278.333 68.4421,-277.208"/>
<polygon fill="black" stroke="black" points="68.5628,-273.693 58.187,-275.836 67.6347,-280.631 68.5628,-273.693"/>
<text text-anchor="middle" x="93.6899" y="-278.54" font-family="Times New Roman,serif" font-size="14.00">2 &#160;(4) </text>
</g>
<!-- 1_1 -->
<g id="node3" class="node"><title>1_1</title>
<ellipse fill="none" stroke="black" cx="0" cy="-80.64" rx="58.8803" ry="48.1667"/>
<text text-anchor="middle" x="0" y="-99.44" font-family="Times New Roman,serif" font-size="14.00">1,1</text>
<text text-anchor="middle" x="0" y="-84.44" font-family="Times New Roman,serif" font-size="14.00">ic: 2</text>
<text text-anchor="middle" x="0" y="-69.44" font-family="Times New Roman,serif" font-size="14.00">free: 1,2;2,2</text>
<text text-anchor="middle" x="0" y="-54.44" font-family="Times New Roman,serif" font-size="14.00">swlolw: {1}</text>
</g>
<!-- 1_0&#45;&gt;1_1 -->
<g id="edge1" class="edge"><title>1_0&#45;&gt;1_1</title>
<path fill="none" stroke="black" d="M5.84958,-234.208C6.92842,-205.538 7.0378,-168.937 6.17771,-138.658"/>
<polygon fill="black" stroke="black" points="9.67557,-138.533 5.84886,-128.653 2.67935,-138.763 9.67557,-138.533"/>
<text text-anchor="middle" x="-10.9864" y="-190.233" font-family="Times New Roman,serif" font-size="14.00">1 &#160;(7) </text>
</g>
<!-- 0_1 -->
<g id="node2" class="node"><title>0_1</title>
<ellipse fill="none" stroke="black" cx="-201.6" cy="-80.64" rx="62.8651" ry="48.1667"/>
<text text-anchor="middle" x="-201.6" y="-99.44" font-family="Times New Roman,serif" font-size="14.00">0,1</text>
<text text-anchor="middle" x="-201.6" y="-84.44" font-family="Times New Roman,serif" font-size="14.00">ic: 0</text>
<text text-anchor="middle" x="-201.6" y="-69.44" font-family="Times New Roman,serif" font-size="14.00">free: 0,2;1,2</text>
<text text-anchor="middle" x="-201.6" y="-54.44" font-family="Times New Roman,serif" font-size="14.00">swlolw: none</text>
</g>
<!-- 1_1&#45;&gt;1_0 -->
<g id="edge3" class="edge"><title>1_1&#45;&gt;1_0</title>
<path fill="none" stroke="black" d="M-5.84958,-128.672C-6.92842,-157.342 -7.0378,-193.943 -6.17771,-224.222"/>
<polygon fill="black" stroke="black" points="-9.67557,-224.347 -5.84886,-234.227 -2.67935,-224.117 -9.67557,-224.347"/>
<text text-anchor="middle" x="-23.0136" y="-165.247" font-family="Times New Roman,serif" font-size="14.00">1 &#160;(7) </text>
</g>
<!-- 1_1&#45;&gt;1_1 -->
<g id="edge4" class="edge"><title>1_1&#45;&gt;1_1</title>
<path fill="none" stroke="black" d="M58.187,-87.0435C69.0438,-86.255 76.6899,-84.1205 76.6899,-80.64 76.6899,-78.4103 73.5519,-76.733 68.4421,-75.6081"/>
<polygon fill="black" stroke="black" points="68.5628,-72.0932 58.187,-74.2365 67.6347,-79.0314 68.5628,-72.0932"/>
<text text-anchor="middle" x="93.6899" y="-76.94" font-family="Times New Roman,serif" font-size="14.00">2 &#160;(4) </text>
</g>
<!-- 2_1 -->
<g id="node4" class="node"><title>2_1</title>
<ellipse fill="none" stroke="black" cx="201.6" cy="-80.64" rx="62.8651" ry="48.1667"/>
<text text-anchor="middle" x="201.6" y="-99.44" font-family="Times New Roman,serif" font-size="14.00">2,1</text>
<text text-anchor="middle" x="201.6" y="-84.44" font-family="Times New Roman,serif" font-size="14.00">ic: 0</text>
<text text-anchor="middle" x="201.6" y="-69.44" font-family="Times New Roman,serif" font-size="14.00">free: 2,0;3,0</text>
<text text-anchor="middle" x="201.6" y="-54.44" font-family="Times New Roman,serif" font-size="14.00">swlolw: none</text>
</g>
<!-- 1_4 -->
<g id="node5" class="node"><title>1_4</title>
<ellipse fill="green" stroke="black" cx="0" cy="524.16" rx="62.8651" ry="48.1667"/>
<text text-anchor="middle" x="0" y="505.36" font-family="Times New Roman,serif" font-size="14.00">1,4</text>
<text text-anchor="middle" x="0" y="520.36" font-family="Times New Roman,serif" font-size="14.00">ic: 6</text>
<text text-anchor="middle" x="0" y="535.36" font-family="Times New Roman,serif" font-size="14.00">free: 1,3;1,2</text>
<text text-anchor="middle" x="0" y="550.36" font-family="Times New Roman,serif" font-size="14.00">swlolw: none</text>
</g>
<!-- 1_4&#45;&gt;1_0 -->
<g id="edge6" class="edge"><title>1_4&#45;&gt;1_0</title>
<path fill="none" stroke="black" d="M0,475.832C0,335.494 0,-71.7124 0,-223.924"/>
<polygon fill="black" stroke="black" points="-3.4999,-224.006 0,-234.006 3.5001,-224.006 -3.4999,-224.006"/>
<text text-anchor="middle" x="-17" y="122.154" font-family="Times New Roman,serif" font-size="14.00">8 &#160;(8) </text>
</g>
<!-- 1_4&#45;&gt;1_1 -->
<g id="edge5" class="edge"><title>1_4&#45;&gt;1_1</title>
<path fill="none" stroke="black" d="M0,475.943C0,365.95 0,96.8329 0,-22.2804"/>
<polygon fill="black" stroke="black" points="-3.4999,-22.3053 0,-32.3054 3.5001,-22.3054 -3.4999,-22.3053"/>
<text text-anchor="middle" x="-17" y="223.031" font-family="Times New Roman,serif" font-size="14.00">3 &#160;(3) </text>
</g>
</g>
</svg>
