<?xml version="1.0" encoding="UTF-8" standalone="no"?>
<!DOCTYPE svg PUBLIC "-//W3C//DTD SVG 1.1//EN"
 "http://www.w3.org/Graphics/SVG/1.1/DTD/svg11.dtd">
<!-- Generated by graphviz version 2.38.0 (20140413.2041)
 -->
<!-- Title: sonderfall_abb4.txt_fields Pages: 1 -->
<svg width="739pt" height="709pt"
 viewBox="0.00 0.00 738.67 708.97" xmlns="http://www.w3.org/2000/svg" xmlns:xlink="http://www.w3.org/1999/xlink">
<g id="graph0" class="graph" transform="scale(1 1) rotate(0) translate(318.933 329.283)">
<title>sonderfall_abb4.txt_fields</title>
<polygon fill="white" stroke="none" points="-318.933,379.683 -318.933,-329.283 419.733,-329.283 419.733,379.683 -318.933,379.683"/>
<!-- 1_2 -->
<g id="node1" class="node"><title>1_2</title>
<ellipse fill="none" stroke="black" cx="-50.4" cy="126" rx="62.8651" ry="48.1667"/>
<text text-anchor="middle" x="-50.4" y="107.2" font-family="Times New Roman,serif" font-size="14.00">1,2</text>
<text text-anchor="middle" x="-50.4" y="122.2" font-family="Times New Roman,serif" font-size="14.00">ic: 4</text>
<text text-anchor="middle" x="-50.4" y="137.2" font-family="Times New Roman,serif" font-size="14.00">free: 1,1;2,1</text>
<text text-anchor="middle" x="-50.4" y="152.2" font-family="Times New Roman,serif" font-size="14.00">swlolw: none</text>
</g>
<!-- 1_2&#45;&gt;1_2 -->
<g id="edge2" class="edge"><title>1_2&#45;&gt;1_2</title>
<path fill="none" stroke="black" d="M12.0382,119.672C22.9451,120.516 30.5325,122.625 30.5325,126 30.5325,128.162 27.4186,129.805 22.313,130.928"/>
<polygon fill="black" stroke="black" points="22.4192,134.446 12.0382,132.328 21.474,127.51 22.4192,134.446"/>
<text text-anchor="middle" x="47.5325" y="129.7" font-family="Times New Roman,serif" font-size="14.00">2 &#160;(4) </text>
</g>
<!-- 1_0 -->
<g id="node2" class="node"><title>1_0</title>
<ellipse fill="none" stroke="black" cx="-50.4" cy="-277.2" rx="62.8651" ry="48.1667"/>
<text text-anchor="middle" x="-50.4" y="-296" font-family="Times New Roman,serif" font-size="14.00">1,0</text>
<text text-anchor="middle" x="-50.4" y="-281" font-family="Times New Roman,serif" font-size="14.00">ic: 1</text>
<text text-anchor="middle" x="-50.4" y="-266" font-family="Times New Roman,serif" font-size="14.00">free: 1,1;2,1</text>
<text text-anchor="middle" x="-50.4" y="-251" font-family="Times New Roman,serif" font-size="14.00">swlolw: none</text>
</g>
<!-- 1_2&#45;&gt;1_0 -->
<g id="edge1" class="edge"><title>1_2&#45;&gt;1_0</title>
<path fill="none" stroke="black" d="M-54.9695,77.7651C-57.755,3.44801 -57.8717,-138.822 -55.3197,-218.834"/>
<polygon fill="black" stroke="black" points="-58.804,-219.35 -54.9598,-229.223 -51.8082,-219.108 -58.804,-219.35"/>
<text text-anchor="middle" x="-72.1446" y="-74.3344" font-family="Times New Roman,serif" font-size="14.00">2 &#160;(4) </text>
</g>
<!-- 1_0&#45;&gt;1_2 -->
<g id="edge3" class="edge"><title>1_0&#45;&gt;1_2</title>
<path fill="none" stroke="black" d="M-45.8305,-228.965C-43.045,-154.648 -42.9283,-12.3785 -45.4803,67.6341"/>
<polygon fill="black" stroke="black" points="-41.996,68.1502 -45.8402,78.023 -48.9918,67.9078 -41.996,68.1502"/>
<text text-anchor="middle" x="-28.6554" y="-84.4655" font-family="Times New Roman,serif" font-size="14.00">2 &#160;(4) </text>
</g>
<!-- 1_0&#45;&gt;1_0 -->
<g id="edge4" class="edge"><title>1_0&#45;&gt;1_0</title>
<path fill="none" stroke="black" d="M12.0382,-283.528C22.9451,-282.684 30.5325,-280.575 30.5325,-277.2 30.5325,-275.038 27.4186,-273.395 22.313,-272.272"/>
<polygon fill="black" stroke="black" points="22.4192,-268.754 12.0382,-270.872 21.474,-275.69 22.4192,-268.754"/>
<text text-anchor="middle" x="47.5325" y="-273.5" font-family="Times New Roman,serif" font-size="14.00">2 &#160;(4) </text>
</g>
<!-- 0_1 -->
<g id="node3" class="node"><title>0_1</title>
<ellipse fill="none" stroke="black" cx="-252" cy="-75.6" rx="62.8651" ry="48.1667"/>
<text text-anchor="middle" x="-252" y="-94.4" font-family="Times New Roman,serif" font-size="14.00">0,1</text>
<text text-anchor="middle" x="-252" y="-79.4" font-family="Times New Roman,serif" font-size="14.00">ic: 0</text>
<text text-anchor="middle" x="-252" y="-64.4" font-family="Times New Roman,serif" font-size="14.00">free: 1,1;2,1</text>
<text text-anchor="middle" x="-252" y="-49.4" font-family="Times New Roman,serif" font-size="14.00">swlolw: none</text>
</g>
<!-- 0_2 -->
<g id="node4" class="node"><title>0_2</title>
<ellipse fill="none" stroke="black" cx="-252" cy="126" rx="62.8651" ry="48.1667"/>
<text text-anchor="middle" x="-252" y="107.2" font-family="Times New Roman,serif" font-size="14.00">0,2</text>
<text text-anchor="middle" x="-252" y="122.2" font-family="Times New Roman,serif" font-size="14.00">ic: 0</text>
<text text-anchor="middle" x="-252" y="137.2" font-family="Times New Roman,serif" font-size="14.00">free: 0,3;1,3</text>
<text text-anchor="middle" x="-252" y="152.2" font-family="Times New Roman,serif" font-size="14.00">swlolw: none</text>
</g>
<!-- 2_0 -->
<g id="node5" class="node"><title>2_0</title>
<ellipse fill="none" stroke="black" cx="151.2" cy="-277.2" rx="62.8651" ry="48.1667"/>
<text text-anchor="middle" x="151.2" y="-296" font-family="Times New Roman,serif" font-size="14.00">2,0</text>
<text text-anchor="middle" x="151.2" y="-281" font-family="Times New Roman,serif" font-size="14.00">ic: 0</text>
<text text-anchor="middle" x="151.2" y="-266" font-family="Times New Roman,serif" font-size="14.00">free: 2,1;1,1</text>
<text text-anchor="middle" x="151.2" y="-251" font-family="Times New Roman,serif" font-size="14.00">swlolw: none</text>
</g>
<!-- 3_1 -->
<g id="node6" class="node"><title>3_1</title>
<ellipse fill="none" stroke="black" cx="352.8" cy="-75.6" rx="62.8651" ry="48.1667"/>
<text text-anchor="middle" x="352.8" y="-94.4" font-family="Times New Roman,serif" font-size="14.00">3,1</text>
<text text-anchor="middle" x="352.8" y="-79.4" font-family="Times New Roman,serif" font-size="14.00">ic: 0</text>
<text text-anchor="middle" x="352.8" y="-64.4" font-family="Times New Roman,serif" font-size="14.00">free: 2,1;1,1</text>
<text text-anchor="middle" x="352.8" y="-49.4" font-family="Times New Roman,serif" font-size="14.00">swlolw: none</text>
</g>
<!-- 2_2 -->
<g id="node7" class="node"><title>2_2</title>
<ellipse fill="none" stroke="black" cx="151.2" cy="126" rx="62.8651" ry="48.1667"/>
<text text-anchor="middle" x="151.2" y="107.2" font-family="Times New Roman,serif" font-size="14.00">2,2</text>
<text text-anchor="middle" x="151.2" y="122.2" font-family="Times New Roman,serif" font-size="14.00">ic: 0</text>
<text text-anchor="middle" x="151.2" y="137.2" font-family="Times New Roman,serif" font-size="14.00">free: 2,1;1,1</text>
<text text-anchor="middle" x="151.2" y="152.2" font-family="Times New Roman,serif" font-size="14.00">swlolw: none</text>
</g>
<!-- 1_3 -->
<g id="node8" class="node"><title>1_3</title>
<ellipse fill="green" stroke="black" cx="-50.4" cy="327.6" rx="62.8651" ry="48.1667"/>
<text text-anchor="middle" x="-50.4" y="308.8" font-family="Times New Roman,serif" font-size="14.00">1,3</text>
<text text-anchor="middle" x="-50.4" y="323.8" font-family="Times New Roman,serif" font-size="14.00">ic: 1</text>
<text text-anchor="middle" x="-50.4" y="338.8" font-family="Times New Roman,serif" font-size="14.00">free: 2,3;3,3</text>
<text text-anchor="middle" x="-50.4" y="353.8" font-family="Times New Roman,serif" font-size="14.00">swlolw: none</text>
</g>
<!-- 1_3&#45;&gt;1_2 -->
<g id="edge5" class="edge"><title>1_3&#45;&gt;1_2</title>
<path fill="none" stroke="black" d="M-50.4,279.312C-50.4,250.865 -50.4,214.676 -50.4,184.603"/>
<polygon fill="black" stroke="black" points="-53.8999,184.243 -50.4,174.243 -46.8999,184.243 -53.8999,184.243"/>
<text text-anchor="middle" x="-67.4" y="228.157" font-family="Times New Roman,serif" font-size="14.00">1 &#160;(3) </text>
</g>
</g>
</svg>
