<?xml version="1.0" encoding="UTF-8" standalone="no"?>
<!DOCTYPE svg PUBLIC "-//W3C//DTD SVG 1.1//EN"
 "http://www.w3.org/Graphics/SVG/1.1/DTD/svg11.dtd">
<!-- Generated by graphviz version 2.38.0 (20140413.2041)
 -->
<!-- Title: sonderfall_abb11.txt Pages: 1 -->
<svg width="465pt" height="850pt"
 viewBox="0.00 0.00 465.20 850.40" xmlns="http://www.w3.org/2000/svg" xmlns:xlink="http://www.w3.org/1999/xlink">
<g id="graph0" class="graph" transform="scale(1 1) rotate(0) translate(258.782 298.218)">
<title>sonderfall_abb11.txt</title>
<polygon fill="white" stroke="none" points="-258.782,552.182 -258.782,-298.218 206.418,-298.218 206.418,552.182 -258.782,552.182"/>
<g id="clust1" class="cluster"><title>cluster1_0</title>
<polygon fill="none" stroke="black" points="-53.1818,-186.218 -53.1818,-294.218 72.8182,-294.218 72.8182,-186.218 -53.1818,-186.218"/>
<text text-anchor="middle" x="9.81818" y="-279.018" font-family="Times New Roman,serif" font-size="14.00">1,0</text>
</g>
<g id="clust3" class="cluster"><title>cluster1_1</title>
<polygon fill="none" stroke="black" points="-53.1818,15.3818 -53.1818,-92.6182 72.8182,-92.6182 72.8182,15.3818 -53.1818,15.3818"/>
<text text-anchor="middle" x="9.81818" y="-77.4182" font-family="Times New Roman,serif" font-size="14.00">1,1</text>
</g>
<g id="clust2" class="cluster"><title>cluster0_1</title>
<polygon fill="none" stroke="black" points="-254.782,-56.6182 -254.782,-92.6182 -200.782,-92.6182 -200.782,-56.6182 -254.782,-56.6182"/>
<text text-anchor="middle" x="-227.782" y="-77.4182" font-family="Times New Roman,serif" font-size="14.00">0,1</text>
</g>
<g id="clust4" class="cluster"><title>cluster2_1</title>
<polygon fill="none" stroke="black" points="148.418,-56.6182 148.418,-92.6182 202.418,-92.6182 202.418,-56.6182 148.418,-56.6182"/>
<text text-anchor="middle" x="175.418" y="-77.4182" font-family="Times New Roman,serif" font-size="14.00">2,1</text>
</g>
<g id="clust5" class="cluster"><title>cluster1_4</title>
<polygon fill="none" stroke="black" points="-53.1818,548.182 -53.1818,512.182 72.8182,512.182 72.8182,548.182 -53.1818,548.182"/>
<text text-anchor="middle" x="9.81818" y="527.382" font-family="Times New Roman,serif" font-size="14.00">1,4</text>
</g>
<!-- battery1_0_0 -->
<g id="node1" class="node"><title>battery1_0_0</title>
<ellipse fill="none" stroke="black" cx="-26.1818" cy="-276.218" rx="27" ry="18"/>
<text text-anchor="middle" x="-26.1818" y="-272.518" font-family="Times New Roman,serif" font-size="14.00">0,&#45;1</text>
</g>
<!-- battery1_0_1 -->
<g id="node2" class="node"><title>battery1_0_1</title>
<ellipse fill="yellow" stroke="black" cx="45.8182" cy="-276.218" rx="27" ry="18"/>
<text text-anchor="middle" x="45.8182" y="-272.518" font-family="Times New Roman,serif" font-size="14.00">1,0</text>
</g>
<!-- battery1_0_0&#45;&gt;battery1_0_1 -->
<g id="edge15" class="edge"><title>battery1_0_0&#45;&gt;battery1_0_1</title>
<path fill="none" stroke="orange" d="M1.03829,-276.218C3.45751,-276.218 5.93307,-276.218 8.41753,-276.218"/>
<polygon fill="orange" stroke="orange" points="8.55961,-279.718 18.5596,-276.218 8.55954,-272.718 8.55961,-279.718"/>
<text text-anchor="middle" x="2.97791" y="-265.018" font-family="Times New Roman,serif" font-size="14.00">8</text>
</g>
<!-- battery1_0_1&#45;&gt;battery1_0_1 -->
<g id="edge13" class="edge"><title>battery1_0_1&#45;&gt;battery1_0_1</title>
<path fill="none" stroke="orange" d="M71.2617,-282.909C81.846,-283.37 90.8182,-281.14 90.8182,-276.218 90.8182,-272.988 86.9542,-270.917 81.3063,-270.006"/>
<polygon fill="orange" stroke="orange" points="81.4169,-266.507 71.2617,-269.528 81.0838,-273.499 81.4169,-266.507"/>
<text text-anchor="middle" x="94.3182" y="-272.518" font-family="Times New Roman,serif" font-size="14.00">4</text>
</g>
<!-- battery1_1_0 -->
<g id="node5" class="node"><title>battery1_1_0</title>
<ellipse fill="none" stroke="black" cx="-26.1818" cy="-74.6182" rx="27" ry="18"/>
<text text-anchor="middle" x="-26.1818" y="-70.9182" font-family="Times New Roman,serif" font-size="14.00">0,&#45;1</text>
</g>
<!-- battery1_0_1&#45;&gt;battery1_1_0 -->
<g id="edge1" class="edge"><title>battery1_0_1&#45;&gt;battery1_1_0</title>
<path fill="none" stroke="red" d="M39.5546,-258.68C26.975,-223.457 -1.43815,-143.9 -16.4562,-101.85"/>
<polygon fill="red" stroke="red" points="-13.2219,-100.499 -19.8815,-92.2592 -19.8141,-102.854 -13.2219,-100.499"/>
<text text-anchor="middle" x="8.0492" y="-184.065" font-family="Times New Roman,serif" font-size="14.00">5</text>
</g>
<!-- battery1_0_2 -->
<g id="node3" class="node"><title>battery1_0_2</title>
<ellipse fill="none" stroke="black" cx="-26.1818" cy="-204.218" rx="27" ry="18"/>
<text text-anchor="middle" x="-26.1818" y="-200.518" font-family="Times New Roman,serif" font-size="14.00">2,6</text>
</g>
<!-- battery1_0_2&#45;&gt;battery1_0_0 -->
<g id="edge3" class="edge"><title>battery1_0_2&#45;&gt;battery1_0_0</title>
<path fill="none" stroke="#000000" stroke-opacity="0.333333" d="M-26.1818,-222.387C-26.1818,-230.087 -26.1818,-239.244 -26.1818,-247.802"/>
<polygon fill="none" stroke="#000000" stroke-opacity="0.333333" points="-29.6817,-247.805 -26.1818,-257.805 -22.6817,-247.805 -29.6817,-247.805"/>
</g>
<!-- battery1_1_1 -->
<g id="node6" class="node"><title>battery1_1_1</title>
<ellipse fill="none" stroke="black" cx="45.8182" cy="-74.6182" rx="27" ry="18"/>
<text text-anchor="middle" x="45.8182" y="-70.9182" font-family="Times New Roman,serif" font-size="14.00">1,7</text>
</g>
<!-- battery1_0_2&#45;&gt;battery1_1_1 -->
<g id="edge2" class="edge"><title>battery1_0_2&#45;&gt;battery1_1_1</title>
<path fill="none" stroke="#000000" stroke-opacity="0.333333" d="M-16.7691,-187.275C-4.47957,-165.154 17.1497,-126.221 31.4833,-100.421"/>
<polygon fill="none" stroke="#000000" stroke-opacity="0.333333" points="34.6062,-102.007 36.4031,-91.5653 28.4871,-98.6071 34.6062,-102.007"/>
</g>
<!-- battery0_1_0 -->
<g id="node4" class="node"><title>battery0_1_0</title>
<ellipse fill="yellow" stroke="black" cx="-227.782" cy="-74.6182" rx="27" ry="18"/>
<text text-anchor="middle" x="-227.782" y="-70.9182" font-family="Times New Roman,serif" font-size="14.00">0,1</text>
</g>
<!-- battery1_1_0&#45;&gt;battery1_1_1 -->
<g id="edge14" class="edge"><title>battery1_1_0&#45;&gt;battery1_1_1</title>
<path fill="none" stroke="orange" d="M1.03829,-74.6182C3.45751,-74.6182 5.93307,-74.6182 8.41753,-74.6182"/>
<polygon fill="orange" stroke="orange" points="8.55961,-78.1183 18.5596,-74.6182 8.55954,-71.1183 8.55961,-78.1183"/>
<text text-anchor="middle" x="2.97791" y="-63.4182" font-family="Times New Roman,serif" font-size="14.00">6</text>
</g>
<!-- battery1_1_1&#45;&gt;battery1_0_0 -->
<g id="edge8" class="edge"><title>battery1_1_1&#45;&gt;battery1_0_0</title>
<path fill="none" stroke="red" d="M39.5546,-92.1562C26.975,-127.379 -1.43815,-206.936 -16.4562,-248.986"/>
<polygon fill="red" stroke="red" points="-19.8141,-247.983 -19.8815,-258.577 -13.2219,-250.337 -19.8141,-247.983"/>
<text text-anchor="middle" x="8.0492" y="-159.371" font-family="Times New Roman,serif" font-size="14.00">7</text>
</g>
<!-- battery1_1_2 -->
<g id="node7" class="node"><title>battery1_1_2</title>
<ellipse fill="yellow" stroke="black" cx="-26.1818" cy="-2.61818" rx="27" ry="18"/>
<text text-anchor="middle" x="-26.1818" y="1.08182" font-family="Times New Roman,serif" font-size="14.00">2,2</text>
</g>
<!-- battery1_1_1&#45;&gt;battery1_1_2 -->
<g id="edge12" class="edge"><title>battery1_1_1&#45;&gt;battery1_1_2</title>
<path fill="none" stroke="orange" d="M30.5488,-59.3488C20.6212,-49.4212 7.50287,-36.3029 -3.61816,-25.1818"/>
<polygon fill="orange" stroke="orange" points="-1.3885,-22.4617 -10.9345,-17.8655 -6.33827,-27.4115 -1.3885,-22.4617"/>
<text text-anchor="middle" x="9.96534" y="-46.0653" font-family="Times New Roman,serif" font-size="14.00">2</text>
</g>
<!-- battery1_1_2&#45;&gt;battery1_0_1 -->
<g id="edge4" class="edge"><title>battery1_1_2&#45;&gt;battery1_0_1</title>
<path fill="none" stroke="red" d="M-21.4577,-20.5698C-9.20163,-67.1429 23.6852,-192.113 38.4567,-248.245"/>
<polygon fill="red" stroke="red" points="35.1469,-249.42 41.0767,-258.2 41.9164,-247.639 35.1469,-249.42"/>
<text text-anchor="middle" x="4.99952" y="-138.207" font-family="Times New Roman,serif" font-size="14.00">3</text>
</g>
<!-- battery1_1_2&#45;&gt;battery1_1_0 -->
<g id="edge5" class="edge"><title>battery1_1_2&#45;&gt;battery1_1_0</title>
<path fill="none" stroke="#000000" stroke-opacity="0.333333" d="M-26.1818,-20.7868C-26.1818,-28.4872 -26.1818,-37.6438 -26.1818,-46.2015"/>
<polygon fill="none" stroke="#000000" stroke-opacity="0.333333" points="-29.6817,-46.2049 -26.1818,-56.2049 -22.6817,-46.2049 -29.6817,-46.2049"/>
</g>
<!-- battery1_1_3 -->
<g id="node8" class="node"><title>battery1_1_3</title>
<ellipse fill="none" stroke="black" cx="45.8182" cy="-2.61818" rx="27" ry="18"/>
<text text-anchor="middle" x="45.8182" y="1.08182" font-family="Times New Roman,serif" font-size="14.00">3,5</text>
</g>
<!-- battery1_1_3&#45;&gt;battery1_0_2 -->
<g id="edge6" class="edge"><title>battery1_1_3&#45;&gt;battery1_0_2</title>
<path fill="none" stroke="#000000" stroke-opacity="0.333333" d="M39.5546,-20.1562C26.975,-55.3792 -1.43815,-134.936 -16.4562,-176.986"/>
<polygon fill="none" stroke="#000000" stroke-opacity="0.333333" points="-19.8141,-175.983 -19.8815,-186.577 -13.2219,-178.337 -19.8141,-175.983"/>
</g>
<!-- battery1_1_3&#45;&gt;battery1_1_1 -->
<g id="edge7" class="edge"><title>battery1_1_3&#45;&gt;battery1_1_1</title>
<path fill="none" stroke="#000000" stroke-opacity="0.333333" d="M45.8182,-20.7868C45.8182,-28.4872 45.8182,-37.6438 45.8182,-46.2015"/>
<polygon fill="none" stroke="#000000" stroke-opacity="0.333333" points="42.3183,-46.2049 45.8182,-56.2049 49.3183,-46.2049 42.3183,-46.2049"/>
</g>
<!-- battery2_1_0 -->
<g id="node9" class="node"><title>battery2_1_0</title>
<ellipse fill="yellow" stroke="black" cx="175.418" cy="-74.6182" rx="27" ry="18"/>
<text text-anchor="middle" x="175.418" y="-70.9182" font-family="Times New Roman,serif" font-size="14.00">0,3</text>
</g>
<!-- battery1_4_0 -->
<g id="node10" class="node"><title>battery1_4_0</title>
<ellipse fill="none" stroke="black" cx="-26.1818" cy="530.182" rx="27" ry="18"/>
<text text-anchor="middle" x="-26.1818" y="533.882" font-family="Times New Roman,serif" font-size="14.00">0,&#45;1</text>
</g>
<!-- battery1_4_6 -->
<g id="node11" class="node"><title>battery1_4_6</title>
<ellipse fill="green" stroke="black" cx="45.8182" cy="530.182" rx="27" ry="18"/>
<text text-anchor="middle" x="45.8182" y="533.882" font-family="Times New Roman,serif" font-size="14.00">6,4</text>
</g>
<!-- battery1_4_0&#45;&gt;battery1_4_6 -->
<g id="edge11" class="edge"><title>battery1_4_0&#45;&gt;battery1_4_6</title>
<path fill="none" stroke="orange" d="M1.03829,530.182C3.45751,530.182 5.93307,530.182 8.41753,530.182"/>
<polygon fill="orange" stroke="orange" points="8.55961,526.682 18.5596,530.182 8.55954,533.682 8.55961,526.682"/>
<text text-anchor="middle" x="2.97791" y="541.382" font-family="Times New Roman,serif" font-size="14.00">0</text>
</g>
<!-- battery1_4_6&#45;&gt;battery1_1_1 -->
<g id="edge10" class="edge"><title>battery1_4_6&#45;&gt;battery1_1_1</title>
<path fill="none" stroke="red" d="M45.8182,512.081C45.8182,426.089 45.8182,58.6467 45.8182,-46.4412"/>
<polygon fill="red" stroke="red" points="42.3183,-46.5883 45.8182,-56.5883 49.3183,-46.5883 42.3183,-46.5883"/>
<text text-anchor="middle" x="42.3182" y="229.02" font-family="Times New Roman,serif" font-size="14.00">1</text>
</g>
<!-- battery1_4_6&#45;&gt;battery1_1_3 -->
<g id="edge9" class="edge"><title>battery1_4_6&#45;&gt;battery1_1_3</title>
<path fill="none" stroke="#000000" stroke-opacity="0.333333" d="M45.8182,512.149C45.8182,433.648 45.8182,121.347 45.8182,25.5011"/>
<polygon fill="none" stroke="#000000" stroke-opacity="0.333333" points="42.3183,25.4099 45.8182,15.4098 49.3183,25.4098 42.3183,25.4099"/>
</g>
</g>
</svg>
