<?xml version="1.0" encoding="UTF-8" standalone="no"?>
<!DOCTYPE svg PUBLIC "-//W3C//DTD SVG 1.1//EN"
 "http://www.w3.org/Graphics/SVG/1.1/DTD/svg11.dtd">
<!-- Generated by graphviz version 2.38.0 (20140413.2041)
 -->
<!-- Title: sonderfall_abb4.txt Pages: 1 -->
<svg width="667pt" height="649pt"
 viewBox="0.00 0.00 666.80 648.80" xmlns="http://www.w3.org/2000/svg" xmlns:xlink="http://www.w3.org/1999/xlink">
<g id="graph0" class="graph" transform="scale(1 1) rotate(0) translate(280.231 312.215)">
<title>sonderfall_abb4.txt</title>
<polygon fill="white" stroke="none" points="-280.231,336.585 -280.231,-312.215 386.569,-312.215 386.569,336.585 -280.231,336.585"/>
<g id="clust1" class="cluster"><title>cluster1_2</title>
<polygon fill="none" stroke="black" points="-74.6308,202.985 -74.6308,94.9846 51.3692,94.9846 51.3692,202.985 -74.6308,202.985"/>
<text text-anchor="middle" x="-11.6308" y="110.185" font-family="Times New Roman,serif" font-size="14.00">1,2</text>
</g>
<g id="clust3" class="cluster"><title>cluster0_1</title>
<polygon fill="none" stroke="black" points="-276.231,-70.6154 -276.231,-106.615 -222.231,-106.615 -222.231,-70.6154 -276.231,-70.6154"/>
<text text-anchor="middle" x="-249.231" y="-91.4154" font-family="Times New Roman,serif" font-size="14.00">0,1</text>
</g>
<g id="clust2" class="cluster"><title>cluster1_0</title>
<polygon fill="none" stroke="black" points="-74.6308,-200.215 -74.6308,-308.215 51.3692,-308.215 51.3692,-200.215 -74.6308,-200.215"/>
<text text-anchor="middle" x="-11.6308" y="-293.015" font-family="Times New Roman,serif" font-size="14.00">1,0</text>
</g>
<g id="clust4" class="cluster"><title>cluster0_2</title>
<polygon fill="none" stroke="black" points="-276.231,130.985 -276.231,94.9846 -222.231,94.9846 -222.231,130.985 -276.231,130.985"/>
<text text-anchor="middle" x="-249.231" y="110.185" font-family="Times New Roman,serif" font-size="14.00">0,2</text>
</g>
<g id="clust5" class="cluster"><title>cluster2_0</title>
<polygon fill="none" stroke="black" points="126.969,-272.215 126.969,-308.215 180.969,-308.215 180.969,-272.215 126.969,-272.215"/>
<text text-anchor="middle" x="153.969" y="-293.015" font-family="Times New Roman,serif" font-size="14.00">2,0</text>
</g>
<g id="clust7" class="cluster"><title>cluster2_2</title>
<polygon fill="none" stroke="black" points="126.969,130.985 126.969,94.9846 180.969,94.9846 180.969,130.985 126.969,130.985"/>
<text text-anchor="middle" x="153.969" y="110.185" font-family="Times New Roman,serif" font-size="14.00">2,2</text>
</g>
<g id="clust6" class="cluster"><title>cluster3_1</title>
<polygon fill="none" stroke="black" points="328.569,-70.6154 328.569,-106.615 382.569,-106.615 382.569,-70.6154 328.569,-70.6154"/>
<text text-anchor="middle" x="355.569" y="-91.4154" font-family="Times New Roman,serif" font-size="14.00">3,1</text>
</g>
<g id="clust8" class="cluster"><title>cluster1_3</title>
<polygon fill="none" stroke="black" points="-74.6308,332.585 -74.6308,296.585 51.3692,296.585 51.3692,332.585 -74.6308,332.585"/>
<text text-anchor="middle" x="-11.6308" y="311.785" font-family="Times New Roman,serif" font-size="14.00">1,3</text>
</g>
<!-- battery1_2_0 -->
<g id="node1" class="node"><title>battery1_2_0</title>
<ellipse fill="none" stroke="black" cx="-47.6308" cy="112.985" rx="27" ry="18"/>
<text text-anchor="middle" x="-47.6308" y="116.685" font-family="Times New Roman,serif" font-size="14.00">0,&#45;1</text>
</g>
<!-- battery1_2_4 -->
<g id="node3" class="node"><title>battery1_2_4</title>
<ellipse fill="yellow" stroke="black" cx="-47.6308" cy="184.985" rx="27" ry="18"/>
<text text-anchor="middle" x="-47.6308" y="188.685" font-family="Times New Roman,serif" font-size="14.00">4,0</text>
</g>
<!-- battery1_2_0&#45;&gt;battery1_2_4 -->
<g id="edge11" class="edge"><title>battery1_2_0&#45;&gt;battery1_2_4</title>
<path fill="none" stroke="orange" d="M-41.715,130.782C-40.9106,138.804 -40.6879,148.462 -41.047,157.389"/>
<polygon fill="orange" stroke="orange" points="-37.557,157.656 -41.7357,167.392 -44.5404,157.175 -37.557,157.656"/>
<text text-anchor="middle" x="-44.881" y="155.286" font-family="Times New Roman,serif" font-size="14.00">2</text>
</g>
<!-- battery1_2_2 -->
<g id="node2" class="node"><title>battery1_2_2</title>
<ellipse fill="none" stroke="black" cx="24.3692" cy="112.985" rx="27" ry="18"/>
<text text-anchor="middle" x="24.3692" y="116.685" font-family="Times New Roman,serif" font-size="14.00">2,2</text>
</g>
<!-- battery1_2_2&#45;&gt;battery1_2_0 -->
<g id="edge6" class="edge"><title>battery1_2_2&#45;&gt;battery1_2_0</title>
<path fill="none" stroke="#000000" stroke-opacity="0.333333" d="M-2.85088,112.985C-5.2701,112.985 -7.74566,112.985 -10.2301,112.985"/>
<polygon fill="none" stroke="#000000" stroke-opacity="0.333333" points="-10.3721,116.485 -20.3722,112.985 -10.3722,109.485 -10.3721,116.485"/>
</g>
<!-- battery1_0_0 -->
<g id="node4" class="node"><title>battery1_0_0</title>
<ellipse fill="none" stroke="black" cx="-47.6308" cy="-290.215" rx="27" ry="18"/>
<text text-anchor="middle" x="-47.6308" y="-286.515" font-family="Times New Roman,serif" font-size="14.00">0,&#45;1</text>
</g>
<!-- battery1_2_2&#45;&gt;battery1_0_0 -->
<g id="edge5" class="edge"><title>battery1_2_2&#45;&gt;battery1_0_0</title>
<path fill="none" stroke="#000000" stroke-opacity="0.333333" d="M21.1357,94.8767C9.71511,30.9215 -28.7819,-184.662 -42.6222,-262.167"/>
<polygon fill="none" stroke="#000000" stroke-opacity="0.333333" points="-46.0936,-261.698 -44.4061,-272.157 -39.2026,-262.928 -46.0936,-261.698"/>
</g>
<!-- battery1_2_4&#45;&gt;battery1_2_0 -->
<g id="edge4" class="edge"><title>battery1_2_4&#45;&gt;battery1_2_0</title>
<path fill="none" stroke="#000000" stroke-opacity="0.333333" d="M-53.5465,167.187C-54.3509,159.165 -54.5736,149.508 -54.2146,140.58"/>
<polygon fill="none" stroke="#000000" stroke-opacity="0.333333" points="-57.7046,140.314 -53.5258,130.578 -50.7211,140.794 -57.7046,140.314"/>
</g>
<!-- battery1_2_4&#45;&gt;battery1_2_2 -->
<g id="edge3" class="edge"><title>battery1_2_4&#45;&gt;battery1_2_2</title>
<path fill="none" stroke="#000000" stroke-opacity="0.333333" d="M-32.3614,169.715C-22.4338,159.788 -9.31546,146.669 1.80557,135.548"/>
<polygon fill="none" stroke="#000000" stroke-opacity="0.333333" points="-0.424087,132.828 9.12189,128.232 4.52568,137.778 -0.424087,132.828"/>
</g>
<!-- battery1_2_4&#45;&gt;battery1_0_0 -->
<g id="edge2" class="edge"><title>battery1_2_4&#45;&gt;battery1_0_0</title>
<path fill="none" stroke="red" d="M-47.6308,166.936C-47.6308,94.6776 -47.6308,-174.081 -47.6308,-262.106"/>
<polygon fill="red" stroke="red" points="-51.1307,-262.149 -47.6308,-272.149 -44.1307,-262.149 -51.1307,-262.149"/>
<text text-anchor="middle" x="-51.1308" y="-51.3846" font-family="Times New Roman,serif" font-size="14.00">3</text>
</g>
<!-- battery1_0_2 -->
<g id="node6" class="node"><title>battery1_0_2</title>
<ellipse fill="none" stroke="black" cx="-47.6308" cy="-218.215" rx="27" ry="18"/>
<text text-anchor="middle" x="-47.6308" y="-214.515" font-family="Times New Roman,serif" font-size="14.00">2,1</text>
</g>
<!-- battery1_2_4&#45;&gt;battery1_0_2 -->
<g id="edge1" class="edge"><title>battery1_2_4&#45;&gt;battery1_0_2</title>
<path fill="none" stroke="#000000" stroke-opacity="0.333333" d="M-47.6308,166.877C-47.6308,103.052 -47.6308,-111.78 -47.6308,-189.69"/>
<polygon fill="none" stroke="#000000" stroke-opacity="0.333333" points="-51.1307,-190.157 -47.6308,-200.157 -44.1307,-190.157 -51.1307,-190.157"/>
</g>
<!-- battery1_0_1 -->
<g id="node5" class="node"><title>battery1_0_1</title>
<ellipse fill="yellow" stroke="black" cx="24.3692" cy="-290.215" rx="27" ry="18"/>
<text text-anchor="middle" x="24.3692" y="-286.515" font-family="Times New Roman,serif" font-size="14.00">1,3</text>
</g>
<!-- battery1_0_0&#45;&gt;battery1_0_1 -->
<g id="edge12" class="edge"><title>battery1_0_0&#45;&gt;battery1_0_1</title>
<path fill="none" stroke="orange" d="M-20.4107,-290.215C-17.9914,-290.215 -15.5159,-290.215 -13.0314,-290.215"/>
<polygon fill="orange" stroke="orange" points="-12.8893,-293.715 -2.88937,-290.215 -12.8894,-286.715 -12.8893,-293.715"/>
<text text-anchor="middle" x="-13.221" y="-279.015" font-family="Times New Roman,serif" font-size="14.00">4</text>
</g>
<!-- battery1_0_2&#45;&gt;battery1_2_0 -->
<g id="edge7" class="edge"><title>battery1_0_2&#45;&gt;battery1_2_0</title>
<path fill="none" stroke="#000000" stroke-opacity="0.333333" d="M-47.6308,-199.937C-47.6308,-145.085 -47.6308,18.3971 -47.6308,84.6391"/>
<polygon fill="none" stroke="#000000" stroke-opacity="0.333333" points="-44.1307,84.7626 -47.6308,94.7626 -51.1307,84.7626 -44.1307,84.7626"/>
</g>
<!-- battery1_0_2&#45;&gt;battery1_0_0 -->
<g id="edge8" class="edge"><title>battery1_0_2&#45;&gt;battery1_0_0</title>
<path fill="none" stroke="#000000" stroke-opacity="0.333333" d="M-47.6308,-236.384C-47.6308,-244.084 -47.6308,-253.241 -47.6308,-261.799"/>
<polygon fill="none" stroke="#000000" stroke-opacity="0.333333" points="-51.1307,-261.802 -47.6308,-271.802 -44.1307,-261.802 -51.1307,-261.802"/>
</g>
<!-- battery0_1_0 -->
<g id="node7" class="node"><title>battery0_1_0</title>
<ellipse fill="yellow" stroke="black" cx="-249.231" cy="-88.6154" rx="27" ry="18"/>
<text text-anchor="middle" x="-249.231" y="-84.9154" font-family="Times New Roman,serif" font-size="14.00">0,4</text>
</g>
<!-- battery0_2_0 -->
<g id="node8" class="node"><title>battery0_2_0</title>
<ellipse fill="yellow" stroke="black" cx="-249.231" cy="112.985" rx="27" ry="18"/>
<text text-anchor="middle" x="-249.231" y="116.685" font-family="Times New Roman,serif" font-size="14.00">0,5</text>
</g>
<!-- battery2_0_0 -->
<g id="node9" class="node"><title>battery2_0_0</title>
<ellipse fill="yellow" stroke="black" cx="153.969" cy="-290.215" rx="27" ry="18"/>
<text text-anchor="middle" x="153.969" y="-286.515" font-family="Times New Roman,serif" font-size="14.00">0,6</text>
</g>
<!-- battery3_1_0 -->
<g id="node10" class="node"><title>battery3_1_0</title>
<ellipse fill="yellow" stroke="black" cx="355.569" cy="-88.6154" rx="27" ry="18"/>
<text text-anchor="middle" x="355.569" y="-84.9154" font-family="Times New Roman,serif" font-size="14.00">0,7</text>
</g>
<!-- battery2_2_0 -->
<g id="node11" class="node"><title>battery2_2_0</title>
<ellipse fill="yellow" stroke="black" cx="153.969" cy="112.985" rx="27" ry="18"/>
<text text-anchor="middle" x="153.969" y="116.685" font-family="Times New Roman,serif" font-size="14.00">0,8</text>
</g>
<!-- battery1_3_0 -->
<g id="node12" class="node"><title>battery1_3_0</title>
<ellipse fill="none" stroke="black" cx="-47.6308" cy="314.585" rx="27" ry="18"/>
<text text-anchor="middle" x="-47.6308" y="318.285" font-family="Times New Roman,serif" font-size="14.00">0,&#45;1</text>
</g>
<!-- battery1_3_1 -->
<g id="node13" class="node"><title>battery1_3_1</title>
<ellipse fill="green" stroke="black" cx="24.3692" cy="314.585" rx="27" ry="18"/>
<text text-anchor="middle" x="24.3692" y="318.285" font-family="Times New Roman,serif" font-size="14.00">1,9</text>
</g>
<!-- battery1_3_0&#45;&gt;battery1_3_1 -->
<g id="edge10" class="edge"><title>battery1_3_0&#45;&gt;battery1_3_1</title>
<path fill="none" stroke="orange" d="M-20.4107,314.585C-17.9914,314.585 -15.5159,314.585 -13.0314,314.585"/>
<polygon fill="orange" stroke="orange" points="-12.8893,311.085 -2.88937,314.585 -12.8894,318.085 -12.8893,311.085"/>
<text text-anchor="middle" x="-13.221" y="325.785" font-family="Times New Roman,serif" font-size="14.00">0</text>
</g>
<!-- battery1_3_1&#45;&gt;battery1_2_0 -->
<g id="edge9" class="edge"><title>battery1_3_1&#45;&gt;battery1_2_0</title>
<path fill="none" stroke="red" d="M18.1057,297.047C5.52603,261.824 -22.8871,182.267 -37.9052,140.216"/>
<polygon fill="red" stroke="red" points="-41.2631,141.22 -41.3304,130.626 -34.6709,138.866 -41.2631,141.22"/>
<text text-anchor="middle" x="-13.3998" y="214.831" font-family="Times New Roman,serif" font-size="14.00">1</text>
</g>
</g>
</svg>
