<?xml version="1.0" encoding="UTF-8" standalone="no"?>
<!DOCTYPE svg PUBLIC "-//W3C//DTD SVG 1.1//EN"
 "http://www.w3.org/Graphics/SVG/1.1/DTD/svg11.dtd">
<!-- Generated by graphviz version 2.38.0 (20140413.2041)
 -->
<!-- Title: sonderfall_abb13.txt Pages: 1 -->
<svg width="667pt" height="649pt"
 viewBox="0.00 0.00 666.80 648.80" xmlns="http://www.w3.org/2000/svg" xmlns:xlink="http://www.w3.org/1999/xlink">
<g id="graph0" class="graph" transform="scale(1 1) rotate(0) translate(345.259 287.976)">
<title>sonderfall_abb13.txt</title>
<polygon fill="white" stroke="none" points="-345.259,360.824 -345.259,-287.976 321.541,-287.976 321.541,360.824 -345.259,360.824"/>
<g id="clust1" class="cluster"><title>cluster1_0</title>
<polygon fill="none" stroke="black" points="-139.659,-247.976 -139.659,-283.976 -85.6588,-283.976 -85.6588,-247.976 -139.659,-247.976"/>
<text text-anchor="middle" x="-112.659" y="-268.776" font-family="Times New Roman,serif" font-size="14.00">1,0</text>
</g>
<g id="clust7" class="cluster"><title>cluster1_1</title>
<polygon fill="none" stroke="black" points="-139.659,25.6235 -139.659,-82.3765 58.3412,-82.3765 58.3412,25.6235 -139.659,25.6235"/>
<text text-anchor="middle" x="-40.6588" y="-67.1765" font-family="Times New Roman,serif" font-size="14.00">1,1</text>
</g>
<g id="clust6" class="cluster"><title>cluster2_0</title>
<polygon fill="none" stroke="black" points="61.9412,-247.976 61.9412,-283.976 115.941,-283.976 115.941,-247.976 61.9412,-247.976"/>
<text text-anchor="middle" x="88.9412" y="-268.776" font-family="Times New Roman,serif" font-size="14.00">2,0</text>
</g>
<g id="clust2" class="cluster"><title>cluster0_2</title>
<polygon fill="none" stroke="black" points="-341.259,155.224 -341.259,119.224 -287.259,119.224 -287.259,155.224 -341.259,155.224"/>
<text text-anchor="middle" x="-314.259" y="134.424" font-family="Times New Roman,serif" font-size="14.00">0,2</text>
</g>
<g id="clust3" class="cluster"><title>cluster2_2</title>
<polygon fill="none" stroke="black" points="61.9412,155.224 61.9412,119.224 115.941,119.224 115.941,155.224 61.9412,155.224"/>
<text text-anchor="middle" x="88.9412" y="134.424" font-family="Times New Roman,serif" font-size="14.00">2,2</text>
</g>
<g id="clust4" class="cluster"><title>cluster1_3</title>
<polygon fill="none" stroke="black" points="-139.659,356.824 -139.659,320.824 -85.6588,320.824 -85.6588,356.824 -139.659,356.824"/>
<text text-anchor="middle" x="-112.659" y="336.024" font-family="Times New Roman,serif" font-size="14.00">1,3</text>
</g>
<g id="clust5" class="cluster"><title>cluster3_1</title>
<polygon fill="none" stroke="black" points="263.541,-46.3765 263.541,-82.3765 317.541,-82.3765 317.541,-46.3765 263.541,-46.3765"/>
<text text-anchor="middle" x="290.541" y="-67.1765" font-family="Times New Roman,serif" font-size="14.00">3,1</text>
</g>
<g id="clust8" class="cluster"><title>cluster2_1</title>
<polygon fill="none" stroke="black" points="61.9412,25.6235 61.9412,-82.3765 187.941,-82.3765 187.941,25.6235 61.9412,25.6235"/>
<text text-anchor="middle" x="124.941" y="-67.1765" font-family="Times New Roman,serif" font-size="14.00">2,1</text>
</g>
<g id="clust9" class="cluster"><title>cluster1_2</title>
<polygon fill="none" stroke="black" points="-139.659,155.224 -139.659,119.224 -13.6588,119.224 -13.6588,155.224 -139.659,155.224"/>
<text text-anchor="middle" x="-76.6588" y="134.424" font-family="Times New Roman,serif" font-size="14.00">1,2</text>
</g>
<!-- battery1_0_0 -->
<g id="node1" class="node"><title>battery1_0_0</title>
<ellipse fill="yellow" stroke="black" cx="-112.659" cy="-265.976" rx="27" ry="18"/>
<text text-anchor="middle" x="-112.659" y="-262.276" font-family="Times New Roman,serif" font-size="14.00">0,0</text>
</g>
<!-- battery0_2_0 -->
<g id="node2" class="node"><title>battery0_2_0</title>
<ellipse fill="yellow" stroke="black" cx="-314.259" cy="137.224" rx="27" ry="18"/>
<text text-anchor="middle" x="-314.259" y="140.924" font-family="Times New Roman,serif" font-size="14.00">0,1</text>
</g>
<!-- battery2_2_0 -->
<g id="node3" class="node"><title>battery2_2_0</title>
<ellipse fill="yellow" stroke="black" cx="88.9412" cy="137.224" rx="27" ry="18"/>
<text text-anchor="middle" x="88.9412" y="140.924" font-family="Times New Roman,serif" font-size="14.00">0,2</text>
</g>
<!-- battery1_3_0 -->
<g id="node4" class="node"><title>battery1_3_0</title>
<ellipse fill="yellow" stroke="black" cx="-112.659" cy="338.824" rx="27" ry="18"/>
<text text-anchor="middle" x="-112.659" y="342.524" font-family="Times New Roman,serif" font-size="14.00">0,3</text>
</g>
<!-- battery3_1_0 -->
<g id="node5" class="node"><title>battery3_1_0</title>
<ellipse fill="yellow" stroke="black" cx="290.541" cy="-64.3765" rx="27" ry="18"/>
<text text-anchor="middle" x="290.541" y="-60.6765" font-family="Times New Roman,serif" font-size="14.00">0,4</text>
</g>
<!-- battery2_0_0 -->
<g id="node6" class="node"><title>battery2_0_0</title>
<ellipse fill="yellow" stroke="black" cx="88.9412" cy="-265.976" rx="27" ry="18"/>
<text text-anchor="middle" x="88.9412" y="-262.276" font-family="Times New Roman,serif" font-size="14.00">0,5</text>
</g>
<!-- battery1_1_0 -->
<g id="node7" class="node"><title>battery1_1_0</title>
<ellipse fill="none" stroke="black" cx="-112.659" cy="-64.3765" rx="27" ry="18"/>
<text text-anchor="middle" x="-112.659" y="-60.6765" font-family="Times New Roman,serif" font-size="14.00">0,&#45;1</text>
</g>
<!-- battery1_1_2 -->
<g id="node9" class="node"><title>battery1_1_2</title>
<ellipse fill="none" stroke="black" cx="31.3412" cy="-64.3765" rx="27" ry="18"/>
<text text-anchor="middle" x="31.3412" y="-60.6765" font-family="Times New Roman,serif" font-size="14.00">2,13</text>
</g>
<!-- battery1_1_0&#45;&gt;battery1_1_2 -->
<g id="edge18" class="edge"><title>battery1_1_0&#45;&gt;battery1_1_2</title>
<path fill="none" stroke="orange" d="M-86.5815,-69.7165C-63.6441,-71.3729 -30.0348,-71.5699 -4.55953,-70.3074"/>
<polygon fill="orange" stroke="orange" points="-4.31295,-73.799 5.45786,-69.7025 -4.73496,-66.8117 -4.31295,-73.799"/>
<text text-anchor="middle" x="-52.5705" y="-73.812" font-family="Times New Roman,serif" font-size="14.00">10</text>
</g>
<!-- battery1_1_1 -->
<g id="node8" class="node"><title>battery1_1_1</title>
<ellipse fill="none" stroke="black" cx="-40.6588" cy="-64.3765" rx="27" ry="18"/>
<text text-anchor="middle" x="-40.6588" y="-60.6765" font-family="Times New Roman,serif" font-size="14.00">1,8</text>
</g>
<!-- battery1_1_4 -->
<g id="node11" class="node"><title>battery1_1_4</title>
<ellipse fill="none" stroke="black" cx="-40.6588" cy="7.62353" rx="27" ry="18"/>
<text text-anchor="middle" x="-40.6588" y="11.3235" font-family="Times New Roman,serif" font-size="14.00">4,11</text>
</g>
<!-- battery1_1_1&#45;&gt;battery1_1_4 -->
<g id="edge15" class="edge"><title>battery1_1_1&#45;&gt;battery1_1_4</title>
<path fill="none" stroke="orange" d="M-40.6588,-46.2078C-40.6588,-38.5074 -40.6588,-29.3508 -40.6588,-20.7931"/>
<polygon fill="orange" stroke="orange" points="-37.1587,-20.7897 -40.6588,-10.7897 -44.1587,-20.7898 -37.1587,-20.7897"/>
<text text-anchor="middle" x="-44.1588" y="-22.3005" font-family="Times New Roman,serif" font-size="14.00">4</text>
</g>
<!-- battery2_1_0 -->
<g id="node12" class="node"><title>battery2_1_0</title>
<ellipse fill="none" stroke="black" cx="88.9412" cy="-64.3765" rx="27" ry="18"/>
<text text-anchor="middle" x="88.9412" y="-60.6765" font-family="Times New Roman,serif" font-size="14.00">0,&#45;1</text>
</g>
<!-- battery1_1_1&#45;&gt;battery2_1_0 -->
<g id="edge3" class="edge"><title>battery1_1_1&#45;&gt;battery2_1_0</title>
<path fill="none" stroke="red" d="M-13.4904,-64.3765C5.43158,-64.3765 30.9049,-64.3765 51.7146,-64.3765"/>
<polygon fill="red" stroke="red" points="51.8086,-67.8766 61.8085,-64.3765 51.8085,-60.8766 51.8086,-67.8766"/>
<text text-anchor="middle" x="15.6121" y="-68.1765" font-family="Times New Roman,serif" font-size="14.00">7</text>
</g>
<!-- battery1_1_2&#45;&gt;battery1_1_0 -->
<g id="edge8" class="edge"><title>battery1_1_2&#45;&gt;battery1_1_0</title>
<path fill="none" stroke="#000000" stroke-opacity="0.333333" d="M5.26386,-59.0364C-17.6735,-57.38 -51.2828,-57.1831 -76.7581,-58.4455"/>
<polygon fill="none" stroke="#000000" stroke-opacity="0.333333" points="-77.0047,-54.954 -86.7755,-59.0505 -76.5827,-61.9412 -77.0047,-54.954"/>
</g>
<!-- battery1_1_2&#45;&gt;battery1_1_1 -->
<g id="edge16" class="edge"><title>battery1_1_2&#45;&gt;battery1_1_1</title>
<path fill="none" stroke="orange" d="M4.12106,-64.3765C1.70184,-64.3765 -0.773712,-64.3765 -3.25818,-64.3765"/>
<polygon fill="orange" stroke="orange" points="-3.40019,-60.8766 -13.4002,-64.3765 -3.40026,-67.8766 -3.40019,-60.8766"/>
<text text-anchor="middle" x="-3.06856" y="-68.1765" font-family="Times New Roman,serif" font-size="14.00">6</text>
</g>
<!-- battery2_1_1 -->
<g id="node13" class="node"><title>battery2_1_1</title>
<ellipse fill="yellow" stroke="black" cx="160.941" cy="-64.3765" rx="27" ry="18"/>
<text text-anchor="middle" x="160.941" y="-60.6765" font-family="Times New Roman,serif" font-size="14.00">1,9</text>
</g>
<!-- battery1_1_2&#45;&gt;battery2_1_1 -->
<g id="edge7" class="edge"><title>battery1_1_2&#45;&gt;battery2_1_1</title>
<path fill="none" stroke="#000000" stroke-opacity="0.333333" d="M58.5096,-64.3765C77.4316,-64.3765 102.905,-64.3765 123.715,-64.3765"/>
<polygon fill="none" stroke="#000000" stroke-opacity="0.333333" points="123.809,-67.8766 133.809,-64.3765 123.809,-60.8766 123.809,-67.8766"/>
</g>
<!-- battery1_1_3 -->
<g id="node10" class="node"><title>battery1_1_3</title>
<ellipse fill="yellow" stroke="black" cx="-112.659" cy="7.62353" rx="27" ry="18"/>
<text text-anchor="middle" x="-112.659" y="11.3235" font-family="Times New Roman,serif" font-size="14.00">3,6</text>
</g>
<!-- battery1_1_3&#45;&gt;battery1_1_1 -->
<g id="edge2" class="edge"><title>battery1_1_3&#45;&gt;battery1_1_1</title>
<path fill="none" stroke="red" d="M-97.3895,-7.64582C-87.4618,-17.5735 -74.3435,-30.6918 -63.2225,-41.8128"/>
<polygon fill="red" stroke="red" points="-65.4521,-44.5329 -55.9062,-49.1291 -60.5024,-39.5832 -65.4521,-44.5329"/>
<text text-anchor="middle" x="-83.806" y="-28.5293" font-family="Times New Roman,serif" font-size="14.00">3</text>
</g>
<!-- battery2_1_2 -->
<g id="node14" class="node"><title>battery2_1_2</title>
<ellipse fill="none" stroke="black" cx="88.9412" cy="7.62353" rx="27" ry="18"/>
<text text-anchor="middle" x="88.9412" y="11.3235" font-family="Times New Roman,serif" font-size="14.00">2,7</text>
</g>
<!-- battery1_1_3&#45;&gt;battery2_1_2 -->
<g id="edge1" class="edge"><title>battery1_1_3&#45;&gt;battery2_1_2</title>
<path fill="none" stroke="#000000" stroke-opacity="0.333333" d="M-85.4701,7.62353C-50.0511,7.62353 12.0297,7.62353 51.7765,7.62353"/>
<polygon fill="none" stroke="#000000" stroke-opacity="0.333333" points="51.8621,4.12343 61.8621,7.62353 51.862,11.1234 51.8621,4.12343"/>
</g>
<!-- battery1_1_4&#45;&gt;battery1_1_0 -->
<g id="edge6" class="edge"><title>battery1_1_4&#45;&gt;battery1_1_0</title>
<path fill="none" stroke="#000000" stroke-opacity="0.333333" d="M-55.9282,-7.64582C-65.8558,-17.5735 -78.9741,-30.6918 -90.0952,-41.8128"/>
<polygon fill="none" stroke="#000000" stroke-opacity="0.333333" points="-92.8153,-39.5832 -97.4115,-49.1291 -87.8655,-44.5329 -92.8153,-39.5832"/>
</g>
<!-- battery1_1_4&#45;&gt;battery1_1_2 -->
<g id="edge5" class="edge"><title>battery1_1_4&#45;&gt;battery1_1_2</title>
<path fill="none" stroke="red" d="M-25.3895,-7.64582C-15.4618,-17.5735 -2.34352,-30.6918 8.77751,-41.8128"/>
<polygon fill="red" stroke="red" points="6.54786,-44.5329 16.0938,-49.1291 11.4976,-39.5832 6.54786,-44.5329"/>
<text text-anchor="middle" x="-11.806" y="-28.5293" font-family="Times New Roman,serif" font-size="14.00">5</text>
</g>
<!-- battery1_1_4&#45;&gt;battery1_1_3 -->
<g id="edge14" class="edge"><title>battery1_1_4&#45;&gt;battery1_1_3</title>
<path fill="none" stroke="orange" d="M-67.8789,7.62353C-70.2982,7.62353 -72.7737,7.62353 -75.2582,7.62353"/>
<polygon fill="orange" stroke="orange" points="-75.4002,11.1234 -85.4002,7.62353 -75.4003,4.12343 -75.4002,11.1234"/>
<text text-anchor="middle" x="-75.0686" y="3.82353" font-family="Times New Roman,serif" font-size="14.00">2</text>
</g>
<!-- battery2_1_3 -->
<g id="node15" class="node"><title>battery2_1_3</title>
<ellipse fill="none" stroke="black" cx="160.941" cy="7.62353" rx="27" ry="18"/>
<text text-anchor="middle" x="160.941" y="11.3235" font-family="Times New Roman,serif" font-size="14.00">3,12</text>
</g>
<!-- battery1_1_4&#45;&gt;battery2_1_3 -->
<g id="edge4" class="edge"><title>battery1_1_4&#45;&gt;battery2_1_3</title>
<path fill="none" stroke="#000000" stroke-opacity="0.333333" d="M-13.4702,7.62353C21.9489,7.62353 84.0297,7.62353 123.777,7.62353"/>
<polygon fill="none" stroke="#000000" stroke-opacity="0.333333" points="123.862,4.12343 133.862,7.62353 123.862,11.1234 123.862,4.12343"/>
</g>
<!-- battery2_1_0&#45;&gt;battery2_1_1 -->
<g id="edge17" class="edge"><title>battery2_1_0&#45;&gt;battery2_1_1</title>
<path fill="none" stroke="orange" d="M116.161,-64.3765C118.581,-64.3765 121.056,-64.3765 123.541,-64.3765"/>
<polygon fill="orange" stroke="orange" points="123.683,-67.8766 133.683,-64.3765 123.683,-60.8766 123.683,-67.8766"/>
<text text-anchor="middle" x="123.351" y="-53.1765" font-family="Times New Roman,serif" font-size="14.00">8</text>
</g>
<!-- battery2_1_1&#45;&gt;battery1_1_0 -->
<g id="edge10" class="edge"><title>battery2_1_1&#45;&gt;battery1_1_0</title>
<path fill="none" stroke="red" d="M133.707,-64.3765C84.4388,-64.3765 -19.5473,-64.3765 -75.3695,-64.3765"/>
<polygon fill="red" stroke="red" points="-75.5348,-60.8766 -85.5349,-64.3765 -75.5349,-67.8766 -75.5348,-60.8766"/>
<text text-anchor="middle" x="25.6688" y="-68.1765" font-family="Times New Roman,serif" font-size="14.00">9</text>
</g>
<!-- battery2_1_2&#45;&gt;battery1_1_1 -->
<g id="edge9" class="edge"><title>battery2_1_2&#45;&gt;battery1_1_1</title>
<path fill="none" stroke="#000000" stroke-opacity="0.333333" d="M68.1187,-3.94452C46.6736,-15.8585 13.0614,-34.5319 -11.1249,-47.9687"/>
<polygon fill="none" stroke="#000000" stroke-opacity="0.333333" points="-12.8462,-44.9211 -19.888,-52.8371 -9.44666,-51.0402 -12.8462,-44.9211"/>
</g>
<!-- battery2_1_3&#45;&gt;battery1_1_2 -->
<g id="edge11" class="edge"><title>battery2_1_3&#45;&gt;battery1_1_2</title>
<path fill="none" stroke="#000000" stroke-opacity="0.333333" d="M140.119,-3.94452C118.674,-15.8585 85.0614,-34.5319 60.8751,-47.9687"/>
<polygon fill="none" stroke="#000000" stroke-opacity="0.333333" points="59.1538,-44.9211 52.112,-52.8371 62.5533,-51.0402 59.1538,-44.9211"/>
</g>
<!-- battery1_2_0 -->
<g id="node16" class="node"><title>battery1_2_0</title>
<ellipse fill="none" stroke="black" cx="-112.659" cy="137.224" rx="27" ry="18"/>
<text text-anchor="middle" x="-112.659" y="140.924" font-family="Times New Roman,serif" font-size="14.00">0,&#45;1</text>
</g>
<!-- battery1_2_5 -->
<g id="node17" class="node"><title>battery1_2_5</title>
<ellipse fill="green" stroke="black" cx="-40.6588" cy="137.224" rx="27" ry="18"/>
<text text-anchor="middle" x="-40.6588" y="140.924" font-family="Times New Roman,serif" font-size="14.00">5,10</text>
</g>
<!-- battery1_2_0&#45;&gt;battery1_2_5 -->
<g id="edge13" class="edge"><title>battery1_2_0&#45;&gt;battery1_2_5</title>
<path fill="none" stroke="orange" d="M-85.4387,137.224C-83.0195,137.224 -80.5439,137.224 -78.0595,137.224"/>
<polygon fill="orange" stroke="orange" points="-77.9174,133.723 -67.9174,137.224 -77.9175,140.723 -77.9174,133.723"/>
<text text-anchor="middle" x="-78.2491" y="148.424" font-family="Times New Roman,serif" font-size="14.00">0</text>
</g>
<!-- battery1_2_5&#45;&gt;battery1_1_4 -->
<g id="edge12" class="edge"><title>battery1_2_5&#45;&gt;battery1_1_4</title>
<path fill="none" stroke="red" d="M-40.6588,119.203C-40.6588,97.6595 -40.6588,61.3445 -40.6588,36.016"/>
<polygon fill="red" stroke="red" points="-44.1587,35.9086 -40.6588,25.9086 -37.1587,35.9086 -44.1587,35.9086"/>
<text text-anchor="middle" x="-44.1588" y="73.8096" font-family="Times New Roman,serif" font-size="14.00">1</text>
</g>
</g>
</svg>
