<?xml version="1.0" encoding="UTF-8" standalone="no"?>
<!DOCTYPE svg PUBLIC "-//W3C//DTD SVG 1.1//EN"
 "http://www.w3.org/Graphics/SVG/1.1/DTD/svg11.dtd">
<!-- Generated by graphviz version 2.43.0 (0)
 -->
<!-- Title: stromrallye3.txt_fields Pages: 1 -->
<svg width="793pt" height="2115pt"
 viewBox="0.00 0.00 793.39 2114.51" xmlns="http://www.w3.org/2000/svg" xmlns:xlink="http://www.w3.org/1999/xlink">
<g id="graph0" class="graph" transform="scale(1 1) rotate(0) translate(4 2110.51)">
<title>stromrallye3.txt_fields</title>
<polygon fill="white" stroke="transparent" points="-4,4 -4,-2110.51 789.39,-2110.51 789.39,4 -4,4"/>
<!-- 5_3 -->
<g id="node1" class="node">
<title>5_3</title>
<ellipse fill="none" stroke="black" cx="669.18" cy="-1658.05" rx="64.27" ry="45.01"/>
<text text-anchor="middle" x="669.18" y="-1674.85" font-family="Times,serif" font-size="14.00">5,3</text>
<text text-anchor="middle" x="669.18" y="-1660.85" font-family="Times,serif" font-size="14.00">ic: 4</text>
<text text-anchor="middle" x="669.18" y="-1646.85" font-family="Times,serif" font-size="14.00">free: 5,2;6,2</text>
<text text-anchor="middle" x="669.18" y="-1632.85" font-family="Times,serif" font-size="14.00">swlolw: none</text>
</g>
<!-- 5_3&#45;&gt;5_3 -->
<g id="edge2" class="edge">
<title>5_3&#45;&gt;5_3</title>
<path fill="none" stroke="black" d="M733.09,-1664.36C744,-1663.5 751.57,-1661.39 751.57,-1658.05 751.57,-1655.92 748.46,-1654.28 743.36,-1653.16"/>
<polygon fill="black" stroke="black" points="743.47,-1649.64 733.09,-1651.75 742.52,-1656.58 743.47,-1649.64"/>
<text text-anchor="middle" x="768.48" y="-1653.85" font-family="Times,serif" font-size="14.00">2 &#160;(4) </text>
</g>
<!-- 4_11 -->
<g id="node2" class="node">
<title>4_11</title>
<ellipse fill="none" stroke="black" cx="467.58" cy="-45.25" rx="64.27" ry="45.01"/>
<text text-anchor="middle" x="467.58" y="-62.05" font-family="Times,serif" font-size="14.00">4,11</text>
<text text-anchor="middle" x="467.58" y="-48.05" font-family="Times,serif" font-size="14.00">ic: 10</text>
<text text-anchor="middle" x="467.58" y="-34.05" font-family="Times,serif" font-size="14.00">free: 4,10;4,9</text>
<text text-anchor="middle" x="467.58" y="-20.05" font-family="Times,serif" font-size="14.00">swlolw: none</text>
</g>
<!-- 5_3&#45;&gt;4_11 -->
<g id="edge3" class="edge">
<title>5_3&#45;&gt;4_11</title>
<path fill="none" stroke="black" d="M665.94,-1612.51C642.93,-1382.62 514.04,-350.86 477.14,-100.24"/>
<polygon fill="black" stroke="black" points="480.59,-99.65 475.66,-90.27 473.67,-100.68 480.59,-99.65"/>
<text text-anchor="middle" x="554.63" y="-859.17" font-family="Times,serif" font-size="14.00">9 &#160;(9) </text>
</g>
<!-- 5_1 -->
<g id="node3" class="node">
<title>5_1</title>
<ellipse fill="none" stroke="black" cx="669.18" cy="-2061.25" rx="64.27" ry="45.01"/>
<text text-anchor="middle" x="669.18" y="-2078.05" font-family="Times,serif" font-size="14.00">5,1</text>
<text text-anchor="middle" x="669.18" y="-2064.05" font-family="Times,serif" font-size="14.00">ic: 5</text>
<text text-anchor="middle" x="669.18" y="-2050.05" font-family="Times,serif" font-size="14.00">free: 5,0;6,0</text>
<text text-anchor="middle" x="669.18" y="-2036.05" font-family="Times,serif" font-size="14.00">swlolw: none</text>
</g>
<!-- 5_3&#45;&gt;5_1 -->
<g id="edge1" class="edge">
<title>5_3&#45;&gt;5_1</title>
<path fill="none" stroke="black" d="M664.72,-1703.52C661.8,-1777.83 661.68,-1925.06 664.35,-2005.53"/>
<polygon fill="black" stroke="black" points="660.87,-2006.09 664.73,-2015.95 667.86,-2005.83 660.87,-2006.09"/>
<text text-anchor="middle" x="647.62" y="-1857.33" font-family="Times,serif" font-size="14.00">2 &#160;(4) </text>
</g>
<!-- 4_11&#45;&gt;5_3 -->
<g id="edge5" class="edge">
<title>4_11&#45;&gt;5_3</title>
<path fill="none" stroke="black" d="M470.83,-90.8C493.84,-320.69 622.73,-1352.45 659.62,-1603.07"/>
<polygon fill="black" stroke="black" points="656.17,-1603.66 661.1,-1613.04 663.1,-1602.63 656.17,-1603.66"/>
<text text-anchor="middle" x="548.31" y="-835.74" font-family="Times,serif" font-size="14.00">9 &#160;(9) </text>
</g>
<!-- 4_11&#45;&gt;4_11 -->
<g id="edge4" class="edge">
<title>4_11&#45;&gt;4_11</title>
<path fill="none" stroke="black" d="M531.49,-51.56C542.4,-50.7 549.97,-48.59 549.97,-45.25 549.97,-43.12 546.86,-41.48 541.76,-40.36"/>
<polygon fill="black" stroke="black" points="541.87,-36.84 531.49,-38.95 540.92,-43.78 541.87,-36.84"/>
<text text-anchor="middle" x="566.88" y="-41.05" font-family="Times,serif" font-size="14.00">2 &#160;(4) </text>
</g>
<!-- 4_11&#45;&gt;5_1 -->
<g id="edge6" class="edge">
<title>4_11&#45;&gt;5_1</title>
<path fill="none" stroke="black" d="M469.94,-90.89C490.59,-357.64 626.1,-1713.47 661.2,-2005.7"/>
<polygon fill="black" stroke="black" points="657.77,-2006.54 662.45,-2016.04 664.72,-2005.69 657.77,-2006.54"/>
<text text-anchor="middle" x="542.17" y="-1051.09" font-family="Times,serif" font-size="14.00">11 &#160;(11) </text>
</g>
<!-- 5_1&#45;&gt;5_3 -->
<g id="edge7" class="edge">
<title>5_1&#45;&gt;5_3</title>
<path fill="none" stroke="black" d="M673.65,-2015.79C676.57,-1941.48 676.69,-1794.25 674.02,-1713.78"/>
<polygon fill="black" stroke="black" points="677.5,-1713.22 673.64,-1703.36 670.5,-1713.48 677.5,-1713.22"/>
<text text-anchor="middle" x="690.74" y="-1867.58" font-family="Times,serif" font-size="14.00">2 &#160;(4) </text>
</g>
<!-- 5_1&#45;&gt;4_11 -->
<g id="edge9" class="edge">
<title>5_1&#45;&gt;4_11</title>
<path fill="none" stroke="black" d="M666.83,-2015.62C646.18,-1748.87 510.67,-393.04 475.57,-100.81"/>
<polygon fill="black" stroke="black" points="478.99,-99.97 474.31,-90.47 472.04,-100.82 478.99,-99.97"/>
<text text-anchor="middle" x="594.6" y="-1061.02" font-family="Times,serif" font-size="14.00">11 &#160;(11) </text>
</g>
<!-- 5_1&#45;&gt;5_1 -->
<g id="edge8" class="edge">
<title>5_1&#45;&gt;5_1</title>
<path fill="none" stroke="black" d="M733.09,-2067.56C744,-2066.7 751.57,-2064.59 751.57,-2061.25 751.57,-2059.12 748.46,-2057.48 743.36,-2056.36"/>
<polygon fill="black" stroke="black" points="743.47,-2052.84 733.09,-2054.95 742.52,-2059.78 743.47,-2052.84"/>
<text text-anchor="middle" x="768.48" y="-2057.05" font-family="Times,serif" font-size="14.00">2 &#160;(4) </text>
</g>
<!-- 2_4 -->
<g id="node4" class="node">
<title>2_4</title>
<ellipse fill="green" stroke="black" cx="64.38" cy="-1456.45" rx="64.27" ry="45.01"/>
<text text-anchor="middle" x="64.38" y="-1473.25" font-family="Times,serif" font-size="14.00">2,4</text>
<text text-anchor="middle" x="64.38" y="-1459.25" font-family="Times,serif" font-size="14.00">ic: 9</text>
<text text-anchor="middle" x="64.38" y="-1445.25" font-family="Times,serif" font-size="14.00">free: 2,3;2,2</text>
<text text-anchor="middle" x="64.38" y="-1431.25" font-family="Times,serif" font-size="14.00">swlolw: none</text>
</g>
<!-- 2_4&#45;&gt;5_3 -->
<g id="edge10" class="edge">
<title>2_4&#45;&gt;5_3</title>
<path fill="none" stroke="black" d="M122.65,-1475.88C235.1,-1513.36 481.48,-1595.49 601.2,-1635.39"/>
<polygon fill="black" stroke="black" points="600.4,-1638.82 610.99,-1638.66 602.61,-1632.17 600.4,-1638.82"/>
<text text-anchor="middle" x="345.01" y="-1558.43" font-family="Times,serif" font-size="14.00">4 &#160;(4) </text>
</g>
<!-- 2_4&#45;&gt;4_11 -->
<g id="edge12" class="edge">
<title>2_4&#45;&gt;4_11</title>
<path fill="none" stroke="black" d="M77.12,-1411.89C136.6,-1203.69 386.98,-327.35 452.07,-99.56"/>
<polygon fill="black" stroke="black" points="455.47,-100.41 454.85,-89.83 448.73,-98.48 455.47,-100.41"/>
<text text-anchor="middle" x="247.68" y="-758.52" font-family="Times,serif" font-size="14.00">9 &#160;(9) </text>
</g>
<!-- 2_4&#45;&gt;5_1 -->
<g id="edge11" class="edge">
<title>2_4&#45;&gt;5_1</title>
<path fill="none" stroke="black" d="M101.76,-1493.83C207.85,-1599.93 510.56,-1902.63 624.81,-2016.88"/>
<polygon fill="black" stroke="black" points="622.51,-2019.53 632.06,-2024.13 627.46,-2014.58 622.51,-2019.53"/>
<text text-anchor="middle" x="346.37" y="-1758.16" font-family="Times,serif" font-size="14.00">6 &#160;(6) </text>
</g>
</g>
</svg>
