<?xml version="1.0" encoding="UTF-8" standalone="no"?>
<!DOCTYPE svg PUBLIC "-//W3C//DTD SVG 1.1//EN"
 "http://www.w3.org/Graphics/SVG/1.1/DTD/svg11.dtd">
<!-- Generated by graphviz version 2.43.0 (0)
 -->
<!-- Title: stromrallye0.txt_fields Pages: 1 -->
<svg width="995pt" height="905pt"
 viewBox="0.00 0.00 994.99 904.91" xmlns="http://www.w3.org/2000/svg" xmlns:xlink="http://www.w3.org/1999/xlink">
<g id="graph0" class="graph" transform="scale(1 1) rotate(0) translate(4 900.91)">
<title>stromrallye0.txt_fields</title>
<polygon fill="white" stroke="transparent" points="-4,4 -4,-900.91 990.99,-900.91 990.99,4 -4,4"/>
<!-- 4_0 -->
<g id="node1" class="node">
<title>4_0</title>
<ellipse fill="none" stroke="black" cx="870.78" cy="-851.65" rx="64.27" ry="45.01"/>
<text text-anchor="middle" x="870.78" y="-868.45" font-family="Times,serif" font-size="14.00">4,0</text>
<text text-anchor="middle" x="870.78" y="-854.45" font-family="Times,serif" font-size="14.00">ic: 3</text>
<text text-anchor="middle" x="870.78" y="-840.45" font-family="Times,serif" font-size="14.00">free: 3,0;2,0</text>
<text text-anchor="middle" x="870.78" y="-826.45" font-family="Times,serif" font-size="14.00">swlolw: none</text>
</g>
<!-- 4_0&#45;&gt;4_0 -->
<g id="edge1" class="edge">
<title>4_0&#45;&gt;4_0</title>
<path fill="none" stroke="black" d="M934.69,-857.96C945.6,-857.1 953.17,-854.99 953.17,-851.65 953.17,-849.52 950.06,-847.88 944.96,-846.76"/>
<polygon fill="black" stroke="black" points="945.07,-843.24 934.69,-845.35 944.12,-850.18 945.07,-843.24"/>
<text text-anchor="middle" x="970.08" y="-847.45" font-family="Times,serif" font-size="14.00">2 &#160;(4) </text>
</g>
<!-- 0_1 -->
<g id="node2" class="node">
<title>0_1</title>
<ellipse fill="none" stroke="black" cx="64.38" cy="-650.05" rx="64.27" ry="45.01"/>
<text text-anchor="middle" x="64.38" y="-666.85" font-family="Times,serif" font-size="14.00">0,1</text>
<text text-anchor="middle" x="64.38" y="-652.85" font-family="Times,serif" font-size="14.00">ic: 2</text>
<text text-anchor="middle" x="64.38" y="-638.85" font-family="Times,serif" font-size="14.00">free: 0,0;1,0</text>
<text text-anchor="middle" x="64.38" y="-624.85" font-family="Times,serif" font-size="14.00">swlolw: none</text>
</g>
<!-- 4_0&#45;&gt;0_1 -->
<g id="edge3" class="edge">
<title>4_0&#45;&gt;0_1</title>
<path fill="none" stroke="black" d="M811.74,-833.02C666.96,-792.81 294.67,-699.64 136.83,-664"/>
<polygon fill="black" stroke="black" points="137.28,-660.51 126.75,-661.73 135.74,-667.34 137.28,-660.51"/>
<text text-anchor="middle" x="457.38" y="-737.31" font-family="Times,serif" font-size="14.00">5 &#160;(5) </text>
</g>
<!-- 4_3 -->
<g id="node3" class="node">
<title>4_3</title>
<ellipse fill="none" stroke="black" cx="870.78" cy="-246.85" rx="64.27" ry="45.01"/>
<text text-anchor="middle" x="870.78" y="-263.65" font-family="Times,serif" font-size="14.00">4,3</text>
<text text-anchor="middle" x="870.78" y="-249.65" font-family="Times,serif" font-size="14.00">ic: 3</text>
<text text-anchor="middle" x="870.78" y="-235.65" font-family="Times,serif" font-size="14.00">free: 4,2;4,1</text>
<text text-anchor="middle" x="870.78" y="-221.65" font-family="Times,serif" font-size="14.00">swlolw: none</text>
</g>
<!-- 4_0&#45;&gt;4_3 -->
<g id="edge2" class="edge">
<title>4_0&#45;&gt;4_3</title>
<path fill="none" stroke="black" d="M874.56,-806.2C878.41,-697.26 878.52,-421.56 874.9,-302.75"/>
<polygon fill="black" stroke="black" points="878.39,-302.31 874.56,-292.43 871.39,-302.54 878.39,-302.31"/>
<text text-anchor="middle" x="857.82" y="-557.27" font-family="Times,serif" font-size="14.00">3 &#160;(3) </text>
</g>
<!-- 0_1&#45;&gt;4_0 -->
<g id="edge5" class="edge">
<title>0_1&#45;&gt;4_0</title>
<path fill="none" stroke="black" d="M123.42,-668.69C268.2,-708.89 640.5,-802.07 798.33,-837.71"/>
<polygon fill="black" stroke="black" points="797.89,-841.2 808.41,-839.97 799.42,-834.37 797.89,-841.2"/>
<text text-anchor="middle" x="443.97" y="-756" font-family="Times,serif" font-size="14.00">5 &#160;(5) </text>
</g>
<!-- 0_1&#45;&gt;0_1 -->
<g id="edge4" class="edge">
<title>0_1&#45;&gt;0_1</title>
<path fill="none" stroke="black" d="M128.29,-656.36C139.2,-655.5 146.77,-653.39 146.77,-650.05 146.77,-647.92 143.66,-646.28 138.56,-645.16"/>
<polygon fill="black" stroke="black" points="138.67,-641.64 128.29,-643.75 137.72,-648.58 138.67,-641.64"/>
<text text-anchor="middle" x="163.68" y="-645.85" font-family="Times,serif" font-size="14.00">2 &#160;(4) </text>
</g>
<!-- 0_1&#45;&gt;4_3 -->
<g id="edge6" class="edge">
<title>0_1&#45;&gt;4_3</title>
<path fill="none" stroke="black" d="M119.52,-626.49C265.58,-558.11 661.49,-360.23 811.82,-280.56"/>
<polygon fill="black" stroke="black" points="813.75,-283.5 820.93,-275.71 810.46,-277.32 813.75,-283.5"/>
<text text-anchor="middle" x="448.76" y="-456.32" font-family="Times,serif" font-size="14.00">6 &#160;(6) </text>
</g>
<!-- 4_3&#45;&gt;4_0 -->
<g id="edge8" class="edge">
<title>4_3&#45;&gt;4_0</title>
<path fill="none" stroke="black" d="M867.01,-292.31C863.16,-401.25 863.04,-676.95 866.67,-795.76"/>
<polygon fill="black" stroke="black" points="863.18,-796.2 867.01,-806.08 870.18,-795.97 863.18,-796.2"/>
<text text-anchor="middle" x="849.93" y="-532.84" font-family="Times,serif" font-size="14.00">3 &#160;(3) </text>
</g>
<!-- 4_3&#45;&gt;0_1 -->
<g id="edge9" class="edge">
<title>4_3&#45;&gt;0_1</title>
<path fill="none" stroke="black" d="M815.65,-270.42C669.59,-338.8 273.68,-536.68 123.35,-616.35"/>
<polygon fill="black" stroke="black" points="121.42,-613.41 114.23,-621.2 124.71,-619.59 121.42,-613.41"/>
<text text-anchor="middle" x="452.59" y="-432.19" font-family="Times,serif" font-size="14.00">6 &#160;(6) </text>
</g>
<!-- 4_3&#45;&gt;4_3 -->
<g id="edge7" class="edge">
<title>4_3&#45;&gt;4_3</title>
<path fill="none" stroke="black" d="M934.69,-253.16C945.6,-252.3 953.17,-250.19 953.17,-246.85 953.17,-244.72 950.06,-243.08 944.96,-241.96"/>
<polygon fill="black" stroke="black" points="945.07,-238.44 934.69,-240.55 944.12,-245.38 945.07,-238.44"/>
<text text-anchor="middle" x="970.08" y="-242.65" font-family="Times,serif" font-size="14.00">2 &#160;(4) </text>
</g>
<!-- 2_4 -->
<g id="node4" class="node">
<title>2_4</title>
<ellipse fill="green" stroke="black" cx="467.58" cy="-45.25" rx="64.27" ry="45.01"/>
<text text-anchor="middle" x="467.58" y="-62.05" font-family="Times,serif" font-size="14.00">2,4</text>
<text text-anchor="middle" x="467.58" y="-48.05" font-family="Times,serif" font-size="14.00">ic: 9</text>
<text text-anchor="middle" x="467.58" y="-34.05" font-family="Times,serif" font-size="14.00">free: 2,3;2,2</text>
<text text-anchor="middle" x="467.58" y="-20.05" font-family="Times,serif" font-size="14.00">swlolw: none</text>
</g>
<!-- 2_4&#45;&gt;4_0 -->
<g id="edge12" class="edge">
<title>2_4&#45;&gt;4_0</title>
<path fill="none" stroke="black" d="M488.98,-88.04C557.31,-224.7 770.18,-650.45 844.7,-799.49"/>
<polygon fill="black" stroke="black" points="841.59,-801.1 849.2,-808.48 847.86,-797.97 841.59,-801.1"/>
<text text-anchor="middle" x="649.93" y="-446.57" font-family="Times,serif" font-size="14.00">6 &#160;(6) </text>
</g>
<!-- 2_4&#45;&gt;0_1 -->
<g id="edge11" class="edge">
<title>2_4&#45;&gt;0_1</title>
<path fill="none" stroke="black" d="M440.19,-86.35C368.43,-193.99 175.17,-483.88 97.43,-600.48"/>
<polygon fill="black" stroke="black" points="94.45,-598.64 91.82,-608.9 100.28,-602.52 94.45,-598.64"/>
<text text-anchor="middle" x="251.9" y="-346.22" font-family="Times,serif" font-size="14.00">5 &#160;(5) </text>
</g>
<!-- 2_4&#45;&gt;4_3 -->
<g id="edge10" class="edge">
<title>2_4&#45;&gt;4_3</title>
<path fill="none" stroke="black" d="M520.29,-71.61C594.55,-108.74 729.69,-176.31 808.71,-215.82"/>
<polygon fill="black" stroke="black" points="807.55,-219.15 818.06,-220.49 810.68,-212.89 807.55,-219.15"/>
<text text-anchor="middle" x="647.59" y="-146.51" font-family="Times,serif" font-size="14.00">3 &#160;(3) </text>
</g>
</g>
</svg>
