<?xml version="1.0" encoding="UTF-8" standalone="no"?>
<!DOCTYPE svg PUBLIC "-//W3C//DTD SVG 1.1//EN"
 "http://www.w3.org/Graphics/SVG/1.1/DTD/svg11.dtd">
<!-- Generated by graphviz version 2.43.0 (0)
 -->
<!-- Title: stromrallye3.txt Pages: 1 -->
<svg width="811pt" height="2132pt"
 viewBox="0.00 0.00 810.80 2132.00" xmlns="http://www.w3.org/2000/svg" xmlns:xlink="http://www.w3.org/1999/xlink">
<g id="graph0" class="graph" transform="scale(1 1) rotate(0) translate(4 2128)">
<title>stromrallye3.txt</title>
<polygon fill="white" stroke="transparent" points="-4,4 -4,-2128 806.8,-2128 806.8,4 -4,4"/>
<g id="clust1" class="cluster">
<title>cluster5_3</title>
<polygon fill="none" stroke="black" points="604.8,-1612.8 604.8,-1720.8 802.8,-1720.8 802.8,-1612.8 604.8,-1612.8"/>
<text text-anchor="middle" x="703.8" y="-1705.6" font-family="Times,serif" font-size="14.00">5,3</text>
</g>
<g id="clust2" class="cluster">
<title>cluster4_11</title>
<polygon fill="none" stroke="black" points="403.2,0 403.2,-108 601.2,-108 601.2,0 403.2,0"/>
<text text-anchor="middle" x="502.2" y="-92.8" font-family="Times,serif" font-size="14.00">4,11</text>
</g>
<g id="clust3" class="cluster">
<title>cluster5_1</title>
<polygon fill="none" stroke="black" points="604.8,-2016 604.8,-2124 802.8,-2124 802.8,-2016 604.8,-2016"/>
<text text-anchor="middle" x="703.8" y="-2108.8" font-family="Times,serif" font-size="14.00">5,1</text>
</g>
<g id="clust4" class="cluster">
<title>cluster2_4</title>
<polygon fill="none" stroke="black" points="0,-1483.2 0,-1519.2 126,-1519.2 126,-1483.2 0,-1483.2"/>
<text text-anchor="middle" x="63" y="-1504" font-family="Times,serif" font-size="14.00">2,4</text>
</g>
<!-- battery5_3_0 -->
<g id="node1" class="node">
<title>battery5_3_0</title>
<ellipse fill="none" stroke="black" cx="631.8" cy="-1702.8" rx="27" ry="18"/>
<text text-anchor="middle" x="631.8" y="-1698.6" font-family="Times,serif" font-size="14.00">0,&#45;1</text>
</g>
<!-- battery5_3_1 -->
<g id="node2" class="node">
<title>battery5_3_1</title>
<ellipse fill="none" stroke="black" cx="703.8" cy="-1702.8" rx="27" ry="18"/>
<text text-anchor="middle" x="703.8" y="-1698.6" font-family="Times,serif" font-size="14.00">1,8</text>
</g>
<!-- battery5_3_2 -->
<g id="node3" class="node">
<title>battery5_3_2</title>
<ellipse fill="none" stroke="black" cx="775.8" cy="-1702.8" rx="27" ry="18"/>
<text text-anchor="middle" x="775.8" y="-1698.6" font-family="Times,serif" font-size="14.00">2,2</text>
</g>
<!-- battery5_3_2&#45;&gt;battery5_3_0 -->
<g id="edge6" class="edge">
<title>battery5_3_2&#45;&gt;battery5_3_0</title>
<path fill="none" stroke="#000000" stroke-opacity="0.333333" d="M748.71,-1702.8C726.33,-1702.8 694.3,-1702.8 669.43,-1702.8"/>
<polygon fill="transparent" stroke="#000000" stroke-opacity="0.333333" points="669.25,-1699.3 659.25,-1702.8 669.25,-1706.3 669.25,-1699.3"/>
</g>
<!-- battery5_1_0 -->
<g id="node13" class="node">
<title>battery5_1_0</title>
<ellipse fill="none" stroke="black" cx="631.8" cy="-2106" rx="27" ry="18"/>
<text text-anchor="middle" x="631.8" y="-2101.8" font-family="Times,serif" font-size="14.00">0,&#45;1</text>
</g>
<!-- battery5_3_2&#45;&gt;battery5_1_0 -->
<g id="edge5" class="edge">
<title>battery5_3_2&#45;&gt;battery5_1_0</title>
<path fill="none" stroke="#000000" stroke-opacity="0.333333" d="M769.52,-1720.38C746.83,-1783.92 668.98,-2001.89 641.5,-2078.84"/>
<polygon fill="transparent" stroke="#000000" stroke-opacity="0.333333" points="638.18,-2077.73 638.11,-2088.32 644.77,-2080.08 638.18,-2077.73"/>
</g>
<!-- battery5_3_3 -->
<g id="node4" class="node">
<title>battery5_3_3</title>
<ellipse fill="none" stroke="black" cx="631.8" cy="-1630.8" rx="27" ry="18"/>
<text text-anchor="middle" x="631.8" y="-1626.6" font-family="Times,serif" font-size="14.00">3,10</text>
</g>
<!-- battery5_3_3&#45;&gt;battery5_3_1 -->
<g id="edge8" class="edge">
<title>battery5_3_3&#45;&gt;battery5_3_1</title>
<path fill="none" stroke="#000000" stroke-opacity="0.333333" d="M647.07,-1646.07C657,-1656 670.12,-1669.12 681.24,-1680.24"/>
<polygon fill="transparent" stroke="#000000" stroke-opacity="0.333333" points="679.01,-1682.96 688.55,-1687.55 683.96,-1678.01 679.01,-1682.96"/>
</g>
<!-- battery5_1_1 -->
<g id="node14" class="node">
<title>battery5_1_1</title>
<ellipse fill="none" stroke="black" cx="703.8" cy="-2106" rx="27" ry="18"/>
<text text-anchor="middle" x="703.8" y="-2101.8" font-family="Times,serif" font-size="14.00">1,11</text>
</g>
<!-- battery5_3_3&#45;&gt;battery5_1_1 -->
<g id="edge7" class="edge">
<title>battery5_3_3&#45;&gt;battery5_1_1</title>
<path fill="none" stroke="#000000" stroke-opacity="0.333333" d="M634.53,-1648.85C645.48,-1721.11 686.2,-1989.87 699.54,-2077.89"/>
<polygon fill="transparent" stroke="#000000" stroke-opacity="0.333333" points="696.1,-2078.57 701.06,-2087.93 703.03,-2077.52 696.1,-2078.57"/>
</g>
<!-- battery5_3_4 -->
<g id="node5" class="node">
<title>battery5_3_4</title>
<ellipse fill="yellow" stroke="black" cx="703.8" cy="-1630.8" rx="27" ry="18"/>
<text text-anchor="middle" x="703.8" y="-1626.6" font-family="Times,serif" font-size="14.00">4,0</text>
</g>
<!-- battery5_3_4&#45;&gt;battery5_3_0 -->
<g id="edge4" class="edge">
<title>battery5_3_4&#45;&gt;battery5_3_0</title>
<path fill="none" stroke="#000000" stroke-opacity="0.333333" d="M688.53,-1646.07C678.6,-1656 665.48,-1669.12 654.36,-1680.24"/>
<polygon fill="transparent" stroke="#000000" stroke-opacity="0.333333" points="651.64,-1678.01 647.05,-1687.55 656.59,-1682.96 651.64,-1678.01"/>
</g>
<!-- battery5_3_4&#45;&gt;battery5_3_2 -->
<g id="edge3" class="edge">
<title>battery5_3_4&#45;&gt;battery5_3_2</title>
<path fill="none" stroke="#000000" stroke-opacity="0.333333" d="M719.07,-1646.07C729,-1656 742.12,-1669.12 753.24,-1680.24"/>
<polygon fill="transparent" stroke="#000000" stroke-opacity="0.333333" points="751.01,-1682.96 760.55,-1687.55 755.96,-1678.01 751.01,-1682.96"/>
</g>
<!-- battery5_3_4&#45;&gt;battery5_1_0 -->
<g id="edge2" class="edge">
<title>battery5_3_4&#45;&gt;battery5_1_0</title>
<path fill="none" stroke="#000000" stroke-opacity="0.333333" d="M701.07,-1648.85C690.12,-1721.11 649.4,-1989.87 636.06,-2077.89"/>
<polygon fill="transparent" stroke="#000000" stroke-opacity="0.333333" points="632.57,-2077.52 634.54,-2087.93 639.5,-2078.57 632.57,-2077.52"/>
</g>
<!-- battery5_1_2 -->
<g id="node15" class="node">
<title>battery5_1_2</title>
<ellipse fill="none" stroke="black" cx="775.8" cy="-2106" rx="27" ry="18"/>
<text text-anchor="middle" x="775.8" y="-2101.8" font-family="Times,serif" font-size="14.00">2,1</text>
</g>
<!-- battery5_3_4&#45;&gt;battery5_1_2 -->
<g id="edge1" class="edge">
<title>battery5_3_4&#45;&gt;battery5_1_2</title>
<path fill="none" stroke="#000000" stroke-opacity="0.333333" d="M706.53,-1648.85C717.48,-1721.11 758.2,-1989.87 771.54,-2077.89"/>
<polygon fill="transparent" stroke="#000000" stroke-opacity="0.333333" points="768.1,-2078.57 773.06,-2087.93 775.03,-2077.52 768.1,-2078.57"/>
</g>
<!-- battery5_3_5 -->
<g id="node6" class="node">
<title>battery5_3_5</title>
<ellipse fill="none" stroke="black" cx="775.8" cy="-1630.8" rx="27" ry="18"/>
<text text-anchor="middle" x="775.8" y="-1626.6" font-family="Times,serif" font-size="14.00">5,14</text>
</g>
<!-- battery5_3_5&#45;&gt;battery5_3_3 -->
<g id="edge10" class="edge">
<title>battery5_3_5&#45;&gt;battery5_3_3</title>
<path fill="none" stroke="#000000" stroke-opacity="0.333333" d="M748.71,-1630.8C726.33,-1630.8 694.3,-1630.8 669.43,-1630.8"/>
<polygon fill="transparent" stroke="#000000" stroke-opacity="0.333333" points="669.25,-1627.3 659.25,-1630.8 669.25,-1634.3 669.25,-1627.3"/>
</g>
<!-- battery5_1_3 -->
<g id="node16" class="node">
<title>battery5_1_3</title>
<ellipse fill="none" stroke="black" cx="631.8" cy="-2034" rx="27" ry="18"/>
<text text-anchor="middle" x="631.8" y="-2029.8" font-family="Times,serif" font-size="14.00">3,12</text>
</g>
<!-- battery5_3_5&#45;&gt;battery5_1_3 -->
<g id="edge9" class="edge">
<title>battery5_3_5&#45;&gt;battery5_1_3</title>
<path fill="none" stroke="#000000" stroke-opacity="0.333333" d="M769.52,-1648.38C746.83,-1711.92 668.98,-1929.89 641.5,-2006.84"/>
<polygon fill="transparent" stroke="#000000" stroke-opacity="0.333333" points="638.18,-2005.73 638.11,-2016.32 644.77,-2008.08 638.18,-2005.73"/>
</g>
<!-- battery4_11_0 -->
<g id="node7" class="node">
<title>battery4_11_0</title>
<ellipse fill="none" stroke="black" cx="430.2" cy="-90" rx="27" ry="18"/>
<text text-anchor="middle" x="430.2" y="-85.8" font-family="Times,serif" font-size="14.00">0,&#45;1</text>
</g>
<!-- battery4_11_2 -->
<g id="node8" class="node">
<title>battery4_11_2</title>
<ellipse fill="none" stroke="black" cx="502.2" cy="-90" rx="27" ry="18"/>
<text text-anchor="middle" x="502.2" y="-85.8" font-family="Times,serif" font-size="14.00">2,7</text>
</g>
<!-- battery4_11_2&#45;&gt;battery4_11_0 -->
<g id="edge20" class="edge">
<title>battery4_11_2&#45;&gt;battery4_11_0</title>
<path fill="none" stroke="#000000" stroke-opacity="0.333333" d="M474.98,-90C472.56,-90 470.09,-90 467.6,-90"/>
<polygon fill="transparent" stroke="#000000" stroke-opacity="0.333333" points="467.46,-86.5 457.46,-90 467.46,-93.5 467.46,-86.5"/>
</g>
<!-- battery4_11_4 -->
<g id="node9" class="node">
<title>battery4_11_4</title>
<ellipse fill="none" stroke="black" cx="574.2" cy="-90" rx="27" ry="18"/>
<text text-anchor="middle" x="574.2" y="-85.8" font-family="Times,serif" font-size="14.00">4,6</text>
</g>
<!-- battery4_11_4&#45;&gt;battery4_11_0 -->
<g id="edge19" class="edge">
<title>battery4_11_4&#45;&gt;battery4_11_0</title>
<path fill="none" stroke="#000000" stroke-opacity="0.333333" d="M547.11,-90C524.73,-90 492.7,-90 467.83,-90"/>
<polygon fill="transparent" stroke="#000000" stroke-opacity="0.333333" points="467.65,-86.5 457.65,-90 467.65,-93.5 467.65,-86.5"/>
</g>
<!-- battery4_11_4&#45;&gt;battery4_11_2 -->
<g id="edge18" class="edge">
<title>battery4_11_4&#45;&gt;battery4_11_2</title>
<path fill="none" stroke="#000000" stroke-opacity="0.333333" d="M546.98,-90C544.56,-90 542.09,-90 539.6,-90"/>
<polygon fill="transparent" stroke="#000000" stroke-opacity="0.333333" points="539.46,-86.5 529.46,-90 539.46,-93.5 539.46,-86.5"/>
</g>
<!-- battery4_11_6 -->
<g id="node10" class="node">
<title>battery4_11_6</title>
<ellipse fill="none" stroke="black" cx="430.2" cy="-18" rx="27" ry="18"/>
<text text-anchor="middle" x="430.2" y="-13.8" font-family="Times,serif" font-size="14.00">6,5</text>
</g>
<!-- battery4_11_6&#45;&gt;battery4_11_0 -->
<g id="edge17" class="edge">
<title>battery4_11_6&#45;&gt;battery4_11_0</title>
<path fill="none" stroke="#000000" stroke-opacity="0.333333" d="M430.2,-36.17C430.2,-43.87 430.2,-53.03 430.2,-61.58"/>
<polygon fill="transparent" stroke="#000000" stroke-opacity="0.333333" points="426.7,-61.59 430.2,-71.59 433.7,-61.59 426.7,-61.59"/>
</g>
<!-- battery4_11_6&#45;&gt;battery4_11_4 -->
<g id="edge16" class="edge">
<title>battery4_11_6&#45;&gt;battery4_11_4</title>
<path fill="none" stroke="#000000" stroke-opacity="0.333333" d="M452.07,-28.94C476.42,-41.11 515.96,-60.88 543.43,-74.61"/>
<polygon fill="transparent" stroke="#000000" stroke-opacity="0.333333" points="542.09,-77.86 552.6,-79.2 545.22,-71.6 542.09,-77.86"/>
</g>
<!-- battery4_11_8 -->
<g id="node11" class="node">
<title>battery4_11_8</title>
<ellipse fill="none" stroke="black" cx="502.2" cy="-18" rx="27" ry="18"/>
<text text-anchor="middle" x="502.2" y="-13.8" font-family="Times,serif" font-size="14.00">8,4</text>
</g>
<!-- battery4_11_8&#45;&gt;battery4_11_0 -->
<g id="edge15" class="edge">
<title>battery4_11_8&#45;&gt;battery4_11_0</title>
<path fill="none" stroke="#000000" stroke-opacity="0.333333" d="M486.93,-33.27C477,-43.2 463.88,-56.32 452.76,-67.44"/>
<polygon fill="transparent" stroke="#000000" stroke-opacity="0.333333" points="450.04,-65.21 445.45,-74.75 454.99,-70.16 450.04,-65.21"/>
</g>
<!-- battery4_11_8&#45;&gt;battery4_11_6 -->
<g id="edge14" class="edge">
<title>battery4_11_8&#45;&gt;battery4_11_6</title>
<path fill="none" stroke="#000000" stroke-opacity="0.333333" d="M474.98,-18C472.56,-18 470.09,-18 467.6,-18"/>
<polygon fill="transparent" stroke="#000000" stroke-opacity="0.333333" points="467.46,-14.5 457.46,-18 467.46,-21.5 467.46,-14.5"/>
</g>
<!-- battery4_11_10 -->
<g id="node12" class="node">
<title>battery4_11_10</title>
<ellipse fill="yellow" stroke="black" cx="574.2" cy="-18" rx="27" ry="18"/>
<text text-anchor="middle" x="574.2" y="-13.8" font-family="Times,serif" font-size="14.00">10,3</text>
</g>
<!-- battery4_11_10&#45;&gt;battery5_3_1 -->
<g id="edge11" class="edge">
<title>battery4_11_10&#45;&gt;battery5_3_1</title>
<path fill="none" stroke="#000000" stroke-opacity="0.333333" d="M575.59,-36.06C588.4,-202.63 685.87,-1469.68 701.65,-1674.79"/>
<polygon fill="transparent" stroke="#000000" stroke-opacity="0.333333" points="698.16,-1675.07 702.41,-1684.77 705.14,-1674.53 698.16,-1675.07"/>
</g>
<!-- battery4_11_10&#45;&gt;battery4_11_0 -->
<g id="edge13" class="edge">
<title>battery4_11_10&#45;&gt;battery4_11_0</title>
<path fill="none" stroke="#000000" stroke-opacity="0.333333" d="M552.33,-28.94C527.98,-41.11 488.44,-60.88 460.97,-74.61"/>
<polygon fill="transparent" stroke="#000000" stroke-opacity="0.333333" points="459.18,-71.6 451.8,-79.2 462.31,-77.86 459.18,-71.6"/>
</g>
<!-- battery4_11_10&#45;&gt;battery4_11_8 -->
<g id="edge12" class="edge">
<title>battery4_11_10&#45;&gt;battery4_11_8</title>
<path fill="none" stroke="#000000" stroke-opacity="0.333333" d="M546.98,-18C544.56,-18 542.09,-18 539.6,-18"/>
<polygon fill="transparent" stroke="#000000" stroke-opacity="0.333333" points="539.46,-14.5 529.46,-18 539.46,-21.5 539.46,-14.5"/>
</g>
<!-- battery5_1_2&#45;&gt;battery5_3_0 -->
<g id="edge21" class="edge">
<title>battery5_1_2&#45;&gt;battery5_3_0</title>
<path fill="none" stroke="#000000" stroke-opacity="0.333333" d="M769.52,-2088.42C746.83,-2024.88 668.98,-1806.91 641.5,-1729.96"/>
<polygon fill="transparent" stroke="#000000" stroke-opacity="0.333333" points="644.77,-1728.72 638.11,-1720.48 638.18,-1731.07 644.77,-1728.72"/>
</g>
<!-- battery5_1_2&#45;&gt;battery5_1_0 -->
<g id="edge22" class="edge">
<title>battery5_1_2&#45;&gt;battery5_1_0</title>
<path fill="none" stroke="#000000" stroke-opacity="0.333333" d="M748.71,-2106C726.33,-2106 694.3,-2106 669.43,-2106"/>
<polygon fill="transparent" stroke="#000000" stroke-opacity="0.333333" points="669.25,-2102.5 659.25,-2106 669.25,-2109.5 669.25,-2102.5"/>
</g>
<!-- battery5_1_3&#45;&gt;battery5_3_1 -->
<g id="edge25" class="edge">
<title>battery5_1_3&#45;&gt;battery5_3_1</title>
<path fill="none" stroke="#000000" stroke-opacity="0.333333" d="M635.77,-2015.72C647.73,-1960.74 683.4,-1796.62 697.74,-1730.68"/>
<polygon fill="transparent" stroke="#000000" stroke-opacity="0.333333" points="701.22,-1731.13 699.93,-1720.62 694.38,-1729.65 701.22,-1731.13"/>
</g>
<!-- battery5_1_3&#45;&gt;battery5_1_1 -->
<g id="edge26" class="edge">
<title>battery5_1_3&#45;&gt;battery5_1_1</title>
<path fill="none" stroke="#000000" stroke-opacity="0.333333" d="M647.07,-2049.27C657,-2059.2 670.12,-2072.32 681.24,-2083.44"/>
<polygon fill="transparent" stroke="#000000" stroke-opacity="0.333333" points="679.01,-2086.16 688.55,-2090.75 683.96,-2081.21 679.01,-2086.16"/>
</g>
<!-- battery5_1_5 -->
<g id="node17" class="node">
<title>battery5_1_5</title>
<ellipse fill="yellow" stroke="black" cx="703.8" cy="-2034" rx="27" ry="18"/>
<text text-anchor="middle" x="703.8" y="-2029.8" font-family="Times,serif" font-size="14.00">5,9</text>
</g>
<!-- battery5_1_5&#45;&gt;battery5_3_3 -->
<g id="edge23" class="edge">
<title>battery5_1_5&#45;&gt;battery5_3_3</title>
<path fill="none" stroke="#000000" stroke-opacity="0.333333" d="M700.57,-2015.89C689.15,-1951.94 650.65,-1736.35 636.81,-1658.85"/>
<polygon fill="transparent" stroke="#000000" stroke-opacity="0.333333" points="640.23,-1658.09 635.02,-1648.86 633.34,-1659.32 640.23,-1658.09"/>
</g>
<!-- battery5_1_5&#45;&gt;battery5_1_3 -->
<g id="edge24" class="edge">
<title>battery5_1_5&#45;&gt;battery5_1_3</title>
<path fill="none" stroke="#000000" stroke-opacity="0.333333" d="M676.58,-2034C674.16,-2034 671.69,-2034 669.2,-2034"/>
<polygon fill="transparent" stroke="#000000" stroke-opacity="0.333333" points="669.06,-2030.5 659.06,-2034 669.06,-2037.5 669.06,-2030.5"/>
</g>
<!-- battery2_4_0 -->
<g id="node18" class="node">
<title>battery2_4_0</title>
<ellipse fill="none" stroke="black" cx="27" cy="-1501.2" rx="27" ry="18"/>
<text text-anchor="middle" x="27" y="-1497" font-family="Times,serif" font-size="14.00">0,&#45;1</text>
</g>
<!-- battery2_4_9 -->
<g id="node19" class="node">
<title>battery2_4_9</title>
<ellipse fill="green" stroke="black" cx="99" cy="-1501.2" rx="27" ry="18"/>
<text text-anchor="middle" x="99" y="-1497" font-family="Times,serif" font-size="14.00">9,13</text>
</g>
<!-- battery2_4_9&#45;&gt;battery5_3_5 -->
<g id="edge27" class="edge">
<title>battery2_4_9&#45;&gt;battery5_3_5</title>
<path fill="none" stroke="#000000" stroke-opacity="0.333333" d="M125.12,-1506.2C229.8,-1526.25 619.23,-1600.82 739.91,-1623.93"/>
<polygon fill="transparent" stroke="#000000" stroke-opacity="0.333333" points="739.28,-1627.37 749.76,-1625.81 740.6,-1620.5 739.28,-1627.37"/>
</g>
<!-- battery2_4_9&#45;&gt;battery4_11_0 -->
<g id="edge29" class="edge">
<title>battery2_4_9&#45;&gt;battery4_11_0</title>
<path fill="none" stroke="#000000" stroke-opacity="0.333333" d="M103.19,-1483.36C138.1,-1334.61 380.57,-301.46 423.66,-117.87"/>
<polygon fill="transparent" stroke="#000000" stroke-opacity="0.333333" points="427.12,-118.46 425.99,-107.92 420.3,-116.86 427.12,-118.46"/>
</g>
<!-- battery2_4_9&#45;&gt;battery5_1_3 -->
<g id="edge28" class="edge">
<title>battery2_4_9&#45;&gt;battery5_1_3</title>
<path fill="none" stroke="#000000" stroke-opacity="0.333333" d="M114.09,-1516.29C188.88,-1591.08 519.83,-1922.03 609.39,-2011.59"/>
<polygon fill="transparent" stroke="#000000" stroke-opacity="0.333333" points="607.04,-2014.19 616.59,-2018.79 611.99,-2009.24 607.04,-2014.19"/>
</g>
</g>
</svg>
