<?xml version="1.0" encoding="UTF-8" standalone="no"?>
<!DOCTYPE svg PUBLIC "-//W3C//DTD SVG 1.1//EN"
 "http://www.w3.org/Graphics/SVG/1.1/DTD/svg11.dtd">
<!-- Generated by graphviz version 2.43.0 (0)
 -->
<!-- Title: stromrallye0.txt Pages: 1 -->
<svg width="1012pt" height="850pt"
 viewBox="0.00 0.00 1012.40 850.40" xmlns="http://www.w3.org/2000/svg" xmlns:xlink="http://www.w3.org/1999/xlink">
<g id="graph0" class="graph" transform="scale(1 1) rotate(0) translate(4 846.4)">
<title>stromrallye0.txt</title>
<polygon fill="white" stroke="transparent" points="-4,4 -4,-846.4 1008.4,-846.4 1008.4,4 -4,4"/>
<g id="clust1" class="cluster">
<title>cluster4_0</title>
<polygon fill="none" stroke="black" points="806.4,-734.4 806.4,-842.4 932.4,-842.4 932.4,-734.4 806.4,-734.4"/>
<text text-anchor="middle" x="869.4" y="-827.2" font-family="Times,serif" font-size="14.00">4,0</text>
</g>
<g id="clust2" class="cluster">
<title>cluster0_1</title>
<polygon fill="none" stroke="black" points="0,-532.8 0,-640.8 126,-640.8 126,-532.8 0,-532.8"/>
<text text-anchor="middle" x="63" y="-625.6" font-family="Times,serif" font-size="14.00">0,1</text>
</g>
<g id="clust3" class="cluster">
<title>cluster4_3</title>
<polygon fill="none" stroke="black" points="806.4,-129.6 806.4,-237.6 1004.4,-237.6 1004.4,-129.6 806.4,-129.6"/>
<text text-anchor="middle" x="905.4" y="-222.4" font-family="Times,serif" font-size="14.00">4,3</text>
</g>
<g id="clust4" class="cluster">
<title>cluster2_4</title>
<polygon fill="none" stroke="black" points="403.2,0 403.2,-36 529.2,-36 529.2,0 403.2,0"/>
<text text-anchor="middle" x="466.2" y="-20.8" font-family="Times,serif" font-size="14.00">2,4</text>
</g>
<!-- battery4_0_0 -->
<g id="node1" class="node">
<title>battery4_0_0</title>
<ellipse fill="none" stroke="black" cx="833.4" cy="-824.4" rx="27" ry="18"/>
<text text-anchor="middle" x="833.4" y="-820.2" font-family="Times,serif" font-size="14.00">0,&#45;1</text>
</g>
<!-- battery4_0_3 -->
<g id="node3" class="node">
<title>battery4_0_3</title>
<ellipse fill="yellow" stroke="black" cx="833.4" cy="-752.4" rx="27" ry="18"/>
<text text-anchor="middle" x="833.4" y="-748.2" font-family="Times,serif" font-size="14.00">3,0</text>
</g>
<!-- battery4_0_0&#45;&gt;battery4_0_3 -->
<g id="edge23" class="edge">
<title>battery4_0_0&#45;&gt;battery4_0_3</title>
<path fill="none" stroke="orange" d="M833.4,-806.23C833.4,-798.53 833.4,-789.37 833.4,-780.82"/>
<polygon fill="orange" stroke="orange" points="836.9,-780.81 833.4,-770.81 829.9,-780.81 836.9,-780.81"/>
<text text-anchor="middle" x="829.9" y="-782.32" font-family="Times,serif" font-size="14.00">4</text>
</g>
<!-- battery4_0_1 -->
<g id="node2" class="node">
<title>battery4_0_1</title>
<ellipse fill="none" stroke="black" cx="905.4" cy="-824.4" rx="27" ry="18"/>
<text text-anchor="middle" x="905.4" y="-820.2" font-family="Times,serif" font-size="14.00">1,1</text>
</g>
<!-- battery4_0_3&#45;&gt;battery4_0_1 -->
<g id="edge2" class="edge">
<title>battery4_0_3&#45;&gt;battery4_0_1</title>
<path fill="none" stroke="#000000" stroke-opacity="0.333333" d="M848.67,-767.67C858.6,-777.6 871.72,-790.72 882.84,-801.84"/>
<polygon fill="transparent" stroke="#000000" stroke-opacity="0.333333" points="880.61,-804.56 890.15,-809.15 885.56,-799.61 880.61,-804.56"/>
</g>
<!-- battery4_3_0 -->
<g id="node7" class="node">
<title>battery4_3_0</title>
<ellipse fill="none" stroke="black" cx="833.4" cy="-219.6" rx="27" ry="18"/>
<text text-anchor="middle" x="833.4" y="-215.4" font-family="Times,serif" font-size="14.00">0,&#45;1</text>
</g>
<!-- battery4_0_3&#45;&gt;battery4_3_0 -->
<g id="edge1" class="edge">
<title>battery4_0_3&#45;&gt;battery4_3_0</title>
<path fill="none" stroke="red" d="M833.4,-734.37C833.4,-655.87 833.4,-343.56 833.4,-247.72"/>
<polygon fill="red" stroke="red" points="836.9,-247.63 833.4,-237.63 829.9,-247.63 836.9,-247.63"/>
<text text-anchor="middle" x="829.9" y="-493.84" font-family="Times,serif" font-size="14.00">5</text>
</g>
<!-- battery0_1_0 -->
<g id="node4" class="node">
<title>battery0_1_0</title>
<ellipse fill="none" stroke="black" cx="27" cy="-622.8" rx="27" ry="18"/>
<text text-anchor="middle" x="27" y="-618.6" font-family="Times,serif" font-size="14.00">0,&#45;1</text>
</g>
<!-- battery0_1_2 -->
<g id="node5" class="node">
<title>battery0_1_2</title>
<ellipse fill="yellow" stroke="black" cx="99" cy="-622.8" rx="27" ry="18"/>
<text text-anchor="middle" x="99" y="-618.6" font-family="Times,serif" font-size="14.00">2,2</text>
</g>
<!-- battery0_1_0&#45;&gt;battery0_1_2 -->
<g id="edge25" class="edge">
<title>battery0_1_0&#45;&gt;battery0_1_2</title>
<path fill="none" stroke="orange" d="M52.59,-629.29C56.09,-629.47 59.73,-629.56 63.37,-629.55"/>
<polygon fill="orange" stroke="orange" points="63.59,-633.05 73.5,-629.29 63.41,-626.05 63.59,-633.05"/>
<text text-anchor="middle" x="61.48" y="-632.22" font-family="Times,serif" font-size="14.00">8</text>
</g>
<!-- battery0_1_2&#45;&gt;battery0_1_0 -->
<g id="edge3" class="edge">
<title>battery0_1_2&#45;&gt;battery0_1_0</title>
<path fill="none" stroke="#000000" stroke-opacity="0.333333" d="M73.41,-616.31C69.91,-616.13 66.27,-616.04 62.63,-616.05"/>
<polygon fill="transparent" stroke="#000000" stroke-opacity="0.333333" points="62.41,-612.55 52.5,-616.31 62.59,-619.55 62.41,-612.55"/>
</g>
<!-- battery0_1_4 -->
<g id="node6" class="node">
<title>battery0_1_4</title>
<ellipse fill="none" stroke="black" cx="27" cy="-550.8" rx="27" ry="18"/>
<text text-anchor="middle" x="27" y="-546.6" font-family="Times,serif" font-size="14.00">4,9</text>
</g>
<!-- battery0_1_4&#45;&gt;battery0_1_0 -->
<g id="edge5" class="edge">
<title>battery0_1_4&#45;&gt;battery0_1_0</title>
<path fill="none" stroke="#000000" stroke-opacity="0.333333" d="M27,-568.97C27,-576.67 27,-585.83 27,-594.38"/>
<polygon fill="transparent" stroke="#000000" stroke-opacity="0.333333" points="23.5,-594.39 27,-604.39 30.5,-594.39 23.5,-594.39"/>
</g>
<!-- battery0_1_4&#45;&gt;battery0_1_2 -->
<g id="edge4" class="edge">
<title>battery0_1_4&#45;&gt;battery0_1_2</title>
<path fill="none" stroke="#000000" stroke-opacity="0.333333" d="M42.27,-566.07C52.2,-576 65.32,-589.12 76.44,-600.24"/>
<polygon fill="transparent" stroke="#000000" stroke-opacity="0.333333" points="74.21,-602.96 83.75,-607.55 79.16,-598.01 74.21,-602.96"/>
</g>
<!-- battery4_3_6 -->
<g id="node12" class="node">
<title>battery4_3_6</title>
<ellipse fill="none" stroke="black" cx="977.4" cy="-147.6" rx="27" ry="18"/>
<text text-anchor="middle" x="977.4" y="-143.4" font-family="Times,serif" font-size="14.00">6,6</text>
</g>
<!-- battery4_3_0&#45;&gt;battery4_3_6 -->
<g id="edge24" class="edge">
<title>battery4_3_0&#45;&gt;battery4_3_6</title>
<path fill="none" stroke="orange" d="M858.49,-212.74C884.53,-202.03 925,-181.96 951.37,-166.77"/>
<polygon fill="orange" stroke="orange" points="953.24,-169.73 960.07,-161.63 949.68,-163.71 953.24,-169.73"/>
<text text-anchor="middle" x="901.43" y="-178.56" font-family="Times,serif" font-size="14.00">6</text>
</g>
<!-- battery4_3_1 -->
<g id="node8" class="node">
<title>battery4_3_1</title>
<ellipse fill="none" stroke="black" cx="905.4" cy="-219.6" rx="27" ry="18"/>
<text text-anchor="middle" x="905.4" y="-215.4" font-family="Times,serif" font-size="14.00">1,4</text>
</g>
<!-- battery4_3_2 -->
<g id="node9" class="node">
<title>battery4_3_2</title>
<ellipse fill="none" stroke="black" cx="977.4" cy="-219.6" rx="27" ry="18"/>
<text text-anchor="middle" x="977.4" y="-215.4" font-family="Times,serif" font-size="14.00">2,8</text>
</g>
<!-- battery4_3_2&#45;&gt;battery4_3_0 -->
<g id="edge15" class="edge">
<title>battery4_3_2&#45;&gt;battery4_3_0</title>
<path fill="none" stroke="#000000" stroke-opacity="0.333333" d="M950.31,-219.6C927.93,-219.6 895.9,-219.6 871.03,-219.6"/>
<polygon fill="transparent" stroke="#000000" stroke-opacity="0.333333" points="870.85,-216.1 860.85,-219.6 870.85,-223.1 870.85,-216.1"/>
</g>
<!-- battery4_3_3 -->
<g id="node10" class="node">
<title>battery4_3_3</title>
<ellipse fill="yellow" stroke="black" cx="833.4" cy="-147.6" rx="27" ry="18"/>
<text text-anchor="middle" x="833.4" y="-143.4" font-family="Times,serif" font-size="14.00">3,3</text>
</g>
<!-- battery4_3_3&#45;&gt;battery4_0_0 -->
<g id="edge6" class="edge">
<title>battery4_3_3&#45;&gt;battery4_0_0</title>
<path fill="none" stroke="red" d="M833.4,-165.7C833.4,-258.67 833.4,-682.46 833.4,-796.22"/>
<polygon fill="red" stroke="red" points="829.9,-796.24 833.4,-806.24 836.9,-796.24 829.9,-796.24"/>
<text text-anchor="middle" x="829.9" y="-469.76" font-family="Times,serif" font-size="14.00">3</text>
</g>
<!-- battery4_3_3&#45;&gt;battery4_3_1 -->
<g id="edge7" class="edge">
<title>battery4_3_3&#45;&gt;battery4_3_1</title>
<path fill="none" stroke="#000000" stroke-opacity="0.333333" d="M848.67,-162.87C858.6,-172.8 871.72,-185.92 882.84,-197.04"/>
<polygon fill="transparent" stroke="#000000" stroke-opacity="0.333333" points="880.61,-199.76 890.15,-204.35 885.56,-194.81 880.61,-199.76"/>
</g>
<!-- battery4_3_4 -->
<g id="node11" class="node">
<title>battery4_3_4</title>
<ellipse fill="none" stroke="black" cx="905.4" cy="-147.6" rx="27" ry="18"/>
<text text-anchor="middle" x="905.4" y="-143.4" font-family="Times,serif" font-size="14.00">4,7</text>
</g>
<!-- battery4_3_4&#45;&gt;battery4_0_1 -->
<g id="edge12" class="edge">
<title>battery4_3_4&#45;&gt;battery4_0_1</title>
<path fill="none" stroke="#000000" stroke-opacity="0.333333" d="M905.4,-165.7C905.4,-258.67 905.4,-682.46 905.4,-796.22"/>
<polygon fill="transparent" stroke="#000000" stroke-opacity="0.333333" points="901.9,-796.24 905.4,-806.24 908.9,-796.24 901.9,-796.24"/>
</g>
<!-- battery4_3_4&#45;&gt;battery4_3_0 -->
<g id="edge14" class="edge">
<title>battery4_3_4&#45;&gt;battery4_3_0</title>
<path fill="none" stroke="#000000" stroke-opacity="0.333333" d="M890.13,-162.87C880.2,-172.8 867.08,-185.92 855.96,-197.04"/>
<polygon fill="transparent" stroke="#000000" stroke-opacity="0.333333" points="853.24,-194.81 848.65,-204.35 858.19,-199.76 853.24,-194.81"/>
</g>
<!-- battery4_3_4&#45;&gt;battery4_3_2 -->
<g id="edge13" class="edge">
<title>battery4_3_4&#45;&gt;battery4_3_2</title>
<path fill="none" stroke="#000000" stroke-opacity="0.333333" d="M920.67,-162.87C930.6,-172.8 943.72,-185.92 954.84,-197.04"/>
<polygon fill="transparent" stroke="#000000" stroke-opacity="0.333333" points="952.61,-199.76 962.15,-204.35 957.56,-194.81 952.61,-199.76"/>
</g>
<!-- battery4_3_6&#45;&gt;battery4_0_3 -->
<g id="edge8" class="edge">
<title>battery4_3_6&#45;&gt;battery4_0_3</title>
<path fill="none" stroke="#000000" stroke-opacity="0.333333" d="M973.09,-165.7C952.6,-251.78 864.95,-619.88 840.03,-724.54"/>
<polygon fill="transparent" stroke="#000000" stroke-opacity="0.333333" points="836.6,-723.83 837.69,-734.37 843.41,-725.45 836.6,-723.83"/>
</g>
<!-- battery4_3_6&#45;&gt;battery0_1_0 -->
<g id="edge9" class="edge">
<title>battery4_3_6&#45;&gt;battery0_1_0</title>
<path fill="none" stroke="red" d="M955.76,-158.42C831.11,-220.74 205.06,-533.77 57.97,-607.31"/>
<polygon fill="red" stroke="red" points="55.98,-604.4 48.6,-612 59.11,-610.66 55.98,-604.4"/>
<text text-anchor="middle" x="503.37" y="-385.67" font-family="Times,serif" font-size="14.00">7</text>
</g>
<!-- battery4_3_6&#45;&gt;battery4_3_0 -->
<g id="edge11" class="edge">
<title>battery4_3_6&#45;&gt;battery4_3_0</title>
<path fill="none" stroke="#000000" stroke-opacity="0.333333" d="M952.31,-154.46C926.27,-165.17 885.8,-185.24 859.43,-200.43"/>
<polygon fill="transparent" stroke="#000000" stroke-opacity="0.333333" points="857.56,-197.47 850.73,-205.57 861.12,-203.49 857.56,-197.47"/>
</g>
<!-- battery4_3_6&#45;&gt;battery4_3_3 -->
<g id="edge22" class="edge">
<title>battery4_3_6&#45;&gt;battery4_3_3</title>
<path fill="none" stroke="orange" d="M950.31,-147.6C927.93,-147.6 895.9,-147.6 871.03,-147.6"/>
<polygon fill="orange" stroke="orange" points="870.85,-144.1 860.85,-147.6 870.85,-151.1 870.85,-144.1"/>
<text text-anchor="middle" x="907.17" y="-150.4" font-family="Times,serif" font-size="14.00">2</text>
</g>
<!-- battery4_3_6&#45;&gt;battery4_3_4 -->
<g id="edge10" class="edge">
<title>battery4_3_6&#45;&gt;battery4_3_4</title>
<path fill="none" stroke="#000000" stroke-opacity="0.333333" d="M950.18,-147.6C947.76,-147.6 945.29,-147.6 942.8,-147.6"/>
<polygon fill="transparent" stroke="#000000" stroke-opacity="0.333333" points="942.66,-144.1 932.66,-147.6 942.66,-151.1 942.66,-144.1"/>
</g>
<!-- battery2_4_0 -->
<g id="node13" class="node">
<title>battery2_4_0</title>
<ellipse fill="none" stroke="black" cx="430.2" cy="-18" rx="27" ry="18"/>
<text text-anchor="middle" x="430.2" y="-13.8" font-family="Times,serif" font-size="14.00">0,&#45;1</text>
</g>
<!-- battery2_4_9 -->
<g id="node14" class="node">
<title>battery2_4_9</title>
<ellipse fill="green" stroke="black" cx="502.2" cy="-18" rx="27" ry="18"/>
<text text-anchor="middle" x="502.2" y="-13.8" font-family="Times,serif" font-size="14.00">9,5</text>
</g>
<!-- battery2_4_0&#45;&gt;battery2_4_9 -->
<g id="edge21" class="edge">
<title>battery2_4_0&#45;&gt;battery2_4_9</title>
<path fill="none" stroke="orange" d="M457.42,-18C459.84,-18 462.31,-18 464.8,-18"/>
<polygon fill="orange" stroke="orange" points="464.94,-21.5 474.94,-18 464.94,-14.5 464.94,-21.5"/>
<text text-anchor="middle" x="464.61" y="-6.8" font-family="Times,serif" font-size="14.00">0</text>
</g>
<!-- battery2_4_9&#45;&gt;battery4_0_3 -->
<g id="edge18" class="edge">
<title>battery2_4_9&#45;&gt;battery4_0_3</title>
<path fill="none" stroke="#000000" stroke-opacity="0.333333" d="M510.06,-35.43C553.89,-132.62 768.07,-607.54 821.37,-725.73"/>
<polygon fill="transparent" stroke="#000000" stroke-opacity="0.333333" points="818.31,-727.46 825.61,-735.13 824.69,-724.58 818.31,-727.46"/>
</g>
<!-- battery2_4_9&#45;&gt;battery0_1_0 -->
<g id="edge19" class="edge">
<title>battery2_4_9&#45;&gt;battery0_1_0</title>
<path fill="none" stroke="#000000" stroke-opacity="0.333333" d="M489.49,-34.18C423.95,-117.59 124.21,-499.08 45.81,-598.86"/>
<polygon fill="transparent" stroke="#000000" stroke-opacity="0.333333" points="42.96,-596.83 39.53,-606.85 48.46,-601.15 42.96,-596.83"/>
</g>
<!-- battery2_4_9&#45;&gt;battery0_1_4 -->
<g id="edge17" class="edge">
<title>battery2_4_9&#45;&gt;battery0_1_4</title>
<path fill="none" stroke="#000000" stroke-opacity="0.333333" d="M488.24,-33.66C420.75,-109.32 128.35,-437.17 47.68,-527.62"/>
<polygon fill="transparent" stroke="#000000" stroke-opacity="0.333333" points="45.01,-525.35 40.97,-535.14 50.23,-530.01 45.01,-525.35"/>
</g>
<!-- battery2_4_9&#45;&gt;battery4_3_0 -->
<g id="edge20" class="edge">
<title>battery2_4_9&#45;&gt;battery4_3_0</title>
<path fill="none" stroke="#000000" stroke-opacity="0.333333" d="M522.42,-30.31C579.03,-64.76 739.22,-162.27 804.83,-202.21"/>
<polygon fill="transparent" stroke="#000000" stroke-opacity="0.333333" points="803.08,-205.24 813.45,-207.45 806.72,-199.26 803.08,-205.24"/>
</g>
<!-- battery2_4_9&#45;&gt;battery4_3_6 -->
<g id="edge16" class="edge">
<title>battery2_4_9&#45;&gt;battery4_3_6</title>
<path fill="none" stroke="red" d="M527.41,-24.88C606.67,-46.49 850.95,-113.11 942.38,-138.05"/>
<polygon fill="red" stroke="red" points="941.68,-141.49 952.25,-140.74 943.52,-134.73 941.68,-141.49"/>
<text text-anchor="middle" x="731.39" y="-84.26" font-family="Times,serif" font-size="14.00">1</text>
</g>
</g>
</svg>
