<?xml version="1.0" encoding="UTF-8" standalone="no"?>
<!DOCTYPE svg PUBLIC "-//W3C//DTD SVG 1.1//EN"
 "http://www.w3.org/Graphics/SVG/1.1/DTD/svg11.dtd">
<!-- Generated by graphviz version 2.38.0 (20140413.2041)
 -->
<!-- Title: tp0.txt_fields Pages: 1 -->
<svg width="1228pt" height="1314pt"
 viewBox="0.00 0.00 1227.87 1313.77" xmlns="http://www.w3.org/2000/svg" xmlns:xlink="http://www.w3.org/1999/xlink">
<g id="graph0" class="graph" transform="scale(1 1) rotate(0) translate(520.533 707.283)">
<title>tp0.txt_fields</title>
<polygon fill="white" stroke="none" points="-520.533,606.483 -520.533,-707.283 707.332,-707.283 707.332,606.483 -520.533,606.483"/>
<!-- 3_1 -->
<g id="node1" class="node"><title>3_1</title>
<ellipse fill="none" stroke="black" cx="151.2" cy="-655.2" rx="62.8651" ry="48.1667"/>
<text text-anchor="middle" x="151.2" y="-674" font-family="Times New Roman,serif" font-size="14.00">3,1</text>
<text text-anchor="middle" x="151.2" y="-659" font-family="Times New Roman,serif" font-size="14.00">ic: 5</text>
<text text-anchor="middle" x="151.2" y="-644" font-family="Times New Roman,serif" font-size="14.00">free: 3,0;4,0</text>
<text text-anchor="middle" x="151.2" y="-629" font-family="Times New Roman,serif" font-size="14.00">swlolw: none</text>
</g>
<!-- 3_1&#45;&gt;3_1 -->
<g id="edge1" class="edge"><title>3_1&#45;&gt;3_1</title>
<path fill="none" stroke="black" d="M214.315,-658.337C224.858,-657.898 232.132,-656.852 232.132,-655.2 232.132,-654.167 229.291,-653.372 224.586,-652.813"/>
<polygon fill="black" stroke="black" points="224.544,-649.301 214.315,-652.063 224.034,-656.282 224.544,-649.301"/>
<text text-anchor="middle" x="249.132" y="-651.5" font-family="Times New Roman,serif" font-size="14.00">2 &#160;(4) </text>
</g>
<!-- 3_1&#45;&gt;3_1 -->
<g id="edge6" class="edge"><title>3_1&#45;&gt;3_1</title>
<path fill="none" stroke="black" d="M213.72,-661.886C241.447,-662.368 266.132,-660.139 266.132,-655.2 266.132,-650.878 247.232,-648.632 223.933,-648.461"/>
<polygon fill="black" stroke="black" points="223.701,-644.962 213.72,-648.514 223.738,-651.962 223.701,-644.962"/>
<text text-anchor="middle" x="283.132" y="-651.5" font-family="Times New Roman,serif" font-size="14.00">9 &#160;(9) </text>
</g>
<!-- 5_7 -->
<g id="node2" class="node"><title>5_7</title>
<ellipse fill="none" stroke="black" cx="554.4" cy="554.4" rx="62.8651" ry="48.1667"/>
<text text-anchor="middle" x="554.4" y="535.6" font-family="Times New Roman,serif" font-size="14.00">5,7</text>
<text text-anchor="middle" x="554.4" y="550.6" font-family="Times New Roman,serif" font-size="14.00">ic: 5</text>
<text text-anchor="middle" x="554.4" y="565.6" font-family="Times New Roman,serif" font-size="14.00">free: 5,6;5,5</text>
<text text-anchor="middle" x="554.4" y="580.6" font-family="Times New Roman,serif" font-size="14.00">swlolw: none</text>
</g>
<!-- 3_1&#45;&gt;5_7 -->
<g id="edge2" class="edge"><title>3_1&#45;&gt;5_7</title>
<path fill="none" stroke="black" d="M175.07,-610.47C253.426,-424.338 491.149,288.235 544.754,496.785"/>
<polygon fill="black" stroke="black" points="548.183,496.069 547.238,506.622 541.396,497.783 548.183,496.069"/>
<text text-anchor="middle" x="342.912" y="-60.6425" font-family="Times New Roman,serif" font-size="14.00">5 &#160;(5) </text>
</g>
<!-- 3_1&#45;&gt;5_7 -->
<g id="edge3" class="edge"><title>3_1&#45;&gt;5_7</title>
<path fill="none" stroke="black" d="M158.378,-607.359C205.921,-415.396 443.338,297.807 526.69,500.438"/>
<polygon fill="black" stroke="black" points="529.932,499.12 530.541,509.697 523.469,501.808 529.932,499.12"/>
<text text-anchor="middle" x="325.534" y="-42.2605" font-family="Times New Roman,serif" font-size="14.00">6 &#160;(6) </text>
</g>
<!-- 0_7 -->
<g id="node3" class="node"><title>0_7</title>
<ellipse fill="none" stroke="black" cx="-453.6" cy="554.4" rx="62.8651" ry="48.1667"/>
<text text-anchor="middle" x="-453.6" y="535.6" font-family="Times New Roman,serif" font-size="14.00">0,7</text>
<text text-anchor="middle" x="-453.6" y="550.6" font-family="Times New Roman,serif" font-size="14.00">ic: 2</text>
<text text-anchor="middle" x="-453.6" y="565.6" font-family="Times New Roman,serif" font-size="14.00">free: 0,6;0,5</text>
<text text-anchor="middle" x="-453.6" y="580.6" font-family="Times New Roman,serif" font-size="14.00">swlolw: none</text>
</g>
<!-- 3_1&#45;&gt;0_7 -->
<g id="edge4" class="edge"><title>3_1&#45;&gt;0_7</title>
<path fill="none" stroke="black" d="M136.801,-608.141C58.5665,-416.352 -301.466,304.404 -417.905,503.348"/>
<polygon fill="black" stroke="black" points="-415.002,505.315 -423.099,512.147 -421.03,501.757 -415.002,505.315"/>
<text text-anchor="middle" x="-123.552" y="-56.1964" font-family="Times New Roman,serif" font-size="14.00">8 &#160;(8) </text>
</g>
<!-- 3_1&#45;&gt;0_7 -->
<g id="edge5" class="edge"><title>3_1&#45;&gt;0_7</title>
<path fill="none" stroke="black" d="M120.735,-613.007C12.0085,-430.546 -348.227,289.53 -435.256,497.791"/>
<polygon fill="black" stroke="black" points="-432.139,499.412 -439.192,507.318 -438.608,496.739 -432.139,499.412"/>
<text text-anchor="middle" x="-174.261" y="-61.4078" font-family="Times New Roman,serif" font-size="14.00">9 &#160;(9) </text>
</g>
<!-- 5_7&#45;&gt;3_1 -->
<g id="edge8" class="edge"><title>5_7&#45;&gt;3_1</title>
<path fill="none" stroke="black" d="M536.039,508.246C467.806,319.852 230.889,-390.654 167.029,-598.044"/>
<polygon fill="black" stroke="black" points="163.615,-597.237 164.032,-607.824 170.308,-599.288 163.615,-597.237"/>
<text text-anchor="middle" x="368.534" y="-33.6987" font-family="Times New Roman,serif" font-size="14.00">5 &#160;(5) </text>
</g>
<!-- 5_7&#45;&gt;3_1 -->
<g id="edge10" class="edge"><title>5_7&#45;&gt;3_1</title>
<path fill="none" stroke="black" d="M541.623,507.206C483.606,316.797 246.631,-394.409 172.998,-599.514"/>
<polygon fill="black" stroke="black" points="169.612,-598.584 169.513,-609.179 176.197,-600.959 169.612,-598.584"/>
<text text-anchor="middle" x="374.311" y="-49.954" font-family="Times New Roman,serif" font-size="14.00">6 &#160;(6) </text>
</g>
<!-- 5_7&#45;&gt;5_7 -->
<g id="edge7" class="edge"><title>5_7&#45;&gt;5_7</title>
<path fill="none" stroke="black" d="M617.515,551.263C628.058,551.702 635.332,552.748 635.332,554.4 635.332,555.433 632.491,556.228 627.786,556.787"/>
<polygon fill="black" stroke="black" points="627.744,560.299 617.515,557.537 627.234,553.318 627.744,560.299"/>
<text text-anchor="middle" x="652.332" y="558.1" font-family="Times New Roman,serif" font-size="14.00">2 &#160;(4) </text>
</g>
<!-- 5_7&#45;&gt;5_7 -->
<g id="edge9" class="edge"><title>5_7&#45;&gt;5_7</title>
<path fill="none" stroke="black" d="M616.92,547.714C644.647,547.232 669.332,549.461 669.332,554.4 669.332,558.722 650.432,560.968 627.133,561.139"/>
<polygon fill="black" stroke="black" points="626.901,564.638 616.92,561.086 626.938,557.638 626.901,564.638"/>
<text text-anchor="middle" x="686.332" y="558.1" font-family="Times New Roman,serif" font-size="14.00">5 &#160;(5) </text>
</g>
<!-- 5_7&#45;&gt;0_7 -->
<g id="edge11" class="edge"><title>5_7&#45;&gt;0_7</title>
<path fill="none" stroke="black" d="M492.862,564.75C316.054,577.708 -192.813,577.946 -381.806,565.463"/>
<polygon fill="black" stroke="black" points="-382.175,568.946 -391.908,564.761 -381.69,561.963 -382.175,568.946"/>
<text text-anchor="middle" x="38.5284" y="576.306" font-family="Times New Roman,serif" font-size="14.00">7 &#160;(7) </text>
</g>
<!-- 5_7&#45;&gt;0_7 -->
<g id="edge12" class="edge"><title>5_7&#45;&gt;0_7</title>
<path fill="none" stroke="black" d="M492.862,544.05C316.054,531.092 -192.813,530.854 -381.806,543.337"/>
<polygon fill="black" stroke="black" points="-381.69,546.837 -391.908,544.039 -382.175,539.854 -381.69,546.837"/>
<text text-anchor="middle" x="38.5284" y="539.894" font-family="Times New Roman,serif" font-size="14.00">8 &#160;(8) </text>
</g>
<!-- 0_7&#45;&gt;3_1 -->
<g id="edge15" class="edge"><title>0_7&#45;&gt;3_1</title>
<path fill="none" stroke="black" d="M-433.82,508.684C-345.211,319.751 14.3529,-399.575 121.199,-601.95"/>
<polygon fill="black" stroke="black" points="118.172,-603.712 125.945,-610.911 124.358,-600.435 118.172,-603.712"/>
<text text-anchor="middle" x="-173.31" y="-35.4329" font-family="Times New Roman,serif" font-size="14.00">8 &#160;(8) </text>
</g>
<!-- 0_7&#45;&gt;3_1 -->
<g id="edge17" class="edge"><title>0_7&#45;&gt;3_1</title>
<path fill="none" stroke="black" d="M-428.323,510.07C-329.328,323.75 30.4106,-395.573 127.174,-600.463"/>
<polygon fill="black" stroke="black" points="124.021,-601.985 131.447,-609.542 130.355,-599.004 124.021,-601.985"/>
<text text-anchor="middle" x="-133.575" y="-33.9967" font-family="Times New Roman,serif" font-size="14.00">9 &#160;(9) </text>
</g>
<!-- 0_7&#45;&gt;5_7 -->
<g id="edge14" class="edge"><title>0_7&#45;&gt;5_7</title>
<path fill="none" stroke="black" d="M-390.545,550.913C-212.792,546.641 291.701,546.564 481.231,550.682"/>
<polygon fill="black" stroke="black" points="481.451,547.186 491.369,550.914 481.292,554.185 481.451,547.186"/>
<text text-anchor="middle" x="28.3431" y="561.998" font-family="Times New Roman,serif" font-size="14.00">7 &#160;(7) </text>
</g>
<!-- 0_7&#45;&gt;5_7 -->
<g id="edge16" class="edge"><title>0_7&#45;&gt;5_7</title>
<path fill="none" stroke="black" d="M-390.545,557.887C-212.792,562.159 291.701,562.236 481.231,558.118"/>
<polygon fill="black" stroke="black" points="481.292,554.615 491.369,557.886 481.451,561.614 481.292,554.615"/>
<text text-anchor="middle" x="62.3431" y="554.202" font-family="Times New Roman,serif" font-size="14.00">8 &#160;(8) </text>
</g>
<!-- 0_7&#45;&gt;0_7 -->
<g id="edge13" class="edge"><title>0_7&#45;&gt;0_7</title>
<path fill="none" stroke="black" d="M-390.485,551.263C-379.942,551.702 -372.668,552.748 -372.668,554.4 -372.668,555.433 -375.509,556.228 -380.214,556.787"/>
<polygon fill="black" stroke="black" points="-380.256,560.299 -390.485,557.537 -380.766,553.318 -380.256,560.299"/>
<text text-anchor="middle" x="-355.668" y="558.1" font-family="Times New Roman,serif" font-size="14.00">2 &#160;(4) </text>
</g>
<!-- 0_7&#45;&gt;0_7 -->
<g id="edge18" class="edge"><title>0_7&#45;&gt;0_7</title>
<path fill="none" stroke="black" d="M-391.08,547.714C-363.353,547.232 -338.668,549.461 -338.668,554.4 -338.668,558.722 -357.568,560.968 -380.867,561.139"/>
<polygon fill="black" stroke="black" points="-381.099,564.638 -391.08,561.086 -381.062,557.638 -381.099,564.638"/>
<text text-anchor="middle" x="-314.668" y="558.1" font-family="Times New Roman,serif" font-size="14.00">13 &#160;(13) </text>
</g>
<!-- 1_2 -->
<g id="node4" class="node"><title>1_2</title>
<ellipse fill="green" stroke="black" cx="-252" cy="-453.6" rx="62.8651" ry="48.1667"/>
<text text-anchor="middle" x="-252" y="-472.4" font-family="Times New Roman,serif" font-size="14.00">1,2</text>
<text text-anchor="middle" x="-252" y="-457.4" font-family="Times New Roman,serif" font-size="14.00">ic: 11</text>
<text text-anchor="middle" x="-252" y="-442.4" font-family="Times New Roman,serif" font-size="14.00">free: 1,1;1,0</text>
<text text-anchor="middle" x="-252" y="-427.4" font-family="Times New Roman,serif" font-size="14.00">swlolw: none</text>
</g>
<!-- 1_2&#45;&gt;3_1 -->
<g id="edge19" class="edge"><title>1_2&#45;&gt;3_1</title>
<path fill="none" stroke="black" d="M-202.621,-483.53C-130.145,-522.694 5.10971,-590.463 85.7748,-628.153"/>
<polygon fill="black" stroke="black" points="84.79,-631.555 95.3335,-632.596 87.7407,-625.207 84.79,-631.555"/>
<text text-anchor="middle" x="-75.4233" y="-559.642" font-family="Times New Roman,serif" font-size="14.00">3 &#160;(3) </text>
</g>
<!-- 1_2&#45;&gt;3_1 -->
<g id="edge24" class="edge"><title>1_2&#45;&gt;3_1</title>
<path fill="none" stroke="black" d="M-196.329,-476.113C-120.354,-511.226 15.1542,-578.892 92.6174,-620.323"/>
<polygon fill="black" stroke="black" points="91.3031,-623.59 101.768,-625.241 94.6172,-617.424 91.3031,-623.59"/>
<text text-anchor="middle" x="-75.856" y="-537.018" font-family="Times New Roman,serif" font-size="14.00">12 &#160;(12) </text>
</g>
<!-- 1_2&#45;&gt;5_7 -->
<g id="edge21" class="edge"><title>1_2&#45;&gt;5_7</title>
<path fill="none" stroke="black" d="M-216.364,-413.703C-83.2366,-255.394 383.675,328.137 518.026,503.96"/>
<polygon fill="black" stroke="black" points="520.892,501.946 524.17,512.021 515.325,506.19 520.892,501.946"/>
<text text-anchor="middle" x="133.831" y="41.3288" font-family="Times New Roman,serif" font-size="14.00">8 &#160;(8) </text>
</g>
<!-- 1_2&#45;&gt;5_7 -->
<g id="edge22" class="edge"><title>1_2&#45;&gt;5_7</title>
<path fill="none" stroke="black" d="M-221.877,-411.362C-98.3833,-248.849 368.798,335.274 512.276,506.768"/>
<polygon fill="black" stroke="black" points="515.117,504.708 518.861,514.619 509.753,509.206 515.117,504.708"/>
<text text-anchor="middle" x="128.2" y="58.9029" font-family="Times New Roman,serif" font-size="14.00">9 &#160;(9) </text>
</g>
<!-- 1_2&#45;&gt;0_7 -->
<g id="edge20" class="edge"><title>1_2&#45;&gt;0_7</title>
<path fill="none" stroke="black" d="M-258.442,-405.732C-286.922,-238.806 -398.021,317.167 -438.79,497.44"/>
<polygon fill="black" stroke="black" points="-435.392,498.283 -441.025,507.256 -442.217,496.729 -435.392,498.283"/>
<text text-anchor="middle" x="-365.616" y="57.0541" font-family="Times New Roman,serif" font-size="14.00">6 &#160;(6) </text>
</g>
<!-- 1_2&#45;&gt;0_7 -->
<g id="edge23" class="edge"><title>1_2&#45;&gt;0_7</title>
<path fill="none" stroke="black" d="M-264.618,-406.266C-302.708,-240.265 -413.881,315.174 -445.439,496.562"/>
<polygon fill="black" stroke="black" points="-441.995,497.183 -447.143,506.443 -448.893,495.994 -441.995,497.183"/>
<text text-anchor="middle" x="-379.029" y="41.3477" font-family="Times New Roman,serif" font-size="14.00">11 &#160;(11) </text>
</g>
</g>
</svg>
