<?xml version="1.0" encoding="UTF-8" standalone="no"?>
<!DOCTYPE svg PUBLIC "-//W3C//DTD SVG 1.1//EN"
 "http://www.w3.org/Graphics/SVG/1.1/DTD/svg11.dtd">
<!-- Generated by graphviz version 2.38.0 (20140413.2041)
 -->
<!-- Title: tp0.txt Pages: 1 -->
<svg width="1214pt" height="1326pt"
 viewBox="0.00 0.00 1214.00 1325.60" xmlns="http://www.w3.org/2000/svg" xmlns:xlink="http://www.w3.org/1999/xlink">
<g id="graph0" class="graph" transform="scale(1 1) rotate(0) translate(602.68 686.56)">
<title>tp0.txt</title>
<polygon fill="white" stroke="none" points="-602.68,639.04 -602.68,-686.56 611.32,-686.56 611.32,639.04 -602.68,639.04"/>
<g id="clust1" class="cluster"><title>cluster3_1</title>
<polygon fill="none" stroke="black" points="6.12,-502.56 6.12,-682.56 204.12,-682.56 204.12,-502.56 6.12,-502.56"/>
<text text-anchor="middle" x="105.12" y="-667.36" font-family="Times New Roman,serif" font-size="14.00">3,1</text>
</g>
<g id="clust3" class="cluster"><title>cluster0_7</title>
<polygon fill="none" stroke="black" points="-598.68,635.04 -598.68,527.04 -400.68,527.04 -400.68,635.04 -598.68,635.04"/>
<text text-anchor="middle" x="-499.68" y="542.24" font-family="Times New Roman,serif" font-size="14.00">0,7</text>
</g>
<g id="clust2" class="cluster"><title>cluster5_7</title>
<polygon fill="none" stroke="black" points="409.32,635.04 409.32,527.04 607.32,527.04 607.32,635.04 409.32,635.04"/>
<text text-anchor="middle" x="508.32" y="542.24" font-family="Times New Roman,serif" font-size="14.00">5,7</text>
</g>
<g id="clust4" class="cluster"><title>cluster1_2</title>
<polygon fill="none" stroke="black" points="-397.08,-444.96 -397.08,-480.96 -271.08,-480.96 -271.08,-444.96 -397.08,-444.96"/>
<text text-anchor="middle" x="-334.08" y="-465.76" font-family="Times New Roman,serif" font-size="14.00">1,2</text>
</g>
<!-- battery3_1_0 -->
<g id="node1" class="node"><title>battery3_1_0</title>
<ellipse fill="none" stroke="black" cx="33.12" cy="-664.56" rx="27" ry="18"/>
<text text-anchor="middle" x="33.12" y="-660.86" font-family="Times New Roman,serif" font-size="14.00">0,&#45;1</text>
</g>
<!-- battery3_1_8 -->
<g id="node8" class="node"><title>battery3_1_8</title>
<ellipse fill="none" stroke="black" cx="105.12" cy="-520.56" rx="27" ry="18"/>
<text text-anchor="middle" x="105.12" y="-516.86" font-family="Times New Roman,serif" font-size="14.00">8,8</text>
</g>
<!-- battery3_1_0&#45;&gt;battery3_1_8 -->
<g id="edge35" class="edge"><title>battery3_1_0&#45;&gt;battery3_1_8</title>
<path fill="none" stroke="orange" d="M46.2468,-648.69C61.2934,-624.377 84.8445,-577.735 97.3258,-547.911"/>
<polygon fill="orange" stroke="orange" points="100.627,-549.082 101.106,-538.498 94.1313,-546.474 100.627,-549.082"/>
<text text-anchor="middle" x="68.2863" y="-602.101" font-family="Times New Roman,serif" font-size="14.00">6</text>
</g>
<!-- battery3_1_1 -->
<g id="node2" class="node"><title>battery3_1_1</title>
<ellipse fill="none" stroke="black" cx="105.12" cy="-664.56" rx="27" ry="18"/>
<text text-anchor="middle" x="105.12" y="-660.86" font-family="Times New Roman,serif" font-size="14.00">1,2</text>
</g>
<!-- battery3_1_2 -->
<g id="node3" class="node"><title>battery3_1_2</title>
<ellipse fill="none" stroke="black" cx="177.12" cy="-664.56" rx="27" ry="18"/>
<text text-anchor="middle" x="177.12" y="-660.86" font-family="Times New Roman,serif" font-size="14.00">2,11</text>
</g>
<!-- battery3_1_2&#45;&gt;battery3_1_0 -->
<g id="edge16" class="edge"><title>battery3_1_2&#45;&gt;battery3_1_0</title>
<path fill="none" stroke="#000000" stroke-opacity="0.333333" d="M150.035,-664.56C127.65,-664.56 95.6229,-664.56 70.7475,-664.56"/>
<polygon fill="none" stroke="#000000" stroke-opacity="0.333333" points="70.5735,-661.06 60.5734,-664.56 70.5734,-668.06 70.5735,-661.06"/>
</g>
<!-- battery3_1_3 -->
<g id="node4" class="node"><title>battery3_1_3</title>
<ellipse fill="none" stroke="black" cx="33.12" cy="-592.56" rx="27" ry="18"/>
<text text-anchor="middle" x="33.12" y="-588.86" font-family="Times New Roman,serif" font-size="14.00">3,1</text>
</g>
<!-- battery3_1_3&#45;&gt;battery3_1_1 -->
<g id="edge3" class="edge"><title>battery3_1_3&#45;&gt;battery3_1_1</title>
<path fill="none" stroke="#000000" stroke-opacity="0.333333" d="M48.3893,-607.829C58.317,-617.757 71.4353,-630.875 82.5563,-641.996"/>
<polygon fill="none" stroke="#000000" stroke-opacity="0.333333" points="80.3267,-644.716 89.8727,-649.313 85.2765,-639.767 80.3267,-644.716"/>
</g>
<!-- battery3_1_4 -->
<g id="node5" class="node"><title>battery3_1_4</title>
<ellipse fill="none" stroke="black" cx="105.12" cy="-592.56" rx="27" ry="18"/>
<text text-anchor="middle" x="105.12" y="-588.86" font-family="Times New Roman,serif" font-size="14.00">4,10</text>
</g>
<!-- battery3_1_4&#45;&gt;battery3_1_0 -->
<g id="edge15" class="edge"><title>battery3_1_4&#45;&gt;battery3_1_0</title>
<path fill="none" stroke="#000000" stroke-opacity="0.333333" d="M89.8507,-607.829C79.923,-617.757 66.8047,-630.875 55.6837,-641.996"/>
<polygon fill="none" stroke="#000000" stroke-opacity="0.333333" points="52.9636,-639.767 48.3673,-649.313 57.9133,-644.716 52.9636,-639.767"/>
</g>
<!-- battery3_1_4&#45;&gt;battery3_1_2 -->
<g id="edge14" class="edge"><title>battery3_1_4&#45;&gt;battery3_1_2</title>
<path fill="none" stroke="#000000" stroke-opacity="0.333333" d="M120.389,-607.829C130.317,-617.757 143.435,-630.875 154.556,-641.996"/>
<polygon fill="none" stroke="#000000" stroke-opacity="0.333333" points="152.327,-644.716 161.873,-649.313 157.276,-639.767 152.327,-644.716"/>
</g>
<!-- battery3_1_5 -->
<g id="node6" class="node"><title>battery3_1_5</title>
<ellipse fill="yellow" stroke="black" cx="177.12" cy="-592.56" rx="27" ry="18"/>
<text text-anchor="middle" x="177.12" y="-588.86" font-family="Times New Roman,serif" font-size="14.00">5,0</text>
</g>
<!-- battery3_1_5&#45;&gt;battery3_1_3 -->
<g id="edge2" class="edge"><title>battery3_1_5&#45;&gt;battery3_1_3</title>
<path fill="none" stroke="#000000" stroke-opacity="0.333333" d="M150.035,-592.56C127.65,-592.56 95.6229,-592.56 70.7475,-592.56"/>
<polygon fill="none" stroke="#000000" stroke-opacity="0.333333" points="70.5735,-589.06 60.5734,-592.56 70.5734,-596.06 70.5735,-589.06"/>
</g>
<!-- battery5_7_0 -->
<g id="node9" class="node"><title>battery5_7_0</title>
<ellipse fill="none" stroke="black" cx="436.32" cy="545.04" rx="27" ry="18"/>
<text text-anchor="middle" x="436.32" y="548.74" font-family="Times New Roman,serif" font-size="14.00">0,&#45;1</text>
</g>
<!-- battery3_1_5&#45;&gt;battery5_7_0 -->
<g id="edge1" class="edge"><title>battery3_1_5&#45;&gt;battery5_7_0</title>
<path fill="none" stroke="red" d="M181.191,-574.691C210.845,-444.544 393.48,357.022 429.977,517.201"/>
<polygon fill="red" stroke="red" points="433.448,516.683 432.258,527.21 426.623,518.238 433.448,516.683"/>
<text text-anchor="middle" x="302.084" y="-32.5451" font-family="Times New Roman,serif" font-size="14.00">3</text>
</g>
<!-- battery3_1_6 -->
<g id="node7" class="node"><title>battery3_1_6</title>
<ellipse fill="none" stroke="black" cx="33.12" cy="-520.56" rx="27" ry="18"/>
<text text-anchor="middle" x="33.12" y="-516.86" font-family="Times New Roman,serif" font-size="14.00">6,9</text>
</g>
<!-- battery3_1_6&#45;&gt;battery3_1_0 -->
<g id="edge13" class="edge"><title>battery3_1_6&#45;&gt;battery3_1_0</title>
<path fill="none" stroke="#000000" stroke-opacity="0.333333" d="M33.12,-538.798C33.12,-563.359 33.12,-607.313 33.12,-636.206"/>
<polygon fill="none" stroke="#000000" stroke-opacity="0.333333" points="29.6201,-636.47 33.12,-646.47 36.6201,-636.47 29.6201,-636.47"/>
</g>
<!-- battery3_1_6&#45;&gt;battery3_1_4 -->
<g id="edge12" class="edge"><title>battery3_1_6&#45;&gt;battery3_1_4</title>
<path fill="none" stroke="#000000" stroke-opacity="0.333333" d="M48.3893,-535.829C58.317,-545.757 71.4353,-558.875 82.5563,-569.996"/>
<polygon fill="none" stroke="#000000" stroke-opacity="0.333333" points="80.3267,-572.716 89.8727,-577.313 85.2764,-567.767 80.3267,-572.716"/>
</g>
<!-- battery3_1_6&#45;&gt;battery5_7_0 -->
<g id="edge10" class="edge"><title>battery3_1_6&#45;&gt;battery5_7_0</title>
<path fill="none" stroke="#000000" stroke-opacity="0.333333" d="M39.7819,-502.954C86.7743,-378.759 368.147,364.87 425.946,517.623"/>
<polygon fill="none" stroke="#000000" stroke-opacity="0.333333" points="429.305,516.611 429.57,527.202 422.758,519.088 429.305,516.611"/>
</g>
<!-- battery5_7_1 -->
<g id="node10" class="node"><title>battery5_7_1</title>
<ellipse fill="none" stroke="black" cx="508.32" cy="545.04" rx="27" ry="18"/>
<text text-anchor="middle" x="508.32" y="548.74" font-family="Times New Roman,serif" font-size="14.00">1,5</text>
</g>
<!-- battery3_1_6&#45;&gt;battery5_7_1 -->
<g id="edge11" class="edge"><title>battery3_1_6&#45;&gt;battery5_7_1</title>
<path fill="none" stroke="#000000" stroke-opacity="0.333333" d="M40.9715,-502.954C96.4143,-378.627 428.68,366.454 496.31,518.109"/>
<polygon fill="none" stroke="#000000" stroke-opacity="0.333333" points="499.67,517.05 500.546,527.608 493.277,519.901 499.67,517.05"/>
</g>
<!-- battery3_1_8&#45;&gt;battery3_1_0 -->
<g id="edge9" class="edge"><title>battery3_1_8&#45;&gt;battery3_1_0</title>
<path fill="none" stroke="#000000" stroke-opacity="0.333333" d="M91.9932,-536.43C76.9466,-560.743 53.3955,-607.385 40.9142,-637.209"/>
<polygon fill="none" stroke="#000000" stroke-opacity="0.333333" points="37.6129,-636.037 37.134,-646.621 44.1087,-638.646 37.6129,-636.037"/>
</g>
<!-- battery3_1_8&#45;&gt;battery3_1_5 -->
<g id="edge33" class="edge"><title>battery3_1_8&#45;&gt;battery3_1_5</title>
<path fill="none" stroke="orange" d="M120.389,-535.829C130.317,-545.757 143.435,-558.875 154.556,-569.996"/>
<polygon fill="orange" stroke="orange" points="152.327,-572.716 161.873,-577.313 157.276,-567.767 152.327,-572.716"/>
<text text-anchor="middle" x="133.973" y="-556.713" font-family="Times New Roman,serif" font-size="14.00">2</text>
</g>
<!-- battery3_1_8&#45;&gt;battery3_1_6 -->
<g id="edge8" class="edge"><title>battery3_1_8&#45;&gt;battery3_1_6</title>
<path fill="none" stroke="#000000" stroke-opacity="0.333333" d="M77.8999,-520.56C75.4807,-520.56 73.0051,-520.56 70.5207,-520.56"/>
<polygon fill="none" stroke="#000000" stroke-opacity="0.333333" points="70.3786,-517.06 60.3786,-520.56 70.3786,-524.06 70.3786,-517.06"/>
</g>
<!-- battery3_1_8&#45;&gt;battery5_7_0 -->
<g id="edge7" class="edge"><title>battery3_1_8&#45;&gt;battery5_7_0</title>
<path fill="none" stroke="#000000" stroke-opacity="0.333333" d="M110.73,-502.512C149.743,-376.991 380.434,365.231 427.816,517.679"/>
<polygon fill="none" stroke="#000000" stroke-opacity="0.333333" points="431.161,516.65 430.787,527.239 424.477,518.728 431.161,516.65"/>
</g>
<!-- battery5_7_2 -->
<g id="node11" class="node"><title>battery5_7_2</title>
<ellipse fill="none" stroke="black" cx="580.32" cy="545.04" rx="27" ry="18"/>
<text text-anchor="middle" x="580.32" y="548.74" font-family="Times New Roman,serif" font-size="14.00">2,12</text>
</g>
<!-- battery3_1_8&#45;&gt;battery5_7_2 -->
<g id="edge5" class="edge"><title>battery3_1_8&#45;&gt;battery5_7_2</title>
<path fill="none" stroke="#000000" stroke-opacity="0.333333" d="M112.972,-502.954C168.414,-378.627 500.68,366.454 568.31,518.109"/>
<polygon fill="none" stroke="#000000" stroke-opacity="0.333333" points="571.67,517.05 572.546,527.608 565.277,519.901 571.67,517.05"/>
</g>
<!-- battery5_7_3 -->
<g id="node12" class="node"><title>battery5_7_3</title>
<ellipse fill="none" stroke="black" cx="436.32" cy="617.04" rx="27" ry="18"/>
<text text-anchor="middle" x="436.32" y="620.74" font-family="Times New Roman,serif" font-size="14.00">3,4</text>
</g>
<!-- battery3_1_8&#45;&gt;battery5_7_3 -->
<g id="edge4" class="edge"><title>battery3_1_8&#45;&gt;battery5_7_3</title>
<path fill="none" stroke="#000000" stroke-opacity="0.333333" d="M110.322,-502.691C148.213,-372.544 381.58,429.022 428.215,589.201"/>
<polygon fill="none" stroke="#000000" stroke-opacity="0.333333" points="431.694,588.631 431.129,599.21 424.973,590.587 431.694,588.631"/>
</g>
<!-- battery0_7_0 -->
<g id="node14" class="node"><title>battery0_7_0</title>
<ellipse fill="none" stroke="black" cx="-571.68" cy="545.04" rx="27" ry="18"/>
<text text-anchor="middle" x="-571.68" y="548.74" font-family="Times New Roman,serif" font-size="14.00">0,&#45;1</text>
</g>
<!-- battery3_1_8&#45;&gt;battery0_7_0 -->
<g id="edge6" class="edge"><title>battery3_1_8&#45;&gt;battery0_7_0</title>
<path fill="none" stroke="red" d="M94.4891,-503.822C16.905,-381.668 -461.728,371.924 -555.684,519.855"/>
<polygon fill="red" stroke="red" points="-552.757,521.774 -561.072,528.339 -558.666,518.021 -552.757,521.774"/>
<text text-anchor="middle" x="-234.097" y="4.21648" font-family="Times New Roman,serif" font-size="14.00">7</text>
</g>
<!-- battery5_7_5 -->
<g id="node13" class="node"><title>battery5_7_5</title>
<ellipse fill="yellow" stroke="black" cx="508.32" cy="617.04" rx="27" ry="18"/>
<text text-anchor="middle" x="508.32" y="620.74" font-family="Times New Roman,serif" font-size="14.00">5,3</text>
</g>
<!-- battery5_7_0&#45;&gt;battery5_7_5 -->
<g id="edge34" class="edge"><title>battery5_7_0&#45;&gt;battery5_7_5</title>
<path fill="none" stroke="orange" d="M456.731,557.304C468.01,566.926 481.742,580.473 492.259,592.278"/>
<polygon fill="orange" stroke="orange" points="495.114,590.23 498.958,600.103 489.796,594.782 495.114,590.23"/>
<text text-anchor="middle" x="470.995" y="570.991" font-family="Times New Roman,serif" font-size="14.00">4</text>
</g>
<!-- battery5_7_2&#45;&gt;battery5_7_0 -->
<g id="edge21" class="edge"><title>battery5_7_2&#45;&gt;battery5_7_0</title>
<path fill="none" stroke="#000000" stroke-opacity="0.333333" d="M553.235,545.04C530.85,545.04 498.823,545.04 473.947,545.04"/>
<polygon fill="none" stroke="#000000" stroke-opacity="0.333333" points="473.773,548.54 463.773,545.04 473.773,541.54 473.773,548.54"/>
</g>
<!-- battery5_7_3&#45;&gt;battery5_7_1 -->
<g id="edge20" class="edge"><title>battery5_7_3&#45;&gt;battery5_7_1</title>
<path fill="none" stroke="#000000" stroke-opacity="0.333333" d="M451.589,601.771C461.517,591.843 474.635,578.725 485.756,567.604"/>
<polygon fill="none" stroke="#000000" stroke-opacity="0.333333" points="483.527,564.884 493.073,560.287 488.476,569.833 483.527,564.884"/>
</g>
<!-- battery5_7_5&#45;&gt;battery3_1_0 -->
<g id="edge17" class="edge"><title>battery5_7_5&#45;&gt;battery3_1_0</title>
<path fill="none" stroke="red" d="M501.783,599.411C450.002,459.757 106.422,-466.868 43.1314,-637.56"/>
<polygon fill="red" stroke="red" points="39.8034,-636.468 39.6084,-647.061 46.3667,-638.902 39.8034,-636.468"/>
<text text-anchor="middle" x="268.957" y="-22.8745" font-family="Times New Roman,serif" font-size="14.00">5</text>
</g>
<!-- battery5_7_5&#45;&gt;battery5_7_0 -->
<g id="edge19" class="edge"><title>battery5_7_5&#45;&gt;battery5_7_0</title>
<path fill="none" stroke="#000000" stroke-opacity="0.333333" d="M487.909,604.776C476.63,595.154 462.898,581.607 452.381,569.802"/>
<polygon fill="none" stroke="#000000" stroke-opacity="0.333333" points="449.526,571.85 445.682,561.977 454.844,567.298 449.526,571.85"/>
</g>
<!-- battery5_7_5&#45;&gt;battery5_7_3 -->
<g id="edge18" class="edge"><title>battery5_7_5&#45;&gt;battery5_7_3</title>
<path fill="none" stroke="#000000" stroke-opacity="0.333333" d="M481.1,617.04C478.681,617.04 476.205,617.04 473.721,617.04"/>
<polygon fill="none" stroke="#000000" stroke-opacity="0.333333" points="473.579,620.54 463.579,617.04 473.579,613.54 473.579,620.54"/>
</g>
<!-- battery0_7_2 -->
<g id="node16" class="node"><title>battery0_7_2</title>
<ellipse fill="yellow" stroke="black" cx="-427.68" cy="545.04" rx="27" ry="18"/>
<text text-anchor="middle" x="-427.68" y="548.74" font-family="Times New Roman,serif" font-size="14.00">2,6</text>
</g>
<!-- battery0_7_0&#45;&gt;battery0_7_2 -->
<g id="edge36" class="edge"><title>battery0_7_0&#45;&gt;battery0_7_2</title>
<path fill="none" stroke="orange" d="M-545.603,539.7C-522.665,538.044 -489.056,537.847 -463.581,539.109"/>
<polygon fill="orange" stroke="orange" points="-463.334,535.617 -453.563,539.714 -463.756,542.605 -463.334,535.617"/>
<text text-anchor="middle" x="-508.092" y="535.605" font-family="Times New Roman,serif" font-size="14.00">8</text>
</g>
<!-- battery0_7_1 -->
<g id="node15" class="node"><title>battery0_7_1</title>
<ellipse fill="none" stroke="black" cx="-499.68" cy="545.04" rx="27" ry="18"/>
<text text-anchor="middle" x="-499.68" y="548.74" font-family="Times New Roman,serif" font-size="14.00">1,15</text>
</g>
<!-- battery0_7_2&#45;&gt;battery0_7_0 -->
<g id="edge22" class="edge"><title>battery0_7_2&#45;&gt;battery0_7_0</title>
<path fill="none" stroke="#000000" stroke-opacity="0.333333" d="M-453.757,550.38C-476.695,552.036 -510.304,552.233 -535.779,550.971"/>
<polygon fill="none" stroke="#000000" stroke-opacity="0.333333" points="-536.026,554.463 -545.797,550.366 -535.604,547.475 -536.026,554.463"/>
</g>
<!-- battery0_7_3 -->
<g id="node17" class="node"><title>battery0_7_3</title>
<ellipse fill="none" stroke="black" cx="-571.68" cy="617.04" rx="27" ry="18"/>
<text text-anchor="middle" x="-571.68" y="620.74" font-family="Times New Roman,serif" font-size="14.00">3,14</text>
</g>
<!-- battery0_7_3&#45;&gt;battery0_7_1 -->
<g id="edge24" class="edge"><title>battery0_7_3&#45;&gt;battery0_7_1</title>
<path fill="none" stroke="#000000" stroke-opacity="0.333333" d="M-556.411,601.771C-546.483,591.843 -533.365,578.725 -522.244,567.604"/>
<polygon fill="none" stroke="#000000" stroke-opacity="0.333333" points="-524.473,564.884 -514.927,560.287 -519.524,569.833 -524.473,564.884"/>
</g>
<!-- battery0_7_5 -->
<g id="node18" class="node"><title>battery0_7_5</title>
<ellipse fill="none" stroke="black" cx="-499.68" cy="617.04" rx="27" ry="18"/>
<text text-anchor="middle" x="-499.68" y="620.74" font-family="Times New Roman,serif" font-size="14.00">5,13</text>
</g>
<!-- battery0_7_5&#45;&gt;battery0_7_3 -->
<g id="edge23" class="edge"><title>battery0_7_5&#45;&gt;battery0_7_3</title>
<path fill="none" stroke="#000000" stroke-opacity="0.333333" d="M-526.9,617.04C-529.319,617.04 -531.795,617.04 -534.279,617.04"/>
<polygon fill="none" stroke="#000000" stroke-opacity="0.333333" points="-534.421,620.54 -544.421,617.04 -534.421,613.54 -534.421,620.54"/>
</g>
<!-- battery1_2_0 -->
<g id="node19" class="node"><title>battery1_2_0</title>
<ellipse fill="none" stroke="black" cx="-370.08" cy="-462.96" rx="27" ry="18"/>
<text text-anchor="middle" x="-370.08" y="-459.26" font-family="Times New Roman,serif" font-size="14.00">0,&#45;1</text>
</g>
<!-- battery1_2_11 -->
<g id="node20" class="node"><title>battery1_2_11</title>
<ellipse fill="green" stroke="black" cx="-298.08" cy="-462.96" rx="27" ry="18"/>
<text text-anchor="middle" x="-298.08" y="-459.26" font-family="Times New Roman,serif" font-size="14.00">11,7</text>
</g>
<!-- battery1_2_0&#45;&gt;battery1_2_11 -->
<g id="edge32" class="edge"><title>battery1_2_0&#45;&gt;battery1_2_11</title>
<path fill="none" stroke="orange" d="M-342.86,-462.96C-340.441,-462.96 -337.965,-462.96 -335.481,-462.96"/>
<polygon fill="orange" stroke="orange" points="-335.339,-466.46 -325.339,-462.96 -335.339,-459.46 -335.339,-466.46"/>
<text text-anchor="middle" x="-335.67" y="-451.76" font-family="Times New Roman,serif" font-size="14.00">0</text>
</g>
<!-- battery1_2_11&#45;&gt;battery3_1_0 -->
<g id="edge31" class="edge"><title>battery1_2_11&#45;&gt;battery3_1_0</title>
<path fill="none" stroke="#000000" stroke-opacity="0.333333" d="M-277.861,-475.267C-221.255,-509.723 -61.062,-607.232 4.55467,-647.172"/>
<polygon fill="none" stroke="#000000" stroke-opacity="0.333333" points="2.80333,-650.204 13.1652,-652.414 6.44299,-644.224 2.80333,-650.204"/>
</g>
<!-- battery1_2_11&#45;&gt;battery3_1_8 -->
<g id="edge25" class="edge"><title>battery1_2_11&#45;&gt;battery3_1_8</title>
<path fill="none" stroke="red" d="M-271.625,-466.739C-201.707,-476.728 -11.8923,-503.844 68.4313,-515.319"/>
<polygon fill="red" stroke="red" points="68.173,-518.817 78.5675,-516.767 69.163,-511.888 68.173,-518.817"/>
<text text-anchor="middle" x="-105.097" y="-494.829" font-family="Times New Roman,serif" font-size="14.00">1</text>
</g>
<!-- battery1_2_11&#45;&gt;battery5_7_0 -->
<g id="edge30" class="edge"><title>battery1_2_11&#45;&gt;battery5_7_0</title>
<path fill="none" stroke="#000000" stroke-opacity="0.333333" d="M-286.247,-446.718C-201.313,-330.142 315.051,378.592 418.344,520.368"/>
<polygon fill="none" stroke="#000000" stroke-opacity="0.333333" points="421.222,518.373 424.281,528.517 415.564,522.495 421.222,518.373"/>
</g>
<!-- battery1_2_11&#45;&gt;battery5_7_2 -->
<g id="edge28" class="edge"><title>battery1_2_11&#45;&gt;battery5_7_2</title>
<path fill="none" stroke="#000000" stroke-opacity="0.333333" d="M-284.282,-447.127C-183.488,-331.461 438.856,382.704 559.923,521.633"/>
<polygon fill="none" stroke="#000000" stroke-opacity="0.333333" points="562.622,519.403 566.553,529.242 557.344,524.002 562.622,519.403"/>
</g>
<!-- battery1_2_11&#45;&gt;battery5_7_3 -->
<g id="edge27" class="edge"><title>battery1_2_11&#45;&gt;battery5_7_3</title>
<path fill="none" stroke="#000000" stroke-opacity="0.333333" d="M-286.838,-446.428C-203.495,-323.865 317.876,442.858 419.251,591.939"/>
<polygon fill="none" stroke="#000000" stroke-opacity="0.333333" points="422.33,590.242 425.059,600.479 416.541,594.178 422.33,590.242"/>
</g>
<!-- battery1_2_11&#45;&gt;battery0_7_0 -->
<g id="edge29" class="edge"><title>battery1_2_11&#45;&gt;battery0_7_0</title>
<path fill="none" stroke="#000000" stroke-opacity="0.333333" d="M-302.945,-445.036C-335.711,-324.318 -524.11,369.782 -564.186,517.429"/>
<polygon fill="none" stroke="#000000" stroke-opacity="0.333333" points="-560.813,518.366 -566.81,527.1 -567.569,516.532 -560.813,518.366"/>
</g>
<!-- battery1_2_11&#45;&gt;battery0_7_5 -->
<g id="edge26" class="edge"><title>battery1_2_11&#45;&gt;battery0_7_5</title>
<path fill="none" stroke="#000000" stroke-opacity="0.333333" d="M-301.495,-444.668C-325.218,-317.578 -465.382,433.299 -494.417,588.844"/>
<polygon fill="none" stroke="#000000" stroke-opacity="0.333333" points="-491.037,589.81 -496.312,598.998 -497.918,588.526 -491.037,589.81"/>
</g>
</g>
</svg>
