<?xml version="1.0" encoding="UTF-8" standalone="no"?>
<!DOCTYPE svg PUBLIC "-//W3C//DTD SVG 1.1//EN"
 "http://www.w3.org/Graphics/SVG/1.1/DTD/svg11.dtd">
<!-- Generated by graphviz version 2.38.0 (20140413.2041)
 -->
<!-- Title: tp3.txt_fields Pages: 1 -->
<svg width="1031pt" height="1314pt"
 viewBox="0.00 0.00 1030.51 1313.77" xmlns="http://www.w3.org/2000/svg" xmlns:xlink="http://www.w3.org/1999/xlink">
<g id="graph0" class="graph" transform="scale(1 1) rotate(0) translate(470.132 656.883)">
<title>tp3.txt_fields</title>
<polygon fill="white" stroke="none" points="-470.132,656.883 -470.132,-656.883 560.375,-656.883 560.375,656.883 -470.132,656.883"/>
<!-- 6_1 -->
<g id="node1" class="node"><title>6_1</title>
<ellipse fill="none" stroke="black" cx="403.2" cy="-604.8" rx="67.3507" ry="48.1667"/>
<text text-anchor="middle" x="403.2" y="-623.6" font-family="Times New Roman,serif" font-size="14.00">6,1</text>
<text text-anchor="middle" x="403.2" y="-608.6" font-family="Times New Roman,serif" font-size="14.00">ic: 3</text>
<text text-anchor="middle" x="403.2" y="-593.6" font-family="Times New Roman,serif" font-size="14.00">free: 6,0;None</text>
<text text-anchor="middle" x="403.2" y="-578.6" font-family="Times New Roman,serif" font-size="14.00">swlolw: none</text>
</g>
<!-- 6_1&#45;&gt;6_1 -->
<g id="edge1" class="edge"><title>6_1&#45;&gt;6_1</title>
<path fill="none" stroke="black" d="M470.328,-607.908C481.042,-607.453 488.375,-606.417 488.375,-604.8 488.375,-603.764 485.365,-602.966 480.385,-602.407"/>
<polygon fill="black" stroke="black" points="480.551,-598.91 470.328,-601.692 480.054,-605.893 480.551,-598.91"/>
<text text-anchor="middle" x="505.375" y="-601.1" font-family="Times New Roman,serif" font-size="14.00">2 &#160;(4) </text>
</g>
<!-- 6_1&#45;&gt;6_1 -->
<g id="edge6" class="edge"><title>6_1&#45;&gt;6_1</title>
<path fill="none" stroke="black" d="M469.944,-611.513C497.916,-611.872 522.375,-609.634 522.375,-604.8 522.375,-600.57 503.649,-598.328 480.228,-598.074"/>
<polygon fill="black" stroke="black" points="479.939,-594.575 469.944,-598.087 479.948,-601.575 479.939,-594.575"/>
<text text-anchor="middle" x="539.375" y="-601.1" font-family="Times New Roman,serif" font-size="14.00">9 &#160;(9) </text>
</g>
<!-- 6_6 -->
<g id="node2" class="node"><title>6_6</title>
<ellipse fill="none" stroke="black" cx="403.2" cy="403.2" rx="62.8651" ry="48.1667"/>
<text text-anchor="middle" x="403.2" y="384.4" font-family="Times New Roman,serif" font-size="14.00">6,6</text>
<text text-anchor="middle" x="403.2" y="399.4" font-family="Times New Roman,serif" font-size="14.00">ic: 4</text>
<text text-anchor="middle" x="403.2" y="414.4" font-family="Times New Roman,serif" font-size="14.00">free: 6,5;6,4</text>
<text text-anchor="middle" x="403.2" y="429.4" font-family="Times New Roman,serif" font-size="14.00">swlolw: none</text>
</g>
<!-- 6_1&#45;&gt;6_6 -->
<g id="edge2" class="edge"><title>6_1&#45;&gt;6_6</title>
<path fill="none" stroke="black" d="M412.471,-556.86C426.839,-390.098 427.105,164.346 413.267,345.435"/>
<polygon fill="black" stroke="black" points="416.744,345.87 412.446,355.554 409.767,345.303 416.744,345.87"/>
<text text-anchor="middle" x="395.869" y="-109.513" font-family="Times New Roman,serif" font-size="14.00">4 &#160;(4) </text>
</g>
<!-- 6_1&#45;&gt;6_6 -->
<g id="edge3" class="edge"><title>6_1&#45;&gt;6_6</title>
<path fill="none" stroke="black" d="M393.929,-556.86C379.561,-390.098 379.295,164.346 393.133,345.435"/>
<polygon fill="black" stroke="black" points="396.633,345.303 393.954,355.554 389.656,345.87 396.633,345.303"/>
<text text-anchor="middle" x="376.531" y="-94.5126" font-family="Times New Roman,serif" font-size="14.00">5 &#160;(5) </text>
</g>
<!-- 2_7 -->
<g id="node3" class="node"><title>2_7</title>
<ellipse fill="none" stroke="black" cx="-403.2" cy="604.8" rx="62.8651" ry="48.1667"/>
<text text-anchor="middle" x="-403.2" y="586" font-family="Times New Roman,serif" font-size="14.00">2,7</text>
<text text-anchor="middle" x="-403.2" y="601" font-family="Times New Roman,serif" font-size="14.00">ic: 2</text>
<text text-anchor="middle" x="-403.2" y="616" font-family="Times New Roman,serif" font-size="14.00">free: 2,6;2,5</text>
<text text-anchor="middle" x="-403.2" y="631" font-family="Times New Roman,serif" font-size="14.00">swlolw: none</text>
</g>
<!-- 6_1&#45;&gt;2_7 -->
<g id="edge4" class="edge"><title>6_1&#45;&gt;2_7</title>
<path fill="none" stroke="black" d="M382.317,-559.085C274.3,-368.13 -212.758,363.004 -360.838,557.293"/>
<polygon fill="black" stroke="black" points="-358.142,559.528 -367.007,565.33 -363.695,555.266 -358.142,559.528"/>
<text text-anchor="middle" x="27.7395" y="-4.69583" font-family="Times New Roman,serif" font-size="14.00">7 &#160;(7) </text>
</g>
<!-- 6_1&#45;&gt;2_7 -->
<g id="edge5" class="edge"><title>6_1&#45;&gt;2_7</title>
<path fill="none" stroke="black" d="M366.405,-564.551C227.414,-384.586 -258.766,344.456 -377.402,550.475"/>
<polygon fill="black" stroke="black" points="-374.449,552.364 -382.447,559.313 -380.529,548.893 -374.449,552.364"/>
<text text-anchor="middle" x="-22.4981" y="-10.8378" font-family="Times New Roman,serif" font-size="14.00">8 &#160;(8) </text>
</g>
<!-- 6_6&#45;&gt;6_1 -->
<g id="edge8" class="edge"><title>6_6&#45;&gt;6_1</title>
<path fill="none" stroke="black" d="M400.1,354.922C395.325,187.922 395.235,-364.919 399.83,-546.47"/>
<polygon fill="black" stroke="black" points="396.335,-546.716 400.103,-556.618 403.333,-546.528 396.335,-546.716"/>
<text text-anchor="middle" x="416.965" y="-84.5744" font-family="Times New Roman,serif" font-size="14.00">4 &#160;(4) </text>
</g>
<!-- 6_6&#45;&gt;6_1 -->
<g id="edge9" class="edge"><title>6_6&#45;&gt;6_1</title>
<path fill="none" stroke="black" d="M406.3,354.922C411.075,187.922 411.165,-364.919 406.57,-546.47"/>
<polygon fill="black" stroke="black" points="403.067,-546.528 406.297,-556.618 410.065,-546.716 403.067,-546.528"/>
<text text-anchor="middle" x="423.435" y="-99.5744" font-family="Times New Roman,serif" font-size="14.00">5 &#160;(5) </text>
</g>
<!-- 6_6&#45;&gt;6_6 -->
<g id="edge7" class="edge"><title>6_6&#45;&gt;6_6</title>
<path fill="none" stroke="black" d="M466.315,400.063C476.858,400.502 484.132,401.548 484.132,403.2 484.132,404.233 481.291,405.028 476.586,405.587"/>
<polygon fill="black" stroke="black" points="476.544,409.099 466.315,406.337 476.034,402.118 476.544,409.099"/>
<text text-anchor="middle" x="501.132" y="406.9" font-family="Times New Roman,serif" font-size="14.00">2 &#160;(4) </text>
</g>
<!-- 6_6&#45;&gt;6_6 -->
<g id="edge12" class="edge"><title>6_6&#45;&gt;6_6</title>
<path fill="none" stroke="black" d="M465.72,396.514C493.447,396.032 518.132,398.261 518.132,403.2 518.132,407.522 499.232,409.768 475.933,409.939"/>
<polygon fill="black" stroke="black" points="475.701,413.438 465.72,409.886 475.738,406.438 475.701,413.438"/>
<text text-anchor="middle" x="535.132" y="406.9" font-family="Times New Roman,serif" font-size="14.00">9 &#160;(9) </text>
</g>
<!-- 6_6&#45;&gt;2_7 -->
<g id="edge10" class="edge"><title>6_6&#45;&gt;2_7</title>
<path fill="none" stroke="black" d="M349.164,428.05C208.327,475.6 -169.95,570.527 -330.056,598.93"/>
<polygon fill="black" stroke="black" points="-329.83,602.443 -340.281,600.704 -331.026,595.546 -329.83,602.443"/>
<text text-anchor="middle" x="-7.44583" y="524.69" font-family="Times New Roman,serif" font-size="14.00">5 &#160;(5) </text>
</g>
<!-- 6_6&#45;&gt;2_7 -->
<g id="edge11" class="edge"><title>6_6&#45;&gt;2_7</title>
<path fill="none" stroke="black" d="M340.18,407.314C189.823,432.762 -188.446,527.163 -339.493,576.733"/>
<polygon fill="black" stroke="black" points="-338.515,580.096 -349.109,579.932 -340.725,573.454 -338.515,580.096"/>
<text text-anchor="middle" x="-16.6567" y="488.223" font-family="Times New Roman,serif" font-size="14.00">6 &#160;(6) </text>
</g>
<!-- 2_7&#45;&gt;6_1 -->
<g id="edge16" class="edge"><title>2_7&#45;&gt;6_1</title>
<path fill="none" stroke="black" d="M-377.212,560.966C-259.137,374.267 226.242,-353.968 365.651,-553.83"/>
<polygon fill="black" stroke="black" points="362.844,-555.923 371.442,-562.112 368.58,-551.911 362.844,-555.923"/>
<text text-anchor="middle" x="-22.7804" y="14.7678" font-family="Times New Roman,serif" font-size="14.00">7 &#160;(7) </text>
</g>
<!-- 2_7&#45;&gt;6_1 -->
<g id="edge17" class="edge"><title>2_7&#45;&gt;6_1</title>
<path fill="none" stroke="black" d="M-371.997,562.903C-243.685,379.985 241.932,-348.31 371.38,-551.773"/>
<polygon fill="black" stroke="black" points="368.602,-553.927 376.915,-560.496 374.513,-550.177 368.602,-553.927"/>
<text text-anchor="middle" x="16.6916" y="16.765" font-family="Times New Roman,serif" font-size="14.00">8 &#160;(8) </text>
</g>
<!-- 2_7&#45;&gt;6_6 -->
<g id="edge14" class="edge"><title>2_7&#45;&gt;6_6</title>
<path fill="none" stroke="black" d="M-344.81,586.349C-200.192,546.155 174.263,452.444 331.751,416.917"/>
<polygon fill="black" stroke="black" points="331.283,413.436 341.806,414.663 332.814,420.266 331.283,413.436"/>
<text text-anchor="middle" x="10.4705" y="497.833" font-family="Times New Roman,serif" font-size="14.00">5 &#160;(5) </text>
</g>
<!-- 2_7&#45;&gt;6_6 -->
<g id="edge15" class="edge"><title>2_7&#45;&gt;6_6</title>
<path fill="none" stroke="black" d="M-342.006,593.382C-194.364,560.496 180.567,466.84 335.065,424.345"/>
<polygon fill="black" stroke="black" points="334.347,420.912 344.918,421.621 336.212,427.659 334.347,420.912"/>
<text text-anchor="middle" x="-20.4703" y="505.063" font-family="Times New Roman,serif" font-size="14.00">6 &#160;(6) </text>
</g>
<!-- 2_7&#45;&gt;2_7 -->
<g id="edge13" class="edge"><title>2_7&#45;&gt;2_7</title>
<path fill="none" stroke="black" d="M-340.085,601.663C-329.542,602.102 -322.267,603.148 -322.267,604.8 -322.267,605.833 -325.109,606.628 -329.814,607.187"/>
<polygon fill="black" stroke="black" points="-329.856,610.699 -340.085,607.937 -330.366,603.718 -329.856,610.699"/>
<text text-anchor="middle" x="-305.267" y="608.5" font-family="Times New Roman,serif" font-size="14.00">2 &#160;(4) </text>
</g>
<!-- 2_7&#45;&gt;2_7 -->
<g id="edge18" class="edge"><title>2_7&#45;&gt;2_7</title>
<path fill="none" stroke="black" d="M-340.68,598.114C-312.953,597.632 -288.267,599.861 -288.267,604.8 -288.267,609.122 -307.168,611.368 -330.467,611.539"/>
<polygon fill="black" stroke="black" points="-330.699,615.038 -340.68,611.486 -330.662,608.038 -330.699,615.038"/>
<text text-anchor="middle" x="-271.267" y="608.5" font-family="Times New Roman,serif" font-size="14.00">9 &#160;(9) </text>
</g>
<!-- 2_2 -->
<g id="node4" class="node"><title>2_2</title>
<ellipse fill="green" stroke="black" cx="-403.2" cy="-403.2" rx="62.8651" ry="48.1667"/>
<text text-anchor="middle" x="-403.2" y="-422" font-family="Times New Roman,serif" font-size="14.00">2,2</text>
<text text-anchor="middle" x="-403.2" y="-407" font-family="Times New Roman,serif" font-size="14.00">ic: 10</text>
<text text-anchor="middle" x="-403.2" y="-392" font-family="Times New Roman,serif" font-size="14.00">free: 2,1;2,0</text>
<text text-anchor="middle" x="-403.2" y="-377" font-family="Times New Roman,serif" font-size="14.00">swlolw: none</text>
</g>
<!-- 2_2&#45;&gt;6_1 -->
<g id="edge20" class="edge"><title>2_2&#45;&gt;6_1</title>
<path fill="none" stroke="black" d="M-344.81,-421.651C-201.342,-461.525 168.326,-554.07 327.956,-590.225"/>
<polygon fill="black" stroke="black" points="327.637,-593.741 338.162,-592.524 329.176,-586.912 327.637,-593.741"/>
<text text-anchor="middle" x="-25.4271" y="-509.738" font-family="Times New Roman,serif" font-size="14.00">5 &#160;(5) </text>
</g>
<!-- 2_2&#45;&gt;6_1 -->
<g id="edge22" class="edge"><title>2_2&#45;&gt;6_1</title>
<path fill="none" stroke="black" d="M-342.006,-414.618C-195.444,-447.263 175.093,-539.792 331.638,-582.714"/>
<polygon fill="black" stroke="black" points="331.065,-586.187 341.636,-585.469 332.925,-579.438 331.065,-586.187"/>
<text text-anchor="middle" x="-22.1836" y="-487.466" font-family="Times New Roman,serif" font-size="14.00">6 &#160;(6) </text>
</g>
<!-- 2_2&#45;&gt;6_6 -->
<g id="edge23" class="edge"><title>2_2&#45;&gt;6_6</title>
<path fill="none" stroke="black" d="M-362.107,-366.505C-224.432,-235.587 219.466,208.206 360.088,355.376"/>
<polygon fill="black" stroke="black" points="362.976,353.333 367.342,362.987 357.909,358.163 362.976,353.333"/>
<text text-anchor="middle" x="-18.0094" y="5.6357" font-family="Times New Roman,serif" font-size="14.00">8 &#160;(8) </text>
</g>
<!-- 2_2&#45;&gt;6_6 -->
<g id="edge24" class="edge"><title>2_2&#45;&gt;6_6</title>
<path fill="none" stroke="black" d="M-367.559,-363.216C-238.215,-227.072 206.243,217.52 354.595,359.342"/>
<polygon fill="black" stroke="black" points="357.031,356.828 361.853,366.263 352.2,361.894 357.031,356.828"/>
<text text-anchor="middle" x="10.5183" y="-5.73695" font-family="Times New Roman,serif" font-size="14.00">9 &#160;(9) </text>
</g>
<!-- 2_2&#45;&gt;2_7 -->
<g id="edge19" class="edge"><title>2_2&#45;&gt;2_7</title>
<path fill="none" stroke="black" d="M-400.1,-354.922C-395.325,-187.922 -395.235,364.919 -399.83,546.47"/>
<polygon fill="black" stroke="black" points="-396.335,546.716 -400.103,556.618 -403.333,546.528 -396.335,546.716"/>
<text text-anchor="middle" x="-416.965" y="91.9744" font-family="Times New Roman,serif" font-size="14.00">4 &#160;(4) </text>
</g>
<!-- 2_2&#45;&gt;2_7 -->
<g id="edge21" class="edge"><title>2_2&#45;&gt;2_7</title>
<path fill="none" stroke="black" d="M-406.3,-354.922C-411.075,-187.922 -411.165,364.919 -406.57,546.47"/>
<polygon fill="black" stroke="black" points="-403.067,546.528 -406.297,556.618 -410.065,546.716 -403.067,546.528"/>
<text text-anchor="middle" x="-423.435" y="106.974" font-family="Times New Roman,serif" font-size="14.00">5 &#160;(5) </text>
</g>
</g>
</svg>
