<?xml version="1.0" encoding="UTF-8" standalone="no"?>
<!DOCTYPE svg PUBLIC "-//W3C//DTD SVG 1.1//EN"
 "http://www.w3.org/Graphics/SVG/1.1/DTD/svg11.dtd">
<!-- Generated by graphviz version 2.38.0 (20140413.2041)
 -->
<!-- Title: tp3.txt Pages: 1 -->
<svg width="1012pt" height="1398pt"
 viewBox="0.00 0.00 1012.40 1397.60" xmlns="http://www.w3.org/2000/svg" xmlns:xlink="http://www.w3.org/1999/xlink">
<g id="graph0" class="graph" transform="scale(1 1) rotate(0) translate(512.263 738.968)">
<title>tp3.txt</title>
<polygon fill="white" stroke="none" points="-512.263,658.632 -512.263,-738.968 500.137,-738.968 500.137,658.632 -512.263,658.632"/>
<g id="clust1" class="cluster"><title>cluster6_1</title>
<polygon fill="none" stroke="black" points="298.137,-626.968 298.137,-734.968 496.137,-734.968 496.137,-626.968 298.137,-626.968"/>
<text text-anchor="middle" x="397.137" y="-719.768" font-family="Times New Roman,serif" font-size="14.00">6,1</text>
</g>
<g id="clust2" class="cluster"><title>cluster6_6</title>
<polygon fill="none" stroke="black" points="298.137,381.032 298.137,273.032 424.137,273.032 424.137,381.032 298.137,381.032"/>
<text text-anchor="middle" x="361.137" y="288.232" font-family="Times New Roman,serif" font-size="14.00">6,6</text>
</g>
<g id="clust3" class="cluster"><title>cluster2_7</title>
<polygon fill="none" stroke="black" points="-508.263,654.632 -508.263,474.632 -310.263,474.632 -310.263,654.632 -508.263,654.632"/>
<text text-anchor="middle" x="-409.263" y="489.832" font-family="Times New Roman,serif" font-size="14.00">2,7</text>
</g>
<g id="clust4" class="cluster"><title>cluster2_2</title>
<polygon fill="none" stroke="black" points="-508.263,-497.368 -508.263,-533.368 -382.263,-533.368 -382.263,-497.368 -508.263,-497.368"/>
<text text-anchor="middle" x="-445.263" y="-518.168" font-family="Times New Roman,serif" font-size="14.00">2,2</text>
</g>
<!-- battery6_1_0 -->
<g id="node1" class="node"><title>battery6_1_0</title>
<ellipse fill="none" stroke="black" cx="325.137" cy="-716.968" rx="27" ry="18"/>
<text text-anchor="middle" x="325.137" y="-713.268" font-family="Times New Roman,serif" font-size="14.00">0,&#45;1</text>
</g>
<!-- battery6_1_3 -->
<g id="node4" class="node"><title>battery6_1_3</title>
<ellipse fill="yellow" stroke="black" cx="325.137" cy="-644.968" rx="27" ry="18"/>
<text text-anchor="middle" x="325.137" y="-641.268" font-family="Times New Roman,serif" font-size="14.00">3,0</text>
</g>
<!-- battery6_1_0&#45;&gt;battery6_1_3 -->
<g id="edge36" class="edge"><title>battery6_1_0&#45;&gt;battery6_1_3</title>
<path fill="none" stroke="orange" d="M325.137,-698.8C325.137,-691.099 325.137,-681.943 325.137,-673.385"/>
<polygon fill="orange" stroke="orange" points="328.637,-673.382 325.137,-663.382 321.637,-673.382 328.637,-673.382"/>
<text text-anchor="middle" x="321.637" y="-674.892" font-family="Times New Roman,serif" font-size="14.00">8</text>
</g>
<!-- battery6_1_1 -->
<g id="node2" class="node"><title>battery6_1_1</title>
<ellipse fill="none" stroke="black" cx="397.137" cy="-716.968" rx="27" ry="18"/>
<text text-anchor="middle" x="397.137" y="-713.268" font-family="Times New Roman,serif" font-size="14.00">1,1</text>
</g>
<!-- battery6_1_2 -->
<g id="node3" class="node"><title>battery6_1_2</title>
<ellipse fill="none" stroke="black" cx="469.137" cy="-716.968" rx="27" ry="18"/>
<text text-anchor="middle" x="469.137" y="-713.268" font-family="Times New Roman,serif" font-size="14.00">2,14</text>
</g>
<!-- battery6_1_2&#45;&gt;battery6_1_0 -->
<g id="edge8" class="edge"><title>battery6_1_2&#45;&gt;battery6_1_0</title>
<path fill="none" stroke="#000000" stroke-opacity="0.333333" d="M442.052,-716.968C419.667,-716.968 387.64,-716.968 362.764,-716.968"/>
<polygon fill="none" stroke="#000000" stroke-opacity="0.333333" points="362.59,-713.468 352.59,-716.968 362.59,-720.468 362.59,-713.468"/>
</g>
<!-- battery6_1_3&#45;&gt;battery6_1_1 -->
<g id="edge1" class="edge"><title>battery6_1_3&#45;&gt;battery6_1_1</title>
<path fill="none" stroke="#000000" stroke-opacity="0.333333" d="M340.406,-660.238C350.334,-670.165 363.452,-683.284 374.573,-694.405"/>
<polygon fill="none" stroke="#000000" stroke-opacity="0.333333" points="372.344,-697.125 381.89,-701.721 377.293,-692.175 372.344,-697.125"/>
</g>
<!-- battery6_1_4 -->
<g id="node5" class="node"><title>battery6_1_4</title>
<ellipse fill="none" stroke="black" cx="397.137" cy="-644.968" rx="27" ry="18"/>
<text text-anchor="middle" x="397.137" y="-641.268" font-family="Times New Roman,serif" font-size="14.00">4,13</text>
</g>
<!-- battery6_1_4&#45;&gt;battery6_1_0 -->
<g id="edge7" class="edge"><title>battery6_1_4&#45;&gt;battery6_1_0</title>
<path fill="none" stroke="#000000" stroke-opacity="0.333333" d="M381.867,-660.238C371.94,-670.165 358.822,-683.284 347.701,-694.405"/>
<polygon fill="none" stroke="#000000" stroke-opacity="0.333333" points="344.98,-692.175 340.384,-701.721 349.93,-697.125 344.98,-692.175"/>
</g>
<!-- battery6_1_4&#45;&gt;battery6_1_2 -->
<g id="edge6" class="edge"><title>battery6_1_4&#45;&gt;battery6_1_2</title>
<path fill="none" stroke="#000000" stroke-opacity="0.333333" d="M412.406,-660.238C422.334,-670.165 435.452,-683.284 446.573,-694.405"/>
<polygon fill="none" stroke="#000000" stroke-opacity="0.333333" points="444.344,-697.125 453.89,-701.721 449.293,-692.175 444.344,-697.125"/>
</g>
<!-- battery6_6_0 -->
<g id="node7" class="node"><title>battery6_6_0</title>
<ellipse fill="none" stroke="black" cx="325.137" cy="291.032" rx="27" ry="18"/>
<text text-anchor="middle" x="325.137" y="294.732" font-family="Times New Roman,serif" font-size="14.00">0,&#45;1</text>
</g>
<!-- battery6_1_4&#45;&gt;battery6_6_0 -->
<g id="edge5" class="edge"><title>battery6_1_4&#45;&gt;battery6_6_0</title>
<path fill="none" stroke="#000000" stroke-opacity="0.333333" d="M395.731,-626.691C386.815,-510.786 338.17,121.605 327.294,262.987"/>
<polygon fill="none" stroke="#000000" stroke-opacity="0.333333" points="330.779,263.317 326.522,273.019 323.8,262.78 330.779,263.317"/>
</g>
<!-- battery6_1_5 -->
<g id="node6" class="node"><title>battery6_1_5</title>
<ellipse fill="none" stroke="black" cx="469.137" cy="-644.968" rx="27" ry="18"/>
<text text-anchor="middle" x="469.137" y="-641.268" font-family="Times New Roman,serif" font-size="14.00">5,9</text>
</g>
<!-- battery6_1_5&#45;&gt;battery6_1_3 -->
<g id="edge4" class="edge"><title>battery6_1_5&#45;&gt;battery6_1_3</title>
<path fill="none" stroke="#000000" stroke-opacity="0.333333" d="M442.052,-644.968C419.667,-644.968 387.64,-644.968 362.764,-644.968"/>
<polygon fill="none" stroke="#000000" stroke-opacity="0.333333" points="362.59,-641.468 352.59,-644.968 362.59,-648.468 362.59,-641.468"/>
</g>
<!-- battery6_1_5&#45;&gt;battery6_6_0 -->
<g id="edge2" class="edge"><title>battery6_1_5&#45;&gt;battery6_6_0</title>
<path fill="none" stroke="#000000" stroke-opacity="0.333333" d="M466.325,-626.691C448.493,-510.786 351.203,121.605 329.451,262.987"/>
<polygon fill="none" stroke="#000000" stroke-opacity="0.333333" points="332.888,263.668 327.908,273.019 325.969,262.603 332.888,263.668"/>
</g>
<!-- battery6_6_1 -->
<g id="node8" class="node"><title>battery6_6_1</title>
<ellipse fill="none" stroke="black" cx="397.137" cy="291.032" rx="27" ry="18"/>
<text text-anchor="middle" x="397.137" y="294.732" font-family="Times New Roman,serif" font-size="14.00">1,8</text>
</g>
<!-- battery6_1_5&#45;&gt;battery6_6_1 -->
<g id="edge3" class="edge"><title>battery6_1_5&#45;&gt;battery6_6_1</title>
<path fill="none" stroke="#000000" stroke-opacity="0.333333" d="M467.731,-626.691C458.815,-510.786 410.17,121.605 399.294,262.987"/>
<polygon fill="none" stroke="#000000" stroke-opacity="0.333333" points="402.779,263.317 398.522,273.019 395.8,262.78 402.779,263.317"/>
</g>
<!-- battery6_6_4 -->
<g id="node10" class="node"><title>battery6_6_4</title>
<ellipse fill="yellow" stroke="black" cx="397.137" cy="363.032" rx="27" ry="18"/>
<text text-anchor="middle" x="397.137" y="366.732" font-family="Times New Roman,serif" font-size="14.00">4,2</text>
</g>
<!-- battery6_6_0&#45;&gt;battery6_6_4 -->
<g id="edge35" class="edge"><title>battery6_6_0&#45;&gt;battery6_6_4</title>
<path fill="none" stroke="orange" d="M345.548,303.296C356.827,312.918 370.559,326.464 381.076,338.27"/>
<polygon fill="orange" stroke="orange" points="383.93,336.222 387.774,346.095 378.613,340.774 383.93,336.222"/>
<text text-anchor="middle" x="359.812" y="316.983" font-family="Times New Roman,serif" font-size="14.00">6</text>
</g>
<!-- battery6_6_2 -->
<g id="node9" class="node"><title>battery6_6_2</title>
<ellipse fill="none" stroke="black" cx="325.137" cy="363.032" rx="27" ry="18"/>
<text text-anchor="middle" x="325.137" y="366.732" font-family="Times New Roman,serif" font-size="14.00">2,3</text>
</g>
<!-- battery6_6_2&#45;&gt;battery6_6_0 -->
<g id="edge12" class="edge"><title>battery6_6_2&#45;&gt;battery6_6_0</title>
<path fill="none" stroke="#000000" stroke-opacity="0.333333" d="M325.137,344.863C325.137,337.163 325.137,328.006 325.137,319.448"/>
<polygon fill="none" stroke="#000000" stroke-opacity="0.333333" points="321.637,319.445 325.137,309.445 328.637,319.445 321.637,319.445"/>
</g>
<!-- battery6_6_4&#45;&gt;battery6_1_0 -->
<g id="edge9" class="edge"><title>battery6_6_4&#45;&gt;battery6_1_0</title>
<path fill="none" stroke="red" d="M395.917,344.739C387.445,217.65 337.386,-533.228 327.017,-688.773"/>
<polygon fill="red" stroke="red" points="323.513,-688.716 326.34,-698.927 330.497,-689.182 323.513,-688.716"/>
<text text-anchor="middle" x="357.967" y="-175.817" font-family="Times New Roman,serif" font-size="14.00">7</text>
</g>
<!-- battery6_6_4&#45;&gt;battery6_6_0 -->
<g id="edge11" class="edge"><title>battery6_6_4&#45;&gt;battery6_6_0</title>
<path fill="none" stroke="#000000" stroke-opacity="0.333333" d="M376.725,350.767C365.446,341.145 351.715,327.599 341.197,315.794"/>
<polygon fill="none" stroke="#000000" stroke-opacity="0.333333" points="338.343,317.841 334.499,307.969 343.661,313.289 338.343,317.841"/>
</g>
<!-- battery6_6_4&#45;&gt;battery6_6_2 -->
<g id="edge10" class="edge"><title>battery6_6_4&#45;&gt;battery6_6_2</title>
<path fill="none" stroke="#000000" stroke-opacity="0.333333" d="M369.917,363.032C367.498,363.032 365.022,363.032 362.537,363.032"/>
<polygon fill="none" stroke="#000000" stroke-opacity="0.333333" points="362.395,366.531 352.395,363.032 362.395,359.531 362.395,366.531"/>
</g>
<!-- battery2_7_0 -->
<g id="node11" class="node"><title>battery2_7_0</title>
<ellipse fill="none" stroke="black" cx="-481.263" cy="492.632" rx="27" ry="18"/>
<text text-anchor="middle" x="-481.263" y="496.332" font-family="Times New Roman,serif" font-size="14.00">0,&#45;1</text>
</g>
<!-- battery2_7_6 -->
<g id="node17" class="node"><title>battery2_7_6</title>
<ellipse fill="none" stroke="black" cx="-481.263" cy="636.632" rx="27" ry="18"/>
<text text-anchor="middle" x="-481.263" y="640.332" font-family="Times New Roman,serif" font-size="14.00">6,6</text>
</g>
<!-- battery2_7_0&#45;&gt;battery2_7_6 -->
<g id="edge34" class="edge"><title>battery2_7_0&#45;&gt;battery2_7_6</title>
<path fill="none" stroke="orange" d="M-476.619,510.578C-474.136,535.046 -473.849,579.142 -475.757,608.152"/>
<polygon fill="orange" stroke="orange" points="-472.297,608.776 -476.596,618.459 -479.273,608.208 -472.297,608.776"/>
<text text-anchor="middle" x="-479.688" y="555.565" font-family="Times New Roman,serif" font-size="14.00">4</text>
</g>
<!-- battery2_7_1 -->
<g id="node12" class="node"><title>battery2_7_1</title>
<ellipse fill="none" stroke="black" cx="-409.263" cy="492.632" rx="27" ry="18"/>
<text text-anchor="middle" x="-409.263" y="496.332" font-family="Times New Roman,serif" font-size="14.00">1,12</text>
</g>
<!-- battery2_7_2 -->
<g id="node13" class="node"><title>battery2_7_2</title>
<ellipse fill="yellow" stroke="black" cx="-337.263" cy="492.632" rx="27" ry="18"/>
<text text-anchor="middle" x="-337.263" y="496.332" font-family="Times New Roman,serif" font-size="14.00">2,4</text>
</g>
<!-- battery2_7_2&#45;&gt;battery2_7_0 -->
<g id="edge13" class="edge"><title>battery2_7_2&#45;&gt;battery2_7_0</title>
<path fill="none" stroke="red" d="M-364.348,492.632C-386.733,492.632 -418.76,492.632 -443.636,492.632"/>
<polygon fill="red" stroke="red" points="-443.81,496.131 -453.81,492.632 -443.81,489.131 -443.81,496.131"/>
<text text-anchor="middle" x="-407.492" y="488.832" font-family="Times New Roman,serif" font-size="14.00">3</text>
</g>
<!-- battery2_7_3 -->
<g id="node14" class="node"><title>battery2_7_3</title>
<ellipse fill="none" stroke="black" cx="-481.263" cy="564.632" rx="27" ry="18"/>
<text text-anchor="middle" x="-481.263" y="568.332" font-family="Times New Roman,serif" font-size="14.00">3,11</text>
</g>
<!-- battery2_7_3&#45;&gt;battery2_7_1 -->
<g id="edge22" class="edge"><title>battery2_7_3&#45;&gt;battery2_7_1</title>
<path fill="none" stroke="#000000" stroke-opacity="0.333333" d="M-465.994,549.362C-456.066,539.435 -442.948,526.316 -431.827,515.195"/>
<polygon fill="none" stroke="#000000" stroke-opacity="0.333333" points="-434.056,512.475 -424.51,507.879 -429.107,517.425 -434.056,512.475"/>
</g>
<!-- battery2_7_4 -->
<g id="node15" class="node"><title>battery2_7_4</title>
<ellipse fill="none" stroke="black" cx="-409.263" cy="564.632" rx="27" ry="18"/>
<text text-anchor="middle" x="-409.263" y="568.332" font-family="Times New Roman,serif" font-size="14.00">4,7</text>
</g>
<!-- battery2_7_4&#45;&gt;battery2_7_0 -->
<g id="edge19" class="edge"><title>battery2_7_4&#45;&gt;battery2_7_0</title>
<path fill="none" stroke="#000000" stroke-opacity="0.333333" d="M-424.532,549.362C-434.46,539.435 -447.578,526.316 -458.699,515.195"/>
<polygon fill="none" stroke="#000000" stroke-opacity="0.333333" points="-461.42,517.425 -466.016,507.879 -456.47,512.475 -461.42,517.425"/>
</g>
<!-- battery2_7_4&#45;&gt;battery2_7_2 -->
<g id="edge18" class="edge"><title>battery2_7_4&#45;&gt;battery2_7_2</title>
<path fill="none" stroke="#000000" stroke-opacity="0.333333" d="M-393.994,549.362C-384.066,539.435 -370.948,526.316 -359.827,515.195"/>
<polygon fill="none" stroke="#000000" stroke-opacity="0.333333" points="-362.056,512.475 -352.51,507.879 -357.107,517.425 -362.056,512.475"/>
</g>
<!-- battery2_7_5 -->
<g id="node16" class="node"><title>battery2_7_5</title>
<ellipse fill="none" stroke="black" cx="-337.263" cy="564.632" rx="27" ry="18"/>
<text text-anchor="middle" x="-337.263" y="568.332" font-family="Times New Roman,serif" font-size="14.00">5,10</text>
</g>
<!-- battery2_7_5&#45;&gt;battery6_6_0 -->
<g id="edge20" class="edge"><title>battery2_7_5&#45;&gt;battery6_6_0</title>
<path fill="none" stroke="#000000" stroke-opacity="0.333333" d="M-314.076,555.054C-214.508,513.928 176.979,352.227 292.734,304.415"/>
<polygon fill="none" stroke="#000000" stroke-opacity="0.333333" points="291.559,301.114 302.138,300.531 294.232,307.584 291.559,301.114"/>
</g>
<!-- battery2_7_5&#45;&gt;battery2_7_3 -->
<g id="edge21" class="edge"><title>battery2_7_5&#45;&gt;battery2_7_3</title>
<path fill="none" stroke="#000000" stroke-opacity="0.333333" d="M-364.348,564.632C-386.733,564.632 -418.76,564.632 -443.636,564.632"/>
<polygon fill="none" stroke="#000000" stroke-opacity="0.333333" points="-443.81,568.131 -453.81,564.632 -443.81,561.131 -443.81,568.131"/>
</g>
<!-- battery2_7_6&#45;&gt;battery6_6_0 -->
<g id="edge14" class="edge"><title>battery2_7_6&#45;&gt;battery6_6_0</title>
<path fill="none" stroke="red" d="M-458.428,626.845C-344.779,578.138 159.695,361.935 292.831,304.877"/>
<polygon fill="red" stroke="red" points="291.546,301.62 302.117,300.897 294.304,308.054 291.546,301.62"/>
<text text-anchor="middle" x="-86.2986" y="462.061" font-family="Times New Roman,serif" font-size="14.00">5</text>
</g>
<!-- battery2_7_6&#45;&gt;battery6_6_1 -->
<g id="edge15" class="edge"><title>battery2_7_6&#45;&gt;battery6_6_1</title>
<path fill="none" stroke="#000000" stroke-opacity="0.333333" d="M-457.768,627.388C-336.139,579.534 221.81,360.013 364.057,304.046"/>
<polygon fill="none" stroke="#000000" stroke-opacity="0.333333" points="362.982,300.708 373.569,300.304 365.545,307.222 362.982,300.708"/>
</g>
<!-- battery2_7_6&#45;&gt;battery2_7_0 -->
<g id="edge17" class="edge"><title>battery2_7_6&#45;&gt;battery2_7_0</title>
<path fill="none" stroke="#000000" stroke-opacity="0.333333" d="M-485.907,618.685C-488.39,594.217 -488.678,550.121 -486.769,521.112"/>
<polygon fill="none" stroke="#000000" stroke-opacity="0.333333" points="-490.23,520.487 -485.93,510.804 -483.253,521.055 -490.23,520.487"/>
</g>
<!-- battery2_7_6&#45;&gt;battery2_7_2 -->
<g id="edge33" class="edge"><title>battery2_7_6&#45;&gt;battery2_7_2</title>
<path fill="none" stroke="orange" d="M-466.125,621.493C-440.803,596.172 -389.721,545.089 -360.042,515.411"/>
<polygon fill="orange" stroke="orange" points="-362.178,512.597 -352.632,508.001 -357.228,517.546 -362.178,512.597"/>
<text text-anchor="middle" x="-416.583" y="579.652" font-family="Times New Roman,serif" font-size="14.00">2</text>
</g>
<!-- battery2_7_6&#45;&gt;battery2_7_4 -->
<g id="edge16" class="edge"><title>battery2_7_6&#45;&gt;battery2_7_4</title>
<path fill="none" stroke="#000000" stroke-opacity="0.333333" d="M-465.994,621.362C-456.066,611.435 -442.948,598.316 -431.827,587.195"/>
<polygon fill="none" stroke="#000000" stroke-opacity="0.333333" points="-434.056,584.475 -424.51,579.879 -429.107,589.425 -434.056,584.475"/>
</g>
<!-- battery2_2_0 -->
<g id="node18" class="node"><title>battery2_2_0</title>
<ellipse fill="none" stroke="black" cx="-481.263" cy="-515.368" rx="27" ry="18"/>
<text text-anchor="middle" x="-481.263" y="-511.668" font-family="Times New Roman,serif" font-size="14.00">0,&#45;1</text>
</g>
<!-- battery2_2_10 -->
<g id="node19" class="node"><title>battery2_2_10</title>
<ellipse fill="green" stroke="black" cx="-409.263" cy="-515.368" rx="27" ry="18"/>
<text text-anchor="middle" x="-409.263" y="-511.668" font-family="Times New Roman,serif" font-size="14.00">10,5</text>
</g>
<!-- battery2_2_0&#45;&gt;battery2_2_10 -->
<g id="edge32" class="edge"><title>battery2_2_0&#45;&gt;battery2_2_10</title>
<path fill="none" stroke="orange" d="M-454.043,-515.368C-451.624,-515.368 -449.148,-515.368 -446.664,-515.368"/>
<polygon fill="orange" stroke="orange" points="-446.522,-518.869 -436.522,-515.368 -446.522,-511.869 -446.522,-518.869"/>
<text text-anchor="middle" x="-446.853" y="-504.168" font-family="Times New Roman,serif" font-size="14.00">0</text>
</g>
<!-- battery2_2_10&#45;&gt;battery6_1_0 -->
<g id="edge29" class="edge"><title>battery2_2_10&#45;&gt;battery6_1_0</title>
<path fill="none" stroke="#000000" stroke-opacity="0.333333" d="M-383.983,-522.308C-274.078,-552.478 162.387,-672.292 289.952,-707.31"/>
<polygon fill="none" stroke="#000000" stroke-opacity="0.333333" points="289.394,-710.786 299.963,-710.058 291.247,-704.036 289.394,-710.786"/>
</g>
<!-- battery2_2_10&#45;&gt;battery6_1_4 -->
<g id="edge26" class="edge"><title>battery2_2_10&#45;&gt;battery6_1_4</title>
<path fill="none" stroke="#000000" stroke-opacity="0.333333" d="M-382.891,-519.607C-263.977,-538.718 222.514,-616.904 360.497,-639.08"/>
<polygon fill="none" stroke="#000000" stroke-opacity="0.333333" points="360.13,-642.566 370.559,-640.697 361.241,-635.654 360.13,-642.566"/>
</g>
<!-- battery2_2_10&#45;&gt;battery6_1_5 -->
<g id="edge24" class="edge"><title>battery2_2_10&#45;&gt;battery6_1_5</title>
<path fill="none" stroke="#000000" stroke-opacity="0.333333" d="M-382.495,-519.318C-255.566,-538.045 285.595,-617.888 432.316,-639.536"/>
<polygon fill="none" stroke="#000000" stroke-opacity="0.333333" points="432.174,-643.053 442.577,-641.05 433.195,-636.128 432.174,-643.053"/>
</g>
<!-- battery2_2_10&#45;&gt;battery6_6_0 -->
<g id="edge28" class="edge"><title>battery2_2_10&#45;&gt;battery6_6_0</title>
<path fill="none" stroke="#000000" stroke-opacity="0.333333" d="M-395.248,-499.98C-304.915,-400.79 194.926,148.055 304.079,267.91"/>
<polygon fill="none" stroke="#000000" stroke-opacity="0.333333" points="306.829,265.731 310.975,275.481 301.654,270.444 306.829,265.731"/>
</g>
<!-- battery2_2_10&#45;&gt;battery6_6_1 -->
<g id="edge31" class="edge"><title>battery2_2_10&#45;&gt;battery6_6_1</title>
<path fill="none" stroke="#000000" stroke-opacity="0.333333" d="M-394.228,-500.333C-295.807,-401.913 256.154,150.049 374.709,268.603"/>
<polygon fill="none" stroke="#000000" stroke-opacity="0.333333" points="377.285,266.23 381.882,275.776 372.336,271.18 377.285,266.23"/>
</g>
<!-- battery2_2_10&#45;&gt;battery6_6_2 -->
<g id="edge27" class="edge"><title>battery2_2_10&#45;&gt;battery6_6_2</title>
<path fill="none" stroke="#000000" stroke-opacity="0.333333" d="M-395.889,-499.372C-306.957,-393.003 198.644,211.737 305.36,339.376"/>
<polygon fill="none" stroke="#000000" stroke-opacity="0.333333" points="308.074,337.167 311.803,347.084 302.704,341.657 308.074,337.167"/>
</g>
<!-- battery2_2_10&#45;&gt;battery2_7_0 -->
<g id="edge30" class="edge"><title>battery2_2_10&#45;&gt;battery2_7_0</title>
<path fill="none" stroke="#000000" stroke-opacity="0.333333" d="M-410.574,-497.012C-419.267,-375.314 -468.565,314.864 -479.229,464.156"/>
<polygon fill="none" stroke="#000000" stroke-opacity="0.333333" points="-475.752,464.605 -479.956,474.331 -482.734,464.107 -475.752,464.605"/>
</g>
<!-- battery2_2_10&#45;&gt;battery2_7_5 -->
<g id="edge25" class="edge"><title>battery2_2_10&#45;&gt;battery2_7_5</title>
<path fill="none" stroke="#000000" stroke-opacity="0.333333" d="M-408.044,-497.076C-399.571,-369.986 -349.513,380.891 -339.143,536.436"/>
<polygon fill="none" stroke="#000000" stroke-opacity="0.333333" points="-335.639,536.379 -338.466,546.59 -342.623,536.845 -335.639,536.379"/>
</g>
<!-- battery2_2_10&#45;&gt;battery2_7_6 -->
<g id="edge23" class="edge"><title>battery2_2_10&#45;&gt;battery2_7_6</title>
<path fill="none" stroke="red" d="M-410.394,-497.273C-418.631,-365.479 -469.363,446.233 -479.501,608.44"/>
<polygon fill="red" stroke="red" points="-476.018,608.814 -480.135,618.576 -483.004,608.377 -476.018,608.814"/>
<text text-anchor="middle" x="-448.448" y="51.7834" font-family="Times New Roman,serif" font-size="14.00">1</text>
</g>
</g>
</svg>
