<?xml version="1.0" encoding="utf-8" ?>
<svg xmlns="http://www.w3.org/2000/svg" xmlns:ev="http://www.w3.org/2001/xml-events" xmlns:xlink="http://www.w3.org/1999/xlink" baseProfile="full" height="503.0" version="1.1" width="503.0">
  <defs/>
  <g transform="translate(1.5,1.5)">
    <g>
      <rect fill="none" height="500" stroke="#aaaaaa" stroke-width="3.0" width="500" x="0" y="0"/>
      <line stroke="#aaaaaa" stroke-width="3.0" x1="100" x2="100" y1="0" y2="500"/>
      <line stroke="#aaaaaa" stroke-width="3.0" x1="200" x2="200" y1="0" y2="500"/>
      <line stroke="#aaaaaa" stroke-width="3.0" x1="300" x2="300" y1="0" y2="500"/>
      <line stroke="#aaaaaa" stroke-width="3.0" x1="400" x2="400" y1="0" y2="500"/>
      <line stroke="#aaaaaa" stroke-width="3.0" x1="0" x2="500" y1="100" y2="100"/>
      <line stroke="#aaaaaa" stroke-width="3.0" x1="0" x2="500" y1="200" y2="200"/>
      <line stroke="#aaaaaa" stroke-width="3.0" x1="0" x2="500" y1="300" y2="300"/>
      <line stroke="#aaaaaa" stroke-width="3.0" x1="0" x2="500" y1="400" y2="400"/>
    </g>
    <circle cx="150.0" cy="450.0" fill="green" r="44.0"/>
    <text alignment-baseline="central" font-size="40" text-anchor="middle" x="150.0" y="450.0">6</text>
    <text alignment-baseline="central" fill="#777777" font-size="20" text-anchor="middle" x="130.0" y="416.6666666666667">1,4</text>
    <text alignment-baseline="central" font-size="40" text-anchor="middle" x="150.0" y="50.0">1</text>
    <text alignment-baseline="central" fill="#777777" font-size="20" text-anchor="middle" x="130.0" y="16.666666666666664">1,0</text>
    <text alignment-baseline="central" font-size="40" text-anchor="middle" x="50.0" y="150.0">0</text>
    <text alignment-baseline="central" fill="#777777" font-size="20" text-anchor="middle" x="30.0" y="116.66666666666666">0,1</text>
    <text alignment-baseline="central" font-size="40" text-anchor="middle" x="150.0" y="150.0">2</text>
    <text alignment-baseline="central" fill="#777777" font-size="20" text-anchor="middle" x="130.0" y="116.66666666666666">1,1</text>
    <text alignment-baseline="central" font-size="40" text-anchor="middle" x="250.0" y="150.0">0</text>
    <text alignment-baseline="central" fill="#777777" font-size="20" text-anchor="middle" x="230.0" y="116.66666666666666">2,1</text>
    <polyline fill="none" points="153.61103100464106,445.48703970197283 133.91234814969735,355.6159524024846 136.6123221570687,253.3055059740783 146.0651663626217,328.0563181355753 134.97826019602084,251.84438420437243 143.703421007014,152.46375059090963 149.95920190621663,56.20873200792248 142.2229480705078,146.6037297448185 157.42408738795137,58.989074843681635 269.4012665291956,44.02349484010654" stroke="orange" stroke-width="3"/>
  </g>
</svg>
