<?xml version="1.0" encoding="utf-8" ?>
<svg xmlns="http://www.w3.org/2000/svg" xmlns:ev="http://www.w3.org/2001/xml-events" xmlns:xlink="http://www.w3.org/1999/xlink" baseProfile="full" height="10003.0" version="1.1" width="10003.0">
  <defs/>
  <g transform="translate(1.5,1.5)">
    <g>
      <rect fill="none" height="10000" stroke="#aaaaaa" stroke-width="3.0" width="10000" x="0" y="0"/>
      <line stroke="#aaaaaa" stroke-width="3.0" x1="100" x2="100" y1="0" y2="10000"/>
      <line stroke="#aaaaaa" stroke-width="3.0" x1="200" x2="200" y1="0" y2="10000"/>
      <line stroke="#aaaaaa" stroke-width="3.0" x1="300" x2="300" y1="0" y2="10000"/>
      <line stroke="#aaaaaa" stroke-width="3.0" x1="400" x2="400" y1="0" y2="10000"/>
      <line stroke="#aaaaaa" stroke-width="3.0" x1="500" x2="500" y1="0" y2="10000"/>
      <line stroke="#aaaaaa" stroke-width="3.0" x1="600" x2="600" y1="0" y2="10000"/>
      <line stroke="#aaaaaa" stroke-width="3.0" x1="700" x2="700" y1="0" y2="10000"/>
      <line stroke="#aaaaaa" stroke-width="3.0" x1="800" x2="800" y1="0" y2="10000"/>
      <line stroke="#aaaaaa" stroke-width="3.0" x1="900" x2="900" y1="0" y2="10000"/>
      <line stroke="#aaaaaa" stroke-width="3.0" x1="1000" x2="1000" y1="0" y2="10000"/>
      <line stroke="#aaaaaa" stroke-width="3.0" x1="1100" x2="1100" y1="0" y2="10000"/>
      <line stroke="#aaaaaa" stroke-width="3.0" x1="1200" x2="1200" y1="0" y2="10000"/>
      <line stroke="#aaaaaa" stroke-width="3.0" x1="1300" x2="1300" y1="0" y2="10000"/>
      <line stroke="#aaaaaa" stroke-width="3.0" x1="1400" x2="1400" y1="0" y2="10000"/>
      <line stroke="#aaaaaa" stroke-width="3.0" x1="1500" x2="1500" y1="0" y2="10000"/>
      <line stroke="#aaaaaa" stroke-width="3.0" x1="1600" x2="1600" y1="0" y2="10000"/>
      <line stroke="#aaaaaa" stroke-width="3.0" x1="1700" x2="1700" y1="0" y2="10000"/>
      <line stroke="#aaaaaa" stroke-width="3.0" x1="1800" x2="1800" y1="0" y2="10000"/>
      <line stroke="#aaaaaa" stroke-width="3.0" x1="1900" x2="1900" y1="0" y2="10000"/>
      <line stroke="#aaaaaa" stroke-width="3.0" x1="2000" x2="2000" y1="0" y2="10000"/>
      <line stroke="#aaaaaa" stroke-width="3.0" x1="2100" x2="2100" y1="0" y2="10000"/>
      <line stroke="#aaaaaa" stroke-width="3.0" x1="2200" x2="2200" y1="0" y2="10000"/>
      <line stroke="#aaaaaa" stroke-width="3.0" x1="2300" x2="2300" y1="0" y2="10000"/>
      <line stroke="#aaaaaa" stroke-width="3.0" x1="2400" x2="2400" y1="0" y2="10000"/>
      <line stroke="#aaaaaa" stroke-width="3.0" x1="2500" x2="2500" y1="0" y2="10000"/>
      <line stroke="#aaaaaa" stroke-width="3.0" x1="2600" x2="2600" y1="0" y2="10000"/>
      <line stroke="#aaaaaa" stroke-width="3.0" x1="2700" x2="2700" y1="0" y2="10000"/>
      <line stroke="#aaaaaa" stroke-width="3.0" x1="2800" x2="2800" y1="0" y2="10000"/>
      <line stroke="#aaaaaa" stroke-width="3.0" x1="2900" x2="2900" y1="0" y2="10000"/>
      <line stroke="#aaaaaa" stroke-width="3.0" x1="3000" x2="3000" y1="0" y2="10000"/>
      <line stroke="#aaaaaa" stroke-width="3.0" x1="3100" x2="3100" y1="0" y2="10000"/>
      <line stroke="#aaaaaa" stroke-width="3.0" x1="3200" x2="3200" y1="0" y2="10000"/>
      <line stroke="#aaaaaa" stroke-width="3.0" x1="3300" x2="3300" y1="0" y2="10000"/>
      <line stroke="#aaaaaa" stroke-width="3.0" x1="3400" x2="3400" y1="0" y2="10000"/>
      <line stroke="#aaaaaa" stroke-width="3.0" x1="3500" x2="3500" y1="0" y2="10000"/>
      <line stroke="#aaaaaa" stroke-width="3.0" x1="3600" x2="3600" y1="0" y2="10000"/>
      <line stroke="#aaaaaa" stroke-width="3.0" x1="3700" x2="3700" y1="0" y2="10000"/>
      <line stroke="#aaaaaa" stroke-width="3.0" x1="3800" x2="3800" y1="0" y2="10000"/>
      <line stroke="#aaaaaa" stroke-width="3.0" x1="3900" x2="3900" y1="0" y2="10000"/>
      <line stroke="#aaaaaa" stroke-width="3.0" x1="4000" x2="4000" y1="0" y2="10000"/>
      <line stroke="#aaaaaa" stroke-width="3.0" x1="4100" x2="4100" y1="0" y2="10000"/>
      <line stroke="#aaaaaa" stroke-width="3.0" x1="4200" x2="4200" y1="0" y2="10000"/>
      <line stroke="#aaaaaa" stroke-width="3.0" x1="4300" x2="4300" y1="0" y2="10000"/>
      <line stroke="#aaaaaa" stroke-width="3.0" x1="4400" x2="4400" y1="0" y2="10000"/>
      <line stroke="#aaaaaa" stroke-width="3.0" x1="4500" x2="4500" y1="0" y2="10000"/>
      <line stroke="#aaaaaa" stroke-width="3.0" x1="4600" x2="4600" y1="0" y2="10000"/>
      <line stroke="#aaaaaa" stroke-width="3.0" x1="4700" x2="4700" y1="0" y2="10000"/>
      <line stroke="#aaaaaa" stroke-width="3.0" x1="4800" x2="4800" y1="0" y2="10000"/>
      <line stroke="#aaaaaa" stroke-width="3.0" x1="4900" x2="4900" y1="0" y2="10000"/>
      <line stroke="#aaaaaa" stroke-width="3.0" x1="5000" x2="5000" y1="0" y2="10000"/>
      <line stroke="#aaaaaa" stroke-width="3.0" x1="5100" x2="5100" y1="0" y2="10000"/>
      <line stroke="#aaaaaa" stroke-width="3.0" x1="5200" x2="5200" y1="0" y2="10000"/>
      <line stroke="#aaaaaa" stroke-width="3.0" x1="5300" x2="5300" y1="0" y2="10000"/>
      <line stroke="#aaaaaa" stroke-width="3.0" x1="5400" x2="5400" y1="0" y2="10000"/>
      <line stroke="#aaaaaa" stroke-width="3.0" x1="5500" x2="5500" y1="0" y2="10000"/>
      <line stroke="#aaaaaa" stroke-width="3.0" x1="5600" x2="5600" y1="0" y2="10000"/>
      <line stroke="#aaaaaa" stroke-width="3.0" x1="5700" x2="5700" y1="0" y2="10000"/>
      <line stroke="#aaaaaa" stroke-width="3.0" x1="5800" x2="5800" y1="0" y2="10000"/>
      <line stroke="#aaaaaa" stroke-width="3.0" x1="5900" x2="5900" y1="0" y2="10000"/>
      <line stroke="#aaaaaa" stroke-width="3.0" x1="6000" x2="6000" y1="0" y2="10000"/>
      <line stroke="#aaaaaa" stroke-width="3.0" x1="6100" x2="6100" y1="0" y2="10000"/>
      <line stroke="#aaaaaa" stroke-width="3.0" x1="6200" x2="6200" y1="0" y2="10000"/>
      <line stroke="#aaaaaa" stroke-width="3.0" x1="6300" x2="6300" y1="0" y2="10000"/>
      <line stroke="#aaaaaa" stroke-width="3.0" x1="6400" x2="6400" y1="0" y2="10000"/>
      <line stroke="#aaaaaa" stroke-width="3.0" x1="6500" x2="6500" y1="0" y2="10000"/>
      <line stroke="#aaaaaa" stroke-width="3.0" x1="6600" x2="6600" y1="0" y2="10000"/>
      <line stroke="#aaaaaa" stroke-width="3.0" x1="6700" x2="6700" y1="0" y2="10000"/>
      <line stroke="#aaaaaa" stroke-width="3.0" x1="6800" x2="6800" y1="0" y2="10000"/>
      <line stroke="#aaaaaa" stroke-width="3.0" x1="6900" x2="6900" y1="0" y2="10000"/>
      <line stroke="#aaaaaa" stroke-width="3.0" x1="7000" x2="7000" y1="0" y2="10000"/>
      <line stroke="#aaaaaa" stroke-width="3.0" x1="7100" x2="7100" y1="0" y2="10000"/>
      <line stroke="#aaaaaa" stroke-width="3.0" x1="7200" x2="7200" y1="0" y2="10000"/>
      <line stroke="#aaaaaa" stroke-width="3.0" x1="7300" x2="7300" y1="0" y2="10000"/>
      <line stroke="#aaaaaa" stroke-width="3.0" x1="7400" x2="7400" y1="0" y2="10000"/>
      <line stroke="#aaaaaa" stroke-width="3.0" x1="7500" x2="7500" y1="0" y2="10000"/>
      <line stroke="#aaaaaa" stroke-width="3.0" x1="7600" x2="7600" y1="0" y2="10000"/>
      <line stroke="#aaaaaa" stroke-width="3.0" x1="7700" x2="7700" y1="0" y2="10000"/>
      <line stroke="#aaaaaa" stroke-width="3.0" x1="7800" x2="7800" y1="0" y2="10000"/>
      <line stroke="#aaaaaa" stroke-width="3.0" x1="7900" x2="7900" y1="0" y2="10000"/>
      <line stroke="#aaaaaa" stroke-width="3.0" x1="8000" x2="8000" y1="0" y2="10000"/>
      <line stroke="#aaaaaa" stroke-width="3.0" x1="8100" x2="8100" y1="0" y2="10000"/>
      <line stroke="#aaaaaa" stroke-width="3.0" x1="8200" x2="8200" y1="0" y2="10000"/>
      <line stroke="#aaaaaa" stroke-width="3.0" x1="8300" x2="8300" y1="0" y2="10000"/>
      <line stroke="#aaaaaa" stroke-width="3.0" x1="8400" x2="8400" y1="0" y2="10000"/>
      <line stroke="#aaaaaa" stroke-width="3.0" x1="8500" x2="8500" y1="0" y2="10000"/>
      <line stroke="#aaaaaa" stroke-width="3.0" x1="8600" x2="8600" y1="0" y2="10000"/>
      <line stroke="#aaaaaa" stroke-width="3.0" x1="8700" x2="8700" y1="0" y2="10000"/>
      <line stroke="#aaaaaa" stroke-width="3.0" x1="8800" x2="8800" y1="0" y2="10000"/>
      <line stroke="#aaaaaa" stroke-width="3.0" x1="8900" x2="8900" y1="0" y2="10000"/>
      <line stroke="#aaaaaa" stroke-width="3.0" x1="9000" x2="9000" y1="0" y2="10000"/>
      <line stroke="#aaaaaa" stroke-width="3.0" x1="9100" x2="9100" y1="0" y2="10000"/>
      <line stroke="#aaaaaa" stroke-width="3.0" x1="9200" x2="9200" y1="0" y2="10000"/>
      <line stroke="#aaaaaa" stroke-width="3.0" x1="9300" x2="9300" y1="0" y2="10000"/>
      <line stroke="#aaaaaa" stroke-width="3.0" x1="9400" x2="9400" y1="0" y2="10000"/>
      <line stroke="#aaaaaa" stroke-width="3.0" x1="9500" x2="9500" y1="0" y2="10000"/>
      <line stroke="#aaaaaa" stroke-width="3.0" x1="9600" x2="9600" y1="0" y2="10000"/>
      <line stroke="#aaaaaa" stroke-width="3.0" x1="9700" x2="9700" y1="0" y2="10000"/>
      <line stroke="#aaaaaa" stroke-width="3.0" x1="9800" x2="9800" y1="0" y2="10000"/>
      <line stroke="#aaaaaa" stroke-width="3.0" x1="9900" x2="9900" y1="0" y2="10000"/>
      <line stroke="#aaaaaa" stroke-width="3.0" x1="0" x2="10000" y1="100" y2="100"/>
      <line stroke="#aaaaaa" stroke-width="3.0" x1="0" x2="10000" y1="200" y2="200"/>
      <line stroke="#aaaaaa" stroke-width="3.0" x1="0" x2="10000" y1="300" y2="300"/>
      <line stroke="#aaaaaa" stroke-width="3.0" x1="0" x2="10000" y1="400" y2="400"/>
      <line stroke="#aaaaaa" stroke-width="3.0" x1="0" x2="10000" y1="500" y2="500"/>
      <line stroke="#aaaaaa" stroke-width="3.0" x1="0" x2="10000" y1="600" y2="600"/>
      <line stroke="#aaaaaa" stroke-width="3.0" x1="0" x2="10000" y1="700" y2="700"/>
      <line stroke="#aaaaaa" stroke-width="3.0" x1="0" x2="10000" y1="800" y2="800"/>
      <line stroke="#aaaaaa" stroke-width="3.0" x1="0" x2="10000" y1="900" y2="900"/>
      <line stroke="#aaaaaa" stroke-width="3.0" x1="0" x2="10000" y1="1000" y2="1000"/>
      <line stroke="#aaaaaa" stroke-width="3.0" x1="0" x2="10000" y1="1100" y2="1100"/>
      <line stroke="#aaaaaa" stroke-width="3.0" x1="0" x2="10000" y1="1200" y2="1200"/>
      <line stroke="#aaaaaa" stroke-width="3.0" x1="0" x2="10000" y1="1300" y2="1300"/>
      <line stroke="#aaaaaa" stroke-width="3.0" x1="0" x2="10000" y1="1400" y2="1400"/>
      <line stroke="#aaaaaa" stroke-width="3.0" x1="0" x2="10000" y1="1500" y2="1500"/>
      <line stroke="#aaaaaa" stroke-width="3.0" x1="0" x2="10000" y1="1600" y2="1600"/>
      <line stroke="#aaaaaa" stroke-width="3.0" x1="0" x2="10000" y1="1700" y2="1700"/>
      <line stroke="#aaaaaa" stroke-width="3.0" x1="0" x2="10000" y1="1800" y2="1800"/>
      <line stroke="#aaaaaa" stroke-width="3.0" x1="0" x2="10000" y1="1900" y2="1900"/>
      <line stroke="#aaaaaa" stroke-width="3.0" x1="0" x2="10000" y1="2000" y2="2000"/>
      <line stroke="#aaaaaa" stroke-width="3.0" x1="0" x2="10000" y1="2100" y2="2100"/>
      <line stroke="#aaaaaa" stroke-width="3.0" x1="0" x2="10000" y1="2200" y2="2200"/>
      <line stroke="#aaaaaa" stroke-width="3.0" x1="0" x2="10000" y1="2300" y2="2300"/>
      <line stroke="#aaaaaa" stroke-width="3.0" x1="0" x2="10000" y1="2400" y2="2400"/>
      <line stroke="#aaaaaa" stroke-width="3.0" x1="0" x2="10000" y1="2500" y2="2500"/>
      <line stroke="#aaaaaa" stroke-width="3.0" x1="0" x2="10000" y1="2600" y2="2600"/>
      <line stroke="#aaaaaa" stroke-width="3.0" x1="0" x2="10000" y1="2700" y2="2700"/>
      <line stroke="#aaaaaa" stroke-width="3.0" x1="0" x2="10000" y1="2800" y2="2800"/>
      <line stroke="#aaaaaa" stroke-width="3.0" x1="0" x2="10000" y1="2900" y2="2900"/>
      <line stroke="#aaaaaa" stroke-width="3.0" x1="0" x2="10000" y1="3000" y2="3000"/>
      <line stroke="#aaaaaa" stroke-width="3.0" x1="0" x2="10000" y1="3100" y2="3100"/>
      <line stroke="#aaaaaa" stroke-width="3.0" x1="0" x2="10000" y1="3200" y2="3200"/>
      <line stroke="#aaaaaa" stroke-width="3.0" x1="0" x2="10000" y1="3300" y2="3300"/>
      <line stroke="#aaaaaa" stroke-width="3.0" x1="0" x2="10000" y1="3400" y2="3400"/>
      <line stroke="#aaaaaa" stroke-width="3.0" x1="0" x2="10000" y1="3500" y2="3500"/>
      <line stroke="#aaaaaa" stroke-width="3.0" x1="0" x2="10000" y1="3600" y2="3600"/>
      <line stroke="#aaaaaa" stroke-width="3.0" x1="0" x2="10000" y1="3700" y2="3700"/>
      <line stroke="#aaaaaa" stroke-width="3.0" x1="0" x2="10000" y1="3800" y2="3800"/>
      <line stroke="#aaaaaa" stroke-width="3.0" x1="0" x2="10000" y1="3900" y2="3900"/>
      <line stroke="#aaaaaa" stroke-width="3.0" x1="0" x2="10000" y1="4000" y2="4000"/>
      <line stroke="#aaaaaa" stroke-width="3.0" x1="0" x2="10000" y1="4100" y2="4100"/>
      <line stroke="#aaaaaa" stroke-width="3.0" x1="0" x2="10000" y1="4200" y2="4200"/>
      <line stroke="#aaaaaa" stroke-width="3.0" x1="0" x2="10000" y1="4300" y2="4300"/>
      <line stroke="#aaaaaa" stroke-width="3.0" x1="0" x2="10000" y1="4400" y2="4400"/>
      <line stroke="#aaaaaa" stroke-width="3.0" x1="0" x2="10000" y1="4500" y2="4500"/>
      <line stroke="#aaaaaa" stroke-width="3.0" x1="0" x2="10000" y1="4600" y2="4600"/>
      <line stroke="#aaaaaa" stroke-width="3.0" x1="0" x2="10000" y1="4700" y2="4700"/>
      <line stroke="#aaaaaa" stroke-width="3.0" x1="0" x2="10000" y1="4800" y2="4800"/>
      <line stroke="#aaaaaa" stroke-width="3.0" x1="0" x2="10000" y1="4900" y2="4900"/>
      <line stroke="#aaaaaa" stroke-width="3.0" x1="0" x2="10000" y1="5000" y2="5000"/>
      <line stroke="#aaaaaa" stroke-width="3.0" x1="0" x2="10000" y1="5100" y2="5100"/>
      <line stroke="#aaaaaa" stroke-width="3.0" x1="0" x2="10000" y1="5200" y2="5200"/>
      <line stroke="#aaaaaa" stroke-width="3.0" x1="0" x2="10000" y1="5300" y2="5300"/>
      <line stroke="#aaaaaa" stroke-width="3.0" x1="0" x2="10000" y1="5400" y2="5400"/>
      <line stroke="#aaaaaa" stroke-width="3.0" x1="0" x2="10000" y1="5500" y2="5500"/>
      <line stroke="#aaaaaa" stroke-width="3.0" x1="0" x2="10000" y1="5600" y2="5600"/>
      <line stroke="#aaaaaa" stroke-width="3.0" x1="0" x2="10000" y1="5700" y2="5700"/>
      <line stroke="#aaaaaa" stroke-width="3.0" x1="0" x2="10000" y1="5800" y2="5800"/>
      <line stroke="#aaaaaa" stroke-width="3.0" x1="0" x2="10000" y1="5900" y2="5900"/>
      <line stroke="#aaaaaa" stroke-width="3.0" x1="0" x2="10000" y1="6000" y2="6000"/>
      <line stroke="#aaaaaa" stroke-width="3.0" x1="0" x2="10000" y1="6100" y2="6100"/>
      <line stroke="#aaaaaa" stroke-width="3.0" x1="0" x2="10000" y1="6200" y2="6200"/>
      <line stroke="#aaaaaa" stroke-width="3.0" x1="0" x2="10000" y1="6300" y2="6300"/>
      <line stroke="#aaaaaa" stroke-width="3.0" x1="0" x2="10000" y1="6400" y2="6400"/>
      <line stroke="#aaaaaa" stroke-width="3.0" x1="0" x2="10000" y1="6500" y2="6500"/>
      <line stroke="#aaaaaa" stroke-width="3.0" x1="0" x2="10000" y1="6600" y2="6600"/>
      <line stroke="#aaaaaa" stroke-width="3.0" x1="0" x2="10000" y1="6700" y2="6700"/>
      <line stroke="#aaaaaa" stroke-width="3.0" x1="0" x2="10000" y1="6800" y2="6800"/>
      <line stroke="#aaaaaa" stroke-width="3.0" x1="0" x2="10000" y1="6900" y2="6900"/>
      <line stroke="#aaaaaa" stroke-width="3.0" x1="0" x2="10000" y1="7000" y2="7000"/>
      <line stroke="#aaaaaa" stroke-width="3.0" x1="0" x2="10000" y1="7100" y2="7100"/>
      <line stroke="#aaaaaa" stroke-width="3.0" x1="0" x2="10000" y1="7200" y2="7200"/>
      <line stroke="#aaaaaa" stroke-width="3.0" x1="0" x2="10000" y1="7300" y2="7300"/>
      <line stroke="#aaaaaa" stroke-width="3.0" x1="0" x2="10000" y1="7400" y2="7400"/>
      <line stroke="#aaaaaa" stroke-width="3.0" x1="0" x2="10000" y1="7500" y2="7500"/>
      <line stroke="#aaaaaa" stroke-width="3.0" x1="0" x2="10000" y1="7600" y2="7600"/>
      <line stroke="#aaaaaa" stroke-width="3.0" x1="0" x2="10000" y1="7700" y2="7700"/>
      <line stroke="#aaaaaa" stroke-width="3.0" x1="0" x2="10000" y1="7800" y2="7800"/>
      <line stroke="#aaaaaa" stroke-width="3.0" x1="0" x2="10000" y1="7900" y2="7900"/>
      <line stroke="#aaaaaa" stroke-width="3.0" x1="0" x2="10000" y1="8000" y2="8000"/>
      <line stroke="#aaaaaa" stroke-width="3.0" x1="0" x2="10000" y1="8100" y2="8100"/>
      <line stroke="#aaaaaa" stroke-width="3.0" x1="0" x2="10000" y1="8200" y2="8200"/>
      <line stroke="#aaaaaa" stroke-width="3.0" x1="0" x2="10000" y1="8300" y2="8300"/>
      <line stroke="#aaaaaa" stroke-width="3.0" x1="0" x2="10000" y1="8400" y2="8400"/>
      <line stroke="#aaaaaa" stroke-width="3.0" x1="0" x2="10000" y1="8500" y2="8500"/>
      <line stroke="#aaaaaa" stroke-width="3.0" x1="0" x2="10000" y1="8600" y2="8600"/>
      <line stroke="#aaaaaa" stroke-width="3.0" x1="0" x2="10000" y1="8700" y2="8700"/>
      <line stroke="#aaaaaa" stroke-width="3.0" x1="0" x2="10000" y1="8800" y2="8800"/>
      <line stroke="#aaaaaa" stroke-width="3.0" x1="0" x2="10000" y1="8900" y2="8900"/>
      <line stroke="#aaaaaa" stroke-width="3.0" x1="0" x2="10000" y1="9000" y2="9000"/>
      <line stroke="#aaaaaa" stroke-width="3.0" x1="0" x2="10000" y1="9100" y2="9100"/>
      <line stroke="#aaaaaa" stroke-width="3.0" x1="0" x2="10000" y1="9200" y2="9200"/>
      <line stroke="#aaaaaa" stroke-width="3.0" x1="0" x2="10000" y1="9300" y2="9300"/>
      <line stroke="#aaaaaa" stroke-width="3.0" x1="0" x2="10000" y1="9400" y2="9400"/>
      <line stroke="#aaaaaa" stroke-width="3.0" x1="0" x2="10000" y1="9500" y2="9500"/>
      <line stroke="#aaaaaa" stroke-width="3.0" x1="0" x2="10000" y1="9600" y2="9600"/>
      <line stroke="#aaaaaa" stroke-width="3.0" x1="0" x2="10000" y1="9700" y2="9700"/>
      <line stroke="#aaaaaa" stroke-width="3.0" x1="0" x2="10000" y1="9800" y2="9800"/>
      <line stroke="#aaaaaa" stroke-width="3.0" x1="0" x2="10000" y1="9900" y2="9900"/>
    </g>
    <circle cx="3950.0" cy="2450.0" fill="green" r="44.0"/>
    <text alignment-baseline="central" font-size="40" text-anchor="middle" x="3950.0" y="2450.0">20</text>
    <text alignment-baseline="central" fill="#777777" font-size="20" text-anchor="middle" x="3930.0" y="2416.6666666666665">39,24</text>
    <polyline fill="none" points="3930.6030151194695,2471.6246619648036 3945.019734429661,2348.127267170028 3957.162300798016,2273.859044127106 3949.331618543031,2358.1262588400955 3962.1676561236404,2251.984346812992 3939.389541159288,2360.260182040993 3927.4747180992044,2274.4567012455086 3938.655758355515,2352.446585133984 3941.476577776711,2272.1687238392196 3957.216197318571,2349.355750740909 3955.7836069326527,2266.3743336595408 3964.8261969270557,2330.142076564202 3940.933632719312,2252.248582626515 3953.671604995214,2347.261135641395 3958.907031176126,2269.707526094939 3951.836906017856,2344.747747958265 3928.853094305619,2240.6681572877574 3972.07831238789,2356.772847804863 3952.6088291630413,2262.147926060595 3925.9855421284556,2330.8220110531697 3936.7740541843505,2233.7494832091957" stroke="orange" stroke-width="3"/>
  </g>
</svg>
