<?xml version="1.0" encoding="utf-8" ?>
<svg xmlns="http://www.w3.org/2000/svg" xmlns:ev="http://www.w3.org/2001/xml-events" xmlns:xlink="http://www.w3.org/1999/xlink" baseProfile="full" height="2003.0" version="1.1" width="2003.0">
  <defs/>
  <g transform="translate(1.5,1.5)">
    <g>
      <rect fill="none" height="2000" stroke="#aaaaaa" stroke-width="3.0" width="2000" x="0" y="0"/>
      <line stroke="#aaaaaa" stroke-width="3.0" x1="100" x2="100" y1="0" y2="2000"/>
      <line stroke="#aaaaaa" stroke-width="3.0" x1="200" x2="200" y1="0" y2="2000"/>
      <line stroke="#aaaaaa" stroke-width="3.0" x1="300" x2="300" y1="0" y2="2000"/>
      <line stroke="#aaaaaa" stroke-width="3.0" x1="400" x2="400" y1="0" y2="2000"/>
      <line stroke="#aaaaaa" stroke-width="3.0" x1="500" x2="500" y1="0" y2="2000"/>
      <line stroke="#aaaaaa" stroke-width="3.0" x1="600" x2="600" y1="0" y2="2000"/>
      <line stroke="#aaaaaa" stroke-width="3.0" x1="700" x2="700" y1="0" y2="2000"/>
      <line stroke="#aaaaaa" stroke-width="3.0" x1="800" x2="800" y1="0" y2="2000"/>
      <line stroke="#aaaaaa" stroke-width="3.0" x1="900" x2="900" y1="0" y2="2000"/>
      <line stroke="#aaaaaa" stroke-width="3.0" x1="1000" x2="1000" y1="0" y2="2000"/>
      <line stroke="#aaaaaa" stroke-width="3.0" x1="1100" x2="1100" y1="0" y2="2000"/>
      <line stroke="#aaaaaa" stroke-width="3.0" x1="1200" x2="1200" y1="0" y2="2000"/>
      <line stroke="#aaaaaa" stroke-width="3.0" x1="1300" x2="1300" y1="0" y2="2000"/>
      <line stroke="#aaaaaa" stroke-width="3.0" x1="1400" x2="1400" y1="0" y2="2000"/>
      <line stroke="#aaaaaa" stroke-width="3.0" x1="1500" x2="1500" y1="0" y2="2000"/>
      <line stroke="#aaaaaa" stroke-width="3.0" x1="1600" x2="1600" y1="0" y2="2000"/>
      <line stroke="#aaaaaa" stroke-width="3.0" x1="1700" x2="1700" y1="0" y2="2000"/>
      <line stroke="#aaaaaa" stroke-width="3.0" x1="1800" x2="1800" y1="0" y2="2000"/>
      <line stroke="#aaaaaa" stroke-width="3.0" x1="1900" x2="1900" y1="0" y2="2000"/>
      <line stroke="#aaaaaa" stroke-width="3.0" x1="0" x2="2000" y1="100" y2="100"/>
      <line stroke="#aaaaaa" stroke-width="3.0" x1="0" x2="2000" y1="200" y2="200"/>
      <line stroke="#aaaaaa" stroke-width="3.0" x1="0" x2="2000" y1="300" y2="300"/>
      <line stroke="#aaaaaa" stroke-width="3.0" x1="0" x2="2000" y1="400" y2="400"/>
      <line stroke="#aaaaaa" stroke-width="3.0" x1="0" x2="2000" y1="500" y2="500"/>
      <line stroke="#aaaaaa" stroke-width="3.0" x1="0" x2="2000" y1="600" y2="600"/>
      <line stroke="#aaaaaa" stroke-width="3.0" x1="0" x2="2000" y1="700" y2="700"/>
      <line stroke="#aaaaaa" stroke-width="3.0" x1="0" x2="2000" y1="800" y2="800"/>
      <line stroke="#aaaaaa" stroke-width="3.0" x1="0" x2="2000" y1="900" y2="900"/>
      <line stroke="#aaaaaa" stroke-width="3.0" x1="0" x2="2000" y1="1000" y2="1000"/>
      <line stroke="#aaaaaa" stroke-width="3.0" x1="0" x2="2000" y1="1100" y2="1100"/>
      <line stroke="#aaaaaa" stroke-width="3.0" x1="0" x2="2000" y1="1200" y2="1200"/>
      <line stroke="#aaaaaa" stroke-width="3.0" x1="0" x2="2000" y1="1300" y2="1300"/>
      <line stroke="#aaaaaa" stroke-width="3.0" x1="0" x2="2000" y1="1400" y2="1400"/>
      <line stroke="#aaaaaa" stroke-width="3.0" x1="0" x2="2000" y1="1500" y2="1500"/>
      <line stroke="#aaaaaa" stroke-width="3.0" x1="0" x2="2000" y1="1600" y2="1600"/>
      <line stroke="#aaaaaa" stroke-width="3.0" x1="0" x2="2000" y1="1700" y2="1700"/>
      <line stroke="#aaaaaa" stroke-width="3.0" x1="0" x2="2000" y1="1800" y2="1800"/>
      <line stroke="#aaaaaa" stroke-width="3.0" x1="0" x2="2000" y1="1900" y2="1900"/>
    </g>
    <circle cx="950.0" cy="1450.0" fill="green" r="44.0"/>
    <text alignment-baseline="central" font-size="40" text-anchor="middle" x="950.0" y="1450.0">20</text>
    <text alignment-baseline="central" fill="#777777" font-size="20" text-anchor="middle" x="930.0" y="1416.6666666666667">9,14</text>
    <text alignment-baseline="central" font-size="40" text-anchor="middle" x="1350.0" y="1450.0">10</text>
    <text alignment-baseline="central" fill="#777777" font-size="20" text-anchor="middle" x="1330.0" y="1416.6666666666667">13,14</text>
    <text alignment-baseline="central" font-size="40" text-anchor="middle" x="1750.0" y="1450.0">4</text>
    <text alignment-baseline="central" fill="#777777" font-size="20" text-anchor="middle" x="1730.0" y="1416.6666666666667">17,14</text>
    <text alignment-baseline="central" font-size="40" text-anchor="middle" x="1750.0" y="1750.0">2</text>
    <text alignment-baseline="central" fill="#777777" font-size="20" text-anchor="middle" x="1730.0" y="1716.6666666666667">17,17</text>
    <text alignment-baseline="central" font-size="40" text-anchor="middle" x="1750.0" y="1950.0">10</text>
    <text alignment-baseline="central" fill="#777777" font-size="20" text-anchor="middle" x="1730.0" y="1916.6666666666667">17,19</text>
    <text alignment-baseline="central" font-size="40" text-anchor="middle" x="1350.0" y="850.0">2</text>
    <text alignment-baseline="central" fill="#777777" font-size="20" text-anchor="middle" x="1330.0" y="816.6666666666666">13,8</text>
    <text alignment-baseline="central" font-size="40" text-anchor="middle" x="450.0" y="650.0">2</text>
    <text alignment-baseline="central" fill="#777777" font-size="20" text-anchor="middle" x="430.0" y="616.6666666666666">4,6</text>
    <text alignment-baseline="central" font-size="40" text-anchor="middle" x="450.0" y="450.0">2</text>
    <text alignment-baseline="central" fill="#777777" font-size="20" text-anchor="middle" x="430.0" y="416.6666666666667">4,4</text>
    <text alignment-baseline="central" font-size="40" text-anchor="middle" x="450.0" y="250.0">2</text>
    <text alignment-baseline="central" fill="#777777" font-size="20" text-anchor="middle" x="430.0" y="216.66666666666666">4,2</text>
    <text alignment-baseline="central" font-size="40" text-anchor="middle" x="350.0" y="350.0">2</text>
    <text alignment-baseline="central" fill="#777777" font-size="20" text-anchor="middle" x="330.0" y="316.6666666666667">3,3</text>
    <text alignment-baseline="central" font-size="40" text-anchor="middle" x="350.0" y="550.0">2</text>
    <text alignment-baseline="central" fill="#777777" font-size="20" text-anchor="middle" x="330.0" y="516.6666666666666">3,5</text>
    <text alignment-baseline="central" font-size="40" text-anchor="middle" x="350.0" y="750.0">1</text>
    <text alignment-baseline="central" fill="#777777" font-size="20" text-anchor="middle" x="330.0" y="716.6666666666666">3,7</text>
    <text alignment-baseline="central" font-size="40" text-anchor="middle" x="350.0" y="850.0">5</text>
    <text alignment-baseline="central" fill="#777777" font-size="20" text-anchor="middle" x="330.0" y="816.6666666666666">3,8</text>
    <text alignment-baseline="central" font-size="40" text-anchor="middle" x="250.0" y="750.0">1</text>
    <text alignment-baseline="central" fill="#777777" font-size="20" text-anchor="middle" x="230.0" y="716.6666666666666">2,7</text>
    <text alignment-baseline="central" font-size="40" text-anchor="middle" x="150.0" y="750.0">1</text>
    <text alignment-baseline="central" fill="#777777" font-size="20" text-anchor="middle" x="130.0" y="716.6666666666666">1,7</text>
    <text alignment-baseline="central" font-size="40" text-anchor="middle" x="50.0" y="750.0">1</text>
    <text alignment-baseline="central" fill="#777777" font-size="20" text-anchor="middle" x="30.0" y="716.6666666666666">0,7</text>
    <text alignment-baseline="central" font-size="40" text-anchor="middle" x="50.0" y="850.0">1</text>
    <text alignment-baseline="central" fill="#777777" font-size="20" text-anchor="middle" x="30.0" y="816.6666666666666">0,8</text>
    <text alignment-baseline="central" font-size="40" text-anchor="middle" x="50.0" y="950.0">1</text>
    <text alignment-baseline="central" fill="#777777" font-size="20" text-anchor="middle" x="30.0" y="916.6666666666666">0,9</text>
    <text alignment-baseline="central" font-size="40" text-anchor="middle" x="50.0" y="1050.0">1</text>
    <text alignment-baseline="central" fill="#777777" font-size="20" text-anchor="middle" x="30.0" y="1016.6666666666666">0,10</text>
    <text alignment-baseline="central" font-size="40" text-anchor="middle" x="50.0" y="1150.0">3</text>
    <text alignment-baseline="central" fill="#777777" font-size="20" text-anchor="middle" x="30.0" y="1116.6666666666667">0,11</text>
    <text alignment-baseline="central" font-size="40" text-anchor="middle" x="50.0" y="1250.0">1</text>
    <text alignment-baseline="central" fill="#777777" font-size="20" text-anchor="middle" x="30.0" y="1216.6666666666667">0,12</text>
    <text alignment-baseline="central" font-size="40" text-anchor="middle" x="50.0" y="1350.0">1</text>
    <text alignment-baseline="central" fill="#777777" font-size="20" text-anchor="middle" x="30.0" y="1316.6666666666667">0,13</text>
    <text alignment-baseline="central" font-size="40" text-anchor="middle" x="50.0" y="1450.0">1</text>
    <text alignment-baseline="central" fill="#777777" font-size="20" text-anchor="middle" x="30.0" y="1416.6666666666667">0,14</text>
    <text alignment-baseline="central" font-size="40" text-anchor="middle" x="50.0" y="1550.0">1</text>
    <text alignment-baseline="central" fill="#777777" font-size="20" text-anchor="middle" x="30.0" y="1516.6666666666667">0,15</text>
    <text alignment-baseline="central" font-size="40" text-anchor="middle" x="50.0" y="1650.0">1</text>
    <text alignment-baseline="central" fill="#777777" font-size="20" text-anchor="middle" x="30.0" y="1616.6666666666667">0,16</text>
    <text alignment-baseline="central" font-size="40" text-anchor="middle" x="50.0" y="1750.0">1</text>
    <text alignment-baseline="central" fill="#777777" font-size="20" text-anchor="middle" x="30.0" y="1716.6666666666667">0,17</text>
    <text alignment-baseline="central" font-size="40" text-anchor="middle" x="150.0" y="1650.0">1</text>
    <text alignment-baseline="central" fill="#777777" font-size="20" text-anchor="middle" x="130.0" y="1616.6666666666667">1,16</text>
    <text alignment-baseline="central" font-size="40" text-anchor="middle" x="150.0" y="1750.0">3</text>
    <text alignment-baseline="central" fill="#777777" font-size="20" text-anchor="middle" x="130.0" y="1716.6666666666667">1,17</text>
    <text alignment-baseline="central" font-size="40" text-anchor="middle" x="150.0" y="1850.0">1</text>
    <text alignment-baseline="central" fill="#777777" font-size="20" text-anchor="middle" x="130.0" y="1816.6666666666667">1,18</text>
    <text alignment-baseline="central" font-size="40" text-anchor="middle" x="250.0" y="1650.0">1</text>
    <text alignment-baseline="central" fill="#777777" font-size="20" text-anchor="middle" x="230.0" y="1616.6666666666667">2,16</text>
    <text alignment-baseline="central" font-size="40" text-anchor="middle" x="250.0" y="1750.0">1</text>
    <text alignment-baseline="central" fill="#777777" font-size="20" text-anchor="middle" x="230.0" y="1716.6666666666667">2,17</text>
    <text alignment-baseline="central" font-size="40" text-anchor="middle" x="250.0" y="1850.0">1</text>
    <text alignment-baseline="central" fill="#777777" font-size="20" text-anchor="middle" x="230.0" y="1816.6666666666667">2,18</text>
    <text alignment-baseline="central" font-size="40" text-anchor="middle" x="350.0" y="1650.0">1</text>
    <text alignment-baseline="central" fill="#777777" font-size="20" text-anchor="middle" x="330.0" y="1616.6666666666667">3,16</text>
    <text alignment-baseline="central" font-size="40" text-anchor="middle" x="350.0" y="1750.0">1</text>
    <text alignment-baseline="central" fill="#777777" font-size="20" text-anchor="middle" x="330.0" y="1716.6666666666667">3,17</text>
    <text alignment-baseline="central" font-size="40" text-anchor="middle" x="350.0" y="1850.0">1</text>
    <text alignment-baseline="central" fill="#777777" font-size="20" text-anchor="middle" x="330.0" y="1816.6666666666667">3,18</text>
  </g>
</svg>
