<?xml version="1.0" encoding="utf-8" ?>
<svg xmlns="http://www.w3.org/2000/svg" xmlns:ev="http://www.w3.org/2001/xml-events" xmlns:xlink="http://www.w3.org/1999/xlink" baseProfile="full" height="2003.0" version="1.1" width="2003.0">
  <defs/>
  <g transform="translate(1.5,1.5)">
    <g>
      <rect fill="none" height="2000" stroke="#aaaaaa" stroke-width="3.0" width="2000" x="0" y="0"/>
      <line stroke="#aaaaaa" stroke-width="3.0" x1="100" x2="100" y1="0" y2="2000"/>
      <line stroke="#aaaaaa" stroke-width="3.0" x1="200" x2="200" y1="0" y2="2000"/>
      <line stroke="#aaaaaa" stroke-width="3.0" x1="300" x2="300" y1="0" y2="2000"/>
      <line stroke="#aaaaaa" stroke-width="3.0" x1="400" x2="400" y1="0" y2="2000"/>
      <line stroke="#aaaaaa" stroke-width="3.0" x1="500" x2="500" y1="0" y2="2000"/>
      <line stroke="#aaaaaa" stroke-width="3.0" x1="600" x2="600" y1="0" y2="2000"/>
      <line stroke="#aaaaaa" stroke-width="3.0" x1="700" x2="700" y1="0" y2="2000"/>
      <line stroke="#aaaaaa" stroke-width="3.0" x1="800" x2="800" y1="0" y2="2000"/>
      <line stroke="#aaaaaa" stroke-width="3.0" x1="900" x2="900" y1="0" y2="2000"/>
      <line stroke="#aaaaaa" stroke-width="3.0" x1="1000" x2="1000" y1="0" y2="2000"/>
      <line stroke="#aaaaaa" stroke-width="3.0" x1="1100" x2="1100" y1="0" y2="2000"/>
      <line stroke="#aaaaaa" stroke-width="3.0" x1="1200" x2="1200" y1="0" y2="2000"/>
      <line stroke="#aaaaaa" stroke-width="3.0" x1="1300" x2="1300" y1="0" y2="2000"/>
      <line stroke="#aaaaaa" stroke-width="3.0" x1="1400" x2="1400" y1="0" y2="2000"/>
      <line stroke="#aaaaaa" stroke-width="3.0" x1="1500" x2="1500" y1="0" y2="2000"/>
      <line stroke="#aaaaaa" stroke-width="3.0" x1="1600" x2="1600" y1="0" y2="2000"/>
      <line stroke="#aaaaaa" stroke-width="3.0" x1="1700" x2="1700" y1="0" y2="2000"/>
      <line stroke="#aaaaaa" stroke-width="3.0" x1="1800" x2="1800" y1="0" y2="2000"/>
      <line stroke="#aaaaaa" stroke-width="3.0" x1="1900" x2="1900" y1="0" y2="2000"/>
      <line stroke="#aaaaaa" stroke-width="3.0" x1="0" x2="2000" y1="100" y2="100"/>
      <line stroke="#aaaaaa" stroke-width="3.0" x1="0" x2="2000" y1="200" y2="200"/>
      <line stroke="#aaaaaa" stroke-width="3.0" x1="0" x2="2000" y1="300" y2="300"/>
      <line stroke="#aaaaaa" stroke-width="3.0" x1="0" x2="2000" y1="400" y2="400"/>
      <line stroke="#aaaaaa" stroke-width="3.0" x1="0" x2="2000" y1="500" y2="500"/>
      <line stroke="#aaaaaa" stroke-width="3.0" x1="0" x2="2000" y1="600" y2="600"/>
      <line stroke="#aaaaaa" stroke-width="3.0" x1="0" x2="2000" y1="700" y2="700"/>
      <line stroke="#aaaaaa" stroke-width="3.0" x1="0" x2="2000" y1="800" y2="800"/>
      <line stroke="#aaaaaa" stroke-width="3.0" x1="0" x2="2000" y1="900" y2="900"/>
      <line stroke="#aaaaaa" stroke-width="3.0" x1="0" x2="2000" y1="1000" y2="1000"/>
      <line stroke="#aaaaaa" stroke-width="3.0" x1="0" x2="2000" y1="1100" y2="1100"/>
      <line stroke="#aaaaaa" stroke-width="3.0" x1="0" x2="2000" y1="1200" y2="1200"/>
      <line stroke="#aaaaaa" stroke-width="3.0" x1="0" x2="2000" y1="1300" y2="1300"/>
      <line stroke="#aaaaaa" stroke-width="3.0" x1="0" x2="2000" y1="1400" y2="1400"/>
      <line stroke="#aaaaaa" stroke-width="3.0" x1="0" x2="2000" y1="1500" y2="1500"/>
      <line stroke="#aaaaaa" stroke-width="3.0" x1="0" x2="2000" y1="1600" y2="1600"/>
      <line stroke="#aaaaaa" stroke-width="3.0" x1="0" x2="2000" y1="1700" y2="1700"/>
      <line stroke="#aaaaaa" stroke-width="3.0" x1="0" x2="2000" y1="1800" y2="1800"/>
      <line stroke="#aaaaaa" stroke-width="3.0" x1="0" x2="2000" y1="1900" y2="1900"/>
    </g>
    <circle cx="950.0" cy="1450.0" fill="green" r="44.0"/>
    <text alignment-baseline="central" font-size="40" text-anchor="middle" x="950.0" y="1450.0">20</text>
    <text alignment-baseline="central" fill="#777777" font-size="20" text-anchor="middle" x="930.0" y="1416.6666666666667">9,14</text>
    <text alignment-baseline="central" font-size="40" text-anchor="middle" x="1350.0" y="1450.0">10</text>
    <text alignment-baseline="central" fill="#777777" font-size="20" text-anchor="middle" x="1330.0" y="1416.6666666666667">13,14</text>
    <text alignment-baseline="central" font-size="40" text-anchor="middle" x="1750.0" y="1450.0">4</text>
    <text alignment-baseline="central" fill="#777777" font-size="20" text-anchor="middle" x="1730.0" y="1416.6666666666667">17,14</text>
    <text alignment-baseline="central" font-size="40" text-anchor="middle" x="1750.0" y="1750.0">2</text>
    <text alignment-baseline="central" fill="#777777" font-size="20" text-anchor="middle" x="1730.0" y="1716.6666666666667">17,17</text>
    <text alignment-baseline="central" font-size="40" text-anchor="middle" x="1750.0" y="1950.0">10</text>
    <text alignment-baseline="central" fill="#777777" font-size="20" text-anchor="middle" x="1730.0" y="1916.6666666666667">17,19</text>
    <text alignment-baseline="central" font-size="40" text-anchor="middle" x="1350.0" y="850.0">2</text>
    <text alignment-baseline="central" fill="#777777" font-size="20" text-anchor="middle" x="1330.0" y="816.6666666666666">13,8</text>
    <text alignment-baseline="central" font-size="40" text-anchor="middle" x="450.0" y="650.0">2</text>
    <text alignment-baseline="central" fill="#777777" font-size="20" text-anchor="middle" x="430.0" y="616.6666666666666">4,6</text>
    <text alignment-baseline="central" font-size="40" text-anchor="middle" x="450.0" y="450.0">2</text>
    <text alignment-baseline="central" fill="#777777" font-size="20" text-anchor="middle" x="430.0" y="416.6666666666667">4,4</text>
    <text alignment-baseline="central" font-size="40" text-anchor="middle" x="450.0" y="250.0">2</text>
    <text alignment-baseline="central" fill="#777777" font-size="20" text-anchor="middle" x="430.0" y="216.66666666666666">4,2</text>
    <text alignment-baseline="central" font-size="40" text-anchor="middle" x="350.0" y="350.0">2</text>
    <text alignment-baseline="central" fill="#777777" font-size="20" text-anchor="middle" x="330.0" y="316.6666666666667">3,3</text>
    <text alignment-baseline="central" font-size="40" text-anchor="middle" x="350.0" y="550.0">2</text>
    <text alignment-baseline="central" fill="#777777" font-size="20" text-anchor="middle" x="330.0" y="516.6666666666666">3,5</text>
    <text alignment-baseline="central" font-size="40" text-anchor="middle" x="350.0" y="750.0">1</text>
    <text alignment-baseline="central" fill="#777777" font-size="20" text-anchor="middle" x="330.0" y="716.6666666666666">3,7</text>
    <text alignment-baseline="central" font-size="40" text-anchor="middle" x="350.0" y="850.0">5</text>
    <text alignment-baseline="central" fill="#777777" font-size="20" text-anchor="middle" x="330.0" y="816.6666666666666">3,8</text>
    <text alignment-baseline="central" font-size="40" text-anchor="middle" x="250.0" y="750.0">1</text>
    <text alignment-baseline="central" fill="#777777" font-size="20" text-anchor="middle" x="230.0" y="716.6666666666666">2,7</text>
    <text alignment-baseline="central" font-size="40" text-anchor="middle" x="150.0" y="750.0">1</text>
    <text alignment-baseline="central" fill="#777777" font-size="20" text-anchor="middle" x="130.0" y="716.6666666666666">1,7</text>
    <text alignment-baseline="central" font-size="40" text-anchor="middle" x="50.0" y="750.0">1</text>
    <text alignment-baseline="central" fill="#777777" font-size="20" text-anchor="middle" x="30.0" y="716.6666666666666">0,7</text>
    <text alignment-baseline="central" font-size="40" text-anchor="middle" x="50.0" y="850.0">1</text>
    <text alignment-baseline="central" fill="#777777" font-size="20" text-anchor="middle" x="30.0" y="816.6666666666666">0,8</text>
    <text alignment-baseline="central" font-size="40" text-anchor="middle" x="50.0" y="950.0">1</text>
    <text alignment-baseline="central" fill="#777777" font-size="20" text-anchor="middle" x="30.0" y="916.6666666666666">0,9</text>
    <text alignment-baseline="central" font-size="40" text-anchor="middle" x="50.0" y="1050.0">1</text>
    <text alignment-baseline="central" fill="#777777" font-size="20" text-anchor="middle" x="30.0" y="1016.6666666666666">0,10</text>
    <text alignment-baseline="central" font-size="40" text-anchor="middle" x="50.0" y="1150.0">3</text>
    <text alignment-baseline="central" fill="#777777" font-size="20" text-anchor="middle" x="30.0" y="1116.6666666666667">0,11</text>
    <text alignment-baseline="central" font-size="40" text-anchor="middle" x="50.0" y="1250.0">1</text>
    <text alignment-baseline="central" fill="#777777" font-size="20" text-anchor="middle" x="30.0" y="1216.6666666666667">0,12</text>
    <text alignment-baseline="central" font-size="40" text-anchor="middle" x="50.0" y="1350.0">1</text>
    <text alignment-baseline="central" fill="#777777" font-size="20" text-anchor="middle" x="30.0" y="1316.6666666666667">0,13</text>
    <text alignment-baseline="central" font-size="40" text-anchor="middle" x="50.0" y="1450.0">1</text>
    <text alignment-baseline="central" fill="#777777" font-size="20" text-anchor="middle" x="30.0" y="1416.6666666666667">0,14</text>
    <text alignment-baseline="central" font-size="40" text-anchor="middle" x="50.0" y="1550.0">1</text>
    <text alignment-baseline="central" fill="#777777" font-size="20" text-anchor="middle" x="30.0" y="1516.6666666666667">0,15</text>
    <text alignment-baseline="central" font-size="40" text-anchor="middle" x="50.0" y="1650.0">1</text>
    <text alignment-baseline="central" fill="#777777" font-size="20" text-anchor="middle" x="30.0" y="1616.6666666666667">0,16</text>
    <text alignment-baseline="central" font-size="40" text-anchor="middle" x="50.0" y="1750.0">1</text>
    <text alignment-baseline="central" fill="#777777" font-size="20" text-anchor="middle" x="30.0" y="1716.6666666666667">0,17</text>
    <text alignment-baseline="central" font-size="40" text-anchor="middle" x="150.0" y="1650.0">1</text>
    <text alignment-baseline="central" fill="#777777" font-size="20" text-anchor="middle" x="130.0" y="1616.6666666666667">1,16</text>
    <text alignment-baseline="central" font-size="40" text-anchor="middle" x="150.0" y="1750.0">3</text>
    <text alignment-baseline="central" fill="#777777" font-size="20" text-anchor="middle" x="130.0" y="1716.6666666666667">1,17</text>
    <text alignment-baseline="central" font-size="40" text-anchor="middle" x="150.0" y="1850.0">1</text>
    <text alignment-baseline="central" fill="#777777" font-size="20" text-anchor="middle" x="130.0" y="1816.6666666666667">1,18</text>
    <text alignment-baseline="central" font-size="40" text-anchor="middle" x="250.0" y="1650.0">1</text>
    <text alignment-baseline="central" fill="#777777" font-size="20" text-anchor="middle" x="230.0" y="1616.6666666666667">2,16</text>
    <text alignment-baseline="central" font-size="40" text-anchor="middle" x="250.0" y="1750.0">1</text>
    <text alignment-baseline="central" fill="#777777" font-size="20" text-anchor="middle" x="230.0" y="1716.6666666666667">2,17</text>
    <text alignment-baseline="central" font-size="40" text-anchor="middle" x="250.0" y="1850.0">1</text>
    <text alignment-baseline="central" fill="#777777" font-size="20" text-anchor="middle" x="230.0" y="1816.6666666666667">2,18</text>
    <text alignment-baseline="central" font-size="40" text-anchor="middle" x="350.0" y="1650.0">1</text>
    <text alignment-baseline="central" fill="#777777" font-size="20" text-anchor="middle" x="330.0" y="1616.6666666666667">3,16</text>
    <text alignment-baseline="central" font-size="40" text-anchor="middle" x="350.0" y="1750.0">1</text>
    <text alignment-baseline="central" fill="#777777" font-size="20" text-anchor="middle" x="330.0" y="1716.6666666666667">3,17</text>
    <polyline fill="none" points="942.6877143019972,1430.827798061506 1062.6623231282856,1432.7794568942586 1169.3607083971506,1455.8661973541018 1236.8852736213546,1449.3966296476465 1329.603031713724,1452.7968875084368 1341.9100365127786,1562.6866465903777 1342.88183553865,1660.3802398973974 1450.010648263441,1642.3720573613691 1544.1555417488362,1649.446827815707 1628.9593961321996,1634.322651639515 1765.666389440948,1666.9413614003267 1740.197998185514,1742.128776226249 1732.7473860451908,1836.4124011748142 1772.8448084148974,1969.4848479940945 1873.2225411771783,1930.175617940803 1835.4047238895264,1870.272642986234 1733.0044781416668,1849.7017516497706 1846.416693097095,1856.1713204867283 1741.5953296485984,1851.7330156170588 1835.8003061804134,1850.7163348372005 1746.067647192945,1829.6218136724815 1828.225309506283,1837.4358941226574 1756.8580923188229,1832.2498111675684 1743.1429626070938,1737.1720522626636 1770.5830818362956,1627.21467686307 1773.2838045290398,1555.0681398908805 1747.995465226443,1449.839988105601 1661.839143576826,1465.088396802129 1526.1555059788898,1455.9056864987324 1468.8615225591864,1434.8617731041404 1360.593453972054,1458.7791807128715 1351.7040943625811,1371.2453201861592 1367.6485445954186,1228.127998710777 1348.96059636326,1173.8053824127599 1348.0641403683173,1060.011638184099 1350.2105292448146,928.1543992743657 1341.7387495048147,831.0569460734503 1358.4917211382585,759.1419810311343 1363.819738381945,850.5812607774631 1237.4302078581939,828.6863971201552 1174.3725682841489,861.5593054799745 1061.503856149508,867.24932259886 964.6239950113445,827.2573280686269 874.7292170261874,844.6615722041237 738.6998003708862,858.7120295484046 625.712606758284,859.4747457682332 542.1259475209571,835.0481737358153 441.36744845617636,829.678034764532 354.69122206411515,833.6642333200247 444.40769211606835,830.6697252166052 456.46472403309883,730.2277679303228 427.4117722664192,650.0767641504747 428.9208841669699,573.9455398937646 446.08816462614516,439.20243259685253 430.81995947954283,357.0883328702091 433.01234467935717,247.59081169708617 349.20656286153144,243.04899433760693 355.7871836271812,340.478030447296 351.64477861684634,425.93053545849745 340.42202665846696,529.2171508382704 458.757662727459,533.9682928819257 472.20781338452224,632.2145848709889 345.88973542928466,671.1173800572689 345.9914284921493,741.1360116018177 230.13663059340996,748.818642248426 126.16781038041523,749.3021730261764 69.51045208723393,756.7585205399208 64.53734178434495,841.0800238410532 46.80677216914779,925.8637652193676 33.98121465090727,1037.5556348009616 27.051939983142987,1164.0565423612916 133.8356930666673,1131.8959997823908 157.8357010398056,1263.6269488692851 73.77947285984021,1234.6399427746235 63.962001605745115,1368.8280414652213 39.937272370009026,1428.8161582908763 62.44487911257063,1573.2123177921092 66.77937681016763,1654.7275246747936 154.73243670015066,1669.7813793633197 265.106827222432,1668.5480929150037 332.86713237767447,1639.9486582236427 328.76280289568894,1747.1563183585301 263.23826661388904,1729.385931345363 150.08713773658755,1734.8380859042118 174.2353092545471,1836.7977364992105 261.99802261168276,1827.520333018126 152.306756006136,1836.670494947771 35.09777130043998,1862.1242234029557 26.36783709611791,1769.9628664184543 47.52283150318982,1860.60947185525" stroke="orange" stroke-width="3"/>
  </g>
</svg>
