<?xml version="1.0" encoding="utf-8" ?>
<svg xmlns="http://www.w3.org/2000/svg" xmlns:ev="http://www.w3.org/2001/xml-events" xmlns:xlink="http://www.w3.org/1999/xlink" baseProfile="full" height="203.0" version="1.1" width="103.0">
  <defs/>
  <g transform="translate(1.5,1.5)">
    <g>
      <rect fill="none" height="200" stroke="#aaaaaa" stroke-width="3.0" width="100" x="0" y="0"/>
      <line stroke="#aaaaaa" stroke-width="3.0" x1="0" x2="100" y1="100" y2="100"/>
    </g>
    <circle cx="50.0" cy="150.0" fill="green" r="44.0"/>
    <text alignment-baseline="central" font-size="40" text-anchor="middle" x="50.0" y="150.0">20</text>
    <text alignment-baseline="central" fill="#777777" font-size="20" text-anchor="middle" x="30.0" y="116.66666666666666">0,1</text>
    <polyline fill="none" points="34.07424115975628,171.86749884480372 31.570742798051718,25.302470796401224 50.36686774976171,144.88117240956143 73.1713366783382,26.027294179740473 57.88816584135489,164.95375816888097 38.43632011279173,49.00660199667543 72.77126002789808,148.19152517448447 36.896769545203455,37.389165719174045 49.296433677894456,169.944522422982 30.890464459974176,37.87505295670109 65.44052704098712,127.25402346110701 39.331662160883596,70.9364957575626 38.501521742274484,141.32914619563547 51.0052338963867,70.98892332566479 43.26264178254152,151.95833695826644 39.967147800359896,26.48731423274711 65.66418258175406,128.6638171408734 47.202350284574166,42.439035942246946 35.3060208359903,133.85303456539532 64.85514814821644,41.19602273530455 72.08823087586029,150.35013500658798" stroke="orange" stroke-width="3"/>
  </g>
</svg>
