<?xml version="1.0" encoding="utf-8" ?>
<svg xmlns="http://www.w3.org/2000/svg" xmlns:ev="http://www.w3.org/2001/xml-events" xmlns:xlink="http://www.w3.org/1999/xlink" baseProfile="full" height="903.0" version="1.1" width="903.0">
  <defs/>
  <g transform="translate(1.5,1.5)">
    <g>
      <rect fill="none" height="900" stroke="#aaaaaa" stroke-width="3.0" width="900" x="0" y="0"/>
      <line stroke="#aaaaaa" stroke-width="3.0" x1="100" x2="100" y1="0" y2="900"/>
      <line stroke="#aaaaaa" stroke-width="3.0" x1="200" x2="200" y1="0" y2="900"/>
      <line stroke="#aaaaaa" stroke-width="3.0" x1="300" x2="300" y1="0" y2="900"/>
      <line stroke="#aaaaaa" stroke-width="3.0" x1="400" x2="400" y1="0" y2="900"/>
      <line stroke="#aaaaaa" stroke-width="3.0" x1="500" x2="500" y1="0" y2="900"/>
      <line stroke="#aaaaaa" stroke-width="3.0" x1="600" x2="600" y1="0" y2="900"/>
      <line stroke="#aaaaaa" stroke-width="3.0" x1="700" x2="700" y1="0" y2="900"/>
      <line stroke="#aaaaaa" stroke-width="3.0" x1="800" x2="800" y1="0" y2="900"/>
      <line stroke="#aaaaaa" stroke-width="3.0" x1="0" x2="900" y1="100" y2="100"/>
      <line stroke="#aaaaaa" stroke-width="3.0" x1="0" x2="900" y1="200" y2="200"/>
      <line stroke="#aaaaaa" stroke-width="3.0" x1="0" x2="900" y1="300" y2="300"/>
      <line stroke="#aaaaaa" stroke-width="3.0" x1="0" x2="900" y1="400" y2="400"/>
      <line stroke="#aaaaaa" stroke-width="3.0" x1="0" x2="900" y1="500" y2="500"/>
      <line stroke="#aaaaaa" stroke-width="3.0" x1="0" x2="900" y1="600" y2="600"/>
      <line stroke="#aaaaaa" stroke-width="3.0" x1="0" x2="900" y1="700" y2="700"/>
      <line stroke="#aaaaaa" stroke-width="3.0" x1="0" x2="900" y1="800" y2="800"/>
    </g>
    <circle cx="250.0" cy="250.0" fill="green" r="44.0"/>
    <text alignment-baseline="central" font-size="40" text-anchor="middle" x="250.0" y="250.0">10</text>
    <text alignment-baseline="central" fill="#777777" font-size="20" text-anchor="middle" x="230.0" y="216.66666666666666">2,2</text>
    <text alignment-baseline="central" font-size="40" text-anchor="middle" x="650.0" y="150.0">3</text>
    <text alignment-baseline="central" fill="#777777" font-size="20" text-anchor="middle" x="630.0" y="116.66666666666666">6,1</text>
    <text alignment-baseline="central" font-size="40" text-anchor="middle" x="650.0" y="650.0">4</text>
    <text alignment-baseline="central" fill="#777777" font-size="20" text-anchor="middle" x="630.0" y="616.6666666666666">6,6</text>
    <text alignment-baseline="central" font-size="40" text-anchor="middle" x="250.0" y="750.0">2</text>
    <text alignment-baseline="central" fill="#777777" font-size="20" text-anchor="middle" x="230.0" y="716.6666666666666">2,7</text>
    <circle cx="150.0" cy="50.0" fill="none" r="38.0" stroke="black" stroke-width="2.0"/>
    <circle cx="150.0" cy="50.0" fill="none" r="32.34008792431037" stroke="black" stroke-width="2.0"/>
    <circle cx="150.0" cy="50.0" fill="none" r="26.584852106471338" stroke="black" stroke-width="2.0"/>
    <circle cx="150.0" cy="50.0" fill="none" r="21.372333603193294" stroke="black" stroke-width="2.0"/>
    <circle cx="150.0" cy="50.0" fill="none" r="15.073714918100764" stroke="black" stroke-width="2.0"/>
    <circle cx="150.0" cy="50.0" fill="none" r="8.514455961396902" stroke="black" stroke-width="2.0"/>
    <circle cx="150.0" cy="50.0" fill="none" r="2.1544037794953583" stroke="black" stroke-width="2.0"/>
    <circle cx="150.0" cy="850.0" fill="none" r="38.0" stroke="black" stroke-width="2.0"/>
    <circle cx="150.0" cy="850.0" fill="none" r="32.03124044164149" stroke="black" stroke-width="2.0"/>
    <circle cx="150.0" cy="850.0" fill="none" r="26.663483078974966" stroke="black" stroke-width="2.0"/>
    <circle cx="150.0" cy="850.0" fill="none" r="21.703124370110956" stroke="black" stroke-width="2.0"/>
    <circle cx="150.0" cy="850.0" fill="none" r="16.77055031494435" stroke="black" stroke-width="2.0"/>
    <circle cx="150.0" cy="850.0" fill="none" r="10.361218044559482" stroke="black" stroke-width="2.0"/>
    <circle cx="150.0" cy="850.0" fill="none" r="4.323008074788236" stroke="black" stroke-width="2.0"/>
    <line stroke="black" stroke-width="2" x1="150.0" x2="150.0" y1="50.0" y2="850.0"/>
    <text alignment-baseline="central" fill="#777777" font-size="20" text-anchor="middle" x="130.0" y="816.6666666666666">1,8</text>
    <text alignment-baseline="central" fill="#777777" font-size="20" text-anchor="middle" x="130.0" y="16.666666666666664">1,0</text>
    <circle cx="250.0" cy="50.0" fill="none" r="38.0" stroke="black" stroke-width="2.0"/>
    <circle cx="250.0" cy="50.0" fill="none" r="32.54410221617525" stroke="black" stroke-width="2.0"/>
    <circle cx="250.0" cy="50.0" fill="none" r="26.002239400035002" stroke="black" stroke-width="2.0"/>
    <circle cx="250.0" cy="50.0" fill="none" r="18.815708829978174" stroke="black" stroke-width="2.0"/>
    <circle cx="250.0" cy="50.0" fill="none" r="13.101649382958175" stroke="black" stroke-width="2.0"/>
    <circle cx="250.0" cy="50.0" fill="none" r="6.062447268364827" stroke="black" stroke-width="2.0"/>
    <circle cx="250.0" cy="850.0" fill="none" r="38.0" stroke="black" stroke-width="2.0"/>
    <circle cx="250.0" cy="850.0" fill="none" r="32.979987729777804" stroke="black" stroke-width="2.0"/>
    <circle cx="250.0" cy="850.0" fill="none" r="27.624259497107964" stroke="black" stroke-width="2.0"/>
    <circle cx="250.0" cy="850.0" fill="none" r="22.499032402481422" stroke="black" stroke-width="2.0"/>
    <circle cx="250.0" cy="850.0" fill="none" r="15.45322552280088" stroke="black" stroke-width="2.0"/>
    <circle cx="250.0" cy="850.0" fill="none" r="8.24596435175511" stroke="black" stroke-width="2.0"/>
    <circle cx="250.0" cy="850.0" fill="none" r="2.3847994053552064" stroke="black" stroke-width="2.0"/>
    <line stroke="black" stroke-width="2" x1="250.0" x2="250.0" y1="50.0" y2="850.0"/>
    <text alignment-baseline="central" fill="#777777" font-size="20" text-anchor="middle" x="230.0" y="816.6666666666666">2,8</text>
    <text alignment-baseline="central" fill="#777777" font-size="20" text-anchor="middle" x="230.0" y="16.666666666666664">2,0</text>
    <circle cx="350.0" cy="50.0" fill="none" r="38.0" stroke="black" stroke-width="2.0"/>
    <circle cx="350.0" cy="50.0" fill="none" r="32.36486994828282" stroke="black" stroke-width="2.0"/>
    <circle cx="350.0" cy="50.0" fill="none" r="26.838019469315316" stroke="black" stroke-width="2.0"/>
    <circle cx="350.0" cy="50.0" fill="none" r="21.153709330095573" stroke="black" stroke-width="2.0"/>
    <circle cx="350.0" cy="50.0" fill="none" r="14.058624345966557" stroke="black" stroke-width="2.0"/>
    <circle cx="350.0" cy="50.0" fill="none" r="7.9412953046100245" stroke="black" stroke-width="2.0"/>
    <circle cx="350.0" cy="50.0" fill="none" r="0.7471905994773032" stroke="black" stroke-width="2.0"/>
    <circle cx="350.0" cy="850.0" fill="none" r="38.0" stroke="black" stroke-width="2.0"/>
    <circle cx="350.0" cy="850.0" fill="none" r="30.758873182822988" stroke="black" stroke-width="2.0"/>
    <circle cx="350.0" cy="850.0" fill="none" r="24.704846652148678" stroke="black" stroke-width="2.0"/>
    <circle cx="350.0" cy="850.0" fill="none" r="17.64912574980783" stroke="black" stroke-width="2.0"/>
    <circle cx="350.0" cy="850.0" fill="none" r="11.404162267127308" stroke="black" stroke-width="2.0"/>
    <circle cx="350.0" cy="850.0" fill="none" r="6.0353753780526604" stroke="black" stroke-width="2.0"/>
    <line stroke="black" stroke-width="2" x1="350.0" x2="350.0" y1="50.0" y2="850.0"/>
    <text alignment-baseline="central" fill="#777777" font-size="20" text-anchor="middle" x="330.0" y="816.6666666666666">3,8</text>
    <text alignment-baseline="central" fill="#777777" font-size="20" text-anchor="middle" x="330.0" y="16.666666666666664">3,0</text>
    <circle cx="450.0" cy="50.0" fill="none" r="38.0" stroke="black" stroke-width="2.0"/>
    <circle cx="450.0" cy="50.0" fill="none" r="31.010409063784145" stroke="black" stroke-width="2.0"/>
    <circle cx="450.0" cy="50.0" fill="none" r="26.45790360680467" stroke="black" stroke-width="2.0"/>
    <circle cx="450.0" cy="50.0" fill="none" r="19.481180063838735" stroke="black" stroke-width="2.0"/>
    <circle cx="450.0" cy="50.0" fill="none" r="13.194509813339849" stroke="black" stroke-width="2.0"/>
    <circle cx="450.0" cy="50.0" fill="none" r="8.095676538950208" stroke="black" stroke-width="2.0"/>
    <circle cx="450.0" cy="50.0" fill="none" r="2.5572605358448195" stroke="black" stroke-width="2.0"/>
    <circle cx="450.0" cy="850.0" fill="none" r="38.0" stroke="black" stroke-width="2.0"/>
    <circle cx="450.0" cy="850.0" fill="none" r="32.54861703036249" stroke="black" stroke-width="2.0"/>
    <circle cx="450.0" cy="850.0" fill="none" r="25.414044283307664" stroke="black" stroke-width="2.0"/>
    <circle cx="450.0" cy="850.0" fill="none" r="19.757577582505427" stroke="black" stroke-width="2.0"/>
    <circle cx="450.0" cy="850.0" fill="none" r="15.127503974480124" stroke="black" stroke-width="2.0"/>
    <circle cx="450.0" cy="850.0" fill="none" r="7.74633427294033" stroke="black" stroke-width="2.0"/>
    <circle cx="450.0" cy="850.0" fill="none" r="2.327869991814768" stroke="black" stroke-width="2.0"/>
    <line stroke="black" stroke-width="2" x1="450.0" x2="450.0" y1="50.0" y2="850.0"/>
    <text alignment-baseline="central" fill="#777777" font-size="20" text-anchor="middle" x="430.0" y="816.6666666666666">4,8</text>
    <text alignment-baseline="central" fill="#777777" font-size="20" text-anchor="middle" x="430.0" y="16.666666666666664">4,0</text>
    <circle cx="550.0" cy="50.0" fill="none" r="38.0" stroke="black" stroke-width="2.0"/>
    <circle cx="550.0" cy="50.0" fill="none" r="30.603430573704596" stroke="black" stroke-width="2.0"/>
    <circle cx="550.0" cy="50.0" fill="none" r="25.659216113478998" stroke="black" stroke-width="2.0"/>
    <circle cx="550.0" cy="50.0" fill="none" r="18.67141983558519" stroke="black" stroke-width="2.0"/>
    <circle cx="550.0" cy="50.0" fill="none" r="11.727269406440874" stroke="black" stroke-width="2.0"/>
    <circle cx="550.0" cy="50.0" fill="none" r="4.9597699486187015" stroke="black" stroke-width="2.0"/>
    <circle cx="550.0" cy="850.0" fill="none" r="38.0" stroke="black" stroke-width="2.0"/>
    <circle cx="550.0" cy="850.0" fill="none" r="31.838143909327073" stroke="black" stroke-width="2.0"/>
    <circle cx="550.0" cy="850.0" fill="none" r="26.14826950241147" stroke="black" stroke-width="2.0"/>
    <circle cx="550.0" cy="850.0" fill="none" r="21.09938326017818" stroke="black" stroke-width="2.0"/>
    <circle cx="550.0" cy="850.0" fill="none" r="13.665796037976788" stroke="black" stroke-width="2.0"/>
    <circle cx="550.0" cy="850.0" fill="none" r="8.641046495872308" stroke="black" stroke-width="2.0"/>
    <circle cx="550.0" cy="850.0" fill="none" r="2.277672323543019" stroke="black" stroke-width="2.0"/>
    <line stroke="black" stroke-width="2" x1="550.0" x2="550.0" y1="50.0" y2="850.0"/>
    <text alignment-baseline="central" fill="#777777" font-size="20" text-anchor="middle" x="530.0" y="816.6666666666666">5,8</text>
    <text alignment-baseline="central" fill="#777777" font-size="20" text-anchor="middle" x="530.0" y="16.666666666666664">5,0</text>
    <circle cx="650.0" cy="50.0" fill="none" r="38.0" stroke="black" stroke-width="2.0"/>
    <circle cx="650.0" cy="50.0" fill="none" r="30.76068983077928" stroke="black" stroke-width="2.0"/>
    <circle cx="650.0" cy="50.0" fill="none" r="24.82828877977962" stroke="black" stroke-width="2.0"/>
    <circle cx="650.0" cy="50.0" fill="none" r="19.667328612698103" stroke="black" stroke-width="2.0"/>
    <circle cx="650.0" cy="50.0" fill="none" r="14.962884613330129" stroke="black" stroke-width="2.0"/>
    <circle cx="650.0" cy="50.0" fill="none" r="8.077543667693856" stroke="black" stroke-width="2.0"/>
    <circle cx="650.0" cy="50.0" fill="none" r="0.8132181161827283" stroke="black" stroke-width="2.0"/>
    <circle cx="650.0" cy="850.0" fill="none" r="38.0" stroke="black" stroke-width="2.0"/>
    <circle cx="650.0" cy="850.0" fill="none" r="32.6811575020381" stroke="black" stroke-width="2.0"/>
    <circle cx="650.0" cy="850.0" fill="none" r="26.657910734660867" stroke="black" stroke-width="2.0"/>
    <circle cx="650.0" cy="850.0" fill="none" r="19.621061784428672" stroke="black" stroke-width="2.0"/>
    <circle cx="650.0" cy="850.0" fill="none" r="13.706536405243224" stroke="black" stroke-width="2.0"/>
    <circle cx="650.0" cy="850.0" fill="none" r="6.838288861574225" stroke="black" stroke-width="2.0"/>
    <line stroke="black" stroke-width="2" x1="650.0" x2="650.0" y1="50.0" y2="850.0"/>
    <text alignment-baseline="central" fill="#777777" font-size="20" text-anchor="middle" x="630.0" y="816.6666666666666">6,8</text>
    <text alignment-baseline="central" fill="#777777" font-size="20" text-anchor="middle" x="630.0" y="16.666666666666664">6,0</text>
    <circle cx="750.0" cy="50.0" fill="none" r="38.0" stroke="black" stroke-width="2.0"/>
    <circle cx="750.0" cy="50.0" fill="none" r="32.71368050256322" stroke="black" stroke-width="2.0"/>
    <circle cx="750.0" cy="50.0" fill="none" r="26.488649029244083" stroke="black" stroke-width="2.0"/>
    <circle cx="750.0" cy="50.0" fill="none" r="21.19560848149736" stroke="black" stroke-width="2.0"/>
    <circle cx="750.0" cy="50.0" fill="none" r="15.170101303577233" stroke="black" stroke-width="2.0"/>
    <circle cx="750.0" cy="50.0" fill="none" r="8.782541218834883" stroke="black" stroke-width="2.0"/>
    <circle cx="750.0" cy="50.0" fill="none" r="1.686048964148248" stroke="black" stroke-width="2.0"/>
    <circle cx="750.0" cy="850.0" fill="none" r="38.0" stroke="black" stroke-width="2.0"/>
    <circle cx="750.0" cy="850.0" fill="none" r="32.664221125253604" stroke="black" stroke-width="2.0"/>
    <circle cx="750.0" cy="850.0" fill="none" r="26.942441811593124" stroke="black" stroke-width="2.0"/>
    <circle cx="750.0" cy="850.0" fill="none" r="22.034306747916087" stroke="black" stroke-width="2.0"/>
    <circle cx="750.0" cy="850.0" fill="none" r="17.464507749784016" stroke="black" stroke-width="2.0"/>
    <circle cx="750.0" cy="850.0" fill="none" r="12.202792752035908" stroke="black" stroke-width="2.0"/>
    <circle cx="750.0" cy="850.0" fill="none" r="6.422900049318843" stroke="black" stroke-width="2.0"/>
    <circle cx="750.0" cy="850.0" fill="none" r="1.0139289117428598" stroke="black" stroke-width="2.0"/>
    <line stroke="black" stroke-width="2" x1="750.0" x2="750.0" y1="50.0" y2="850.0"/>
    <text alignment-baseline="central" fill="#777777" font-size="20" text-anchor="middle" x="730.0" y="816.6666666666666">7,8</text>
    <text alignment-baseline="central" fill="#777777" font-size="20" text-anchor="middle" x="730.0" y="16.666666666666664">7,0</text>
    <circle cx="50.0" cy="150.0" fill="none" r="38.0" stroke="black" stroke-width="2.0"/>
    <circle cx="50.0" cy="150.0" fill="none" r="31.38776600556561" stroke="black" stroke-width="2.0"/>
    <circle cx="50.0" cy="150.0" fill="none" r="25.597089964015296" stroke="black" stroke-width="2.0"/>
    <circle cx="50.0" cy="150.0" fill="none" r="18.253686746453106" stroke="black" stroke-width="2.0"/>
    <circle cx="50.0" cy="150.0" fill="none" r="12.049509451357089" stroke="black" stroke-width="2.0"/>
    <circle cx="50.0" cy="150.0" fill="none" r="4.777309497910957" stroke="black" stroke-width="2.0"/>
    <circle cx="850.0" cy="150.0" fill="none" r="38.0" stroke="black" stroke-width="2.0"/>
    <circle cx="850.0" cy="150.0" fill="none" r="32.424271560726936" stroke="black" stroke-width="2.0"/>
    <circle cx="850.0" cy="150.0" fill="none" r="27.51232577515893" stroke="black" stroke-width="2.0"/>
    <circle cx="850.0" cy="150.0" fill="none" r="22.852505201496534" stroke="black" stroke-width="2.0"/>
    <circle cx="850.0" cy="150.0" fill="none" r="15.398450803128059" stroke="black" stroke-width="2.0"/>
    <circle cx="850.0" cy="150.0" fill="none" r="9.380951060028288" stroke="black" stroke-width="2.0"/>
    <circle cx="850.0" cy="150.0" fill="none" r="4.784886853193381" stroke="black" stroke-width="2.0"/>
    <line stroke="black" stroke-width="2" x1="50.0" x2="850.0" y1="150.0" y2="150.0"/>
    <text alignment-baseline="central" fill="#777777" font-size="20" text-anchor="middle" x="830.0" y="116.66666666666666">8,1</text>
    <text alignment-baseline="central" fill="#777777" font-size="20" text-anchor="middle" x="30.0" y="116.66666666666666">0,1</text>
    <circle cx="50.0" cy="250.0" fill="none" r="38.0" stroke="black" stroke-width="2.0"/>
    <circle cx="50.0" cy="250.0" fill="none" r="32.12793939807317" stroke="black" stroke-width="2.0"/>
    <circle cx="50.0" cy="250.0" fill="none" r="25.40728341804324" stroke="black" stroke-width="2.0"/>
    <circle cx="50.0" cy="250.0" fill="none" r="20.4731462483796" stroke="black" stroke-width="2.0"/>
    <circle cx="50.0" cy="250.0" fill="none" r="15.300394902767586" stroke="black" stroke-width="2.0"/>
    <circle cx="50.0" cy="250.0" fill="none" r="10.628276662822064" stroke="black" stroke-width="2.0"/>
    <circle cx="50.0" cy="250.0" fill="none" r="3.147080151773782" stroke="black" stroke-width="2.0"/>
    <circle cx="850.0" cy="250.0" fill="none" r="38.0" stroke="black" stroke-width="2.0"/>
    <circle cx="850.0" cy="250.0" fill="none" r="31.81907393793677" stroke="black" stroke-width="2.0"/>
    <circle cx="850.0" cy="250.0" fill="none" r="26.39388411500377" stroke="black" stroke-width="2.0"/>
    <circle cx="850.0" cy="250.0" fill="none" r="20.53428120580569" stroke="black" stroke-width="2.0"/>
    <circle cx="850.0" cy="250.0" fill="none" r="14.332485679458468" stroke="black" stroke-width="2.0"/>
    <circle cx="850.0" cy="250.0" fill="none" r="8.000314462690831" stroke="black" stroke-width="2.0"/>
    <circle cx="850.0" cy="250.0" fill="none" r="1.6519941051876614" stroke="black" stroke-width="2.0"/>
    <line stroke="black" stroke-width="2" x1="50.0" x2="850.0" y1="250.0" y2="250.0"/>
    <text alignment-baseline="central" fill="#777777" font-size="20" text-anchor="middle" x="830.0" y="216.66666666666666">8,2</text>
    <text alignment-baseline="central" fill="#777777" font-size="20" text-anchor="middle" x="30.0" y="216.66666666666666">0,2</text>
    <circle cx="50.0" cy="350.0" fill="none" r="38.0" stroke="black" stroke-width="2.0"/>
    <circle cx="50.0" cy="350.0" fill="none" r="32.81878245014707" stroke="black" stroke-width="2.0"/>
    <circle cx="50.0" cy="350.0" fill="none" r="26.342253474171343" stroke="black" stroke-width="2.0"/>
    <circle cx="50.0" cy="350.0" fill="none" r="19.452710471597957" stroke="black" stroke-width="2.0"/>
    <circle cx="50.0" cy="350.0" fill="none" r="13.666146368589288" stroke="black" stroke-width="2.0"/>
    <circle cx="50.0" cy="350.0" fill="none" r="8.673524392892563" stroke="black" stroke-width="2.0"/>
    <circle cx="50.0" cy="350.0" fill="none" r="3.3589686585337812" stroke="black" stroke-width="2.0"/>
    <circle cx="850.0" cy="350.0" fill="none" r="38.0" stroke="black" stroke-width="2.0"/>
    <circle cx="850.0" cy="350.0" fill="none" r="32.34018961171999" stroke="black" stroke-width="2.0"/>
    <circle cx="850.0" cy="350.0" fill="none" r="25.338219115991713" stroke="black" stroke-width="2.0"/>
    <circle cx="850.0" cy="350.0" fill="none" r="19.82519693974063" stroke="black" stroke-width="2.0"/>
    <circle cx="850.0" cy="350.0" fill="none" r="13.081941137947199" stroke="black" stroke-width="2.0"/>
    <circle cx="850.0" cy="350.0" fill="none" r="7.612303449265653" stroke="black" stroke-width="2.0"/>
    <circle cx="850.0" cy="350.0" fill="none" r="1.7919298480653474" stroke="black" stroke-width="2.0"/>
    <line stroke="black" stroke-width="2" x1="50.0" x2="850.0" y1="350.0" y2="350.0"/>
    <text alignment-baseline="central" fill="#777777" font-size="20" text-anchor="middle" x="830.0" y="316.6666666666667">8,3</text>
    <text alignment-baseline="central" fill="#777777" font-size="20" text-anchor="middle" x="30.0" y="316.6666666666667">0,3</text>
    <circle cx="50.0" cy="450.0" fill="none" r="38.0" stroke="black" stroke-width="2.0"/>
    <circle cx="50.0" cy="450.0" fill="none" r="32.635409369419264" stroke="black" stroke-width="2.0"/>
    <circle cx="50.0" cy="450.0" fill="none" r="27.3837918798216" stroke="black" stroke-width="2.0"/>
    <circle cx="50.0" cy="450.0" fill="none" r="21.546691138041695" stroke="black" stroke-width="2.0"/>
    <circle cx="50.0" cy="450.0" fill="none" r="16.133648765480594" stroke="black" stroke-width="2.0"/>
    <circle cx="50.0" cy="450.0" fill="none" r="10.88888058013768" stroke="black" stroke-width="2.0"/>
    <circle cx="50.0" cy="450.0" fill="none" r="5.699423127362937" stroke="black" stroke-width="2.0"/>
    <circle cx="50.0" cy="450.0" fill="none" r="0.6684478433692629" stroke="black" stroke-width="2.0"/>
    <circle cx="850.0" cy="450.0" fill="none" r="38.0" stroke="black" stroke-width="2.0"/>
    <circle cx="850.0" cy="450.0" fill="none" r="32.81809355847949" stroke="black" stroke-width="2.0"/>
    <circle cx="850.0" cy="450.0" fill="none" r="25.91334279795761" stroke="black" stroke-width="2.0"/>
    <circle cx="850.0" cy="450.0" fill="none" r="20.85991919082325" stroke="black" stroke-width="2.0"/>
    <circle cx="850.0" cy="450.0" fill="none" r="13.691012178489437" stroke="black" stroke-width="2.0"/>
    <circle cx="850.0" cy="450.0" fill="none" r="8.605170592301128" stroke="black" stroke-width="2.0"/>
    <circle cx="850.0" cy="450.0" fill="none" r="1.706199586065603" stroke="black" stroke-width="2.0"/>
    <line stroke="black" stroke-width="2" x1="50.0" x2="850.0" y1="450.0" y2="450.0"/>
    <text alignment-baseline="central" fill="#777777" font-size="20" text-anchor="middle" x="830.0" y="416.6666666666667">8,4</text>
    <text alignment-baseline="central" fill="#777777" font-size="20" text-anchor="middle" x="30.0" y="416.6666666666667">0,4</text>
    <circle cx="50.0" cy="550.0" fill="none" r="38.0" stroke="black" stroke-width="2.0"/>
    <circle cx="50.0" cy="550.0" fill="none" r="33.10062439858586" stroke="black" stroke-width="2.0"/>
    <circle cx="50.0" cy="550.0" fill="none" r="26.715888612350643" stroke="black" stroke-width="2.0"/>
    <circle cx="50.0" cy="550.0" fill="none" r="21.854979242712105" stroke="black" stroke-width="2.0"/>
    <circle cx="50.0" cy="550.0" fill="none" r="15.599818812963793" stroke="black" stroke-width="2.0"/>
    <circle cx="50.0" cy="550.0" fill="none" r="10.255017369762125" stroke="black" stroke-width="2.0"/>
    <circle cx="50.0" cy="550.0" fill="none" r="5.628019134198896" stroke="black" stroke-width="2.0"/>
    <circle cx="850.0" cy="550.0" fill="none" r="38.0" stroke="black" stroke-width="2.0"/>
    <circle cx="850.0" cy="550.0" fill="none" r="31.690039671332418" stroke="black" stroke-width="2.0"/>
    <circle cx="850.0" cy="550.0" fill="none" r="25.411619932248975" stroke="black" stroke-width="2.0"/>
    <circle cx="850.0" cy="550.0" fill="none" r="19.58971960892623" stroke="black" stroke-width="2.0"/>
    <circle cx="850.0" cy="550.0" fill="none" r="12.640491346236356" stroke="black" stroke-width="2.0"/>
    <circle cx="850.0" cy="550.0" fill="none" r="6.813098732506347" stroke="black" stroke-width="2.0"/>
    <line stroke="black" stroke-width="2" x1="50.0" x2="850.0" y1="550.0" y2="550.0"/>
    <text alignment-baseline="central" fill="#777777" font-size="20" text-anchor="middle" x="830.0" y="516.6666666666666">8,5</text>
    <text alignment-baseline="central" fill="#777777" font-size="20" text-anchor="middle" x="30.0" y="516.6666666666666">0,5</text>
    <circle cx="50.0" cy="650.0" fill="none" r="38.0" stroke="black" stroke-width="2.0"/>
    <circle cx="50.0" cy="650.0" fill="none" r="30.964512328669095" stroke="black" stroke-width="2.0"/>
    <circle cx="50.0" cy="650.0" fill="none" r="25.65673923042695" stroke="black" stroke-width="2.0"/>
    <circle cx="50.0" cy="650.0" fill="none" r="20.110389624455824" stroke="black" stroke-width="2.0"/>
    <circle cx="50.0" cy="650.0" fill="none" r="14.938771835368545" stroke="black" stroke-width="2.0"/>
    <circle cx="50.0" cy="650.0" fill="none" r="9.754815945143347" stroke="black" stroke-width="2.0"/>
    <circle cx="50.0" cy="650.0" fill="none" r="4.218032489357904" stroke="black" stroke-width="2.0"/>
    <circle cx="850.0" cy="650.0" fill="none" r="38.0" stroke="black" stroke-width="2.0"/>
    <circle cx="850.0" cy="650.0" fill="none" r="33.44223755050181" stroke="black" stroke-width="2.0"/>
    <circle cx="850.0" cy="650.0" fill="none" r="28.619336369239154" stroke="black" stroke-width="2.0"/>
    <circle cx="850.0" cy="650.0" fill="none" r="22.072317257140803" stroke="black" stroke-width="2.0"/>
    <circle cx="850.0" cy="650.0" fill="none" r="16.11069862824195" stroke="black" stroke-width="2.0"/>
    <circle cx="850.0" cy="650.0" fill="none" r="11.594828976061185" stroke="black" stroke-width="2.0"/>
    <circle cx="850.0" cy="650.0" fill="none" r="4.134448868350882" stroke="black" stroke-width="2.0"/>
    <line stroke="black" stroke-width="2" x1="50.0" x2="850.0" y1="650.0" y2="650.0"/>
    <text alignment-baseline="central" fill="#777777" font-size="20" text-anchor="middle" x="830.0" y="616.6666666666666">8,6</text>
    <text alignment-baseline="central" fill="#777777" font-size="20" text-anchor="middle" x="30.0" y="616.6666666666666">0,6</text>
    <circle cx="50.0" cy="750.0" fill="none" r="38.0" stroke="black" stroke-width="2.0"/>
    <circle cx="50.0" cy="750.0" fill="none" r="31.04461221898263" stroke="black" stroke-width="2.0"/>
    <circle cx="50.0" cy="750.0" fill="none" r="25.57223183966871" stroke="black" stroke-width="2.0"/>
    <circle cx="50.0" cy="750.0" fill="none" r="20.147746121745477" stroke="black" stroke-width="2.0"/>
    <circle cx="50.0" cy="750.0" fill="none" r="15.00729144896901" stroke="black" stroke-width="2.0"/>
    <circle cx="50.0" cy="750.0" fill="none" r="10.287087825599421" stroke="black" stroke-width="2.0"/>
    <circle cx="50.0" cy="750.0" fill="none" r="3.48218275223343" stroke="black" stroke-width="2.0"/>
    <circle cx="850.0" cy="750.0" fill="none" r="38.0" stroke="black" stroke-width="2.0"/>
    <circle cx="850.0" cy="750.0" fill="none" r="31.223385648876366" stroke="black" stroke-width="2.0"/>
    <circle cx="850.0" cy="750.0" fill="none" r="25.43866788079219" stroke="black" stroke-width="2.0"/>
    <circle cx="850.0" cy="750.0" fill="none" r="19.29602238869648" stroke="black" stroke-width="2.0"/>
    <circle cx="850.0" cy="750.0" fill="none" r="12.186305693921136" stroke="black" stroke-width="2.0"/>
    <circle cx="850.0" cy="750.0" fill="none" r="5.4639529873694075" stroke="black" stroke-width="2.0"/>
    <circle cx="850.0" cy="750.0" fill="none" r="0.7217449768010207" stroke="black" stroke-width="2.0"/>
    <line stroke="black" stroke-width="2" x1="50.0" x2="850.0" y1="750.0" y2="750.0"/>
    <text alignment-baseline="central" fill="#777777" font-size="20" text-anchor="middle" x="830.0" y="716.6666666666666">8,7</text>
    <text alignment-baseline="central" fill="#777777" font-size="20" text-anchor="middle" x="30.0" y="716.6666666666666">0,7</text>
    <polyline fill="none" points="250.33740842733607,260.95453733860506 238.42828967521677,132.83917112383187 229.69210537988522,66.61242057312458" stroke="orange" stroke-width="3"/>
    <polyline fill="none" points="229.69210537988522,66.61242057312458 271.8586892458079,825.6368402477224" stroke="purple" stroke-dasharray="5,5" stroke-width="2"/>
    <polyline fill="none" points="271.8586892458079,825.6368402477224 243.1738920083463,767.8133946298191 247.38309534027627,656.3968497220139 269.62382291704137,753.6253662630726 134.58777624651884,751.7948385409031 41.558476153033396,729.6410549408432" stroke="orange" stroke-width="3"/>
    <polyline fill="none" points="41.558476153033396,729.6410549408432 854.8226263915957,748.1415158495755" stroke="purple" stroke-dasharray="5,5" stroke-width="2"/>
    <polyline fill="none" points="854.8226263915957,748.1415158495755 725.1046340116277,767.0540824107956 659.3559562867624,757.0595967000593 629.2887967745952,666.35503232641 626.5140268789111,742.4875245129447 669.9039668738046,833.8554821893472" stroke="orange" stroke-width="3"/>
    <polyline fill="none" points="669.9039668738046,833.8554821893472 662.9551653819171,38.303420756480236" stroke="purple" stroke-dasharray="5,5" stroke-width="2"/>
    <polyline fill="none" points="662.9551653819171,38.303420756480236 645.5670073647835,147.35144079405995 626.6057201796899,36.45572260157891" stroke="orange" stroke-width="3"/>
    <polyline fill="none" points="626.6057201796899,36.45572260157891 665.6239284963208,863.9634619365017" stroke="purple" stroke-dasharray="5,5" stroke-width="2"/>
    <polyline fill="none" points="665.6239284963208,863.9634619365017" stroke="orange" stroke-width="3"/>
    <polyline fill="none" points="665.6239284963208,863.9634619365017 665.3928776888546,31.48186273409607" stroke="purple" stroke-dasharray="5,5" stroke-width="2"/>
    <polyline fill="none" points="665.3928776888546,31.48186273409607" stroke="orange" stroke-width="3"/>
  </g>
</svg>
